%TF.GenerationSoftware,KiCad,Pcbnew,(5.1.7)-1*%
%TF.CreationDate,2021-06-08T21:15:34+03:00*%
%TF.ProjectId,RaspiAdapter,52617370-6941-4646-9170-7465722e6b69,rev?*%
%TF.SameCoordinates,Original*%
%TF.FileFunction,Legend,Top*%
%TF.FilePolarity,Positive*%
%FSLAX46Y46*%
G04 Gerber Fmt 4.6, Leading zero omitted, Abs format (unit mm)*
G04 Created by KiCad (PCBNEW (5.1.7)-1) date 2021-06-08 21:15:34*
%MOMM*%
%LPD*%
G01*
G04 APERTURE LIST*
%ADD10C,0.600000*%
%ADD11C,0.150000*%
%ADD12C,0.300000*%
%ADD13C,0.250000*%
%ADD14C,0.120000*%
G04 APERTURE END LIST*
D10*
X152650000Y-93200000D02*
G75*
G03*
X152650000Y-93200000I-150000J0D01*
G01*
D11*
X168943976Y-113942761D02*
X169086833Y-113990380D01*
X169324928Y-113990380D01*
X169420166Y-113942761D01*
X169467785Y-113895142D01*
X169515404Y-113799904D01*
X169515404Y-113704666D01*
X169467785Y-113609428D01*
X169420166Y-113561809D01*
X169324928Y-113514190D01*
X169134452Y-113466571D01*
X169039214Y-113418952D01*
X168991595Y-113371333D01*
X168943976Y-113276095D01*
X168943976Y-113180857D01*
X168991595Y-113085619D01*
X169039214Y-113038000D01*
X169134452Y-112990380D01*
X169372547Y-112990380D01*
X169515404Y-113038000D01*
X169943976Y-113990380D02*
X169943976Y-112990380D01*
X170182071Y-112990380D01*
X170324928Y-113038000D01*
X170420166Y-113133238D01*
X170467785Y-113228476D01*
X170515404Y-113418952D01*
X170515404Y-113561809D01*
X170467785Y-113752285D01*
X170420166Y-113847523D01*
X170324928Y-113942761D01*
X170182071Y-113990380D01*
X169943976Y-113990380D01*
X170896357Y-113704666D02*
X171372547Y-113704666D01*
X170801119Y-113990380D02*
X171134452Y-112990380D01*
X171467785Y-113990380D01*
X146542285Y-95767380D02*
X146208952Y-95291190D01*
X145970857Y-95767380D02*
X145970857Y-94767380D01*
X146351809Y-94767380D01*
X146447047Y-94815000D01*
X146494666Y-94862619D01*
X146542285Y-94957857D01*
X146542285Y-95100714D01*
X146494666Y-95195952D01*
X146447047Y-95243571D01*
X146351809Y-95291190D01*
X145970857Y-95291190D01*
X147399428Y-95767380D02*
X147399428Y-95243571D01*
X147351809Y-95148333D01*
X147256571Y-95100714D01*
X147066095Y-95100714D01*
X146970857Y-95148333D01*
X147399428Y-95719761D02*
X147304190Y-95767380D01*
X147066095Y-95767380D01*
X146970857Y-95719761D01*
X146923238Y-95624523D01*
X146923238Y-95529285D01*
X146970857Y-95434047D01*
X147066095Y-95386428D01*
X147304190Y-95386428D01*
X147399428Y-95338809D01*
X147828000Y-95719761D02*
X147923238Y-95767380D01*
X148113714Y-95767380D01*
X148208952Y-95719761D01*
X148256571Y-95624523D01*
X148256571Y-95576904D01*
X148208952Y-95481666D01*
X148113714Y-95434047D01*
X147970857Y-95434047D01*
X147875619Y-95386428D01*
X147828000Y-95291190D01*
X147828000Y-95243571D01*
X147875619Y-95148333D01*
X147970857Y-95100714D01*
X148113714Y-95100714D01*
X148208952Y-95148333D01*
X148685142Y-95767380D02*
X148685142Y-94767380D01*
X149066095Y-94767380D01*
X149161333Y-94815000D01*
X149208952Y-94862619D01*
X149256571Y-94957857D01*
X149256571Y-95100714D01*
X149208952Y-95195952D01*
X149161333Y-95243571D01*
X149066095Y-95291190D01*
X148685142Y-95291190D01*
X149685142Y-95767380D02*
X149685142Y-95100714D01*
X149685142Y-94767380D02*
X149637523Y-94815000D01*
X149685142Y-94862619D01*
X149732761Y-94815000D01*
X149685142Y-94767380D01*
X149685142Y-94862619D01*
X144113714Y-97417380D02*
X144113714Y-96417380D01*
X144780380Y-96417380D02*
X144970857Y-96417380D01*
X145066095Y-96465000D01*
X145161333Y-96560238D01*
X145208952Y-96750714D01*
X145208952Y-97084047D01*
X145161333Y-97274523D01*
X145066095Y-97369761D01*
X144970857Y-97417380D01*
X144780380Y-97417380D01*
X144685142Y-97369761D01*
X144589904Y-97274523D01*
X144542285Y-97084047D01*
X144542285Y-96750714D01*
X144589904Y-96560238D01*
X144685142Y-96465000D01*
X144780380Y-96417380D01*
X146351809Y-97131666D02*
X146828000Y-97131666D01*
X146256571Y-97417380D02*
X146589904Y-96417380D01*
X146923238Y-97417380D01*
X147685142Y-97417380D02*
X147685142Y-96417380D01*
X147685142Y-97369761D02*
X147589904Y-97417380D01*
X147399428Y-97417380D01*
X147304190Y-97369761D01*
X147256571Y-97322142D01*
X147208952Y-97226904D01*
X147208952Y-96941190D01*
X147256571Y-96845952D01*
X147304190Y-96798333D01*
X147399428Y-96750714D01*
X147589904Y-96750714D01*
X147685142Y-96798333D01*
X148589904Y-97417380D02*
X148589904Y-96893571D01*
X148542285Y-96798333D01*
X148447047Y-96750714D01*
X148256571Y-96750714D01*
X148161333Y-96798333D01*
X148589904Y-97369761D02*
X148494666Y-97417380D01*
X148256571Y-97417380D01*
X148161333Y-97369761D01*
X148113714Y-97274523D01*
X148113714Y-97179285D01*
X148161333Y-97084047D01*
X148256571Y-97036428D01*
X148494666Y-97036428D01*
X148589904Y-96988809D01*
X149066095Y-96750714D02*
X149066095Y-97750714D01*
X149066095Y-96798333D02*
X149161333Y-96750714D01*
X149351809Y-96750714D01*
X149447047Y-96798333D01*
X149494666Y-96845952D01*
X149542285Y-96941190D01*
X149542285Y-97226904D01*
X149494666Y-97322142D01*
X149447047Y-97369761D01*
X149351809Y-97417380D01*
X149161333Y-97417380D01*
X149066095Y-97369761D01*
X149828000Y-96750714D02*
X150208952Y-96750714D01*
X149970857Y-96417380D02*
X149970857Y-97274523D01*
X150018476Y-97369761D01*
X150113714Y-97417380D01*
X150208952Y-97417380D01*
X150923238Y-97369761D02*
X150828000Y-97417380D01*
X150637523Y-97417380D01*
X150542285Y-97369761D01*
X150494666Y-97274523D01*
X150494666Y-96893571D01*
X150542285Y-96798333D01*
X150637523Y-96750714D01*
X150828000Y-96750714D01*
X150923238Y-96798333D01*
X150970857Y-96893571D01*
X150970857Y-96988809D01*
X150494666Y-97084047D01*
X151399428Y-97417380D02*
X151399428Y-96750714D01*
X151399428Y-96941190D02*
X151447047Y-96845952D01*
X151494666Y-96798333D01*
X151589904Y-96750714D01*
X151685142Y-96750714D01*
X144637523Y-98162619D02*
X144685142Y-98115000D01*
X144780380Y-98067380D01*
X145018476Y-98067380D01*
X145113714Y-98115000D01*
X145161333Y-98162619D01*
X145208952Y-98257857D01*
X145208952Y-98353095D01*
X145161333Y-98495952D01*
X144589904Y-99067380D01*
X145208952Y-99067380D01*
X145542285Y-98067380D02*
X146161333Y-98067380D01*
X145828000Y-98448333D01*
X145970857Y-98448333D01*
X146066095Y-98495952D01*
X146113714Y-98543571D01*
X146161333Y-98638809D01*
X146161333Y-98876904D01*
X146113714Y-98972142D01*
X146066095Y-99019761D01*
X145970857Y-99067380D01*
X145685142Y-99067380D01*
X145589904Y-99019761D01*
X145542285Y-98972142D01*
X147304190Y-98019761D02*
X146447047Y-99305476D01*
X147589904Y-98162619D02*
X147637523Y-98115000D01*
X147732761Y-98067380D01*
X147970857Y-98067380D01*
X148066095Y-98115000D01*
X148113714Y-98162619D01*
X148161333Y-98257857D01*
X148161333Y-98353095D01*
X148113714Y-98495952D01*
X147542285Y-99067380D01*
X148161333Y-99067380D01*
X148780380Y-98067380D02*
X148875619Y-98067380D01*
X148970857Y-98115000D01*
X149018476Y-98162619D01*
X149066095Y-98257857D01*
X149113714Y-98448333D01*
X149113714Y-98686428D01*
X149066095Y-98876904D01*
X149018476Y-98972142D01*
X148970857Y-99019761D01*
X148875619Y-99067380D01*
X148780380Y-99067380D01*
X148685142Y-99019761D01*
X148637523Y-98972142D01*
X148589904Y-98876904D01*
X148542285Y-98686428D01*
X148542285Y-98448333D01*
X148589904Y-98257857D01*
X148637523Y-98162619D01*
X148685142Y-98115000D01*
X148780380Y-98067380D01*
X149494666Y-98162619D02*
X149542285Y-98115000D01*
X149637523Y-98067380D01*
X149875619Y-98067380D01*
X149970857Y-98115000D01*
X150018476Y-98162619D01*
X150066095Y-98257857D01*
X150066095Y-98353095D01*
X150018476Y-98495952D01*
X149447047Y-99067380D01*
X150066095Y-99067380D01*
X151018476Y-99067380D02*
X150447047Y-99067380D01*
X150732761Y-99067380D02*
X150732761Y-98067380D01*
X150637523Y-98210238D01*
X150542285Y-98305476D01*
X150447047Y-98353095D01*
X144828000Y-100193571D02*
X144494666Y-100193571D01*
X144494666Y-100717380D02*
X144494666Y-99717380D01*
X144970857Y-99717380D01*
X145351809Y-100717380D02*
X145351809Y-100050714D01*
X145351809Y-99717380D02*
X145304190Y-99765000D01*
X145351809Y-99812619D01*
X145399428Y-99765000D01*
X145351809Y-99717380D01*
X145351809Y-99812619D01*
X145828000Y-100050714D02*
X145828000Y-100717380D01*
X145828000Y-100145952D02*
X145875619Y-100098333D01*
X145970857Y-100050714D01*
X146113714Y-100050714D01*
X146208952Y-100098333D01*
X146256571Y-100193571D01*
X146256571Y-100717380D01*
X147161333Y-100717380D02*
X147161333Y-99717380D01*
X147161333Y-100669761D02*
X147066095Y-100717380D01*
X146875619Y-100717380D01*
X146780380Y-100669761D01*
X146732761Y-100622142D01*
X146685142Y-100526904D01*
X146685142Y-100241190D01*
X146732761Y-100145952D01*
X146780380Y-100098333D01*
X146875619Y-100050714D01*
X147066095Y-100050714D01*
X147161333Y-100098333D01*
X148018476Y-100669761D02*
X147923238Y-100717380D01*
X147732761Y-100717380D01*
X147637523Y-100669761D01*
X147589904Y-100574523D01*
X147589904Y-100193571D01*
X147637523Y-100098333D01*
X147732761Y-100050714D01*
X147923238Y-100050714D01*
X148018476Y-100098333D01*
X148066095Y-100193571D01*
X148066095Y-100288809D01*
X147589904Y-100384047D01*
X148494666Y-100717380D02*
X148494666Y-100050714D01*
X148494666Y-100241190D02*
X148542285Y-100145952D01*
X148589904Y-100098333D01*
X148685142Y-100050714D01*
X148780380Y-100050714D01*
X149066095Y-100669761D02*
X149161333Y-100717380D01*
X149351809Y-100717380D01*
X149447047Y-100669761D01*
X149494666Y-100574523D01*
X149494666Y-100526904D01*
X149447047Y-100431666D01*
X149351809Y-100384047D01*
X149208952Y-100384047D01*
X149113714Y-100336428D01*
X149066095Y-100241190D01*
X149066095Y-100193571D01*
X149113714Y-100098333D01*
X149208952Y-100050714D01*
X149351809Y-100050714D01*
X149447047Y-100098333D01*
X150304190Y-100669761D02*
X150208952Y-100717380D01*
X150018476Y-100717380D01*
X149923238Y-100669761D01*
X149875619Y-100574523D01*
X149875619Y-100193571D01*
X149923238Y-100098333D01*
X150018476Y-100050714D01*
X150208952Y-100050714D01*
X150304190Y-100098333D01*
X150351809Y-100193571D01*
X150351809Y-100288809D01*
X149875619Y-100384047D01*
X151161333Y-100669761D02*
X151066095Y-100717380D01*
X150875619Y-100717380D01*
X150780380Y-100669761D01*
X150732761Y-100574523D01*
X150732761Y-100193571D01*
X150780380Y-100098333D01*
X150875619Y-100050714D01*
X151066095Y-100050714D01*
X151161333Y-100098333D01*
X151208952Y-100193571D01*
X151208952Y-100288809D01*
X150732761Y-100384047D01*
D12*
X171672285Y-92645571D02*
X170958000Y-92645571D01*
X170886571Y-93359857D01*
X170958000Y-93288428D01*
X171100857Y-93217000D01*
X171458000Y-93217000D01*
X171600857Y-93288428D01*
X171672285Y-93359857D01*
X171743714Y-93502714D01*
X171743714Y-93859857D01*
X171672285Y-94002714D01*
X171600857Y-94074142D01*
X171458000Y-94145571D01*
X171100857Y-94145571D01*
X170958000Y-94074142D01*
X170886571Y-94002714D01*
X172172285Y-92645571D02*
X172672285Y-94145571D01*
X173172285Y-92645571D01*
X170815142Y-95267000D02*
X170672285Y-95195571D01*
X170458000Y-95195571D01*
X170243714Y-95267000D01*
X170100857Y-95409857D01*
X170029428Y-95552714D01*
X169958000Y-95838428D01*
X169958000Y-96052714D01*
X170029428Y-96338428D01*
X170100857Y-96481285D01*
X170243714Y-96624142D01*
X170458000Y-96695571D01*
X170600857Y-96695571D01*
X170815142Y-96624142D01*
X170886571Y-96552714D01*
X170886571Y-96052714D01*
X170600857Y-96052714D01*
X171529428Y-96695571D02*
X171529428Y-95195571D01*
X172386571Y-96695571D01*
X172386571Y-95195571D01*
X173100857Y-96695571D02*
X173100857Y-95195571D01*
X173458000Y-95195571D01*
X173672285Y-95267000D01*
X173815142Y-95409857D01*
X173886571Y-95552714D01*
X173958000Y-95838428D01*
X173958000Y-96052714D01*
X173886571Y-96338428D01*
X173815142Y-96481285D01*
X173672285Y-96624142D01*
X173458000Y-96695571D01*
X173100857Y-96695571D01*
D11*
X161798095Y-98258380D02*
X162369523Y-98258380D01*
X162083809Y-99258380D02*
X162083809Y-98258380D01*
X162607619Y-98258380D02*
X163274285Y-99258380D01*
X163274285Y-98258380D02*
X162607619Y-99258380D01*
X164933333Y-99258380D02*
X164600000Y-98782190D01*
X164361904Y-99258380D02*
X164361904Y-98258380D01*
X164742857Y-98258380D01*
X164838095Y-98306000D01*
X164885714Y-98353619D01*
X164933333Y-98448857D01*
X164933333Y-98591714D01*
X164885714Y-98686952D01*
X164838095Y-98734571D01*
X164742857Y-98782190D01*
X164361904Y-98782190D01*
X165266666Y-98258380D02*
X165933333Y-99258380D01*
X165933333Y-98258380D02*
X165266666Y-99258380D01*
X168943976Y-119022761D02*
X169086833Y-119070380D01*
X169324928Y-119070380D01*
X169420166Y-119022761D01*
X169467785Y-118975142D01*
X169515404Y-118879904D01*
X169515404Y-118784666D01*
X169467785Y-118689428D01*
X169420166Y-118641809D01*
X169324928Y-118594190D01*
X169134452Y-118546571D01*
X169039214Y-118498952D01*
X168991595Y-118451333D01*
X168943976Y-118356095D01*
X168943976Y-118260857D01*
X168991595Y-118165619D01*
X169039214Y-118118000D01*
X169134452Y-118070380D01*
X169372547Y-118070380D01*
X169515404Y-118118000D01*
X170515404Y-118975142D02*
X170467785Y-119022761D01*
X170324928Y-119070380D01*
X170229690Y-119070380D01*
X170086833Y-119022761D01*
X169991595Y-118927523D01*
X169943976Y-118832285D01*
X169896357Y-118641809D01*
X169896357Y-118498952D01*
X169943976Y-118308476D01*
X169991595Y-118213238D01*
X170086833Y-118118000D01*
X170229690Y-118070380D01*
X170324928Y-118070380D01*
X170467785Y-118118000D01*
X170515404Y-118165619D01*
X171420166Y-119070380D02*
X170943976Y-119070380D01*
X170943976Y-118070380D01*
X169515404Y-115578000D02*
X169420166Y-115530380D01*
X169277309Y-115530380D01*
X169134452Y-115578000D01*
X169039214Y-115673238D01*
X168991595Y-115768476D01*
X168943976Y-115958952D01*
X168943976Y-116101809D01*
X168991595Y-116292285D01*
X169039214Y-116387523D01*
X169134452Y-116482761D01*
X169277309Y-116530380D01*
X169372547Y-116530380D01*
X169515404Y-116482761D01*
X169563023Y-116435142D01*
X169563023Y-116101809D01*
X169372547Y-116101809D01*
X169991595Y-116530380D02*
X169991595Y-115530380D01*
X170563023Y-116530380D01*
X170563023Y-115530380D01*
X171039214Y-116530380D02*
X171039214Y-115530380D01*
X171277309Y-115530380D01*
X171420166Y-115578000D01*
X171515404Y-115673238D01*
X171563023Y-115768476D01*
X171610642Y-115958952D01*
X171610642Y-116101809D01*
X171563023Y-116292285D01*
X171515404Y-116387523D01*
X171420166Y-116482761D01*
X171277309Y-116530380D01*
X171039214Y-116530380D01*
X168896357Y-110450380D02*
X169515404Y-110450380D01*
X169182071Y-110831333D01*
X169324928Y-110831333D01*
X169420166Y-110878952D01*
X169467785Y-110926571D01*
X169515404Y-111021809D01*
X169515404Y-111259904D01*
X169467785Y-111355142D01*
X169420166Y-111402761D01*
X169324928Y-111450380D01*
X169039214Y-111450380D01*
X168943976Y-111402761D01*
X168896357Y-111355142D01*
X169801119Y-110450380D02*
X170134452Y-111450380D01*
X170467785Y-110450380D01*
X170705880Y-110450380D02*
X171324928Y-110450380D01*
X170991595Y-110831333D01*
X171134452Y-110831333D01*
X171229690Y-110878952D01*
X171277309Y-110926571D01*
X171324928Y-111021809D01*
X171324928Y-111259904D01*
X171277309Y-111355142D01*
X171229690Y-111402761D01*
X171134452Y-111450380D01*
X170848738Y-111450380D01*
X170753500Y-111402761D01*
X170705880Y-111355142D01*
X169467785Y-107910380D02*
X168991595Y-107910380D01*
X168943976Y-108386571D01*
X168991595Y-108338952D01*
X169086833Y-108291333D01*
X169324928Y-108291333D01*
X169420166Y-108338952D01*
X169467785Y-108386571D01*
X169515404Y-108481809D01*
X169515404Y-108719904D01*
X169467785Y-108815142D01*
X169420166Y-108862761D01*
X169324928Y-108910380D01*
X169086833Y-108910380D01*
X168991595Y-108862761D01*
X168943976Y-108815142D01*
X169801119Y-107910380D02*
X170134452Y-108910380D01*
X170467785Y-107910380D01*
D13*
X133620000Y-108711809D02*
X133524761Y-108902285D01*
X133524761Y-109188000D01*
X133620000Y-109473714D01*
X133810476Y-109664190D01*
X134000952Y-109759428D01*
X134381904Y-109854666D01*
X134667619Y-109854666D01*
X135048571Y-109759428D01*
X135239047Y-109664190D01*
X135429523Y-109473714D01*
X135524761Y-109188000D01*
X135524761Y-108997523D01*
X135429523Y-108711809D01*
X135334285Y-108616571D01*
X134667619Y-108616571D01*
X134667619Y-108997523D01*
X135524761Y-107759428D02*
X133524761Y-107759428D01*
X135524761Y-106616571D01*
X133524761Y-106616571D01*
X135524761Y-105664190D02*
X133524761Y-105664190D01*
X133524761Y-105188000D01*
X133620000Y-104902285D01*
X133810476Y-104711809D01*
X134000952Y-104616571D01*
X134381904Y-104521333D01*
X134667619Y-104521333D01*
X135048571Y-104616571D01*
X135239047Y-104711809D01*
X135429523Y-104902285D01*
X135524761Y-105188000D01*
X135524761Y-105664190D01*
D11*
X142591404Y-110498000D02*
X142496166Y-110450380D01*
X142353309Y-110450380D01*
X142210452Y-110498000D01*
X142115214Y-110593238D01*
X142067595Y-110688476D01*
X142019976Y-110878952D01*
X142019976Y-111021809D01*
X142067595Y-111212285D01*
X142115214Y-111307523D01*
X142210452Y-111402761D01*
X142353309Y-111450380D01*
X142448547Y-111450380D01*
X142591404Y-111402761D01*
X142639023Y-111355142D01*
X142639023Y-111021809D01*
X142448547Y-111021809D01*
X143067595Y-111450380D02*
X143067595Y-110450380D01*
X143448547Y-110450380D01*
X143543785Y-110498000D01*
X143591404Y-110545619D01*
X143639023Y-110640857D01*
X143639023Y-110783714D01*
X143591404Y-110878952D01*
X143543785Y-110926571D01*
X143448547Y-110974190D01*
X143067595Y-110974190D01*
X144067595Y-111450380D02*
X144067595Y-110450380D01*
X144734261Y-110450380D02*
X144924738Y-110450380D01*
X145019976Y-110498000D01*
X145115214Y-110593238D01*
X145162833Y-110783714D01*
X145162833Y-111117047D01*
X145115214Y-111307523D01*
X145019976Y-111402761D01*
X144924738Y-111450380D01*
X144734261Y-111450380D01*
X144639023Y-111402761D01*
X144543785Y-111307523D01*
X144496166Y-111117047D01*
X144496166Y-110783714D01*
X144543785Y-110593238D01*
X144639023Y-110498000D01*
X144734261Y-110450380D01*
X145543785Y-110545619D02*
X145591404Y-110498000D01*
X145686642Y-110450380D01*
X145924738Y-110450380D01*
X146019976Y-110498000D01*
X146067595Y-110545619D01*
X146115214Y-110640857D01*
X146115214Y-110736095D01*
X146067595Y-110878952D01*
X145496166Y-111450380D01*
X146115214Y-111450380D01*
X146496166Y-110545619D02*
X146543785Y-110498000D01*
X146639023Y-110450380D01*
X146877119Y-110450380D01*
X146972357Y-110498000D01*
X147019976Y-110545619D01*
X147067595Y-110640857D01*
X147067595Y-110736095D01*
X147019976Y-110878952D01*
X146448547Y-111450380D01*
X147067595Y-111450380D01*
X142591404Y-107958000D02*
X142496166Y-107910380D01*
X142353309Y-107910380D01*
X142210452Y-107958000D01*
X142115214Y-108053238D01*
X142067595Y-108148476D01*
X142019976Y-108338952D01*
X142019976Y-108481809D01*
X142067595Y-108672285D01*
X142115214Y-108767523D01*
X142210452Y-108862761D01*
X142353309Y-108910380D01*
X142448547Y-108910380D01*
X142591404Y-108862761D01*
X142639023Y-108815142D01*
X142639023Y-108481809D01*
X142448547Y-108481809D01*
X143067595Y-108910380D02*
X143067595Y-107910380D01*
X143448547Y-107910380D01*
X143543785Y-107958000D01*
X143591404Y-108005619D01*
X143639023Y-108100857D01*
X143639023Y-108243714D01*
X143591404Y-108338952D01*
X143543785Y-108386571D01*
X143448547Y-108434190D01*
X143067595Y-108434190D01*
X144067595Y-108910380D02*
X144067595Y-107910380D01*
X144734261Y-107910380D02*
X144924738Y-107910380D01*
X145019976Y-107958000D01*
X145115214Y-108053238D01*
X145162833Y-108243714D01*
X145162833Y-108577047D01*
X145115214Y-108767523D01*
X145019976Y-108862761D01*
X144924738Y-108910380D01*
X144734261Y-108910380D01*
X144639023Y-108862761D01*
X144543785Y-108767523D01*
X144496166Y-108577047D01*
X144496166Y-108243714D01*
X144543785Y-108053238D01*
X144639023Y-107958000D01*
X144734261Y-107910380D01*
X145543785Y-108005619D02*
X145591404Y-107958000D01*
X145686642Y-107910380D01*
X145924738Y-107910380D01*
X146019976Y-107958000D01*
X146067595Y-108005619D01*
X146115214Y-108100857D01*
X146115214Y-108196095D01*
X146067595Y-108338952D01*
X145496166Y-108910380D01*
X146115214Y-108910380D01*
X147067595Y-108910380D02*
X146496166Y-108910380D01*
X146781880Y-108910380D02*
X146781880Y-107910380D01*
X146686642Y-108053238D01*
X146591404Y-108148476D01*
X146496166Y-108196095D01*
X148210452Y-107862761D02*
X147353309Y-109148476D01*
X148496166Y-108005619D02*
X148543785Y-107958000D01*
X148639023Y-107910380D01*
X148877119Y-107910380D01*
X148972357Y-107958000D01*
X149019976Y-108005619D01*
X149067595Y-108100857D01*
X149067595Y-108196095D01*
X149019976Y-108338952D01*
X148448547Y-108910380D01*
X149067595Y-108910380D01*
X149400928Y-107910380D02*
X150067595Y-107910380D01*
X149639023Y-108910380D01*
X142591404Y-105418000D02*
X142496166Y-105370380D01*
X142353309Y-105370380D01*
X142210452Y-105418000D01*
X142115214Y-105513238D01*
X142067595Y-105608476D01*
X142019976Y-105798952D01*
X142019976Y-105941809D01*
X142067595Y-106132285D01*
X142115214Y-106227523D01*
X142210452Y-106322761D01*
X142353309Y-106370380D01*
X142448547Y-106370380D01*
X142591404Y-106322761D01*
X142639023Y-106275142D01*
X142639023Y-105941809D01*
X142448547Y-105941809D01*
X143067595Y-106370380D02*
X143067595Y-105370380D01*
X143448547Y-105370380D01*
X143543785Y-105418000D01*
X143591404Y-105465619D01*
X143639023Y-105560857D01*
X143639023Y-105703714D01*
X143591404Y-105798952D01*
X143543785Y-105846571D01*
X143448547Y-105894190D01*
X143067595Y-105894190D01*
X144067595Y-106370380D02*
X144067595Y-105370380D01*
X144734261Y-105370380D02*
X144924738Y-105370380D01*
X145019976Y-105418000D01*
X145115214Y-105513238D01*
X145162833Y-105703714D01*
X145162833Y-106037047D01*
X145115214Y-106227523D01*
X145019976Y-106322761D01*
X144924738Y-106370380D01*
X144734261Y-106370380D01*
X144639023Y-106322761D01*
X144543785Y-106227523D01*
X144496166Y-106037047D01*
X144496166Y-105703714D01*
X144543785Y-105513238D01*
X144639023Y-105418000D01*
X144734261Y-105370380D01*
X146115214Y-106370380D02*
X145543785Y-106370380D01*
X145829500Y-106370380D02*
X145829500Y-105370380D01*
X145734261Y-105513238D01*
X145639023Y-105608476D01*
X145543785Y-105656095D01*
X146448547Y-105370380D02*
X147115214Y-105370380D01*
X146686642Y-106370380D01*
X142591404Y-102878000D02*
X142496166Y-102830380D01*
X142353309Y-102830380D01*
X142210452Y-102878000D01*
X142115214Y-102973238D01*
X142067595Y-103068476D01*
X142019976Y-103258952D01*
X142019976Y-103401809D01*
X142067595Y-103592285D01*
X142115214Y-103687523D01*
X142210452Y-103782761D01*
X142353309Y-103830380D01*
X142448547Y-103830380D01*
X142591404Y-103782761D01*
X142639023Y-103735142D01*
X142639023Y-103401809D01*
X142448547Y-103401809D01*
X143067595Y-103830380D02*
X143067595Y-102830380D01*
X143448547Y-102830380D01*
X143543785Y-102878000D01*
X143591404Y-102925619D01*
X143639023Y-103020857D01*
X143639023Y-103163714D01*
X143591404Y-103258952D01*
X143543785Y-103306571D01*
X143448547Y-103354190D01*
X143067595Y-103354190D01*
X144067595Y-103830380D02*
X144067595Y-102830380D01*
X144734261Y-102830380D02*
X144924738Y-102830380D01*
X145019976Y-102878000D01*
X145115214Y-102973238D01*
X145162833Y-103163714D01*
X145162833Y-103497047D01*
X145115214Y-103687523D01*
X145019976Y-103782761D01*
X144924738Y-103830380D01*
X144734261Y-103830380D01*
X144639023Y-103782761D01*
X144543785Y-103687523D01*
X144496166Y-103497047D01*
X144496166Y-103163714D01*
X144543785Y-102973238D01*
X144639023Y-102878000D01*
X144734261Y-102830380D01*
X146019976Y-103163714D02*
X146019976Y-103830380D01*
X145781880Y-102782761D02*
X145543785Y-103497047D01*
X146162833Y-103497047D01*
D12*
X131492857Y-92645571D02*
X132421428Y-92645571D01*
X131921428Y-93217000D01*
X132135714Y-93217000D01*
X132278571Y-93288428D01*
X132350000Y-93359857D01*
X132421428Y-93502714D01*
X132421428Y-93859857D01*
X132350000Y-94002714D01*
X132278571Y-94074142D01*
X132135714Y-94145571D01*
X131707142Y-94145571D01*
X131564285Y-94074142D01*
X131492857Y-94002714D01*
X132850000Y-92645571D02*
X133350000Y-94145571D01*
X133850000Y-92645571D01*
X134207142Y-92645571D02*
X135135714Y-92645571D01*
X134635714Y-93217000D01*
X134850000Y-93217000D01*
X134992857Y-93288428D01*
X135064285Y-93359857D01*
X135135714Y-93502714D01*
X135135714Y-93859857D01*
X135064285Y-94002714D01*
X134992857Y-94074142D01*
X134850000Y-94145571D01*
X134421428Y-94145571D01*
X134278571Y-94074142D01*
X134207142Y-94002714D01*
X132207142Y-95267000D02*
X132064285Y-95195571D01*
X131850000Y-95195571D01*
X131635714Y-95267000D01*
X131492857Y-95409857D01*
X131421428Y-95552714D01*
X131350000Y-95838428D01*
X131350000Y-96052714D01*
X131421428Y-96338428D01*
X131492857Y-96481285D01*
X131635714Y-96624142D01*
X131850000Y-96695571D01*
X131992857Y-96695571D01*
X132207142Y-96624142D01*
X132278571Y-96552714D01*
X132278571Y-96052714D01*
X131992857Y-96052714D01*
X132921428Y-96695571D02*
X132921428Y-95195571D01*
X133778571Y-96695571D01*
X133778571Y-95195571D01*
X134492857Y-96695571D02*
X134492857Y-95195571D01*
X134850000Y-95195571D01*
X135064285Y-95267000D01*
X135207142Y-95409857D01*
X135278571Y-95552714D01*
X135350000Y-95838428D01*
X135350000Y-96052714D01*
X135278571Y-96338428D01*
X135207142Y-96481285D01*
X135064285Y-96624142D01*
X134850000Y-96695571D01*
X134492857Y-96695571D01*
D11*
X144105523Y-124356761D02*
X144248380Y-124404380D01*
X144486476Y-124404380D01*
X144581714Y-124356761D01*
X144629333Y-124309142D01*
X144676952Y-124213904D01*
X144676952Y-124118666D01*
X144629333Y-124023428D01*
X144581714Y-123975809D01*
X144486476Y-123928190D01*
X144296000Y-123880571D01*
X144200761Y-123832952D01*
X144153142Y-123785333D01*
X144105523Y-123690095D01*
X144105523Y-123594857D01*
X144153142Y-123499619D01*
X144200761Y-123452000D01*
X144296000Y-123404380D01*
X144534095Y-123404380D01*
X144676952Y-123452000D01*
X145676952Y-124309142D02*
X145629333Y-124356761D01*
X145486476Y-124404380D01*
X145391238Y-124404380D01*
X145248380Y-124356761D01*
X145153142Y-124261523D01*
X145105523Y-124166285D01*
X145057904Y-123975809D01*
X145057904Y-123832952D01*
X145105523Y-123642476D01*
X145153142Y-123547238D01*
X145248380Y-123452000D01*
X145391238Y-123404380D01*
X145486476Y-123404380D01*
X145629333Y-123452000D01*
X145676952Y-123499619D01*
X146581714Y-124404380D02*
X146105523Y-124404380D01*
X146105523Y-123404380D01*
X146915047Y-124404380D02*
X146915047Y-123404380D01*
X147486476Y-124404380D02*
X147057904Y-123832952D01*
X147486476Y-123404380D02*
X146915047Y-123975809D01*
X145034095Y-120912000D02*
X144938857Y-120864380D01*
X144796000Y-120864380D01*
X144653142Y-120912000D01*
X144557904Y-121007238D01*
X144510285Y-121102476D01*
X144462666Y-121292952D01*
X144462666Y-121435809D01*
X144510285Y-121626285D01*
X144557904Y-121721523D01*
X144653142Y-121816761D01*
X144796000Y-121864380D01*
X144891238Y-121864380D01*
X145034095Y-121816761D01*
X145081714Y-121769142D01*
X145081714Y-121435809D01*
X144891238Y-121435809D01*
X145510285Y-121864380D02*
X145510285Y-120864380D01*
X146081714Y-121864380D01*
X146081714Y-120864380D01*
X146557904Y-121864380D02*
X146557904Y-120864380D01*
X146796000Y-120864380D01*
X146938857Y-120912000D01*
X147034095Y-121007238D01*
X147081714Y-121102476D01*
X147129333Y-121292952D01*
X147129333Y-121435809D01*
X147081714Y-121626285D01*
X147034095Y-121721523D01*
X146938857Y-121816761D01*
X146796000Y-121864380D01*
X146557904Y-121864380D01*
X144224571Y-119324380D02*
X144224571Y-118324380D01*
X144557904Y-119038666D01*
X144891238Y-118324380D01*
X144891238Y-119324380D01*
X145367428Y-119324380D02*
X145367428Y-118324380D01*
X145796000Y-119276761D02*
X145938857Y-119324380D01*
X146176952Y-119324380D01*
X146272190Y-119276761D01*
X146319809Y-119229142D01*
X146367428Y-119133904D01*
X146367428Y-119038666D01*
X146319809Y-118943428D01*
X146272190Y-118895809D01*
X146176952Y-118848190D01*
X145986476Y-118800571D01*
X145891238Y-118752952D01*
X145843619Y-118705333D01*
X145796000Y-118610095D01*
X145796000Y-118514857D01*
X145843619Y-118419619D01*
X145891238Y-118372000D01*
X145986476Y-118324380D01*
X146224571Y-118324380D01*
X146367428Y-118372000D01*
X146986476Y-118324380D02*
X147176952Y-118324380D01*
X147272190Y-118372000D01*
X147367428Y-118467238D01*
X147415047Y-118657714D01*
X147415047Y-118991047D01*
X147367428Y-119181523D01*
X147272190Y-119276761D01*
X147176952Y-119324380D01*
X146986476Y-119324380D01*
X146891238Y-119276761D01*
X146796000Y-119181523D01*
X146748380Y-118991047D01*
X146748380Y-118657714D01*
X146796000Y-118467238D01*
X146891238Y-118372000D01*
X146986476Y-118324380D01*
X144224571Y-116784380D02*
X144224571Y-115784380D01*
X144557904Y-116498666D01*
X144891238Y-115784380D01*
X144891238Y-116784380D01*
X145557904Y-115784380D02*
X145748380Y-115784380D01*
X145843619Y-115832000D01*
X145938857Y-115927238D01*
X145986476Y-116117714D01*
X145986476Y-116451047D01*
X145938857Y-116641523D01*
X145843619Y-116736761D01*
X145748380Y-116784380D01*
X145557904Y-116784380D01*
X145462666Y-116736761D01*
X145367428Y-116641523D01*
X145319809Y-116451047D01*
X145319809Y-116117714D01*
X145367428Y-115927238D01*
X145462666Y-115832000D01*
X145557904Y-115784380D01*
X146367428Y-116736761D02*
X146510285Y-116784380D01*
X146748380Y-116784380D01*
X146843619Y-116736761D01*
X146891238Y-116689142D01*
X146938857Y-116593904D01*
X146938857Y-116498666D01*
X146891238Y-116403428D01*
X146843619Y-116355809D01*
X146748380Y-116308190D01*
X146557904Y-116260571D01*
X146462666Y-116212952D01*
X146415047Y-116165333D01*
X146367428Y-116070095D01*
X146367428Y-115974857D01*
X146415047Y-115879619D01*
X146462666Y-115832000D01*
X146557904Y-115784380D01*
X146796000Y-115784380D01*
X146938857Y-115832000D01*
X147367428Y-116784380D02*
X147367428Y-115784380D01*
X144319809Y-125738000D02*
X144224571Y-125690380D01*
X144081714Y-125690380D01*
X143938857Y-125738000D01*
X143843619Y-125833238D01*
X143796000Y-125928476D01*
X143748380Y-126118952D01*
X143748380Y-126261809D01*
X143796000Y-126452285D01*
X143843619Y-126547523D01*
X143938857Y-126642761D01*
X144081714Y-126690380D01*
X144176952Y-126690380D01*
X144319809Y-126642761D01*
X144367428Y-126595142D01*
X144367428Y-126261809D01*
X144176952Y-126261809D01*
X144796000Y-126690380D02*
X144796000Y-125690380D01*
X145176952Y-125690380D01*
X145272190Y-125738000D01*
X145319809Y-125785619D01*
X145367428Y-125880857D01*
X145367428Y-126023714D01*
X145319809Y-126118952D01*
X145272190Y-126166571D01*
X145176952Y-126214190D01*
X144796000Y-126214190D01*
X145796000Y-126690380D02*
X145796000Y-125690380D01*
X146462666Y-125690380D02*
X146653142Y-125690380D01*
X146748380Y-125738000D01*
X146843619Y-125833238D01*
X146891238Y-126023714D01*
X146891238Y-126357047D01*
X146843619Y-126547523D01*
X146748380Y-126642761D01*
X146653142Y-126690380D01*
X146462666Y-126690380D01*
X146367428Y-126642761D01*
X146272190Y-126547523D01*
X146224571Y-126357047D01*
X146224571Y-126023714D01*
X146272190Y-125833238D01*
X146367428Y-125738000D01*
X146462666Y-125690380D01*
X147224571Y-125690380D02*
X147891238Y-125690380D01*
X147462666Y-126690380D01*
D14*
%TO.C,J110*%
X166430000Y-127314000D02*
X163830000Y-127314000D01*
X166430000Y-127314000D02*
X166430000Y-122114000D01*
X166430000Y-122114000D02*
X161230000Y-122114000D01*
X161230000Y-124714000D02*
X161230000Y-122114000D01*
X163830000Y-124714000D02*
X161230000Y-124714000D01*
X163830000Y-127314000D02*
X163830000Y-124714000D01*
X161230000Y-127314000D02*
X161230000Y-125984000D01*
X162560000Y-127314000D02*
X161230000Y-127314000D01*
%TO.C,J101*%
X153864000Y-91888000D02*
X155194000Y-91888000D01*
X153864000Y-93218000D02*
X153864000Y-91888000D01*
X156464000Y-91888000D02*
X159064000Y-91888000D01*
X156464000Y-94488000D02*
X156464000Y-91888000D01*
X153864000Y-94488000D02*
X156464000Y-94488000D01*
X159064000Y-91888000D02*
X159064000Y-125028000D01*
X153864000Y-94488000D02*
X153864000Y-125028000D01*
X153864000Y-125028000D02*
X159064000Y-125028000D01*
%TO.C,J109*%
X171390000Y-119948000D02*
X174050000Y-119948000D01*
X171390000Y-109728000D02*
X171390000Y-119948000D01*
X174050000Y-109728000D02*
X174050000Y-119948000D01*
X171390000Y-109728000D02*
X174050000Y-109728000D01*
X171390000Y-108458000D02*
X171390000Y-107128000D01*
X171390000Y-107128000D02*
X172720000Y-107128000D01*
%TO.C,J104*%
X139954000Y-102048000D02*
X141284000Y-102048000D01*
X141284000Y-102048000D02*
X141284000Y-103378000D01*
X138684000Y-102048000D02*
X138684000Y-104648000D01*
X138684000Y-104648000D02*
X141284000Y-104648000D01*
X141284000Y-104648000D02*
X141284000Y-112328000D01*
X136084000Y-112328000D02*
X141284000Y-112328000D01*
X136084000Y-102048000D02*
X136084000Y-112328000D01*
X136084000Y-102048000D02*
X138684000Y-102048000D01*
%TO.C,J102*%
X163770000Y-91888000D02*
X165100000Y-91888000D01*
X163770000Y-93218000D02*
X163770000Y-91888000D01*
X166370000Y-91888000D02*
X168970000Y-91888000D01*
X166370000Y-94488000D02*
X166370000Y-91888000D01*
X163770000Y-94488000D02*
X166370000Y-94488000D01*
X168970000Y-91888000D02*
X168970000Y-97088000D01*
X163770000Y-94488000D02*
X163770000Y-97088000D01*
X163770000Y-97088000D02*
X168970000Y-97088000D01*
%TO.C,J107*%
X139954000Y-91888000D02*
X141284000Y-91888000D01*
X141284000Y-91888000D02*
X141284000Y-93218000D01*
X138684000Y-91888000D02*
X138684000Y-94488000D01*
X138684000Y-94488000D02*
X141284000Y-94488000D01*
X141284000Y-94488000D02*
X141284000Y-97088000D01*
X136084000Y-97088000D02*
X141284000Y-97088000D01*
X136084000Y-91888000D02*
X136084000Y-97088000D01*
X136084000Y-91888000D02*
X138684000Y-91888000D01*
%TO.C,J105*%
X161230000Y-100838000D02*
X161230000Y-99508000D01*
X161230000Y-99508000D02*
X162560000Y-99508000D01*
X161230000Y-102108000D02*
X163830000Y-102108000D01*
X163830000Y-102108000D02*
X163830000Y-99508000D01*
X163830000Y-99508000D02*
X166430000Y-99508000D01*
X166430000Y-104708000D02*
X166430000Y-99508000D01*
X161230000Y-104708000D02*
X166430000Y-104708000D01*
X161230000Y-104708000D02*
X161230000Y-102108000D01*
%TO.C,J108*%
X148784000Y-114748000D02*
X150114000Y-114748000D01*
X148784000Y-116078000D02*
X148784000Y-114748000D01*
X148784000Y-117348000D02*
X151444000Y-117348000D01*
X151444000Y-117348000D02*
X151444000Y-127568000D01*
X148784000Y-117348000D02*
X148784000Y-127568000D01*
X148784000Y-127568000D02*
X151444000Y-127568000D01*
%TO.C,J106*%
X161230000Y-107128000D02*
X162560000Y-107128000D01*
X161230000Y-108458000D02*
X161230000Y-107128000D01*
X161230000Y-109728000D02*
X163890000Y-109728000D01*
X163890000Y-109728000D02*
X163890000Y-119948000D01*
X161230000Y-109728000D02*
X161230000Y-119948000D01*
X161230000Y-119948000D02*
X163890000Y-119948000D01*
%TO.C,J103*%
X166310000Y-107128000D02*
X167640000Y-107128000D01*
X166310000Y-108458000D02*
X166310000Y-107128000D01*
X166310000Y-109728000D02*
X168970000Y-109728000D01*
X168970000Y-109728000D02*
X168970000Y-119948000D01*
X166310000Y-109728000D02*
X166310000Y-119948000D01*
X166310000Y-119948000D02*
X168970000Y-119948000D01*
%TO.C,C107*%
X142238000Y-93921733D02*
X142238000Y-94264267D01*
X143258000Y-93921733D02*
X143258000Y-94264267D01*
%TO.C,C104*%
X161034000Y-93921733D02*
X161034000Y-94264267D01*
X162054000Y-93921733D02*
X162054000Y-94264267D01*
%TO.C,J110*%
D11*
X162544285Y-128206380D02*
X162544285Y-128920666D01*
X162496666Y-129063523D01*
X162401428Y-129158761D01*
X162258571Y-129206380D01*
X162163333Y-129206380D01*
X163544285Y-129206380D02*
X162972857Y-129206380D01*
X163258571Y-129206380D02*
X163258571Y-128206380D01*
X163163333Y-128349238D01*
X163068095Y-128444476D01*
X162972857Y-128492095D01*
X164496666Y-129206380D02*
X163925238Y-129206380D01*
X164210952Y-129206380D02*
X164210952Y-128206380D01*
X164115714Y-128349238D01*
X164020476Y-128444476D01*
X163925238Y-128492095D01*
X165115714Y-128206380D02*
X165210952Y-128206380D01*
X165306190Y-128254000D01*
X165353809Y-128301619D01*
X165401428Y-128396857D01*
X165449047Y-128587333D01*
X165449047Y-128825428D01*
X165401428Y-129015904D01*
X165353809Y-129111142D01*
X165306190Y-129158761D01*
X165210952Y-129206380D01*
X165115714Y-129206380D01*
X165020476Y-129158761D01*
X164972857Y-129111142D01*
X164925238Y-129015904D01*
X164877619Y-128825428D01*
X164877619Y-128587333D01*
X164925238Y-128396857D01*
X164972857Y-128301619D01*
X165020476Y-128254000D01*
X165115714Y-128206380D01*
%TO.C,J101*%
X155564000Y-90802666D02*
X155564000Y-91302666D01*
X155530666Y-91402666D01*
X155464000Y-91469333D01*
X155364000Y-91502666D01*
X155297333Y-91502666D01*
X156264000Y-91502666D02*
X155864000Y-91502666D01*
X156064000Y-91502666D02*
X156064000Y-90802666D01*
X155997333Y-90902666D01*
X155930666Y-90969333D01*
X155864000Y-91002666D01*
X156697333Y-90802666D02*
X156764000Y-90802666D01*
X156830666Y-90836000D01*
X156864000Y-90869333D01*
X156897333Y-90936000D01*
X156930666Y-91069333D01*
X156930666Y-91236000D01*
X156897333Y-91369333D01*
X156864000Y-91436000D01*
X156830666Y-91469333D01*
X156764000Y-91502666D01*
X156697333Y-91502666D01*
X156630666Y-91469333D01*
X156597333Y-91436000D01*
X156564000Y-91369333D01*
X156530666Y-91236000D01*
X156530666Y-91069333D01*
X156564000Y-90936000D01*
X156597333Y-90869333D01*
X156630666Y-90836000D01*
X156697333Y-90802666D01*
X157597333Y-91502666D02*
X157197333Y-91502666D01*
X157397333Y-91502666D02*
X157397333Y-90802666D01*
X157330666Y-90902666D01*
X157264000Y-90969333D01*
X157197333Y-91002666D01*
%TO.C,J109*%
X171434285Y-105580380D02*
X171434285Y-106294666D01*
X171386666Y-106437523D01*
X171291428Y-106532761D01*
X171148571Y-106580380D01*
X171053333Y-106580380D01*
X172434285Y-106580380D02*
X171862857Y-106580380D01*
X172148571Y-106580380D02*
X172148571Y-105580380D01*
X172053333Y-105723238D01*
X171958095Y-105818476D01*
X171862857Y-105866095D01*
X173053333Y-105580380D02*
X173148571Y-105580380D01*
X173243809Y-105628000D01*
X173291428Y-105675619D01*
X173339047Y-105770857D01*
X173386666Y-105961333D01*
X173386666Y-106199428D01*
X173339047Y-106389904D01*
X173291428Y-106485142D01*
X173243809Y-106532761D01*
X173148571Y-106580380D01*
X173053333Y-106580380D01*
X172958095Y-106532761D01*
X172910476Y-106485142D01*
X172862857Y-106389904D01*
X172815238Y-106199428D01*
X172815238Y-105961333D01*
X172862857Y-105770857D01*
X172910476Y-105675619D01*
X172958095Y-105628000D01*
X173053333Y-105580380D01*
X173862857Y-106580380D02*
X174053333Y-106580380D01*
X174148571Y-106532761D01*
X174196190Y-106485142D01*
X174291428Y-106342285D01*
X174339047Y-106151809D01*
X174339047Y-105770857D01*
X174291428Y-105675619D01*
X174243809Y-105628000D01*
X174148571Y-105580380D01*
X173958095Y-105580380D01*
X173862857Y-105628000D01*
X173815238Y-105675619D01*
X173767619Y-105770857D01*
X173767619Y-106008952D01*
X173815238Y-106104190D01*
X173862857Y-106151809D01*
X173958095Y-106199428D01*
X174148571Y-106199428D01*
X174243809Y-106151809D01*
X174291428Y-106104190D01*
X174339047Y-106008952D01*
%TO.C,J104*%
X137784000Y-100224666D02*
X137784000Y-100724666D01*
X137750666Y-100824666D01*
X137684000Y-100891333D01*
X137584000Y-100924666D01*
X137517333Y-100924666D01*
X138484000Y-100924666D02*
X138084000Y-100924666D01*
X138284000Y-100924666D02*
X138284000Y-100224666D01*
X138217333Y-100324666D01*
X138150666Y-100391333D01*
X138084000Y-100424666D01*
X138917333Y-100224666D02*
X138984000Y-100224666D01*
X139050666Y-100258000D01*
X139084000Y-100291333D01*
X139117333Y-100358000D01*
X139150666Y-100491333D01*
X139150666Y-100658000D01*
X139117333Y-100791333D01*
X139084000Y-100858000D01*
X139050666Y-100891333D01*
X138984000Y-100924666D01*
X138917333Y-100924666D01*
X138850666Y-100891333D01*
X138817333Y-100858000D01*
X138784000Y-100791333D01*
X138750666Y-100658000D01*
X138750666Y-100491333D01*
X138784000Y-100358000D01*
X138817333Y-100291333D01*
X138850666Y-100258000D01*
X138917333Y-100224666D01*
X139750666Y-100458000D02*
X139750666Y-100924666D01*
X139584000Y-100191333D02*
X139417333Y-100691333D01*
X139850666Y-100691333D01*
%TO.C,J102*%
X165216000Y-90802666D02*
X165216000Y-91302666D01*
X165182666Y-91402666D01*
X165116000Y-91469333D01*
X165016000Y-91502666D01*
X164949333Y-91502666D01*
X165916000Y-91502666D02*
X165516000Y-91502666D01*
X165716000Y-91502666D02*
X165716000Y-90802666D01*
X165649333Y-90902666D01*
X165582666Y-90969333D01*
X165516000Y-91002666D01*
X166349333Y-90802666D02*
X166416000Y-90802666D01*
X166482666Y-90836000D01*
X166516000Y-90869333D01*
X166549333Y-90936000D01*
X166582666Y-91069333D01*
X166582666Y-91236000D01*
X166549333Y-91369333D01*
X166516000Y-91436000D01*
X166482666Y-91469333D01*
X166416000Y-91502666D01*
X166349333Y-91502666D01*
X166282666Y-91469333D01*
X166249333Y-91436000D01*
X166216000Y-91369333D01*
X166182666Y-91236000D01*
X166182666Y-91069333D01*
X166216000Y-90936000D01*
X166249333Y-90869333D01*
X166282666Y-90836000D01*
X166349333Y-90802666D01*
X166849333Y-90869333D02*
X166882666Y-90836000D01*
X166949333Y-90802666D01*
X167116000Y-90802666D01*
X167182666Y-90836000D01*
X167216000Y-90869333D01*
X167249333Y-90936000D01*
X167249333Y-91002666D01*
X167216000Y-91102666D01*
X166816000Y-91502666D01*
X167249333Y-91502666D01*
%TO.C,J107*%
X137784000Y-90802666D02*
X137784000Y-91302666D01*
X137750666Y-91402666D01*
X137684000Y-91469333D01*
X137584000Y-91502666D01*
X137517333Y-91502666D01*
X138484000Y-91502666D02*
X138084000Y-91502666D01*
X138284000Y-91502666D02*
X138284000Y-90802666D01*
X138217333Y-90902666D01*
X138150666Y-90969333D01*
X138084000Y-91002666D01*
X138917333Y-90802666D02*
X138984000Y-90802666D01*
X139050666Y-90836000D01*
X139084000Y-90869333D01*
X139117333Y-90936000D01*
X139150666Y-91069333D01*
X139150666Y-91236000D01*
X139117333Y-91369333D01*
X139084000Y-91436000D01*
X139050666Y-91469333D01*
X138984000Y-91502666D01*
X138917333Y-91502666D01*
X138850666Y-91469333D01*
X138817333Y-91436000D01*
X138784000Y-91369333D01*
X138750666Y-91236000D01*
X138750666Y-91069333D01*
X138784000Y-90936000D01*
X138817333Y-90869333D01*
X138850666Y-90836000D01*
X138917333Y-90802666D01*
X139384000Y-90802666D02*
X139850666Y-90802666D01*
X139550666Y-91502666D01*
%TO.C,J105*%
X167756000Y-103502666D02*
X167756000Y-104002666D01*
X167722666Y-104102666D01*
X167656000Y-104169333D01*
X167556000Y-104202666D01*
X167489333Y-104202666D01*
X168456000Y-104202666D02*
X168056000Y-104202666D01*
X168256000Y-104202666D02*
X168256000Y-103502666D01*
X168189333Y-103602666D01*
X168122666Y-103669333D01*
X168056000Y-103702666D01*
X168889333Y-103502666D02*
X168956000Y-103502666D01*
X169022666Y-103536000D01*
X169056000Y-103569333D01*
X169089333Y-103636000D01*
X169122666Y-103769333D01*
X169122666Y-103936000D01*
X169089333Y-104069333D01*
X169056000Y-104136000D01*
X169022666Y-104169333D01*
X168956000Y-104202666D01*
X168889333Y-104202666D01*
X168822666Y-104169333D01*
X168789333Y-104136000D01*
X168756000Y-104069333D01*
X168722666Y-103936000D01*
X168722666Y-103769333D01*
X168756000Y-103636000D01*
X168789333Y-103569333D01*
X168822666Y-103536000D01*
X168889333Y-103502666D01*
X169756000Y-103502666D02*
X169422666Y-103502666D01*
X169389333Y-103836000D01*
X169422666Y-103802666D01*
X169489333Y-103769333D01*
X169656000Y-103769333D01*
X169722666Y-103802666D01*
X169756000Y-103836000D01*
X169789333Y-103902666D01*
X169789333Y-104069333D01*
X169756000Y-104136000D01*
X169722666Y-104169333D01*
X169656000Y-104202666D01*
X169489333Y-104202666D01*
X169422666Y-104169333D01*
X169389333Y-104136000D01*
%TO.C,J108*%
X149214000Y-113364666D02*
X149214000Y-113864666D01*
X149180666Y-113964666D01*
X149114000Y-114031333D01*
X149014000Y-114064666D01*
X148947333Y-114064666D01*
X149914000Y-114064666D02*
X149514000Y-114064666D01*
X149714000Y-114064666D02*
X149714000Y-113364666D01*
X149647333Y-113464666D01*
X149580666Y-113531333D01*
X149514000Y-113564666D01*
X150347333Y-113364666D02*
X150414000Y-113364666D01*
X150480666Y-113398000D01*
X150514000Y-113431333D01*
X150547333Y-113498000D01*
X150580666Y-113631333D01*
X150580666Y-113798000D01*
X150547333Y-113931333D01*
X150514000Y-113998000D01*
X150480666Y-114031333D01*
X150414000Y-114064666D01*
X150347333Y-114064666D01*
X150280666Y-114031333D01*
X150247333Y-113998000D01*
X150214000Y-113931333D01*
X150180666Y-113798000D01*
X150180666Y-113631333D01*
X150214000Y-113498000D01*
X150247333Y-113431333D01*
X150280666Y-113398000D01*
X150347333Y-113364666D01*
X150980666Y-113664666D02*
X150914000Y-113631333D01*
X150880666Y-113598000D01*
X150847333Y-113531333D01*
X150847333Y-113498000D01*
X150880666Y-113431333D01*
X150914000Y-113398000D01*
X150980666Y-113364666D01*
X151114000Y-113364666D01*
X151180666Y-113398000D01*
X151214000Y-113431333D01*
X151247333Y-113498000D01*
X151247333Y-113531333D01*
X151214000Y-113598000D01*
X151180666Y-113631333D01*
X151114000Y-113664666D01*
X150980666Y-113664666D01*
X150914000Y-113698000D01*
X150880666Y-113731333D01*
X150847333Y-113798000D01*
X150847333Y-113931333D01*
X150880666Y-113998000D01*
X150914000Y-114031333D01*
X150980666Y-114064666D01*
X151114000Y-114064666D01*
X151180666Y-114031333D01*
X151214000Y-113998000D01*
X151247333Y-113931333D01*
X151247333Y-113798000D01*
X151214000Y-113731333D01*
X151180666Y-113698000D01*
X151114000Y-113664666D01*
%TO.C,J106*%
X161660000Y-105744666D02*
X161660000Y-106244666D01*
X161626666Y-106344666D01*
X161560000Y-106411333D01*
X161460000Y-106444666D01*
X161393333Y-106444666D01*
X162360000Y-106444666D02*
X161960000Y-106444666D01*
X162160000Y-106444666D02*
X162160000Y-105744666D01*
X162093333Y-105844666D01*
X162026666Y-105911333D01*
X161960000Y-105944666D01*
X162793333Y-105744666D02*
X162860000Y-105744666D01*
X162926666Y-105778000D01*
X162960000Y-105811333D01*
X162993333Y-105878000D01*
X163026666Y-106011333D01*
X163026666Y-106178000D01*
X162993333Y-106311333D01*
X162960000Y-106378000D01*
X162926666Y-106411333D01*
X162860000Y-106444666D01*
X162793333Y-106444666D01*
X162726666Y-106411333D01*
X162693333Y-106378000D01*
X162660000Y-106311333D01*
X162626666Y-106178000D01*
X162626666Y-106011333D01*
X162660000Y-105878000D01*
X162693333Y-105811333D01*
X162726666Y-105778000D01*
X162793333Y-105744666D01*
X163626666Y-105744666D02*
X163493333Y-105744666D01*
X163426666Y-105778000D01*
X163393333Y-105811333D01*
X163326666Y-105911333D01*
X163293333Y-106044666D01*
X163293333Y-106311333D01*
X163326666Y-106378000D01*
X163360000Y-106411333D01*
X163426666Y-106444666D01*
X163560000Y-106444666D01*
X163626666Y-106411333D01*
X163660000Y-106378000D01*
X163693333Y-106311333D01*
X163693333Y-106144666D01*
X163660000Y-106078000D01*
X163626666Y-106044666D01*
X163560000Y-106011333D01*
X163426666Y-106011333D01*
X163360000Y-106044666D01*
X163326666Y-106078000D01*
X163293333Y-106144666D01*
%TO.C,J103*%
X166740000Y-105744666D02*
X166740000Y-106244666D01*
X166706666Y-106344666D01*
X166640000Y-106411333D01*
X166540000Y-106444666D01*
X166473333Y-106444666D01*
X167440000Y-106444666D02*
X167040000Y-106444666D01*
X167240000Y-106444666D02*
X167240000Y-105744666D01*
X167173333Y-105844666D01*
X167106666Y-105911333D01*
X167040000Y-105944666D01*
X167873333Y-105744666D02*
X167940000Y-105744666D01*
X168006666Y-105778000D01*
X168040000Y-105811333D01*
X168073333Y-105878000D01*
X168106666Y-106011333D01*
X168106666Y-106178000D01*
X168073333Y-106311333D01*
X168040000Y-106378000D01*
X168006666Y-106411333D01*
X167940000Y-106444666D01*
X167873333Y-106444666D01*
X167806666Y-106411333D01*
X167773333Y-106378000D01*
X167740000Y-106311333D01*
X167706666Y-106178000D01*
X167706666Y-106011333D01*
X167740000Y-105878000D01*
X167773333Y-105811333D01*
X167806666Y-105778000D01*
X167873333Y-105744666D01*
X168340000Y-105744666D02*
X168773333Y-105744666D01*
X168540000Y-106011333D01*
X168640000Y-106011333D01*
X168706666Y-106044666D01*
X168740000Y-106078000D01*
X168773333Y-106144666D01*
X168773333Y-106311333D01*
X168740000Y-106378000D01*
X168706666Y-106411333D01*
X168640000Y-106444666D01*
X168440000Y-106444666D01*
X168373333Y-106411333D01*
X168340000Y-106378000D01*
%TO.C,C107*%
X144428000Y-94876333D02*
X144461333Y-94909666D01*
X144494666Y-95009666D01*
X144494666Y-95076333D01*
X144461333Y-95176333D01*
X144394666Y-95243000D01*
X144328000Y-95276333D01*
X144194666Y-95309666D01*
X144094666Y-95309666D01*
X143961333Y-95276333D01*
X143894666Y-95243000D01*
X143828000Y-95176333D01*
X143794666Y-95076333D01*
X143794666Y-95009666D01*
X143828000Y-94909666D01*
X143861333Y-94876333D01*
X144494666Y-94209666D02*
X144494666Y-94609666D01*
X144494666Y-94409666D02*
X143794666Y-94409666D01*
X143894666Y-94476333D01*
X143961333Y-94543000D01*
X143994666Y-94609666D01*
X143794666Y-93776333D02*
X143794666Y-93709666D01*
X143828000Y-93643000D01*
X143861333Y-93609666D01*
X143928000Y-93576333D01*
X144061333Y-93543000D01*
X144228000Y-93543000D01*
X144361333Y-93576333D01*
X144428000Y-93609666D01*
X144461333Y-93643000D01*
X144494666Y-93709666D01*
X144494666Y-93776333D01*
X144461333Y-93843000D01*
X144428000Y-93876333D01*
X144361333Y-93909666D01*
X144228000Y-93943000D01*
X144061333Y-93943000D01*
X143928000Y-93909666D01*
X143861333Y-93876333D01*
X143828000Y-93843000D01*
X143794666Y-93776333D01*
X143794666Y-93309666D02*
X143794666Y-92843000D01*
X144494666Y-93143000D01*
%TO.C,C104*%
X160524000Y-95017333D02*
X160557333Y-95050666D01*
X160590666Y-95150666D01*
X160590666Y-95217333D01*
X160557333Y-95317333D01*
X160490666Y-95384000D01*
X160424000Y-95417333D01*
X160290666Y-95450666D01*
X160190666Y-95450666D01*
X160057333Y-95417333D01*
X159990666Y-95384000D01*
X159924000Y-95317333D01*
X159890666Y-95217333D01*
X159890666Y-95150666D01*
X159924000Y-95050666D01*
X159957333Y-95017333D01*
X160590666Y-94350666D02*
X160590666Y-94750666D01*
X160590666Y-94550666D02*
X159890666Y-94550666D01*
X159990666Y-94617333D01*
X160057333Y-94684000D01*
X160090666Y-94750666D01*
X159890666Y-93917333D02*
X159890666Y-93850666D01*
X159924000Y-93784000D01*
X159957333Y-93750666D01*
X160024000Y-93717333D01*
X160157333Y-93684000D01*
X160324000Y-93684000D01*
X160457333Y-93717333D01*
X160524000Y-93750666D01*
X160557333Y-93784000D01*
X160590666Y-93850666D01*
X160590666Y-93917333D01*
X160557333Y-93984000D01*
X160524000Y-94017333D01*
X160457333Y-94050666D01*
X160324000Y-94084000D01*
X160157333Y-94084000D01*
X160024000Y-94050666D01*
X159957333Y-94017333D01*
X159924000Y-93984000D01*
X159890666Y-93917333D01*
X160124000Y-93084000D02*
X160590666Y-93084000D01*
X159857333Y-93250666D02*
X160357333Y-93417333D01*
X160357333Y-92984000D01*
%TD*%
M02*
