M48
; DRILL file {KiCad (5.1.7)-1} date 06/08/21 21:15:41
; FORMAT={-:-/ absolute / inch / decimal}
; #@! TF.CreationDate,2021-06-08T21:15:41+03:00
; #@! TF.GenerationSoftware,Kicad,Pcbnew,(5.1.7)-1
; #@! TF.FileFunction,Plated,1,2,PTH
FMAT,2
INCH
T1C0.0157
T2C0.0394
%
G90
G05
T1
X5.1824Y-3.6068
X5.1824Y-4.0603
X5.1824Y-4.5139
X5.4469Y-3.8713
X5.5603Y-4.5894
X5.6359Y-3.6068
X5.6359Y-4.2115
X5.6359Y-4.9674
X5.8249Y-3.9469
X5.8627Y-4.4383
X6.0139Y-5.043
X6.2784Y-3.6068
X6.4674Y-4.1359
X6.4674Y-4.7406
X6.6186Y-5.043
X6.6942Y-3.6446
X6.6942Y-4.5139
X6.8454Y-3.9469
X6.8454Y-4.8162
T2
X6.5Y-3.67
X6.5Y-3.77
X6.6Y-3.67
X6.6Y-3.77
X6.8Y-4.27
X6.8Y-4.37
X6.8Y-4.47
X6.8Y-4.57
X6.8Y-4.67
X6.4Y-3.97
X6.4Y-4.07
X6.5Y-3.97
X6.5Y-4.07
X5.41Y-4.07
X5.41Y-4.17
X5.41Y-4.27
X5.41Y-4.37
X5.51Y-4.07
X5.51Y-4.17
X5.51Y-4.27
X5.51Y-4.37
X6.11Y-3.67
X6.11Y-3.77
X6.11Y-3.87
X6.11Y-3.97
X6.11Y-4.07
X6.11Y-4.17
X6.11Y-4.27
X6.11Y-4.37
X6.11Y-4.47
X6.11Y-4.57
X6.11Y-4.67
X6.11Y-4.77
X6.11Y-4.87
X6.21Y-3.67
X6.21Y-3.77
X6.21Y-3.87
X6.21Y-3.97
X6.21Y-4.07
X6.21Y-4.17
X6.21Y-4.27
X6.21Y-4.37
X6.21Y-4.47
X6.21Y-4.57
X6.21Y-4.67
X6.21Y-4.77
X6.21Y-4.87
X5.91Y-4.57
X5.91Y-4.67
X5.91Y-4.77
X5.91Y-4.87
X5.91Y-4.97
X6.6Y-4.27
X6.6Y-4.37
X6.6Y-4.47
X6.6Y-4.57
X6.6Y-4.67
X6.4Y-4.27
X6.4Y-4.37
X6.4Y-4.47
X6.4Y-4.57
X6.4Y-4.67
X6.4Y-4.86
X6.4Y-4.96
X6.5Y-4.86
X6.5Y-4.96
X5.41Y-3.67
X5.41Y-3.77
X5.51Y-3.67
X5.51Y-3.77
T0
M30
