%TF.GenerationSoftware,KiCad,Pcbnew,(5.1.7)-1*%
%TF.CreationDate,2021-06-08T21:15:34+03:00*%
%TF.ProjectId,RaspiAdapter,52617370-6941-4646-9170-7465722e6b69,rev?*%
%TF.SameCoordinates,Original*%
%TF.FileFunction,Soldermask,Bot*%
%TF.FilePolarity,Negative*%
%FSLAX46Y46*%
G04 Gerber Fmt 4.6, Leading zero omitted, Abs format (unit mm)*
G04 Created by KiCad (PCBNEW (5.1.7)-1) date 2021-06-08 21:15:34*
%MOMM*%
%LPD*%
G01*
G04 APERTURE LIST*
%ADD10O,1.700000X1.700000*%
%ADD11R,1.700000X1.700000*%
G04 APERTURE END LIST*
D10*
%TO.C,J110*%
X165100000Y-123444000D03*
X162560000Y-123444000D03*
X165100000Y-125984000D03*
D11*
X162560000Y-125984000D03*
%TD*%
D10*
%TO.C,J101*%
X157734000Y-123698000D03*
X155194000Y-123698000D03*
X157734000Y-121158000D03*
X155194000Y-121158000D03*
X157734000Y-118618000D03*
X155194000Y-118618000D03*
X157734000Y-116078000D03*
X155194000Y-116078000D03*
X157734000Y-113538000D03*
X155194000Y-113538000D03*
X157734000Y-110998000D03*
X155194000Y-110998000D03*
X157734000Y-108458000D03*
X155194000Y-108458000D03*
X157734000Y-105918000D03*
X155194000Y-105918000D03*
X157734000Y-103378000D03*
X155194000Y-103378000D03*
X157734000Y-100838000D03*
X155194000Y-100838000D03*
X157734000Y-98298000D03*
X155194000Y-98298000D03*
X157734000Y-95758000D03*
X155194000Y-95758000D03*
X157734000Y-93218000D03*
D11*
X155194000Y-93218000D03*
%TD*%
D10*
%TO.C,J109*%
X172720000Y-118618000D03*
X172720000Y-116078000D03*
X172720000Y-113538000D03*
X172720000Y-110998000D03*
D11*
X172720000Y-108458000D03*
%TD*%
%TO.C,C102*%
G36*
G01*
X172195000Y-106155500D02*
X172195000Y-105680500D01*
G75*
G02*
X172432500Y-105443000I237500J0D01*
G01*
X173007500Y-105443000D01*
G75*
G02*
X173245000Y-105680500I0J-237500D01*
G01*
X173245000Y-106155500D01*
G75*
G02*
X173007500Y-106393000I-237500J0D01*
G01*
X172432500Y-106393000D01*
G75*
G02*
X172195000Y-106155500I0J237500D01*
G01*
G37*
G36*
G01*
X170445000Y-106155500D02*
X170445000Y-105680500D01*
G75*
G02*
X170682500Y-105443000I237500J0D01*
G01*
X171257500Y-105443000D01*
G75*
G02*
X171495000Y-105680500I0J-237500D01*
G01*
X171495000Y-106155500D01*
G75*
G02*
X171257500Y-106393000I-237500J0D01*
G01*
X170682500Y-106393000D01*
G75*
G02*
X170445000Y-106155500I0J237500D01*
G01*
G37*
%TD*%
%TO.C,C101*%
G36*
G01*
X169942500Y-112223000D02*
X170417500Y-112223000D01*
G75*
G02*
X170655000Y-112460500I0J-237500D01*
G01*
X170655000Y-113035500D01*
G75*
G02*
X170417500Y-113273000I-237500J0D01*
G01*
X169942500Y-113273000D01*
G75*
G02*
X169705000Y-113035500I0J237500D01*
G01*
X169705000Y-112460500D01*
G75*
G02*
X169942500Y-112223000I237500J0D01*
G01*
G37*
G36*
G01*
X169942500Y-110473000D02*
X170417500Y-110473000D01*
G75*
G02*
X170655000Y-110710500I0J-237500D01*
G01*
X170655000Y-111285500D01*
G75*
G02*
X170417500Y-111523000I-237500J0D01*
G01*
X169942500Y-111523000D01*
G75*
G02*
X169705000Y-111285500I0J237500D01*
G01*
X169705000Y-110710500D01*
G75*
G02*
X169942500Y-110473000I237500J0D01*
G01*
G37*
%TD*%
D10*
%TO.C,J104*%
X137414000Y-110998000D03*
X139954000Y-110998000D03*
X137414000Y-108458000D03*
X139954000Y-108458000D03*
X137414000Y-105918000D03*
X139954000Y-105918000D03*
X137414000Y-103378000D03*
D11*
X139954000Y-103378000D03*
%TD*%
D10*
%TO.C,J102*%
X167640000Y-95758000D03*
X165100000Y-95758000D03*
X167640000Y-93218000D03*
D11*
X165100000Y-93218000D03*
%TD*%
D10*
%TO.C,J107*%
X137414000Y-95758000D03*
X139954000Y-95758000D03*
X137414000Y-93218000D03*
D11*
X139954000Y-93218000D03*
%TD*%
D10*
%TO.C,J105*%
X165100000Y-103378000D03*
X165100000Y-100838000D03*
X162560000Y-103378000D03*
D11*
X162560000Y-100838000D03*
%TD*%
%TO.C,R104*%
G36*
G01*
X152063000Y-95995500D02*
X152063000Y-95520500D01*
G75*
G02*
X152300500Y-95283000I237500J0D01*
G01*
X152800500Y-95283000D01*
G75*
G02*
X153038000Y-95520500I0J-237500D01*
G01*
X153038000Y-95995500D01*
G75*
G02*
X152800500Y-96233000I-237500J0D01*
G01*
X152300500Y-96233000D01*
G75*
G02*
X152063000Y-95995500I0J237500D01*
G01*
G37*
G36*
G01*
X150238000Y-95995500D02*
X150238000Y-95520500D01*
G75*
G02*
X150475500Y-95283000I237500J0D01*
G01*
X150975500Y-95283000D01*
G75*
G02*
X151213000Y-95520500I0J-237500D01*
G01*
X151213000Y-95995500D01*
G75*
G02*
X150975500Y-96233000I-237500J0D01*
G01*
X150475500Y-96233000D01*
G75*
G02*
X150238000Y-95995500I0J237500D01*
G01*
G37*
%TD*%
%TO.C,R103*%
G36*
G01*
X152063000Y-91677500D02*
X152063000Y-91202500D01*
G75*
G02*
X152300500Y-90965000I237500J0D01*
G01*
X152800500Y-90965000D01*
G75*
G02*
X153038000Y-91202500I0J-237500D01*
G01*
X153038000Y-91677500D01*
G75*
G02*
X152800500Y-91915000I-237500J0D01*
G01*
X152300500Y-91915000D01*
G75*
G02*
X152063000Y-91677500I0J237500D01*
G01*
G37*
G36*
G01*
X150238000Y-91677500D02*
X150238000Y-91202500D01*
G75*
G02*
X150475500Y-90965000I237500J0D01*
G01*
X150975500Y-90965000D01*
G75*
G02*
X151213000Y-91202500I0J-237500D01*
G01*
X151213000Y-91677500D01*
G75*
G02*
X150975500Y-91915000I-237500J0D01*
G01*
X150475500Y-91915000D01*
G75*
G02*
X150238000Y-91677500I0J237500D01*
G01*
G37*
%TD*%
%TO.C,R102*%
G36*
G01*
X151213000Y-98060500D02*
X151213000Y-98535500D01*
G75*
G02*
X150975500Y-98773000I-237500J0D01*
G01*
X150475500Y-98773000D01*
G75*
G02*
X150238000Y-98535500I0J237500D01*
G01*
X150238000Y-98060500D01*
G75*
G02*
X150475500Y-97823000I237500J0D01*
G01*
X150975500Y-97823000D01*
G75*
G02*
X151213000Y-98060500I0J-237500D01*
G01*
G37*
G36*
G01*
X153038000Y-98060500D02*
X153038000Y-98535500D01*
G75*
G02*
X152800500Y-98773000I-237500J0D01*
G01*
X152300500Y-98773000D01*
G75*
G02*
X152063000Y-98535500I0J237500D01*
G01*
X152063000Y-98060500D01*
G75*
G02*
X152300500Y-97823000I237500J0D01*
G01*
X152800500Y-97823000D01*
G75*
G02*
X153038000Y-98060500I0J-237500D01*
G01*
G37*
%TD*%
%TO.C,R101*%
G36*
G01*
X152063000Y-93455500D02*
X152063000Y-92980500D01*
G75*
G02*
X152300500Y-92743000I237500J0D01*
G01*
X152800500Y-92743000D01*
G75*
G02*
X153038000Y-92980500I0J-237500D01*
G01*
X153038000Y-93455500D01*
G75*
G02*
X152800500Y-93693000I-237500J0D01*
G01*
X152300500Y-93693000D01*
G75*
G02*
X152063000Y-93455500I0J237500D01*
G01*
G37*
G36*
G01*
X150238000Y-93455500D02*
X150238000Y-92980500D01*
G75*
G02*
X150475500Y-92743000I237500J0D01*
G01*
X150975500Y-92743000D01*
G75*
G02*
X151213000Y-92980500I0J-237500D01*
G01*
X151213000Y-93455500D01*
G75*
G02*
X150975500Y-93693000I-237500J0D01*
G01*
X150475500Y-93693000D01*
G75*
G02*
X150238000Y-93455500I0J237500D01*
G01*
G37*
%TD*%
D10*
%TO.C,J108*%
X150114000Y-126238000D03*
X150114000Y-123698000D03*
X150114000Y-121158000D03*
X150114000Y-118618000D03*
D11*
X150114000Y-116078000D03*
%TD*%
D10*
%TO.C,J106*%
X162560000Y-118618000D03*
X162560000Y-116078000D03*
X162560000Y-113538000D03*
X162560000Y-110998000D03*
D11*
X162560000Y-108458000D03*
%TD*%
D10*
%TO.C,J103*%
X167640000Y-118618000D03*
X167640000Y-116078000D03*
X167640000Y-113538000D03*
X167640000Y-110998000D03*
D11*
X167640000Y-108458000D03*
%TD*%
%TO.C,C108*%
G36*
G01*
X162148000Y-106155500D02*
X162148000Y-105680500D01*
G75*
G02*
X162385500Y-105443000I237500J0D01*
G01*
X162960500Y-105443000D01*
G75*
G02*
X163198000Y-105680500I0J-237500D01*
G01*
X163198000Y-106155500D01*
G75*
G02*
X162960500Y-106393000I-237500J0D01*
G01*
X162385500Y-106393000D01*
G75*
G02*
X162148000Y-106155500I0J237500D01*
G01*
G37*
G36*
G01*
X160398000Y-106155500D02*
X160398000Y-105680500D01*
G75*
G02*
X160635500Y-105443000I237500J0D01*
G01*
X161210500Y-105443000D01*
G75*
G02*
X161448000Y-105680500I0J-237500D01*
G01*
X161448000Y-106155500D01*
G75*
G02*
X161210500Y-106393000I-237500J0D01*
G01*
X160635500Y-106393000D01*
G75*
G02*
X160398000Y-106155500I0J237500D01*
G01*
G37*
%TD*%
%TO.C,C106*%
G36*
G01*
X160036500Y-112223000D02*
X160511500Y-112223000D01*
G75*
G02*
X160749000Y-112460500I0J-237500D01*
G01*
X160749000Y-113035500D01*
G75*
G02*
X160511500Y-113273000I-237500J0D01*
G01*
X160036500Y-113273000D01*
G75*
G02*
X159799000Y-113035500I0J237500D01*
G01*
X159799000Y-112460500D01*
G75*
G02*
X160036500Y-112223000I237500J0D01*
G01*
G37*
G36*
G01*
X160036500Y-110473000D02*
X160511500Y-110473000D01*
G75*
G02*
X160749000Y-110710500I0J-237500D01*
G01*
X160749000Y-111285500D01*
G75*
G02*
X160511500Y-111523000I-237500J0D01*
G01*
X160036500Y-111523000D01*
G75*
G02*
X159799000Y-111285500I0J237500D01*
G01*
X159799000Y-110710500D01*
G75*
G02*
X160036500Y-110473000I237500J0D01*
G01*
G37*
%TD*%
%TO.C,C105*%
G36*
G01*
X167228000Y-106155500D02*
X167228000Y-105680500D01*
G75*
G02*
X167465500Y-105443000I237500J0D01*
G01*
X168040500Y-105443000D01*
G75*
G02*
X168278000Y-105680500I0J-237500D01*
G01*
X168278000Y-106155500D01*
G75*
G02*
X168040500Y-106393000I-237500J0D01*
G01*
X167465500Y-106393000D01*
G75*
G02*
X167228000Y-106155500I0J237500D01*
G01*
G37*
G36*
G01*
X165478000Y-106155500D02*
X165478000Y-105680500D01*
G75*
G02*
X165715500Y-105443000I237500J0D01*
G01*
X166290500Y-105443000D01*
G75*
G02*
X166528000Y-105680500I0J-237500D01*
G01*
X166528000Y-106155500D01*
G75*
G02*
X166290500Y-106393000I-237500J0D01*
G01*
X165715500Y-106393000D01*
G75*
G02*
X165478000Y-106155500I0J237500D01*
G01*
G37*
%TD*%
%TO.C,C103*%
G36*
G01*
X164862500Y-112223000D02*
X165337500Y-112223000D01*
G75*
G02*
X165575000Y-112460500I0J-237500D01*
G01*
X165575000Y-113035500D01*
G75*
G02*
X165337500Y-113273000I-237500J0D01*
G01*
X164862500Y-113273000D01*
G75*
G02*
X164625000Y-113035500I0J237500D01*
G01*
X164625000Y-112460500D01*
G75*
G02*
X164862500Y-112223000I237500J0D01*
G01*
G37*
G36*
G01*
X164862500Y-110473000D02*
X165337500Y-110473000D01*
G75*
G02*
X165575000Y-110710500I0J-237500D01*
G01*
X165575000Y-111285500D01*
G75*
G02*
X165337500Y-111523000I-237500J0D01*
G01*
X164862500Y-111523000D01*
G75*
G02*
X164625000Y-111285500I0J237500D01*
G01*
X164625000Y-110710500D01*
G75*
G02*
X164862500Y-110473000I237500J0D01*
G01*
G37*
%TD*%
M02*
