M48
; DRILL file {KiCad (5.1.7)-1} date 06/07/21 18:47:27
; FORMAT={-:-/ absolute / inch / decimal}
; #@! TF.CreationDate,2021-06-07T18:47:27+03:00
; #@! TF.GenerationSoftware,Kicad,Pcbnew,(5.1.7)-1
; #@! TF.FileFunction,Plated,1,4,PTH
FMAT,2
INCH
T1C0.0118
T2C0.0157
T3C0.0394
T4C0.1693
%
G90
G05
T1
X3.8504Y-4.3189
X3.8661Y-4.0236
X4.1939Y-4.6604
X4.2087Y-4.3307
X4.2323Y-4.0157
X4.2402Y-4.7126
X4.3346Y-4.2165
X4.336Y-4.5709
X4.3819Y-4.1496
X4.4094Y-4.0787
X4.4173Y-3.8976
X4.4409Y-3.8583
X4.4882Y-3.8583
X4.5276Y-4.5
X4.6496Y-4.7008
X4.7756Y-4.7323
T2
X3.5433Y-3.9173
X3.5433Y-3.9567
X3.5433Y-3.9961
X3.5433Y-4.0354
X3.5433Y-4.0748
X3.5433Y-4.1142
X3.5433Y-4.1535
X3.5433Y-4.1929
X3.5433Y-4.2323
X3.5827Y-4.0157
X3.6024Y-3.5827
X3.622Y-3.5433
X3.622Y-3.622
X3.622Y-4.0157
X3.6417Y-3.5827
X3.6614Y-3.5433
X3.6614Y-3.622
X3.6614Y-4.0157
X3.6811Y-3.5827
X3.7008Y-3.5433
X3.7008Y-3.622
X3.7008Y-4.0157
X3.7205Y-3.5827
X3.7402Y-3.5433
X3.7402Y-3.622
X3.7402Y-4.0157
X3.7795Y-4.0157
X3.7795Y-4.7638
X3.7795Y-4.9016
X3.8583Y-4.0945
X3.8583Y-4.1339
X3.8583Y-4.1732
X3.8583Y-4.2126
X3.8583Y-4.252
X3.8583Y-4.8425
X3.8583Y-4.9606
X3.8622Y-3.9331
X3.8701Y-4.7087
X3.9016Y-3.8937
X3.9173Y-4.7638
X3.9173Y-4.9016
X3.9409Y-3.9331
X3.9764Y-3.3071
X3.9764Y-4.685
X3.9764Y-4.8425
X3.9764Y-4.9606
X3.9803Y-3.8937
X3.9803Y-3.9724
X3.9882Y-3.5709
X3.9882Y-3.6102
X3.9882Y-3.6614
X4.0157Y-3.3071
X4.0197Y-3.9331
X4.0354Y-3.5709
X4.0354Y-3.6102
X4.0354Y-3.6614
X4.0354Y-4.7638
X4.0354Y-4.9016
X4.0551Y-3.3071
X4.0591Y-3.8937
X4.0591Y-3.9724
X4.0787Y-3.5709
X4.0787Y-3.6102
X4.0787Y-3.6614
X4.0945Y-3.3071
X4.0945Y-4.8425
X4.0945Y-4.9606
X4.0984Y-3.9331
X4.122Y-3.5709
X4.122Y-3.6102
X4.1339Y-3.3071
X4.1378Y-3.8937
X4.1378Y-3.9724
X4.1535Y-4.7638
X4.1535Y-4.9016
X4.1693Y-3.5709
X4.1693Y-3.6102
X4.1732Y-2.7953
X4.1732Y-2.8346
X4.1732Y-2.874
X4.1732Y-2.9134
X4.1732Y-2.9528
X4.1732Y-2.9921
X4.1732Y-3.0315
X4.1732Y-3.0709
X4.1732Y-3.1102
X4.1732Y-3.1496
X4.1732Y-3.189
X4.1732Y-3.2283
X4.1732Y-3.2677
X4.1732Y-3.3071
X4.2126Y-4.8425
X4.2126Y-4.9606
X4.2165Y-3.5709
X4.2165Y-3.6102
X4.2638Y-3.5709
X4.2638Y-3.6102
X4.2717Y-4.9016
X4.3189Y-4.1772
X4.3307Y-4.8425
X4.3307Y-4.9606
X4.3898Y-4.9016
X4.4685Y-4.8425
X4.4685Y-4.9606
X4.5276Y-4.9016
X4.5472Y-4.3386
X4.5472Y-4.378
X4.5472Y-4.4173
X4.5472Y-4.4567
X4.5787Y-4.3583
X4.5787Y-4.3976
X4.5787Y-4.437
X4.5866Y-4.9606
X4.6457Y-4.9016
X4.7047Y-4.9606
X4.7244Y-4.1811
X4.7638Y-4.9016
X4.8228Y-4.8425
X4.8228Y-4.9606
T3
X3.2677Y-4.5472
X3.4055Y-4.5472
X4.8268Y-3.9331
X4.8268Y-4.0331
X4.8268Y-4.1331
X4.8268Y-4.2331
T4
X3.7008Y-2.5984
X4.1732Y-2.5984
X3.0984Y-4.811
X3.5709Y-4.811
T0
M30
