%TF.GenerationSoftware,KiCad,Pcbnew,(5.1.7)-1*%
%TF.CreationDate,2021-06-07T18:47:12+03:00*%
%TF.ProjectId,SynchronousBuck,53796e63-6872-46f6-9e6f-75734275636b,rev?*%
%TF.SameCoordinates,Original*%
%TF.FileFunction,Soldermask,Bot*%
%TF.FilePolarity,Negative*%
%FSLAX46Y46*%
G04 Gerber Fmt 4.6, Leading zero omitted, Abs format (unit mm)*
G04 Created by KiCad (PCBNEW (5.1.7)-1) date 2021-06-07 18:47:12*
%MOMM*%
%LPD*%
G01*
G04 APERTURE LIST*
%ADD10C,1.800000*%
%ADD11C,8.000000*%
%ADD12C,4.300000*%
%ADD13O,1.700000X1.700000*%
%ADD14R,1.700000X1.700000*%
%ADD15C,0.800000*%
%ADD16C,0.600000*%
G04 APERTURE END LIST*
D10*
%TO.C,J104*%
X83000000Y-115500000D03*
X86500000Y-115500000D03*
%TD*%
D11*
%TO.C,J103*%
X94000000Y-66000000D03*
X106000000Y-66000000D03*
%TD*%
%TO.C,J101*%
X90700000Y-122200000D03*
X78700000Y-122200000D03*
%TD*%
D12*
%TO.C,H104*%
X128584270Y-71415730D03*
%TD*%
%TO.C,H103*%
X71415730Y-71415730D03*
%TD*%
%TO.C,H102*%
X71415730Y-128584270D03*
%TD*%
%TO.C,H101*%
X128584270Y-128584270D03*
%TD*%
D13*
%TO.C,J102*%
X122600000Y-107520000D03*
X122600000Y-104980000D03*
X122600000Y-102440000D03*
D14*
X122600000Y-99900000D03*
%TD*%
D15*
X105900000Y-90700000D03*
X107100000Y-90700000D03*
X103600000Y-90700000D03*
X104700000Y-90700000D03*
X108300000Y-90700000D03*
X101300000Y-90700000D03*
X102500000Y-90700000D03*
X115500000Y-113200000D03*
X109700000Y-106100000D03*
X115500000Y-112200000D03*
X115500000Y-111200000D03*
X115500000Y-110200000D03*
X116300000Y-112700000D03*
X116300000Y-111700000D03*
X116300000Y-110700000D03*
D16*
X107500000Y-102000000D03*
X112200000Y-99000000D03*
D15*
X107100000Y-91700000D03*
X105900000Y-91700000D03*
X104700000Y-91700000D03*
X103600000Y-91700000D03*
X102500000Y-91700000D03*
X103600000Y-93000000D03*
X102500000Y-93000000D03*
X101300000Y-93000000D03*
X101300000Y-91700000D03*
X108300000Y-91700000D03*
D16*
X121300000Y-120200000D03*
X118100000Y-119400000D03*
X112000000Y-103600000D03*
X106525000Y-118375000D03*
X107700000Y-119700000D03*
D15*
X105500000Y-121000000D03*
X101000000Y-119000000D03*
X98300000Y-119600000D03*
X96000000Y-121000000D03*
X99500000Y-121000000D03*
X102500000Y-121000000D03*
X122500000Y-126000000D03*
X122500000Y-123000000D03*
X121000000Y-124500000D03*
X119500000Y-126000000D03*
X116500000Y-126000000D03*
X113500000Y-126000000D03*
X113500000Y-123000000D03*
X115000000Y-124500000D03*
X111500000Y-124500000D03*
X110000000Y-126000000D03*
X110000000Y-123000000D03*
X107000000Y-126000000D03*
X107000000Y-123000000D03*
X104000000Y-126000000D03*
X104000000Y-123000000D03*
X108500000Y-124500000D03*
X105500000Y-124500000D03*
X101000000Y-126000000D03*
X101000000Y-123000000D03*
X102500000Y-124500000D03*
X98000000Y-126000000D03*
X99500000Y-124500000D03*
X98000000Y-123000000D03*
X96000000Y-124500000D03*
X118000000Y-124500000D03*
D16*
X110135000Y-116100000D03*
D15*
X105100000Y-98900000D03*
X104100000Y-99900000D03*
X105100000Y-100900000D03*
X103100000Y-100900000D03*
X101100000Y-100900000D03*
X100100000Y-99900000D03*
X102100000Y-99900000D03*
X103100000Y-98900000D03*
X101100000Y-98900000D03*
X99100000Y-98900000D03*
X98100000Y-99900000D03*
D16*
X114000000Y-98000000D03*
X112800000Y-98000000D03*
D15*
X90000000Y-99500000D03*
X90000000Y-100500000D03*
X90000000Y-101500000D03*
X90000000Y-102500000D03*
X90000000Y-103500000D03*
X90000000Y-104500000D03*
X90000000Y-105500000D03*
X90000000Y-106500000D03*
X90000000Y-107500000D03*
X98000000Y-108000000D03*
X98000000Y-107000000D03*
X98000000Y-106000000D03*
X98000000Y-105000000D03*
X98000000Y-104000000D03*
X91000000Y-102000000D03*
X92000000Y-102000000D03*
X93000000Y-102000000D03*
X94000000Y-102000000D03*
X95000000Y-102000000D03*
X96000000Y-102000000D03*
D16*
X97800000Y-109700000D03*
X106900000Y-110000000D03*
X98200000Y-102200000D03*
X111300000Y-105400000D03*
D15*
X105000000Y-84000000D03*
X103000000Y-84000000D03*
X102000000Y-84000000D03*
X104000000Y-84000000D03*
X101000000Y-84000000D03*
X106000000Y-71000000D03*
X106000000Y-72000000D03*
X106000000Y-73000000D03*
X106000000Y-74000000D03*
X106000000Y-75000000D03*
X106000000Y-76000000D03*
X106000000Y-77000000D03*
X106000000Y-78000000D03*
X106000000Y-79000000D03*
X106000000Y-81000000D03*
X106000000Y-80000000D03*
X106000000Y-82000000D03*
X106000000Y-83000000D03*
X106000000Y-84000000D03*
D16*
X110100000Y-107100000D03*
X115000000Y-114300000D03*
D15*
X95000000Y-92000000D03*
X94000000Y-92000000D03*
X93000000Y-92000000D03*
X92000000Y-92000000D03*
X91500000Y-91000000D03*
X92500000Y-91000000D03*
X93500000Y-91000000D03*
X94500000Y-91000000D03*
X95000000Y-90000000D03*
X94000000Y-90000000D03*
X93000000Y-90000000D03*
X92000000Y-90000000D03*
X120000000Y-106200000D03*
M02*
