%TF.GenerationSoftware,KiCad,Pcbnew,(5.1.7)-1*%
%TF.CreationDate,2021-06-07T18:47:12+03:00*%
%TF.ProjectId,SynchronousBuck,53796e63-6872-46f6-9e6f-75734275636b,rev?*%
%TF.SameCoordinates,Original*%
%TF.FileFunction,Copper,L2,Inr*%
%TF.FilePolarity,Positive*%
%FSLAX46Y46*%
G04 Gerber Fmt 4.6, Leading zero omitted, Abs format (unit mm)*
G04 Created by KiCad (PCBNEW (5.1.7)-1) date 2021-06-07 18:47:12*
%MOMM*%
%LPD*%
G01*
G04 APERTURE LIST*
%TA.AperFunction,ComponentPad*%
%ADD10C,1.800000*%
%TD*%
%TA.AperFunction,ComponentPad*%
%ADD11C,8.000000*%
%TD*%
%TA.AperFunction,ComponentPad*%
%ADD12O,1.700000X1.700000*%
%TD*%
%TA.AperFunction,ComponentPad*%
%ADD13R,1.700000X1.700000*%
%TD*%
%TA.AperFunction,ViaPad*%
%ADD14C,0.800000*%
%TD*%
%TA.AperFunction,ViaPad*%
%ADD15C,0.600000*%
%TD*%
%TA.AperFunction,Conductor*%
%ADD16C,0.254000*%
%TD*%
%TA.AperFunction,Conductor*%
%ADD17C,0.100000*%
%TD*%
%TA.AperFunction,Conductor*%
%ADD18C,0.200000*%
%TD*%
G04 APERTURE END LIST*
D10*
%TO.N,GND*%
%TO.C,J104*%
X83000000Y-115500000D03*
%TO.N,Net-(C119-Pad2)*%
X86500000Y-115500000D03*
%TD*%
D11*
%TO.N,GND*%
%TO.C,J103*%
X94000000Y-66000000D03*
%TO.N,/VOUT*%
X106000000Y-66000000D03*
%TD*%
%TO.N,VCC*%
%TO.C,J101*%
X90700000Y-122200000D03*
%TO.N,GND*%
X78700000Y-122200000D03*
%TD*%
D12*
%TO.N,Net-(J102-Pad4)*%
%TO.C,J102*%
X122600000Y-107520000D03*
%TO.N,GND*%
X122600000Y-104980000D03*
X122600000Y-102440000D03*
D13*
%TO.N,Net-(J102-Pad1)*%
X122600000Y-99900000D03*
%TD*%
D14*
%TO.N,GND*%
X105900000Y-90700000D03*
X107100000Y-90700000D03*
X103600000Y-90700000D03*
X104700000Y-90700000D03*
X108300000Y-90700000D03*
X101300000Y-90700000D03*
X102500000Y-90700000D03*
X115500000Y-113200000D03*
X109700000Y-106100000D03*
X115500000Y-112200000D03*
X115500000Y-111200000D03*
X115500000Y-110200000D03*
X116300000Y-112700000D03*
X116300000Y-111700000D03*
X116300000Y-110700000D03*
D15*
X107500000Y-102000000D03*
X112200000Y-99000000D03*
D14*
X107100000Y-91700000D03*
X105900000Y-91700000D03*
X104700000Y-91700000D03*
X103600000Y-91700000D03*
X102500000Y-91700000D03*
X103600000Y-93000000D03*
X102500000Y-93000000D03*
X101300000Y-93000000D03*
X101300000Y-91700000D03*
X108300000Y-91700000D03*
D15*
X121300000Y-120200000D03*
X118100000Y-119400000D03*
X112000000Y-103600000D03*
X106525000Y-118375000D03*
X107700000Y-119700000D03*
D14*
%TO.N,VCC*%
X105500000Y-121000000D03*
X101000000Y-119000000D03*
X98300000Y-119600000D03*
X96000000Y-121000000D03*
X99500000Y-121000000D03*
X102500000Y-121000000D03*
X122500000Y-126000000D03*
X122500000Y-123000000D03*
X121000000Y-124500000D03*
X119500000Y-126000000D03*
X116500000Y-126000000D03*
X113500000Y-126000000D03*
X113500000Y-123000000D03*
X115000000Y-124500000D03*
X111500000Y-124500000D03*
X110000000Y-126000000D03*
X110000000Y-123000000D03*
X107000000Y-126000000D03*
X107000000Y-123000000D03*
X104000000Y-126000000D03*
X104000000Y-123000000D03*
X108500000Y-124500000D03*
X105500000Y-124500000D03*
X101000000Y-126000000D03*
X101000000Y-123000000D03*
X102500000Y-124500000D03*
X98000000Y-126000000D03*
X99500000Y-124500000D03*
X98000000Y-123000000D03*
X96000000Y-124500000D03*
X118000000Y-124500000D03*
D15*
X110135000Y-116100000D03*
D14*
%TO.N,Net-(Q102-Pad1)*%
X105100000Y-98900000D03*
X104100000Y-99900000D03*
X105100000Y-100900000D03*
X103100000Y-100900000D03*
X101100000Y-100900000D03*
X100100000Y-99900000D03*
X102100000Y-99900000D03*
X103100000Y-98900000D03*
X101100000Y-98900000D03*
X99100000Y-98900000D03*
X98100000Y-99900000D03*
D15*
%TO.N,Net-(R112-Pad2)*%
X114000000Y-98000000D03*
X112800000Y-98000000D03*
D14*
%TO.N,/SW*%
X90000000Y-99500000D03*
X90000000Y-100500000D03*
X90000000Y-101500000D03*
X90000000Y-102500000D03*
X90000000Y-103500000D03*
X90000000Y-104500000D03*
X90000000Y-105500000D03*
X90000000Y-106500000D03*
X90000000Y-107500000D03*
X98000000Y-108000000D03*
X98000000Y-107000000D03*
X98000000Y-106000000D03*
X98000000Y-105000000D03*
X98000000Y-104000000D03*
X91000000Y-102000000D03*
X92000000Y-102000000D03*
X93000000Y-102000000D03*
X94000000Y-102000000D03*
X95000000Y-102000000D03*
X96000000Y-102000000D03*
D15*
%TO.N,/HO*%
X97800000Y-109700000D03*
X106900000Y-110000000D03*
%TO.N,/LO*%
X98200000Y-102200000D03*
X111300000Y-105400000D03*
D14*
%TO.N,/VOUT*%
X105000000Y-84000000D03*
X103000000Y-84000000D03*
X102000000Y-84000000D03*
X104000000Y-84000000D03*
X101000000Y-84000000D03*
X106000000Y-71000000D03*
X106000000Y-72000000D03*
X106000000Y-73000000D03*
X106000000Y-74000000D03*
X106000000Y-75000000D03*
X106000000Y-76000000D03*
X106000000Y-77000000D03*
X106000000Y-78000000D03*
X106000000Y-79000000D03*
X106000000Y-81000000D03*
X106000000Y-80000000D03*
X106000000Y-82000000D03*
X106000000Y-83000000D03*
X106000000Y-84000000D03*
D15*
X110100000Y-107100000D03*
X115000000Y-114300000D03*
D14*
X95000000Y-92000000D03*
X94000000Y-92000000D03*
X93000000Y-92000000D03*
X92000000Y-92000000D03*
X91500000Y-91000000D03*
X92500000Y-91000000D03*
X93500000Y-91000000D03*
X94500000Y-91000000D03*
X95000000Y-90000000D03*
X94000000Y-90000000D03*
X93000000Y-90000000D03*
X92000000Y-90000000D03*
X120000000Y-106200000D03*
%TD*%
D16*
%TO.N,/SW*%
X97096257Y-98640769D02*
X97185955Y-98677923D01*
X97262976Y-98737024D01*
X97322077Y-98814045D01*
X97359231Y-98903743D01*
X97373000Y-99008328D01*
X97373000Y-99163289D01*
X97296063Y-99240226D01*
X97182795Y-99409744D01*
X97104774Y-99598102D01*
X97065000Y-99798061D01*
X97065000Y-100001939D01*
X97104774Y-100201898D01*
X97182795Y-100390256D01*
X97296063Y-100559774D01*
X97373000Y-100636711D01*
X97373000Y-101754737D01*
X97371414Y-101757111D01*
X97300932Y-101927271D01*
X97265000Y-102107911D01*
X97265000Y-102292089D01*
X97300932Y-102472729D01*
X97371414Y-102642889D01*
X97373000Y-102645263D01*
X97373000Y-103600000D01*
X97374086Y-103616577D01*
X97391123Y-103745987D01*
X97399704Y-103778011D01*
X97449654Y-103898601D01*
X97466232Y-103927313D01*
X97545692Y-104030866D01*
X97569134Y-104054308D01*
X97672687Y-104133768D01*
X97701399Y-104150346D01*
X97821989Y-104200296D01*
X97854013Y-104208877D01*
X97983423Y-104225914D01*
X98000000Y-104227000D01*
X103091672Y-104227000D01*
X103196257Y-104240769D01*
X103285955Y-104277923D01*
X103362976Y-104337024D01*
X103422077Y-104414045D01*
X103459231Y-104503743D01*
X103473000Y-104608328D01*
X103473000Y-107991672D01*
X103459231Y-108096257D01*
X103422077Y-108185955D01*
X103362976Y-108262976D01*
X103285955Y-108322077D01*
X103196257Y-108359231D01*
X103091672Y-108373000D01*
X85008328Y-108373000D01*
X84903743Y-108359231D01*
X84814045Y-108322077D01*
X84737024Y-108262976D01*
X84677923Y-108185955D01*
X84640769Y-108096257D01*
X84627000Y-107991672D01*
X84627000Y-99008328D01*
X84640769Y-98903743D01*
X84677923Y-98814045D01*
X84737024Y-98737024D01*
X84814045Y-98677923D01*
X84903743Y-98640769D01*
X85008328Y-98627000D01*
X96991672Y-98627000D01*
X97096257Y-98640769D01*
%TA.AperFunction,Conductor*%
D17*
G36*
X97096257Y-98640769D02*
G01*
X97185955Y-98677923D01*
X97262976Y-98737024D01*
X97322077Y-98814045D01*
X97359231Y-98903743D01*
X97373000Y-99008328D01*
X97373000Y-99163289D01*
X97296063Y-99240226D01*
X97182795Y-99409744D01*
X97104774Y-99598102D01*
X97065000Y-99798061D01*
X97065000Y-100001939D01*
X97104774Y-100201898D01*
X97182795Y-100390256D01*
X97296063Y-100559774D01*
X97373000Y-100636711D01*
X97373000Y-101754737D01*
X97371414Y-101757111D01*
X97300932Y-101927271D01*
X97265000Y-102107911D01*
X97265000Y-102292089D01*
X97300932Y-102472729D01*
X97371414Y-102642889D01*
X97373000Y-102645263D01*
X97373000Y-103600000D01*
X97374086Y-103616577D01*
X97391123Y-103745987D01*
X97399704Y-103778011D01*
X97449654Y-103898601D01*
X97466232Y-103927313D01*
X97545692Y-104030866D01*
X97569134Y-104054308D01*
X97672687Y-104133768D01*
X97701399Y-104150346D01*
X97821989Y-104200296D01*
X97854013Y-104208877D01*
X97983423Y-104225914D01*
X98000000Y-104227000D01*
X103091672Y-104227000D01*
X103196257Y-104240769D01*
X103285955Y-104277923D01*
X103362976Y-104337024D01*
X103422077Y-104414045D01*
X103459231Y-104503743D01*
X103473000Y-104608328D01*
X103473000Y-107991672D01*
X103459231Y-108096257D01*
X103422077Y-108185955D01*
X103362976Y-108262976D01*
X103285955Y-108322077D01*
X103196257Y-108359231D01*
X103091672Y-108373000D01*
X85008328Y-108373000D01*
X84903743Y-108359231D01*
X84814045Y-108322077D01*
X84737024Y-108262976D01*
X84677923Y-108185955D01*
X84640769Y-108096257D01*
X84627000Y-107991672D01*
X84627000Y-99008328D01*
X84640769Y-98903743D01*
X84677923Y-98814045D01*
X84737024Y-98737024D01*
X84814045Y-98677923D01*
X84903743Y-98640769D01*
X85008328Y-98627000D01*
X96991672Y-98627000D01*
X97096257Y-98640769D01*
G37*
%TD.AperFunction*%
%TD*%
D18*
%TO.N,GND*%
X102383155Y-55564079D02*
X105014276Y-55783629D01*
X107627773Y-56158837D01*
X110214398Y-56688378D01*
X112765088Y-57370397D01*
X115270831Y-58202485D01*
X117722802Y-59181711D01*
X120112394Y-60304634D01*
X122431177Y-61567295D01*
X124671004Y-62965260D01*
X126823984Y-64493601D01*
X128882511Y-66146921D01*
X130839391Y-67919439D01*
X132687682Y-69804869D01*
X134420909Y-71796605D01*
X136032964Y-73887628D01*
X137518175Y-76070582D01*
X138871292Y-78337749D01*
X140087587Y-80681205D01*
X141162754Y-83092660D01*
X142093014Y-85563634D01*
X142875090Y-88085423D01*
X143506232Y-90649160D01*
X143984218Y-93245814D01*
X144307364Y-95866250D01*
X144474534Y-98501239D01*
X144485137Y-101141498D01*
X144339137Y-103777749D01*
X144037047Y-106400698D01*
X143579938Y-109001082D01*
X142969405Y-111569818D01*
X142207604Y-114097824D01*
X141297222Y-116576186D01*
X140241460Y-118996195D01*
X139044039Y-121349322D01*
X137709152Y-123627322D01*
X136241531Y-125822120D01*
X134646323Y-127926023D01*
X132929140Y-129931625D01*
X131096059Y-131831832D01*
X129153486Y-133620005D01*
X127103673Y-135293586D01*
X126831732Y-135500000D01*
X122207106Y-135500000D01*
X120500000Y-133792895D01*
X120500000Y-128333117D01*
X126034270Y-128333117D01*
X126034270Y-128835423D01*
X126132265Y-129328077D01*
X126324490Y-129792148D01*
X126603556Y-130209800D01*
X126958740Y-130564984D01*
X127376392Y-130844050D01*
X127840463Y-131036275D01*
X128333117Y-131134270D01*
X128835423Y-131134270D01*
X129328077Y-131036275D01*
X129792148Y-130844050D01*
X130209800Y-130564984D01*
X130564984Y-130209800D01*
X130844050Y-129792148D01*
X131036275Y-129328077D01*
X131134270Y-128835423D01*
X131134270Y-128333117D01*
X131036275Y-127840463D01*
X130844050Y-127376392D01*
X130564984Y-126958740D01*
X130209800Y-126603556D01*
X129792148Y-126324490D01*
X129328077Y-126132265D01*
X128835423Y-126034270D01*
X128333117Y-126034270D01*
X127840463Y-126132265D01*
X127376392Y-126324490D01*
X126958740Y-126603556D01*
X126603556Y-126958740D01*
X126324490Y-127376392D01*
X126132265Y-127840463D01*
X126034270Y-128333117D01*
X120500000Y-128333117D01*
X120500000Y-127024560D01*
X120502419Y-127000000D01*
X120492765Y-126901983D01*
X120464175Y-126807733D01*
X120417746Y-126720871D01*
X120355264Y-126644736D01*
X120279129Y-126582254D01*
X120192267Y-126535825D01*
X120118057Y-126513314D01*
X120121401Y-126509970D01*
X120208951Y-126378942D01*
X120269257Y-126233351D01*
X120300000Y-126078793D01*
X120300000Y-125921207D01*
X121700000Y-125921207D01*
X121700000Y-126078793D01*
X121730743Y-126233351D01*
X121791049Y-126378942D01*
X121878599Y-126509970D01*
X121990030Y-126621401D01*
X122121058Y-126708951D01*
X122266649Y-126769257D01*
X122421207Y-126800000D01*
X122578793Y-126800000D01*
X122733351Y-126769257D01*
X122878942Y-126708951D01*
X123009970Y-126621401D01*
X123121401Y-126509970D01*
X123208951Y-126378942D01*
X123269257Y-126233351D01*
X123300000Y-126078793D01*
X123300000Y-125921207D01*
X123269257Y-125766649D01*
X123208951Y-125621058D01*
X123121401Y-125490030D01*
X123009970Y-125378599D01*
X122878942Y-125291049D01*
X122733351Y-125230743D01*
X122578793Y-125200000D01*
X122421207Y-125200000D01*
X122266649Y-125230743D01*
X122121058Y-125291049D01*
X121990030Y-125378599D01*
X121878599Y-125490030D01*
X121791049Y-125621058D01*
X121730743Y-125766649D01*
X121700000Y-125921207D01*
X120300000Y-125921207D01*
X120269257Y-125766649D01*
X120208951Y-125621058D01*
X120121401Y-125490030D01*
X120009970Y-125378599D01*
X119878942Y-125291049D01*
X119733351Y-125230743D01*
X119578793Y-125200000D01*
X119421207Y-125200000D01*
X119266649Y-125230743D01*
X119121058Y-125291049D01*
X118990030Y-125378599D01*
X118878599Y-125490030D01*
X118791049Y-125621058D01*
X118730743Y-125766649D01*
X118700000Y-125921207D01*
X118700000Y-126078793D01*
X118730743Y-126233351D01*
X118791049Y-126378942D01*
X118871937Y-126500000D01*
X117128063Y-126500000D01*
X117208951Y-126378942D01*
X117269257Y-126233351D01*
X117300000Y-126078793D01*
X117300000Y-125921207D01*
X117269257Y-125766649D01*
X117208951Y-125621058D01*
X117121401Y-125490030D01*
X117009970Y-125378599D01*
X116878942Y-125291049D01*
X116733351Y-125230743D01*
X116578793Y-125200000D01*
X116421207Y-125200000D01*
X116266649Y-125230743D01*
X116121058Y-125291049D01*
X115990030Y-125378599D01*
X115878599Y-125490030D01*
X115791049Y-125621058D01*
X115730743Y-125766649D01*
X115700000Y-125921207D01*
X115700000Y-126078793D01*
X115730743Y-126233351D01*
X115791049Y-126378942D01*
X115871937Y-126500000D01*
X114128063Y-126500000D01*
X114208951Y-126378942D01*
X114269257Y-126233351D01*
X114300000Y-126078793D01*
X114300000Y-125921207D01*
X114269257Y-125766649D01*
X114208951Y-125621058D01*
X114121401Y-125490030D01*
X114009970Y-125378599D01*
X113878942Y-125291049D01*
X113733351Y-125230743D01*
X113578793Y-125200000D01*
X113421207Y-125200000D01*
X113266649Y-125230743D01*
X113121058Y-125291049D01*
X112990030Y-125378599D01*
X112878599Y-125490030D01*
X112791049Y-125621058D01*
X112730743Y-125766649D01*
X112700000Y-125921207D01*
X112700000Y-126078793D01*
X112730743Y-126233351D01*
X112791049Y-126378942D01*
X112871937Y-126500000D01*
X110628063Y-126500000D01*
X110708951Y-126378942D01*
X110769257Y-126233351D01*
X110800000Y-126078793D01*
X110800000Y-125921207D01*
X110769257Y-125766649D01*
X110708951Y-125621058D01*
X110621401Y-125490030D01*
X110509970Y-125378599D01*
X110378942Y-125291049D01*
X110233351Y-125230743D01*
X110078793Y-125200000D01*
X109921207Y-125200000D01*
X109766649Y-125230743D01*
X109621058Y-125291049D01*
X109490030Y-125378599D01*
X109378599Y-125490030D01*
X109291049Y-125621058D01*
X109230743Y-125766649D01*
X109200000Y-125921207D01*
X109200000Y-126078793D01*
X109230743Y-126233351D01*
X109291049Y-126378942D01*
X109371937Y-126500000D01*
X107628063Y-126500000D01*
X107708951Y-126378942D01*
X107769257Y-126233351D01*
X107800000Y-126078793D01*
X107800000Y-125921207D01*
X107769257Y-125766649D01*
X107708951Y-125621058D01*
X107621401Y-125490030D01*
X107509970Y-125378599D01*
X107378942Y-125291049D01*
X107233351Y-125230743D01*
X107078793Y-125200000D01*
X106921207Y-125200000D01*
X106766649Y-125230743D01*
X106621058Y-125291049D01*
X106490030Y-125378599D01*
X106378599Y-125490030D01*
X106291049Y-125621058D01*
X106230743Y-125766649D01*
X106200000Y-125921207D01*
X106200000Y-126078793D01*
X106230743Y-126233351D01*
X106291049Y-126378942D01*
X106371937Y-126500000D01*
X104628063Y-126500000D01*
X104708951Y-126378942D01*
X104769257Y-126233351D01*
X104800000Y-126078793D01*
X104800000Y-125921207D01*
X104769257Y-125766649D01*
X104708951Y-125621058D01*
X104621401Y-125490030D01*
X104509970Y-125378599D01*
X104378942Y-125291049D01*
X104233351Y-125230743D01*
X104078793Y-125200000D01*
X103921207Y-125200000D01*
X103766649Y-125230743D01*
X103621058Y-125291049D01*
X103490030Y-125378599D01*
X103378599Y-125490030D01*
X103291049Y-125621058D01*
X103230743Y-125766649D01*
X103200000Y-125921207D01*
X103200000Y-126078793D01*
X103230743Y-126233351D01*
X103291049Y-126378942D01*
X103371937Y-126500000D01*
X101628063Y-126500000D01*
X101708951Y-126378942D01*
X101769257Y-126233351D01*
X101800000Y-126078793D01*
X101800000Y-125921207D01*
X101769257Y-125766649D01*
X101708951Y-125621058D01*
X101621401Y-125490030D01*
X101509970Y-125378599D01*
X101378942Y-125291049D01*
X101233351Y-125230743D01*
X101078793Y-125200000D01*
X100921207Y-125200000D01*
X100766649Y-125230743D01*
X100621058Y-125291049D01*
X100490030Y-125378599D01*
X100378599Y-125490030D01*
X100291049Y-125621058D01*
X100230743Y-125766649D01*
X100200000Y-125921207D01*
X100200000Y-126078793D01*
X100230743Y-126233351D01*
X100291049Y-126378942D01*
X100371937Y-126500000D01*
X98628063Y-126500000D01*
X98708951Y-126378942D01*
X98769257Y-126233351D01*
X98800000Y-126078793D01*
X98800000Y-125921207D01*
X98769257Y-125766649D01*
X98708951Y-125621058D01*
X98621401Y-125490030D01*
X98509970Y-125378599D01*
X98378942Y-125291049D01*
X98233351Y-125230743D01*
X98078793Y-125200000D01*
X97921207Y-125200000D01*
X97766649Y-125230743D01*
X97621058Y-125291049D01*
X97490030Y-125378599D01*
X97378599Y-125490030D01*
X97291049Y-125621058D01*
X97230743Y-125766649D01*
X97200000Y-125921207D01*
X97200000Y-126078793D01*
X97230743Y-126233351D01*
X97291049Y-126378942D01*
X97371937Y-126500000D01*
X91636098Y-126500000D01*
X91983433Y-126430911D01*
X92784182Y-126099230D01*
X93504837Y-125617703D01*
X94117703Y-125004837D01*
X94507672Y-124421207D01*
X95200000Y-124421207D01*
X95200000Y-124578793D01*
X95230743Y-124733351D01*
X95291049Y-124878942D01*
X95378599Y-125009970D01*
X95490030Y-125121401D01*
X95621058Y-125208951D01*
X95766649Y-125269257D01*
X95921207Y-125300000D01*
X96078793Y-125300000D01*
X96233351Y-125269257D01*
X96378942Y-125208951D01*
X96509970Y-125121401D01*
X96621401Y-125009970D01*
X96708951Y-124878942D01*
X96769257Y-124733351D01*
X96800000Y-124578793D01*
X96800000Y-124421207D01*
X98700000Y-124421207D01*
X98700000Y-124578793D01*
X98730743Y-124733351D01*
X98791049Y-124878942D01*
X98878599Y-125009970D01*
X98990030Y-125121401D01*
X99121058Y-125208951D01*
X99266649Y-125269257D01*
X99421207Y-125300000D01*
X99578793Y-125300000D01*
X99733351Y-125269257D01*
X99878942Y-125208951D01*
X100009970Y-125121401D01*
X100121401Y-125009970D01*
X100208951Y-124878942D01*
X100269257Y-124733351D01*
X100300000Y-124578793D01*
X100300000Y-124421207D01*
X101700000Y-124421207D01*
X101700000Y-124578793D01*
X101730743Y-124733351D01*
X101791049Y-124878942D01*
X101878599Y-125009970D01*
X101990030Y-125121401D01*
X102121058Y-125208951D01*
X102266649Y-125269257D01*
X102421207Y-125300000D01*
X102578793Y-125300000D01*
X102733351Y-125269257D01*
X102878942Y-125208951D01*
X103009970Y-125121401D01*
X103121401Y-125009970D01*
X103208951Y-124878942D01*
X103269257Y-124733351D01*
X103300000Y-124578793D01*
X103300000Y-124421207D01*
X104700000Y-124421207D01*
X104700000Y-124578793D01*
X104730743Y-124733351D01*
X104791049Y-124878942D01*
X104878599Y-125009970D01*
X104990030Y-125121401D01*
X105121058Y-125208951D01*
X105266649Y-125269257D01*
X105421207Y-125300000D01*
X105578793Y-125300000D01*
X105733351Y-125269257D01*
X105878942Y-125208951D01*
X106009970Y-125121401D01*
X106121401Y-125009970D01*
X106208951Y-124878942D01*
X106269257Y-124733351D01*
X106300000Y-124578793D01*
X106300000Y-124421207D01*
X107700000Y-124421207D01*
X107700000Y-124578793D01*
X107730743Y-124733351D01*
X107791049Y-124878942D01*
X107878599Y-125009970D01*
X107990030Y-125121401D01*
X108121058Y-125208951D01*
X108266649Y-125269257D01*
X108421207Y-125300000D01*
X108578793Y-125300000D01*
X108733351Y-125269257D01*
X108878942Y-125208951D01*
X109009970Y-125121401D01*
X109121401Y-125009970D01*
X109208951Y-124878942D01*
X109269257Y-124733351D01*
X109300000Y-124578793D01*
X109300000Y-124421207D01*
X110700000Y-124421207D01*
X110700000Y-124578793D01*
X110730743Y-124733351D01*
X110791049Y-124878942D01*
X110878599Y-125009970D01*
X110990030Y-125121401D01*
X111121058Y-125208951D01*
X111266649Y-125269257D01*
X111421207Y-125300000D01*
X111578793Y-125300000D01*
X111733351Y-125269257D01*
X111878942Y-125208951D01*
X112009970Y-125121401D01*
X112121401Y-125009970D01*
X112208951Y-124878942D01*
X112269257Y-124733351D01*
X112300000Y-124578793D01*
X112300000Y-124421207D01*
X114200000Y-124421207D01*
X114200000Y-124578793D01*
X114230743Y-124733351D01*
X114291049Y-124878942D01*
X114378599Y-125009970D01*
X114490030Y-125121401D01*
X114621058Y-125208951D01*
X114766649Y-125269257D01*
X114921207Y-125300000D01*
X115078793Y-125300000D01*
X115233351Y-125269257D01*
X115378942Y-125208951D01*
X115509970Y-125121401D01*
X115621401Y-125009970D01*
X115708951Y-124878942D01*
X115769257Y-124733351D01*
X115800000Y-124578793D01*
X115800000Y-124421207D01*
X117200000Y-124421207D01*
X117200000Y-124578793D01*
X117230743Y-124733351D01*
X117291049Y-124878942D01*
X117378599Y-125009970D01*
X117490030Y-125121401D01*
X117621058Y-125208951D01*
X117766649Y-125269257D01*
X117921207Y-125300000D01*
X118078793Y-125300000D01*
X118233351Y-125269257D01*
X118378942Y-125208951D01*
X118509970Y-125121401D01*
X118621401Y-125009970D01*
X118708951Y-124878942D01*
X118769257Y-124733351D01*
X118800000Y-124578793D01*
X118800000Y-124421207D01*
X120200000Y-124421207D01*
X120200000Y-124578793D01*
X120230743Y-124733351D01*
X120291049Y-124878942D01*
X120378599Y-125009970D01*
X120490030Y-125121401D01*
X120621058Y-125208951D01*
X120766649Y-125269257D01*
X120921207Y-125300000D01*
X121078793Y-125300000D01*
X121233351Y-125269257D01*
X121378942Y-125208951D01*
X121509970Y-125121401D01*
X121621401Y-125009970D01*
X121708951Y-124878942D01*
X121769257Y-124733351D01*
X121800000Y-124578793D01*
X121800000Y-124421207D01*
X121769257Y-124266649D01*
X121708951Y-124121058D01*
X121621401Y-123990030D01*
X121509970Y-123878599D01*
X121378942Y-123791049D01*
X121233351Y-123730743D01*
X121078793Y-123700000D01*
X120921207Y-123700000D01*
X120766649Y-123730743D01*
X120621058Y-123791049D01*
X120490030Y-123878599D01*
X120378599Y-123990030D01*
X120291049Y-124121058D01*
X120230743Y-124266649D01*
X120200000Y-124421207D01*
X118800000Y-124421207D01*
X118769257Y-124266649D01*
X118708951Y-124121058D01*
X118621401Y-123990030D01*
X118509970Y-123878599D01*
X118378942Y-123791049D01*
X118233351Y-123730743D01*
X118078793Y-123700000D01*
X117921207Y-123700000D01*
X117766649Y-123730743D01*
X117621058Y-123791049D01*
X117490030Y-123878599D01*
X117378599Y-123990030D01*
X117291049Y-124121058D01*
X117230743Y-124266649D01*
X117200000Y-124421207D01*
X115800000Y-124421207D01*
X115769257Y-124266649D01*
X115708951Y-124121058D01*
X115621401Y-123990030D01*
X115509970Y-123878599D01*
X115378942Y-123791049D01*
X115233351Y-123730743D01*
X115078793Y-123700000D01*
X114921207Y-123700000D01*
X114766649Y-123730743D01*
X114621058Y-123791049D01*
X114490030Y-123878599D01*
X114378599Y-123990030D01*
X114291049Y-124121058D01*
X114230743Y-124266649D01*
X114200000Y-124421207D01*
X112300000Y-124421207D01*
X112269257Y-124266649D01*
X112208951Y-124121058D01*
X112121401Y-123990030D01*
X112009970Y-123878599D01*
X111878942Y-123791049D01*
X111733351Y-123730743D01*
X111578793Y-123700000D01*
X111421207Y-123700000D01*
X111266649Y-123730743D01*
X111121058Y-123791049D01*
X110990030Y-123878599D01*
X110878599Y-123990030D01*
X110791049Y-124121058D01*
X110730743Y-124266649D01*
X110700000Y-124421207D01*
X109300000Y-124421207D01*
X109269257Y-124266649D01*
X109208951Y-124121058D01*
X109121401Y-123990030D01*
X109009970Y-123878599D01*
X108878942Y-123791049D01*
X108733351Y-123730743D01*
X108578793Y-123700000D01*
X108421207Y-123700000D01*
X108266649Y-123730743D01*
X108121058Y-123791049D01*
X107990030Y-123878599D01*
X107878599Y-123990030D01*
X107791049Y-124121058D01*
X107730743Y-124266649D01*
X107700000Y-124421207D01*
X106300000Y-124421207D01*
X106269257Y-124266649D01*
X106208951Y-124121058D01*
X106121401Y-123990030D01*
X106009970Y-123878599D01*
X105878942Y-123791049D01*
X105733351Y-123730743D01*
X105578793Y-123700000D01*
X105421207Y-123700000D01*
X105266649Y-123730743D01*
X105121058Y-123791049D01*
X104990030Y-123878599D01*
X104878599Y-123990030D01*
X104791049Y-124121058D01*
X104730743Y-124266649D01*
X104700000Y-124421207D01*
X103300000Y-124421207D01*
X103269257Y-124266649D01*
X103208951Y-124121058D01*
X103121401Y-123990030D01*
X103009970Y-123878599D01*
X102878942Y-123791049D01*
X102733351Y-123730743D01*
X102578793Y-123700000D01*
X102421207Y-123700000D01*
X102266649Y-123730743D01*
X102121058Y-123791049D01*
X101990030Y-123878599D01*
X101878599Y-123990030D01*
X101791049Y-124121058D01*
X101730743Y-124266649D01*
X101700000Y-124421207D01*
X100300000Y-124421207D01*
X100269257Y-124266649D01*
X100208951Y-124121058D01*
X100121401Y-123990030D01*
X100009970Y-123878599D01*
X99878942Y-123791049D01*
X99733351Y-123730743D01*
X99578793Y-123700000D01*
X99421207Y-123700000D01*
X99266649Y-123730743D01*
X99121058Y-123791049D01*
X98990030Y-123878599D01*
X98878599Y-123990030D01*
X98791049Y-124121058D01*
X98730743Y-124266649D01*
X98700000Y-124421207D01*
X96800000Y-124421207D01*
X96769257Y-124266649D01*
X96708951Y-124121058D01*
X96621401Y-123990030D01*
X96509970Y-123878599D01*
X96378942Y-123791049D01*
X96233351Y-123730743D01*
X96078793Y-123700000D01*
X95921207Y-123700000D01*
X95766649Y-123730743D01*
X95621058Y-123791049D01*
X95490030Y-123878599D01*
X95378599Y-123990030D01*
X95291049Y-124121058D01*
X95230743Y-124266649D01*
X95200000Y-124421207D01*
X94507672Y-124421207D01*
X94599230Y-124284182D01*
X94930911Y-123483433D01*
X95042744Y-122921207D01*
X97200000Y-122921207D01*
X97200000Y-123078793D01*
X97230743Y-123233351D01*
X97291049Y-123378942D01*
X97378599Y-123509970D01*
X97490030Y-123621401D01*
X97621058Y-123708951D01*
X97766649Y-123769257D01*
X97921207Y-123800000D01*
X98078793Y-123800000D01*
X98233351Y-123769257D01*
X98378942Y-123708951D01*
X98509970Y-123621401D01*
X98621401Y-123509970D01*
X98708951Y-123378942D01*
X98769257Y-123233351D01*
X98800000Y-123078793D01*
X98800000Y-122921207D01*
X100200000Y-122921207D01*
X100200000Y-123078793D01*
X100230743Y-123233351D01*
X100291049Y-123378942D01*
X100378599Y-123509970D01*
X100490030Y-123621401D01*
X100621058Y-123708951D01*
X100766649Y-123769257D01*
X100921207Y-123800000D01*
X101078793Y-123800000D01*
X101233351Y-123769257D01*
X101378942Y-123708951D01*
X101509970Y-123621401D01*
X101621401Y-123509970D01*
X101708951Y-123378942D01*
X101769257Y-123233351D01*
X101800000Y-123078793D01*
X101800000Y-122921207D01*
X103200000Y-122921207D01*
X103200000Y-123078793D01*
X103230743Y-123233351D01*
X103291049Y-123378942D01*
X103378599Y-123509970D01*
X103490030Y-123621401D01*
X103621058Y-123708951D01*
X103766649Y-123769257D01*
X103921207Y-123800000D01*
X104078793Y-123800000D01*
X104233351Y-123769257D01*
X104378942Y-123708951D01*
X104509970Y-123621401D01*
X104621401Y-123509970D01*
X104708951Y-123378942D01*
X104769257Y-123233351D01*
X104800000Y-123078793D01*
X104800000Y-122921207D01*
X106200000Y-122921207D01*
X106200000Y-123078793D01*
X106230743Y-123233351D01*
X106291049Y-123378942D01*
X106378599Y-123509970D01*
X106490030Y-123621401D01*
X106621058Y-123708951D01*
X106766649Y-123769257D01*
X106921207Y-123800000D01*
X107078793Y-123800000D01*
X107233351Y-123769257D01*
X107378942Y-123708951D01*
X107509970Y-123621401D01*
X107621401Y-123509970D01*
X107708951Y-123378942D01*
X107769257Y-123233351D01*
X107800000Y-123078793D01*
X107800000Y-122921207D01*
X109200000Y-122921207D01*
X109200000Y-123078793D01*
X109230743Y-123233351D01*
X109291049Y-123378942D01*
X109378599Y-123509970D01*
X109490030Y-123621401D01*
X109621058Y-123708951D01*
X109766649Y-123769257D01*
X109921207Y-123800000D01*
X110078793Y-123800000D01*
X110233351Y-123769257D01*
X110378942Y-123708951D01*
X110509970Y-123621401D01*
X110621401Y-123509970D01*
X110708951Y-123378942D01*
X110769257Y-123233351D01*
X110800000Y-123078793D01*
X110800000Y-122921207D01*
X112700000Y-122921207D01*
X112700000Y-123078793D01*
X112730743Y-123233351D01*
X112791049Y-123378942D01*
X112878599Y-123509970D01*
X112990030Y-123621401D01*
X113121058Y-123708951D01*
X113266649Y-123769257D01*
X113421207Y-123800000D01*
X113578793Y-123800000D01*
X113733351Y-123769257D01*
X113878942Y-123708951D01*
X114009970Y-123621401D01*
X114121401Y-123509970D01*
X114208951Y-123378942D01*
X114269257Y-123233351D01*
X114300000Y-123078793D01*
X114300000Y-122921207D01*
X121700000Y-122921207D01*
X121700000Y-123078793D01*
X121730743Y-123233351D01*
X121791049Y-123378942D01*
X121878599Y-123509970D01*
X121990030Y-123621401D01*
X122121058Y-123708951D01*
X122266649Y-123769257D01*
X122421207Y-123800000D01*
X122578793Y-123800000D01*
X122733351Y-123769257D01*
X122878942Y-123708951D01*
X123009970Y-123621401D01*
X123121401Y-123509970D01*
X123208951Y-123378942D01*
X123269257Y-123233351D01*
X123300000Y-123078793D01*
X123300000Y-122921207D01*
X123269257Y-122766649D01*
X123208951Y-122621058D01*
X123121401Y-122490030D01*
X123009970Y-122378599D01*
X122878942Y-122291049D01*
X122733351Y-122230743D01*
X122578793Y-122200000D01*
X122421207Y-122200000D01*
X122266649Y-122230743D01*
X122121058Y-122291049D01*
X121990030Y-122378599D01*
X121878599Y-122490030D01*
X121791049Y-122621058D01*
X121730743Y-122766649D01*
X121700000Y-122921207D01*
X114300000Y-122921207D01*
X114269257Y-122766649D01*
X114208951Y-122621058D01*
X114121401Y-122490030D01*
X114009970Y-122378599D01*
X113878942Y-122291049D01*
X113733351Y-122230743D01*
X113578793Y-122200000D01*
X113421207Y-122200000D01*
X113266649Y-122230743D01*
X113121058Y-122291049D01*
X112990030Y-122378599D01*
X112878599Y-122490030D01*
X112791049Y-122621058D01*
X112730743Y-122766649D01*
X112700000Y-122921207D01*
X110800000Y-122921207D01*
X110769257Y-122766649D01*
X110708951Y-122621058D01*
X110621401Y-122490030D01*
X110509970Y-122378599D01*
X110378942Y-122291049D01*
X110233351Y-122230743D01*
X110078793Y-122200000D01*
X109921207Y-122200000D01*
X109766649Y-122230743D01*
X109621058Y-122291049D01*
X109490030Y-122378599D01*
X109378599Y-122490030D01*
X109291049Y-122621058D01*
X109230743Y-122766649D01*
X109200000Y-122921207D01*
X107800000Y-122921207D01*
X107769257Y-122766649D01*
X107708951Y-122621058D01*
X107621401Y-122490030D01*
X107509970Y-122378599D01*
X107378942Y-122291049D01*
X107233351Y-122230743D01*
X107078793Y-122200000D01*
X106921207Y-122200000D01*
X106766649Y-122230743D01*
X106621058Y-122291049D01*
X106490030Y-122378599D01*
X106378599Y-122490030D01*
X106291049Y-122621058D01*
X106230743Y-122766649D01*
X106200000Y-122921207D01*
X104800000Y-122921207D01*
X104769257Y-122766649D01*
X104708951Y-122621058D01*
X104621401Y-122490030D01*
X104509970Y-122378599D01*
X104378942Y-122291049D01*
X104233351Y-122230743D01*
X104078793Y-122200000D01*
X103921207Y-122200000D01*
X103766649Y-122230743D01*
X103621058Y-122291049D01*
X103490030Y-122378599D01*
X103378599Y-122490030D01*
X103291049Y-122621058D01*
X103230743Y-122766649D01*
X103200000Y-122921207D01*
X101800000Y-122921207D01*
X101769257Y-122766649D01*
X101708951Y-122621058D01*
X101621401Y-122490030D01*
X101509970Y-122378599D01*
X101378942Y-122291049D01*
X101233351Y-122230743D01*
X101078793Y-122200000D01*
X100921207Y-122200000D01*
X100766649Y-122230743D01*
X100621058Y-122291049D01*
X100490030Y-122378599D01*
X100378599Y-122490030D01*
X100291049Y-122621058D01*
X100230743Y-122766649D01*
X100200000Y-122921207D01*
X98800000Y-122921207D01*
X98769257Y-122766649D01*
X98708951Y-122621058D01*
X98621401Y-122490030D01*
X98509970Y-122378599D01*
X98378942Y-122291049D01*
X98233351Y-122230743D01*
X98078793Y-122200000D01*
X97921207Y-122200000D01*
X97766649Y-122230743D01*
X97621058Y-122291049D01*
X97490030Y-122378599D01*
X97378599Y-122490030D01*
X97291049Y-122621058D01*
X97230743Y-122766649D01*
X97200000Y-122921207D01*
X95042744Y-122921207D01*
X95100000Y-122633362D01*
X95100000Y-121766638D01*
X94931834Y-120921207D01*
X95200000Y-120921207D01*
X95200000Y-121078793D01*
X95230743Y-121233351D01*
X95291049Y-121378942D01*
X95378599Y-121509970D01*
X95490030Y-121621401D01*
X95621058Y-121708951D01*
X95766649Y-121769257D01*
X95921207Y-121800000D01*
X96078793Y-121800000D01*
X96233351Y-121769257D01*
X96378942Y-121708951D01*
X96509970Y-121621401D01*
X96621401Y-121509970D01*
X96708951Y-121378942D01*
X96769257Y-121233351D01*
X96800000Y-121078793D01*
X96800000Y-120921207D01*
X98700000Y-120921207D01*
X98700000Y-121078793D01*
X98730743Y-121233351D01*
X98791049Y-121378942D01*
X98878599Y-121509970D01*
X98990030Y-121621401D01*
X99121058Y-121708951D01*
X99266649Y-121769257D01*
X99421207Y-121800000D01*
X99578793Y-121800000D01*
X99733351Y-121769257D01*
X99878942Y-121708951D01*
X100009970Y-121621401D01*
X100121401Y-121509970D01*
X100208951Y-121378942D01*
X100269257Y-121233351D01*
X100300000Y-121078793D01*
X100300000Y-120921207D01*
X101700000Y-120921207D01*
X101700000Y-121078793D01*
X101730743Y-121233351D01*
X101791049Y-121378942D01*
X101878599Y-121509970D01*
X101990030Y-121621401D01*
X102121058Y-121708951D01*
X102266649Y-121769257D01*
X102421207Y-121800000D01*
X102578793Y-121800000D01*
X102733351Y-121769257D01*
X102878942Y-121708951D01*
X103009970Y-121621401D01*
X103121401Y-121509970D01*
X103208951Y-121378942D01*
X103269257Y-121233351D01*
X103300000Y-121078793D01*
X103300000Y-120921207D01*
X104700000Y-120921207D01*
X104700000Y-121078793D01*
X104730743Y-121233351D01*
X104791049Y-121378942D01*
X104878599Y-121509970D01*
X104990030Y-121621401D01*
X105121058Y-121708951D01*
X105266649Y-121769257D01*
X105421207Y-121800000D01*
X105578793Y-121800000D01*
X105733351Y-121769257D01*
X105878942Y-121708951D01*
X106009970Y-121621401D01*
X106121401Y-121509970D01*
X106208951Y-121378942D01*
X106269257Y-121233351D01*
X106300000Y-121078793D01*
X106300000Y-120921207D01*
X106269257Y-120766649D01*
X106208951Y-120621058D01*
X106121401Y-120490030D01*
X106009970Y-120378599D01*
X105878942Y-120291049D01*
X105733351Y-120230743D01*
X105578793Y-120200000D01*
X105421207Y-120200000D01*
X105266649Y-120230743D01*
X105121058Y-120291049D01*
X104990030Y-120378599D01*
X104878599Y-120490030D01*
X104791049Y-120621058D01*
X104730743Y-120766649D01*
X104700000Y-120921207D01*
X103300000Y-120921207D01*
X103269257Y-120766649D01*
X103208951Y-120621058D01*
X103121401Y-120490030D01*
X103009970Y-120378599D01*
X102878942Y-120291049D01*
X102733351Y-120230743D01*
X102578793Y-120200000D01*
X102421207Y-120200000D01*
X102266649Y-120230743D01*
X102121058Y-120291049D01*
X101990030Y-120378599D01*
X101878599Y-120490030D01*
X101791049Y-120621058D01*
X101730743Y-120766649D01*
X101700000Y-120921207D01*
X100300000Y-120921207D01*
X100269257Y-120766649D01*
X100208951Y-120621058D01*
X100121401Y-120490030D01*
X100009970Y-120378599D01*
X99878942Y-120291049D01*
X99733351Y-120230743D01*
X99578793Y-120200000D01*
X99421207Y-120200000D01*
X99266649Y-120230743D01*
X99121058Y-120291049D01*
X98990030Y-120378599D01*
X98878599Y-120490030D01*
X98791049Y-120621058D01*
X98730743Y-120766649D01*
X98700000Y-120921207D01*
X96800000Y-120921207D01*
X96769257Y-120766649D01*
X96708951Y-120621058D01*
X96621401Y-120490030D01*
X96509970Y-120378599D01*
X96378942Y-120291049D01*
X96233351Y-120230743D01*
X96078793Y-120200000D01*
X95921207Y-120200000D01*
X95766649Y-120230743D01*
X95621058Y-120291049D01*
X95490030Y-120378599D01*
X95378599Y-120490030D01*
X95291049Y-120621058D01*
X95230743Y-120766649D01*
X95200000Y-120921207D01*
X94931834Y-120921207D01*
X94930911Y-120916567D01*
X94599230Y-120115818D01*
X94201924Y-119521207D01*
X97500000Y-119521207D01*
X97500000Y-119678793D01*
X97530743Y-119833351D01*
X97591049Y-119978942D01*
X97678599Y-120109970D01*
X97790030Y-120221401D01*
X97921058Y-120308951D01*
X98066649Y-120369257D01*
X98221207Y-120400000D01*
X98378793Y-120400000D01*
X98533351Y-120369257D01*
X98678942Y-120308951D01*
X98809970Y-120221401D01*
X98921401Y-120109970D01*
X99008951Y-119978942D01*
X99069257Y-119833351D01*
X99100000Y-119678793D01*
X99100000Y-119521207D01*
X99069257Y-119366649D01*
X99008951Y-119221058D01*
X98921401Y-119090030D01*
X98809970Y-118978599D01*
X98724077Y-118921207D01*
X100200000Y-118921207D01*
X100200000Y-119078793D01*
X100230743Y-119233351D01*
X100291049Y-119378942D01*
X100378599Y-119509970D01*
X100490030Y-119621401D01*
X100621058Y-119708951D01*
X100766649Y-119769257D01*
X100921207Y-119800000D01*
X101078793Y-119800000D01*
X101233351Y-119769257D01*
X101378942Y-119708951D01*
X101509970Y-119621401D01*
X101621401Y-119509970D01*
X101708951Y-119378942D01*
X101769257Y-119233351D01*
X101800000Y-119078793D01*
X101800000Y-118921207D01*
X101769257Y-118766649D01*
X101708951Y-118621058D01*
X101621401Y-118490030D01*
X101509970Y-118378599D01*
X101378942Y-118291049D01*
X101233351Y-118230743D01*
X101078793Y-118200000D01*
X100921207Y-118200000D01*
X100766649Y-118230743D01*
X100621058Y-118291049D01*
X100490030Y-118378599D01*
X100378599Y-118490030D01*
X100291049Y-118621058D01*
X100230743Y-118766649D01*
X100200000Y-118921207D01*
X98724077Y-118921207D01*
X98678942Y-118891049D01*
X98533351Y-118830743D01*
X98378793Y-118800000D01*
X98221207Y-118800000D01*
X98066649Y-118830743D01*
X97921058Y-118891049D01*
X97790030Y-118978599D01*
X97678599Y-119090030D01*
X97591049Y-119221058D01*
X97530743Y-119366649D01*
X97500000Y-119521207D01*
X94201924Y-119521207D01*
X94117703Y-119395163D01*
X93504837Y-118782297D01*
X92784182Y-118300770D01*
X91983433Y-117969089D01*
X91133362Y-117800000D01*
X90266638Y-117800000D01*
X89416567Y-117969089D01*
X88615818Y-118300770D01*
X87895163Y-118782297D01*
X87282297Y-119395163D01*
X86800770Y-120115818D01*
X86469089Y-120916567D01*
X86300000Y-121766638D01*
X86300000Y-122633362D01*
X86469089Y-123483433D01*
X86800770Y-124284182D01*
X87282297Y-125004837D01*
X87895163Y-125617703D01*
X88615818Y-126099230D01*
X89416567Y-126430911D01*
X89763902Y-126500000D01*
X80024560Y-126500000D01*
X80000000Y-126497581D01*
X79975440Y-126500000D01*
X79901983Y-126507235D01*
X79807733Y-126535825D01*
X79720871Y-126582254D01*
X79644736Y-126644736D01*
X79582254Y-126720871D01*
X79535825Y-126807733D01*
X79507235Y-126901983D01*
X79497581Y-127000000D01*
X79500000Y-127024560D01*
X79500001Y-133792893D01*
X77792895Y-135500000D01*
X73174948Y-135500000D01*
X71235833Y-133953692D01*
X69272791Y-132188028D01*
X67417915Y-130309046D01*
X65686287Y-128333117D01*
X68865730Y-128333117D01*
X68865730Y-128835423D01*
X68963725Y-129328077D01*
X69155950Y-129792148D01*
X69435016Y-130209800D01*
X69790200Y-130564984D01*
X70207852Y-130844050D01*
X70671923Y-131036275D01*
X71164577Y-131134270D01*
X71666883Y-131134270D01*
X72159537Y-131036275D01*
X72623608Y-130844050D01*
X73041260Y-130564984D01*
X73396444Y-130209800D01*
X73675510Y-129792148D01*
X73867735Y-129328077D01*
X73965730Y-128835423D01*
X73965730Y-128333117D01*
X73867735Y-127840463D01*
X73675510Y-127376392D01*
X73396444Y-126958740D01*
X73041260Y-126603556D01*
X72623608Y-126324490D01*
X72159537Y-126132265D01*
X71666883Y-126034270D01*
X71164577Y-126034270D01*
X70671923Y-126132265D01*
X70207852Y-126324490D01*
X69790200Y-126603556D01*
X69435016Y-126958740D01*
X69155950Y-127376392D01*
X68963725Y-127840463D01*
X68865730Y-128333117D01*
X65686287Y-128333117D01*
X65677752Y-128323379D01*
X64058407Y-126237995D01*
X62565590Y-124060246D01*
X61204558Y-121797803D01*
X59980091Y-119458606D01*
X58896514Y-117050923D01*
X58668806Y-116452422D01*
X82259710Y-116452422D01*
X82358613Y-116637988D01*
X82592948Y-116741250D01*
X82842925Y-116796812D01*
X83098939Y-116802538D01*
X83351150Y-116758208D01*
X83589867Y-116665526D01*
X83641387Y-116637988D01*
X83740290Y-116452422D01*
X83000000Y-115712132D01*
X82259710Y-116452422D01*
X58668806Y-116452422D01*
X58344085Y-115598939D01*
X81697462Y-115598939D01*
X81741792Y-115851150D01*
X81834474Y-116089867D01*
X81862012Y-116141387D01*
X82047578Y-116240290D01*
X82787868Y-115500000D01*
X83212132Y-115500000D01*
X83952422Y-116240290D01*
X84137988Y-116141387D01*
X84241250Y-115907052D01*
X84296812Y-115657075D01*
X84302538Y-115401061D01*
X84297424Y-115371961D01*
X85200000Y-115371961D01*
X85200000Y-115628039D01*
X85249958Y-115879196D01*
X85347955Y-116115781D01*
X85490224Y-116328702D01*
X85671298Y-116509776D01*
X85884219Y-116652045D01*
X86120804Y-116750042D01*
X86371961Y-116800000D01*
X86628039Y-116800000D01*
X86879196Y-116750042D01*
X87115781Y-116652045D01*
X87328702Y-116509776D01*
X87509776Y-116328702D01*
X87652045Y-116115781D01*
X87687139Y-116031056D01*
X109435000Y-116031056D01*
X109435000Y-116168944D01*
X109461901Y-116304182D01*
X109514668Y-116431574D01*
X109591274Y-116546224D01*
X109688776Y-116643726D01*
X109803426Y-116720332D01*
X109930818Y-116773099D01*
X110066056Y-116800000D01*
X110203944Y-116800000D01*
X110339182Y-116773099D01*
X110466574Y-116720332D01*
X110581224Y-116643726D01*
X110678726Y-116546224D01*
X110755332Y-116431574D01*
X110808099Y-116304182D01*
X110835000Y-116168944D01*
X110835000Y-116031056D01*
X110808099Y-115895818D01*
X110755332Y-115768426D01*
X110678726Y-115653776D01*
X110581224Y-115556274D01*
X110466574Y-115479668D01*
X110339182Y-115426901D01*
X110203944Y-115400000D01*
X110066056Y-115400000D01*
X109930818Y-115426901D01*
X109803426Y-115479668D01*
X109688776Y-115556274D01*
X109591274Y-115653776D01*
X109514668Y-115768426D01*
X109461901Y-115895818D01*
X109435000Y-116031056D01*
X87687139Y-116031056D01*
X87750042Y-115879196D01*
X87800000Y-115628039D01*
X87800000Y-115371961D01*
X87750042Y-115120804D01*
X87652045Y-114884219D01*
X87509776Y-114671298D01*
X87328702Y-114490224D01*
X87115781Y-114347955D01*
X86879196Y-114249958D01*
X86784169Y-114231056D01*
X114300000Y-114231056D01*
X114300000Y-114368944D01*
X114326901Y-114504182D01*
X114379668Y-114631574D01*
X114456274Y-114746224D01*
X114553776Y-114843726D01*
X114668426Y-114920332D01*
X114795818Y-114973099D01*
X114931056Y-115000000D01*
X115068944Y-115000000D01*
X115204182Y-114973099D01*
X115331574Y-114920332D01*
X115446224Y-114843726D01*
X115543726Y-114746224D01*
X115620332Y-114631574D01*
X115673099Y-114504182D01*
X115700000Y-114368944D01*
X115700000Y-114231056D01*
X115673099Y-114095818D01*
X115620332Y-113968426D01*
X115543726Y-113853776D01*
X115446224Y-113756274D01*
X115331574Y-113679668D01*
X115204182Y-113626901D01*
X115068944Y-113600000D01*
X114931056Y-113600000D01*
X114795818Y-113626901D01*
X114668426Y-113679668D01*
X114553776Y-113756274D01*
X114456274Y-113853776D01*
X114379668Y-113968426D01*
X114326901Y-114095818D01*
X114300000Y-114231056D01*
X86784169Y-114231056D01*
X86628039Y-114200000D01*
X86371961Y-114200000D01*
X86120804Y-114249958D01*
X85884219Y-114347955D01*
X85671298Y-114490224D01*
X85490224Y-114671298D01*
X85347955Y-114884219D01*
X85249958Y-115120804D01*
X85200000Y-115371961D01*
X84297424Y-115371961D01*
X84258208Y-115148850D01*
X84165526Y-114910133D01*
X84137988Y-114858613D01*
X83952422Y-114759710D01*
X83212132Y-115500000D01*
X82787868Y-115500000D01*
X82047578Y-114759710D01*
X81862012Y-114858613D01*
X81758750Y-115092948D01*
X81703188Y-115342925D01*
X81697462Y-115598939D01*
X58344085Y-115598939D01*
X57957636Y-114583214D01*
X57946448Y-114547578D01*
X82259710Y-114547578D01*
X83000000Y-115287868D01*
X83740290Y-114547578D01*
X83641387Y-114362012D01*
X83407052Y-114258750D01*
X83157075Y-114203188D01*
X82901061Y-114197462D01*
X82648850Y-114241792D01*
X82410133Y-114334474D01*
X82358613Y-114362012D01*
X82259710Y-114547578D01*
X57946448Y-114547578D01*
X57166758Y-112064155D01*
X56526672Y-109502645D01*
X56039625Y-106907672D01*
X55707335Y-104288389D01*
X55530969Y-101654005D01*
X55511149Y-99013783D01*
X55511864Y-99000000D01*
X83892000Y-99000000D01*
X83892000Y-108000000D01*
X83897201Y-108079359D01*
X83914238Y-108208769D01*
X83955318Y-108362081D01*
X84005268Y-108482671D01*
X84084630Y-108620130D01*
X84164090Y-108723683D01*
X84276317Y-108835910D01*
X84379870Y-108915370D01*
X84517329Y-108994732D01*
X84637919Y-109044682D01*
X84791231Y-109085762D01*
X84920641Y-109102799D01*
X85000000Y-109108000D01*
X97426024Y-109108000D01*
X97353776Y-109156274D01*
X97256274Y-109253776D01*
X97179668Y-109368426D01*
X97126901Y-109495818D01*
X97100000Y-109631056D01*
X97100000Y-109768944D01*
X97126901Y-109904182D01*
X97179668Y-110031574D01*
X97256274Y-110146224D01*
X97353776Y-110243726D01*
X97468426Y-110320332D01*
X97595818Y-110373099D01*
X97731056Y-110400000D01*
X97868944Y-110400000D01*
X98004182Y-110373099D01*
X98131574Y-110320332D01*
X98246224Y-110243726D01*
X98343726Y-110146224D01*
X98420332Y-110031574D01*
X98461967Y-109931056D01*
X106200000Y-109931056D01*
X106200000Y-110068944D01*
X106226901Y-110204182D01*
X106279668Y-110331574D01*
X106356274Y-110446224D01*
X106453776Y-110543726D01*
X106568426Y-110620332D01*
X106695818Y-110673099D01*
X106831056Y-110700000D01*
X106968944Y-110700000D01*
X107104182Y-110673099D01*
X107231574Y-110620332D01*
X107346224Y-110543726D01*
X107443726Y-110446224D01*
X107520332Y-110331574D01*
X107573099Y-110204182D01*
X107600000Y-110068944D01*
X107600000Y-109931056D01*
X107573099Y-109795818D01*
X107520332Y-109668426D01*
X107443726Y-109553776D01*
X107346224Y-109456274D01*
X107231574Y-109379668D01*
X107104182Y-109326901D01*
X106968944Y-109300000D01*
X106831056Y-109300000D01*
X106695818Y-109326901D01*
X106568426Y-109379668D01*
X106453776Y-109456274D01*
X106356274Y-109553776D01*
X106279668Y-109668426D01*
X106226901Y-109795818D01*
X106200000Y-109931056D01*
X98461967Y-109931056D01*
X98473099Y-109904182D01*
X98500000Y-109768944D01*
X98500000Y-109631056D01*
X98473099Y-109495818D01*
X98420332Y-109368426D01*
X98343726Y-109253776D01*
X98246224Y-109156274D01*
X98173976Y-109108000D01*
X103100000Y-109108000D01*
X103179359Y-109102799D01*
X103308769Y-109085762D01*
X103462081Y-109044682D01*
X103582671Y-108994732D01*
X103720130Y-108915370D01*
X103823683Y-108835910D01*
X103935910Y-108723683D01*
X104015370Y-108620130D01*
X104094732Y-108482671D01*
X104144682Y-108362081D01*
X104185762Y-108208769D01*
X104202799Y-108079359D01*
X104208000Y-108000000D01*
X104208000Y-107031056D01*
X109400000Y-107031056D01*
X109400000Y-107168944D01*
X109426901Y-107304182D01*
X109479668Y-107431574D01*
X109556274Y-107546224D01*
X109653776Y-107643726D01*
X109768426Y-107720332D01*
X109895818Y-107773099D01*
X110031056Y-107800000D01*
X110168944Y-107800000D01*
X110304182Y-107773099D01*
X110431574Y-107720332D01*
X110546224Y-107643726D01*
X110643726Y-107546224D01*
X110720332Y-107431574D01*
X110734700Y-107396886D01*
X121350000Y-107396886D01*
X121350000Y-107643114D01*
X121398037Y-107884611D01*
X121492265Y-108112097D01*
X121629062Y-108316828D01*
X121803172Y-108490938D01*
X122007903Y-108627735D01*
X122235389Y-108721963D01*
X122476886Y-108770000D01*
X122723114Y-108770000D01*
X122964611Y-108721963D01*
X123192097Y-108627735D01*
X123396828Y-108490938D01*
X123570938Y-108316828D01*
X123707735Y-108112097D01*
X123801963Y-107884611D01*
X123850000Y-107643114D01*
X123850000Y-107396886D01*
X123801963Y-107155389D01*
X123707735Y-106927903D01*
X123570938Y-106723172D01*
X123396828Y-106549062D01*
X123192097Y-106412265D01*
X122964611Y-106318037D01*
X122723114Y-106270000D01*
X122476886Y-106270000D01*
X122235389Y-106318037D01*
X122007903Y-106412265D01*
X121803172Y-106549062D01*
X121629062Y-106723172D01*
X121492265Y-106927903D01*
X121398037Y-107155389D01*
X121350000Y-107396886D01*
X110734700Y-107396886D01*
X110773099Y-107304182D01*
X110800000Y-107168944D01*
X110800000Y-107031056D01*
X110773099Y-106895818D01*
X110720332Y-106768426D01*
X110643726Y-106653776D01*
X110546224Y-106556274D01*
X110431574Y-106479668D01*
X110304182Y-106426901D01*
X110168944Y-106400000D01*
X110031056Y-106400000D01*
X109895818Y-106426901D01*
X109768426Y-106479668D01*
X109653776Y-106556274D01*
X109556274Y-106653776D01*
X109479668Y-106768426D01*
X109426901Y-106895818D01*
X109400000Y-107031056D01*
X104208000Y-107031056D01*
X104208000Y-106121207D01*
X119200000Y-106121207D01*
X119200000Y-106278793D01*
X119230743Y-106433351D01*
X119291049Y-106578942D01*
X119378599Y-106709970D01*
X119490030Y-106821401D01*
X119621058Y-106908951D01*
X119766649Y-106969257D01*
X119921207Y-107000000D01*
X120078793Y-107000000D01*
X120233351Y-106969257D01*
X120378942Y-106908951D01*
X120509970Y-106821401D01*
X120621401Y-106709970D01*
X120708951Y-106578942D01*
X120769257Y-106433351D01*
X120800000Y-106278793D01*
X120800000Y-106121207D01*
X120769257Y-105966649D01*
X120708951Y-105821058D01*
X120621401Y-105690030D01*
X120509970Y-105578599D01*
X120378942Y-105491049D01*
X120233351Y-105430743D01*
X120078793Y-105400000D01*
X119921207Y-105400000D01*
X119766649Y-105430743D01*
X119621058Y-105491049D01*
X119490030Y-105578599D01*
X119378599Y-105690030D01*
X119291049Y-105821058D01*
X119230743Y-105966649D01*
X119200000Y-106121207D01*
X104208000Y-106121207D01*
X104208000Y-105331056D01*
X110600000Y-105331056D01*
X110600000Y-105468944D01*
X110626901Y-105604182D01*
X110679668Y-105731574D01*
X110756274Y-105846224D01*
X110853776Y-105943726D01*
X110968426Y-106020332D01*
X111095818Y-106073099D01*
X111231056Y-106100000D01*
X111368944Y-106100000D01*
X111504182Y-106073099D01*
X111631574Y-106020332D01*
X111746224Y-105943726D01*
X111843726Y-105846224D01*
X111920332Y-105731574D01*
X111973099Y-105604182D01*
X112000000Y-105468944D01*
X112000000Y-105331056D01*
X111998255Y-105322283D01*
X121397777Y-105322283D01*
X121410220Y-105363325D01*
X121507864Y-105588074D01*
X121647478Y-105789455D01*
X121823697Y-105959729D01*
X122029749Y-106092353D01*
X122257716Y-106182230D01*
X122450000Y-106120974D01*
X122450000Y-105130000D01*
X122750000Y-105130000D01*
X122750000Y-106120974D01*
X122942284Y-106182230D01*
X123170251Y-106092353D01*
X123376303Y-105959729D01*
X123552522Y-105789455D01*
X123692136Y-105588074D01*
X123789780Y-105363325D01*
X123802223Y-105322283D01*
X123740175Y-105130000D01*
X122750000Y-105130000D01*
X122450000Y-105130000D01*
X121459825Y-105130000D01*
X121397777Y-105322283D01*
X111998255Y-105322283D01*
X111973099Y-105195818D01*
X111920332Y-105068426D01*
X111843726Y-104953776D01*
X111746224Y-104856274D01*
X111631574Y-104779668D01*
X111504182Y-104726901D01*
X111368944Y-104700000D01*
X111231056Y-104700000D01*
X111095818Y-104726901D01*
X110968426Y-104779668D01*
X110853776Y-104856274D01*
X110756274Y-104953776D01*
X110679668Y-105068426D01*
X110626901Y-105195818D01*
X110600000Y-105331056D01*
X104208000Y-105331056D01*
X104208000Y-104637717D01*
X121397777Y-104637717D01*
X121459825Y-104830000D01*
X122450000Y-104830000D01*
X122450000Y-103839026D01*
X122750000Y-103839026D01*
X122750000Y-104830000D01*
X123740175Y-104830000D01*
X123802223Y-104637717D01*
X123789780Y-104596675D01*
X123692136Y-104371926D01*
X123552522Y-104170545D01*
X123376303Y-104000271D01*
X123170251Y-103867647D01*
X122942284Y-103777770D01*
X122750000Y-103839026D01*
X122450000Y-103839026D01*
X122257716Y-103777770D01*
X122029749Y-103867647D01*
X121823697Y-104000271D01*
X121647478Y-104170545D01*
X121507864Y-104371926D01*
X121410220Y-104596675D01*
X121397777Y-104637717D01*
X104208000Y-104637717D01*
X104208000Y-104600000D01*
X104202799Y-104520641D01*
X104185762Y-104391231D01*
X104144682Y-104237919D01*
X104094732Y-104117329D01*
X104015370Y-103979870D01*
X103935910Y-103876317D01*
X103823683Y-103764090D01*
X103720130Y-103684630D01*
X103582671Y-103605268D01*
X103462081Y-103555318D01*
X103308769Y-103514238D01*
X103179359Y-103497201D01*
X103100000Y-103492000D01*
X98622717Y-103492000D01*
X98621401Y-103490030D01*
X98509970Y-103378599D01*
X98378942Y-103291049D01*
X98233351Y-103230743D01*
X98108000Y-103205810D01*
X98108000Y-102895414D01*
X98131056Y-102900000D01*
X98268944Y-102900000D01*
X98404182Y-102873099D01*
X98531574Y-102820332D01*
X98588518Y-102782283D01*
X121397777Y-102782283D01*
X121410220Y-102823325D01*
X121507864Y-103048074D01*
X121647478Y-103249455D01*
X121823697Y-103419729D01*
X122029749Y-103552353D01*
X122257716Y-103642230D01*
X122450000Y-103580974D01*
X122450000Y-102590000D01*
X122750000Y-102590000D01*
X122750000Y-103580974D01*
X122942284Y-103642230D01*
X123170251Y-103552353D01*
X123376303Y-103419729D01*
X123552522Y-103249455D01*
X123692136Y-103048074D01*
X123789780Y-102823325D01*
X123802223Y-102782283D01*
X123740175Y-102590000D01*
X122750000Y-102590000D01*
X122450000Y-102590000D01*
X121459825Y-102590000D01*
X121397777Y-102782283D01*
X98588518Y-102782283D01*
X98646224Y-102743726D01*
X98743726Y-102646224D01*
X98820332Y-102531574D01*
X98873099Y-102404182D01*
X98900000Y-102268944D01*
X98900000Y-102131056D01*
X98893369Y-102097717D01*
X121397777Y-102097717D01*
X121459825Y-102290000D01*
X122450000Y-102290000D01*
X122450000Y-101299026D01*
X122750000Y-101299026D01*
X122750000Y-102290000D01*
X123740175Y-102290000D01*
X123802223Y-102097717D01*
X123789780Y-102056675D01*
X123692136Y-101831926D01*
X123552522Y-101630545D01*
X123376303Y-101460271D01*
X123170251Y-101327647D01*
X122942284Y-101237770D01*
X122750000Y-101299026D01*
X122450000Y-101299026D01*
X122257716Y-101237770D01*
X122029749Y-101327647D01*
X121823697Y-101460271D01*
X121647478Y-101630545D01*
X121507864Y-101831926D01*
X121410220Y-102056675D01*
X121397777Y-102097717D01*
X98893369Y-102097717D01*
X98873099Y-101995818D01*
X98820332Y-101868426D01*
X98743726Y-101753776D01*
X98646224Y-101656274D01*
X98531574Y-101579668D01*
X98404182Y-101526901D01*
X98268944Y-101500000D01*
X98131056Y-101500000D01*
X98108000Y-101504586D01*
X98108000Y-100700000D01*
X98178793Y-100700000D01*
X98333351Y-100669257D01*
X98478942Y-100608951D01*
X98609970Y-100521401D01*
X98721401Y-100409970D01*
X98808951Y-100278942D01*
X98869257Y-100133351D01*
X98900000Y-99978793D01*
X98900000Y-99821207D01*
X98869905Y-99669905D01*
X99021207Y-99700000D01*
X99178793Y-99700000D01*
X99330095Y-99669905D01*
X99300000Y-99821207D01*
X99300000Y-99978793D01*
X99330743Y-100133351D01*
X99391049Y-100278942D01*
X99478599Y-100409970D01*
X99590030Y-100521401D01*
X99721058Y-100608951D01*
X99866649Y-100669257D01*
X100021207Y-100700000D01*
X100178793Y-100700000D01*
X100330095Y-100669905D01*
X100300000Y-100821207D01*
X100300000Y-100978793D01*
X100330743Y-101133351D01*
X100391049Y-101278942D01*
X100478599Y-101409970D01*
X100590030Y-101521401D01*
X100721058Y-101608951D01*
X100866649Y-101669257D01*
X101021207Y-101700000D01*
X101178793Y-101700000D01*
X101333351Y-101669257D01*
X101478942Y-101608951D01*
X101609970Y-101521401D01*
X101721401Y-101409970D01*
X101808951Y-101278942D01*
X101869257Y-101133351D01*
X101900000Y-100978793D01*
X101900000Y-100821207D01*
X101869905Y-100669905D01*
X102021207Y-100700000D01*
X102178793Y-100700000D01*
X102330095Y-100669905D01*
X102300000Y-100821207D01*
X102300000Y-100978793D01*
X102330743Y-101133351D01*
X102391049Y-101278942D01*
X102478599Y-101409970D01*
X102590030Y-101521401D01*
X102721058Y-101608951D01*
X102866649Y-101669257D01*
X103021207Y-101700000D01*
X103178793Y-101700000D01*
X103333351Y-101669257D01*
X103478942Y-101608951D01*
X103609970Y-101521401D01*
X103721401Y-101409970D01*
X103808951Y-101278942D01*
X103869257Y-101133351D01*
X103900000Y-100978793D01*
X103900000Y-100821207D01*
X103869905Y-100669905D01*
X104021207Y-100700000D01*
X104178793Y-100700000D01*
X104330095Y-100669905D01*
X104300000Y-100821207D01*
X104300000Y-100978793D01*
X104330743Y-101133351D01*
X104391049Y-101278942D01*
X104478599Y-101409970D01*
X104590030Y-101521401D01*
X104721058Y-101608951D01*
X104866649Y-101669257D01*
X105021207Y-101700000D01*
X105178793Y-101700000D01*
X105333351Y-101669257D01*
X105478942Y-101608951D01*
X105609970Y-101521401D01*
X105721401Y-101409970D01*
X105808951Y-101278942D01*
X105869257Y-101133351D01*
X105900000Y-100978793D01*
X105900000Y-100821207D01*
X105869257Y-100666649D01*
X105808951Y-100521058D01*
X105721401Y-100390030D01*
X105609970Y-100278599D01*
X105478942Y-100191049D01*
X105333351Y-100130743D01*
X105178793Y-100100000D01*
X105021207Y-100100000D01*
X104869905Y-100130095D01*
X104900000Y-99978793D01*
X104900000Y-99821207D01*
X104869905Y-99669905D01*
X105021207Y-99700000D01*
X105178793Y-99700000D01*
X105333351Y-99669257D01*
X105478942Y-99608951D01*
X105609970Y-99521401D01*
X105721401Y-99409970D01*
X105808951Y-99278942D01*
X105869257Y-99133351D01*
X105885836Y-99050000D01*
X121348065Y-99050000D01*
X121348065Y-100750000D01*
X121355788Y-100828414D01*
X121378660Y-100903814D01*
X121415803Y-100973303D01*
X121465789Y-101034211D01*
X121526697Y-101084197D01*
X121596186Y-101121340D01*
X121671586Y-101144212D01*
X121750000Y-101151935D01*
X123450000Y-101151935D01*
X123528414Y-101144212D01*
X123603814Y-101121340D01*
X123673303Y-101084197D01*
X123734211Y-101034211D01*
X123784197Y-100973303D01*
X123821340Y-100903814D01*
X123844212Y-100828414D01*
X123851935Y-100750000D01*
X123851935Y-99050000D01*
X123844212Y-98971586D01*
X123821340Y-98896186D01*
X123784197Y-98826697D01*
X123734211Y-98765789D01*
X123673303Y-98715803D01*
X123603814Y-98678660D01*
X123528414Y-98655788D01*
X123450000Y-98648065D01*
X121750000Y-98648065D01*
X121671586Y-98655788D01*
X121596186Y-98678660D01*
X121526697Y-98715803D01*
X121465789Y-98765789D01*
X121415803Y-98826697D01*
X121378660Y-98896186D01*
X121355788Y-98971586D01*
X121348065Y-99050000D01*
X105885836Y-99050000D01*
X105900000Y-98978793D01*
X105900000Y-98821207D01*
X105869257Y-98666649D01*
X105808951Y-98521058D01*
X105721401Y-98390030D01*
X105609970Y-98278599D01*
X105478942Y-98191049D01*
X105333351Y-98130743D01*
X105178793Y-98100000D01*
X105021207Y-98100000D01*
X104866649Y-98130743D01*
X104721058Y-98191049D01*
X104590030Y-98278599D01*
X104478599Y-98390030D01*
X104391049Y-98521058D01*
X104330743Y-98666649D01*
X104300000Y-98821207D01*
X104300000Y-98978793D01*
X104330095Y-99130095D01*
X104178793Y-99100000D01*
X104021207Y-99100000D01*
X103869905Y-99130095D01*
X103900000Y-98978793D01*
X103900000Y-98821207D01*
X103869257Y-98666649D01*
X103808951Y-98521058D01*
X103721401Y-98390030D01*
X103609970Y-98278599D01*
X103478942Y-98191049D01*
X103333351Y-98130743D01*
X103178793Y-98100000D01*
X103021207Y-98100000D01*
X102866649Y-98130743D01*
X102721058Y-98191049D01*
X102590030Y-98278599D01*
X102478599Y-98390030D01*
X102391049Y-98521058D01*
X102330743Y-98666649D01*
X102300000Y-98821207D01*
X102300000Y-98978793D01*
X102330095Y-99130095D01*
X102178793Y-99100000D01*
X102021207Y-99100000D01*
X101869905Y-99130095D01*
X101900000Y-98978793D01*
X101900000Y-98821207D01*
X101869257Y-98666649D01*
X101808951Y-98521058D01*
X101721401Y-98390030D01*
X101609970Y-98278599D01*
X101478942Y-98191049D01*
X101333351Y-98130743D01*
X101178793Y-98100000D01*
X101021207Y-98100000D01*
X100866649Y-98130743D01*
X100721058Y-98191049D01*
X100590030Y-98278599D01*
X100478599Y-98390030D01*
X100391049Y-98521058D01*
X100330743Y-98666649D01*
X100300000Y-98821207D01*
X100300000Y-98978793D01*
X100330095Y-99130095D01*
X100178793Y-99100000D01*
X100021207Y-99100000D01*
X99869905Y-99130095D01*
X99900000Y-98978793D01*
X99900000Y-98821207D01*
X99869257Y-98666649D01*
X99808951Y-98521058D01*
X99721401Y-98390030D01*
X99609970Y-98278599D01*
X99478942Y-98191049D01*
X99333351Y-98130743D01*
X99178793Y-98100000D01*
X99021207Y-98100000D01*
X98866649Y-98130743D01*
X98721058Y-98191049D01*
X98590030Y-98278599D01*
X98478599Y-98390030D01*
X98391049Y-98521058D01*
X98330743Y-98666649D01*
X98300000Y-98821207D01*
X98300000Y-98978793D01*
X98330095Y-99130095D01*
X98178793Y-99100000D01*
X98108000Y-99100000D01*
X98108000Y-99000000D01*
X98102799Y-98920641D01*
X98085762Y-98791231D01*
X98044682Y-98637919D01*
X97994732Y-98517329D01*
X97915370Y-98379870D01*
X97835910Y-98276317D01*
X97723683Y-98164090D01*
X97620130Y-98084630D01*
X97482671Y-98005268D01*
X97362081Y-97955318D01*
X97271535Y-97931056D01*
X112100000Y-97931056D01*
X112100000Y-98068944D01*
X112126901Y-98204182D01*
X112179668Y-98331574D01*
X112256274Y-98446224D01*
X112353776Y-98543726D01*
X112468426Y-98620332D01*
X112595818Y-98673099D01*
X112731056Y-98700000D01*
X112868944Y-98700000D01*
X113004182Y-98673099D01*
X113131574Y-98620332D01*
X113246224Y-98543726D01*
X113343726Y-98446224D01*
X113400000Y-98362003D01*
X113456274Y-98446224D01*
X113553776Y-98543726D01*
X113668426Y-98620332D01*
X113795818Y-98673099D01*
X113931056Y-98700000D01*
X114068944Y-98700000D01*
X114204182Y-98673099D01*
X114331574Y-98620332D01*
X114446224Y-98543726D01*
X114543726Y-98446224D01*
X114620332Y-98331574D01*
X114673099Y-98204182D01*
X114700000Y-98068944D01*
X114700000Y-97931056D01*
X114673099Y-97795818D01*
X114620332Y-97668426D01*
X114543726Y-97553776D01*
X114446224Y-97456274D01*
X114331574Y-97379668D01*
X114204182Y-97326901D01*
X114068944Y-97300000D01*
X113931056Y-97300000D01*
X113795818Y-97326901D01*
X113668426Y-97379668D01*
X113553776Y-97456274D01*
X113456274Y-97553776D01*
X113400000Y-97637997D01*
X113343726Y-97553776D01*
X113246224Y-97456274D01*
X113131574Y-97379668D01*
X113004182Y-97326901D01*
X112868944Y-97300000D01*
X112731056Y-97300000D01*
X112595818Y-97326901D01*
X112468426Y-97379668D01*
X112353776Y-97456274D01*
X112256274Y-97553776D01*
X112179668Y-97668426D01*
X112126901Y-97795818D01*
X112100000Y-97931056D01*
X97271535Y-97931056D01*
X97208769Y-97914238D01*
X97079359Y-97897201D01*
X97000000Y-97892000D01*
X85000000Y-97892000D01*
X84920641Y-97897201D01*
X84791231Y-97914238D01*
X84637919Y-97955318D01*
X84517329Y-98005268D01*
X84379870Y-98084630D01*
X84276317Y-98164090D01*
X84164090Y-98276317D01*
X84084630Y-98379870D01*
X84005268Y-98517329D01*
X83955318Y-98637919D01*
X83914238Y-98791231D01*
X83897201Y-98920641D01*
X83892000Y-99000000D01*
X55511864Y-99000000D01*
X55647945Y-96377059D01*
X55940876Y-93753081D01*
X56388913Y-91151070D01*
X56442699Y-90921207D01*
X90700000Y-90921207D01*
X90700000Y-91078793D01*
X90730743Y-91233351D01*
X90791049Y-91378942D01*
X90878599Y-91509970D01*
X90990030Y-91621401D01*
X91121058Y-91708951D01*
X91235079Y-91756180D01*
X91230743Y-91766649D01*
X91200000Y-91921207D01*
X91200000Y-92078793D01*
X91230743Y-92233351D01*
X91291049Y-92378942D01*
X91378599Y-92509970D01*
X91490030Y-92621401D01*
X91621058Y-92708951D01*
X91766649Y-92769257D01*
X91921207Y-92800000D01*
X92078793Y-92800000D01*
X92233351Y-92769257D01*
X92378942Y-92708951D01*
X92500000Y-92628063D01*
X92621058Y-92708951D01*
X92766649Y-92769257D01*
X92921207Y-92800000D01*
X93078793Y-92800000D01*
X93233351Y-92769257D01*
X93378942Y-92708951D01*
X93500000Y-92628063D01*
X93621058Y-92708951D01*
X93766649Y-92769257D01*
X93921207Y-92800000D01*
X94078793Y-92800000D01*
X94233351Y-92769257D01*
X94378942Y-92708951D01*
X94500000Y-92628063D01*
X94621058Y-92708951D01*
X94766649Y-92769257D01*
X94921207Y-92800000D01*
X95078793Y-92800000D01*
X95233351Y-92769257D01*
X95378942Y-92708951D01*
X95509970Y-92621401D01*
X95621401Y-92509970D01*
X95708951Y-92378942D01*
X95769257Y-92233351D01*
X95800000Y-92078793D01*
X95800000Y-91921207D01*
X95769257Y-91766649D01*
X95708951Y-91621058D01*
X95621401Y-91490030D01*
X95509970Y-91378599D01*
X95378942Y-91291049D01*
X95264921Y-91243820D01*
X95269257Y-91233351D01*
X95300000Y-91078793D01*
X95300000Y-90921207D01*
X95269257Y-90766649D01*
X95264921Y-90756180D01*
X95378942Y-90708951D01*
X95509970Y-90621401D01*
X95621401Y-90509970D01*
X95708951Y-90378942D01*
X95769257Y-90233351D01*
X95800000Y-90078793D01*
X95800000Y-89921207D01*
X95769257Y-89766649D01*
X95708951Y-89621058D01*
X95621401Y-89490030D01*
X95509970Y-89378599D01*
X95378942Y-89291049D01*
X95233351Y-89230743D01*
X95078793Y-89200000D01*
X94921207Y-89200000D01*
X94766649Y-89230743D01*
X94621058Y-89291049D01*
X94500000Y-89371937D01*
X94378942Y-89291049D01*
X94233351Y-89230743D01*
X94078793Y-89200000D01*
X93921207Y-89200000D01*
X93766649Y-89230743D01*
X93621058Y-89291049D01*
X93500000Y-89371937D01*
X93378942Y-89291049D01*
X93233351Y-89230743D01*
X93078793Y-89200000D01*
X92921207Y-89200000D01*
X92766649Y-89230743D01*
X92621058Y-89291049D01*
X92500000Y-89371937D01*
X92378942Y-89291049D01*
X92233351Y-89230743D01*
X92078793Y-89200000D01*
X91921207Y-89200000D01*
X91766649Y-89230743D01*
X91621058Y-89291049D01*
X91490030Y-89378599D01*
X91378599Y-89490030D01*
X91291049Y-89621058D01*
X91230743Y-89766649D01*
X91200000Y-89921207D01*
X91200000Y-90078793D01*
X91230743Y-90233351D01*
X91235079Y-90243820D01*
X91121058Y-90291049D01*
X90990030Y-90378599D01*
X90878599Y-90490030D01*
X90791049Y-90621058D01*
X90730743Y-90766649D01*
X90700000Y-90921207D01*
X56442699Y-90921207D01*
X56990471Y-88580240D01*
X57743439Y-86049606D01*
X58516845Y-83921207D01*
X100200000Y-83921207D01*
X100200000Y-84078793D01*
X100230743Y-84233351D01*
X100291049Y-84378942D01*
X100378599Y-84509970D01*
X100490030Y-84621401D01*
X100621058Y-84708951D01*
X100766649Y-84769257D01*
X100921207Y-84800000D01*
X101078793Y-84800000D01*
X101233351Y-84769257D01*
X101378942Y-84708951D01*
X101500000Y-84628063D01*
X101621058Y-84708951D01*
X101766649Y-84769257D01*
X101921207Y-84800000D01*
X102078793Y-84800000D01*
X102233351Y-84769257D01*
X102378942Y-84708951D01*
X102500000Y-84628063D01*
X102621058Y-84708951D01*
X102766649Y-84769257D01*
X102921207Y-84800000D01*
X103078793Y-84800000D01*
X103233351Y-84769257D01*
X103378942Y-84708951D01*
X103500000Y-84628063D01*
X103621058Y-84708951D01*
X103766649Y-84769257D01*
X103921207Y-84800000D01*
X104078793Y-84800000D01*
X104233351Y-84769257D01*
X104378942Y-84708951D01*
X104500000Y-84628063D01*
X104621058Y-84708951D01*
X104766649Y-84769257D01*
X104921207Y-84800000D01*
X105078793Y-84800000D01*
X105233351Y-84769257D01*
X105378942Y-84708951D01*
X105500000Y-84628063D01*
X105621058Y-84708951D01*
X105766649Y-84769257D01*
X105921207Y-84800000D01*
X106078793Y-84800000D01*
X106233351Y-84769257D01*
X106378942Y-84708951D01*
X106509970Y-84621401D01*
X106621401Y-84509970D01*
X106708951Y-84378942D01*
X106769257Y-84233351D01*
X106800000Y-84078793D01*
X106800000Y-83921207D01*
X106769257Y-83766649D01*
X106708951Y-83621058D01*
X106628063Y-83500000D01*
X106708951Y-83378942D01*
X106769257Y-83233351D01*
X106800000Y-83078793D01*
X106800000Y-82921207D01*
X106769257Y-82766649D01*
X106708951Y-82621058D01*
X106628063Y-82500000D01*
X106708951Y-82378942D01*
X106769257Y-82233351D01*
X106800000Y-82078793D01*
X106800000Y-81921207D01*
X106769257Y-81766649D01*
X106708951Y-81621058D01*
X106628063Y-81500000D01*
X106708951Y-81378942D01*
X106769257Y-81233351D01*
X106800000Y-81078793D01*
X106800000Y-80921207D01*
X106769257Y-80766649D01*
X106708951Y-80621058D01*
X106628063Y-80500000D01*
X106708951Y-80378942D01*
X106769257Y-80233351D01*
X106800000Y-80078793D01*
X106800000Y-79921207D01*
X106769257Y-79766649D01*
X106708951Y-79621058D01*
X106628063Y-79500000D01*
X106708951Y-79378942D01*
X106769257Y-79233351D01*
X106800000Y-79078793D01*
X106800000Y-78921207D01*
X106769257Y-78766649D01*
X106708951Y-78621058D01*
X106628063Y-78500000D01*
X106708951Y-78378942D01*
X106769257Y-78233351D01*
X106800000Y-78078793D01*
X106800000Y-77921207D01*
X106769257Y-77766649D01*
X106708951Y-77621058D01*
X106628063Y-77500000D01*
X106708951Y-77378942D01*
X106769257Y-77233351D01*
X106800000Y-77078793D01*
X106800000Y-76921207D01*
X106769257Y-76766649D01*
X106708951Y-76621058D01*
X106628063Y-76500000D01*
X106708951Y-76378942D01*
X106769257Y-76233351D01*
X106800000Y-76078793D01*
X106800000Y-75921207D01*
X106769257Y-75766649D01*
X106708951Y-75621058D01*
X106628063Y-75500000D01*
X106708951Y-75378942D01*
X106769257Y-75233351D01*
X106800000Y-75078793D01*
X106800000Y-74921207D01*
X106769257Y-74766649D01*
X106708951Y-74621058D01*
X106628063Y-74500000D01*
X106708951Y-74378942D01*
X106769257Y-74233351D01*
X106800000Y-74078793D01*
X106800000Y-73921207D01*
X106769257Y-73766649D01*
X106708951Y-73621058D01*
X106628063Y-73500000D01*
X106708951Y-73378942D01*
X106769257Y-73233351D01*
X106800000Y-73078793D01*
X106800000Y-72921207D01*
X106769257Y-72766649D01*
X106708951Y-72621058D01*
X106628063Y-72500000D01*
X106708951Y-72378942D01*
X106769257Y-72233351D01*
X106800000Y-72078793D01*
X106800000Y-71921207D01*
X106769257Y-71766649D01*
X106708951Y-71621058D01*
X106628063Y-71500000D01*
X106708951Y-71378942D01*
X106769257Y-71233351D01*
X106782936Y-71164577D01*
X126034270Y-71164577D01*
X126034270Y-71666883D01*
X126132265Y-72159537D01*
X126324490Y-72623608D01*
X126603556Y-73041260D01*
X126958740Y-73396444D01*
X127376392Y-73675510D01*
X127840463Y-73867735D01*
X128333117Y-73965730D01*
X128835423Y-73965730D01*
X129328077Y-73867735D01*
X129792148Y-73675510D01*
X130209800Y-73396444D01*
X130564984Y-73041260D01*
X130844050Y-72623608D01*
X131036275Y-72159537D01*
X131134270Y-71666883D01*
X131134270Y-71164577D01*
X131036275Y-70671923D01*
X130844050Y-70207852D01*
X130564984Y-69790200D01*
X130209800Y-69435016D01*
X129792148Y-69155950D01*
X129328077Y-68963725D01*
X128835423Y-68865730D01*
X128333117Y-68865730D01*
X127840463Y-68963725D01*
X127376392Y-69155950D01*
X126958740Y-69435016D01*
X126603556Y-69790200D01*
X126324490Y-70207852D01*
X126132265Y-70671923D01*
X126034270Y-71164577D01*
X106782936Y-71164577D01*
X106800000Y-71078793D01*
X106800000Y-70921207D01*
X106769257Y-70766649D01*
X106708951Y-70621058D01*
X106621401Y-70490030D01*
X106515110Y-70383739D01*
X107283433Y-70230911D01*
X108084182Y-69899230D01*
X108804837Y-69417703D01*
X109417703Y-68804837D01*
X109899230Y-68084182D01*
X110230911Y-67283433D01*
X110400000Y-66433362D01*
X110400000Y-65566638D01*
X110230911Y-64716567D01*
X109899230Y-63915818D01*
X109417703Y-63195163D01*
X108804837Y-62582297D01*
X108084182Y-62100770D01*
X107283433Y-61769089D01*
X106433362Y-61600000D01*
X105566638Y-61600000D01*
X104716567Y-61769089D01*
X103915818Y-62100770D01*
X103195163Y-62582297D01*
X102582297Y-63195163D01*
X102100770Y-63915818D01*
X101769089Y-64716567D01*
X101600000Y-65566638D01*
X101600000Y-66433362D01*
X101769089Y-67283433D01*
X102100770Y-68084182D01*
X102582297Y-68804837D01*
X103195163Y-69417703D01*
X103915818Y-69899230D01*
X104716567Y-70230911D01*
X105484890Y-70383739D01*
X105378599Y-70490030D01*
X105291049Y-70621058D01*
X105230743Y-70766649D01*
X105200000Y-70921207D01*
X105200000Y-71078793D01*
X105230743Y-71233351D01*
X105291049Y-71378942D01*
X105371937Y-71500000D01*
X105291049Y-71621058D01*
X105230743Y-71766649D01*
X105200000Y-71921207D01*
X105200000Y-72078793D01*
X105230743Y-72233351D01*
X105291049Y-72378942D01*
X105371937Y-72500000D01*
X105291049Y-72621058D01*
X105230743Y-72766649D01*
X105200000Y-72921207D01*
X105200000Y-73078793D01*
X105230743Y-73233351D01*
X105291049Y-73378942D01*
X105371937Y-73500000D01*
X105291049Y-73621058D01*
X105230743Y-73766649D01*
X105200000Y-73921207D01*
X105200000Y-74078793D01*
X105230743Y-74233351D01*
X105291049Y-74378942D01*
X105371937Y-74500000D01*
X105291049Y-74621058D01*
X105230743Y-74766649D01*
X105200000Y-74921207D01*
X105200000Y-75078793D01*
X105230743Y-75233351D01*
X105291049Y-75378942D01*
X105371937Y-75500000D01*
X105291049Y-75621058D01*
X105230743Y-75766649D01*
X105200000Y-75921207D01*
X105200000Y-76078793D01*
X105230743Y-76233351D01*
X105291049Y-76378942D01*
X105371937Y-76500000D01*
X105291049Y-76621058D01*
X105230743Y-76766649D01*
X105200000Y-76921207D01*
X105200000Y-77078793D01*
X105230743Y-77233351D01*
X105291049Y-77378942D01*
X105371937Y-77500000D01*
X105291049Y-77621058D01*
X105230743Y-77766649D01*
X105200000Y-77921207D01*
X105200000Y-78078793D01*
X105230743Y-78233351D01*
X105291049Y-78378942D01*
X105371937Y-78500000D01*
X105291049Y-78621058D01*
X105230743Y-78766649D01*
X105200000Y-78921207D01*
X105200000Y-79078793D01*
X105230743Y-79233351D01*
X105291049Y-79378942D01*
X105371937Y-79500000D01*
X105291049Y-79621058D01*
X105230743Y-79766649D01*
X105200000Y-79921207D01*
X105200000Y-80078793D01*
X105230743Y-80233351D01*
X105291049Y-80378942D01*
X105371937Y-80500000D01*
X105291049Y-80621058D01*
X105230743Y-80766649D01*
X105200000Y-80921207D01*
X105200000Y-81078793D01*
X105230743Y-81233351D01*
X105291049Y-81378942D01*
X105371937Y-81500000D01*
X105291049Y-81621058D01*
X105230743Y-81766649D01*
X105200000Y-81921207D01*
X105200000Y-82078793D01*
X105230743Y-82233351D01*
X105291049Y-82378942D01*
X105371937Y-82500000D01*
X105291049Y-82621058D01*
X105230743Y-82766649D01*
X105200000Y-82921207D01*
X105200000Y-83078793D01*
X105230095Y-83230095D01*
X105078793Y-83200000D01*
X104921207Y-83200000D01*
X104766649Y-83230743D01*
X104621058Y-83291049D01*
X104500000Y-83371937D01*
X104378942Y-83291049D01*
X104233351Y-83230743D01*
X104078793Y-83200000D01*
X103921207Y-83200000D01*
X103766649Y-83230743D01*
X103621058Y-83291049D01*
X103500000Y-83371937D01*
X103378942Y-83291049D01*
X103233351Y-83230743D01*
X103078793Y-83200000D01*
X102921207Y-83200000D01*
X102766649Y-83230743D01*
X102621058Y-83291049D01*
X102500000Y-83371937D01*
X102378942Y-83291049D01*
X102233351Y-83230743D01*
X102078793Y-83200000D01*
X101921207Y-83200000D01*
X101766649Y-83230743D01*
X101621058Y-83291049D01*
X101500000Y-83371937D01*
X101378942Y-83291049D01*
X101233351Y-83230743D01*
X101078793Y-83200000D01*
X100921207Y-83200000D01*
X100766649Y-83230743D01*
X100621058Y-83291049D01*
X100490030Y-83378599D01*
X100378599Y-83490030D01*
X100291049Y-83621058D01*
X100230743Y-83766649D01*
X100200000Y-83921207D01*
X58516845Y-83921207D01*
X58645162Y-83568084D01*
X59692481Y-81144379D01*
X60881681Y-78787089D01*
X62208593Y-76504468D01*
X63668550Y-74304550D01*
X65256411Y-72195082D01*
X66132505Y-71164577D01*
X68865730Y-71164577D01*
X68865730Y-71666883D01*
X68963725Y-72159537D01*
X69155950Y-72623608D01*
X69435016Y-73041260D01*
X69790200Y-73396444D01*
X70207852Y-73675510D01*
X70671923Y-73867735D01*
X71164577Y-73965730D01*
X71666883Y-73965730D01*
X72159537Y-73867735D01*
X72623608Y-73675510D01*
X73041260Y-73396444D01*
X73396444Y-73041260D01*
X73675510Y-72623608D01*
X73867735Y-72159537D01*
X73965730Y-71666883D01*
X73965730Y-71164577D01*
X73867735Y-70671923D01*
X73675510Y-70207852D01*
X73396444Y-69790200D01*
X73041260Y-69435016D01*
X72623608Y-69155950D01*
X72159537Y-68963725D01*
X71666883Y-68865730D01*
X71164577Y-68865730D01*
X70671923Y-68963725D01*
X70207852Y-69155950D01*
X69790200Y-69435016D01*
X69435016Y-69790200D01*
X69155950Y-70207852D01*
X68963725Y-70671923D01*
X68865730Y-71164577D01*
X66132505Y-71164577D01*
X66966566Y-70183515D01*
X68793020Y-68276902D01*
X70729336Y-66481964D01*
X72768687Y-64805028D01*
X74903897Y-63251993D01*
X77127476Y-61828308D01*
X79431556Y-60539013D01*
X81808044Y-59388633D01*
X84248575Y-58381218D01*
X86744559Y-57520314D01*
X89287225Y-56808948D01*
X91867565Y-56249640D01*
X94476568Y-55844341D01*
X97104997Y-55594488D01*
X99743620Y-55500958D01*
X102383155Y-55564079D01*
%TA.AperFunction,Conductor*%
D17*
G36*
X102383155Y-55564079D02*
G01*
X105014276Y-55783629D01*
X107627773Y-56158837D01*
X110214398Y-56688378D01*
X112765088Y-57370397D01*
X115270831Y-58202485D01*
X117722802Y-59181711D01*
X120112394Y-60304634D01*
X122431177Y-61567295D01*
X124671004Y-62965260D01*
X126823984Y-64493601D01*
X128882511Y-66146921D01*
X130839391Y-67919439D01*
X132687682Y-69804869D01*
X134420909Y-71796605D01*
X136032964Y-73887628D01*
X137518175Y-76070582D01*
X138871292Y-78337749D01*
X140087587Y-80681205D01*
X141162754Y-83092660D01*
X142093014Y-85563634D01*
X142875090Y-88085423D01*
X143506232Y-90649160D01*
X143984218Y-93245814D01*
X144307364Y-95866250D01*
X144474534Y-98501239D01*
X144485137Y-101141498D01*
X144339137Y-103777749D01*
X144037047Y-106400698D01*
X143579938Y-109001082D01*
X142969405Y-111569818D01*
X142207604Y-114097824D01*
X141297222Y-116576186D01*
X140241460Y-118996195D01*
X139044039Y-121349322D01*
X137709152Y-123627322D01*
X136241531Y-125822120D01*
X134646323Y-127926023D01*
X132929140Y-129931625D01*
X131096059Y-131831832D01*
X129153486Y-133620005D01*
X127103673Y-135293586D01*
X126831732Y-135500000D01*
X122207106Y-135500000D01*
X120500000Y-133792895D01*
X120500000Y-128333117D01*
X126034270Y-128333117D01*
X126034270Y-128835423D01*
X126132265Y-129328077D01*
X126324490Y-129792148D01*
X126603556Y-130209800D01*
X126958740Y-130564984D01*
X127376392Y-130844050D01*
X127840463Y-131036275D01*
X128333117Y-131134270D01*
X128835423Y-131134270D01*
X129328077Y-131036275D01*
X129792148Y-130844050D01*
X130209800Y-130564984D01*
X130564984Y-130209800D01*
X130844050Y-129792148D01*
X131036275Y-129328077D01*
X131134270Y-128835423D01*
X131134270Y-128333117D01*
X131036275Y-127840463D01*
X130844050Y-127376392D01*
X130564984Y-126958740D01*
X130209800Y-126603556D01*
X129792148Y-126324490D01*
X129328077Y-126132265D01*
X128835423Y-126034270D01*
X128333117Y-126034270D01*
X127840463Y-126132265D01*
X127376392Y-126324490D01*
X126958740Y-126603556D01*
X126603556Y-126958740D01*
X126324490Y-127376392D01*
X126132265Y-127840463D01*
X126034270Y-128333117D01*
X120500000Y-128333117D01*
X120500000Y-127024560D01*
X120502419Y-127000000D01*
X120492765Y-126901983D01*
X120464175Y-126807733D01*
X120417746Y-126720871D01*
X120355264Y-126644736D01*
X120279129Y-126582254D01*
X120192267Y-126535825D01*
X120118057Y-126513314D01*
X120121401Y-126509970D01*
X120208951Y-126378942D01*
X120269257Y-126233351D01*
X120300000Y-126078793D01*
X120300000Y-125921207D01*
X121700000Y-125921207D01*
X121700000Y-126078793D01*
X121730743Y-126233351D01*
X121791049Y-126378942D01*
X121878599Y-126509970D01*
X121990030Y-126621401D01*
X122121058Y-126708951D01*
X122266649Y-126769257D01*
X122421207Y-126800000D01*
X122578793Y-126800000D01*
X122733351Y-126769257D01*
X122878942Y-126708951D01*
X123009970Y-126621401D01*
X123121401Y-126509970D01*
X123208951Y-126378942D01*
X123269257Y-126233351D01*
X123300000Y-126078793D01*
X123300000Y-125921207D01*
X123269257Y-125766649D01*
X123208951Y-125621058D01*
X123121401Y-125490030D01*
X123009970Y-125378599D01*
X122878942Y-125291049D01*
X122733351Y-125230743D01*
X122578793Y-125200000D01*
X122421207Y-125200000D01*
X122266649Y-125230743D01*
X122121058Y-125291049D01*
X121990030Y-125378599D01*
X121878599Y-125490030D01*
X121791049Y-125621058D01*
X121730743Y-125766649D01*
X121700000Y-125921207D01*
X120300000Y-125921207D01*
X120269257Y-125766649D01*
X120208951Y-125621058D01*
X120121401Y-125490030D01*
X120009970Y-125378599D01*
X119878942Y-125291049D01*
X119733351Y-125230743D01*
X119578793Y-125200000D01*
X119421207Y-125200000D01*
X119266649Y-125230743D01*
X119121058Y-125291049D01*
X118990030Y-125378599D01*
X118878599Y-125490030D01*
X118791049Y-125621058D01*
X118730743Y-125766649D01*
X118700000Y-125921207D01*
X118700000Y-126078793D01*
X118730743Y-126233351D01*
X118791049Y-126378942D01*
X118871937Y-126500000D01*
X117128063Y-126500000D01*
X117208951Y-126378942D01*
X117269257Y-126233351D01*
X117300000Y-126078793D01*
X117300000Y-125921207D01*
X117269257Y-125766649D01*
X117208951Y-125621058D01*
X117121401Y-125490030D01*
X117009970Y-125378599D01*
X116878942Y-125291049D01*
X116733351Y-125230743D01*
X116578793Y-125200000D01*
X116421207Y-125200000D01*
X116266649Y-125230743D01*
X116121058Y-125291049D01*
X115990030Y-125378599D01*
X115878599Y-125490030D01*
X115791049Y-125621058D01*
X115730743Y-125766649D01*
X115700000Y-125921207D01*
X115700000Y-126078793D01*
X115730743Y-126233351D01*
X115791049Y-126378942D01*
X115871937Y-126500000D01*
X114128063Y-126500000D01*
X114208951Y-126378942D01*
X114269257Y-126233351D01*
X114300000Y-126078793D01*
X114300000Y-125921207D01*
X114269257Y-125766649D01*
X114208951Y-125621058D01*
X114121401Y-125490030D01*
X114009970Y-125378599D01*
X113878942Y-125291049D01*
X113733351Y-125230743D01*
X113578793Y-125200000D01*
X113421207Y-125200000D01*
X113266649Y-125230743D01*
X113121058Y-125291049D01*
X112990030Y-125378599D01*
X112878599Y-125490030D01*
X112791049Y-125621058D01*
X112730743Y-125766649D01*
X112700000Y-125921207D01*
X112700000Y-126078793D01*
X112730743Y-126233351D01*
X112791049Y-126378942D01*
X112871937Y-126500000D01*
X110628063Y-126500000D01*
X110708951Y-126378942D01*
X110769257Y-126233351D01*
X110800000Y-126078793D01*
X110800000Y-125921207D01*
X110769257Y-125766649D01*
X110708951Y-125621058D01*
X110621401Y-125490030D01*
X110509970Y-125378599D01*
X110378942Y-125291049D01*
X110233351Y-125230743D01*
X110078793Y-125200000D01*
X109921207Y-125200000D01*
X109766649Y-125230743D01*
X109621058Y-125291049D01*
X109490030Y-125378599D01*
X109378599Y-125490030D01*
X109291049Y-125621058D01*
X109230743Y-125766649D01*
X109200000Y-125921207D01*
X109200000Y-126078793D01*
X109230743Y-126233351D01*
X109291049Y-126378942D01*
X109371937Y-126500000D01*
X107628063Y-126500000D01*
X107708951Y-126378942D01*
X107769257Y-126233351D01*
X107800000Y-126078793D01*
X107800000Y-125921207D01*
X107769257Y-125766649D01*
X107708951Y-125621058D01*
X107621401Y-125490030D01*
X107509970Y-125378599D01*
X107378942Y-125291049D01*
X107233351Y-125230743D01*
X107078793Y-125200000D01*
X106921207Y-125200000D01*
X106766649Y-125230743D01*
X106621058Y-125291049D01*
X106490030Y-125378599D01*
X106378599Y-125490030D01*
X106291049Y-125621058D01*
X106230743Y-125766649D01*
X106200000Y-125921207D01*
X106200000Y-126078793D01*
X106230743Y-126233351D01*
X106291049Y-126378942D01*
X106371937Y-126500000D01*
X104628063Y-126500000D01*
X104708951Y-126378942D01*
X104769257Y-126233351D01*
X104800000Y-126078793D01*
X104800000Y-125921207D01*
X104769257Y-125766649D01*
X104708951Y-125621058D01*
X104621401Y-125490030D01*
X104509970Y-125378599D01*
X104378942Y-125291049D01*
X104233351Y-125230743D01*
X104078793Y-125200000D01*
X103921207Y-125200000D01*
X103766649Y-125230743D01*
X103621058Y-125291049D01*
X103490030Y-125378599D01*
X103378599Y-125490030D01*
X103291049Y-125621058D01*
X103230743Y-125766649D01*
X103200000Y-125921207D01*
X103200000Y-126078793D01*
X103230743Y-126233351D01*
X103291049Y-126378942D01*
X103371937Y-126500000D01*
X101628063Y-126500000D01*
X101708951Y-126378942D01*
X101769257Y-126233351D01*
X101800000Y-126078793D01*
X101800000Y-125921207D01*
X101769257Y-125766649D01*
X101708951Y-125621058D01*
X101621401Y-125490030D01*
X101509970Y-125378599D01*
X101378942Y-125291049D01*
X101233351Y-125230743D01*
X101078793Y-125200000D01*
X100921207Y-125200000D01*
X100766649Y-125230743D01*
X100621058Y-125291049D01*
X100490030Y-125378599D01*
X100378599Y-125490030D01*
X100291049Y-125621058D01*
X100230743Y-125766649D01*
X100200000Y-125921207D01*
X100200000Y-126078793D01*
X100230743Y-126233351D01*
X100291049Y-126378942D01*
X100371937Y-126500000D01*
X98628063Y-126500000D01*
X98708951Y-126378942D01*
X98769257Y-126233351D01*
X98800000Y-126078793D01*
X98800000Y-125921207D01*
X98769257Y-125766649D01*
X98708951Y-125621058D01*
X98621401Y-125490030D01*
X98509970Y-125378599D01*
X98378942Y-125291049D01*
X98233351Y-125230743D01*
X98078793Y-125200000D01*
X97921207Y-125200000D01*
X97766649Y-125230743D01*
X97621058Y-125291049D01*
X97490030Y-125378599D01*
X97378599Y-125490030D01*
X97291049Y-125621058D01*
X97230743Y-125766649D01*
X97200000Y-125921207D01*
X97200000Y-126078793D01*
X97230743Y-126233351D01*
X97291049Y-126378942D01*
X97371937Y-126500000D01*
X91636098Y-126500000D01*
X91983433Y-126430911D01*
X92784182Y-126099230D01*
X93504837Y-125617703D01*
X94117703Y-125004837D01*
X94507672Y-124421207D01*
X95200000Y-124421207D01*
X95200000Y-124578793D01*
X95230743Y-124733351D01*
X95291049Y-124878942D01*
X95378599Y-125009970D01*
X95490030Y-125121401D01*
X95621058Y-125208951D01*
X95766649Y-125269257D01*
X95921207Y-125300000D01*
X96078793Y-125300000D01*
X96233351Y-125269257D01*
X96378942Y-125208951D01*
X96509970Y-125121401D01*
X96621401Y-125009970D01*
X96708951Y-124878942D01*
X96769257Y-124733351D01*
X96800000Y-124578793D01*
X96800000Y-124421207D01*
X98700000Y-124421207D01*
X98700000Y-124578793D01*
X98730743Y-124733351D01*
X98791049Y-124878942D01*
X98878599Y-125009970D01*
X98990030Y-125121401D01*
X99121058Y-125208951D01*
X99266649Y-125269257D01*
X99421207Y-125300000D01*
X99578793Y-125300000D01*
X99733351Y-125269257D01*
X99878942Y-125208951D01*
X100009970Y-125121401D01*
X100121401Y-125009970D01*
X100208951Y-124878942D01*
X100269257Y-124733351D01*
X100300000Y-124578793D01*
X100300000Y-124421207D01*
X101700000Y-124421207D01*
X101700000Y-124578793D01*
X101730743Y-124733351D01*
X101791049Y-124878942D01*
X101878599Y-125009970D01*
X101990030Y-125121401D01*
X102121058Y-125208951D01*
X102266649Y-125269257D01*
X102421207Y-125300000D01*
X102578793Y-125300000D01*
X102733351Y-125269257D01*
X102878942Y-125208951D01*
X103009970Y-125121401D01*
X103121401Y-125009970D01*
X103208951Y-124878942D01*
X103269257Y-124733351D01*
X103300000Y-124578793D01*
X103300000Y-124421207D01*
X104700000Y-124421207D01*
X104700000Y-124578793D01*
X104730743Y-124733351D01*
X104791049Y-124878942D01*
X104878599Y-125009970D01*
X104990030Y-125121401D01*
X105121058Y-125208951D01*
X105266649Y-125269257D01*
X105421207Y-125300000D01*
X105578793Y-125300000D01*
X105733351Y-125269257D01*
X105878942Y-125208951D01*
X106009970Y-125121401D01*
X106121401Y-125009970D01*
X106208951Y-124878942D01*
X106269257Y-124733351D01*
X106300000Y-124578793D01*
X106300000Y-124421207D01*
X107700000Y-124421207D01*
X107700000Y-124578793D01*
X107730743Y-124733351D01*
X107791049Y-124878942D01*
X107878599Y-125009970D01*
X107990030Y-125121401D01*
X108121058Y-125208951D01*
X108266649Y-125269257D01*
X108421207Y-125300000D01*
X108578793Y-125300000D01*
X108733351Y-125269257D01*
X108878942Y-125208951D01*
X109009970Y-125121401D01*
X109121401Y-125009970D01*
X109208951Y-124878942D01*
X109269257Y-124733351D01*
X109300000Y-124578793D01*
X109300000Y-124421207D01*
X110700000Y-124421207D01*
X110700000Y-124578793D01*
X110730743Y-124733351D01*
X110791049Y-124878942D01*
X110878599Y-125009970D01*
X110990030Y-125121401D01*
X111121058Y-125208951D01*
X111266649Y-125269257D01*
X111421207Y-125300000D01*
X111578793Y-125300000D01*
X111733351Y-125269257D01*
X111878942Y-125208951D01*
X112009970Y-125121401D01*
X112121401Y-125009970D01*
X112208951Y-124878942D01*
X112269257Y-124733351D01*
X112300000Y-124578793D01*
X112300000Y-124421207D01*
X114200000Y-124421207D01*
X114200000Y-124578793D01*
X114230743Y-124733351D01*
X114291049Y-124878942D01*
X114378599Y-125009970D01*
X114490030Y-125121401D01*
X114621058Y-125208951D01*
X114766649Y-125269257D01*
X114921207Y-125300000D01*
X115078793Y-125300000D01*
X115233351Y-125269257D01*
X115378942Y-125208951D01*
X115509970Y-125121401D01*
X115621401Y-125009970D01*
X115708951Y-124878942D01*
X115769257Y-124733351D01*
X115800000Y-124578793D01*
X115800000Y-124421207D01*
X117200000Y-124421207D01*
X117200000Y-124578793D01*
X117230743Y-124733351D01*
X117291049Y-124878942D01*
X117378599Y-125009970D01*
X117490030Y-125121401D01*
X117621058Y-125208951D01*
X117766649Y-125269257D01*
X117921207Y-125300000D01*
X118078793Y-125300000D01*
X118233351Y-125269257D01*
X118378942Y-125208951D01*
X118509970Y-125121401D01*
X118621401Y-125009970D01*
X118708951Y-124878942D01*
X118769257Y-124733351D01*
X118800000Y-124578793D01*
X118800000Y-124421207D01*
X120200000Y-124421207D01*
X120200000Y-124578793D01*
X120230743Y-124733351D01*
X120291049Y-124878942D01*
X120378599Y-125009970D01*
X120490030Y-125121401D01*
X120621058Y-125208951D01*
X120766649Y-125269257D01*
X120921207Y-125300000D01*
X121078793Y-125300000D01*
X121233351Y-125269257D01*
X121378942Y-125208951D01*
X121509970Y-125121401D01*
X121621401Y-125009970D01*
X121708951Y-124878942D01*
X121769257Y-124733351D01*
X121800000Y-124578793D01*
X121800000Y-124421207D01*
X121769257Y-124266649D01*
X121708951Y-124121058D01*
X121621401Y-123990030D01*
X121509970Y-123878599D01*
X121378942Y-123791049D01*
X121233351Y-123730743D01*
X121078793Y-123700000D01*
X120921207Y-123700000D01*
X120766649Y-123730743D01*
X120621058Y-123791049D01*
X120490030Y-123878599D01*
X120378599Y-123990030D01*
X120291049Y-124121058D01*
X120230743Y-124266649D01*
X120200000Y-124421207D01*
X118800000Y-124421207D01*
X118769257Y-124266649D01*
X118708951Y-124121058D01*
X118621401Y-123990030D01*
X118509970Y-123878599D01*
X118378942Y-123791049D01*
X118233351Y-123730743D01*
X118078793Y-123700000D01*
X117921207Y-123700000D01*
X117766649Y-123730743D01*
X117621058Y-123791049D01*
X117490030Y-123878599D01*
X117378599Y-123990030D01*
X117291049Y-124121058D01*
X117230743Y-124266649D01*
X117200000Y-124421207D01*
X115800000Y-124421207D01*
X115769257Y-124266649D01*
X115708951Y-124121058D01*
X115621401Y-123990030D01*
X115509970Y-123878599D01*
X115378942Y-123791049D01*
X115233351Y-123730743D01*
X115078793Y-123700000D01*
X114921207Y-123700000D01*
X114766649Y-123730743D01*
X114621058Y-123791049D01*
X114490030Y-123878599D01*
X114378599Y-123990030D01*
X114291049Y-124121058D01*
X114230743Y-124266649D01*
X114200000Y-124421207D01*
X112300000Y-124421207D01*
X112269257Y-124266649D01*
X112208951Y-124121058D01*
X112121401Y-123990030D01*
X112009970Y-123878599D01*
X111878942Y-123791049D01*
X111733351Y-123730743D01*
X111578793Y-123700000D01*
X111421207Y-123700000D01*
X111266649Y-123730743D01*
X111121058Y-123791049D01*
X110990030Y-123878599D01*
X110878599Y-123990030D01*
X110791049Y-124121058D01*
X110730743Y-124266649D01*
X110700000Y-124421207D01*
X109300000Y-124421207D01*
X109269257Y-124266649D01*
X109208951Y-124121058D01*
X109121401Y-123990030D01*
X109009970Y-123878599D01*
X108878942Y-123791049D01*
X108733351Y-123730743D01*
X108578793Y-123700000D01*
X108421207Y-123700000D01*
X108266649Y-123730743D01*
X108121058Y-123791049D01*
X107990030Y-123878599D01*
X107878599Y-123990030D01*
X107791049Y-124121058D01*
X107730743Y-124266649D01*
X107700000Y-124421207D01*
X106300000Y-124421207D01*
X106269257Y-124266649D01*
X106208951Y-124121058D01*
X106121401Y-123990030D01*
X106009970Y-123878599D01*
X105878942Y-123791049D01*
X105733351Y-123730743D01*
X105578793Y-123700000D01*
X105421207Y-123700000D01*
X105266649Y-123730743D01*
X105121058Y-123791049D01*
X104990030Y-123878599D01*
X104878599Y-123990030D01*
X104791049Y-124121058D01*
X104730743Y-124266649D01*
X104700000Y-124421207D01*
X103300000Y-124421207D01*
X103269257Y-124266649D01*
X103208951Y-124121058D01*
X103121401Y-123990030D01*
X103009970Y-123878599D01*
X102878942Y-123791049D01*
X102733351Y-123730743D01*
X102578793Y-123700000D01*
X102421207Y-123700000D01*
X102266649Y-123730743D01*
X102121058Y-123791049D01*
X101990030Y-123878599D01*
X101878599Y-123990030D01*
X101791049Y-124121058D01*
X101730743Y-124266649D01*
X101700000Y-124421207D01*
X100300000Y-124421207D01*
X100269257Y-124266649D01*
X100208951Y-124121058D01*
X100121401Y-123990030D01*
X100009970Y-123878599D01*
X99878942Y-123791049D01*
X99733351Y-123730743D01*
X99578793Y-123700000D01*
X99421207Y-123700000D01*
X99266649Y-123730743D01*
X99121058Y-123791049D01*
X98990030Y-123878599D01*
X98878599Y-123990030D01*
X98791049Y-124121058D01*
X98730743Y-124266649D01*
X98700000Y-124421207D01*
X96800000Y-124421207D01*
X96769257Y-124266649D01*
X96708951Y-124121058D01*
X96621401Y-123990030D01*
X96509970Y-123878599D01*
X96378942Y-123791049D01*
X96233351Y-123730743D01*
X96078793Y-123700000D01*
X95921207Y-123700000D01*
X95766649Y-123730743D01*
X95621058Y-123791049D01*
X95490030Y-123878599D01*
X95378599Y-123990030D01*
X95291049Y-124121058D01*
X95230743Y-124266649D01*
X95200000Y-124421207D01*
X94507672Y-124421207D01*
X94599230Y-124284182D01*
X94930911Y-123483433D01*
X95042744Y-122921207D01*
X97200000Y-122921207D01*
X97200000Y-123078793D01*
X97230743Y-123233351D01*
X97291049Y-123378942D01*
X97378599Y-123509970D01*
X97490030Y-123621401D01*
X97621058Y-123708951D01*
X97766649Y-123769257D01*
X97921207Y-123800000D01*
X98078793Y-123800000D01*
X98233351Y-123769257D01*
X98378942Y-123708951D01*
X98509970Y-123621401D01*
X98621401Y-123509970D01*
X98708951Y-123378942D01*
X98769257Y-123233351D01*
X98800000Y-123078793D01*
X98800000Y-122921207D01*
X100200000Y-122921207D01*
X100200000Y-123078793D01*
X100230743Y-123233351D01*
X100291049Y-123378942D01*
X100378599Y-123509970D01*
X100490030Y-123621401D01*
X100621058Y-123708951D01*
X100766649Y-123769257D01*
X100921207Y-123800000D01*
X101078793Y-123800000D01*
X101233351Y-123769257D01*
X101378942Y-123708951D01*
X101509970Y-123621401D01*
X101621401Y-123509970D01*
X101708951Y-123378942D01*
X101769257Y-123233351D01*
X101800000Y-123078793D01*
X101800000Y-122921207D01*
X103200000Y-122921207D01*
X103200000Y-123078793D01*
X103230743Y-123233351D01*
X103291049Y-123378942D01*
X103378599Y-123509970D01*
X103490030Y-123621401D01*
X103621058Y-123708951D01*
X103766649Y-123769257D01*
X103921207Y-123800000D01*
X104078793Y-123800000D01*
X104233351Y-123769257D01*
X104378942Y-123708951D01*
X104509970Y-123621401D01*
X104621401Y-123509970D01*
X104708951Y-123378942D01*
X104769257Y-123233351D01*
X104800000Y-123078793D01*
X104800000Y-122921207D01*
X106200000Y-122921207D01*
X106200000Y-123078793D01*
X106230743Y-123233351D01*
X106291049Y-123378942D01*
X106378599Y-123509970D01*
X106490030Y-123621401D01*
X106621058Y-123708951D01*
X106766649Y-123769257D01*
X106921207Y-123800000D01*
X107078793Y-123800000D01*
X107233351Y-123769257D01*
X107378942Y-123708951D01*
X107509970Y-123621401D01*
X107621401Y-123509970D01*
X107708951Y-123378942D01*
X107769257Y-123233351D01*
X107800000Y-123078793D01*
X107800000Y-122921207D01*
X109200000Y-122921207D01*
X109200000Y-123078793D01*
X109230743Y-123233351D01*
X109291049Y-123378942D01*
X109378599Y-123509970D01*
X109490030Y-123621401D01*
X109621058Y-123708951D01*
X109766649Y-123769257D01*
X109921207Y-123800000D01*
X110078793Y-123800000D01*
X110233351Y-123769257D01*
X110378942Y-123708951D01*
X110509970Y-123621401D01*
X110621401Y-123509970D01*
X110708951Y-123378942D01*
X110769257Y-123233351D01*
X110800000Y-123078793D01*
X110800000Y-122921207D01*
X112700000Y-122921207D01*
X112700000Y-123078793D01*
X112730743Y-123233351D01*
X112791049Y-123378942D01*
X112878599Y-123509970D01*
X112990030Y-123621401D01*
X113121058Y-123708951D01*
X113266649Y-123769257D01*
X113421207Y-123800000D01*
X113578793Y-123800000D01*
X113733351Y-123769257D01*
X113878942Y-123708951D01*
X114009970Y-123621401D01*
X114121401Y-123509970D01*
X114208951Y-123378942D01*
X114269257Y-123233351D01*
X114300000Y-123078793D01*
X114300000Y-122921207D01*
X121700000Y-122921207D01*
X121700000Y-123078793D01*
X121730743Y-123233351D01*
X121791049Y-123378942D01*
X121878599Y-123509970D01*
X121990030Y-123621401D01*
X122121058Y-123708951D01*
X122266649Y-123769257D01*
X122421207Y-123800000D01*
X122578793Y-123800000D01*
X122733351Y-123769257D01*
X122878942Y-123708951D01*
X123009970Y-123621401D01*
X123121401Y-123509970D01*
X123208951Y-123378942D01*
X123269257Y-123233351D01*
X123300000Y-123078793D01*
X123300000Y-122921207D01*
X123269257Y-122766649D01*
X123208951Y-122621058D01*
X123121401Y-122490030D01*
X123009970Y-122378599D01*
X122878942Y-122291049D01*
X122733351Y-122230743D01*
X122578793Y-122200000D01*
X122421207Y-122200000D01*
X122266649Y-122230743D01*
X122121058Y-122291049D01*
X121990030Y-122378599D01*
X121878599Y-122490030D01*
X121791049Y-122621058D01*
X121730743Y-122766649D01*
X121700000Y-122921207D01*
X114300000Y-122921207D01*
X114269257Y-122766649D01*
X114208951Y-122621058D01*
X114121401Y-122490030D01*
X114009970Y-122378599D01*
X113878942Y-122291049D01*
X113733351Y-122230743D01*
X113578793Y-122200000D01*
X113421207Y-122200000D01*
X113266649Y-122230743D01*
X113121058Y-122291049D01*
X112990030Y-122378599D01*
X112878599Y-122490030D01*
X112791049Y-122621058D01*
X112730743Y-122766649D01*
X112700000Y-122921207D01*
X110800000Y-122921207D01*
X110769257Y-122766649D01*
X110708951Y-122621058D01*
X110621401Y-122490030D01*
X110509970Y-122378599D01*
X110378942Y-122291049D01*
X110233351Y-122230743D01*
X110078793Y-122200000D01*
X109921207Y-122200000D01*
X109766649Y-122230743D01*
X109621058Y-122291049D01*
X109490030Y-122378599D01*
X109378599Y-122490030D01*
X109291049Y-122621058D01*
X109230743Y-122766649D01*
X109200000Y-122921207D01*
X107800000Y-122921207D01*
X107769257Y-122766649D01*
X107708951Y-122621058D01*
X107621401Y-122490030D01*
X107509970Y-122378599D01*
X107378942Y-122291049D01*
X107233351Y-122230743D01*
X107078793Y-122200000D01*
X106921207Y-122200000D01*
X106766649Y-122230743D01*
X106621058Y-122291049D01*
X106490030Y-122378599D01*
X106378599Y-122490030D01*
X106291049Y-122621058D01*
X106230743Y-122766649D01*
X106200000Y-122921207D01*
X104800000Y-122921207D01*
X104769257Y-122766649D01*
X104708951Y-122621058D01*
X104621401Y-122490030D01*
X104509970Y-122378599D01*
X104378942Y-122291049D01*
X104233351Y-122230743D01*
X104078793Y-122200000D01*
X103921207Y-122200000D01*
X103766649Y-122230743D01*
X103621058Y-122291049D01*
X103490030Y-122378599D01*
X103378599Y-122490030D01*
X103291049Y-122621058D01*
X103230743Y-122766649D01*
X103200000Y-122921207D01*
X101800000Y-122921207D01*
X101769257Y-122766649D01*
X101708951Y-122621058D01*
X101621401Y-122490030D01*
X101509970Y-122378599D01*
X101378942Y-122291049D01*
X101233351Y-122230743D01*
X101078793Y-122200000D01*
X100921207Y-122200000D01*
X100766649Y-122230743D01*
X100621058Y-122291049D01*
X100490030Y-122378599D01*
X100378599Y-122490030D01*
X100291049Y-122621058D01*
X100230743Y-122766649D01*
X100200000Y-122921207D01*
X98800000Y-122921207D01*
X98769257Y-122766649D01*
X98708951Y-122621058D01*
X98621401Y-122490030D01*
X98509970Y-122378599D01*
X98378942Y-122291049D01*
X98233351Y-122230743D01*
X98078793Y-122200000D01*
X97921207Y-122200000D01*
X97766649Y-122230743D01*
X97621058Y-122291049D01*
X97490030Y-122378599D01*
X97378599Y-122490030D01*
X97291049Y-122621058D01*
X97230743Y-122766649D01*
X97200000Y-122921207D01*
X95042744Y-122921207D01*
X95100000Y-122633362D01*
X95100000Y-121766638D01*
X94931834Y-120921207D01*
X95200000Y-120921207D01*
X95200000Y-121078793D01*
X95230743Y-121233351D01*
X95291049Y-121378942D01*
X95378599Y-121509970D01*
X95490030Y-121621401D01*
X95621058Y-121708951D01*
X95766649Y-121769257D01*
X95921207Y-121800000D01*
X96078793Y-121800000D01*
X96233351Y-121769257D01*
X96378942Y-121708951D01*
X96509970Y-121621401D01*
X96621401Y-121509970D01*
X96708951Y-121378942D01*
X96769257Y-121233351D01*
X96800000Y-121078793D01*
X96800000Y-120921207D01*
X98700000Y-120921207D01*
X98700000Y-121078793D01*
X98730743Y-121233351D01*
X98791049Y-121378942D01*
X98878599Y-121509970D01*
X98990030Y-121621401D01*
X99121058Y-121708951D01*
X99266649Y-121769257D01*
X99421207Y-121800000D01*
X99578793Y-121800000D01*
X99733351Y-121769257D01*
X99878942Y-121708951D01*
X100009970Y-121621401D01*
X100121401Y-121509970D01*
X100208951Y-121378942D01*
X100269257Y-121233351D01*
X100300000Y-121078793D01*
X100300000Y-120921207D01*
X101700000Y-120921207D01*
X101700000Y-121078793D01*
X101730743Y-121233351D01*
X101791049Y-121378942D01*
X101878599Y-121509970D01*
X101990030Y-121621401D01*
X102121058Y-121708951D01*
X102266649Y-121769257D01*
X102421207Y-121800000D01*
X102578793Y-121800000D01*
X102733351Y-121769257D01*
X102878942Y-121708951D01*
X103009970Y-121621401D01*
X103121401Y-121509970D01*
X103208951Y-121378942D01*
X103269257Y-121233351D01*
X103300000Y-121078793D01*
X103300000Y-120921207D01*
X104700000Y-120921207D01*
X104700000Y-121078793D01*
X104730743Y-121233351D01*
X104791049Y-121378942D01*
X104878599Y-121509970D01*
X104990030Y-121621401D01*
X105121058Y-121708951D01*
X105266649Y-121769257D01*
X105421207Y-121800000D01*
X105578793Y-121800000D01*
X105733351Y-121769257D01*
X105878942Y-121708951D01*
X106009970Y-121621401D01*
X106121401Y-121509970D01*
X106208951Y-121378942D01*
X106269257Y-121233351D01*
X106300000Y-121078793D01*
X106300000Y-120921207D01*
X106269257Y-120766649D01*
X106208951Y-120621058D01*
X106121401Y-120490030D01*
X106009970Y-120378599D01*
X105878942Y-120291049D01*
X105733351Y-120230743D01*
X105578793Y-120200000D01*
X105421207Y-120200000D01*
X105266649Y-120230743D01*
X105121058Y-120291049D01*
X104990030Y-120378599D01*
X104878599Y-120490030D01*
X104791049Y-120621058D01*
X104730743Y-120766649D01*
X104700000Y-120921207D01*
X103300000Y-120921207D01*
X103269257Y-120766649D01*
X103208951Y-120621058D01*
X103121401Y-120490030D01*
X103009970Y-120378599D01*
X102878942Y-120291049D01*
X102733351Y-120230743D01*
X102578793Y-120200000D01*
X102421207Y-120200000D01*
X102266649Y-120230743D01*
X102121058Y-120291049D01*
X101990030Y-120378599D01*
X101878599Y-120490030D01*
X101791049Y-120621058D01*
X101730743Y-120766649D01*
X101700000Y-120921207D01*
X100300000Y-120921207D01*
X100269257Y-120766649D01*
X100208951Y-120621058D01*
X100121401Y-120490030D01*
X100009970Y-120378599D01*
X99878942Y-120291049D01*
X99733351Y-120230743D01*
X99578793Y-120200000D01*
X99421207Y-120200000D01*
X99266649Y-120230743D01*
X99121058Y-120291049D01*
X98990030Y-120378599D01*
X98878599Y-120490030D01*
X98791049Y-120621058D01*
X98730743Y-120766649D01*
X98700000Y-120921207D01*
X96800000Y-120921207D01*
X96769257Y-120766649D01*
X96708951Y-120621058D01*
X96621401Y-120490030D01*
X96509970Y-120378599D01*
X96378942Y-120291049D01*
X96233351Y-120230743D01*
X96078793Y-120200000D01*
X95921207Y-120200000D01*
X95766649Y-120230743D01*
X95621058Y-120291049D01*
X95490030Y-120378599D01*
X95378599Y-120490030D01*
X95291049Y-120621058D01*
X95230743Y-120766649D01*
X95200000Y-120921207D01*
X94931834Y-120921207D01*
X94930911Y-120916567D01*
X94599230Y-120115818D01*
X94201924Y-119521207D01*
X97500000Y-119521207D01*
X97500000Y-119678793D01*
X97530743Y-119833351D01*
X97591049Y-119978942D01*
X97678599Y-120109970D01*
X97790030Y-120221401D01*
X97921058Y-120308951D01*
X98066649Y-120369257D01*
X98221207Y-120400000D01*
X98378793Y-120400000D01*
X98533351Y-120369257D01*
X98678942Y-120308951D01*
X98809970Y-120221401D01*
X98921401Y-120109970D01*
X99008951Y-119978942D01*
X99069257Y-119833351D01*
X99100000Y-119678793D01*
X99100000Y-119521207D01*
X99069257Y-119366649D01*
X99008951Y-119221058D01*
X98921401Y-119090030D01*
X98809970Y-118978599D01*
X98724077Y-118921207D01*
X100200000Y-118921207D01*
X100200000Y-119078793D01*
X100230743Y-119233351D01*
X100291049Y-119378942D01*
X100378599Y-119509970D01*
X100490030Y-119621401D01*
X100621058Y-119708951D01*
X100766649Y-119769257D01*
X100921207Y-119800000D01*
X101078793Y-119800000D01*
X101233351Y-119769257D01*
X101378942Y-119708951D01*
X101509970Y-119621401D01*
X101621401Y-119509970D01*
X101708951Y-119378942D01*
X101769257Y-119233351D01*
X101800000Y-119078793D01*
X101800000Y-118921207D01*
X101769257Y-118766649D01*
X101708951Y-118621058D01*
X101621401Y-118490030D01*
X101509970Y-118378599D01*
X101378942Y-118291049D01*
X101233351Y-118230743D01*
X101078793Y-118200000D01*
X100921207Y-118200000D01*
X100766649Y-118230743D01*
X100621058Y-118291049D01*
X100490030Y-118378599D01*
X100378599Y-118490030D01*
X100291049Y-118621058D01*
X100230743Y-118766649D01*
X100200000Y-118921207D01*
X98724077Y-118921207D01*
X98678942Y-118891049D01*
X98533351Y-118830743D01*
X98378793Y-118800000D01*
X98221207Y-118800000D01*
X98066649Y-118830743D01*
X97921058Y-118891049D01*
X97790030Y-118978599D01*
X97678599Y-119090030D01*
X97591049Y-119221058D01*
X97530743Y-119366649D01*
X97500000Y-119521207D01*
X94201924Y-119521207D01*
X94117703Y-119395163D01*
X93504837Y-118782297D01*
X92784182Y-118300770D01*
X91983433Y-117969089D01*
X91133362Y-117800000D01*
X90266638Y-117800000D01*
X89416567Y-117969089D01*
X88615818Y-118300770D01*
X87895163Y-118782297D01*
X87282297Y-119395163D01*
X86800770Y-120115818D01*
X86469089Y-120916567D01*
X86300000Y-121766638D01*
X86300000Y-122633362D01*
X86469089Y-123483433D01*
X86800770Y-124284182D01*
X87282297Y-125004837D01*
X87895163Y-125617703D01*
X88615818Y-126099230D01*
X89416567Y-126430911D01*
X89763902Y-126500000D01*
X80024560Y-126500000D01*
X80000000Y-126497581D01*
X79975440Y-126500000D01*
X79901983Y-126507235D01*
X79807733Y-126535825D01*
X79720871Y-126582254D01*
X79644736Y-126644736D01*
X79582254Y-126720871D01*
X79535825Y-126807733D01*
X79507235Y-126901983D01*
X79497581Y-127000000D01*
X79500000Y-127024560D01*
X79500001Y-133792893D01*
X77792895Y-135500000D01*
X73174948Y-135500000D01*
X71235833Y-133953692D01*
X69272791Y-132188028D01*
X67417915Y-130309046D01*
X65686287Y-128333117D01*
X68865730Y-128333117D01*
X68865730Y-128835423D01*
X68963725Y-129328077D01*
X69155950Y-129792148D01*
X69435016Y-130209800D01*
X69790200Y-130564984D01*
X70207852Y-130844050D01*
X70671923Y-131036275D01*
X71164577Y-131134270D01*
X71666883Y-131134270D01*
X72159537Y-131036275D01*
X72623608Y-130844050D01*
X73041260Y-130564984D01*
X73396444Y-130209800D01*
X73675510Y-129792148D01*
X73867735Y-129328077D01*
X73965730Y-128835423D01*
X73965730Y-128333117D01*
X73867735Y-127840463D01*
X73675510Y-127376392D01*
X73396444Y-126958740D01*
X73041260Y-126603556D01*
X72623608Y-126324490D01*
X72159537Y-126132265D01*
X71666883Y-126034270D01*
X71164577Y-126034270D01*
X70671923Y-126132265D01*
X70207852Y-126324490D01*
X69790200Y-126603556D01*
X69435016Y-126958740D01*
X69155950Y-127376392D01*
X68963725Y-127840463D01*
X68865730Y-128333117D01*
X65686287Y-128333117D01*
X65677752Y-128323379D01*
X64058407Y-126237995D01*
X62565590Y-124060246D01*
X61204558Y-121797803D01*
X59980091Y-119458606D01*
X58896514Y-117050923D01*
X58668806Y-116452422D01*
X82259710Y-116452422D01*
X82358613Y-116637988D01*
X82592948Y-116741250D01*
X82842925Y-116796812D01*
X83098939Y-116802538D01*
X83351150Y-116758208D01*
X83589867Y-116665526D01*
X83641387Y-116637988D01*
X83740290Y-116452422D01*
X83000000Y-115712132D01*
X82259710Y-116452422D01*
X58668806Y-116452422D01*
X58344085Y-115598939D01*
X81697462Y-115598939D01*
X81741792Y-115851150D01*
X81834474Y-116089867D01*
X81862012Y-116141387D01*
X82047578Y-116240290D01*
X82787868Y-115500000D01*
X83212132Y-115500000D01*
X83952422Y-116240290D01*
X84137988Y-116141387D01*
X84241250Y-115907052D01*
X84296812Y-115657075D01*
X84302538Y-115401061D01*
X84297424Y-115371961D01*
X85200000Y-115371961D01*
X85200000Y-115628039D01*
X85249958Y-115879196D01*
X85347955Y-116115781D01*
X85490224Y-116328702D01*
X85671298Y-116509776D01*
X85884219Y-116652045D01*
X86120804Y-116750042D01*
X86371961Y-116800000D01*
X86628039Y-116800000D01*
X86879196Y-116750042D01*
X87115781Y-116652045D01*
X87328702Y-116509776D01*
X87509776Y-116328702D01*
X87652045Y-116115781D01*
X87687139Y-116031056D01*
X109435000Y-116031056D01*
X109435000Y-116168944D01*
X109461901Y-116304182D01*
X109514668Y-116431574D01*
X109591274Y-116546224D01*
X109688776Y-116643726D01*
X109803426Y-116720332D01*
X109930818Y-116773099D01*
X110066056Y-116800000D01*
X110203944Y-116800000D01*
X110339182Y-116773099D01*
X110466574Y-116720332D01*
X110581224Y-116643726D01*
X110678726Y-116546224D01*
X110755332Y-116431574D01*
X110808099Y-116304182D01*
X110835000Y-116168944D01*
X110835000Y-116031056D01*
X110808099Y-115895818D01*
X110755332Y-115768426D01*
X110678726Y-115653776D01*
X110581224Y-115556274D01*
X110466574Y-115479668D01*
X110339182Y-115426901D01*
X110203944Y-115400000D01*
X110066056Y-115400000D01*
X109930818Y-115426901D01*
X109803426Y-115479668D01*
X109688776Y-115556274D01*
X109591274Y-115653776D01*
X109514668Y-115768426D01*
X109461901Y-115895818D01*
X109435000Y-116031056D01*
X87687139Y-116031056D01*
X87750042Y-115879196D01*
X87800000Y-115628039D01*
X87800000Y-115371961D01*
X87750042Y-115120804D01*
X87652045Y-114884219D01*
X87509776Y-114671298D01*
X87328702Y-114490224D01*
X87115781Y-114347955D01*
X86879196Y-114249958D01*
X86784169Y-114231056D01*
X114300000Y-114231056D01*
X114300000Y-114368944D01*
X114326901Y-114504182D01*
X114379668Y-114631574D01*
X114456274Y-114746224D01*
X114553776Y-114843726D01*
X114668426Y-114920332D01*
X114795818Y-114973099D01*
X114931056Y-115000000D01*
X115068944Y-115000000D01*
X115204182Y-114973099D01*
X115331574Y-114920332D01*
X115446224Y-114843726D01*
X115543726Y-114746224D01*
X115620332Y-114631574D01*
X115673099Y-114504182D01*
X115700000Y-114368944D01*
X115700000Y-114231056D01*
X115673099Y-114095818D01*
X115620332Y-113968426D01*
X115543726Y-113853776D01*
X115446224Y-113756274D01*
X115331574Y-113679668D01*
X115204182Y-113626901D01*
X115068944Y-113600000D01*
X114931056Y-113600000D01*
X114795818Y-113626901D01*
X114668426Y-113679668D01*
X114553776Y-113756274D01*
X114456274Y-113853776D01*
X114379668Y-113968426D01*
X114326901Y-114095818D01*
X114300000Y-114231056D01*
X86784169Y-114231056D01*
X86628039Y-114200000D01*
X86371961Y-114200000D01*
X86120804Y-114249958D01*
X85884219Y-114347955D01*
X85671298Y-114490224D01*
X85490224Y-114671298D01*
X85347955Y-114884219D01*
X85249958Y-115120804D01*
X85200000Y-115371961D01*
X84297424Y-115371961D01*
X84258208Y-115148850D01*
X84165526Y-114910133D01*
X84137988Y-114858613D01*
X83952422Y-114759710D01*
X83212132Y-115500000D01*
X82787868Y-115500000D01*
X82047578Y-114759710D01*
X81862012Y-114858613D01*
X81758750Y-115092948D01*
X81703188Y-115342925D01*
X81697462Y-115598939D01*
X58344085Y-115598939D01*
X57957636Y-114583214D01*
X57946448Y-114547578D01*
X82259710Y-114547578D01*
X83000000Y-115287868D01*
X83740290Y-114547578D01*
X83641387Y-114362012D01*
X83407052Y-114258750D01*
X83157075Y-114203188D01*
X82901061Y-114197462D01*
X82648850Y-114241792D01*
X82410133Y-114334474D01*
X82358613Y-114362012D01*
X82259710Y-114547578D01*
X57946448Y-114547578D01*
X57166758Y-112064155D01*
X56526672Y-109502645D01*
X56039625Y-106907672D01*
X55707335Y-104288389D01*
X55530969Y-101654005D01*
X55511149Y-99013783D01*
X55511864Y-99000000D01*
X83892000Y-99000000D01*
X83892000Y-108000000D01*
X83897201Y-108079359D01*
X83914238Y-108208769D01*
X83955318Y-108362081D01*
X84005268Y-108482671D01*
X84084630Y-108620130D01*
X84164090Y-108723683D01*
X84276317Y-108835910D01*
X84379870Y-108915370D01*
X84517329Y-108994732D01*
X84637919Y-109044682D01*
X84791231Y-109085762D01*
X84920641Y-109102799D01*
X85000000Y-109108000D01*
X97426024Y-109108000D01*
X97353776Y-109156274D01*
X97256274Y-109253776D01*
X97179668Y-109368426D01*
X97126901Y-109495818D01*
X97100000Y-109631056D01*
X97100000Y-109768944D01*
X97126901Y-109904182D01*
X97179668Y-110031574D01*
X97256274Y-110146224D01*
X97353776Y-110243726D01*
X97468426Y-110320332D01*
X97595818Y-110373099D01*
X97731056Y-110400000D01*
X97868944Y-110400000D01*
X98004182Y-110373099D01*
X98131574Y-110320332D01*
X98246224Y-110243726D01*
X98343726Y-110146224D01*
X98420332Y-110031574D01*
X98461967Y-109931056D01*
X106200000Y-109931056D01*
X106200000Y-110068944D01*
X106226901Y-110204182D01*
X106279668Y-110331574D01*
X106356274Y-110446224D01*
X106453776Y-110543726D01*
X106568426Y-110620332D01*
X106695818Y-110673099D01*
X106831056Y-110700000D01*
X106968944Y-110700000D01*
X107104182Y-110673099D01*
X107231574Y-110620332D01*
X107346224Y-110543726D01*
X107443726Y-110446224D01*
X107520332Y-110331574D01*
X107573099Y-110204182D01*
X107600000Y-110068944D01*
X107600000Y-109931056D01*
X107573099Y-109795818D01*
X107520332Y-109668426D01*
X107443726Y-109553776D01*
X107346224Y-109456274D01*
X107231574Y-109379668D01*
X107104182Y-109326901D01*
X106968944Y-109300000D01*
X106831056Y-109300000D01*
X106695818Y-109326901D01*
X106568426Y-109379668D01*
X106453776Y-109456274D01*
X106356274Y-109553776D01*
X106279668Y-109668426D01*
X106226901Y-109795818D01*
X106200000Y-109931056D01*
X98461967Y-109931056D01*
X98473099Y-109904182D01*
X98500000Y-109768944D01*
X98500000Y-109631056D01*
X98473099Y-109495818D01*
X98420332Y-109368426D01*
X98343726Y-109253776D01*
X98246224Y-109156274D01*
X98173976Y-109108000D01*
X103100000Y-109108000D01*
X103179359Y-109102799D01*
X103308769Y-109085762D01*
X103462081Y-109044682D01*
X103582671Y-108994732D01*
X103720130Y-108915370D01*
X103823683Y-108835910D01*
X103935910Y-108723683D01*
X104015370Y-108620130D01*
X104094732Y-108482671D01*
X104144682Y-108362081D01*
X104185762Y-108208769D01*
X104202799Y-108079359D01*
X104208000Y-108000000D01*
X104208000Y-107031056D01*
X109400000Y-107031056D01*
X109400000Y-107168944D01*
X109426901Y-107304182D01*
X109479668Y-107431574D01*
X109556274Y-107546224D01*
X109653776Y-107643726D01*
X109768426Y-107720332D01*
X109895818Y-107773099D01*
X110031056Y-107800000D01*
X110168944Y-107800000D01*
X110304182Y-107773099D01*
X110431574Y-107720332D01*
X110546224Y-107643726D01*
X110643726Y-107546224D01*
X110720332Y-107431574D01*
X110734700Y-107396886D01*
X121350000Y-107396886D01*
X121350000Y-107643114D01*
X121398037Y-107884611D01*
X121492265Y-108112097D01*
X121629062Y-108316828D01*
X121803172Y-108490938D01*
X122007903Y-108627735D01*
X122235389Y-108721963D01*
X122476886Y-108770000D01*
X122723114Y-108770000D01*
X122964611Y-108721963D01*
X123192097Y-108627735D01*
X123396828Y-108490938D01*
X123570938Y-108316828D01*
X123707735Y-108112097D01*
X123801963Y-107884611D01*
X123850000Y-107643114D01*
X123850000Y-107396886D01*
X123801963Y-107155389D01*
X123707735Y-106927903D01*
X123570938Y-106723172D01*
X123396828Y-106549062D01*
X123192097Y-106412265D01*
X122964611Y-106318037D01*
X122723114Y-106270000D01*
X122476886Y-106270000D01*
X122235389Y-106318037D01*
X122007903Y-106412265D01*
X121803172Y-106549062D01*
X121629062Y-106723172D01*
X121492265Y-106927903D01*
X121398037Y-107155389D01*
X121350000Y-107396886D01*
X110734700Y-107396886D01*
X110773099Y-107304182D01*
X110800000Y-107168944D01*
X110800000Y-107031056D01*
X110773099Y-106895818D01*
X110720332Y-106768426D01*
X110643726Y-106653776D01*
X110546224Y-106556274D01*
X110431574Y-106479668D01*
X110304182Y-106426901D01*
X110168944Y-106400000D01*
X110031056Y-106400000D01*
X109895818Y-106426901D01*
X109768426Y-106479668D01*
X109653776Y-106556274D01*
X109556274Y-106653776D01*
X109479668Y-106768426D01*
X109426901Y-106895818D01*
X109400000Y-107031056D01*
X104208000Y-107031056D01*
X104208000Y-106121207D01*
X119200000Y-106121207D01*
X119200000Y-106278793D01*
X119230743Y-106433351D01*
X119291049Y-106578942D01*
X119378599Y-106709970D01*
X119490030Y-106821401D01*
X119621058Y-106908951D01*
X119766649Y-106969257D01*
X119921207Y-107000000D01*
X120078793Y-107000000D01*
X120233351Y-106969257D01*
X120378942Y-106908951D01*
X120509970Y-106821401D01*
X120621401Y-106709970D01*
X120708951Y-106578942D01*
X120769257Y-106433351D01*
X120800000Y-106278793D01*
X120800000Y-106121207D01*
X120769257Y-105966649D01*
X120708951Y-105821058D01*
X120621401Y-105690030D01*
X120509970Y-105578599D01*
X120378942Y-105491049D01*
X120233351Y-105430743D01*
X120078793Y-105400000D01*
X119921207Y-105400000D01*
X119766649Y-105430743D01*
X119621058Y-105491049D01*
X119490030Y-105578599D01*
X119378599Y-105690030D01*
X119291049Y-105821058D01*
X119230743Y-105966649D01*
X119200000Y-106121207D01*
X104208000Y-106121207D01*
X104208000Y-105331056D01*
X110600000Y-105331056D01*
X110600000Y-105468944D01*
X110626901Y-105604182D01*
X110679668Y-105731574D01*
X110756274Y-105846224D01*
X110853776Y-105943726D01*
X110968426Y-106020332D01*
X111095818Y-106073099D01*
X111231056Y-106100000D01*
X111368944Y-106100000D01*
X111504182Y-106073099D01*
X111631574Y-106020332D01*
X111746224Y-105943726D01*
X111843726Y-105846224D01*
X111920332Y-105731574D01*
X111973099Y-105604182D01*
X112000000Y-105468944D01*
X112000000Y-105331056D01*
X111998255Y-105322283D01*
X121397777Y-105322283D01*
X121410220Y-105363325D01*
X121507864Y-105588074D01*
X121647478Y-105789455D01*
X121823697Y-105959729D01*
X122029749Y-106092353D01*
X122257716Y-106182230D01*
X122450000Y-106120974D01*
X122450000Y-105130000D01*
X122750000Y-105130000D01*
X122750000Y-106120974D01*
X122942284Y-106182230D01*
X123170251Y-106092353D01*
X123376303Y-105959729D01*
X123552522Y-105789455D01*
X123692136Y-105588074D01*
X123789780Y-105363325D01*
X123802223Y-105322283D01*
X123740175Y-105130000D01*
X122750000Y-105130000D01*
X122450000Y-105130000D01*
X121459825Y-105130000D01*
X121397777Y-105322283D01*
X111998255Y-105322283D01*
X111973099Y-105195818D01*
X111920332Y-105068426D01*
X111843726Y-104953776D01*
X111746224Y-104856274D01*
X111631574Y-104779668D01*
X111504182Y-104726901D01*
X111368944Y-104700000D01*
X111231056Y-104700000D01*
X111095818Y-104726901D01*
X110968426Y-104779668D01*
X110853776Y-104856274D01*
X110756274Y-104953776D01*
X110679668Y-105068426D01*
X110626901Y-105195818D01*
X110600000Y-105331056D01*
X104208000Y-105331056D01*
X104208000Y-104637717D01*
X121397777Y-104637717D01*
X121459825Y-104830000D01*
X122450000Y-104830000D01*
X122450000Y-103839026D01*
X122750000Y-103839026D01*
X122750000Y-104830000D01*
X123740175Y-104830000D01*
X123802223Y-104637717D01*
X123789780Y-104596675D01*
X123692136Y-104371926D01*
X123552522Y-104170545D01*
X123376303Y-104000271D01*
X123170251Y-103867647D01*
X122942284Y-103777770D01*
X122750000Y-103839026D01*
X122450000Y-103839026D01*
X122257716Y-103777770D01*
X122029749Y-103867647D01*
X121823697Y-104000271D01*
X121647478Y-104170545D01*
X121507864Y-104371926D01*
X121410220Y-104596675D01*
X121397777Y-104637717D01*
X104208000Y-104637717D01*
X104208000Y-104600000D01*
X104202799Y-104520641D01*
X104185762Y-104391231D01*
X104144682Y-104237919D01*
X104094732Y-104117329D01*
X104015370Y-103979870D01*
X103935910Y-103876317D01*
X103823683Y-103764090D01*
X103720130Y-103684630D01*
X103582671Y-103605268D01*
X103462081Y-103555318D01*
X103308769Y-103514238D01*
X103179359Y-103497201D01*
X103100000Y-103492000D01*
X98622717Y-103492000D01*
X98621401Y-103490030D01*
X98509970Y-103378599D01*
X98378942Y-103291049D01*
X98233351Y-103230743D01*
X98108000Y-103205810D01*
X98108000Y-102895414D01*
X98131056Y-102900000D01*
X98268944Y-102900000D01*
X98404182Y-102873099D01*
X98531574Y-102820332D01*
X98588518Y-102782283D01*
X121397777Y-102782283D01*
X121410220Y-102823325D01*
X121507864Y-103048074D01*
X121647478Y-103249455D01*
X121823697Y-103419729D01*
X122029749Y-103552353D01*
X122257716Y-103642230D01*
X122450000Y-103580974D01*
X122450000Y-102590000D01*
X122750000Y-102590000D01*
X122750000Y-103580974D01*
X122942284Y-103642230D01*
X123170251Y-103552353D01*
X123376303Y-103419729D01*
X123552522Y-103249455D01*
X123692136Y-103048074D01*
X123789780Y-102823325D01*
X123802223Y-102782283D01*
X123740175Y-102590000D01*
X122750000Y-102590000D01*
X122450000Y-102590000D01*
X121459825Y-102590000D01*
X121397777Y-102782283D01*
X98588518Y-102782283D01*
X98646224Y-102743726D01*
X98743726Y-102646224D01*
X98820332Y-102531574D01*
X98873099Y-102404182D01*
X98900000Y-102268944D01*
X98900000Y-102131056D01*
X98893369Y-102097717D01*
X121397777Y-102097717D01*
X121459825Y-102290000D01*
X122450000Y-102290000D01*
X122450000Y-101299026D01*
X122750000Y-101299026D01*
X122750000Y-102290000D01*
X123740175Y-102290000D01*
X123802223Y-102097717D01*
X123789780Y-102056675D01*
X123692136Y-101831926D01*
X123552522Y-101630545D01*
X123376303Y-101460271D01*
X123170251Y-101327647D01*
X122942284Y-101237770D01*
X122750000Y-101299026D01*
X122450000Y-101299026D01*
X122257716Y-101237770D01*
X122029749Y-101327647D01*
X121823697Y-101460271D01*
X121647478Y-101630545D01*
X121507864Y-101831926D01*
X121410220Y-102056675D01*
X121397777Y-102097717D01*
X98893369Y-102097717D01*
X98873099Y-101995818D01*
X98820332Y-101868426D01*
X98743726Y-101753776D01*
X98646224Y-101656274D01*
X98531574Y-101579668D01*
X98404182Y-101526901D01*
X98268944Y-101500000D01*
X98131056Y-101500000D01*
X98108000Y-101504586D01*
X98108000Y-100700000D01*
X98178793Y-100700000D01*
X98333351Y-100669257D01*
X98478942Y-100608951D01*
X98609970Y-100521401D01*
X98721401Y-100409970D01*
X98808951Y-100278942D01*
X98869257Y-100133351D01*
X98900000Y-99978793D01*
X98900000Y-99821207D01*
X98869905Y-99669905D01*
X99021207Y-99700000D01*
X99178793Y-99700000D01*
X99330095Y-99669905D01*
X99300000Y-99821207D01*
X99300000Y-99978793D01*
X99330743Y-100133351D01*
X99391049Y-100278942D01*
X99478599Y-100409970D01*
X99590030Y-100521401D01*
X99721058Y-100608951D01*
X99866649Y-100669257D01*
X100021207Y-100700000D01*
X100178793Y-100700000D01*
X100330095Y-100669905D01*
X100300000Y-100821207D01*
X100300000Y-100978793D01*
X100330743Y-101133351D01*
X100391049Y-101278942D01*
X100478599Y-101409970D01*
X100590030Y-101521401D01*
X100721058Y-101608951D01*
X100866649Y-101669257D01*
X101021207Y-101700000D01*
X101178793Y-101700000D01*
X101333351Y-101669257D01*
X101478942Y-101608951D01*
X101609970Y-101521401D01*
X101721401Y-101409970D01*
X101808951Y-101278942D01*
X101869257Y-101133351D01*
X101900000Y-100978793D01*
X101900000Y-100821207D01*
X101869905Y-100669905D01*
X102021207Y-100700000D01*
X102178793Y-100700000D01*
X102330095Y-100669905D01*
X102300000Y-100821207D01*
X102300000Y-100978793D01*
X102330743Y-101133351D01*
X102391049Y-101278942D01*
X102478599Y-101409970D01*
X102590030Y-101521401D01*
X102721058Y-101608951D01*
X102866649Y-101669257D01*
X103021207Y-101700000D01*
X103178793Y-101700000D01*
X103333351Y-101669257D01*
X103478942Y-101608951D01*
X103609970Y-101521401D01*
X103721401Y-101409970D01*
X103808951Y-101278942D01*
X103869257Y-101133351D01*
X103900000Y-100978793D01*
X103900000Y-100821207D01*
X103869905Y-100669905D01*
X104021207Y-100700000D01*
X104178793Y-100700000D01*
X104330095Y-100669905D01*
X104300000Y-100821207D01*
X104300000Y-100978793D01*
X104330743Y-101133351D01*
X104391049Y-101278942D01*
X104478599Y-101409970D01*
X104590030Y-101521401D01*
X104721058Y-101608951D01*
X104866649Y-101669257D01*
X105021207Y-101700000D01*
X105178793Y-101700000D01*
X105333351Y-101669257D01*
X105478942Y-101608951D01*
X105609970Y-101521401D01*
X105721401Y-101409970D01*
X105808951Y-101278942D01*
X105869257Y-101133351D01*
X105900000Y-100978793D01*
X105900000Y-100821207D01*
X105869257Y-100666649D01*
X105808951Y-100521058D01*
X105721401Y-100390030D01*
X105609970Y-100278599D01*
X105478942Y-100191049D01*
X105333351Y-100130743D01*
X105178793Y-100100000D01*
X105021207Y-100100000D01*
X104869905Y-100130095D01*
X104900000Y-99978793D01*
X104900000Y-99821207D01*
X104869905Y-99669905D01*
X105021207Y-99700000D01*
X105178793Y-99700000D01*
X105333351Y-99669257D01*
X105478942Y-99608951D01*
X105609970Y-99521401D01*
X105721401Y-99409970D01*
X105808951Y-99278942D01*
X105869257Y-99133351D01*
X105885836Y-99050000D01*
X121348065Y-99050000D01*
X121348065Y-100750000D01*
X121355788Y-100828414D01*
X121378660Y-100903814D01*
X121415803Y-100973303D01*
X121465789Y-101034211D01*
X121526697Y-101084197D01*
X121596186Y-101121340D01*
X121671586Y-101144212D01*
X121750000Y-101151935D01*
X123450000Y-101151935D01*
X123528414Y-101144212D01*
X123603814Y-101121340D01*
X123673303Y-101084197D01*
X123734211Y-101034211D01*
X123784197Y-100973303D01*
X123821340Y-100903814D01*
X123844212Y-100828414D01*
X123851935Y-100750000D01*
X123851935Y-99050000D01*
X123844212Y-98971586D01*
X123821340Y-98896186D01*
X123784197Y-98826697D01*
X123734211Y-98765789D01*
X123673303Y-98715803D01*
X123603814Y-98678660D01*
X123528414Y-98655788D01*
X123450000Y-98648065D01*
X121750000Y-98648065D01*
X121671586Y-98655788D01*
X121596186Y-98678660D01*
X121526697Y-98715803D01*
X121465789Y-98765789D01*
X121415803Y-98826697D01*
X121378660Y-98896186D01*
X121355788Y-98971586D01*
X121348065Y-99050000D01*
X105885836Y-99050000D01*
X105900000Y-98978793D01*
X105900000Y-98821207D01*
X105869257Y-98666649D01*
X105808951Y-98521058D01*
X105721401Y-98390030D01*
X105609970Y-98278599D01*
X105478942Y-98191049D01*
X105333351Y-98130743D01*
X105178793Y-98100000D01*
X105021207Y-98100000D01*
X104866649Y-98130743D01*
X104721058Y-98191049D01*
X104590030Y-98278599D01*
X104478599Y-98390030D01*
X104391049Y-98521058D01*
X104330743Y-98666649D01*
X104300000Y-98821207D01*
X104300000Y-98978793D01*
X104330095Y-99130095D01*
X104178793Y-99100000D01*
X104021207Y-99100000D01*
X103869905Y-99130095D01*
X103900000Y-98978793D01*
X103900000Y-98821207D01*
X103869257Y-98666649D01*
X103808951Y-98521058D01*
X103721401Y-98390030D01*
X103609970Y-98278599D01*
X103478942Y-98191049D01*
X103333351Y-98130743D01*
X103178793Y-98100000D01*
X103021207Y-98100000D01*
X102866649Y-98130743D01*
X102721058Y-98191049D01*
X102590030Y-98278599D01*
X102478599Y-98390030D01*
X102391049Y-98521058D01*
X102330743Y-98666649D01*
X102300000Y-98821207D01*
X102300000Y-98978793D01*
X102330095Y-99130095D01*
X102178793Y-99100000D01*
X102021207Y-99100000D01*
X101869905Y-99130095D01*
X101900000Y-98978793D01*
X101900000Y-98821207D01*
X101869257Y-98666649D01*
X101808951Y-98521058D01*
X101721401Y-98390030D01*
X101609970Y-98278599D01*
X101478942Y-98191049D01*
X101333351Y-98130743D01*
X101178793Y-98100000D01*
X101021207Y-98100000D01*
X100866649Y-98130743D01*
X100721058Y-98191049D01*
X100590030Y-98278599D01*
X100478599Y-98390030D01*
X100391049Y-98521058D01*
X100330743Y-98666649D01*
X100300000Y-98821207D01*
X100300000Y-98978793D01*
X100330095Y-99130095D01*
X100178793Y-99100000D01*
X100021207Y-99100000D01*
X99869905Y-99130095D01*
X99900000Y-98978793D01*
X99900000Y-98821207D01*
X99869257Y-98666649D01*
X99808951Y-98521058D01*
X99721401Y-98390030D01*
X99609970Y-98278599D01*
X99478942Y-98191049D01*
X99333351Y-98130743D01*
X99178793Y-98100000D01*
X99021207Y-98100000D01*
X98866649Y-98130743D01*
X98721058Y-98191049D01*
X98590030Y-98278599D01*
X98478599Y-98390030D01*
X98391049Y-98521058D01*
X98330743Y-98666649D01*
X98300000Y-98821207D01*
X98300000Y-98978793D01*
X98330095Y-99130095D01*
X98178793Y-99100000D01*
X98108000Y-99100000D01*
X98108000Y-99000000D01*
X98102799Y-98920641D01*
X98085762Y-98791231D01*
X98044682Y-98637919D01*
X97994732Y-98517329D01*
X97915370Y-98379870D01*
X97835910Y-98276317D01*
X97723683Y-98164090D01*
X97620130Y-98084630D01*
X97482671Y-98005268D01*
X97362081Y-97955318D01*
X97271535Y-97931056D01*
X112100000Y-97931056D01*
X112100000Y-98068944D01*
X112126901Y-98204182D01*
X112179668Y-98331574D01*
X112256274Y-98446224D01*
X112353776Y-98543726D01*
X112468426Y-98620332D01*
X112595818Y-98673099D01*
X112731056Y-98700000D01*
X112868944Y-98700000D01*
X113004182Y-98673099D01*
X113131574Y-98620332D01*
X113246224Y-98543726D01*
X113343726Y-98446224D01*
X113400000Y-98362003D01*
X113456274Y-98446224D01*
X113553776Y-98543726D01*
X113668426Y-98620332D01*
X113795818Y-98673099D01*
X113931056Y-98700000D01*
X114068944Y-98700000D01*
X114204182Y-98673099D01*
X114331574Y-98620332D01*
X114446224Y-98543726D01*
X114543726Y-98446224D01*
X114620332Y-98331574D01*
X114673099Y-98204182D01*
X114700000Y-98068944D01*
X114700000Y-97931056D01*
X114673099Y-97795818D01*
X114620332Y-97668426D01*
X114543726Y-97553776D01*
X114446224Y-97456274D01*
X114331574Y-97379668D01*
X114204182Y-97326901D01*
X114068944Y-97300000D01*
X113931056Y-97300000D01*
X113795818Y-97326901D01*
X113668426Y-97379668D01*
X113553776Y-97456274D01*
X113456274Y-97553776D01*
X113400000Y-97637997D01*
X113343726Y-97553776D01*
X113246224Y-97456274D01*
X113131574Y-97379668D01*
X113004182Y-97326901D01*
X112868944Y-97300000D01*
X112731056Y-97300000D01*
X112595818Y-97326901D01*
X112468426Y-97379668D01*
X112353776Y-97456274D01*
X112256274Y-97553776D01*
X112179668Y-97668426D01*
X112126901Y-97795818D01*
X112100000Y-97931056D01*
X97271535Y-97931056D01*
X97208769Y-97914238D01*
X97079359Y-97897201D01*
X97000000Y-97892000D01*
X85000000Y-97892000D01*
X84920641Y-97897201D01*
X84791231Y-97914238D01*
X84637919Y-97955318D01*
X84517329Y-98005268D01*
X84379870Y-98084630D01*
X84276317Y-98164090D01*
X84164090Y-98276317D01*
X84084630Y-98379870D01*
X84005268Y-98517329D01*
X83955318Y-98637919D01*
X83914238Y-98791231D01*
X83897201Y-98920641D01*
X83892000Y-99000000D01*
X55511864Y-99000000D01*
X55647945Y-96377059D01*
X55940876Y-93753081D01*
X56388913Y-91151070D01*
X56442699Y-90921207D01*
X90700000Y-90921207D01*
X90700000Y-91078793D01*
X90730743Y-91233351D01*
X90791049Y-91378942D01*
X90878599Y-91509970D01*
X90990030Y-91621401D01*
X91121058Y-91708951D01*
X91235079Y-91756180D01*
X91230743Y-91766649D01*
X91200000Y-91921207D01*
X91200000Y-92078793D01*
X91230743Y-92233351D01*
X91291049Y-92378942D01*
X91378599Y-92509970D01*
X91490030Y-92621401D01*
X91621058Y-92708951D01*
X91766649Y-92769257D01*
X91921207Y-92800000D01*
X92078793Y-92800000D01*
X92233351Y-92769257D01*
X92378942Y-92708951D01*
X92500000Y-92628063D01*
X92621058Y-92708951D01*
X92766649Y-92769257D01*
X92921207Y-92800000D01*
X93078793Y-92800000D01*
X93233351Y-92769257D01*
X93378942Y-92708951D01*
X93500000Y-92628063D01*
X93621058Y-92708951D01*
X93766649Y-92769257D01*
X93921207Y-92800000D01*
X94078793Y-92800000D01*
X94233351Y-92769257D01*
X94378942Y-92708951D01*
X94500000Y-92628063D01*
X94621058Y-92708951D01*
X94766649Y-92769257D01*
X94921207Y-92800000D01*
X95078793Y-92800000D01*
X95233351Y-92769257D01*
X95378942Y-92708951D01*
X95509970Y-92621401D01*
X95621401Y-92509970D01*
X95708951Y-92378942D01*
X95769257Y-92233351D01*
X95800000Y-92078793D01*
X95800000Y-91921207D01*
X95769257Y-91766649D01*
X95708951Y-91621058D01*
X95621401Y-91490030D01*
X95509970Y-91378599D01*
X95378942Y-91291049D01*
X95264921Y-91243820D01*
X95269257Y-91233351D01*
X95300000Y-91078793D01*
X95300000Y-90921207D01*
X95269257Y-90766649D01*
X95264921Y-90756180D01*
X95378942Y-90708951D01*
X95509970Y-90621401D01*
X95621401Y-90509970D01*
X95708951Y-90378942D01*
X95769257Y-90233351D01*
X95800000Y-90078793D01*
X95800000Y-89921207D01*
X95769257Y-89766649D01*
X95708951Y-89621058D01*
X95621401Y-89490030D01*
X95509970Y-89378599D01*
X95378942Y-89291049D01*
X95233351Y-89230743D01*
X95078793Y-89200000D01*
X94921207Y-89200000D01*
X94766649Y-89230743D01*
X94621058Y-89291049D01*
X94500000Y-89371937D01*
X94378942Y-89291049D01*
X94233351Y-89230743D01*
X94078793Y-89200000D01*
X93921207Y-89200000D01*
X93766649Y-89230743D01*
X93621058Y-89291049D01*
X93500000Y-89371937D01*
X93378942Y-89291049D01*
X93233351Y-89230743D01*
X93078793Y-89200000D01*
X92921207Y-89200000D01*
X92766649Y-89230743D01*
X92621058Y-89291049D01*
X92500000Y-89371937D01*
X92378942Y-89291049D01*
X92233351Y-89230743D01*
X92078793Y-89200000D01*
X91921207Y-89200000D01*
X91766649Y-89230743D01*
X91621058Y-89291049D01*
X91490030Y-89378599D01*
X91378599Y-89490030D01*
X91291049Y-89621058D01*
X91230743Y-89766649D01*
X91200000Y-89921207D01*
X91200000Y-90078793D01*
X91230743Y-90233351D01*
X91235079Y-90243820D01*
X91121058Y-90291049D01*
X90990030Y-90378599D01*
X90878599Y-90490030D01*
X90791049Y-90621058D01*
X90730743Y-90766649D01*
X90700000Y-90921207D01*
X56442699Y-90921207D01*
X56990471Y-88580240D01*
X57743439Y-86049606D01*
X58516845Y-83921207D01*
X100200000Y-83921207D01*
X100200000Y-84078793D01*
X100230743Y-84233351D01*
X100291049Y-84378942D01*
X100378599Y-84509970D01*
X100490030Y-84621401D01*
X100621058Y-84708951D01*
X100766649Y-84769257D01*
X100921207Y-84800000D01*
X101078793Y-84800000D01*
X101233351Y-84769257D01*
X101378942Y-84708951D01*
X101500000Y-84628063D01*
X101621058Y-84708951D01*
X101766649Y-84769257D01*
X101921207Y-84800000D01*
X102078793Y-84800000D01*
X102233351Y-84769257D01*
X102378942Y-84708951D01*
X102500000Y-84628063D01*
X102621058Y-84708951D01*
X102766649Y-84769257D01*
X102921207Y-84800000D01*
X103078793Y-84800000D01*
X103233351Y-84769257D01*
X103378942Y-84708951D01*
X103500000Y-84628063D01*
X103621058Y-84708951D01*
X103766649Y-84769257D01*
X103921207Y-84800000D01*
X104078793Y-84800000D01*
X104233351Y-84769257D01*
X104378942Y-84708951D01*
X104500000Y-84628063D01*
X104621058Y-84708951D01*
X104766649Y-84769257D01*
X104921207Y-84800000D01*
X105078793Y-84800000D01*
X105233351Y-84769257D01*
X105378942Y-84708951D01*
X105500000Y-84628063D01*
X105621058Y-84708951D01*
X105766649Y-84769257D01*
X105921207Y-84800000D01*
X106078793Y-84800000D01*
X106233351Y-84769257D01*
X106378942Y-84708951D01*
X106509970Y-84621401D01*
X106621401Y-84509970D01*
X106708951Y-84378942D01*
X106769257Y-84233351D01*
X106800000Y-84078793D01*
X106800000Y-83921207D01*
X106769257Y-83766649D01*
X106708951Y-83621058D01*
X106628063Y-83500000D01*
X106708951Y-83378942D01*
X106769257Y-83233351D01*
X106800000Y-83078793D01*
X106800000Y-82921207D01*
X106769257Y-82766649D01*
X106708951Y-82621058D01*
X106628063Y-82500000D01*
X106708951Y-82378942D01*
X106769257Y-82233351D01*
X106800000Y-82078793D01*
X106800000Y-81921207D01*
X106769257Y-81766649D01*
X106708951Y-81621058D01*
X106628063Y-81500000D01*
X106708951Y-81378942D01*
X106769257Y-81233351D01*
X106800000Y-81078793D01*
X106800000Y-80921207D01*
X106769257Y-80766649D01*
X106708951Y-80621058D01*
X106628063Y-80500000D01*
X106708951Y-80378942D01*
X106769257Y-80233351D01*
X106800000Y-80078793D01*
X106800000Y-79921207D01*
X106769257Y-79766649D01*
X106708951Y-79621058D01*
X106628063Y-79500000D01*
X106708951Y-79378942D01*
X106769257Y-79233351D01*
X106800000Y-79078793D01*
X106800000Y-78921207D01*
X106769257Y-78766649D01*
X106708951Y-78621058D01*
X106628063Y-78500000D01*
X106708951Y-78378942D01*
X106769257Y-78233351D01*
X106800000Y-78078793D01*
X106800000Y-77921207D01*
X106769257Y-77766649D01*
X106708951Y-77621058D01*
X106628063Y-77500000D01*
X106708951Y-77378942D01*
X106769257Y-77233351D01*
X106800000Y-77078793D01*
X106800000Y-76921207D01*
X106769257Y-76766649D01*
X106708951Y-76621058D01*
X106628063Y-76500000D01*
X106708951Y-76378942D01*
X106769257Y-76233351D01*
X106800000Y-76078793D01*
X106800000Y-75921207D01*
X106769257Y-75766649D01*
X106708951Y-75621058D01*
X106628063Y-75500000D01*
X106708951Y-75378942D01*
X106769257Y-75233351D01*
X106800000Y-75078793D01*
X106800000Y-74921207D01*
X106769257Y-74766649D01*
X106708951Y-74621058D01*
X106628063Y-74500000D01*
X106708951Y-74378942D01*
X106769257Y-74233351D01*
X106800000Y-74078793D01*
X106800000Y-73921207D01*
X106769257Y-73766649D01*
X106708951Y-73621058D01*
X106628063Y-73500000D01*
X106708951Y-73378942D01*
X106769257Y-73233351D01*
X106800000Y-73078793D01*
X106800000Y-72921207D01*
X106769257Y-72766649D01*
X106708951Y-72621058D01*
X106628063Y-72500000D01*
X106708951Y-72378942D01*
X106769257Y-72233351D01*
X106800000Y-72078793D01*
X106800000Y-71921207D01*
X106769257Y-71766649D01*
X106708951Y-71621058D01*
X106628063Y-71500000D01*
X106708951Y-71378942D01*
X106769257Y-71233351D01*
X106782936Y-71164577D01*
X126034270Y-71164577D01*
X126034270Y-71666883D01*
X126132265Y-72159537D01*
X126324490Y-72623608D01*
X126603556Y-73041260D01*
X126958740Y-73396444D01*
X127376392Y-73675510D01*
X127840463Y-73867735D01*
X128333117Y-73965730D01*
X128835423Y-73965730D01*
X129328077Y-73867735D01*
X129792148Y-73675510D01*
X130209800Y-73396444D01*
X130564984Y-73041260D01*
X130844050Y-72623608D01*
X131036275Y-72159537D01*
X131134270Y-71666883D01*
X131134270Y-71164577D01*
X131036275Y-70671923D01*
X130844050Y-70207852D01*
X130564984Y-69790200D01*
X130209800Y-69435016D01*
X129792148Y-69155950D01*
X129328077Y-68963725D01*
X128835423Y-68865730D01*
X128333117Y-68865730D01*
X127840463Y-68963725D01*
X127376392Y-69155950D01*
X126958740Y-69435016D01*
X126603556Y-69790200D01*
X126324490Y-70207852D01*
X126132265Y-70671923D01*
X126034270Y-71164577D01*
X106782936Y-71164577D01*
X106800000Y-71078793D01*
X106800000Y-70921207D01*
X106769257Y-70766649D01*
X106708951Y-70621058D01*
X106621401Y-70490030D01*
X106515110Y-70383739D01*
X107283433Y-70230911D01*
X108084182Y-69899230D01*
X108804837Y-69417703D01*
X109417703Y-68804837D01*
X109899230Y-68084182D01*
X110230911Y-67283433D01*
X110400000Y-66433362D01*
X110400000Y-65566638D01*
X110230911Y-64716567D01*
X109899230Y-63915818D01*
X109417703Y-63195163D01*
X108804837Y-62582297D01*
X108084182Y-62100770D01*
X107283433Y-61769089D01*
X106433362Y-61600000D01*
X105566638Y-61600000D01*
X104716567Y-61769089D01*
X103915818Y-62100770D01*
X103195163Y-62582297D01*
X102582297Y-63195163D01*
X102100770Y-63915818D01*
X101769089Y-64716567D01*
X101600000Y-65566638D01*
X101600000Y-66433362D01*
X101769089Y-67283433D01*
X102100770Y-68084182D01*
X102582297Y-68804837D01*
X103195163Y-69417703D01*
X103915818Y-69899230D01*
X104716567Y-70230911D01*
X105484890Y-70383739D01*
X105378599Y-70490030D01*
X105291049Y-70621058D01*
X105230743Y-70766649D01*
X105200000Y-70921207D01*
X105200000Y-71078793D01*
X105230743Y-71233351D01*
X105291049Y-71378942D01*
X105371937Y-71500000D01*
X105291049Y-71621058D01*
X105230743Y-71766649D01*
X105200000Y-71921207D01*
X105200000Y-72078793D01*
X105230743Y-72233351D01*
X105291049Y-72378942D01*
X105371937Y-72500000D01*
X105291049Y-72621058D01*
X105230743Y-72766649D01*
X105200000Y-72921207D01*
X105200000Y-73078793D01*
X105230743Y-73233351D01*
X105291049Y-73378942D01*
X105371937Y-73500000D01*
X105291049Y-73621058D01*
X105230743Y-73766649D01*
X105200000Y-73921207D01*
X105200000Y-74078793D01*
X105230743Y-74233351D01*
X105291049Y-74378942D01*
X105371937Y-74500000D01*
X105291049Y-74621058D01*
X105230743Y-74766649D01*
X105200000Y-74921207D01*
X105200000Y-75078793D01*
X105230743Y-75233351D01*
X105291049Y-75378942D01*
X105371937Y-75500000D01*
X105291049Y-75621058D01*
X105230743Y-75766649D01*
X105200000Y-75921207D01*
X105200000Y-76078793D01*
X105230743Y-76233351D01*
X105291049Y-76378942D01*
X105371937Y-76500000D01*
X105291049Y-76621058D01*
X105230743Y-76766649D01*
X105200000Y-76921207D01*
X105200000Y-77078793D01*
X105230743Y-77233351D01*
X105291049Y-77378942D01*
X105371937Y-77500000D01*
X105291049Y-77621058D01*
X105230743Y-77766649D01*
X105200000Y-77921207D01*
X105200000Y-78078793D01*
X105230743Y-78233351D01*
X105291049Y-78378942D01*
X105371937Y-78500000D01*
X105291049Y-78621058D01*
X105230743Y-78766649D01*
X105200000Y-78921207D01*
X105200000Y-79078793D01*
X105230743Y-79233351D01*
X105291049Y-79378942D01*
X105371937Y-79500000D01*
X105291049Y-79621058D01*
X105230743Y-79766649D01*
X105200000Y-79921207D01*
X105200000Y-80078793D01*
X105230743Y-80233351D01*
X105291049Y-80378942D01*
X105371937Y-80500000D01*
X105291049Y-80621058D01*
X105230743Y-80766649D01*
X105200000Y-80921207D01*
X105200000Y-81078793D01*
X105230743Y-81233351D01*
X105291049Y-81378942D01*
X105371937Y-81500000D01*
X105291049Y-81621058D01*
X105230743Y-81766649D01*
X105200000Y-81921207D01*
X105200000Y-82078793D01*
X105230743Y-82233351D01*
X105291049Y-82378942D01*
X105371937Y-82500000D01*
X105291049Y-82621058D01*
X105230743Y-82766649D01*
X105200000Y-82921207D01*
X105200000Y-83078793D01*
X105230095Y-83230095D01*
X105078793Y-83200000D01*
X104921207Y-83200000D01*
X104766649Y-83230743D01*
X104621058Y-83291049D01*
X104500000Y-83371937D01*
X104378942Y-83291049D01*
X104233351Y-83230743D01*
X104078793Y-83200000D01*
X103921207Y-83200000D01*
X103766649Y-83230743D01*
X103621058Y-83291049D01*
X103500000Y-83371937D01*
X103378942Y-83291049D01*
X103233351Y-83230743D01*
X103078793Y-83200000D01*
X102921207Y-83200000D01*
X102766649Y-83230743D01*
X102621058Y-83291049D01*
X102500000Y-83371937D01*
X102378942Y-83291049D01*
X102233351Y-83230743D01*
X102078793Y-83200000D01*
X101921207Y-83200000D01*
X101766649Y-83230743D01*
X101621058Y-83291049D01*
X101500000Y-83371937D01*
X101378942Y-83291049D01*
X101233351Y-83230743D01*
X101078793Y-83200000D01*
X100921207Y-83200000D01*
X100766649Y-83230743D01*
X100621058Y-83291049D01*
X100490030Y-83378599D01*
X100378599Y-83490030D01*
X100291049Y-83621058D01*
X100230743Y-83766649D01*
X100200000Y-83921207D01*
X58516845Y-83921207D01*
X58645162Y-83568084D01*
X59692481Y-81144379D01*
X60881681Y-78787089D01*
X62208593Y-76504468D01*
X63668550Y-74304550D01*
X65256411Y-72195082D01*
X66132505Y-71164577D01*
X68865730Y-71164577D01*
X68865730Y-71666883D01*
X68963725Y-72159537D01*
X69155950Y-72623608D01*
X69435016Y-73041260D01*
X69790200Y-73396444D01*
X70207852Y-73675510D01*
X70671923Y-73867735D01*
X71164577Y-73965730D01*
X71666883Y-73965730D01*
X72159537Y-73867735D01*
X72623608Y-73675510D01*
X73041260Y-73396444D01*
X73396444Y-73041260D01*
X73675510Y-72623608D01*
X73867735Y-72159537D01*
X73965730Y-71666883D01*
X73965730Y-71164577D01*
X73867735Y-70671923D01*
X73675510Y-70207852D01*
X73396444Y-69790200D01*
X73041260Y-69435016D01*
X72623608Y-69155950D01*
X72159537Y-68963725D01*
X71666883Y-68865730D01*
X71164577Y-68865730D01*
X70671923Y-68963725D01*
X70207852Y-69155950D01*
X69790200Y-69435016D01*
X69435016Y-69790200D01*
X69155950Y-70207852D01*
X68963725Y-70671923D01*
X68865730Y-71164577D01*
X66132505Y-71164577D01*
X66966566Y-70183515D01*
X68793020Y-68276902D01*
X70729336Y-66481964D01*
X72768687Y-64805028D01*
X74903897Y-63251993D01*
X77127476Y-61828308D01*
X79431556Y-60539013D01*
X81808044Y-59388633D01*
X84248575Y-58381218D01*
X86744559Y-57520314D01*
X89287225Y-56808948D01*
X91867565Y-56249640D01*
X94476568Y-55844341D01*
X97104997Y-55594488D01*
X99743620Y-55500958D01*
X102383155Y-55564079D01*
G37*
%TD.AperFunction*%
%TD*%
M02*
