%TF.GenerationSoftware,KiCad,Pcbnew,(5.1.7)-1*%
%TF.CreationDate,2021-06-08T21:36:04+03:00*%
%TF.ProjectId,SynchronousBuck,53796e63-6872-46f6-9e6f-75734275636b,rev?*%
%TF.SameCoordinates,Original*%
%TF.FileFunction,Legend,Top*%
%TF.FilePolarity,Positive*%
%FSLAX46Y46*%
G04 Gerber Fmt 4.6, Leading zero omitted, Abs format (unit mm)*
G04 Created by KiCad (PCBNEW (5.1.7)-1) date 2021-06-08 21:36:04*
%MOMM*%
%LPD*%
G01*
G04 APERTURE LIST*
%ADD10C,0.300000*%
%ADD11C,0.500000*%
%ADD12C,0.700000*%
%ADD13C,0.120000*%
%ADD14C,0.150000*%
G04 APERTURE END LIST*
D10*
X125531285Y-99492857D02*
X125931285Y-100692857D01*
X126331285Y-99492857D01*
X126959857Y-99492857D02*
X127188428Y-99492857D01*
X127302714Y-99550000D01*
X127417000Y-99664285D01*
X127474142Y-99892857D01*
X127474142Y-100292857D01*
X127417000Y-100521428D01*
X127302714Y-100635714D01*
X127188428Y-100692857D01*
X126959857Y-100692857D01*
X126845571Y-100635714D01*
X126731285Y-100521428D01*
X126674142Y-100292857D01*
X126674142Y-99892857D01*
X126731285Y-99664285D01*
X126845571Y-99550000D01*
X126959857Y-99492857D01*
X127988428Y-99492857D02*
X127988428Y-100464285D01*
X128045571Y-100578571D01*
X128102714Y-100635714D01*
X128217000Y-100692857D01*
X128445571Y-100692857D01*
X128559857Y-100635714D01*
X128617000Y-100578571D01*
X128674142Y-100464285D01*
X128674142Y-99492857D01*
X129074142Y-99492857D02*
X129759857Y-99492857D01*
X129417000Y-100692857D02*
X129417000Y-99492857D01*
X131074142Y-100692857D02*
X131074142Y-99492857D01*
X131474142Y-100350000D01*
X131874142Y-99492857D01*
X131874142Y-100692857D01*
X132445571Y-100064285D02*
X132845571Y-100064285D01*
X133017000Y-100692857D02*
X132445571Y-100692857D01*
X132445571Y-99492857D01*
X133017000Y-99492857D01*
X133474142Y-100350000D02*
X134045571Y-100350000D01*
X133359857Y-100692857D02*
X133759857Y-99492857D01*
X134159857Y-100692857D01*
X134502714Y-100635714D02*
X134674142Y-100692857D01*
X134959857Y-100692857D01*
X135074142Y-100635714D01*
X135131285Y-100578571D01*
X135188428Y-100464285D01*
X135188428Y-100350000D01*
X135131285Y-100235714D01*
X135074142Y-100178571D01*
X134959857Y-100121428D01*
X134731285Y-100064285D01*
X134617000Y-100007142D01*
X134559857Y-99950000D01*
X134502714Y-99835714D01*
X134502714Y-99721428D01*
X134559857Y-99607142D01*
X134617000Y-99550000D01*
X134731285Y-99492857D01*
X135017000Y-99492857D01*
X135188428Y-99550000D01*
X126331285Y-101650000D02*
X126217000Y-101592857D01*
X126045571Y-101592857D01*
X125874142Y-101650000D01*
X125759857Y-101764285D01*
X125702714Y-101878571D01*
X125645571Y-102107142D01*
X125645571Y-102278571D01*
X125702714Y-102507142D01*
X125759857Y-102621428D01*
X125874142Y-102735714D01*
X126045571Y-102792857D01*
X126159857Y-102792857D01*
X126331285Y-102735714D01*
X126388428Y-102678571D01*
X126388428Y-102278571D01*
X126159857Y-102278571D01*
X126902714Y-102792857D02*
X126902714Y-101592857D01*
X127588428Y-102792857D01*
X127588428Y-101592857D01*
X128159857Y-102792857D02*
X128159857Y-101592857D01*
X128445571Y-101592857D01*
X128617000Y-101650000D01*
X128731285Y-101764285D01*
X128788428Y-101878571D01*
X128845571Y-102107142D01*
X128845571Y-102278571D01*
X128788428Y-102507142D01*
X128731285Y-102621428D01*
X128617000Y-102735714D01*
X128445571Y-102792857D01*
X128159857Y-102792857D01*
D11*
X107400000Y-115824000D02*
G75*
G03*
X107400000Y-115824000I-100000J0D01*
G01*
D12*
X104600000Y-109800000D02*
G75*
G03*
X104600000Y-109800000I-100000J0D01*
G01*
X104500000Y-103100000D02*
G75*
G03*
X104500000Y-103100000I-100000J0D01*
G01*
D10*
X126331285Y-104522000D02*
X126217000Y-104464857D01*
X126045571Y-104464857D01*
X125874142Y-104522000D01*
X125759857Y-104636285D01*
X125702714Y-104750571D01*
X125645571Y-104979142D01*
X125645571Y-105150571D01*
X125702714Y-105379142D01*
X125759857Y-105493428D01*
X125874142Y-105607714D01*
X126045571Y-105664857D01*
X126159857Y-105664857D01*
X126331285Y-105607714D01*
X126388428Y-105550571D01*
X126388428Y-105150571D01*
X126159857Y-105150571D01*
X126902714Y-105664857D02*
X126902714Y-104464857D01*
X127588428Y-105664857D01*
X127588428Y-104464857D01*
X128159857Y-105664857D02*
X128159857Y-104464857D01*
X128445571Y-104464857D01*
X128617000Y-104522000D01*
X128731285Y-104636285D01*
X128788428Y-104750571D01*
X128845571Y-104979142D01*
X128845571Y-105150571D01*
X128788428Y-105379142D01*
X128731285Y-105493428D01*
X128617000Y-105607714D01*
X128445571Y-105664857D01*
X128159857Y-105664857D01*
X125531285Y-106564857D02*
X125931285Y-107764857D01*
X126331285Y-106564857D01*
X126731285Y-107764857D02*
X126731285Y-106564857D01*
X127302714Y-107764857D02*
X127302714Y-106564857D01*
X127988428Y-107764857D01*
X127988428Y-106564857D01*
X129474142Y-107764857D02*
X129474142Y-106564857D01*
X129874142Y-107422000D01*
X130274142Y-106564857D01*
X130274142Y-107764857D01*
X130845571Y-107136285D02*
X131245571Y-107136285D01*
X131417000Y-107764857D02*
X130845571Y-107764857D01*
X130845571Y-106564857D01*
X131417000Y-106564857D01*
X131874142Y-107422000D02*
X132445571Y-107422000D01*
X131759857Y-107764857D02*
X132159857Y-106564857D01*
X132559857Y-107764857D01*
X132902714Y-107707714D02*
X133074142Y-107764857D01*
X133359857Y-107764857D01*
X133474142Y-107707714D01*
X133531285Y-107650571D01*
X133588428Y-107536285D01*
X133588428Y-107422000D01*
X133531285Y-107307714D01*
X133474142Y-107250571D01*
X133359857Y-107193428D01*
X133131285Y-107136285D01*
X133017000Y-107079142D01*
X132959857Y-107022000D01*
X132902714Y-106907714D01*
X132902714Y-106793428D01*
X132959857Y-106679142D01*
X133017000Y-106622000D01*
X133131285Y-106564857D01*
X133417000Y-106564857D01*
X133588428Y-106622000D01*
D11*
X109857142Y-60185714D02*
X107571428Y-60185714D01*
X108714285Y-59042857D02*
X108714285Y-61328571D01*
X92428571Y-60185714D02*
X90142857Y-60185714D01*
D10*
X62632142Y-112635714D02*
X62703571Y-112421428D01*
X62703571Y-112064285D01*
X62632142Y-111921428D01*
X62560714Y-111850000D01*
X62417857Y-111778571D01*
X62275000Y-111778571D01*
X62132142Y-111850000D01*
X62060714Y-111921428D01*
X61989285Y-112064285D01*
X61917857Y-112350000D01*
X61846428Y-112492857D01*
X61775000Y-112564285D01*
X61632142Y-112635714D01*
X61489285Y-112635714D01*
X61346428Y-112564285D01*
X61275000Y-112492857D01*
X61203571Y-112350000D01*
X61203571Y-111992857D01*
X61275000Y-111778571D01*
X61703571Y-111278571D02*
X62703571Y-110921428D01*
X61703571Y-110564285D02*
X62703571Y-110921428D01*
X63060714Y-111064285D01*
X63132142Y-111135714D01*
X63203571Y-111278571D01*
X61703571Y-109992857D02*
X62703571Y-109992857D01*
X61846428Y-109992857D02*
X61775000Y-109921428D01*
X61703571Y-109778571D01*
X61703571Y-109564285D01*
X61775000Y-109421428D01*
X61917857Y-109350000D01*
X62703571Y-109350000D01*
X62632142Y-107992857D02*
X62703571Y-108135714D01*
X62703571Y-108421428D01*
X62632142Y-108564285D01*
X62560714Y-108635714D01*
X62417857Y-108707142D01*
X61989285Y-108707142D01*
X61846428Y-108635714D01*
X61775000Y-108564285D01*
X61703571Y-108421428D01*
X61703571Y-108135714D01*
X61775000Y-107992857D01*
X62703571Y-107350000D02*
X61203571Y-107350000D01*
X62703571Y-106707142D02*
X61917857Y-106707142D01*
X61775000Y-106778571D01*
X61703571Y-106921428D01*
X61703571Y-107135714D01*
X61775000Y-107278571D01*
X61846428Y-107350000D01*
X62703571Y-105992857D02*
X61703571Y-105992857D01*
X61989285Y-105992857D02*
X61846428Y-105921428D01*
X61775000Y-105850000D01*
X61703571Y-105707142D01*
X61703571Y-105564285D01*
X62703571Y-104850000D02*
X62632142Y-104992857D01*
X62560714Y-105064285D01*
X62417857Y-105135714D01*
X61989285Y-105135714D01*
X61846428Y-105064285D01*
X61775000Y-104992857D01*
X61703571Y-104850000D01*
X61703571Y-104635714D01*
X61775000Y-104492857D01*
X61846428Y-104421428D01*
X61989285Y-104350000D01*
X62417857Y-104350000D01*
X62560714Y-104421428D01*
X62632142Y-104492857D01*
X62703571Y-104635714D01*
X62703571Y-104850000D01*
X61703571Y-103707142D02*
X62703571Y-103707142D01*
X61846428Y-103707142D02*
X61775000Y-103635714D01*
X61703571Y-103492857D01*
X61703571Y-103278571D01*
X61775000Y-103135714D01*
X61917857Y-103064285D01*
X62703571Y-103064285D01*
X62703571Y-102135714D02*
X62632142Y-102278571D01*
X62560714Y-102350000D01*
X62417857Y-102421428D01*
X61989285Y-102421428D01*
X61846428Y-102350000D01*
X61775000Y-102278571D01*
X61703571Y-102135714D01*
X61703571Y-101921428D01*
X61775000Y-101778571D01*
X61846428Y-101707142D01*
X61989285Y-101635714D01*
X62417857Y-101635714D01*
X62560714Y-101707142D01*
X62632142Y-101778571D01*
X62703571Y-101921428D01*
X62703571Y-102135714D01*
X61703571Y-100350000D02*
X62703571Y-100350000D01*
X61703571Y-100992857D02*
X62489285Y-100992857D01*
X62632142Y-100921428D01*
X62703571Y-100778571D01*
X62703571Y-100564285D01*
X62632142Y-100421428D01*
X62560714Y-100350000D01*
X62632142Y-99707142D02*
X62703571Y-99564285D01*
X62703571Y-99278571D01*
X62632142Y-99135714D01*
X62489285Y-99064285D01*
X62417857Y-99064285D01*
X62275000Y-99135714D01*
X62203571Y-99278571D01*
X62203571Y-99492857D01*
X62132142Y-99635714D01*
X61989285Y-99707142D01*
X61917857Y-99707142D01*
X61775000Y-99635714D01*
X61703571Y-99492857D01*
X61703571Y-99278571D01*
X61775000Y-99135714D01*
X61917857Y-96778571D02*
X61989285Y-96564285D01*
X62060714Y-96492857D01*
X62203571Y-96421428D01*
X62417857Y-96421428D01*
X62560714Y-96492857D01*
X62632142Y-96564285D01*
X62703571Y-96707142D01*
X62703571Y-97278571D01*
X61203571Y-97278571D01*
X61203571Y-96778571D01*
X61275000Y-96635714D01*
X61346428Y-96564285D01*
X61489285Y-96492857D01*
X61632142Y-96492857D01*
X61775000Y-96564285D01*
X61846428Y-96635714D01*
X61917857Y-96778571D01*
X61917857Y-97278571D01*
X61703571Y-95135714D02*
X62703571Y-95135714D01*
X61703571Y-95778571D02*
X62489285Y-95778571D01*
X62632142Y-95707142D01*
X62703571Y-95564285D01*
X62703571Y-95350000D01*
X62632142Y-95207142D01*
X62560714Y-95135714D01*
X62632142Y-93778571D02*
X62703571Y-93921428D01*
X62703571Y-94207142D01*
X62632142Y-94350000D01*
X62560714Y-94421428D01*
X62417857Y-94492857D01*
X61989285Y-94492857D01*
X61846428Y-94421428D01*
X61775000Y-94350000D01*
X61703571Y-94207142D01*
X61703571Y-93921428D01*
X61775000Y-93778571D01*
X62703571Y-93135714D02*
X61203571Y-93135714D01*
X62132142Y-92992857D02*
X62703571Y-92564285D01*
X61703571Y-92564285D02*
X62275000Y-93135714D01*
X61203571Y-90992857D02*
X62703571Y-90492857D01*
X61203571Y-89992857D01*
X62703571Y-88707142D02*
X62703571Y-89564285D01*
X62703571Y-89135714D02*
X61203571Y-89135714D01*
X61417857Y-89278571D01*
X61560714Y-89421428D01*
X61632142Y-89564285D01*
X62560714Y-88064285D02*
X62632142Y-87992857D01*
X62703571Y-88064285D01*
X62632142Y-88135714D01*
X62560714Y-88064285D01*
X62703571Y-88064285D01*
X61203571Y-87064285D02*
X61203571Y-86921428D01*
X61275000Y-86778571D01*
X61346428Y-86707142D01*
X61489285Y-86635714D01*
X61775000Y-86564285D01*
X62132142Y-86564285D01*
X62417857Y-86635714D01*
X62560714Y-86707142D01*
X62632142Y-86778571D01*
X62703571Y-86921428D01*
X62703571Y-87064285D01*
X62632142Y-87207142D01*
X62560714Y-87278571D01*
X62417857Y-87350000D01*
X62132142Y-87421428D01*
X61775000Y-87421428D01*
X61489285Y-87350000D01*
X61346428Y-87278571D01*
X61275000Y-87207142D01*
X61203571Y-87064285D01*
X64467857Y-108314285D02*
X64467857Y-108814285D01*
X65253571Y-108814285D02*
X63753571Y-108814285D01*
X63753571Y-108100000D01*
X65253571Y-107528571D02*
X64253571Y-107528571D01*
X63753571Y-107528571D02*
X63825000Y-107600000D01*
X63896428Y-107528571D01*
X63825000Y-107457142D01*
X63753571Y-107528571D01*
X63896428Y-107528571D01*
X64253571Y-106814285D02*
X65253571Y-106814285D01*
X64396428Y-106814285D02*
X64325000Y-106742857D01*
X64253571Y-106600000D01*
X64253571Y-106385714D01*
X64325000Y-106242857D01*
X64467857Y-106171428D01*
X65253571Y-106171428D01*
X65253571Y-104814285D02*
X63753571Y-104814285D01*
X65182142Y-104814285D02*
X65253571Y-104957142D01*
X65253571Y-105242857D01*
X65182142Y-105385714D01*
X65110714Y-105457142D01*
X64967857Y-105528571D01*
X64539285Y-105528571D01*
X64396428Y-105457142D01*
X64325000Y-105385714D01*
X64253571Y-105242857D01*
X64253571Y-104957142D01*
X64325000Y-104814285D01*
X65182142Y-103528571D02*
X65253571Y-103671428D01*
X65253571Y-103957142D01*
X65182142Y-104100000D01*
X65039285Y-104171428D01*
X64467857Y-104171428D01*
X64325000Y-104100000D01*
X64253571Y-103957142D01*
X64253571Y-103671428D01*
X64325000Y-103528571D01*
X64467857Y-103457142D01*
X64610714Y-103457142D01*
X64753571Y-104171428D01*
X65253571Y-102814285D02*
X64253571Y-102814285D01*
X64539285Y-102814285D02*
X64396428Y-102742857D01*
X64325000Y-102671428D01*
X64253571Y-102528571D01*
X64253571Y-102385714D01*
X65182142Y-101957142D02*
X65253571Y-101814285D01*
X65253571Y-101528571D01*
X65182142Y-101385714D01*
X65039285Y-101314285D01*
X64967857Y-101314285D01*
X64825000Y-101385714D01*
X64753571Y-101528571D01*
X64753571Y-101742857D01*
X64682142Y-101885714D01*
X64539285Y-101957142D01*
X64467857Y-101957142D01*
X64325000Y-101885714D01*
X64253571Y-101742857D01*
X64253571Y-101528571D01*
X64325000Y-101385714D01*
X65182142Y-100100000D02*
X65253571Y-100242857D01*
X65253571Y-100528571D01*
X65182142Y-100671428D01*
X65039285Y-100742857D01*
X64467857Y-100742857D01*
X64325000Y-100671428D01*
X64253571Y-100528571D01*
X64253571Y-100242857D01*
X64325000Y-100100000D01*
X64467857Y-100028571D01*
X64610714Y-100028571D01*
X64753571Y-100742857D01*
X65182142Y-98814285D02*
X65253571Y-98957142D01*
X65253571Y-99242857D01*
X65182142Y-99385714D01*
X65039285Y-99457142D01*
X64467857Y-99457142D01*
X64325000Y-99385714D01*
X64253571Y-99242857D01*
X64253571Y-98957142D01*
X64325000Y-98814285D01*
X64467857Y-98742857D01*
X64610714Y-98742857D01*
X64753571Y-99457142D01*
X63896428Y-97028571D02*
X63825000Y-96957142D01*
X63753571Y-96814285D01*
X63753571Y-96457142D01*
X63825000Y-96314285D01*
X63896428Y-96242857D01*
X64039285Y-96171428D01*
X64182142Y-96171428D01*
X64396428Y-96242857D01*
X65253571Y-97100000D01*
X65253571Y-96171428D01*
X63753571Y-95671428D02*
X63753571Y-94742857D01*
X64325000Y-95242857D01*
X64325000Y-95028571D01*
X64396428Y-94885714D01*
X64467857Y-94814285D01*
X64610714Y-94742857D01*
X64967857Y-94742857D01*
X65110714Y-94814285D01*
X65182142Y-94885714D01*
X65253571Y-95028571D01*
X65253571Y-95457142D01*
X65182142Y-95600000D01*
X65110714Y-95671428D01*
X63682142Y-93028571D02*
X65610714Y-94314285D01*
X63896428Y-92600000D02*
X63825000Y-92528571D01*
X63753571Y-92385714D01*
X63753571Y-92028571D01*
X63825000Y-91885714D01*
X63896428Y-91814285D01*
X64039285Y-91742857D01*
X64182142Y-91742857D01*
X64396428Y-91814285D01*
X65253571Y-92671428D01*
X65253571Y-91742857D01*
X65253571Y-90314285D02*
X65253571Y-91171428D01*
X65253571Y-90742857D02*
X63753571Y-90742857D01*
X63967857Y-90885714D01*
X64110714Y-91028571D01*
X64182142Y-91171428D01*
D11*
X89042857Y-117641714D02*
X86757142Y-117641714D01*
X87900000Y-116498857D02*
X87900000Y-118784571D01*
X83042857Y-117641714D02*
X80757142Y-117641714D01*
D13*
%TO.C,R120*%
X117677500Y-104237258D02*
X117677500Y-103762742D01*
X118722500Y-104237258D02*
X118722500Y-103762742D01*
%TO.C,D103*%
X122050000Y-96200000D02*
X122050000Y-98200000D01*
X122050000Y-98200000D02*
X125950000Y-98200000D01*
X122050000Y-96200000D02*
X125950000Y-96200000D01*
%TO.C,D102*%
X120614000Y-108950000D02*
X120614000Y-106950000D01*
X120614000Y-106950000D02*
X116714000Y-106950000D01*
X120614000Y-108950000D02*
X116714000Y-108950000D01*
%TO.C,C114*%
X104400000Y-77610000D02*
X104400000Y-76610000D01*
X104900000Y-77110000D02*
X103900000Y-77110000D01*
X103660000Y-71404437D02*
X102595563Y-70340000D01*
X103660000Y-77795563D02*
X102595563Y-78860000D01*
X103660000Y-77795563D02*
X103660000Y-76110000D01*
X103660000Y-71404437D02*
X103660000Y-73090000D01*
X102595563Y-70340000D02*
X95140000Y-70340000D01*
X102595563Y-78860000D02*
X95140000Y-78860000D01*
X95140000Y-78860000D02*
X95140000Y-76110000D01*
X95140000Y-70340000D02*
X95140000Y-73090000D01*
%TO.C,C113*%
X108700000Y-77990000D02*
X108700000Y-78990000D01*
X108200000Y-78490000D02*
X109200000Y-78490000D01*
X109440000Y-84195563D02*
X110504437Y-85260000D01*
X109440000Y-77804437D02*
X110504437Y-76740000D01*
X109440000Y-77804437D02*
X109440000Y-79490000D01*
X109440000Y-84195563D02*
X109440000Y-82510000D01*
X110504437Y-85260000D02*
X117960000Y-85260000D01*
X110504437Y-76740000D02*
X117960000Y-76740000D01*
X117960000Y-76740000D02*
X117960000Y-79490000D01*
X117960000Y-85260000D02*
X117960000Y-82510000D01*
%TO.C,C118*%
X95400000Y-84310000D02*
X95400000Y-83310000D01*
X95900000Y-83810000D02*
X94900000Y-83810000D01*
X94660000Y-78104437D02*
X93595563Y-77040000D01*
X94660000Y-84495563D02*
X93595563Y-85560000D01*
X94660000Y-84495563D02*
X94660000Y-82810000D01*
X94660000Y-78104437D02*
X94660000Y-79790000D01*
X93595563Y-77040000D02*
X86140000Y-77040000D01*
X93595563Y-85560000D02*
X86140000Y-85560000D01*
X86140000Y-85560000D02*
X86140000Y-82810000D01*
X86140000Y-77040000D02*
X86140000Y-79790000D01*
%TO.C,C112*%
X108700000Y-68990000D02*
X108700000Y-69990000D01*
X108200000Y-69490000D02*
X109200000Y-69490000D01*
X109440000Y-75195563D02*
X110504437Y-76260000D01*
X109440000Y-68804437D02*
X110504437Y-67740000D01*
X109440000Y-68804437D02*
X109440000Y-70490000D01*
X109440000Y-75195563D02*
X109440000Y-73510000D01*
X110504437Y-76260000D02*
X117960000Y-76260000D01*
X110504437Y-67740000D02*
X117960000Y-67740000D01*
X117960000Y-67740000D02*
X117960000Y-70490000D01*
X117960000Y-76260000D02*
X117960000Y-73510000D01*
%TO.C,C110*%
X104443750Y-61541250D02*
X104443750Y-60753750D01*
X104837500Y-61147500D02*
X104050000Y-61147500D01*
X103810000Y-56954437D02*
X102745563Y-55890000D01*
X103810000Y-61645563D02*
X102745563Y-62710000D01*
X103810000Y-61645563D02*
X103810000Y-60360000D01*
X103810000Y-56954437D02*
X103810000Y-58240000D01*
X102745563Y-55890000D02*
X96990000Y-55890000D01*
X102745563Y-62710000D02*
X96990000Y-62710000D01*
X96990000Y-62710000D02*
X96990000Y-60360000D01*
X96990000Y-55890000D02*
X96990000Y-58240000D01*
%TO.C,R123*%
X120522500Y-104237258D02*
X120522500Y-103762742D01*
X119477500Y-104237258D02*
X119477500Y-103762742D01*
%TO.C,C121*%
X107060000Y-114011252D02*
X107060000Y-112588748D01*
X104340000Y-114011252D02*
X104340000Y-112588748D01*
%TO.C,C120*%
X96386252Y-115540000D02*
X94963748Y-115540000D01*
X96386252Y-118260000D02*
X94963748Y-118260000D01*
%TO.C,C119*%
X91210000Y-116440580D02*
X91210000Y-116159420D01*
X90190000Y-116440580D02*
X90190000Y-116159420D01*
%TO.C,C115*%
X103740000Y-87088748D02*
X103740000Y-88511252D01*
X106460000Y-87088748D02*
X106460000Y-88511252D01*
%TO.C,L101*%
X88800000Y-114300000D02*
X70900000Y-114300000D01*
X70900000Y-114300000D02*
X70900000Y-109300000D01*
X70900000Y-109300000D02*
X73400000Y-109300000D01*
X88900000Y-114300000D02*
X88900000Y-109300000D01*
X88900000Y-109300000D02*
X86400000Y-109300000D01*
X73400000Y-109300000D02*
X73900000Y-104500000D01*
X86400000Y-109300000D02*
X85900000Y-104500000D01*
X85900000Y-96100000D02*
X86400000Y-91300000D01*
X86400000Y-91300000D02*
X88800000Y-91300000D01*
X88800000Y-91300000D02*
X88900000Y-91300000D01*
X88900000Y-91300000D02*
X88900000Y-86300000D01*
X88900000Y-86300000D02*
X70900000Y-86300000D01*
X70900000Y-86300000D02*
X70900000Y-91300000D01*
X70900000Y-91300000D02*
X73400000Y-91300000D01*
X73400000Y-91300000D02*
X73900000Y-96100000D01*
X70274750Y-96790794D02*
G75*
G02*
X73500001Y-92300001I9625250J-3509206D01*
G01*
X70274750Y-103809206D02*
G75*
G03*
X73500001Y-108299999I9625250J3509206D01*
G01*
X86299999Y-92300001D02*
G75*
G02*
X86299999Y-108299999I-6399999J-7999999D01*
G01*
%TO.C,U101*%
X107700000Y-109590000D02*
X107700000Y-115760000D01*
X114500000Y-109590000D02*
X114500000Y-114210000D01*
%TO.C,C117*%
X109760000Y-87088748D02*
X109760000Y-88511252D01*
X107040000Y-87088748D02*
X107040000Y-88511252D01*
%TO.C,C116*%
X99760000Y-87088748D02*
X99760000Y-88511252D01*
X97040000Y-87088748D02*
X97040000Y-88511252D01*
%TO.C,R121*%
X120522500Y-100987258D02*
X120522500Y-100512742D01*
X119477500Y-100987258D02*
X119477500Y-100512742D01*
%TO.C,R119*%
X122887258Y-111477500D02*
X122412742Y-111477500D01*
X122887258Y-112522500D02*
X122412742Y-112522500D01*
%TO.C,R118*%
X122412742Y-110772500D02*
X122887258Y-110772500D01*
X122412742Y-109727500D02*
X122887258Y-109727500D01*
%TO.C,R117*%
X122887258Y-113127500D02*
X122412742Y-113127500D01*
X122887258Y-114172500D02*
X122412742Y-114172500D01*
%TO.C,J102*%
X121270000Y-98570000D02*
X122600000Y-98570000D01*
X121270000Y-99900000D02*
X121270000Y-98570000D01*
X121270000Y-101170000D02*
X123930000Y-101170000D01*
X123930000Y-101170000D02*
X123930000Y-108850000D01*
X121270000Y-101170000D02*
X121270000Y-108850000D01*
X121270000Y-108850000D02*
X123930000Y-108850000D01*
%TO.C,C102*%
X110692164Y-117360000D02*
X110907836Y-117360000D01*
X110692164Y-116640000D02*
X110907836Y-116640000D01*
%TO.C,C108*%
X95890000Y-110259420D02*
X95890000Y-110540580D01*
X96910000Y-110259420D02*
X96910000Y-110540580D01*
%TO.C,C107*%
X109110000Y-105740580D02*
X109110000Y-105459420D01*
X108090000Y-105740580D02*
X108090000Y-105459420D01*
%TO.C,C106*%
X117865580Y-114790000D02*
X117584420Y-114790000D01*
X117865580Y-115810000D02*
X117584420Y-115810000D01*
%TO.C,C105*%
X105815580Y-107390000D02*
X105534420Y-107390000D01*
X105815580Y-108410000D02*
X105534420Y-108410000D01*
%TO.C,C104*%
X115935000Y-116340580D02*
X115935000Y-116059420D01*
X114915000Y-116340580D02*
X114915000Y-116059420D01*
%TO.C,C103*%
X112490000Y-118859420D02*
X112490000Y-119140580D01*
X113510000Y-118859420D02*
X113510000Y-119140580D01*
%TO.C,R116*%
X121062258Y-116477500D02*
X120587742Y-116477500D01*
X121062258Y-117522500D02*
X120587742Y-117522500D01*
%TO.C,R115*%
X121062258Y-118177500D02*
X120587742Y-118177500D01*
X121062258Y-119222500D02*
X120587742Y-119222500D01*
%TO.C,R114*%
X109362742Y-94522500D02*
X109837258Y-94522500D01*
X109362742Y-93477500D02*
X109837258Y-93477500D01*
%TO.C,R113*%
X109362742Y-96122500D02*
X109837258Y-96122500D01*
X109362742Y-95077500D02*
X109837258Y-95077500D01*
%TO.C,R112*%
X109362742Y-97922500D02*
X109837258Y-97922500D01*
X109362742Y-96877500D02*
X109837258Y-96877500D01*
%TO.C,R111*%
X112412258Y-120777500D02*
X111937742Y-120777500D01*
X112412258Y-121822500D02*
X111937742Y-121822500D01*
%TO.C,Q102*%
X103485000Y-108160000D02*
X103785000Y-108160000D01*
X98715000Y-108160000D02*
X98415000Y-108160000D01*
X98765000Y-102040000D02*
X98415000Y-102040000D01*
X103785000Y-108160000D02*
X103785000Y-102040000D01*
X98415000Y-108160000D02*
X98415000Y-102040000D01*
%TO.C,R108*%
X116137258Y-119377500D02*
X115662742Y-119377500D01*
X116137258Y-120422500D02*
X115662742Y-120422500D01*
%TO.C,R107*%
X120587742Y-115822500D02*
X121062258Y-115822500D01*
X120587742Y-114777500D02*
X121062258Y-114777500D01*
%TO.C,R106*%
X94037258Y-110677500D02*
X93562742Y-110677500D01*
X94037258Y-111722500D02*
X93562742Y-111722500D01*
%TO.C,R104*%
X117962258Y-116477500D02*
X117487742Y-116477500D01*
X117962258Y-117522500D02*
X117487742Y-117522500D01*
%TO.C,R103*%
X110237742Y-119122500D02*
X110712258Y-119122500D01*
X110237742Y-118077500D02*
X110712258Y-118077500D01*
%TO.C,R101*%
X109312258Y-120777500D02*
X108837742Y-120777500D01*
X109312258Y-121822500D02*
X108837742Y-121822500D01*
%TO.C,Q101*%
X103485000Y-115510000D02*
X103785000Y-115510000D01*
X98715000Y-115510000D02*
X98415000Y-115510000D01*
X98765000Y-109390000D02*
X98415000Y-109390000D01*
X103785000Y-115510000D02*
X103785000Y-109390000D01*
X98415000Y-115510000D02*
X98415000Y-109390000D01*
%TO.C,D101*%
X104420000Y-106160000D02*
X104420000Y-104700000D01*
X107580000Y-106160000D02*
X107580000Y-104000000D01*
X107580000Y-106160000D02*
X106650000Y-106160000D01*
X104420000Y-106160000D02*
X105350000Y-106160000D01*
%TO.C,C111*%
X96386252Y-112240000D02*
X94963748Y-112240000D01*
X96386252Y-114960000D02*
X94963748Y-114960000D01*
%TO.C,C109*%
X100340000Y-87088748D02*
X100340000Y-88511252D01*
X103060000Y-87088748D02*
X103060000Y-88511252D01*
%TO.C,C101*%
X107190000Y-117459420D02*
X107190000Y-117740580D01*
X108210000Y-117459420D02*
X108210000Y-117740580D01*
%TO.C,R120*%
D14*
X117086666Y-104783333D02*
X116753333Y-105016666D01*
X117086666Y-105183333D02*
X116386666Y-105183333D01*
X116386666Y-104916666D01*
X116420000Y-104850000D01*
X116453333Y-104816666D01*
X116520000Y-104783333D01*
X116620000Y-104783333D01*
X116686666Y-104816666D01*
X116720000Y-104850000D01*
X116753333Y-104916666D01*
X116753333Y-105183333D01*
X117086666Y-104116666D02*
X117086666Y-104516666D01*
X117086666Y-104316666D02*
X116386666Y-104316666D01*
X116486666Y-104383333D01*
X116553333Y-104450000D01*
X116586666Y-104516666D01*
X116453333Y-103850000D02*
X116420000Y-103816666D01*
X116386666Y-103750000D01*
X116386666Y-103583333D01*
X116420000Y-103516666D01*
X116453333Y-103483333D01*
X116520000Y-103450000D01*
X116586666Y-103450000D01*
X116686666Y-103483333D01*
X117086666Y-103883333D01*
X117086666Y-103450000D01*
X116386666Y-103016666D02*
X116386666Y-102950000D01*
X116420000Y-102883333D01*
X116453333Y-102850000D01*
X116520000Y-102816666D01*
X116653333Y-102783333D01*
X116820000Y-102783333D01*
X116953333Y-102816666D01*
X117020000Y-102850000D01*
X117053333Y-102883333D01*
X117086666Y-102950000D01*
X117086666Y-103016666D01*
X117053333Y-103083333D01*
X117020000Y-103116666D01*
X116953333Y-103150000D01*
X116820000Y-103183333D01*
X116653333Y-103183333D01*
X116520000Y-103150000D01*
X116453333Y-103116666D01*
X116420000Y-103083333D01*
X116386666Y-103016666D01*
%TO.C,D103*%
X123116666Y-95516666D02*
X123116666Y-94816666D01*
X123283333Y-94816666D01*
X123383333Y-94850000D01*
X123450000Y-94916666D01*
X123483333Y-94983333D01*
X123516666Y-95116666D01*
X123516666Y-95216666D01*
X123483333Y-95350000D01*
X123450000Y-95416666D01*
X123383333Y-95483333D01*
X123283333Y-95516666D01*
X123116666Y-95516666D01*
X124183333Y-95516666D02*
X123783333Y-95516666D01*
X123983333Y-95516666D02*
X123983333Y-94816666D01*
X123916666Y-94916666D01*
X123850000Y-94983333D01*
X123783333Y-95016666D01*
X124616666Y-94816666D02*
X124683333Y-94816666D01*
X124750000Y-94850000D01*
X124783333Y-94883333D01*
X124816666Y-94950000D01*
X124850000Y-95083333D01*
X124850000Y-95250000D01*
X124816666Y-95383333D01*
X124783333Y-95450000D01*
X124750000Y-95483333D01*
X124683333Y-95516666D01*
X124616666Y-95516666D01*
X124550000Y-95483333D01*
X124516666Y-95450000D01*
X124483333Y-95383333D01*
X124450000Y-95250000D01*
X124450000Y-95083333D01*
X124483333Y-94950000D01*
X124516666Y-94883333D01*
X124550000Y-94850000D01*
X124616666Y-94816666D01*
X125083333Y-94816666D02*
X125516666Y-94816666D01*
X125283333Y-95083333D01*
X125383333Y-95083333D01*
X125450000Y-95116666D01*
X125483333Y-95150000D01*
X125516666Y-95216666D01*
X125516666Y-95383333D01*
X125483333Y-95450000D01*
X125450000Y-95483333D01*
X125383333Y-95516666D01*
X125183333Y-95516666D01*
X125116666Y-95483333D01*
X125083333Y-95450000D01*
%TO.C,D102*%
X117180666Y-110266666D02*
X117180666Y-109566666D01*
X117347333Y-109566666D01*
X117447333Y-109600000D01*
X117514000Y-109666666D01*
X117547333Y-109733333D01*
X117580666Y-109866666D01*
X117580666Y-109966666D01*
X117547333Y-110100000D01*
X117514000Y-110166666D01*
X117447333Y-110233333D01*
X117347333Y-110266666D01*
X117180666Y-110266666D01*
X118247333Y-110266666D02*
X117847333Y-110266666D01*
X118047333Y-110266666D02*
X118047333Y-109566666D01*
X117980666Y-109666666D01*
X117914000Y-109733333D01*
X117847333Y-109766666D01*
X118680666Y-109566666D02*
X118747333Y-109566666D01*
X118814000Y-109600000D01*
X118847333Y-109633333D01*
X118880666Y-109700000D01*
X118914000Y-109833333D01*
X118914000Y-110000000D01*
X118880666Y-110133333D01*
X118847333Y-110200000D01*
X118814000Y-110233333D01*
X118747333Y-110266666D01*
X118680666Y-110266666D01*
X118614000Y-110233333D01*
X118580666Y-110200000D01*
X118547333Y-110133333D01*
X118514000Y-110000000D01*
X118514000Y-109833333D01*
X118547333Y-109700000D01*
X118580666Y-109633333D01*
X118614000Y-109600000D01*
X118680666Y-109566666D01*
X119180666Y-109633333D02*
X119214000Y-109600000D01*
X119280666Y-109566666D01*
X119447333Y-109566666D01*
X119514000Y-109600000D01*
X119547333Y-109633333D01*
X119580666Y-109700000D01*
X119580666Y-109766666D01*
X119547333Y-109866666D01*
X119147333Y-110266666D01*
X119580666Y-110266666D01*
%TO.C,C114*%
X98616666Y-80050000D02*
X98583333Y-80083333D01*
X98483333Y-80116666D01*
X98416666Y-80116666D01*
X98316666Y-80083333D01*
X98250000Y-80016666D01*
X98216666Y-79950000D01*
X98183333Y-79816666D01*
X98183333Y-79716666D01*
X98216666Y-79583333D01*
X98250000Y-79516666D01*
X98316666Y-79450000D01*
X98416666Y-79416666D01*
X98483333Y-79416666D01*
X98583333Y-79450000D01*
X98616666Y-79483333D01*
X99283333Y-80116666D02*
X98883333Y-80116666D01*
X99083333Y-80116666D02*
X99083333Y-79416666D01*
X99016666Y-79516666D01*
X98950000Y-79583333D01*
X98883333Y-79616666D01*
X99950000Y-80116666D02*
X99550000Y-80116666D01*
X99750000Y-80116666D02*
X99750000Y-79416666D01*
X99683333Y-79516666D01*
X99616666Y-79583333D01*
X99550000Y-79616666D01*
X100550000Y-79650000D02*
X100550000Y-80116666D01*
X100383333Y-79383333D02*
X100216666Y-79883333D01*
X100650000Y-79883333D01*
%TO.C,C113*%
X112916666Y-76050000D02*
X112883333Y-76083333D01*
X112783333Y-76116666D01*
X112716666Y-76116666D01*
X112616666Y-76083333D01*
X112550000Y-76016666D01*
X112516666Y-75950000D01*
X112483333Y-75816666D01*
X112483333Y-75716666D01*
X112516666Y-75583333D01*
X112550000Y-75516666D01*
X112616666Y-75450000D01*
X112716666Y-75416666D01*
X112783333Y-75416666D01*
X112883333Y-75450000D01*
X112916666Y-75483333D01*
X113583333Y-76116666D02*
X113183333Y-76116666D01*
X113383333Y-76116666D02*
X113383333Y-75416666D01*
X113316666Y-75516666D01*
X113250000Y-75583333D01*
X113183333Y-75616666D01*
X114250000Y-76116666D02*
X113850000Y-76116666D01*
X114050000Y-76116666D02*
X114050000Y-75416666D01*
X113983333Y-75516666D01*
X113916666Y-75583333D01*
X113850000Y-75616666D01*
X114483333Y-75416666D02*
X114916666Y-75416666D01*
X114683333Y-75683333D01*
X114783333Y-75683333D01*
X114850000Y-75716666D01*
X114883333Y-75750000D01*
X114916666Y-75816666D01*
X114916666Y-75983333D01*
X114883333Y-76050000D01*
X114850000Y-76083333D01*
X114783333Y-76116666D01*
X114583333Y-76116666D01*
X114516666Y-76083333D01*
X114483333Y-76050000D01*
%TO.C,C118*%
X89616666Y-86750000D02*
X89583333Y-86783333D01*
X89483333Y-86816666D01*
X89416666Y-86816666D01*
X89316666Y-86783333D01*
X89250000Y-86716666D01*
X89216666Y-86650000D01*
X89183333Y-86516666D01*
X89183333Y-86416666D01*
X89216666Y-86283333D01*
X89250000Y-86216666D01*
X89316666Y-86150000D01*
X89416666Y-86116666D01*
X89483333Y-86116666D01*
X89583333Y-86150000D01*
X89616666Y-86183333D01*
X90283333Y-86816666D02*
X89883333Y-86816666D01*
X90083333Y-86816666D02*
X90083333Y-86116666D01*
X90016666Y-86216666D01*
X89950000Y-86283333D01*
X89883333Y-86316666D01*
X90950000Y-86816666D02*
X90550000Y-86816666D01*
X90750000Y-86816666D02*
X90750000Y-86116666D01*
X90683333Y-86216666D01*
X90616666Y-86283333D01*
X90550000Y-86316666D01*
X91350000Y-86416666D02*
X91283333Y-86383333D01*
X91250000Y-86350000D01*
X91216666Y-86283333D01*
X91216666Y-86250000D01*
X91250000Y-86183333D01*
X91283333Y-86150000D01*
X91350000Y-86116666D01*
X91483333Y-86116666D01*
X91550000Y-86150000D01*
X91583333Y-86183333D01*
X91616666Y-86250000D01*
X91616666Y-86283333D01*
X91583333Y-86350000D01*
X91550000Y-86383333D01*
X91483333Y-86416666D01*
X91350000Y-86416666D01*
X91283333Y-86450000D01*
X91250000Y-86483333D01*
X91216666Y-86550000D01*
X91216666Y-86683333D01*
X91250000Y-86750000D01*
X91283333Y-86783333D01*
X91350000Y-86816666D01*
X91483333Y-86816666D01*
X91550000Y-86783333D01*
X91583333Y-86750000D01*
X91616666Y-86683333D01*
X91616666Y-86550000D01*
X91583333Y-86483333D01*
X91550000Y-86450000D01*
X91483333Y-86416666D01*
%TO.C,C112*%
X112916666Y-67050000D02*
X112883333Y-67083333D01*
X112783333Y-67116666D01*
X112716666Y-67116666D01*
X112616666Y-67083333D01*
X112550000Y-67016666D01*
X112516666Y-66950000D01*
X112483333Y-66816666D01*
X112483333Y-66716666D01*
X112516666Y-66583333D01*
X112550000Y-66516666D01*
X112616666Y-66450000D01*
X112716666Y-66416666D01*
X112783333Y-66416666D01*
X112883333Y-66450000D01*
X112916666Y-66483333D01*
X113583333Y-67116666D02*
X113183333Y-67116666D01*
X113383333Y-67116666D02*
X113383333Y-66416666D01*
X113316666Y-66516666D01*
X113250000Y-66583333D01*
X113183333Y-66616666D01*
X114250000Y-67116666D02*
X113850000Y-67116666D01*
X114050000Y-67116666D02*
X114050000Y-66416666D01*
X113983333Y-66516666D01*
X113916666Y-66583333D01*
X113850000Y-66616666D01*
X114516666Y-66483333D02*
X114550000Y-66450000D01*
X114616666Y-66416666D01*
X114783333Y-66416666D01*
X114850000Y-66450000D01*
X114883333Y-66483333D01*
X114916666Y-66550000D01*
X114916666Y-66616666D01*
X114883333Y-66716666D01*
X114483333Y-67116666D01*
X114916666Y-67116666D01*
%TO.C,C110*%
X99616666Y-66290000D02*
X99583333Y-66323333D01*
X99483333Y-66356666D01*
X99416666Y-66356666D01*
X99316666Y-66323333D01*
X99250000Y-66256666D01*
X99216666Y-66190000D01*
X99183333Y-66056666D01*
X99183333Y-65956666D01*
X99216666Y-65823333D01*
X99250000Y-65756666D01*
X99316666Y-65690000D01*
X99416666Y-65656666D01*
X99483333Y-65656666D01*
X99583333Y-65690000D01*
X99616666Y-65723333D01*
X100283333Y-66356666D02*
X99883333Y-66356666D01*
X100083333Y-66356666D02*
X100083333Y-65656666D01*
X100016666Y-65756666D01*
X99950000Y-65823333D01*
X99883333Y-65856666D01*
X100950000Y-66356666D02*
X100550000Y-66356666D01*
X100750000Y-66356666D02*
X100750000Y-65656666D01*
X100683333Y-65756666D01*
X100616666Y-65823333D01*
X100550000Y-65856666D01*
X101383333Y-65656666D02*
X101450000Y-65656666D01*
X101516666Y-65690000D01*
X101550000Y-65723333D01*
X101583333Y-65790000D01*
X101616666Y-65923333D01*
X101616666Y-66090000D01*
X101583333Y-66223333D01*
X101550000Y-66290000D01*
X101516666Y-66323333D01*
X101450000Y-66356666D01*
X101383333Y-66356666D01*
X101316666Y-66323333D01*
X101283333Y-66290000D01*
X101250000Y-66223333D01*
X101216666Y-66090000D01*
X101216666Y-65923333D01*
X101250000Y-65790000D01*
X101283333Y-65723333D01*
X101316666Y-65690000D01*
X101383333Y-65656666D01*
%TO.C,J104*%
X83800000Y-113346666D02*
X83800000Y-113846666D01*
X83766666Y-113946666D01*
X83700000Y-114013333D01*
X83600000Y-114046666D01*
X83533333Y-114046666D01*
X84500000Y-114046666D02*
X84100000Y-114046666D01*
X84300000Y-114046666D02*
X84300000Y-113346666D01*
X84233333Y-113446666D01*
X84166666Y-113513333D01*
X84100000Y-113546666D01*
X84933333Y-113346666D02*
X85000000Y-113346666D01*
X85066666Y-113380000D01*
X85100000Y-113413333D01*
X85133333Y-113480000D01*
X85166666Y-113613333D01*
X85166666Y-113780000D01*
X85133333Y-113913333D01*
X85100000Y-113980000D01*
X85066666Y-114013333D01*
X85000000Y-114046666D01*
X84933333Y-114046666D01*
X84866666Y-114013333D01*
X84833333Y-113980000D01*
X84800000Y-113913333D01*
X84766666Y-113780000D01*
X84766666Y-113613333D01*
X84800000Y-113480000D01*
X84833333Y-113413333D01*
X84866666Y-113380000D01*
X84933333Y-113346666D01*
X85766666Y-113580000D02*
X85766666Y-114046666D01*
X85600000Y-113313333D02*
X85433333Y-113813333D01*
X85866666Y-113813333D01*
%TO.C,R123*%
X118886666Y-104783333D02*
X118553333Y-105016666D01*
X118886666Y-105183333D02*
X118186666Y-105183333D01*
X118186666Y-104916666D01*
X118220000Y-104850000D01*
X118253333Y-104816666D01*
X118320000Y-104783333D01*
X118420000Y-104783333D01*
X118486666Y-104816666D01*
X118520000Y-104850000D01*
X118553333Y-104916666D01*
X118553333Y-105183333D01*
X118886666Y-104116666D02*
X118886666Y-104516666D01*
X118886666Y-104316666D02*
X118186666Y-104316666D01*
X118286666Y-104383333D01*
X118353333Y-104450000D01*
X118386666Y-104516666D01*
X118253333Y-103850000D02*
X118220000Y-103816666D01*
X118186666Y-103750000D01*
X118186666Y-103583333D01*
X118220000Y-103516666D01*
X118253333Y-103483333D01*
X118320000Y-103450000D01*
X118386666Y-103450000D01*
X118486666Y-103483333D01*
X118886666Y-103883333D01*
X118886666Y-103450000D01*
X118186666Y-103216666D02*
X118186666Y-102783333D01*
X118453333Y-103016666D01*
X118453333Y-102916666D01*
X118486666Y-102850000D01*
X118520000Y-102816666D01*
X118586666Y-102783333D01*
X118753333Y-102783333D01*
X118820000Y-102816666D01*
X118853333Y-102850000D01*
X118886666Y-102916666D01*
X118886666Y-103116666D01*
X118853333Y-103183333D01*
X118820000Y-103216666D01*
%TO.C,C121*%
X104898000Y-117623333D02*
X104931333Y-117656666D01*
X104964666Y-117756666D01*
X104964666Y-117823333D01*
X104931333Y-117923333D01*
X104864666Y-117990000D01*
X104798000Y-118023333D01*
X104664666Y-118056666D01*
X104564666Y-118056666D01*
X104431333Y-118023333D01*
X104364666Y-117990000D01*
X104298000Y-117923333D01*
X104264666Y-117823333D01*
X104264666Y-117756666D01*
X104298000Y-117656666D01*
X104331333Y-117623333D01*
X104964666Y-116956666D02*
X104964666Y-117356666D01*
X104964666Y-117156666D02*
X104264666Y-117156666D01*
X104364666Y-117223333D01*
X104431333Y-117290000D01*
X104464666Y-117356666D01*
X104331333Y-116690000D02*
X104298000Y-116656666D01*
X104264666Y-116590000D01*
X104264666Y-116423333D01*
X104298000Y-116356666D01*
X104331333Y-116323333D01*
X104398000Y-116290000D01*
X104464666Y-116290000D01*
X104564666Y-116323333D01*
X104964666Y-116723333D01*
X104964666Y-116290000D01*
X104964666Y-115623333D02*
X104964666Y-116023333D01*
X104964666Y-115823333D02*
X104264666Y-115823333D01*
X104364666Y-115890000D01*
X104431333Y-115956666D01*
X104464666Y-116023333D01*
%TO.C,C120*%
X94891666Y-119450000D02*
X94858333Y-119483333D01*
X94758333Y-119516666D01*
X94691666Y-119516666D01*
X94591666Y-119483333D01*
X94525000Y-119416666D01*
X94491666Y-119350000D01*
X94458333Y-119216666D01*
X94458333Y-119116666D01*
X94491666Y-118983333D01*
X94525000Y-118916666D01*
X94591666Y-118850000D01*
X94691666Y-118816666D01*
X94758333Y-118816666D01*
X94858333Y-118850000D01*
X94891666Y-118883333D01*
X95558333Y-119516666D02*
X95158333Y-119516666D01*
X95358333Y-119516666D02*
X95358333Y-118816666D01*
X95291666Y-118916666D01*
X95225000Y-118983333D01*
X95158333Y-119016666D01*
X95825000Y-118883333D02*
X95858333Y-118850000D01*
X95925000Y-118816666D01*
X96091666Y-118816666D01*
X96158333Y-118850000D01*
X96191666Y-118883333D01*
X96225000Y-118950000D01*
X96225000Y-119016666D01*
X96191666Y-119116666D01*
X95791666Y-119516666D01*
X96225000Y-119516666D01*
X96658333Y-118816666D02*
X96725000Y-118816666D01*
X96791666Y-118850000D01*
X96825000Y-118883333D01*
X96858333Y-118950000D01*
X96891666Y-119083333D01*
X96891666Y-119250000D01*
X96858333Y-119383333D01*
X96825000Y-119450000D01*
X96791666Y-119483333D01*
X96725000Y-119516666D01*
X96658333Y-119516666D01*
X96591666Y-119483333D01*
X96558333Y-119450000D01*
X96525000Y-119383333D01*
X96491666Y-119250000D01*
X96491666Y-119083333D01*
X96525000Y-118950000D01*
X96558333Y-118883333D01*
X96591666Y-118850000D01*
X96658333Y-118816666D01*
%TO.C,C119*%
X90928000Y-114067333D02*
X90961333Y-114100666D01*
X90994666Y-114200666D01*
X90994666Y-114267333D01*
X90961333Y-114367333D01*
X90894666Y-114434000D01*
X90828000Y-114467333D01*
X90694666Y-114500666D01*
X90594666Y-114500666D01*
X90461333Y-114467333D01*
X90394666Y-114434000D01*
X90328000Y-114367333D01*
X90294666Y-114267333D01*
X90294666Y-114200666D01*
X90328000Y-114100666D01*
X90361333Y-114067333D01*
X90994666Y-113400666D02*
X90994666Y-113800666D01*
X90994666Y-113600666D02*
X90294666Y-113600666D01*
X90394666Y-113667333D01*
X90461333Y-113734000D01*
X90494666Y-113800666D01*
X90994666Y-112734000D02*
X90994666Y-113134000D01*
X90994666Y-112934000D02*
X90294666Y-112934000D01*
X90394666Y-113000666D01*
X90461333Y-113067333D01*
X90494666Y-113134000D01*
X90994666Y-112400666D02*
X90994666Y-112267333D01*
X90961333Y-112200666D01*
X90928000Y-112167333D01*
X90828000Y-112100666D01*
X90694666Y-112067333D01*
X90428000Y-112067333D01*
X90361333Y-112100666D01*
X90328000Y-112134000D01*
X90294666Y-112200666D01*
X90294666Y-112334000D01*
X90328000Y-112400666D01*
X90361333Y-112434000D01*
X90428000Y-112467333D01*
X90594666Y-112467333D01*
X90661333Y-112434000D01*
X90694666Y-112400666D01*
X90728000Y-112334000D01*
X90728000Y-112200666D01*
X90694666Y-112134000D01*
X90661333Y-112100666D01*
X90594666Y-112067333D01*
%TO.C,C115*%
X104316666Y-85250000D02*
X104283333Y-85283333D01*
X104183333Y-85316666D01*
X104116666Y-85316666D01*
X104016666Y-85283333D01*
X103950000Y-85216666D01*
X103916666Y-85150000D01*
X103883333Y-85016666D01*
X103883333Y-84916666D01*
X103916666Y-84783333D01*
X103950000Y-84716666D01*
X104016666Y-84650000D01*
X104116666Y-84616666D01*
X104183333Y-84616666D01*
X104283333Y-84650000D01*
X104316666Y-84683333D01*
X104983333Y-85316666D02*
X104583333Y-85316666D01*
X104783333Y-85316666D02*
X104783333Y-84616666D01*
X104716666Y-84716666D01*
X104650000Y-84783333D01*
X104583333Y-84816666D01*
X105650000Y-85316666D02*
X105250000Y-85316666D01*
X105450000Y-85316666D02*
X105450000Y-84616666D01*
X105383333Y-84716666D01*
X105316666Y-84783333D01*
X105250000Y-84816666D01*
X106283333Y-84616666D02*
X105950000Y-84616666D01*
X105916666Y-84950000D01*
X105950000Y-84916666D01*
X106016666Y-84883333D01*
X106183333Y-84883333D01*
X106250000Y-84916666D01*
X106283333Y-84950000D01*
X106316666Y-85016666D01*
X106316666Y-85183333D01*
X106283333Y-85250000D01*
X106250000Y-85283333D01*
X106183333Y-85316666D01*
X106016666Y-85316666D01*
X105950000Y-85283333D01*
X105916666Y-85250000D01*
%TO.C,L101*%
X69316666Y-112883333D02*
X69316666Y-113216666D01*
X68616666Y-113216666D01*
X69316666Y-112283333D02*
X69316666Y-112683333D01*
X69316666Y-112483333D02*
X68616666Y-112483333D01*
X68716666Y-112550000D01*
X68783333Y-112616666D01*
X68816666Y-112683333D01*
X68616666Y-111850000D02*
X68616666Y-111783333D01*
X68650000Y-111716666D01*
X68683333Y-111683333D01*
X68750000Y-111650000D01*
X68883333Y-111616666D01*
X69050000Y-111616666D01*
X69183333Y-111650000D01*
X69250000Y-111683333D01*
X69283333Y-111716666D01*
X69316666Y-111783333D01*
X69316666Y-111850000D01*
X69283333Y-111916666D01*
X69250000Y-111950000D01*
X69183333Y-111983333D01*
X69050000Y-112016666D01*
X68883333Y-112016666D01*
X68750000Y-111983333D01*
X68683333Y-111950000D01*
X68650000Y-111916666D01*
X68616666Y-111850000D01*
X69316666Y-110950000D02*
X69316666Y-111350000D01*
X69316666Y-111150000D02*
X68616666Y-111150000D01*
X68716666Y-111216666D01*
X68783333Y-111283333D01*
X68816666Y-111350000D01*
%TO.C,U101*%
X114678666Y-112960000D02*
X115245333Y-112960000D01*
X115312000Y-112926666D01*
X115345333Y-112893333D01*
X115378666Y-112826666D01*
X115378666Y-112693333D01*
X115345333Y-112626666D01*
X115312000Y-112593333D01*
X115245333Y-112560000D01*
X114678666Y-112560000D01*
X115378666Y-111860000D02*
X115378666Y-112260000D01*
X115378666Y-112060000D02*
X114678666Y-112060000D01*
X114778666Y-112126666D01*
X114845333Y-112193333D01*
X114878666Y-112260000D01*
X114678666Y-111426666D02*
X114678666Y-111360000D01*
X114712000Y-111293333D01*
X114745333Y-111260000D01*
X114812000Y-111226666D01*
X114945333Y-111193333D01*
X115112000Y-111193333D01*
X115245333Y-111226666D01*
X115312000Y-111260000D01*
X115345333Y-111293333D01*
X115378666Y-111360000D01*
X115378666Y-111426666D01*
X115345333Y-111493333D01*
X115312000Y-111526666D01*
X115245333Y-111560000D01*
X115112000Y-111593333D01*
X114945333Y-111593333D01*
X114812000Y-111560000D01*
X114745333Y-111526666D01*
X114712000Y-111493333D01*
X114678666Y-111426666D01*
X115378666Y-110526666D02*
X115378666Y-110926666D01*
X115378666Y-110726666D02*
X114678666Y-110726666D01*
X114778666Y-110793333D01*
X114845333Y-110860000D01*
X114878666Y-110926666D01*
%TO.C,C117*%
X106250000Y-87283333D02*
X106283333Y-87316666D01*
X106316666Y-87416666D01*
X106316666Y-87483333D01*
X106283333Y-87583333D01*
X106216666Y-87650000D01*
X106150000Y-87683333D01*
X106016666Y-87716666D01*
X105916666Y-87716666D01*
X105783333Y-87683333D01*
X105716666Y-87650000D01*
X105650000Y-87583333D01*
X105616666Y-87483333D01*
X105616666Y-87416666D01*
X105650000Y-87316666D01*
X105683333Y-87283333D01*
X106316666Y-86616666D02*
X106316666Y-87016666D01*
X106316666Y-86816666D02*
X105616666Y-86816666D01*
X105716666Y-86883333D01*
X105783333Y-86950000D01*
X105816666Y-87016666D01*
X106316666Y-85950000D02*
X106316666Y-86350000D01*
X106316666Y-86150000D02*
X105616666Y-86150000D01*
X105716666Y-86216666D01*
X105783333Y-86283333D01*
X105816666Y-86350000D01*
X105616666Y-85716666D02*
X105616666Y-85250000D01*
X106316666Y-85550000D01*
%TO.C,C116*%
X97616666Y-90850000D02*
X97583333Y-90883333D01*
X97483333Y-90916666D01*
X97416666Y-90916666D01*
X97316666Y-90883333D01*
X97250000Y-90816666D01*
X97216666Y-90750000D01*
X97183333Y-90616666D01*
X97183333Y-90516666D01*
X97216666Y-90383333D01*
X97250000Y-90316666D01*
X97316666Y-90250000D01*
X97416666Y-90216666D01*
X97483333Y-90216666D01*
X97583333Y-90250000D01*
X97616666Y-90283333D01*
X98283333Y-90916666D02*
X97883333Y-90916666D01*
X98083333Y-90916666D02*
X98083333Y-90216666D01*
X98016666Y-90316666D01*
X97950000Y-90383333D01*
X97883333Y-90416666D01*
X98950000Y-90916666D02*
X98550000Y-90916666D01*
X98750000Y-90916666D02*
X98750000Y-90216666D01*
X98683333Y-90316666D01*
X98616666Y-90383333D01*
X98550000Y-90416666D01*
X99550000Y-90216666D02*
X99416666Y-90216666D01*
X99350000Y-90250000D01*
X99316666Y-90283333D01*
X99250000Y-90383333D01*
X99216666Y-90516666D01*
X99216666Y-90783333D01*
X99250000Y-90850000D01*
X99283333Y-90883333D01*
X99350000Y-90916666D01*
X99483333Y-90916666D01*
X99550000Y-90883333D01*
X99583333Y-90850000D01*
X99616666Y-90783333D01*
X99616666Y-90616666D01*
X99583333Y-90550000D01*
X99550000Y-90516666D01*
X99483333Y-90483333D01*
X99350000Y-90483333D01*
X99283333Y-90516666D01*
X99250000Y-90550000D01*
X99216666Y-90616666D01*
%TO.C,J103*%
X99100000Y-62916666D02*
X99100000Y-63416666D01*
X99066666Y-63516666D01*
X99000000Y-63583333D01*
X98900000Y-63616666D01*
X98833333Y-63616666D01*
X99800000Y-63616666D02*
X99400000Y-63616666D01*
X99600000Y-63616666D02*
X99600000Y-62916666D01*
X99533333Y-63016666D01*
X99466666Y-63083333D01*
X99400000Y-63116666D01*
X100233333Y-62916666D02*
X100300000Y-62916666D01*
X100366666Y-62950000D01*
X100400000Y-62983333D01*
X100433333Y-63050000D01*
X100466666Y-63183333D01*
X100466666Y-63350000D01*
X100433333Y-63483333D01*
X100400000Y-63550000D01*
X100366666Y-63583333D01*
X100300000Y-63616666D01*
X100233333Y-63616666D01*
X100166666Y-63583333D01*
X100133333Y-63550000D01*
X100100000Y-63483333D01*
X100066666Y-63350000D01*
X100066666Y-63183333D01*
X100100000Y-63050000D01*
X100133333Y-62983333D01*
X100166666Y-62950000D01*
X100233333Y-62916666D01*
X100700000Y-62916666D02*
X101133333Y-62916666D01*
X100900000Y-63183333D01*
X101000000Y-63183333D01*
X101066666Y-63216666D01*
X101100000Y-63250000D01*
X101133333Y-63316666D01*
X101133333Y-63483333D01*
X101100000Y-63550000D01*
X101066666Y-63583333D01*
X101000000Y-63616666D01*
X100800000Y-63616666D01*
X100733333Y-63583333D01*
X100700000Y-63550000D01*
%TO.C,J101*%
X83800000Y-124516666D02*
X83800000Y-125016666D01*
X83766666Y-125116666D01*
X83700000Y-125183333D01*
X83600000Y-125216666D01*
X83533333Y-125216666D01*
X84500000Y-125216666D02*
X84100000Y-125216666D01*
X84300000Y-125216666D02*
X84300000Y-124516666D01*
X84233333Y-124616666D01*
X84166666Y-124683333D01*
X84100000Y-124716666D01*
X84933333Y-124516666D02*
X85000000Y-124516666D01*
X85066666Y-124550000D01*
X85100000Y-124583333D01*
X85133333Y-124650000D01*
X85166666Y-124783333D01*
X85166666Y-124950000D01*
X85133333Y-125083333D01*
X85100000Y-125150000D01*
X85066666Y-125183333D01*
X85000000Y-125216666D01*
X84933333Y-125216666D01*
X84866666Y-125183333D01*
X84833333Y-125150000D01*
X84800000Y-125083333D01*
X84766666Y-124950000D01*
X84766666Y-124783333D01*
X84800000Y-124650000D01*
X84833333Y-124583333D01*
X84866666Y-124550000D01*
X84933333Y-124516666D01*
X85833333Y-125216666D02*
X85433333Y-125216666D01*
X85633333Y-125216666D02*
X85633333Y-124516666D01*
X85566666Y-124616666D01*
X85500000Y-124683333D01*
X85433333Y-124716666D01*
%TO.C,R121*%
X118886666Y-101533333D02*
X118553333Y-101766666D01*
X118886666Y-101933333D02*
X118186666Y-101933333D01*
X118186666Y-101666666D01*
X118220000Y-101600000D01*
X118253333Y-101566666D01*
X118320000Y-101533333D01*
X118420000Y-101533333D01*
X118486666Y-101566666D01*
X118520000Y-101600000D01*
X118553333Y-101666666D01*
X118553333Y-101933333D01*
X118886666Y-100866666D02*
X118886666Y-101266666D01*
X118886666Y-101066666D02*
X118186666Y-101066666D01*
X118286666Y-101133333D01*
X118353333Y-101200000D01*
X118386666Y-101266666D01*
X118253333Y-100600000D02*
X118220000Y-100566666D01*
X118186666Y-100500000D01*
X118186666Y-100333333D01*
X118220000Y-100266666D01*
X118253333Y-100233333D01*
X118320000Y-100200000D01*
X118386666Y-100200000D01*
X118486666Y-100233333D01*
X118886666Y-100633333D01*
X118886666Y-100200000D01*
X118886666Y-99533333D02*
X118886666Y-99933333D01*
X118886666Y-99733333D02*
X118186666Y-99733333D01*
X118286666Y-99800000D01*
X118353333Y-99866666D01*
X118386666Y-99933333D01*
%TO.C,R119*%
X124946666Y-112316666D02*
X124713333Y-111983333D01*
X124546666Y-112316666D02*
X124546666Y-111616666D01*
X124813333Y-111616666D01*
X124880000Y-111650000D01*
X124913333Y-111683333D01*
X124946666Y-111750000D01*
X124946666Y-111850000D01*
X124913333Y-111916666D01*
X124880000Y-111950000D01*
X124813333Y-111983333D01*
X124546666Y-111983333D01*
X125613333Y-112316666D02*
X125213333Y-112316666D01*
X125413333Y-112316666D02*
X125413333Y-111616666D01*
X125346666Y-111716666D01*
X125280000Y-111783333D01*
X125213333Y-111816666D01*
X126280000Y-112316666D02*
X125880000Y-112316666D01*
X126080000Y-112316666D02*
X126080000Y-111616666D01*
X126013333Y-111716666D01*
X125946666Y-111783333D01*
X125880000Y-111816666D01*
X126613333Y-112316666D02*
X126746666Y-112316666D01*
X126813333Y-112283333D01*
X126846666Y-112250000D01*
X126913333Y-112150000D01*
X126946666Y-112016666D01*
X126946666Y-111750000D01*
X126913333Y-111683333D01*
X126880000Y-111650000D01*
X126813333Y-111616666D01*
X126680000Y-111616666D01*
X126613333Y-111650000D01*
X126580000Y-111683333D01*
X126546666Y-111750000D01*
X126546666Y-111916666D01*
X126580000Y-111983333D01*
X126613333Y-112016666D01*
X126680000Y-112050000D01*
X126813333Y-112050000D01*
X126880000Y-112016666D01*
X126913333Y-111983333D01*
X126946666Y-111916666D01*
%TO.C,R118*%
X124946666Y-110552666D02*
X124713333Y-110219333D01*
X124546666Y-110552666D02*
X124546666Y-109852666D01*
X124813333Y-109852666D01*
X124880000Y-109886000D01*
X124913333Y-109919333D01*
X124946666Y-109986000D01*
X124946666Y-110086000D01*
X124913333Y-110152666D01*
X124880000Y-110186000D01*
X124813333Y-110219333D01*
X124546666Y-110219333D01*
X125613333Y-110552666D02*
X125213333Y-110552666D01*
X125413333Y-110552666D02*
X125413333Y-109852666D01*
X125346666Y-109952666D01*
X125280000Y-110019333D01*
X125213333Y-110052666D01*
X126280000Y-110552666D02*
X125880000Y-110552666D01*
X126080000Y-110552666D02*
X126080000Y-109852666D01*
X126013333Y-109952666D01*
X125946666Y-110019333D01*
X125880000Y-110052666D01*
X126680000Y-110152666D02*
X126613333Y-110119333D01*
X126580000Y-110086000D01*
X126546666Y-110019333D01*
X126546666Y-109986000D01*
X126580000Y-109919333D01*
X126613333Y-109886000D01*
X126680000Y-109852666D01*
X126813333Y-109852666D01*
X126880000Y-109886000D01*
X126913333Y-109919333D01*
X126946666Y-109986000D01*
X126946666Y-110019333D01*
X126913333Y-110086000D01*
X126880000Y-110119333D01*
X126813333Y-110152666D01*
X126680000Y-110152666D01*
X126613333Y-110186000D01*
X126580000Y-110219333D01*
X126546666Y-110286000D01*
X126546666Y-110419333D01*
X126580000Y-110486000D01*
X126613333Y-110519333D01*
X126680000Y-110552666D01*
X126813333Y-110552666D01*
X126880000Y-110519333D01*
X126913333Y-110486000D01*
X126946666Y-110419333D01*
X126946666Y-110286000D01*
X126913333Y-110219333D01*
X126880000Y-110186000D01*
X126813333Y-110152666D01*
%TO.C,R117*%
X124946666Y-114016666D02*
X124713333Y-113683333D01*
X124546666Y-114016666D02*
X124546666Y-113316666D01*
X124813333Y-113316666D01*
X124880000Y-113350000D01*
X124913333Y-113383333D01*
X124946666Y-113450000D01*
X124946666Y-113550000D01*
X124913333Y-113616666D01*
X124880000Y-113650000D01*
X124813333Y-113683333D01*
X124546666Y-113683333D01*
X125613333Y-114016666D02*
X125213333Y-114016666D01*
X125413333Y-114016666D02*
X125413333Y-113316666D01*
X125346666Y-113416666D01*
X125280000Y-113483333D01*
X125213333Y-113516666D01*
X126280000Y-114016666D02*
X125880000Y-114016666D01*
X126080000Y-114016666D02*
X126080000Y-113316666D01*
X126013333Y-113416666D01*
X125946666Y-113483333D01*
X125880000Y-113516666D01*
X126513333Y-113316666D02*
X126980000Y-113316666D01*
X126680000Y-114016666D01*
%TO.C,J102*%
X124330666Y-105040000D02*
X124830666Y-105040000D01*
X124930666Y-105073333D01*
X124997333Y-105140000D01*
X125030666Y-105240000D01*
X125030666Y-105306666D01*
X125030666Y-104340000D02*
X125030666Y-104740000D01*
X125030666Y-104540000D02*
X124330666Y-104540000D01*
X124430666Y-104606666D01*
X124497333Y-104673333D01*
X124530666Y-104740000D01*
X124330666Y-103906666D02*
X124330666Y-103840000D01*
X124364000Y-103773333D01*
X124397333Y-103740000D01*
X124464000Y-103706666D01*
X124597333Y-103673333D01*
X124764000Y-103673333D01*
X124897333Y-103706666D01*
X124964000Y-103740000D01*
X124997333Y-103773333D01*
X125030666Y-103840000D01*
X125030666Y-103906666D01*
X124997333Y-103973333D01*
X124964000Y-104006666D01*
X124897333Y-104040000D01*
X124764000Y-104073333D01*
X124597333Y-104073333D01*
X124464000Y-104040000D01*
X124397333Y-104006666D01*
X124364000Y-103973333D01*
X124330666Y-103906666D01*
X124397333Y-103406666D02*
X124364000Y-103373333D01*
X124330666Y-103306666D01*
X124330666Y-103140000D01*
X124364000Y-103073333D01*
X124397333Y-103040000D01*
X124464000Y-103006666D01*
X124530666Y-103006666D01*
X124630666Y-103040000D01*
X125030666Y-103440000D01*
X125030666Y-103006666D01*
%TO.C,R105*%
X103216666Y-97283333D02*
X102883333Y-97516666D01*
X103216666Y-97683333D02*
X102516666Y-97683333D01*
X102516666Y-97416666D01*
X102550000Y-97350000D01*
X102583333Y-97316666D01*
X102650000Y-97283333D01*
X102750000Y-97283333D01*
X102816666Y-97316666D01*
X102850000Y-97350000D01*
X102883333Y-97416666D01*
X102883333Y-97683333D01*
X103216666Y-96616666D02*
X103216666Y-97016666D01*
X103216666Y-96816666D02*
X102516666Y-96816666D01*
X102616666Y-96883333D01*
X102683333Y-96950000D01*
X102716666Y-97016666D01*
X102516666Y-96183333D02*
X102516666Y-96116666D01*
X102550000Y-96050000D01*
X102583333Y-96016666D01*
X102650000Y-95983333D01*
X102783333Y-95950000D01*
X102950000Y-95950000D01*
X103083333Y-95983333D01*
X103150000Y-96016666D01*
X103183333Y-96050000D01*
X103216666Y-96116666D01*
X103216666Y-96183333D01*
X103183333Y-96250000D01*
X103150000Y-96283333D01*
X103083333Y-96316666D01*
X102950000Y-96350000D01*
X102783333Y-96350000D01*
X102650000Y-96316666D01*
X102583333Y-96283333D01*
X102550000Y-96250000D01*
X102516666Y-96183333D01*
X102516666Y-95316666D02*
X102516666Y-95650000D01*
X102850000Y-95683333D01*
X102816666Y-95650000D01*
X102783333Y-95583333D01*
X102783333Y-95416666D01*
X102816666Y-95350000D01*
X102850000Y-95316666D01*
X102916666Y-95283333D01*
X103083333Y-95283333D01*
X103150000Y-95316666D01*
X103183333Y-95350000D01*
X103216666Y-95416666D01*
X103216666Y-95583333D01*
X103183333Y-95650000D01*
X103150000Y-95683333D01*
%TO.C,C108*%
X98050000Y-112183333D02*
X98083333Y-112216666D01*
X98116666Y-112316666D01*
X98116666Y-112383333D01*
X98083333Y-112483333D01*
X98016666Y-112550000D01*
X97950000Y-112583333D01*
X97816666Y-112616666D01*
X97716666Y-112616666D01*
X97583333Y-112583333D01*
X97516666Y-112550000D01*
X97450000Y-112483333D01*
X97416666Y-112383333D01*
X97416666Y-112316666D01*
X97450000Y-112216666D01*
X97483333Y-112183333D01*
X98116666Y-111516666D02*
X98116666Y-111916666D01*
X98116666Y-111716666D02*
X97416666Y-111716666D01*
X97516666Y-111783333D01*
X97583333Y-111850000D01*
X97616666Y-111916666D01*
X97416666Y-111083333D02*
X97416666Y-111016666D01*
X97450000Y-110950000D01*
X97483333Y-110916666D01*
X97550000Y-110883333D01*
X97683333Y-110850000D01*
X97850000Y-110850000D01*
X97983333Y-110883333D01*
X98050000Y-110916666D01*
X98083333Y-110950000D01*
X98116666Y-111016666D01*
X98116666Y-111083333D01*
X98083333Y-111150000D01*
X98050000Y-111183333D01*
X97983333Y-111216666D01*
X97850000Y-111250000D01*
X97683333Y-111250000D01*
X97550000Y-111216666D01*
X97483333Y-111183333D01*
X97450000Y-111150000D01*
X97416666Y-111083333D01*
X97716666Y-110450000D02*
X97683333Y-110516666D01*
X97650000Y-110550000D01*
X97583333Y-110583333D01*
X97550000Y-110583333D01*
X97483333Y-110550000D01*
X97450000Y-110516666D01*
X97416666Y-110450000D01*
X97416666Y-110316666D01*
X97450000Y-110250000D01*
X97483333Y-110216666D01*
X97550000Y-110183333D01*
X97583333Y-110183333D01*
X97650000Y-110216666D01*
X97683333Y-110250000D01*
X97716666Y-110316666D01*
X97716666Y-110450000D01*
X97750000Y-110516666D01*
X97783333Y-110550000D01*
X97850000Y-110583333D01*
X97983333Y-110583333D01*
X98050000Y-110550000D01*
X98083333Y-110516666D01*
X98116666Y-110450000D01*
X98116666Y-110316666D01*
X98083333Y-110250000D01*
X98050000Y-110216666D01*
X97983333Y-110183333D01*
X97850000Y-110183333D01*
X97783333Y-110216666D01*
X97750000Y-110250000D01*
X97716666Y-110316666D01*
%TO.C,C107*%
X108850000Y-103383333D02*
X108883333Y-103416666D01*
X108916666Y-103516666D01*
X108916666Y-103583333D01*
X108883333Y-103683333D01*
X108816666Y-103750000D01*
X108750000Y-103783333D01*
X108616666Y-103816666D01*
X108516666Y-103816666D01*
X108383333Y-103783333D01*
X108316666Y-103750000D01*
X108250000Y-103683333D01*
X108216666Y-103583333D01*
X108216666Y-103516666D01*
X108250000Y-103416666D01*
X108283333Y-103383333D01*
X108916666Y-102716666D02*
X108916666Y-103116666D01*
X108916666Y-102916666D02*
X108216666Y-102916666D01*
X108316666Y-102983333D01*
X108383333Y-103050000D01*
X108416666Y-103116666D01*
X108216666Y-102283333D02*
X108216666Y-102216666D01*
X108250000Y-102150000D01*
X108283333Y-102116666D01*
X108350000Y-102083333D01*
X108483333Y-102050000D01*
X108650000Y-102050000D01*
X108783333Y-102083333D01*
X108850000Y-102116666D01*
X108883333Y-102150000D01*
X108916666Y-102216666D01*
X108916666Y-102283333D01*
X108883333Y-102350000D01*
X108850000Y-102383333D01*
X108783333Y-102416666D01*
X108650000Y-102450000D01*
X108483333Y-102450000D01*
X108350000Y-102416666D01*
X108283333Y-102383333D01*
X108250000Y-102350000D01*
X108216666Y-102283333D01*
X108216666Y-101816666D02*
X108216666Y-101350000D01*
X108916666Y-101650000D01*
%TO.C,C106*%
X116916666Y-114050000D02*
X116883333Y-114083333D01*
X116783333Y-114116666D01*
X116716666Y-114116666D01*
X116616666Y-114083333D01*
X116550000Y-114016666D01*
X116516666Y-113950000D01*
X116483333Y-113816666D01*
X116483333Y-113716666D01*
X116516666Y-113583333D01*
X116550000Y-113516666D01*
X116616666Y-113450000D01*
X116716666Y-113416666D01*
X116783333Y-113416666D01*
X116883333Y-113450000D01*
X116916666Y-113483333D01*
X117583333Y-114116666D02*
X117183333Y-114116666D01*
X117383333Y-114116666D02*
X117383333Y-113416666D01*
X117316666Y-113516666D01*
X117250000Y-113583333D01*
X117183333Y-113616666D01*
X118016666Y-113416666D02*
X118083333Y-113416666D01*
X118150000Y-113450000D01*
X118183333Y-113483333D01*
X118216666Y-113550000D01*
X118250000Y-113683333D01*
X118250000Y-113850000D01*
X118216666Y-113983333D01*
X118183333Y-114050000D01*
X118150000Y-114083333D01*
X118083333Y-114116666D01*
X118016666Y-114116666D01*
X117950000Y-114083333D01*
X117916666Y-114050000D01*
X117883333Y-113983333D01*
X117850000Y-113850000D01*
X117850000Y-113683333D01*
X117883333Y-113550000D01*
X117916666Y-113483333D01*
X117950000Y-113450000D01*
X118016666Y-113416666D01*
X118850000Y-113416666D02*
X118716666Y-113416666D01*
X118650000Y-113450000D01*
X118616666Y-113483333D01*
X118550000Y-113583333D01*
X118516666Y-113716666D01*
X118516666Y-113983333D01*
X118550000Y-114050000D01*
X118583333Y-114083333D01*
X118650000Y-114116666D01*
X118783333Y-114116666D01*
X118850000Y-114083333D01*
X118883333Y-114050000D01*
X118916666Y-113983333D01*
X118916666Y-113816666D01*
X118883333Y-113750000D01*
X118850000Y-113716666D01*
X118783333Y-113683333D01*
X118650000Y-113683333D01*
X118583333Y-113716666D01*
X118550000Y-113750000D01*
X118516666Y-113816666D01*
%TO.C,C105*%
X105416666Y-109450000D02*
X105383333Y-109483333D01*
X105283333Y-109516666D01*
X105216666Y-109516666D01*
X105116666Y-109483333D01*
X105050000Y-109416666D01*
X105016666Y-109350000D01*
X104983333Y-109216666D01*
X104983333Y-109116666D01*
X105016666Y-108983333D01*
X105050000Y-108916666D01*
X105116666Y-108850000D01*
X105216666Y-108816666D01*
X105283333Y-108816666D01*
X105383333Y-108850000D01*
X105416666Y-108883333D01*
X106083333Y-109516666D02*
X105683333Y-109516666D01*
X105883333Y-109516666D02*
X105883333Y-108816666D01*
X105816666Y-108916666D01*
X105750000Y-108983333D01*
X105683333Y-109016666D01*
X106516666Y-108816666D02*
X106583333Y-108816666D01*
X106650000Y-108850000D01*
X106683333Y-108883333D01*
X106716666Y-108950000D01*
X106750000Y-109083333D01*
X106750000Y-109250000D01*
X106716666Y-109383333D01*
X106683333Y-109450000D01*
X106650000Y-109483333D01*
X106583333Y-109516666D01*
X106516666Y-109516666D01*
X106450000Y-109483333D01*
X106416666Y-109450000D01*
X106383333Y-109383333D01*
X106350000Y-109250000D01*
X106350000Y-109083333D01*
X106383333Y-108950000D01*
X106416666Y-108883333D01*
X106450000Y-108850000D01*
X106516666Y-108816666D01*
X107383333Y-108816666D02*
X107050000Y-108816666D01*
X107016666Y-109150000D01*
X107050000Y-109116666D01*
X107116666Y-109083333D01*
X107283333Y-109083333D01*
X107350000Y-109116666D01*
X107383333Y-109150000D01*
X107416666Y-109216666D01*
X107416666Y-109383333D01*
X107383333Y-109450000D01*
X107350000Y-109483333D01*
X107283333Y-109516666D01*
X107116666Y-109516666D01*
X107050000Y-109483333D01*
X107016666Y-109450000D01*
%TO.C,C104*%
X112516666Y-117150000D02*
X112483333Y-117183333D01*
X112383333Y-117216666D01*
X112316666Y-117216666D01*
X112216666Y-117183333D01*
X112150000Y-117116666D01*
X112116666Y-117050000D01*
X112083333Y-116916666D01*
X112083333Y-116816666D01*
X112116666Y-116683333D01*
X112150000Y-116616666D01*
X112216666Y-116550000D01*
X112316666Y-116516666D01*
X112383333Y-116516666D01*
X112483333Y-116550000D01*
X112516666Y-116583333D01*
X113183333Y-117216666D02*
X112783333Y-117216666D01*
X112983333Y-117216666D02*
X112983333Y-116516666D01*
X112916666Y-116616666D01*
X112850000Y-116683333D01*
X112783333Y-116716666D01*
X113616666Y-116516666D02*
X113683333Y-116516666D01*
X113750000Y-116550000D01*
X113783333Y-116583333D01*
X113816666Y-116650000D01*
X113850000Y-116783333D01*
X113850000Y-116950000D01*
X113816666Y-117083333D01*
X113783333Y-117150000D01*
X113750000Y-117183333D01*
X113683333Y-117216666D01*
X113616666Y-117216666D01*
X113550000Y-117183333D01*
X113516666Y-117150000D01*
X113483333Y-117083333D01*
X113450000Y-116950000D01*
X113450000Y-116783333D01*
X113483333Y-116650000D01*
X113516666Y-116583333D01*
X113550000Y-116550000D01*
X113616666Y-116516666D01*
X114450000Y-116750000D02*
X114450000Y-117216666D01*
X114283333Y-116483333D02*
X114116666Y-116983333D01*
X114550000Y-116983333D01*
%TO.C,C103*%
X114416666Y-118550000D02*
X114383333Y-118583333D01*
X114283333Y-118616666D01*
X114216666Y-118616666D01*
X114116666Y-118583333D01*
X114050000Y-118516666D01*
X114016666Y-118450000D01*
X113983333Y-118316666D01*
X113983333Y-118216666D01*
X114016666Y-118083333D01*
X114050000Y-118016666D01*
X114116666Y-117950000D01*
X114216666Y-117916666D01*
X114283333Y-117916666D01*
X114383333Y-117950000D01*
X114416666Y-117983333D01*
X115083333Y-118616666D02*
X114683333Y-118616666D01*
X114883333Y-118616666D02*
X114883333Y-117916666D01*
X114816666Y-118016666D01*
X114750000Y-118083333D01*
X114683333Y-118116666D01*
X115516666Y-117916666D02*
X115583333Y-117916666D01*
X115650000Y-117950000D01*
X115683333Y-117983333D01*
X115716666Y-118050000D01*
X115750000Y-118183333D01*
X115750000Y-118350000D01*
X115716666Y-118483333D01*
X115683333Y-118550000D01*
X115650000Y-118583333D01*
X115583333Y-118616666D01*
X115516666Y-118616666D01*
X115450000Y-118583333D01*
X115416666Y-118550000D01*
X115383333Y-118483333D01*
X115350000Y-118350000D01*
X115350000Y-118183333D01*
X115383333Y-118050000D01*
X115416666Y-117983333D01*
X115450000Y-117950000D01*
X115516666Y-117916666D01*
X115983333Y-117916666D02*
X116416666Y-117916666D01*
X116183333Y-118183333D01*
X116283333Y-118183333D01*
X116350000Y-118216666D01*
X116383333Y-118250000D01*
X116416666Y-118316666D01*
X116416666Y-118483333D01*
X116383333Y-118550000D01*
X116350000Y-118583333D01*
X116283333Y-118616666D01*
X116083333Y-118616666D01*
X116016666Y-118583333D01*
X115983333Y-118550000D01*
%TO.C,R116*%
X122916666Y-117316666D02*
X122683333Y-116983333D01*
X122516666Y-117316666D02*
X122516666Y-116616666D01*
X122783333Y-116616666D01*
X122850000Y-116650000D01*
X122883333Y-116683333D01*
X122916666Y-116750000D01*
X122916666Y-116850000D01*
X122883333Y-116916666D01*
X122850000Y-116950000D01*
X122783333Y-116983333D01*
X122516666Y-116983333D01*
X123583333Y-117316666D02*
X123183333Y-117316666D01*
X123383333Y-117316666D02*
X123383333Y-116616666D01*
X123316666Y-116716666D01*
X123250000Y-116783333D01*
X123183333Y-116816666D01*
X124250000Y-117316666D02*
X123850000Y-117316666D01*
X124050000Y-117316666D02*
X124050000Y-116616666D01*
X123983333Y-116716666D01*
X123916666Y-116783333D01*
X123850000Y-116816666D01*
X124850000Y-116616666D02*
X124716666Y-116616666D01*
X124650000Y-116650000D01*
X124616666Y-116683333D01*
X124550000Y-116783333D01*
X124516666Y-116916666D01*
X124516666Y-117183333D01*
X124550000Y-117250000D01*
X124583333Y-117283333D01*
X124650000Y-117316666D01*
X124783333Y-117316666D01*
X124850000Y-117283333D01*
X124883333Y-117250000D01*
X124916666Y-117183333D01*
X124916666Y-117016666D01*
X124883333Y-116950000D01*
X124850000Y-116916666D01*
X124783333Y-116883333D01*
X124650000Y-116883333D01*
X124583333Y-116916666D01*
X124550000Y-116950000D01*
X124516666Y-117016666D01*
%TO.C,R115*%
X123016666Y-119016666D02*
X122783333Y-118683333D01*
X122616666Y-119016666D02*
X122616666Y-118316666D01*
X122883333Y-118316666D01*
X122950000Y-118350000D01*
X122983333Y-118383333D01*
X123016666Y-118450000D01*
X123016666Y-118550000D01*
X122983333Y-118616666D01*
X122950000Y-118650000D01*
X122883333Y-118683333D01*
X122616666Y-118683333D01*
X123683333Y-119016666D02*
X123283333Y-119016666D01*
X123483333Y-119016666D02*
X123483333Y-118316666D01*
X123416666Y-118416666D01*
X123350000Y-118483333D01*
X123283333Y-118516666D01*
X124350000Y-119016666D02*
X123950000Y-119016666D01*
X124150000Y-119016666D02*
X124150000Y-118316666D01*
X124083333Y-118416666D01*
X124016666Y-118483333D01*
X123950000Y-118516666D01*
X124983333Y-118316666D02*
X124650000Y-118316666D01*
X124616666Y-118650000D01*
X124650000Y-118616666D01*
X124716666Y-118583333D01*
X124883333Y-118583333D01*
X124950000Y-118616666D01*
X124983333Y-118650000D01*
X125016666Y-118716666D01*
X125016666Y-118883333D01*
X124983333Y-118950000D01*
X124950000Y-118983333D01*
X124883333Y-119016666D01*
X124716666Y-119016666D01*
X124650000Y-118983333D01*
X124616666Y-118950000D01*
%TO.C,R114*%
X111716666Y-94316666D02*
X111483333Y-93983333D01*
X111316666Y-94316666D02*
X111316666Y-93616666D01*
X111583333Y-93616666D01*
X111650000Y-93650000D01*
X111683333Y-93683333D01*
X111716666Y-93750000D01*
X111716666Y-93850000D01*
X111683333Y-93916666D01*
X111650000Y-93950000D01*
X111583333Y-93983333D01*
X111316666Y-93983333D01*
X112383333Y-94316666D02*
X111983333Y-94316666D01*
X112183333Y-94316666D02*
X112183333Y-93616666D01*
X112116666Y-93716666D01*
X112050000Y-93783333D01*
X111983333Y-93816666D01*
X113050000Y-94316666D02*
X112650000Y-94316666D01*
X112850000Y-94316666D02*
X112850000Y-93616666D01*
X112783333Y-93716666D01*
X112716666Y-93783333D01*
X112650000Y-93816666D01*
X113650000Y-93850000D02*
X113650000Y-94316666D01*
X113483333Y-93583333D02*
X113316666Y-94083333D01*
X113750000Y-94083333D01*
%TO.C,R113*%
X111716666Y-95916666D02*
X111483333Y-95583333D01*
X111316666Y-95916666D02*
X111316666Y-95216666D01*
X111583333Y-95216666D01*
X111650000Y-95250000D01*
X111683333Y-95283333D01*
X111716666Y-95350000D01*
X111716666Y-95450000D01*
X111683333Y-95516666D01*
X111650000Y-95550000D01*
X111583333Y-95583333D01*
X111316666Y-95583333D01*
X112383333Y-95916666D02*
X111983333Y-95916666D01*
X112183333Y-95916666D02*
X112183333Y-95216666D01*
X112116666Y-95316666D01*
X112050000Y-95383333D01*
X111983333Y-95416666D01*
X113050000Y-95916666D02*
X112650000Y-95916666D01*
X112850000Y-95916666D02*
X112850000Y-95216666D01*
X112783333Y-95316666D01*
X112716666Y-95383333D01*
X112650000Y-95416666D01*
X113283333Y-95216666D02*
X113716666Y-95216666D01*
X113483333Y-95483333D01*
X113583333Y-95483333D01*
X113650000Y-95516666D01*
X113683333Y-95550000D01*
X113716666Y-95616666D01*
X113716666Y-95783333D01*
X113683333Y-95850000D01*
X113650000Y-95883333D01*
X113583333Y-95916666D01*
X113383333Y-95916666D01*
X113316666Y-95883333D01*
X113283333Y-95850000D01*
%TO.C,R112*%
X111716666Y-97416666D02*
X111483333Y-97083333D01*
X111316666Y-97416666D02*
X111316666Y-96716666D01*
X111583333Y-96716666D01*
X111650000Y-96750000D01*
X111683333Y-96783333D01*
X111716666Y-96850000D01*
X111716666Y-96950000D01*
X111683333Y-97016666D01*
X111650000Y-97050000D01*
X111583333Y-97083333D01*
X111316666Y-97083333D01*
X112383333Y-97416666D02*
X111983333Y-97416666D01*
X112183333Y-97416666D02*
X112183333Y-96716666D01*
X112116666Y-96816666D01*
X112050000Y-96883333D01*
X111983333Y-96916666D01*
X113050000Y-97416666D02*
X112650000Y-97416666D01*
X112850000Y-97416666D02*
X112850000Y-96716666D01*
X112783333Y-96816666D01*
X112716666Y-96883333D01*
X112650000Y-96916666D01*
X113316666Y-96783333D02*
X113350000Y-96750000D01*
X113416666Y-96716666D01*
X113583333Y-96716666D01*
X113650000Y-96750000D01*
X113683333Y-96783333D01*
X113716666Y-96850000D01*
X113716666Y-96916666D01*
X113683333Y-97016666D01*
X113283333Y-97416666D01*
X113716666Y-97416666D01*
%TO.C,R111*%
X114278666Y-121982666D02*
X114045333Y-121649333D01*
X113878666Y-121982666D02*
X113878666Y-121282666D01*
X114145333Y-121282666D01*
X114212000Y-121316000D01*
X114245333Y-121349333D01*
X114278666Y-121416000D01*
X114278666Y-121516000D01*
X114245333Y-121582666D01*
X114212000Y-121616000D01*
X114145333Y-121649333D01*
X113878666Y-121649333D01*
X114945333Y-121982666D02*
X114545333Y-121982666D01*
X114745333Y-121982666D02*
X114745333Y-121282666D01*
X114678666Y-121382666D01*
X114612000Y-121449333D01*
X114545333Y-121482666D01*
X115612000Y-121982666D02*
X115212000Y-121982666D01*
X115412000Y-121982666D02*
X115412000Y-121282666D01*
X115345333Y-121382666D01*
X115278666Y-121449333D01*
X115212000Y-121482666D01*
X116278666Y-121982666D02*
X115878666Y-121982666D01*
X116078666Y-121982666D02*
X116078666Y-121282666D01*
X116012000Y-121382666D01*
X115945333Y-121449333D01*
X115878666Y-121482666D01*
%TO.C,Q102*%
X105066666Y-102583333D02*
X105000000Y-102550000D01*
X104933333Y-102483333D01*
X104833333Y-102383333D01*
X104766666Y-102350000D01*
X104700000Y-102350000D01*
X104733333Y-102516666D02*
X104666666Y-102483333D01*
X104600000Y-102416666D01*
X104566666Y-102283333D01*
X104566666Y-102050000D01*
X104600000Y-101916666D01*
X104666666Y-101850000D01*
X104733333Y-101816666D01*
X104866666Y-101816666D01*
X104933333Y-101850000D01*
X105000000Y-101916666D01*
X105033333Y-102050000D01*
X105033333Y-102283333D01*
X105000000Y-102416666D01*
X104933333Y-102483333D01*
X104866666Y-102516666D01*
X104733333Y-102516666D01*
X105700000Y-102516666D02*
X105300000Y-102516666D01*
X105500000Y-102516666D02*
X105500000Y-101816666D01*
X105433333Y-101916666D01*
X105366666Y-101983333D01*
X105300000Y-102016666D01*
X106133333Y-101816666D02*
X106200000Y-101816666D01*
X106266666Y-101850000D01*
X106300000Y-101883333D01*
X106333333Y-101950000D01*
X106366666Y-102083333D01*
X106366666Y-102250000D01*
X106333333Y-102383333D01*
X106300000Y-102450000D01*
X106266666Y-102483333D01*
X106200000Y-102516666D01*
X106133333Y-102516666D01*
X106066666Y-102483333D01*
X106033333Y-102450000D01*
X106000000Y-102383333D01*
X105966666Y-102250000D01*
X105966666Y-102083333D01*
X106000000Y-101950000D01*
X106033333Y-101883333D01*
X106066666Y-101850000D01*
X106133333Y-101816666D01*
X106633333Y-101883333D02*
X106666666Y-101850000D01*
X106733333Y-101816666D01*
X106900000Y-101816666D01*
X106966666Y-101850000D01*
X107000000Y-101883333D01*
X107033333Y-101950000D01*
X107033333Y-102016666D01*
X107000000Y-102116666D01*
X106600000Y-102516666D01*
X107033333Y-102516666D01*
%TO.C,R108*%
X118016666Y-120516666D02*
X117783333Y-120183333D01*
X117616666Y-120516666D02*
X117616666Y-119816666D01*
X117883333Y-119816666D01*
X117950000Y-119850000D01*
X117983333Y-119883333D01*
X118016666Y-119950000D01*
X118016666Y-120050000D01*
X117983333Y-120116666D01*
X117950000Y-120150000D01*
X117883333Y-120183333D01*
X117616666Y-120183333D01*
X118683333Y-120516666D02*
X118283333Y-120516666D01*
X118483333Y-120516666D02*
X118483333Y-119816666D01*
X118416666Y-119916666D01*
X118350000Y-119983333D01*
X118283333Y-120016666D01*
X119116666Y-119816666D02*
X119183333Y-119816666D01*
X119250000Y-119850000D01*
X119283333Y-119883333D01*
X119316666Y-119950000D01*
X119350000Y-120083333D01*
X119350000Y-120250000D01*
X119316666Y-120383333D01*
X119283333Y-120450000D01*
X119250000Y-120483333D01*
X119183333Y-120516666D01*
X119116666Y-120516666D01*
X119050000Y-120483333D01*
X119016666Y-120450000D01*
X118983333Y-120383333D01*
X118950000Y-120250000D01*
X118950000Y-120083333D01*
X118983333Y-119950000D01*
X119016666Y-119883333D01*
X119050000Y-119850000D01*
X119116666Y-119816666D01*
X119750000Y-120116666D02*
X119683333Y-120083333D01*
X119650000Y-120050000D01*
X119616666Y-119983333D01*
X119616666Y-119950000D01*
X119650000Y-119883333D01*
X119683333Y-119850000D01*
X119750000Y-119816666D01*
X119883333Y-119816666D01*
X119950000Y-119850000D01*
X119983333Y-119883333D01*
X120016666Y-119950000D01*
X120016666Y-119983333D01*
X119983333Y-120050000D01*
X119950000Y-120083333D01*
X119883333Y-120116666D01*
X119750000Y-120116666D01*
X119683333Y-120150000D01*
X119650000Y-120183333D01*
X119616666Y-120250000D01*
X119616666Y-120383333D01*
X119650000Y-120450000D01*
X119683333Y-120483333D01*
X119750000Y-120516666D01*
X119883333Y-120516666D01*
X119950000Y-120483333D01*
X119983333Y-120450000D01*
X120016666Y-120383333D01*
X120016666Y-120250000D01*
X119983333Y-120183333D01*
X119950000Y-120150000D01*
X119883333Y-120116666D01*
%TO.C,R107*%
X123016666Y-115616666D02*
X122783333Y-115283333D01*
X122616666Y-115616666D02*
X122616666Y-114916666D01*
X122883333Y-114916666D01*
X122950000Y-114950000D01*
X122983333Y-114983333D01*
X123016666Y-115050000D01*
X123016666Y-115150000D01*
X122983333Y-115216666D01*
X122950000Y-115250000D01*
X122883333Y-115283333D01*
X122616666Y-115283333D01*
X123683333Y-115616666D02*
X123283333Y-115616666D01*
X123483333Y-115616666D02*
X123483333Y-114916666D01*
X123416666Y-115016666D01*
X123350000Y-115083333D01*
X123283333Y-115116666D01*
X124116666Y-114916666D02*
X124183333Y-114916666D01*
X124250000Y-114950000D01*
X124283333Y-114983333D01*
X124316666Y-115050000D01*
X124350000Y-115183333D01*
X124350000Y-115350000D01*
X124316666Y-115483333D01*
X124283333Y-115550000D01*
X124250000Y-115583333D01*
X124183333Y-115616666D01*
X124116666Y-115616666D01*
X124050000Y-115583333D01*
X124016666Y-115550000D01*
X123983333Y-115483333D01*
X123950000Y-115350000D01*
X123950000Y-115183333D01*
X123983333Y-115050000D01*
X124016666Y-114983333D01*
X124050000Y-114950000D01*
X124116666Y-114916666D01*
X124583333Y-114916666D02*
X125050000Y-114916666D01*
X124750000Y-115616666D01*
%TO.C,R106*%
X92916666Y-109716666D02*
X92683333Y-109383333D01*
X92516666Y-109716666D02*
X92516666Y-109016666D01*
X92783333Y-109016666D01*
X92850000Y-109050000D01*
X92883333Y-109083333D01*
X92916666Y-109150000D01*
X92916666Y-109250000D01*
X92883333Y-109316666D01*
X92850000Y-109350000D01*
X92783333Y-109383333D01*
X92516666Y-109383333D01*
X93583333Y-109716666D02*
X93183333Y-109716666D01*
X93383333Y-109716666D02*
X93383333Y-109016666D01*
X93316666Y-109116666D01*
X93250000Y-109183333D01*
X93183333Y-109216666D01*
X94016666Y-109016666D02*
X94083333Y-109016666D01*
X94150000Y-109050000D01*
X94183333Y-109083333D01*
X94216666Y-109150000D01*
X94250000Y-109283333D01*
X94250000Y-109450000D01*
X94216666Y-109583333D01*
X94183333Y-109650000D01*
X94150000Y-109683333D01*
X94083333Y-109716666D01*
X94016666Y-109716666D01*
X93950000Y-109683333D01*
X93916666Y-109650000D01*
X93883333Y-109583333D01*
X93850000Y-109450000D01*
X93850000Y-109283333D01*
X93883333Y-109150000D01*
X93916666Y-109083333D01*
X93950000Y-109050000D01*
X94016666Y-109016666D01*
X94850000Y-109016666D02*
X94716666Y-109016666D01*
X94650000Y-109050000D01*
X94616666Y-109083333D01*
X94550000Y-109183333D01*
X94516666Y-109316666D01*
X94516666Y-109583333D01*
X94550000Y-109650000D01*
X94583333Y-109683333D01*
X94650000Y-109716666D01*
X94783333Y-109716666D01*
X94850000Y-109683333D01*
X94883333Y-109650000D01*
X94916666Y-109583333D01*
X94916666Y-109416666D01*
X94883333Y-109350000D01*
X94850000Y-109316666D01*
X94783333Y-109283333D01*
X94650000Y-109283333D01*
X94583333Y-109316666D01*
X94550000Y-109350000D01*
X94516666Y-109416666D01*
%TO.C,R104*%
X117216666Y-118616666D02*
X116983333Y-118283333D01*
X116816666Y-118616666D02*
X116816666Y-117916666D01*
X117083333Y-117916666D01*
X117150000Y-117950000D01*
X117183333Y-117983333D01*
X117216666Y-118050000D01*
X117216666Y-118150000D01*
X117183333Y-118216666D01*
X117150000Y-118250000D01*
X117083333Y-118283333D01*
X116816666Y-118283333D01*
X117883333Y-118616666D02*
X117483333Y-118616666D01*
X117683333Y-118616666D02*
X117683333Y-117916666D01*
X117616666Y-118016666D01*
X117550000Y-118083333D01*
X117483333Y-118116666D01*
X118316666Y-117916666D02*
X118383333Y-117916666D01*
X118450000Y-117950000D01*
X118483333Y-117983333D01*
X118516666Y-118050000D01*
X118550000Y-118183333D01*
X118550000Y-118350000D01*
X118516666Y-118483333D01*
X118483333Y-118550000D01*
X118450000Y-118583333D01*
X118383333Y-118616666D01*
X118316666Y-118616666D01*
X118250000Y-118583333D01*
X118216666Y-118550000D01*
X118183333Y-118483333D01*
X118150000Y-118350000D01*
X118150000Y-118183333D01*
X118183333Y-118050000D01*
X118216666Y-117983333D01*
X118250000Y-117950000D01*
X118316666Y-117916666D01*
X119150000Y-118150000D02*
X119150000Y-118616666D01*
X118983333Y-117883333D02*
X118816666Y-118383333D01*
X119250000Y-118383333D01*
%TO.C,R103*%
X108944666Y-120204666D02*
X108711333Y-119871333D01*
X108544666Y-120204666D02*
X108544666Y-119504666D01*
X108811333Y-119504666D01*
X108878000Y-119538000D01*
X108911333Y-119571333D01*
X108944666Y-119638000D01*
X108944666Y-119738000D01*
X108911333Y-119804666D01*
X108878000Y-119838000D01*
X108811333Y-119871333D01*
X108544666Y-119871333D01*
X109611333Y-120204666D02*
X109211333Y-120204666D01*
X109411333Y-120204666D02*
X109411333Y-119504666D01*
X109344666Y-119604666D01*
X109278000Y-119671333D01*
X109211333Y-119704666D01*
X110044666Y-119504666D02*
X110111333Y-119504666D01*
X110178000Y-119538000D01*
X110211333Y-119571333D01*
X110244666Y-119638000D01*
X110278000Y-119771333D01*
X110278000Y-119938000D01*
X110244666Y-120071333D01*
X110211333Y-120138000D01*
X110178000Y-120171333D01*
X110111333Y-120204666D01*
X110044666Y-120204666D01*
X109978000Y-120171333D01*
X109944666Y-120138000D01*
X109911333Y-120071333D01*
X109878000Y-119938000D01*
X109878000Y-119771333D01*
X109911333Y-119638000D01*
X109944666Y-119571333D01*
X109978000Y-119538000D01*
X110044666Y-119504666D01*
X110511333Y-119504666D02*
X110944666Y-119504666D01*
X110711333Y-119771333D01*
X110811333Y-119771333D01*
X110878000Y-119804666D01*
X110911333Y-119838000D01*
X110944666Y-119904666D01*
X110944666Y-120071333D01*
X110911333Y-120138000D01*
X110878000Y-120171333D01*
X110811333Y-120204666D01*
X110611333Y-120204666D01*
X110544666Y-120171333D01*
X110511333Y-120138000D01*
%TO.C,R101*%
X105388666Y-122236666D02*
X105155333Y-121903333D01*
X104988666Y-122236666D02*
X104988666Y-121536666D01*
X105255333Y-121536666D01*
X105322000Y-121570000D01*
X105355333Y-121603333D01*
X105388666Y-121670000D01*
X105388666Y-121770000D01*
X105355333Y-121836666D01*
X105322000Y-121870000D01*
X105255333Y-121903333D01*
X104988666Y-121903333D01*
X106055333Y-122236666D02*
X105655333Y-122236666D01*
X105855333Y-122236666D02*
X105855333Y-121536666D01*
X105788666Y-121636666D01*
X105722000Y-121703333D01*
X105655333Y-121736666D01*
X106488666Y-121536666D02*
X106555333Y-121536666D01*
X106622000Y-121570000D01*
X106655333Y-121603333D01*
X106688666Y-121670000D01*
X106722000Y-121803333D01*
X106722000Y-121970000D01*
X106688666Y-122103333D01*
X106655333Y-122170000D01*
X106622000Y-122203333D01*
X106555333Y-122236666D01*
X106488666Y-122236666D01*
X106422000Y-122203333D01*
X106388666Y-122170000D01*
X106355333Y-122103333D01*
X106322000Y-121970000D01*
X106322000Y-121803333D01*
X106355333Y-121670000D01*
X106388666Y-121603333D01*
X106422000Y-121570000D01*
X106488666Y-121536666D01*
X107388666Y-122236666D02*
X106988666Y-122236666D01*
X107188666Y-122236666D02*
X107188666Y-121536666D01*
X107122000Y-121636666D01*
X107055333Y-121703333D01*
X106988666Y-121736666D01*
%TO.C,Q101*%
X100358666Y-116969333D02*
X100292000Y-116936000D01*
X100225333Y-116869333D01*
X100125333Y-116769333D01*
X100058666Y-116736000D01*
X99992000Y-116736000D01*
X100025333Y-116902666D02*
X99958666Y-116869333D01*
X99892000Y-116802666D01*
X99858666Y-116669333D01*
X99858666Y-116436000D01*
X99892000Y-116302666D01*
X99958666Y-116236000D01*
X100025333Y-116202666D01*
X100158666Y-116202666D01*
X100225333Y-116236000D01*
X100292000Y-116302666D01*
X100325333Y-116436000D01*
X100325333Y-116669333D01*
X100292000Y-116802666D01*
X100225333Y-116869333D01*
X100158666Y-116902666D01*
X100025333Y-116902666D01*
X100992000Y-116902666D02*
X100592000Y-116902666D01*
X100792000Y-116902666D02*
X100792000Y-116202666D01*
X100725333Y-116302666D01*
X100658666Y-116369333D01*
X100592000Y-116402666D01*
X101425333Y-116202666D02*
X101492000Y-116202666D01*
X101558666Y-116236000D01*
X101592000Y-116269333D01*
X101625333Y-116336000D01*
X101658666Y-116469333D01*
X101658666Y-116636000D01*
X101625333Y-116769333D01*
X101592000Y-116836000D01*
X101558666Y-116869333D01*
X101492000Y-116902666D01*
X101425333Y-116902666D01*
X101358666Y-116869333D01*
X101325333Y-116836000D01*
X101292000Y-116769333D01*
X101258666Y-116636000D01*
X101258666Y-116469333D01*
X101292000Y-116336000D01*
X101325333Y-116269333D01*
X101358666Y-116236000D01*
X101425333Y-116202666D01*
X102325333Y-116902666D02*
X101925333Y-116902666D01*
X102125333Y-116902666D02*
X102125333Y-116202666D01*
X102058666Y-116302666D01*
X101992000Y-116369333D01*
X101925333Y-116402666D01*
%TO.C,D101*%
X105616666Y-103416666D02*
X105616666Y-102716666D01*
X105783333Y-102716666D01*
X105883333Y-102750000D01*
X105950000Y-102816666D01*
X105983333Y-102883333D01*
X106016666Y-103016666D01*
X106016666Y-103116666D01*
X105983333Y-103250000D01*
X105950000Y-103316666D01*
X105883333Y-103383333D01*
X105783333Y-103416666D01*
X105616666Y-103416666D01*
X106683333Y-103416666D02*
X106283333Y-103416666D01*
X106483333Y-103416666D02*
X106483333Y-102716666D01*
X106416666Y-102816666D01*
X106350000Y-102883333D01*
X106283333Y-102916666D01*
X107116666Y-102716666D02*
X107183333Y-102716666D01*
X107250000Y-102750000D01*
X107283333Y-102783333D01*
X107316666Y-102850000D01*
X107350000Y-102983333D01*
X107350000Y-103150000D01*
X107316666Y-103283333D01*
X107283333Y-103350000D01*
X107250000Y-103383333D01*
X107183333Y-103416666D01*
X107116666Y-103416666D01*
X107050000Y-103383333D01*
X107016666Y-103350000D01*
X106983333Y-103283333D01*
X106950000Y-103150000D01*
X106950000Y-102983333D01*
X106983333Y-102850000D01*
X107016666Y-102783333D01*
X107050000Y-102750000D01*
X107116666Y-102716666D01*
X108016666Y-103416666D02*
X107616666Y-103416666D01*
X107816666Y-103416666D02*
X107816666Y-102716666D01*
X107750000Y-102816666D01*
X107683333Y-102883333D01*
X107616666Y-102916666D01*
%TO.C,C111*%
X95591666Y-116050000D02*
X95558333Y-116083333D01*
X95458333Y-116116666D01*
X95391666Y-116116666D01*
X95291666Y-116083333D01*
X95225000Y-116016666D01*
X95191666Y-115950000D01*
X95158333Y-115816666D01*
X95158333Y-115716666D01*
X95191666Y-115583333D01*
X95225000Y-115516666D01*
X95291666Y-115450000D01*
X95391666Y-115416666D01*
X95458333Y-115416666D01*
X95558333Y-115450000D01*
X95591666Y-115483333D01*
X96258333Y-116116666D02*
X95858333Y-116116666D01*
X96058333Y-116116666D02*
X96058333Y-115416666D01*
X95991666Y-115516666D01*
X95925000Y-115583333D01*
X95858333Y-115616666D01*
X96925000Y-116116666D02*
X96525000Y-116116666D01*
X96725000Y-116116666D02*
X96725000Y-115416666D01*
X96658333Y-115516666D01*
X96591666Y-115583333D01*
X96525000Y-115616666D01*
X97591666Y-116116666D02*
X97191666Y-116116666D01*
X97391666Y-116116666D02*
X97391666Y-115416666D01*
X97325000Y-115516666D01*
X97258333Y-115583333D01*
X97191666Y-115616666D01*
%TO.C,C109*%
X100916666Y-85225000D02*
X100883333Y-85258333D01*
X100783333Y-85291666D01*
X100716666Y-85291666D01*
X100616666Y-85258333D01*
X100550000Y-85191666D01*
X100516666Y-85125000D01*
X100483333Y-84991666D01*
X100483333Y-84891666D01*
X100516666Y-84758333D01*
X100550000Y-84691666D01*
X100616666Y-84625000D01*
X100716666Y-84591666D01*
X100783333Y-84591666D01*
X100883333Y-84625000D01*
X100916666Y-84658333D01*
X101583333Y-85291666D02*
X101183333Y-85291666D01*
X101383333Y-85291666D02*
X101383333Y-84591666D01*
X101316666Y-84691666D01*
X101250000Y-84758333D01*
X101183333Y-84791666D01*
X102016666Y-84591666D02*
X102083333Y-84591666D01*
X102150000Y-84625000D01*
X102183333Y-84658333D01*
X102216666Y-84725000D01*
X102250000Y-84858333D01*
X102250000Y-85025000D01*
X102216666Y-85158333D01*
X102183333Y-85225000D01*
X102150000Y-85258333D01*
X102083333Y-85291666D01*
X102016666Y-85291666D01*
X101950000Y-85258333D01*
X101916666Y-85225000D01*
X101883333Y-85158333D01*
X101850000Y-85025000D01*
X101850000Y-84858333D01*
X101883333Y-84725000D01*
X101916666Y-84658333D01*
X101950000Y-84625000D01*
X102016666Y-84591666D01*
X102583333Y-85291666D02*
X102716666Y-85291666D01*
X102783333Y-85258333D01*
X102816666Y-85225000D01*
X102883333Y-85125000D01*
X102916666Y-84991666D01*
X102916666Y-84725000D01*
X102883333Y-84658333D01*
X102850000Y-84625000D01*
X102783333Y-84591666D01*
X102650000Y-84591666D01*
X102583333Y-84625000D01*
X102550000Y-84658333D01*
X102516666Y-84725000D01*
X102516666Y-84891666D01*
X102550000Y-84958333D01*
X102583333Y-84991666D01*
X102650000Y-85025000D01*
X102783333Y-85025000D01*
X102850000Y-84991666D01*
X102883333Y-84958333D01*
X102916666Y-84891666D01*
%TO.C,C101*%
X106422000Y-117623333D02*
X106455333Y-117656666D01*
X106488666Y-117756666D01*
X106488666Y-117823333D01*
X106455333Y-117923333D01*
X106388666Y-117990000D01*
X106322000Y-118023333D01*
X106188666Y-118056666D01*
X106088666Y-118056666D01*
X105955333Y-118023333D01*
X105888666Y-117990000D01*
X105822000Y-117923333D01*
X105788666Y-117823333D01*
X105788666Y-117756666D01*
X105822000Y-117656666D01*
X105855333Y-117623333D01*
X106488666Y-116956666D02*
X106488666Y-117356666D01*
X106488666Y-117156666D02*
X105788666Y-117156666D01*
X105888666Y-117223333D01*
X105955333Y-117290000D01*
X105988666Y-117356666D01*
X105788666Y-116523333D02*
X105788666Y-116456666D01*
X105822000Y-116390000D01*
X105855333Y-116356666D01*
X105922000Y-116323333D01*
X106055333Y-116290000D01*
X106222000Y-116290000D01*
X106355333Y-116323333D01*
X106422000Y-116356666D01*
X106455333Y-116390000D01*
X106488666Y-116456666D01*
X106488666Y-116523333D01*
X106455333Y-116590000D01*
X106422000Y-116623333D01*
X106355333Y-116656666D01*
X106222000Y-116690000D01*
X106055333Y-116690000D01*
X105922000Y-116656666D01*
X105855333Y-116623333D01*
X105822000Y-116590000D01*
X105788666Y-116523333D01*
X106488666Y-115623333D02*
X106488666Y-116023333D01*
X106488666Y-115823333D02*
X105788666Y-115823333D01*
X105888666Y-115890000D01*
X105955333Y-115956666D01*
X105988666Y-116023333D01*
%TD*%
M02*
