%TF.GenerationSoftware,KiCad,Pcbnew,(5.1.7)-1*%
%TF.CreationDate,2021-06-08T21:42:19+03:00*%
%TF.ProjectId,SynchronousBuck,53796e63-6872-46f6-9e6f-75734275636b,rev?*%
%TF.SameCoordinates,Original*%
%TF.FileFunction,Copper,L3,Inr*%
%TF.FilePolarity,Positive*%
%FSLAX46Y46*%
G04 Gerber Fmt 4.6, Leading zero omitted, Abs format (unit mm)*
G04 Created by KiCad (PCBNEW (5.1.7)-1) date 2021-06-08 21:42:19*
%MOMM*%
%LPD*%
G01*
G04 APERTURE LIST*
%TA.AperFunction,ComponentPad*%
%ADD10C,1.800000*%
%TD*%
%TA.AperFunction,ComponentPad*%
%ADD11C,8.000000*%
%TD*%
%TA.AperFunction,ComponentPad*%
%ADD12O,1.700000X1.700000*%
%TD*%
%TA.AperFunction,ComponentPad*%
%ADD13R,1.700000X1.700000*%
%TD*%
%TA.AperFunction,ViaPad*%
%ADD14C,0.800000*%
%TD*%
%TA.AperFunction,ViaPad*%
%ADD15C,0.600000*%
%TD*%
%TA.AperFunction,ViaPad*%
%ADD16C,0.400000*%
%TD*%
%TA.AperFunction,Conductor*%
%ADD17C,0.400000*%
%TD*%
%TA.AperFunction,Conductor*%
%ADD18C,0.200000*%
%TD*%
%TA.AperFunction,Conductor*%
%ADD19C,0.100000*%
%TD*%
%TA.AperFunction,Conductor*%
%ADD20C,0.254000*%
%TD*%
%TA.AperFunction,Conductor*%
%ADD21C,0.025400*%
%TD*%
G04 APERTURE END LIST*
D10*
%TO.N,GND*%
%TO.C,J104*%
X82950000Y-116200000D03*
%TO.N,Net-(C119-Pad2)*%
X86450000Y-116200000D03*
%TD*%
D11*
%TO.N,GND*%
%TO.C,J103*%
X94000000Y-66000000D03*
%TO.N,/VOUT*%
X106000000Y-66000000D03*
%TD*%
%TO.N,VCC*%
%TO.C,J101*%
X90700000Y-122200000D03*
%TO.N,GND*%
X78700000Y-122200000D03*
%TD*%
D12*
%TO.N,Net-(D102-Pad1)*%
%TO.C,J102*%
X122600000Y-107520000D03*
%TO.N,GND*%
X122600000Y-104980000D03*
X122600000Y-102440000D03*
D13*
%TO.N,Net-(D103-Pad1)*%
X122600000Y-99900000D03*
%TD*%
D14*
%TO.N,GND*%
X105900000Y-90700000D03*
X107100000Y-90700000D03*
X103600000Y-90700000D03*
X104700000Y-90700000D03*
X108300000Y-90700000D03*
X101300000Y-90700000D03*
X102500000Y-90700000D03*
X116008000Y-113200000D03*
X109700000Y-106100000D03*
X116008000Y-112200000D03*
X116008000Y-111200000D03*
X116008000Y-110200000D03*
X116808000Y-112700000D03*
X116808000Y-111700000D03*
X116808000Y-110700000D03*
D15*
X107500000Y-102000000D03*
X112200000Y-99000000D03*
D14*
X107100000Y-91700000D03*
X105900000Y-91700000D03*
X104700000Y-91700000D03*
X103600000Y-91700000D03*
X102500000Y-91700000D03*
X103600000Y-93000000D03*
X102500000Y-93000000D03*
X101300000Y-93000000D03*
X101300000Y-91700000D03*
X108300000Y-91700000D03*
D15*
X121300000Y-120200000D03*
X118100000Y-119400000D03*
X112000000Y-103600000D03*
X106525000Y-118375000D03*
X107700000Y-119700000D03*
D16*
X56044999Y-99164999D03*
X57164999Y-108684999D03*
X57724999Y-88524999D03*
X59964999Y-116524999D03*
X61084999Y-80124999D03*
X62204999Y-94684999D03*
X63324999Y-104204999D03*
X63324999Y-123804999D03*
X65564999Y-73404999D03*
X66124999Y-85724999D03*
X66124999Y-112044999D03*
X68364999Y-129404999D03*
X69484999Y-119324999D03*
X70604999Y-67804999D03*
X70604999Y-79004999D03*
X70604999Y-91884999D03*
X71724999Y-106444999D03*
X73964999Y-134444999D03*
X75084999Y-113724999D03*
X75644999Y-84604999D03*
X75644999Y-97484999D03*
X76204999Y-72844999D03*
X77324999Y-62764999D03*
X77324999Y-127164999D03*
X80124999Y-90764999D03*
X80124999Y-103644999D03*
X81244999Y-78444999D03*
X82364999Y-68364999D03*
X84604999Y-59404999D03*
X85164999Y-96364999D03*
X85724999Y-85164999D03*
X87404999Y-73964999D03*
X93004999Y-57164999D03*
X93004999Y-79004999D03*
X95804999Y-70604999D03*
X98044999Y-92444999D03*
X98604999Y-62204999D03*
X101404999Y-76764999D03*
X103644999Y-56604999D03*
X104764999Y-105884999D03*
X110364999Y-60524999D03*
X110364999Y-73964999D03*
X110364999Y-84604999D03*
X110364999Y-98604999D03*
X114284999Y-67244999D03*
X114284999Y-91324999D03*
X115404999Y-107004999D03*
X115964999Y-79004999D03*
X119324999Y-96924999D03*
X119884999Y-61644999D03*
X119884999Y-72284999D03*
X119884999Y-85724999D03*
X119884999Y-113164999D03*
X121004999Y-127724999D03*
X124364999Y-104140000D03*
X124364999Y-119324999D03*
X124924999Y-91324999D03*
X124924999Y-134444999D03*
X125484999Y-66684999D03*
X125484999Y-77324999D03*
X127724999Y-109804999D03*
X129404999Y-84044999D03*
X129404999Y-124924999D03*
X129964999Y-96924999D03*
X131644999Y-71164999D03*
X132204999Y-115964999D03*
X133324999Y-104204999D03*
X134444999Y-89644999D03*
X135004999Y-78444999D03*
X137244999Y-121564999D03*
X137804999Y-110364999D03*
X138924999Y-98604999D03*
X140044999Y-84044999D03*
X142844999Y-91884999D03*
X143404999Y-104764999D03*
D15*
X91300000Y-111400000D03*
X92100000Y-112600000D03*
X92200000Y-113600000D03*
X92200000Y-116400000D03*
X92200000Y-115100000D03*
X127700000Y-97100000D03*
X126000000Y-95600000D03*
X118500000Y-98800000D03*
X120100000Y-98400000D03*
D14*
%TO.N,VCC*%
X105500000Y-121000000D03*
X101000000Y-119000000D03*
X98300000Y-119600000D03*
X96000000Y-121000000D03*
X99500000Y-121000000D03*
X102500000Y-121000000D03*
X122500000Y-126000000D03*
X122500000Y-123000000D03*
X121000000Y-124500000D03*
X119500000Y-126000000D03*
X116500000Y-126000000D03*
X113500000Y-126000000D03*
X113500000Y-123000000D03*
X115000000Y-124500000D03*
X111500000Y-124500000D03*
X110000000Y-126000000D03*
X110000000Y-123000000D03*
X107000000Y-126000000D03*
X107000000Y-123000000D03*
X104000000Y-126000000D03*
X104000000Y-123000000D03*
X108500000Y-124500000D03*
X105500000Y-124500000D03*
X101000000Y-126000000D03*
X101000000Y-123000000D03*
X102500000Y-124500000D03*
X98000000Y-126000000D03*
X99500000Y-124500000D03*
X98000000Y-123000000D03*
X96000000Y-124500000D03*
X118000000Y-124500000D03*
D15*
X110135000Y-116100000D03*
D14*
%TO.N,Net-(Q102-Pad1)*%
X99100000Y-100900000D03*
X105100000Y-98900000D03*
X104100000Y-99900000D03*
X105100000Y-100900000D03*
X103100000Y-100900000D03*
X101100000Y-100900000D03*
X100100000Y-99900000D03*
X102100000Y-99900000D03*
X103100000Y-98900000D03*
X101100000Y-98900000D03*
X99100000Y-98900000D03*
X98100000Y-99900000D03*
D15*
%TO.N,Net-(R112-Pad2)*%
X114000000Y-98000000D03*
X112800000Y-98000000D03*
D14*
%TO.N,/SW*%
X90000000Y-99500000D03*
X90000000Y-100500000D03*
X90000000Y-101500000D03*
X90000000Y-102500000D03*
X90000000Y-103500000D03*
X90000000Y-104500000D03*
X90000000Y-105500000D03*
X90000000Y-106500000D03*
X90000000Y-107500000D03*
X98000000Y-108000000D03*
X98000000Y-107000000D03*
X98000000Y-106000000D03*
X98000000Y-105000000D03*
X98000000Y-104000000D03*
X91000000Y-102000000D03*
X92000000Y-102000000D03*
X93000000Y-102000000D03*
X94000000Y-102000000D03*
X95000000Y-102000000D03*
X96000000Y-102000000D03*
D15*
%TO.N,/HO*%
X97800000Y-109700000D03*
X106900000Y-110000000D03*
%TO.N,/LO*%
X98200000Y-102200000D03*
X111300000Y-105400000D03*
D14*
%TO.N,/VOUT*%
X105000000Y-84000000D03*
X103000000Y-84000000D03*
X102000000Y-84000000D03*
X104000000Y-84000000D03*
X101000000Y-84000000D03*
X106000000Y-71000000D03*
X106000000Y-72000000D03*
X106000000Y-73000000D03*
X106000000Y-74000000D03*
X106000000Y-75000000D03*
X106000000Y-76000000D03*
X106000000Y-77000000D03*
X106000000Y-78000000D03*
X106000000Y-79000000D03*
X106000000Y-81000000D03*
X106000000Y-80000000D03*
X106000000Y-82000000D03*
X106000000Y-83000000D03*
X106000000Y-84000000D03*
D15*
X110100000Y-107100000D03*
X115000000Y-114300000D03*
D14*
X95000000Y-92000000D03*
X94000000Y-92000000D03*
X93000000Y-92000000D03*
X92000000Y-92000000D03*
X91500000Y-91000000D03*
X92500000Y-91000000D03*
X93500000Y-91000000D03*
X94500000Y-91000000D03*
X95000000Y-90000000D03*
X94000000Y-90000000D03*
X93000000Y-90000000D03*
X92000000Y-90000000D03*
X120000000Y-106200000D03*
%TD*%
D17*
%TO.N,/HO*%
X105800000Y-110000000D02*
X105300000Y-110500000D01*
X106900000Y-110000000D02*
X105800000Y-110000000D01*
X97800000Y-109700000D02*
X97800000Y-110200000D01*
X98100000Y-110500000D02*
X105300000Y-110500000D01*
X97800000Y-110200000D02*
X98100000Y-110500000D01*
%TO.N,/LO*%
X109060001Y-103160001D02*
X99760001Y-103160001D01*
X111300000Y-105400000D02*
X109060001Y-103160001D01*
X99760001Y-103160001D02*
X99500000Y-102900000D01*
X99500000Y-102900000D02*
X99500000Y-102500000D01*
X99200000Y-102200000D02*
X98200000Y-102200000D01*
X99500000Y-102500000D02*
X99200000Y-102200000D01*
%TO.N,/VOUT*%
X115000000Y-113824802D02*
X115000000Y-114300000D01*
X112650000Y-107700000D02*
X112650000Y-111474802D01*
X112650000Y-111474802D02*
X115000000Y-113824802D01*
X112210001Y-107260001D02*
X112650000Y-107700000D01*
X110260001Y-107260001D02*
X112210001Y-107260001D01*
X110100000Y-107100000D02*
X110260001Y-107260001D01*
X112210001Y-104910001D02*
X109200000Y-101900000D01*
X112210001Y-107260001D02*
X112210001Y-104910001D01*
X94500000Y-91000000D02*
X97800000Y-91000000D01*
X97800000Y-91000000D02*
X99300000Y-89500000D01*
X108500000Y-89500000D02*
X109200000Y-90200000D01*
X99300000Y-89500000D02*
X108500000Y-89500000D01*
X109200000Y-101900000D02*
X109200000Y-90200000D01*
X106000000Y-66000000D02*
X110800000Y-66000000D01*
X110800000Y-66000000D02*
X111900000Y-67100000D01*
X111900000Y-94923198D02*
X115900000Y-98923198D01*
X111900000Y-67100000D02*
X111900000Y-94923198D01*
X115900000Y-105300000D02*
X116800000Y-106200000D01*
X115900000Y-98923198D02*
X115900000Y-105300000D01*
X116800000Y-106200000D02*
X120000000Y-106200000D01*
%TD*%
D18*
%TO.N,VCC*%
X90679668Y-111068426D02*
X90626901Y-111195818D01*
X90600000Y-111331056D01*
X90600000Y-111468944D01*
X90626901Y-111604182D01*
X90679668Y-111731574D01*
X90756274Y-111846224D01*
X90853776Y-111943726D01*
X90968426Y-112020332D01*
X91095818Y-112073099D01*
X91231056Y-112100000D01*
X91368944Y-112100000D01*
X91504182Y-112073099D01*
X91631574Y-112020332D01*
X91746224Y-111943726D01*
X91843726Y-111846224D01*
X91920332Y-111731574D01*
X91973099Y-111604182D01*
X92000000Y-111468944D01*
X92000000Y-111331056D01*
X91973099Y-111195818D01*
X91920332Y-111068426D01*
X91874612Y-111000000D01*
X97763466Y-111000000D01*
X97765045Y-111001296D01*
X97869279Y-111057010D01*
X97982379Y-111091318D01*
X98099999Y-111102903D01*
X98129473Y-111100000D01*
X105270526Y-111100000D01*
X105300000Y-111102903D01*
X105329474Y-111100000D01*
X105417621Y-111091318D01*
X105530721Y-111057010D01*
X105634955Y-111001296D01*
X105636534Y-111000000D01*
X108380109Y-111000000D01*
X108394174Y-111005826D01*
X108400000Y-111019891D01*
X108400000Y-119631056D01*
X108373099Y-119495818D01*
X108320332Y-119368426D01*
X108243726Y-119253776D01*
X108146224Y-119156274D01*
X108031574Y-119079668D01*
X107904182Y-119026901D01*
X107768944Y-119000000D01*
X107631056Y-119000000D01*
X107495818Y-119026901D01*
X107368426Y-119079668D01*
X107253776Y-119156274D01*
X107156274Y-119253776D01*
X107079668Y-119368426D01*
X107026901Y-119495818D01*
X107000000Y-119631056D01*
X107000000Y-119768944D01*
X107026901Y-119904182D01*
X107079668Y-120031574D01*
X107156274Y-120146224D01*
X107253776Y-120243726D01*
X107368426Y-120320332D01*
X107495818Y-120373099D01*
X107631056Y-120400000D01*
X107768944Y-120400000D01*
X107904182Y-120373099D01*
X108031574Y-120320332D01*
X108146224Y-120243726D01*
X108243726Y-120146224D01*
X108320332Y-120031574D01*
X108373099Y-119904182D01*
X108400000Y-119768944D01*
X108400000Y-122300000D01*
X108401921Y-122319509D01*
X108407612Y-122338268D01*
X108436901Y-122408979D01*
X108446142Y-122426268D01*
X108458578Y-122441421D01*
X108473732Y-122453858D01*
X108491021Y-122463099D01*
X108561732Y-122492388D01*
X108580492Y-122498079D01*
X108600000Y-122500000D01*
X122980109Y-122500000D01*
X122994174Y-122505826D01*
X123000000Y-122519891D01*
X123000000Y-126880109D01*
X122994174Y-126894174D01*
X122980109Y-126900000D01*
X120492163Y-126900000D01*
X120464175Y-126807733D01*
X120417746Y-126720871D01*
X120355264Y-126644736D01*
X120279129Y-126582254D01*
X120192267Y-126535825D01*
X120098017Y-126507235D01*
X120024560Y-126500000D01*
X120000000Y-126497581D01*
X119975440Y-126500000D01*
X80100000Y-126500000D01*
X80100000Y-126382627D01*
X80784182Y-126099230D01*
X81504837Y-125617703D01*
X82117703Y-125004837D01*
X82599230Y-124284182D01*
X82930911Y-123483433D01*
X83100000Y-122633362D01*
X83100000Y-121766638D01*
X82930911Y-120916567D01*
X82599230Y-120115818D01*
X82117703Y-119395163D01*
X81504837Y-118782297D01*
X80792094Y-118306056D01*
X105825000Y-118306056D01*
X105825000Y-118443944D01*
X105851901Y-118579182D01*
X105904668Y-118706574D01*
X105981274Y-118821224D01*
X106078776Y-118918726D01*
X106193426Y-118995332D01*
X106320818Y-119048099D01*
X106456056Y-119075000D01*
X106593944Y-119075000D01*
X106729182Y-119048099D01*
X106856574Y-118995332D01*
X106971224Y-118918726D01*
X107068726Y-118821224D01*
X107145332Y-118706574D01*
X107198099Y-118579182D01*
X107225000Y-118443944D01*
X107225000Y-118306056D01*
X107198099Y-118170818D01*
X107145332Y-118043426D01*
X107068726Y-117928776D01*
X106971224Y-117831274D01*
X106856574Y-117754668D01*
X106729182Y-117701901D01*
X106593944Y-117675000D01*
X106456056Y-117675000D01*
X106320818Y-117701901D01*
X106193426Y-117754668D01*
X106078776Y-117831274D01*
X105981274Y-117928776D01*
X105904668Y-118043426D01*
X105851901Y-118170818D01*
X105825000Y-118306056D01*
X80792094Y-118306056D01*
X80784182Y-118300770D01*
X80100000Y-118017373D01*
X80100000Y-116071961D01*
X81650000Y-116071961D01*
X81650000Y-116328039D01*
X81699958Y-116579196D01*
X81797955Y-116815781D01*
X81940224Y-117028702D01*
X82121298Y-117209776D01*
X82334219Y-117352045D01*
X82570804Y-117450042D01*
X82821961Y-117500000D01*
X83078039Y-117500000D01*
X83329196Y-117450042D01*
X83565781Y-117352045D01*
X83778702Y-117209776D01*
X83959776Y-117028702D01*
X84102045Y-116815781D01*
X84200042Y-116579196D01*
X84250000Y-116328039D01*
X84250000Y-116071961D01*
X85150000Y-116071961D01*
X85150000Y-116328039D01*
X85199958Y-116579196D01*
X85297955Y-116815781D01*
X85440224Y-117028702D01*
X85621298Y-117209776D01*
X85834219Y-117352045D01*
X86070804Y-117450042D01*
X86321961Y-117500000D01*
X86578039Y-117500000D01*
X86829196Y-117450042D01*
X87065781Y-117352045D01*
X87278702Y-117209776D01*
X87459776Y-117028702D01*
X87602045Y-116815781D01*
X87700042Y-116579196D01*
X87750000Y-116328039D01*
X87750000Y-116071961D01*
X87700042Y-115820804D01*
X87602045Y-115584219D01*
X87459776Y-115371298D01*
X87278702Y-115190224D01*
X87065781Y-115047955D01*
X87024984Y-115031056D01*
X91500000Y-115031056D01*
X91500000Y-115168944D01*
X91526901Y-115304182D01*
X91579668Y-115431574D01*
X91656274Y-115546224D01*
X91753776Y-115643726D01*
X91868426Y-115720332D01*
X91940052Y-115750000D01*
X91868426Y-115779668D01*
X91753776Y-115856274D01*
X91656274Y-115953776D01*
X91579668Y-116068426D01*
X91526901Y-116195818D01*
X91500000Y-116331056D01*
X91500000Y-116468944D01*
X91526901Y-116604182D01*
X91579668Y-116731574D01*
X91656274Y-116846224D01*
X91753776Y-116943726D01*
X91868426Y-117020332D01*
X91995818Y-117073099D01*
X92131056Y-117100000D01*
X92268944Y-117100000D01*
X92404182Y-117073099D01*
X92531574Y-117020332D01*
X92646224Y-116943726D01*
X92743726Y-116846224D01*
X92820332Y-116731574D01*
X92873099Y-116604182D01*
X92900000Y-116468944D01*
X92900000Y-116331056D01*
X92873099Y-116195818D01*
X92820332Y-116068426D01*
X92743726Y-115953776D01*
X92646224Y-115856274D01*
X92531574Y-115779668D01*
X92459948Y-115750000D01*
X92531574Y-115720332D01*
X92646224Y-115643726D01*
X92743726Y-115546224D01*
X92820332Y-115431574D01*
X92873099Y-115304182D01*
X92900000Y-115168944D01*
X92900000Y-115031056D01*
X92873099Y-114895818D01*
X92820332Y-114768426D01*
X92743726Y-114653776D01*
X92646224Y-114556274D01*
X92531574Y-114479668D01*
X92404182Y-114426901D01*
X92268944Y-114400000D01*
X92131056Y-114400000D01*
X91995818Y-114426901D01*
X91868426Y-114479668D01*
X91753776Y-114556274D01*
X91656274Y-114653776D01*
X91579668Y-114768426D01*
X91526901Y-114895818D01*
X91500000Y-115031056D01*
X87024984Y-115031056D01*
X86829196Y-114949958D01*
X86578039Y-114900000D01*
X86321961Y-114900000D01*
X86070804Y-114949958D01*
X85834219Y-115047955D01*
X85621298Y-115190224D01*
X85440224Y-115371298D01*
X85297955Y-115584219D01*
X85199958Y-115820804D01*
X85150000Y-116071961D01*
X84250000Y-116071961D01*
X84200042Y-115820804D01*
X84102045Y-115584219D01*
X83959776Y-115371298D01*
X83778702Y-115190224D01*
X83565781Y-115047955D01*
X83329196Y-114949958D01*
X83078039Y-114900000D01*
X82821961Y-114900000D01*
X82570804Y-114949958D01*
X82334219Y-115047955D01*
X82121298Y-115190224D01*
X81940224Y-115371298D01*
X81797955Y-115584219D01*
X81699958Y-115820804D01*
X81650000Y-116071961D01*
X80100000Y-116071961D01*
X80100000Y-112531056D01*
X91400000Y-112531056D01*
X91400000Y-112668944D01*
X91426901Y-112804182D01*
X91479668Y-112931574D01*
X91556274Y-113046224D01*
X91653776Y-113143726D01*
X91661298Y-113148752D01*
X91656274Y-113153776D01*
X91579668Y-113268426D01*
X91526901Y-113395818D01*
X91500000Y-113531056D01*
X91500000Y-113668944D01*
X91526901Y-113804182D01*
X91579668Y-113931574D01*
X91656274Y-114046224D01*
X91753776Y-114143726D01*
X91868426Y-114220332D01*
X91995818Y-114273099D01*
X92131056Y-114300000D01*
X92268944Y-114300000D01*
X92404182Y-114273099D01*
X92531574Y-114220332D01*
X92646224Y-114143726D01*
X92743726Y-114046224D01*
X92820332Y-113931574D01*
X92873099Y-113804182D01*
X92900000Y-113668944D01*
X92900000Y-113531056D01*
X92873099Y-113395818D01*
X92820332Y-113268426D01*
X92743726Y-113153776D01*
X92646224Y-113056274D01*
X92638702Y-113051248D01*
X92643726Y-113046224D01*
X92720332Y-112931574D01*
X92773099Y-112804182D01*
X92800000Y-112668944D01*
X92800000Y-112531056D01*
X92773099Y-112395818D01*
X92720332Y-112268426D01*
X92643726Y-112153776D01*
X92546224Y-112056274D01*
X92431574Y-111979668D01*
X92304182Y-111926901D01*
X92168944Y-111900000D01*
X92031056Y-111900000D01*
X91895818Y-111926901D01*
X91768426Y-111979668D01*
X91653776Y-112056274D01*
X91556274Y-112153776D01*
X91479668Y-112268426D01*
X91426901Y-112395818D01*
X91400000Y-112531056D01*
X80100000Y-112531056D01*
X80100000Y-111019891D01*
X80105826Y-111005826D01*
X80119891Y-111000000D01*
X90725388Y-111000000D01*
X90679668Y-111068426D01*
%TA.AperFunction,Conductor*%
D19*
G36*
X90679668Y-111068426D02*
G01*
X90626901Y-111195818D01*
X90600000Y-111331056D01*
X90600000Y-111468944D01*
X90626901Y-111604182D01*
X90679668Y-111731574D01*
X90756274Y-111846224D01*
X90853776Y-111943726D01*
X90968426Y-112020332D01*
X91095818Y-112073099D01*
X91231056Y-112100000D01*
X91368944Y-112100000D01*
X91504182Y-112073099D01*
X91631574Y-112020332D01*
X91746224Y-111943726D01*
X91843726Y-111846224D01*
X91920332Y-111731574D01*
X91973099Y-111604182D01*
X92000000Y-111468944D01*
X92000000Y-111331056D01*
X91973099Y-111195818D01*
X91920332Y-111068426D01*
X91874612Y-111000000D01*
X97763466Y-111000000D01*
X97765045Y-111001296D01*
X97869279Y-111057010D01*
X97982379Y-111091318D01*
X98099999Y-111102903D01*
X98129473Y-111100000D01*
X105270526Y-111100000D01*
X105300000Y-111102903D01*
X105329474Y-111100000D01*
X105417621Y-111091318D01*
X105530721Y-111057010D01*
X105634955Y-111001296D01*
X105636534Y-111000000D01*
X108380109Y-111000000D01*
X108394174Y-111005826D01*
X108400000Y-111019891D01*
X108400000Y-119631056D01*
X108373099Y-119495818D01*
X108320332Y-119368426D01*
X108243726Y-119253776D01*
X108146224Y-119156274D01*
X108031574Y-119079668D01*
X107904182Y-119026901D01*
X107768944Y-119000000D01*
X107631056Y-119000000D01*
X107495818Y-119026901D01*
X107368426Y-119079668D01*
X107253776Y-119156274D01*
X107156274Y-119253776D01*
X107079668Y-119368426D01*
X107026901Y-119495818D01*
X107000000Y-119631056D01*
X107000000Y-119768944D01*
X107026901Y-119904182D01*
X107079668Y-120031574D01*
X107156274Y-120146224D01*
X107253776Y-120243726D01*
X107368426Y-120320332D01*
X107495818Y-120373099D01*
X107631056Y-120400000D01*
X107768944Y-120400000D01*
X107904182Y-120373099D01*
X108031574Y-120320332D01*
X108146224Y-120243726D01*
X108243726Y-120146224D01*
X108320332Y-120031574D01*
X108373099Y-119904182D01*
X108400000Y-119768944D01*
X108400000Y-122300000D01*
X108401921Y-122319509D01*
X108407612Y-122338268D01*
X108436901Y-122408979D01*
X108446142Y-122426268D01*
X108458578Y-122441421D01*
X108473732Y-122453858D01*
X108491021Y-122463099D01*
X108561732Y-122492388D01*
X108580492Y-122498079D01*
X108600000Y-122500000D01*
X122980109Y-122500000D01*
X122994174Y-122505826D01*
X123000000Y-122519891D01*
X123000000Y-126880109D01*
X122994174Y-126894174D01*
X122980109Y-126900000D01*
X120492163Y-126900000D01*
X120464175Y-126807733D01*
X120417746Y-126720871D01*
X120355264Y-126644736D01*
X120279129Y-126582254D01*
X120192267Y-126535825D01*
X120098017Y-126507235D01*
X120024560Y-126500000D01*
X120000000Y-126497581D01*
X119975440Y-126500000D01*
X80100000Y-126500000D01*
X80100000Y-126382627D01*
X80784182Y-126099230D01*
X81504837Y-125617703D01*
X82117703Y-125004837D01*
X82599230Y-124284182D01*
X82930911Y-123483433D01*
X83100000Y-122633362D01*
X83100000Y-121766638D01*
X82930911Y-120916567D01*
X82599230Y-120115818D01*
X82117703Y-119395163D01*
X81504837Y-118782297D01*
X80792094Y-118306056D01*
X105825000Y-118306056D01*
X105825000Y-118443944D01*
X105851901Y-118579182D01*
X105904668Y-118706574D01*
X105981274Y-118821224D01*
X106078776Y-118918726D01*
X106193426Y-118995332D01*
X106320818Y-119048099D01*
X106456056Y-119075000D01*
X106593944Y-119075000D01*
X106729182Y-119048099D01*
X106856574Y-118995332D01*
X106971224Y-118918726D01*
X107068726Y-118821224D01*
X107145332Y-118706574D01*
X107198099Y-118579182D01*
X107225000Y-118443944D01*
X107225000Y-118306056D01*
X107198099Y-118170818D01*
X107145332Y-118043426D01*
X107068726Y-117928776D01*
X106971224Y-117831274D01*
X106856574Y-117754668D01*
X106729182Y-117701901D01*
X106593944Y-117675000D01*
X106456056Y-117675000D01*
X106320818Y-117701901D01*
X106193426Y-117754668D01*
X106078776Y-117831274D01*
X105981274Y-117928776D01*
X105904668Y-118043426D01*
X105851901Y-118170818D01*
X105825000Y-118306056D01*
X80792094Y-118306056D01*
X80784182Y-118300770D01*
X80100000Y-118017373D01*
X80100000Y-116071961D01*
X81650000Y-116071961D01*
X81650000Y-116328039D01*
X81699958Y-116579196D01*
X81797955Y-116815781D01*
X81940224Y-117028702D01*
X82121298Y-117209776D01*
X82334219Y-117352045D01*
X82570804Y-117450042D01*
X82821961Y-117500000D01*
X83078039Y-117500000D01*
X83329196Y-117450042D01*
X83565781Y-117352045D01*
X83778702Y-117209776D01*
X83959776Y-117028702D01*
X84102045Y-116815781D01*
X84200042Y-116579196D01*
X84250000Y-116328039D01*
X84250000Y-116071961D01*
X85150000Y-116071961D01*
X85150000Y-116328039D01*
X85199958Y-116579196D01*
X85297955Y-116815781D01*
X85440224Y-117028702D01*
X85621298Y-117209776D01*
X85834219Y-117352045D01*
X86070804Y-117450042D01*
X86321961Y-117500000D01*
X86578039Y-117500000D01*
X86829196Y-117450042D01*
X87065781Y-117352045D01*
X87278702Y-117209776D01*
X87459776Y-117028702D01*
X87602045Y-116815781D01*
X87700042Y-116579196D01*
X87750000Y-116328039D01*
X87750000Y-116071961D01*
X87700042Y-115820804D01*
X87602045Y-115584219D01*
X87459776Y-115371298D01*
X87278702Y-115190224D01*
X87065781Y-115047955D01*
X87024984Y-115031056D01*
X91500000Y-115031056D01*
X91500000Y-115168944D01*
X91526901Y-115304182D01*
X91579668Y-115431574D01*
X91656274Y-115546224D01*
X91753776Y-115643726D01*
X91868426Y-115720332D01*
X91940052Y-115750000D01*
X91868426Y-115779668D01*
X91753776Y-115856274D01*
X91656274Y-115953776D01*
X91579668Y-116068426D01*
X91526901Y-116195818D01*
X91500000Y-116331056D01*
X91500000Y-116468944D01*
X91526901Y-116604182D01*
X91579668Y-116731574D01*
X91656274Y-116846224D01*
X91753776Y-116943726D01*
X91868426Y-117020332D01*
X91995818Y-117073099D01*
X92131056Y-117100000D01*
X92268944Y-117100000D01*
X92404182Y-117073099D01*
X92531574Y-117020332D01*
X92646224Y-116943726D01*
X92743726Y-116846224D01*
X92820332Y-116731574D01*
X92873099Y-116604182D01*
X92900000Y-116468944D01*
X92900000Y-116331056D01*
X92873099Y-116195818D01*
X92820332Y-116068426D01*
X92743726Y-115953776D01*
X92646224Y-115856274D01*
X92531574Y-115779668D01*
X92459948Y-115750000D01*
X92531574Y-115720332D01*
X92646224Y-115643726D01*
X92743726Y-115546224D01*
X92820332Y-115431574D01*
X92873099Y-115304182D01*
X92900000Y-115168944D01*
X92900000Y-115031056D01*
X92873099Y-114895818D01*
X92820332Y-114768426D01*
X92743726Y-114653776D01*
X92646224Y-114556274D01*
X92531574Y-114479668D01*
X92404182Y-114426901D01*
X92268944Y-114400000D01*
X92131056Y-114400000D01*
X91995818Y-114426901D01*
X91868426Y-114479668D01*
X91753776Y-114556274D01*
X91656274Y-114653776D01*
X91579668Y-114768426D01*
X91526901Y-114895818D01*
X91500000Y-115031056D01*
X87024984Y-115031056D01*
X86829196Y-114949958D01*
X86578039Y-114900000D01*
X86321961Y-114900000D01*
X86070804Y-114949958D01*
X85834219Y-115047955D01*
X85621298Y-115190224D01*
X85440224Y-115371298D01*
X85297955Y-115584219D01*
X85199958Y-115820804D01*
X85150000Y-116071961D01*
X84250000Y-116071961D01*
X84200042Y-115820804D01*
X84102045Y-115584219D01*
X83959776Y-115371298D01*
X83778702Y-115190224D01*
X83565781Y-115047955D01*
X83329196Y-114949958D01*
X83078039Y-114900000D01*
X82821961Y-114900000D01*
X82570804Y-114949958D01*
X82334219Y-115047955D01*
X82121298Y-115190224D01*
X81940224Y-115371298D01*
X81797955Y-115584219D01*
X81699958Y-115820804D01*
X81650000Y-116071961D01*
X80100000Y-116071961D01*
X80100000Y-112531056D01*
X91400000Y-112531056D01*
X91400000Y-112668944D01*
X91426901Y-112804182D01*
X91479668Y-112931574D01*
X91556274Y-113046224D01*
X91653776Y-113143726D01*
X91661298Y-113148752D01*
X91656274Y-113153776D01*
X91579668Y-113268426D01*
X91526901Y-113395818D01*
X91500000Y-113531056D01*
X91500000Y-113668944D01*
X91526901Y-113804182D01*
X91579668Y-113931574D01*
X91656274Y-114046224D01*
X91753776Y-114143726D01*
X91868426Y-114220332D01*
X91995818Y-114273099D01*
X92131056Y-114300000D01*
X92268944Y-114300000D01*
X92404182Y-114273099D01*
X92531574Y-114220332D01*
X92646224Y-114143726D01*
X92743726Y-114046224D01*
X92820332Y-113931574D01*
X92873099Y-113804182D01*
X92900000Y-113668944D01*
X92900000Y-113531056D01*
X92873099Y-113395818D01*
X92820332Y-113268426D01*
X92743726Y-113153776D01*
X92646224Y-113056274D01*
X92638702Y-113051248D01*
X92643726Y-113046224D01*
X92720332Y-112931574D01*
X92773099Y-112804182D01*
X92800000Y-112668944D01*
X92800000Y-112531056D01*
X92773099Y-112395818D01*
X92720332Y-112268426D01*
X92643726Y-112153776D01*
X92546224Y-112056274D01*
X92431574Y-111979668D01*
X92304182Y-111926901D01*
X92168944Y-111900000D01*
X92031056Y-111900000D01*
X91895818Y-111926901D01*
X91768426Y-111979668D01*
X91653776Y-112056274D01*
X91556274Y-112153776D01*
X91479668Y-112268426D01*
X91426901Y-112395818D01*
X91400000Y-112531056D01*
X80100000Y-112531056D01*
X80100000Y-111019891D01*
X80105826Y-111005826D01*
X80119891Y-111000000D01*
X90725388Y-111000000D01*
X90679668Y-111068426D01*
G37*
%TD.AperFunction*%
%TD*%
D18*
%TO.N,/VOUT*%
X107674244Y-69672079D02*
X107696354Y-69688157D01*
X107714459Y-69695672D01*
X107733683Y-69699511D01*
X107753287Y-69699526D01*
X107772516Y-69695716D01*
X107790633Y-69688227D01*
X108297458Y-69417809D01*
X108301558Y-69415496D01*
X108832051Y-69099516D01*
X108833194Y-69098825D01*
X109368515Y-68770203D01*
X109606375Y-68629491D01*
X109653083Y-87892470D01*
X109638843Y-88002523D01*
X109599082Y-88099009D01*
X109535674Y-88181887D01*
X109452945Y-88245500D01*
X109356561Y-88285493D01*
X109246535Y-88300000D01*
X97900000Y-88300000D01*
X97886947Y-88300855D01*
X97757537Y-88317892D01*
X97732322Y-88324649D01*
X97611732Y-88374599D01*
X97589123Y-88387652D01*
X97485570Y-88467112D01*
X97467112Y-88485570D01*
X97387652Y-88589123D01*
X97374599Y-88611732D01*
X97324649Y-88732322D01*
X97317892Y-88757537D01*
X97300855Y-88886947D01*
X97300000Y-88900000D01*
X97300000Y-95893441D01*
X97285536Y-96003307D01*
X97245664Y-96099567D01*
X97182232Y-96182232D01*
X97099567Y-96245664D01*
X97003307Y-96285536D01*
X96893441Y-96300000D01*
X90706559Y-96300000D01*
X90596693Y-96285536D01*
X90500433Y-96245664D01*
X90417768Y-96182232D01*
X90354336Y-96099567D01*
X90314464Y-96003307D01*
X90300000Y-95893441D01*
X90300000Y-83513666D01*
X90314464Y-83403800D01*
X90354337Y-83307538D01*
X90421788Y-83219634D01*
X91919634Y-81721788D01*
X92007538Y-81654337D01*
X92103800Y-81614464D01*
X92213666Y-81600000D01*
X101700000Y-81600000D01*
X101713053Y-81599145D01*
X101842463Y-81582108D01*
X101867678Y-81575351D01*
X101988268Y-81525401D01*
X102010877Y-81512348D01*
X102114430Y-81432888D01*
X102132888Y-81414430D01*
X102212348Y-81310877D01*
X102225401Y-81288268D01*
X102275351Y-81167678D01*
X102282108Y-81142463D01*
X102299145Y-81013053D01*
X102300000Y-81000000D01*
X102300000Y-66506559D01*
X102314464Y-66396693D01*
X102354336Y-66300433D01*
X102417768Y-66217768D01*
X102500433Y-66154336D01*
X102596693Y-66114464D01*
X102706559Y-66100000D01*
X103959719Y-66100000D01*
X107674244Y-69672079D01*
%TA.AperFunction,Conductor*%
D19*
G36*
X107674244Y-69672079D02*
G01*
X107696354Y-69688157D01*
X107714459Y-69695672D01*
X107733683Y-69699511D01*
X107753287Y-69699526D01*
X107772516Y-69695716D01*
X107790633Y-69688227D01*
X108297458Y-69417809D01*
X108301558Y-69415496D01*
X108832051Y-69099516D01*
X108833194Y-69098825D01*
X109368515Y-68770203D01*
X109606375Y-68629491D01*
X109653083Y-87892470D01*
X109638843Y-88002523D01*
X109599082Y-88099009D01*
X109535674Y-88181887D01*
X109452945Y-88245500D01*
X109356561Y-88285493D01*
X109246535Y-88300000D01*
X97900000Y-88300000D01*
X97886947Y-88300855D01*
X97757537Y-88317892D01*
X97732322Y-88324649D01*
X97611732Y-88374599D01*
X97589123Y-88387652D01*
X97485570Y-88467112D01*
X97467112Y-88485570D01*
X97387652Y-88589123D01*
X97374599Y-88611732D01*
X97324649Y-88732322D01*
X97317892Y-88757537D01*
X97300855Y-88886947D01*
X97300000Y-88900000D01*
X97300000Y-95893441D01*
X97285536Y-96003307D01*
X97245664Y-96099567D01*
X97182232Y-96182232D01*
X97099567Y-96245664D01*
X97003307Y-96285536D01*
X96893441Y-96300000D01*
X90706559Y-96300000D01*
X90596693Y-96285536D01*
X90500433Y-96245664D01*
X90417768Y-96182232D01*
X90354336Y-96099567D01*
X90314464Y-96003307D01*
X90300000Y-95893441D01*
X90300000Y-83513666D01*
X90314464Y-83403800D01*
X90354337Y-83307538D01*
X90421788Y-83219634D01*
X91919634Y-81721788D01*
X92007538Y-81654337D01*
X92103800Y-81614464D01*
X92213666Y-81600000D01*
X101700000Y-81600000D01*
X101713053Y-81599145D01*
X101842463Y-81582108D01*
X101867678Y-81575351D01*
X101988268Y-81525401D01*
X102010877Y-81512348D01*
X102114430Y-81432888D01*
X102132888Y-81414430D01*
X102212348Y-81310877D01*
X102225401Y-81288268D01*
X102275351Y-81167678D01*
X102282108Y-81142463D01*
X102299145Y-81013053D01*
X102300000Y-81000000D01*
X102300000Y-66506559D01*
X102314464Y-66396693D01*
X102354336Y-66300433D01*
X102417768Y-66217768D01*
X102500433Y-66154336D01*
X102596693Y-66114464D01*
X102706559Y-66100000D01*
X103959719Y-66100000D01*
X107674244Y-69672079D01*
G37*
%TD.AperFunction*%
%TD*%
D20*
%TO.N,/SW*%
X97096257Y-98640769D02*
X97185955Y-98677923D01*
X97262976Y-98737024D01*
X97322077Y-98814045D01*
X97359231Y-98903743D01*
X97373000Y-99008328D01*
X97373000Y-99163289D01*
X97296063Y-99240226D01*
X97182795Y-99409744D01*
X97104774Y-99598102D01*
X97065000Y-99798061D01*
X97065000Y-100001939D01*
X97104774Y-100201898D01*
X97182795Y-100390256D01*
X97296063Y-100559774D01*
X97373000Y-100636711D01*
X97373000Y-101754737D01*
X97371414Y-101757111D01*
X97300932Y-101927271D01*
X97265000Y-102107911D01*
X97265000Y-102292089D01*
X97300932Y-102472729D01*
X97371414Y-102642889D01*
X97373000Y-102645263D01*
X97373000Y-103000000D01*
X97374086Y-103016577D01*
X97391123Y-103145987D01*
X97399704Y-103178011D01*
X97449654Y-103298601D01*
X97466232Y-103327313D01*
X97545692Y-103430866D01*
X97569134Y-103454308D01*
X97672687Y-103533768D01*
X97701399Y-103550346D01*
X97821989Y-103600296D01*
X97854013Y-103608877D01*
X97983423Y-103625914D01*
X98000000Y-103627000D01*
X99046132Y-103627000D01*
X99140559Y-103721427D01*
X99166710Y-103753292D01*
X99293855Y-103857637D01*
X99438914Y-103935173D01*
X99596312Y-103982919D01*
X99760001Y-103999041D01*
X99801019Y-103995001D01*
X103446245Y-103995001D01*
X103448000Y-104008328D01*
X103448000Y-107991672D01*
X103434231Y-108096257D01*
X103397077Y-108185955D01*
X103337976Y-108262976D01*
X103260955Y-108322077D01*
X103171257Y-108359231D01*
X103066672Y-108373000D01*
X85008328Y-108373000D01*
X84903743Y-108359231D01*
X84814045Y-108322077D01*
X84737024Y-108262976D01*
X84677923Y-108185955D01*
X84640769Y-108096257D01*
X84627000Y-107991672D01*
X84627000Y-99008328D01*
X84640769Y-98903743D01*
X84677923Y-98814045D01*
X84737024Y-98737024D01*
X84814045Y-98677923D01*
X84903743Y-98640769D01*
X85008328Y-98627000D01*
X96991672Y-98627000D01*
X97096257Y-98640769D01*
%TA.AperFunction,Conductor*%
D19*
G36*
X97096257Y-98640769D02*
G01*
X97185955Y-98677923D01*
X97262976Y-98737024D01*
X97322077Y-98814045D01*
X97359231Y-98903743D01*
X97373000Y-99008328D01*
X97373000Y-99163289D01*
X97296063Y-99240226D01*
X97182795Y-99409744D01*
X97104774Y-99598102D01*
X97065000Y-99798061D01*
X97065000Y-100001939D01*
X97104774Y-100201898D01*
X97182795Y-100390256D01*
X97296063Y-100559774D01*
X97373000Y-100636711D01*
X97373000Y-101754737D01*
X97371414Y-101757111D01*
X97300932Y-101927271D01*
X97265000Y-102107911D01*
X97265000Y-102292089D01*
X97300932Y-102472729D01*
X97371414Y-102642889D01*
X97373000Y-102645263D01*
X97373000Y-103000000D01*
X97374086Y-103016577D01*
X97391123Y-103145987D01*
X97399704Y-103178011D01*
X97449654Y-103298601D01*
X97466232Y-103327313D01*
X97545692Y-103430866D01*
X97569134Y-103454308D01*
X97672687Y-103533768D01*
X97701399Y-103550346D01*
X97821989Y-103600296D01*
X97854013Y-103608877D01*
X97983423Y-103625914D01*
X98000000Y-103627000D01*
X99046132Y-103627000D01*
X99140559Y-103721427D01*
X99166710Y-103753292D01*
X99293855Y-103857637D01*
X99438914Y-103935173D01*
X99596312Y-103982919D01*
X99760001Y-103999041D01*
X99801019Y-103995001D01*
X103446245Y-103995001D01*
X103448000Y-104008328D01*
X103448000Y-107991672D01*
X103434231Y-108096257D01*
X103397077Y-108185955D01*
X103337976Y-108262976D01*
X103260955Y-108322077D01*
X103171257Y-108359231D01*
X103066672Y-108373000D01*
X85008328Y-108373000D01*
X84903743Y-108359231D01*
X84814045Y-108322077D01*
X84737024Y-108262976D01*
X84677923Y-108185955D01*
X84640769Y-108096257D01*
X84627000Y-107991672D01*
X84627000Y-99008328D01*
X84640769Y-98903743D01*
X84677923Y-98814045D01*
X84737024Y-98737024D01*
X84814045Y-98677923D01*
X84903743Y-98640769D01*
X85008328Y-98627000D01*
X96991672Y-98627000D01*
X97096257Y-98640769D01*
G37*
%TD.AperFunction*%
%TD*%
D18*
%TO.N,GND*%
X102372012Y-55771873D02*
X104990833Y-55990396D01*
X107592113Y-56363851D01*
X110166635Y-56890915D01*
X112705390Y-57569743D01*
X115199419Y-58397940D01*
X117639926Y-59372587D01*
X120018345Y-60490260D01*
X122326290Y-61747020D01*
X124555635Y-63138442D01*
X126698540Y-64659631D01*
X128747446Y-66305222D01*
X130695173Y-68069450D01*
X132534824Y-69946066D01*
X134259946Y-71928488D01*
X135864457Y-74009725D01*
X137342726Y-76182475D01*
X138689524Y-78439054D01*
X139900128Y-80771543D01*
X140970267Y-83171723D01*
X141896174Y-85631133D01*
X142674596Y-88141140D01*
X143302788Y-90692892D01*
X143778537Y-93277398D01*
X144100174Y-95885586D01*
X144266560Y-98508242D01*
X144277115Y-101136150D01*
X144131797Y-103760072D01*
X143831120Y-106370765D01*
X143376145Y-108959005D01*
X142768472Y-111515707D01*
X142010235Y-114031885D01*
X141104112Y-116498657D01*
X140053278Y-118907370D01*
X138861458Y-121249491D01*
X137532820Y-123516827D01*
X136072059Y-125701366D01*
X134484311Y-127795430D01*
X132775169Y-129791642D01*
X130950647Y-131682979D01*
X129017163Y-133462784D01*
X126974985Y-135130133D01*
X126761733Y-135292000D01*
X122293263Y-135292000D01*
X120708000Y-133706738D01*
X120708000Y-128312631D01*
X125826270Y-128312631D01*
X125826270Y-128855909D01*
X125932258Y-129388749D01*
X126140162Y-129890673D01*
X126441991Y-130342393D01*
X126826147Y-130726549D01*
X127277867Y-131028378D01*
X127779791Y-131236282D01*
X128312631Y-131342270D01*
X128855909Y-131342270D01*
X129388749Y-131236282D01*
X129890673Y-131028378D01*
X130342393Y-130726549D01*
X130726549Y-130342393D01*
X131028378Y-129890673D01*
X131236282Y-129388749D01*
X131342270Y-128855909D01*
X131342270Y-128312631D01*
X131236282Y-127779791D01*
X131028378Y-127277867D01*
X130726549Y-126826147D01*
X130342393Y-126441991D01*
X129890673Y-126140162D01*
X129388749Y-125932258D01*
X128855909Y-125826270D01*
X128312631Y-125826270D01*
X127779791Y-125932258D01*
X127277867Y-126140162D01*
X126826147Y-126441991D01*
X126441991Y-126826147D01*
X126140162Y-127277867D01*
X125932258Y-127779791D01*
X125826270Y-128312631D01*
X120708000Y-128312631D01*
X120708000Y-127608000D01*
X123000000Y-127608000D01*
X123118612Y-127596318D01*
X123232668Y-127561720D01*
X123303379Y-127532431D01*
X123408500Y-127476243D01*
X123500634Y-127400630D01*
X123576246Y-127308495D01*
X123632431Y-127203379D01*
X123661720Y-127132668D01*
X123696317Y-127018615D01*
X123708000Y-126900000D01*
X123708000Y-122500000D01*
X123696318Y-122381388D01*
X123661720Y-122267332D01*
X123632431Y-122196621D01*
X123576243Y-122091500D01*
X123500630Y-121999366D01*
X123408495Y-121923754D01*
X123303379Y-121867569D01*
X123232668Y-121838280D01*
X123118615Y-121803683D01*
X123000000Y-121792000D01*
X109108000Y-121792000D01*
X109108000Y-116010570D01*
X109227000Y-116010570D01*
X109227000Y-116189430D01*
X109261894Y-116364854D01*
X109330341Y-116530099D01*
X109429711Y-116678816D01*
X109556184Y-116805289D01*
X109704901Y-116904659D01*
X109870146Y-116973106D01*
X110045570Y-117008000D01*
X110224430Y-117008000D01*
X110399854Y-116973106D01*
X110565099Y-116904659D01*
X110713816Y-116805289D01*
X110840289Y-116678816D01*
X110939659Y-116530099D01*
X111008106Y-116364854D01*
X111043000Y-116189430D01*
X111043000Y-116010570D01*
X111008106Y-115835146D01*
X110939659Y-115669901D01*
X110840289Y-115521184D01*
X110713816Y-115394711D01*
X110565099Y-115295341D01*
X110399854Y-115226894D01*
X110224430Y-115192000D01*
X110045570Y-115192000D01*
X109870146Y-115226894D01*
X109704901Y-115295341D01*
X109556184Y-115394711D01*
X109429711Y-115521184D01*
X109330341Y-115669901D01*
X109261894Y-115835146D01*
X109227000Y-116010570D01*
X109108000Y-116010570D01*
X109108000Y-111000000D01*
X109096318Y-110881388D01*
X109061720Y-110767332D01*
X109032431Y-110696621D01*
X108976243Y-110591500D01*
X108900630Y-110499366D01*
X108808495Y-110423754D01*
X108703379Y-110367569D01*
X108632668Y-110338280D01*
X108518615Y-110303683D01*
X108400000Y-110292000D01*
X107761862Y-110292000D01*
X107773106Y-110264854D01*
X107808000Y-110089430D01*
X107808000Y-109910570D01*
X107773106Y-109735146D01*
X107704659Y-109569901D01*
X107605289Y-109421184D01*
X107478816Y-109294711D01*
X107330099Y-109195341D01*
X107164854Y-109126894D01*
X106989430Y-109092000D01*
X106810570Y-109092000D01*
X106635146Y-109126894D01*
X106484562Y-109189268D01*
X106483031Y-109189421D01*
X106459971Y-109190679D01*
X106423209Y-109191579D01*
X106372888Y-109191954D01*
X106309563Y-109192000D01*
X105839680Y-109192000D01*
X105800000Y-109188092D01*
X105760320Y-109192000D01*
X105760312Y-109192000D01*
X105655536Y-109202320D01*
X105641603Y-109203692D01*
X105587728Y-109220035D01*
X105489296Y-109249894D01*
X105348928Y-109324922D01*
X105225894Y-109425894D01*
X105200593Y-109456723D01*
X104965317Y-109692000D01*
X98708000Y-109692000D01*
X98708000Y-109610570D01*
X98673106Y-109435146D01*
X98604659Y-109269901D01*
X98505289Y-109121184D01*
X98492105Y-109108000D01*
X103075000Y-109108000D01*
X103154359Y-109102799D01*
X103283769Y-109085762D01*
X103437081Y-109044682D01*
X103557671Y-108994732D01*
X103695130Y-108915370D01*
X103798683Y-108835910D01*
X103910910Y-108723683D01*
X103990370Y-108620130D01*
X104069732Y-108482671D01*
X104119682Y-108362081D01*
X104160762Y-108208769D01*
X104177799Y-108079359D01*
X104183000Y-108000000D01*
X104183000Y-104000000D01*
X104180903Y-103968001D01*
X108725318Y-103968001D01*
X110311154Y-105553837D01*
X110311159Y-105553844D01*
X110355900Y-105598649D01*
X110391212Y-105634492D01*
X110416578Y-105661131D01*
X110432004Y-105678338D01*
X110432966Y-105679514D01*
X110495341Y-105830099D01*
X110594711Y-105978816D01*
X110721184Y-106105289D01*
X110869901Y-106204659D01*
X111035146Y-106273106D01*
X111210570Y-106308000D01*
X111389430Y-106308000D01*
X111402001Y-106305499D01*
X111402001Y-106452001D01*
X110736106Y-106452001D01*
X110678816Y-106394711D01*
X110530099Y-106295341D01*
X110364854Y-106226894D01*
X110189430Y-106192000D01*
X110010570Y-106192000D01*
X109835146Y-106226894D01*
X109669901Y-106295341D01*
X109521184Y-106394711D01*
X109394711Y-106521184D01*
X109295341Y-106669901D01*
X109226894Y-106835146D01*
X109192000Y-107010570D01*
X109192000Y-107189430D01*
X109226894Y-107364854D01*
X109295341Y-107530099D01*
X109394711Y-107678816D01*
X109521184Y-107805289D01*
X109669901Y-107904659D01*
X109835146Y-107973106D01*
X109906701Y-107987339D01*
X109949297Y-108010107D01*
X110101605Y-108056309D01*
X110220313Y-108068001D01*
X110220321Y-108068001D01*
X110260001Y-108071909D01*
X110299681Y-108068001D01*
X111842000Y-108068001D01*
X111842001Y-111435112D01*
X111838092Y-111474802D01*
X111853692Y-111633198D01*
X111893840Y-111765546D01*
X111899895Y-111785506D01*
X111974923Y-111925874D01*
X112075895Y-112048908D01*
X112106723Y-112074208D01*
X114117066Y-114084553D01*
X114092000Y-114210570D01*
X114092000Y-114389430D01*
X114126894Y-114564854D01*
X114195341Y-114730099D01*
X114294711Y-114878816D01*
X114421184Y-115005289D01*
X114569901Y-115104659D01*
X114735146Y-115173106D01*
X114910570Y-115208000D01*
X115089430Y-115208000D01*
X115264854Y-115173106D01*
X115430099Y-115104659D01*
X115578816Y-115005289D01*
X115705289Y-114878816D01*
X115804659Y-114730099D01*
X115873106Y-114564854D01*
X115908000Y-114389430D01*
X115908000Y-114210570D01*
X115873106Y-114035146D01*
X115826188Y-113921877D01*
X115824197Y-113910248D01*
X115818596Y-113867374D01*
X115817593Y-113860040D01*
X115810482Y-113810325D01*
X115808000Y-113785122D01*
X115808000Y-113785114D01*
X115796308Y-113666406D01*
X115773949Y-113592698D01*
X115750106Y-113514097D01*
X115714805Y-113448054D01*
X115675078Y-113373730D01*
X115632076Y-113321332D01*
X115599406Y-113281523D01*
X115599402Y-113281519D01*
X115574106Y-113250696D01*
X115543284Y-113225401D01*
X113458000Y-111140119D01*
X113458000Y-107739680D01*
X113461908Y-107700000D01*
X113458000Y-107660320D01*
X113458000Y-107660312D01*
X113446308Y-107541604D01*
X113400106Y-107389296D01*
X113393213Y-107376399D01*
X121142000Y-107376399D01*
X121142000Y-107663601D01*
X121198030Y-107945283D01*
X121307937Y-108210622D01*
X121467497Y-108449421D01*
X121670579Y-108652503D01*
X121909378Y-108812063D01*
X122174717Y-108921970D01*
X122456399Y-108978000D01*
X122743601Y-108978000D01*
X123025283Y-108921970D01*
X123290622Y-108812063D01*
X123529421Y-108652503D01*
X123732503Y-108449421D01*
X123892063Y-108210622D01*
X124001970Y-107945283D01*
X124058000Y-107663601D01*
X124058000Y-107376399D01*
X124001970Y-107094717D01*
X123892063Y-106829378D01*
X123732503Y-106590579D01*
X123529421Y-106387497D01*
X123314910Y-106244166D01*
X123488852Y-106135736D01*
X123697246Y-105940122D01*
X123863473Y-105707611D01*
X123981146Y-105447139D01*
X124007903Y-105358910D01*
X123896889Y-105134000D01*
X122754000Y-105134000D01*
X122754000Y-105154000D01*
X122446000Y-105154000D01*
X122446000Y-105134000D01*
X121303111Y-105134000D01*
X121192097Y-105358910D01*
X121218854Y-105447139D01*
X121336527Y-105707611D01*
X121502754Y-105940122D01*
X121711148Y-106135736D01*
X121885090Y-106244166D01*
X121670579Y-106387497D01*
X121467497Y-106590579D01*
X121307937Y-106829378D01*
X121198030Y-107094717D01*
X121142000Y-107376399D01*
X113393213Y-107376399D01*
X113325078Y-107248928D01*
X113224106Y-107125894D01*
X113193278Y-107100594D01*
X113018001Y-106925317D01*
X113018001Y-104949680D01*
X113021909Y-104910000D01*
X113018001Y-104870320D01*
X113018001Y-104870313D01*
X113006309Y-104751605D01*
X113001847Y-104736894D01*
X112982209Y-104672157D01*
X112960107Y-104599297D01*
X112885079Y-104458929D01*
X112784107Y-104335895D01*
X112753279Y-104310595D01*
X110008000Y-101565317D01*
X110008000Y-90239677D01*
X110011908Y-90199999D01*
X110008000Y-90160321D01*
X110008000Y-90160312D01*
X109996308Y-90041604D01*
X109950106Y-89889296D01*
X109875078Y-89748928D01*
X109774106Y-89625894D01*
X109743277Y-89600593D01*
X109150683Y-89008000D01*
X109253100Y-89008000D01*
X109332580Y-89002783D01*
X109462185Y-88985694D01*
X109615721Y-88944487D01*
X109736466Y-88894386D01*
X109874064Y-88814795D01*
X109977696Y-88735109D01*
X110089964Y-88622569D01*
X110169398Y-88518745D01*
X110248656Y-88380952D01*
X110298464Y-88260085D01*
X110339297Y-88106453D01*
X110356072Y-87976808D01*
X110361097Y-87897314D01*
X110314822Y-68812851D01*
X110585233Y-68671390D01*
X110934323Y-68535040D01*
X111055313Y-68516915D01*
X111092000Y-68785671D01*
X111092001Y-94883508D01*
X111088092Y-94923198D01*
X111103692Y-95081594D01*
X111145426Y-95219169D01*
X111149895Y-95233902D01*
X111224923Y-95374270D01*
X111325895Y-95497304D01*
X111356723Y-95522604D01*
X112935228Y-97101110D01*
X112889430Y-97092000D01*
X112710570Y-97092000D01*
X112535146Y-97126894D01*
X112369901Y-97195341D01*
X112221184Y-97294711D01*
X112094711Y-97421184D01*
X111995341Y-97569901D01*
X111926894Y-97735146D01*
X111892000Y-97910570D01*
X111892000Y-98089430D01*
X111926894Y-98264854D01*
X111995341Y-98430099D01*
X112094711Y-98578816D01*
X112221184Y-98705289D01*
X112369901Y-98804659D01*
X112535146Y-98873106D01*
X112710570Y-98908000D01*
X112889430Y-98908000D01*
X113064854Y-98873106D01*
X113230099Y-98804659D01*
X113378816Y-98705289D01*
X113400000Y-98684105D01*
X113421184Y-98705289D01*
X113569901Y-98804659D01*
X113735146Y-98873106D01*
X113910570Y-98908000D01*
X114089430Y-98908000D01*
X114264854Y-98873106D01*
X114430099Y-98804659D01*
X114555192Y-98721074D01*
X115092000Y-99257882D01*
X115092001Y-105260310D01*
X115088092Y-105300000D01*
X115103692Y-105458396D01*
X115142121Y-105585078D01*
X115149895Y-105610704D01*
X115224923Y-105751072D01*
X115325895Y-105874106D01*
X115356723Y-105899406D01*
X116200594Y-106743277D01*
X116225894Y-106774106D01*
X116348928Y-106875078D01*
X116489296Y-106950106D01*
X116595401Y-106982293D01*
X116641603Y-106996308D01*
X116652417Y-106997373D01*
X116760312Y-107008000D01*
X116760319Y-107008000D01*
X116799999Y-107011908D01*
X116839679Y-107008000D01*
X119204895Y-107008000D01*
X119275183Y-107009182D01*
X119321187Y-107011916D01*
X119349555Y-107015196D01*
X119364883Y-107018035D01*
X119374257Y-107020514D01*
X119386180Y-107024621D01*
X119407893Y-107033604D01*
X119443550Y-107050092D01*
X119495008Y-107075129D01*
X119496361Y-107075790D01*
X119522533Y-107093278D01*
X119705977Y-107169263D01*
X119900721Y-107208000D01*
X120099279Y-107208000D01*
X120294023Y-107169263D01*
X120477467Y-107093278D01*
X120642562Y-106982965D01*
X120782965Y-106842562D01*
X120893278Y-106677467D01*
X120969263Y-106494023D01*
X121008000Y-106299279D01*
X121008000Y-106100721D01*
X120969263Y-105905977D01*
X120893278Y-105722533D01*
X120782965Y-105557438D01*
X120642562Y-105417035D01*
X120477467Y-105306722D01*
X120294023Y-105230737D01*
X120099279Y-105192000D01*
X119900721Y-105192000D01*
X119705977Y-105230737D01*
X119522533Y-105306722D01*
X119496367Y-105324206D01*
X119495198Y-105324777D01*
X119443550Y-105349907D01*
X119407893Y-105366395D01*
X119386180Y-105375378D01*
X119374257Y-105379485D01*
X119364883Y-105381964D01*
X119349555Y-105384803D01*
X119321187Y-105388083D01*
X119275182Y-105390818D01*
X119204888Y-105392000D01*
X117134684Y-105392000D01*
X116708000Y-104965317D01*
X116708000Y-102818910D01*
X121192097Y-102818910D01*
X121218854Y-102907139D01*
X121336527Y-103167611D01*
X121502754Y-103400122D01*
X121711148Y-103595736D01*
X121894449Y-103710000D01*
X121711148Y-103824264D01*
X121502754Y-104019878D01*
X121336527Y-104252389D01*
X121218854Y-104512861D01*
X121192097Y-104601090D01*
X121303111Y-104826000D01*
X122446000Y-104826000D01*
X122446000Y-102594000D01*
X122754000Y-102594000D01*
X122754000Y-104826000D01*
X123896889Y-104826000D01*
X124007903Y-104601090D01*
X123981146Y-104512861D01*
X123863473Y-104252389D01*
X123697246Y-104019878D01*
X123488852Y-103824264D01*
X123305551Y-103710000D01*
X123488852Y-103595736D01*
X123697246Y-103400122D01*
X123863473Y-103167611D01*
X123981146Y-102907139D01*
X124007903Y-102818910D01*
X123896889Y-102594000D01*
X122754000Y-102594000D01*
X122446000Y-102594000D01*
X121303111Y-102594000D01*
X121192097Y-102818910D01*
X116708000Y-102818910D01*
X116708000Y-99050000D01*
X121139059Y-99050000D01*
X121139059Y-100750000D01*
X121150798Y-100869189D01*
X121185564Y-100983797D01*
X121242021Y-101089421D01*
X121317999Y-101182001D01*
X121410579Y-101257979D01*
X121516203Y-101314436D01*
X121630811Y-101349202D01*
X121640908Y-101350196D01*
X121502754Y-101479878D01*
X121336527Y-101712389D01*
X121218854Y-101972861D01*
X121192097Y-102061090D01*
X121303111Y-102286000D01*
X122446000Y-102286000D01*
X122446000Y-102266000D01*
X122754000Y-102266000D01*
X122754000Y-102286000D01*
X123896889Y-102286000D01*
X124007903Y-102061090D01*
X123981146Y-101972861D01*
X123863473Y-101712389D01*
X123697246Y-101479878D01*
X123559092Y-101350196D01*
X123569189Y-101349202D01*
X123683797Y-101314436D01*
X123789421Y-101257979D01*
X123882001Y-101182001D01*
X123957979Y-101089421D01*
X124014436Y-100983797D01*
X124049202Y-100869189D01*
X124060941Y-100750000D01*
X124060941Y-99050000D01*
X124049202Y-98930811D01*
X124014436Y-98816203D01*
X123957979Y-98710579D01*
X123882001Y-98617999D01*
X123789421Y-98542021D01*
X123683797Y-98485564D01*
X123569189Y-98450798D01*
X123450000Y-98439059D01*
X121750000Y-98439059D01*
X121630811Y-98450798D01*
X121516203Y-98485564D01*
X121410579Y-98542021D01*
X121317999Y-98617999D01*
X121242021Y-98710579D01*
X121185564Y-98816203D01*
X121150798Y-98930811D01*
X121139059Y-99050000D01*
X116708000Y-99050000D01*
X116708000Y-98962877D01*
X116711908Y-98923197D01*
X116708000Y-98883517D01*
X116708000Y-98883510D01*
X116696308Y-98764802D01*
X116650106Y-98612494D01*
X116575078Y-98472126D01*
X116474106Y-98349092D01*
X116443279Y-98323793D01*
X112708000Y-94588515D01*
X112708000Y-71144091D01*
X125826270Y-71144091D01*
X125826270Y-71687369D01*
X125932258Y-72220209D01*
X126140162Y-72722133D01*
X126441991Y-73173853D01*
X126826147Y-73558009D01*
X127277867Y-73859838D01*
X127779791Y-74067742D01*
X128312631Y-74173730D01*
X128855909Y-74173730D01*
X129388749Y-74067742D01*
X129890673Y-73859838D01*
X130342393Y-73558009D01*
X130726549Y-73173853D01*
X131028378Y-72722133D01*
X131236282Y-72220209D01*
X131342270Y-71687369D01*
X131342270Y-71144091D01*
X131236282Y-70611251D01*
X131028378Y-70109327D01*
X130726549Y-69657607D01*
X130342393Y-69273451D01*
X129890673Y-68971622D01*
X129388749Y-68763718D01*
X128855909Y-68657730D01*
X128312631Y-68657730D01*
X127779791Y-68763718D01*
X127277867Y-68971622D01*
X126826147Y-69273451D01*
X126441991Y-69657607D01*
X126140162Y-70109327D01*
X125932258Y-70611251D01*
X125826270Y-71144091D01*
X112708000Y-71144091D01*
X112708000Y-67139680D01*
X112711908Y-67100000D01*
X112708000Y-67060320D01*
X112708000Y-67060312D01*
X112696308Y-66941604D01*
X112690224Y-66921548D01*
X112650106Y-66789295D01*
X112606178Y-66707113D01*
X112575078Y-66648928D01*
X112532669Y-66597253D01*
X112334125Y-65811664D01*
X112305147Y-65725019D01*
X112019441Y-65045393D01*
X111971777Y-64954402D01*
X111596609Y-64365340D01*
X111535123Y-64284574D01*
X111066994Y-63765931D01*
X111003852Y-63705370D01*
X110439265Y-63236998D01*
X110385791Y-63197370D01*
X109721244Y-62759126D01*
X109682636Y-62735676D01*
X108914633Y-62307411D01*
X108890896Y-62294853D01*
X108323626Y-62010603D01*
X108182706Y-61916443D01*
X107344104Y-61569083D01*
X106453848Y-61392000D01*
X105546152Y-61392000D01*
X104655896Y-61569083D01*
X103817294Y-61916443D01*
X103062571Y-62420733D01*
X102420733Y-63062571D01*
X101916443Y-63817294D01*
X101569083Y-64655896D01*
X101392000Y-65546152D01*
X101392000Y-66453848D01*
X101569083Y-67344104D01*
X101592000Y-67399431D01*
X101592000Y-80892000D01*
X92207107Y-80892000D01*
X92127748Y-80897201D01*
X91998338Y-80914238D01*
X91845026Y-80955318D01*
X91724436Y-81005268D01*
X91586979Y-81084629D01*
X91483425Y-81164089D01*
X91423632Y-81216526D01*
X89916526Y-82723632D01*
X89864089Y-82783425D01*
X89784629Y-82886979D01*
X89705268Y-83024436D01*
X89655318Y-83145026D01*
X89614238Y-83298338D01*
X89597201Y-83427748D01*
X89592000Y-83507107D01*
X89592000Y-95900000D01*
X89597201Y-95979359D01*
X89614238Y-96108769D01*
X89655318Y-96262081D01*
X89705268Y-96382671D01*
X89784630Y-96520130D01*
X89864090Y-96623683D01*
X89976317Y-96735910D01*
X90079870Y-96815370D01*
X90217329Y-96894732D01*
X90337919Y-96944682D01*
X90491231Y-96985762D01*
X90620641Y-97002799D01*
X90700000Y-97008000D01*
X96900000Y-97008000D01*
X96979359Y-97002799D01*
X97108769Y-96985762D01*
X97262081Y-96944682D01*
X97382671Y-96894732D01*
X97520130Y-96815370D01*
X97623683Y-96735910D01*
X97735910Y-96623683D01*
X97815370Y-96520130D01*
X97894732Y-96382671D01*
X97944682Y-96262081D01*
X97985762Y-96108769D01*
X98002799Y-95979359D01*
X98008000Y-95900000D01*
X98008000Y-91781261D01*
X98110704Y-91750106D01*
X98251072Y-91675078D01*
X98374106Y-91574106D01*
X98399411Y-91543272D01*
X99634684Y-90308000D01*
X108165317Y-90308000D01*
X108392001Y-90534685D01*
X108392000Y-101860320D01*
X108388092Y-101900000D01*
X108392000Y-101939680D01*
X108392000Y-101939687D01*
X108398033Y-102000935D01*
X108403692Y-102058396D01*
X108404792Y-102062021D01*
X108449894Y-102210703D01*
X108524922Y-102351071D01*
X108525685Y-102352001D01*
X100297332Y-102352001D01*
X100296308Y-102341604D01*
X100296152Y-102341088D01*
X100282341Y-102295560D01*
X100250106Y-102189296D01*
X100175078Y-102048928D01*
X100074106Y-101925894D01*
X100043272Y-101900589D01*
X99799411Y-101656728D01*
X99785612Y-101639915D01*
X99882965Y-101542562D01*
X99993278Y-101377467D01*
X100069263Y-101194023D01*
X100100000Y-101039498D01*
X100130737Y-101194023D01*
X100206722Y-101377467D01*
X100317035Y-101542562D01*
X100457438Y-101682965D01*
X100622533Y-101793278D01*
X100805977Y-101869263D01*
X101000721Y-101908000D01*
X101199279Y-101908000D01*
X101394023Y-101869263D01*
X101577467Y-101793278D01*
X101742562Y-101682965D01*
X101882965Y-101542562D01*
X101993278Y-101377467D01*
X102069263Y-101194023D01*
X102100000Y-101039498D01*
X102130737Y-101194023D01*
X102206722Y-101377467D01*
X102317035Y-101542562D01*
X102457438Y-101682965D01*
X102622533Y-101793278D01*
X102805977Y-101869263D01*
X103000721Y-101908000D01*
X103199279Y-101908000D01*
X103394023Y-101869263D01*
X103577467Y-101793278D01*
X103742562Y-101682965D01*
X103882965Y-101542562D01*
X103993278Y-101377467D01*
X104069263Y-101194023D01*
X104100000Y-101039498D01*
X104130737Y-101194023D01*
X104206722Y-101377467D01*
X104317035Y-101542562D01*
X104457438Y-101682965D01*
X104622533Y-101793278D01*
X104805977Y-101869263D01*
X105000721Y-101908000D01*
X105199279Y-101908000D01*
X105394023Y-101869263D01*
X105577467Y-101793278D01*
X105742562Y-101682965D01*
X105882965Y-101542562D01*
X105993278Y-101377467D01*
X106069263Y-101194023D01*
X106108000Y-100999279D01*
X106108000Y-100800721D01*
X106069263Y-100605977D01*
X105993278Y-100422533D01*
X105882965Y-100257438D01*
X105742562Y-100117035D01*
X105577467Y-100006722D01*
X105394023Y-99930737D01*
X105239498Y-99900000D01*
X105394023Y-99869263D01*
X105577467Y-99793278D01*
X105742562Y-99682965D01*
X105882965Y-99542562D01*
X105993278Y-99377467D01*
X106069263Y-99194023D01*
X106108000Y-98999279D01*
X106108000Y-98800721D01*
X106069263Y-98605977D01*
X105993278Y-98422533D01*
X105882965Y-98257438D01*
X105742562Y-98117035D01*
X105577467Y-98006722D01*
X105394023Y-97930737D01*
X105199279Y-97892000D01*
X105000721Y-97892000D01*
X104805977Y-97930737D01*
X104622533Y-98006722D01*
X104457438Y-98117035D01*
X104317035Y-98257438D01*
X104206722Y-98422533D01*
X104130737Y-98605977D01*
X104100000Y-98760502D01*
X104069263Y-98605977D01*
X103993278Y-98422533D01*
X103882965Y-98257438D01*
X103742562Y-98117035D01*
X103577467Y-98006722D01*
X103394023Y-97930737D01*
X103199279Y-97892000D01*
X103000721Y-97892000D01*
X102805977Y-97930737D01*
X102622533Y-98006722D01*
X102457438Y-98117035D01*
X102317035Y-98257438D01*
X102206722Y-98422533D01*
X102130737Y-98605977D01*
X102100000Y-98760502D01*
X102069263Y-98605977D01*
X101993278Y-98422533D01*
X101882965Y-98257438D01*
X101742562Y-98117035D01*
X101577467Y-98006722D01*
X101394023Y-97930737D01*
X101199279Y-97892000D01*
X101000721Y-97892000D01*
X100805977Y-97930737D01*
X100622533Y-98006722D01*
X100457438Y-98117035D01*
X100317035Y-98257438D01*
X100206722Y-98422533D01*
X100130737Y-98605977D01*
X100100000Y-98760502D01*
X100069263Y-98605977D01*
X99993278Y-98422533D01*
X99882965Y-98257438D01*
X99742562Y-98117035D01*
X99577467Y-98006722D01*
X99394023Y-97930737D01*
X99199279Y-97892000D01*
X99000721Y-97892000D01*
X98805977Y-97930737D01*
X98622533Y-98006722D01*
X98457438Y-98117035D01*
X98317035Y-98257438D01*
X98206722Y-98422533D01*
X98130737Y-98605977D01*
X98092000Y-98800721D01*
X98092000Y-98838614D01*
X98085762Y-98791231D01*
X98044682Y-98637919D01*
X97994732Y-98517329D01*
X97915370Y-98379870D01*
X97835910Y-98276317D01*
X97723683Y-98164090D01*
X97620130Y-98084630D01*
X97482671Y-98005268D01*
X97362081Y-97955318D01*
X97208769Y-97914238D01*
X97079359Y-97897201D01*
X97000000Y-97892000D01*
X85000000Y-97892000D01*
X84920641Y-97897201D01*
X84791231Y-97914238D01*
X84637919Y-97955318D01*
X84517329Y-98005268D01*
X84379870Y-98084630D01*
X84276317Y-98164090D01*
X84164090Y-98276317D01*
X84084630Y-98379870D01*
X84005268Y-98517329D01*
X83955318Y-98637919D01*
X83914238Y-98791231D01*
X83897201Y-98920641D01*
X83892000Y-99000000D01*
X83892000Y-108000000D01*
X83897201Y-108079359D01*
X83914238Y-108208769D01*
X83955318Y-108362081D01*
X84005268Y-108482671D01*
X84084630Y-108620130D01*
X84164090Y-108723683D01*
X84276317Y-108835910D01*
X84379870Y-108915370D01*
X84517329Y-108994732D01*
X84637919Y-109044682D01*
X84791231Y-109085762D01*
X84920641Y-109102799D01*
X85000000Y-109108000D01*
X97107895Y-109108000D01*
X97094711Y-109121184D01*
X96995341Y-109269901D01*
X96926894Y-109435146D01*
X96892000Y-109610570D01*
X96892000Y-109789430D01*
X96926894Y-109964854D01*
X96968599Y-110065538D01*
X96968744Y-110066628D01*
X96972265Y-110108007D01*
X96972717Y-110113065D01*
X96977963Y-110169168D01*
X96982733Y-110207205D01*
X96991686Y-110264020D01*
X96996688Y-110287284D01*
X96997152Y-110292000D01*
X80100000Y-110292000D01*
X79981388Y-110303682D01*
X79867332Y-110338280D01*
X79796621Y-110367569D01*
X79691500Y-110423757D01*
X79599366Y-110499370D01*
X79523754Y-110591505D01*
X79467569Y-110696621D01*
X79438280Y-110767332D01*
X79403683Y-110881385D01*
X79392000Y-111000000D01*
X79392000Y-126635570D01*
X79342729Y-126727749D01*
X79302245Y-126861208D01*
X79288575Y-127000000D01*
X79292000Y-127034774D01*
X79292001Y-133706736D01*
X77706738Y-135292000D01*
X73247729Y-135292000D01*
X71370340Y-133794915D01*
X69416478Y-132037508D01*
X67570288Y-130167325D01*
X65944905Y-128312631D01*
X68657730Y-128312631D01*
X68657730Y-128855909D01*
X68763718Y-129388749D01*
X68971622Y-129890673D01*
X69273451Y-130342393D01*
X69657607Y-130726549D01*
X70109327Y-131028378D01*
X70611251Y-131236282D01*
X71144091Y-131342270D01*
X71687369Y-131342270D01*
X72220209Y-131236282D01*
X72722133Y-131028378D01*
X73173853Y-130726549D01*
X73558009Y-130342393D01*
X73859838Y-129890673D01*
X74067742Y-129388749D01*
X74173730Y-128855909D01*
X74173730Y-128312631D01*
X74067742Y-127779791D01*
X73859838Y-127277867D01*
X73558009Y-126826147D01*
X73173853Y-126441991D01*
X72722133Y-126140162D01*
X72220209Y-125932258D01*
X71687369Y-125826270D01*
X71144091Y-125826270D01*
X70611251Y-125932258D01*
X70109327Y-126140162D01*
X69657607Y-126441991D01*
X69273451Y-126826147D01*
X68971622Y-127277867D01*
X68763718Y-127779791D01*
X68657730Y-128312631D01*
X65944905Y-128312631D01*
X65838241Y-128190919D01*
X64226472Y-126115292D01*
X62740649Y-123947744D01*
X61385971Y-121695863D01*
X60167240Y-119367625D01*
X59088726Y-116971193D01*
X58154241Y-114515032D01*
X57367056Y-112007740D01*
X56729967Y-109458220D01*
X56245196Y-106875374D01*
X55914458Y-104268330D01*
X55738916Y-101646259D01*
X55719190Y-99018403D01*
X55855346Y-96393997D01*
X56146908Y-93782285D01*
X56592845Y-91192467D01*
X57191595Y-88633643D01*
X57941042Y-86114840D01*
X58838553Y-83644910D01*
X59880966Y-81232559D01*
X61064600Y-78886300D01*
X62385318Y-76614333D01*
X63838442Y-74424711D01*
X65418882Y-72325101D01*
X66422930Y-71144091D01*
X68657730Y-71144091D01*
X68657730Y-71687369D01*
X68763718Y-72220209D01*
X68971622Y-72722133D01*
X69273451Y-73173853D01*
X69657607Y-73558009D01*
X70109327Y-73859838D01*
X70611251Y-74067742D01*
X71144091Y-74173730D01*
X71687369Y-74173730D01*
X72220209Y-74067742D01*
X72722133Y-73859838D01*
X73173853Y-73558009D01*
X73558009Y-73173853D01*
X73859838Y-72722133D01*
X74067742Y-72220209D01*
X74173730Y-71687369D01*
X74173730Y-71144091D01*
X74067742Y-70611251D01*
X73859838Y-70109327D01*
X73558009Y-69657607D01*
X73173853Y-69273451D01*
X72722133Y-68971622D01*
X72220209Y-68763718D01*
X71687369Y-68657730D01*
X71144091Y-68657730D01*
X70611251Y-68763718D01*
X70109327Y-68971622D01*
X69657607Y-69273451D01*
X69273451Y-69657607D01*
X68971622Y-70109327D01*
X68763718Y-70611251D01*
X68657730Y-71144091D01*
X66422930Y-71144091D01*
X67121031Y-70322952D01*
X68938950Y-68425249D01*
X70866205Y-66638709D01*
X72896022Y-64969612D01*
X75021256Y-63423832D01*
X77234435Y-62006807D01*
X79527730Y-60723546D01*
X81893118Y-59578540D01*
X84322242Y-58575834D01*
X86806548Y-57718958D01*
X89337304Y-57010924D01*
X91905599Y-56454227D01*
X94502394Y-56050824D01*
X97118532Y-55802140D01*
X99744821Y-55709046D01*
X102372012Y-55771873D01*
%TA.AperFunction,Conductor*%
D19*
G36*
X102372012Y-55771873D02*
G01*
X104990833Y-55990396D01*
X107592113Y-56363851D01*
X110166635Y-56890915D01*
X112705390Y-57569743D01*
X115199419Y-58397940D01*
X117639926Y-59372587D01*
X120018345Y-60490260D01*
X122326290Y-61747020D01*
X124555635Y-63138442D01*
X126698540Y-64659631D01*
X128747446Y-66305222D01*
X130695173Y-68069450D01*
X132534824Y-69946066D01*
X134259946Y-71928488D01*
X135864457Y-74009725D01*
X137342726Y-76182475D01*
X138689524Y-78439054D01*
X139900128Y-80771543D01*
X140970267Y-83171723D01*
X141896174Y-85631133D01*
X142674596Y-88141140D01*
X143302788Y-90692892D01*
X143778537Y-93277398D01*
X144100174Y-95885586D01*
X144266560Y-98508242D01*
X144277115Y-101136150D01*
X144131797Y-103760072D01*
X143831120Y-106370765D01*
X143376145Y-108959005D01*
X142768472Y-111515707D01*
X142010235Y-114031885D01*
X141104112Y-116498657D01*
X140053278Y-118907370D01*
X138861458Y-121249491D01*
X137532820Y-123516827D01*
X136072059Y-125701366D01*
X134484311Y-127795430D01*
X132775169Y-129791642D01*
X130950647Y-131682979D01*
X129017163Y-133462784D01*
X126974985Y-135130133D01*
X126761733Y-135292000D01*
X122293263Y-135292000D01*
X120708000Y-133706738D01*
X120708000Y-128312631D01*
X125826270Y-128312631D01*
X125826270Y-128855909D01*
X125932258Y-129388749D01*
X126140162Y-129890673D01*
X126441991Y-130342393D01*
X126826147Y-130726549D01*
X127277867Y-131028378D01*
X127779791Y-131236282D01*
X128312631Y-131342270D01*
X128855909Y-131342270D01*
X129388749Y-131236282D01*
X129890673Y-131028378D01*
X130342393Y-130726549D01*
X130726549Y-130342393D01*
X131028378Y-129890673D01*
X131236282Y-129388749D01*
X131342270Y-128855909D01*
X131342270Y-128312631D01*
X131236282Y-127779791D01*
X131028378Y-127277867D01*
X130726549Y-126826147D01*
X130342393Y-126441991D01*
X129890673Y-126140162D01*
X129388749Y-125932258D01*
X128855909Y-125826270D01*
X128312631Y-125826270D01*
X127779791Y-125932258D01*
X127277867Y-126140162D01*
X126826147Y-126441991D01*
X126441991Y-126826147D01*
X126140162Y-127277867D01*
X125932258Y-127779791D01*
X125826270Y-128312631D01*
X120708000Y-128312631D01*
X120708000Y-127608000D01*
X123000000Y-127608000D01*
X123118612Y-127596318D01*
X123232668Y-127561720D01*
X123303379Y-127532431D01*
X123408500Y-127476243D01*
X123500634Y-127400630D01*
X123576246Y-127308495D01*
X123632431Y-127203379D01*
X123661720Y-127132668D01*
X123696317Y-127018615D01*
X123708000Y-126900000D01*
X123708000Y-122500000D01*
X123696318Y-122381388D01*
X123661720Y-122267332D01*
X123632431Y-122196621D01*
X123576243Y-122091500D01*
X123500630Y-121999366D01*
X123408495Y-121923754D01*
X123303379Y-121867569D01*
X123232668Y-121838280D01*
X123118615Y-121803683D01*
X123000000Y-121792000D01*
X109108000Y-121792000D01*
X109108000Y-116010570D01*
X109227000Y-116010570D01*
X109227000Y-116189430D01*
X109261894Y-116364854D01*
X109330341Y-116530099D01*
X109429711Y-116678816D01*
X109556184Y-116805289D01*
X109704901Y-116904659D01*
X109870146Y-116973106D01*
X110045570Y-117008000D01*
X110224430Y-117008000D01*
X110399854Y-116973106D01*
X110565099Y-116904659D01*
X110713816Y-116805289D01*
X110840289Y-116678816D01*
X110939659Y-116530099D01*
X111008106Y-116364854D01*
X111043000Y-116189430D01*
X111043000Y-116010570D01*
X111008106Y-115835146D01*
X110939659Y-115669901D01*
X110840289Y-115521184D01*
X110713816Y-115394711D01*
X110565099Y-115295341D01*
X110399854Y-115226894D01*
X110224430Y-115192000D01*
X110045570Y-115192000D01*
X109870146Y-115226894D01*
X109704901Y-115295341D01*
X109556184Y-115394711D01*
X109429711Y-115521184D01*
X109330341Y-115669901D01*
X109261894Y-115835146D01*
X109227000Y-116010570D01*
X109108000Y-116010570D01*
X109108000Y-111000000D01*
X109096318Y-110881388D01*
X109061720Y-110767332D01*
X109032431Y-110696621D01*
X108976243Y-110591500D01*
X108900630Y-110499366D01*
X108808495Y-110423754D01*
X108703379Y-110367569D01*
X108632668Y-110338280D01*
X108518615Y-110303683D01*
X108400000Y-110292000D01*
X107761862Y-110292000D01*
X107773106Y-110264854D01*
X107808000Y-110089430D01*
X107808000Y-109910570D01*
X107773106Y-109735146D01*
X107704659Y-109569901D01*
X107605289Y-109421184D01*
X107478816Y-109294711D01*
X107330099Y-109195341D01*
X107164854Y-109126894D01*
X106989430Y-109092000D01*
X106810570Y-109092000D01*
X106635146Y-109126894D01*
X106484562Y-109189268D01*
X106483031Y-109189421D01*
X106459971Y-109190679D01*
X106423209Y-109191579D01*
X106372888Y-109191954D01*
X106309563Y-109192000D01*
X105839680Y-109192000D01*
X105800000Y-109188092D01*
X105760320Y-109192000D01*
X105760312Y-109192000D01*
X105655536Y-109202320D01*
X105641603Y-109203692D01*
X105587728Y-109220035D01*
X105489296Y-109249894D01*
X105348928Y-109324922D01*
X105225894Y-109425894D01*
X105200593Y-109456723D01*
X104965317Y-109692000D01*
X98708000Y-109692000D01*
X98708000Y-109610570D01*
X98673106Y-109435146D01*
X98604659Y-109269901D01*
X98505289Y-109121184D01*
X98492105Y-109108000D01*
X103075000Y-109108000D01*
X103154359Y-109102799D01*
X103283769Y-109085762D01*
X103437081Y-109044682D01*
X103557671Y-108994732D01*
X103695130Y-108915370D01*
X103798683Y-108835910D01*
X103910910Y-108723683D01*
X103990370Y-108620130D01*
X104069732Y-108482671D01*
X104119682Y-108362081D01*
X104160762Y-108208769D01*
X104177799Y-108079359D01*
X104183000Y-108000000D01*
X104183000Y-104000000D01*
X104180903Y-103968001D01*
X108725318Y-103968001D01*
X110311154Y-105553837D01*
X110311159Y-105553844D01*
X110355900Y-105598649D01*
X110391212Y-105634492D01*
X110416578Y-105661131D01*
X110432004Y-105678338D01*
X110432966Y-105679514D01*
X110495341Y-105830099D01*
X110594711Y-105978816D01*
X110721184Y-106105289D01*
X110869901Y-106204659D01*
X111035146Y-106273106D01*
X111210570Y-106308000D01*
X111389430Y-106308000D01*
X111402001Y-106305499D01*
X111402001Y-106452001D01*
X110736106Y-106452001D01*
X110678816Y-106394711D01*
X110530099Y-106295341D01*
X110364854Y-106226894D01*
X110189430Y-106192000D01*
X110010570Y-106192000D01*
X109835146Y-106226894D01*
X109669901Y-106295341D01*
X109521184Y-106394711D01*
X109394711Y-106521184D01*
X109295341Y-106669901D01*
X109226894Y-106835146D01*
X109192000Y-107010570D01*
X109192000Y-107189430D01*
X109226894Y-107364854D01*
X109295341Y-107530099D01*
X109394711Y-107678816D01*
X109521184Y-107805289D01*
X109669901Y-107904659D01*
X109835146Y-107973106D01*
X109906701Y-107987339D01*
X109949297Y-108010107D01*
X110101605Y-108056309D01*
X110220313Y-108068001D01*
X110220321Y-108068001D01*
X110260001Y-108071909D01*
X110299681Y-108068001D01*
X111842000Y-108068001D01*
X111842001Y-111435112D01*
X111838092Y-111474802D01*
X111853692Y-111633198D01*
X111893840Y-111765546D01*
X111899895Y-111785506D01*
X111974923Y-111925874D01*
X112075895Y-112048908D01*
X112106723Y-112074208D01*
X114117066Y-114084553D01*
X114092000Y-114210570D01*
X114092000Y-114389430D01*
X114126894Y-114564854D01*
X114195341Y-114730099D01*
X114294711Y-114878816D01*
X114421184Y-115005289D01*
X114569901Y-115104659D01*
X114735146Y-115173106D01*
X114910570Y-115208000D01*
X115089430Y-115208000D01*
X115264854Y-115173106D01*
X115430099Y-115104659D01*
X115578816Y-115005289D01*
X115705289Y-114878816D01*
X115804659Y-114730099D01*
X115873106Y-114564854D01*
X115908000Y-114389430D01*
X115908000Y-114210570D01*
X115873106Y-114035146D01*
X115826188Y-113921877D01*
X115824197Y-113910248D01*
X115818596Y-113867374D01*
X115817593Y-113860040D01*
X115810482Y-113810325D01*
X115808000Y-113785122D01*
X115808000Y-113785114D01*
X115796308Y-113666406D01*
X115773949Y-113592698D01*
X115750106Y-113514097D01*
X115714805Y-113448054D01*
X115675078Y-113373730D01*
X115632076Y-113321332D01*
X115599406Y-113281523D01*
X115599402Y-113281519D01*
X115574106Y-113250696D01*
X115543284Y-113225401D01*
X113458000Y-111140119D01*
X113458000Y-107739680D01*
X113461908Y-107700000D01*
X113458000Y-107660320D01*
X113458000Y-107660312D01*
X113446308Y-107541604D01*
X113400106Y-107389296D01*
X113393213Y-107376399D01*
X121142000Y-107376399D01*
X121142000Y-107663601D01*
X121198030Y-107945283D01*
X121307937Y-108210622D01*
X121467497Y-108449421D01*
X121670579Y-108652503D01*
X121909378Y-108812063D01*
X122174717Y-108921970D01*
X122456399Y-108978000D01*
X122743601Y-108978000D01*
X123025283Y-108921970D01*
X123290622Y-108812063D01*
X123529421Y-108652503D01*
X123732503Y-108449421D01*
X123892063Y-108210622D01*
X124001970Y-107945283D01*
X124058000Y-107663601D01*
X124058000Y-107376399D01*
X124001970Y-107094717D01*
X123892063Y-106829378D01*
X123732503Y-106590579D01*
X123529421Y-106387497D01*
X123314910Y-106244166D01*
X123488852Y-106135736D01*
X123697246Y-105940122D01*
X123863473Y-105707611D01*
X123981146Y-105447139D01*
X124007903Y-105358910D01*
X123896889Y-105134000D01*
X122754000Y-105134000D01*
X122754000Y-105154000D01*
X122446000Y-105154000D01*
X122446000Y-105134000D01*
X121303111Y-105134000D01*
X121192097Y-105358910D01*
X121218854Y-105447139D01*
X121336527Y-105707611D01*
X121502754Y-105940122D01*
X121711148Y-106135736D01*
X121885090Y-106244166D01*
X121670579Y-106387497D01*
X121467497Y-106590579D01*
X121307937Y-106829378D01*
X121198030Y-107094717D01*
X121142000Y-107376399D01*
X113393213Y-107376399D01*
X113325078Y-107248928D01*
X113224106Y-107125894D01*
X113193278Y-107100594D01*
X113018001Y-106925317D01*
X113018001Y-104949680D01*
X113021909Y-104910000D01*
X113018001Y-104870320D01*
X113018001Y-104870313D01*
X113006309Y-104751605D01*
X113001847Y-104736894D01*
X112982209Y-104672157D01*
X112960107Y-104599297D01*
X112885079Y-104458929D01*
X112784107Y-104335895D01*
X112753279Y-104310595D01*
X110008000Y-101565317D01*
X110008000Y-90239677D01*
X110011908Y-90199999D01*
X110008000Y-90160321D01*
X110008000Y-90160312D01*
X109996308Y-90041604D01*
X109950106Y-89889296D01*
X109875078Y-89748928D01*
X109774106Y-89625894D01*
X109743277Y-89600593D01*
X109150683Y-89008000D01*
X109253100Y-89008000D01*
X109332580Y-89002783D01*
X109462185Y-88985694D01*
X109615721Y-88944487D01*
X109736466Y-88894386D01*
X109874064Y-88814795D01*
X109977696Y-88735109D01*
X110089964Y-88622569D01*
X110169398Y-88518745D01*
X110248656Y-88380952D01*
X110298464Y-88260085D01*
X110339297Y-88106453D01*
X110356072Y-87976808D01*
X110361097Y-87897314D01*
X110314822Y-68812851D01*
X110585233Y-68671390D01*
X110934323Y-68535040D01*
X111055313Y-68516915D01*
X111092000Y-68785671D01*
X111092001Y-94883508D01*
X111088092Y-94923198D01*
X111103692Y-95081594D01*
X111145426Y-95219169D01*
X111149895Y-95233902D01*
X111224923Y-95374270D01*
X111325895Y-95497304D01*
X111356723Y-95522604D01*
X112935228Y-97101110D01*
X112889430Y-97092000D01*
X112710570Y-97092000D01*
X112535146Y-97126894D01*
X112369901Y-97195341D01*
X112221184Y-97294711D01*
X112094711Y-97421184D01*
X111995341Y-97569901D01*
X111926894Y-97735146D01*
X111892000Y-97910570D01*
X111892000Y-98089430D01*
X111926894Y-98264854D01*
X111995341Y-98430099D01*
X112094711Y-98578816D01*
X112221184Y-98705289D01*
X112369901Y-98804659D01*
X112535146Y-98873106D01*
X112710570Y-98908000D01*
X112889430Y-98908000D01*
X113064854Y-98873106D01*
X113230099Y-98804659D01*
X113378816Y-98705289D01*
X113400000Y-98684105D01*
X113421184Y-98705289D01*
X113569901Y-98804659D01*
X113735146Y-98873106D01*
X113910570Y-98908000D01*
X114089430Y-98908000D01*
X114264854Y-98873106D01*
X114430099Y-98804659D01*
X114555192Y-98721074D01*
X115092000Y-99257882D01*
X115092001Y-105260310D01*
X115088092Y-105300000D01*
X115103692Y-105458396D01*
X115142121Y-105585078D01*
X115149895Y-105610704D01*
X115224923Y-105751072D01*
X115325895Y-105874106D01*
X115356723Y-105899406D01*
X116200594Y-106743277D01*
X116225894Y-106774106D01*
X116348928Y-106875078D01*
X116489296Y-106950106D01*
X116595401Y-106982293D01*
X116641603Y-106996308D01*
X116652417Y-106997373D01*
X116760312Y-107008000D01*
X116760319Y-107008000D01*
X116799999Y-107011908D01*
X116839679Y-107008000D01*
X119204895Y-107008000D01*
X119275183Y-107009182D01*
X119321187Y-107011916D01*
X119349555Y-107015196D01*
X119364883Y-107018035D01*
X119374257Y-107020514D01*
X119386180Y-107024621D01*
X119407893Y-107033604D01*
X119443550Y-107050092D01*
X119495008Y-107075129D01*
X119496361Y-107075790D01*
X119522533Y-107093278D01*
X119705977Y-107169263D01*
X119900721Y-107208000D01*
X120099279Y-107208000D01*
X120294023Y-107169263D01*
X120477467Y-107093278D01*
X120642562Y-106982965D01*
X120782965Y-106842562D01*
X120893278Y-106677467D01*
X120969263Y-106494023D01*
X121008000Y-106299279D01*
X121008000Y-106100721D01*
X120969263Y-105905977D01*
X120893278Y-105722533D01*
X120782965Y-105557438D01*
X120642562Y-105417035D01*
X120477467Y-105306722D01*
X120294023Y-105230737D01*
X120099279Y-105192000D01*
X119900721Y-105192000D01*
X119705977Y-105230737D01*
X119522533Y-105306722D01*
X119496367Y-105324206D01*
X119495198Y-105324777D01*
X119443550Y-105349907D01*
X119407893Y-105366395D01*
X119386180Y-105375378D01*
X119374257Y-105379485D01*
X119364883Y-105381964D01*
X119349555Y-105384803D01*
X119321187Y-105388083D01*
X119275182Y-105390818D01*
X119204888Y-105392000D01*
X117134684Y-105392000D01*
X116708000Y-104965317D01*
X116708000Y-102818910D01*
X121192097Y-102818910D01*
X121218854Y-102907139D01*
X121336527Y-103167611D01*
X121502754Y-103400122D01*
X121711148Y-103595736D01*
X121894449Y-103710000D01*
X121711148Y-103824264D01*
X121502754Y-104019878D01*
X121336527Y-104252389D01*
X121218854Y-104512861D01*
X121192097Y-104601090D01*
X121303111Y-104826000D01*
X122446000Y-104826000D01*
X122446000Y-102594000D01*
X122754000Y-102594000D01*
X122754000Y-104826000D01*
X123896889Y-104826000D01*
X124007903Y-104601090D01*
X123981146Y-104512861D01*
X123863473Y-104252389D01*
X123697246Y-104019878D01*
X123488852Y-103824264D01*
X123305551Y-103710000D01*
X123488852Y-103595736D01*
X123697246Y-103400122D01*
X123863473Y-103167611D01*
X123981146Y-102907139D01*
X124007903Y-102818910D01*
X123896889Y-102594000D01*
X122754000Y-102594000D01*
X122446000Y-102594000D01*
X121303111Y-102594000D01*
X121192097Y-102818910D01*
X116708000Y-102818910D01*
X116708000Y-99050000D01*
X121139059Y-99050000D01*
X121139059Y-100750000D01*
X121150798Y-100869189D01*
X121185564Y-100983797D01*
X121242021Y-101089421D01*
X121317999Y-101182001D01*
X121410579Y-101257979D01*
X121516203Y-101314436D01*
X121630811Y-101349202D01*
X121640908Y-101350196D01*
X121502754Y-101479878D01*
X121336527Y-101712389D01*
X121218854Y-101972861D01*
X121192097Y-102061090D01*
X121303111Y-102286000D01*
X122446000Y-102286000D01*
X122446000Y-102266000D01*
X122754000Y-102266000D01*
X122754000Y-102286000D01*
X123896889Y-102286000D01*
X124007903Y-102061090D01*
X123981146Y-101972861D01*
X123863473Y-101712389D01*
X123697246Y-101479878D01*
X123559092Y-101350196D01*
X123569189Y-101349202D01*
X123683797Y-101314436D01*
X123789421Y-101257979D01*
X123882001Y-101182001D01*
X123957979Y-101089421D01*
X124014436Y-100983797D01*
X124049202Y-100869189D01*
X124060941Y-100750000D01*
X124060941Y-99050000D01*
X124049202Y-98930811D01*
X124014436Y-98816203D01*
X123957979Y-98710579D01*
X123882001Y-98617999D01*
X123789421Y-98542021D01*
X123683797Y-98485564D01*
X123569189Y-98450798D01*
X123450000Y-98439059D01*
X121750000Y-98439059D01*
X121630811Y-98450798D01*
X121516203Y-98485564D01*
X121410579Y-98542021D01*
X121317999Y-98617999D01*
X121242021Y-98710579D01*
X121185564Y-98816203D01*
X121150798Y-98930811D01*
X121139059Y-99050000D01*
X116708000Y-99050000D01*
X116708000Y-98962877D01*
X116711908Y-98923197D01*
X116708000Y-98883517D01*
X116708000Y-98883510D01*
X116696308Y-98764802D01*
X116650106Y-98612494D01*
X116575078Y-98472126D01*
X116474106Y-98349092D01*
X116443279Y-98323793D01*
X112708000Y-94588515D01*
X112708000Y-71144091D01*
X125826270Y-71144091D01*
X125826270Y-71687369D01*
X125932258Y-72220209D01*
X126140162Y-72722133D01*
X126441991Y-73173853D01*
X126826147Y-73558009D01*
X127277867Y-73859838D01*
X127779791Y-74067742D01*
X128312631Y-74173730D01*
X128855909Y-74173730D01*
X129388749Y-74067742D01*
X129890673Y-73859838D01*
X130342393Y-73558009D01*
X130726549Y-73173853D01*
X131028378Y-72722133D01*
X131236282Y-72220209D01*
X131342270Y-71687369D01*
X131342270Y-71144091D01*
X131236282Y-70611251D01*
X131028378Y-70109327D01*
X130726549Y-69657607D01*
X130342393Y-69273451D01*
X129890673Y-68971622D01*
X129388749Y-68763718D01*
X128855909Y-68657730D01*
X128312631Y-68657730D01*
X127779791Y-68763718D01*
X127277867Y-68971622D01*
X126826147Y-69273451D01*
X126441991Y-69657607D01*
X126140162Y-70109327D01*
X125932258Y-70611251D01*
X125826270Y-71144091D01*
X112708000Y-71144091D01*
X112708000Y-67139680D01*
X112711908Y-67100000D01*
X112708000Y-67060320D01*
X112708000Y-67060312D01*
X112696308Y-66941604D01*
X112690224Y-66921548D01*
X112650106Y-66789295D01*
X112606178Y-66707113D01*
X112575078Y-66648928D01*
X112532669Y-66597253D01*
X112334125Y-65811664D01*
X112305147Y-65725019D01*
X112019441Y-65045393D01*
X111971777Y-64954402D01*
X111596609Y-64365340D01*
X111535123Y-64284574D01*
X111066994Y-63765931D01*
X111003852Y-63705370D01*
X110439265Y-63236998D01*
X110385791Y-63197370D01*
X109721244Y-62759126D01*
X109682636Y-62735676D01*
X108914633Y-62307411D01*
X108890896Y-62294853D01*
X108323626Y-62010603D01*
X108182706Y-61916443D01*
X107344104Y-61569083D01*
X106453848Y-61392000D01*
X105546152Y-61392000D01*
X104655896Y-61569083D01*
X103817294Y-61916443D01*
X103062571Y-62420733D01*
X102420733Y-63062571D01*
X101916443Y-63817294D01*
X101569083Y-64655896D01*
X101392000Y-65546152D01*
X101392000Y-66453848D01*
X101569083Y-67344104D01*
X101592000Y-67399431D01*
X101592000Y-80892000D01*
X92207107Y-80892000D01*
X92127748Y-80897201D01*
X91998338Y-80914238D01*
X91845026Y-80955318D01*
X91724436Y-81005268D01*
X91586979Y-81084629D01*
X91483425Y-81164089D01*
X91423632Y-81216526D01*
X89916526Y-82723632D01*
X89864089Y-82783425D01*
X89784629Y-82886979D01*
X89705268Y-83024436D01*
X89655318Y-83145026D01*
X89614238Y-83298338D01*
X89597201Y-83427748D01*
X89592000Y-83507107D01*
X89592000Y-95900000D01*
X89597201Y-95979359D01*
X89614238Y-96108769D01*
X89655318Y-96262081D01*
X89705268Y-96382671D01*
X89784630Y-96520130D01*
X89864090Y-96623683D01*
X89976317Y-96735910D01*
X90079870Y-96815370D01*
X90217329Y-96894732D01*
X90337919Y-96944682D01*
X90491231Y-96985762D01*
X90620641Y-97002799D01*
X90700000Y-97008000D01*
X96900000Y-97008000D01*
X96979359Y-97002799D01*
X97108769Y-96985762D01*
X97262081Y-96944682D01*
X97382671Y-96894732D01*
X97520130Y-96815370D01*
X97623683Y-96735910D01*
X97735910Y-96623683D01*
X97815370Y-96520130D01*
X97894732Y-96382671D01*
X97944682Y-96262081D01*
X97985762Y-96108769D01*
X98002799Y-95979359D01*
X98008000Y-95900000D01*
X98008000Y-91781261D01*
X98110704Y-91750106D01*
X98251072Y-91675078D01*
X98374106Y-91574106D01*
X98399411Y-91543272D01*
X99634684Y-90308000D01*
X108165317Y-90308000D01*
X108392001Y-90534685D01*
X108392000Y-101860320D01*
X108388092Y-101900000D01*
X108392000Y-101939680D01*
X108392000Y-101939687D01*
X108398033Y-102000935D01*
X108403692Y-102058396D01*
X108404792Y-102062021D01*
X108449894Y-102210703D01*
X108524922Y-102351071D01*
X108525685Y-102352001D01*
X100297332Y-102352001D01*
X100296308Y-102341604D01*
X100296152Y-102341088D01*
X100282341Y-102295560D01*
X100250106Y-102189296D01*
X100175078Y-102048928D01*
X100074106Y-101925894D01*
X100043272Y-101900589D01*
X99799411Y-101656728D01*
X99785612Y-101639915D01*
X99882965Y-101542562D01*
X99993278Y-101377467D01*
X100069263Y-101194023D01*
X100100000Y-101039498D01*
X100130737Y-101194023D01*
X100206722Y-101377467D01*
X100317035Y-101542562D01*
X100457438Y-101682965D01*
X100622533Y-101793278D01*
X100805977Y-101869263D01*
X101000721Y-101908000D01*
X101199279Y-101908000D01*
X101394023Y-101869263D01*
X101577467Y-101793278D01*
X101742562Y-101682965D01*
X101882965Y-101542562D01*
X101993278Y-101377467D01*
X102069263Y-101194023D01*
X102100000Y-101039498D01*
X102130737Y-101194023D01*
X102206722Y-101377467D01*
X102317035Y-101542562D01*
X102457438Y-101682965D01*
X102622533Y-101793278D01*
X102805977Y-101869263D01*
X103000721Y-101908000D01*
X103199279Y-101908000D01*
X103394023Y-101869263D01*
X103577467Y-101793278D01*
X103742562Y-101682965D01*
X103882965Y-101542562D01*
X103993278Y-101377467D01*
X104069263Y-101194023D01*
X104100000Y-101039498D01*
X104130737Y-101194023D01*
X104206722Y-101377467D01*
X104317035Y-101542562D01*
X104457438Y-101682965D01*
X104622533Y-101793278D01*
X104805977Y-101869263D01*
X105000721Y-101908000D01*
X105199279Y-101908000D01*
X105394023Y-101869263D01*
X105577467Y-101793278D01*
X105742562Y-101682965D01*
X105882965Y-101542562D01*
X105993278Y-101377467D01*
X106069263Y-101194023D01*
X106108000Y-100999279D01*
X106108000Y-100800721D01*
X106069263Y-100605977D01*
X105993278Y-100422533D01*
X105882965Y-100257438D01*
X105742562Y-100117035D01*
X105577467Y-100006722D01*
X105394023Y-99930737D01*
X105239498Y-99900000D01*
X105394023Y-99869263D01*
X105577467Y-99793278D01*
X105742562Y-99682965D01*
X105882965Y-99542562D01*
X105993278Y-99377467D01*
X106069263Y-99194023D01*
X106108000Y-98999279D01*
X106108000Y-98800721D01*
X106069263Y-98605977D01*
X105993278Y-98422533D01*
X105882965Y-98257438D01*
X105742562Y-98117035D01*
X105577467Y-98006722D01*
X105394023Y-97930737D01*
X105199279Y-97892000D01*
X105000721Y-97892000D01*
X104805977Y-97930737D01*
X104622533Y-98006722D01*
X104457438Y-98117035D01*
X104317035Y-98257438D01*
X104206722Y-98422533D01*
X104130737Y-98605977D01*
X104100000Y-98760502D01*
X104069263Y-98605977D01*
X103993278Y-98422533D01*
X103882965Y-98257438D01*
X103742562Y-98117035D01*
X103577467Y-98006722D01*
X103394023Y-97930737D01*
X103199279Y-97892000D01*
X103000721Y-97892000D01*
X102805977Y-97930737D01*
X102622533Y-98006722D01*
X102457438Y-98117035D01*
X102317035Y-98257438D01*
X102206722Y-98422533D01*
X102130737Y-98605977D01*
X102100000Y-98760502D01*
X102069263Y-98605977D01*
X101993278Y-98422533D01*
X101882965Y-98257438D01*
X101742562Y-98117035D01*
X101577467Y-98006722D01*
X101394023Y-97930737D01*
X101199279Y-97892000D01*
X101000721Y-97892000D01*
X100805977Y-97930737D01*
X100622533Y-98006722D01*
X100457438Y-98117035D01*
X100317035Y-98257438D01*
X100206722Y-98422533D01*
X100130737Y-98605977D01*
X100100000Y-98760502D01*
X100069263Y-98605977D01*
X99993278Y-98422533D01*
X99882965Y-98257438D01*
X99742562Y-98117035D01*
X99577467Y-98006722D01*
X99394023Y-97930737D01*
X99199279Y-97892000D01*
X99000721Y-97892000D01*
X98805977Y-97930737D01*
X98622533Y-98006722D01*
X98457438Y-98117035D01*
X98317035Y-98257438D01*
X98206722Y-98422533D01*
X98130737Y-98605977D01*
X98092000Y-98800721D01*
X98092000Y-98838614D01*
X98085762Y-98791231D01*
X98044682Y-98637919D01*
X97994732Y-98517329D01*
X97915370Y-98379870D01*
X97835910Y-98276317D01*
X97723683Y-98164090D01*
X97620130Y-98084630D01*
X97482671Y-98005268D01*
X97362081Y-97955318D01*
X97208769Y-97914238D01*
X97079359Y-97897201D01*
X97000000Y-97892000D01*
X85000000Y-97892000D01*
X84920641Y-97897201D01*
X84791231Y-97914238D01*
X84637919Y-97955318D01*
X84517329Y-98005268D01*
X84379870Y-98084630D01*
X84276317Y-98164090D01*
X84164090Y-98276317D01*
X84084630Y-98379870D01*
X84005268Y-98517329D01*
X83955318Y-98637919D01*
X83914238Y-98791231D01*
X83897201Y-98920641D01*
X83892000Y-99000000D01*
X83892000Y-108000000D01*
X83897201Y-108079359D01*
X83914238Y-108208769D01*
X83955318Y-108362081D01*
X84005268Y-108482671D01*
X84084630Y-108620130D01*
X84164090Y-108723683D01*
X84276317Y-108835910D01*
X84379870Y-108915370D01*
X84517329Y-108994732D01*
X84637919Y-109044682D01*
X84791231Y-109085762D01*
X84920641Y-109102799D01*
X85000000Y-109108000D01*
X97107895Y-109108000D01*
X97094711Y-109121184D01*
X96995341Y-109269901D01*
X96926894Y-109435146D01*
X96892000Y-109610570D01*
X96892000Y-109789430D01*
X96926894Y-109964854D01*
X96968599Y-110065538D01*
X96968744Y-110066628D01*
X96972265Y-110108007D01*
X96972717Y-110113065D01*
X96977963Y-110169168D01*
X96982733Y-110207205D01*
X96991686Y-110264020D01*
X96996688Y-110287284D01*
X96997152Y-110292000D01*
X80100000Y-110292000D01*
X79981388Y-110303682D01*
X79867332Y-110338280D01*
X79796621Y-110367569D01*
X79691500Y-110423757D01*
X79599366Y-110499370D01*
X79523754Y-110591505D01*
X79467569Y-110696621D01*
X79438280Y-110767332D01*
X79403683Y-110881385D01*
X79392000Y-111000000D01*
X79392000Y-126635570D01*
X79342729Y-126727749D01*
X79302245Y-126861208D01*
X79288575Y-127000000D01*
X79292000Y-127034774D01*
X79292001Y-133706736D01*
X77706738Y-135292000D01*
X73247729Y-135292000D01*
X71370340Y-133794915D01*
X69416478Y-132037508D01*
X67570288Y-130167325D01*
X65944905Y-128312631D01*
X68657730Y-128312631D01*
X68657730Y-128855909D01*
X68763718Y-129388749D01*
X68971622Y-129890673D01*
X69273451Y-130342393D01*
X69657607Y-130726549D01*
X70109327Y-131028378D01*
X70611251Y-131236282D01*
X71144091Y-131342270D01*
X71687369Y-131342270D01*
X72220209Y-131236282D01*
X72722133Y-131028378D01*
X73173853Y-130726549D01*
X73558009Y-130342393D01*
X73859838Y-129890673D01*
X74067742Y-129388749D01*
X74173730Y-128855909D01*
X74173730Y-128312631D01*
X74067742Y-127779791D01*
X73859838Y-127277867D01*
X73558009Y-126826147D01*
X73173853Y-126441991D01*
X72722133Y-126140162D01*
X72220209Y-125932258D01*
X71687369Y-125826270D01*
X71144091Y-125826270D01*
X70611251Y-125932258D01*
X70109327Y-126140162D01*
X69657607Y-126441991D01*
X69273451Y-126826147D01*
X68971622Y-127277867D01*
X68763718Y-127779791D01*
X68657730Y-128312631D01*
X65944905Y-128312631D01*
X65838241Y-128190919D01*
X64226472Y-126115292D01*
X62740649Y-123947744D01*
X61385971Y-121695863D01*
X60167240Y-119367625D01*
X59088726Y-116971193D01*
X58154241Y-114515032D01*
X57367056Y-112007740D01*
X56729967Y-109458220D01*
X56245196Y-106875374D01*
X55914458Y-104268330D01*
X55738916Y-101646259D01*
X55719190Y-99018403D01*
X55855346Y-96393997D01*
X56146908Y-93782285D01*
X56592845Y-91192467D01*
X57191595Y-88633643D01*
X57941042Y-86114840D01*
X58838553Y-83644910D01*
X59880966Y-81232559D01*
X61064600Y-78886300D01*
X62385318Y-76614333D01*
X63838442Y-74424711D01*
X65418882Y-72325101D01*
X66422930Y-71144091D01*
X68657730Y-71144091D01*
X68657730Y-71687369D01*
X68763718Y-72220209D01*
X68971622Y-72722133D01*
X69273451Y-73173853D01*
X69657607Y-73558009D01*
X70109327Y-73859838D01*
X70611251Y-74067742D01*
X71144091Y-74173730D01*
X71687369Y-74173730D01*
X72220209Y-74067742D01*
X72722133Y-73859838D01*
X73173853Y-73558009D01*
X73558009Y-73173853D01*
X73859838Y-72722133D01*
X74067742Y-72220209D01*
X74173730Y-71687369D01*
X74173730Y-71144091D01*
X74067742Y-70611251D01*
X73859838Y-70109327D01*
X73558009Y-69657607D01*
X73173853Y-69273451D01*
X72722133Y-68971622D01*
X72220209Y-68763718D01*
X71687369Y-68657730D01*
X71144091Y-68657730D01*
X70611251Y-68763718D01*
X70109327Y-68971622D01*
X69657607Y-69273451D01*
X69273451Y-69657607D01*
X68971622Y-70109327D01*
X68763718Y-70611251D01*
X68657730Y-71144091D01*
X66422930Y-71144091D01*
X67121031Y-70322952D01*
X68938950Y-68425249D01*
X70866205Y-66638709D01*
X72896022Y-64969612D01*
X75021256Y-63423832D01*
X77234435Y-62006807D01*
X79527730Y-60723546D01*
X81893118Y-59578540D01*
X84322242Y-58575834D01*
X86806548Y-57718958D01*
X89337304Y-57010924D01*
X91905599Y-56454227D01*
X94502394Y-56050824D01*
X97118532Y-55802140D01*
X99744821Y-55709046D01*
X102372012Y-55771873D01*
G37*
%TD.AperFunction*%
%TD*%
D21*
%TO.N,/HO*%
X107031678Y-110000000D02*
X106766646Y-110254869D01*
X106732349Y-110239259D01*
X106731678Y-110238976D01*
X106692170Y-110223663D01*
X106691354Y-110223379D01*
X106653180Y-110211500D01*
X106652286Y-110211257D01*
X106614142Y-110202375D01*
X106613273Y-110202204D01*
X106573855Y-110195883D01*
X106573106Y-110195786D01*
X106531109Y-110191592D01*
X106530539Y-110191548D01*
X106484660Y-110189044D01*
X106484279Y-110189029D01*
X106433215Y-110187780D01*
X106432999Y-110187776D01*
X106375444Y-110187346D01*
X106375358Y-110187346D01*
X106322700Y-110187309D01*
X106322700Y-109812691D01*
X106375358Y-109812653D01*
X106375444Y-109812653D01*
X106432999Y-109812223D01*
X106433215Y-109812219D01*
X106484279Y-109810970D01*
X106484660Y-109810955D01*
X106530539Y-109808451D01*
X106531109Y-109808407D01*
X106573106Y-109804213D01*
X106573855Y-109804116D01*
X106613273Y-109797795D01*
X106614142Y-109797624D01*
X106652286Y-109788742D01*
X106653180Y-109788499D01*
X106691354Y-109776620D01*
X106692170Y-109776336D01*
X106731678Y-109761023D01*
X106732349Y-109760740D01*
X106766646Y-109745131D01*
X107031678Y-110000000D01*
%TA.AperFunction,Conductor*%
D19*
G36*
X107031678Y-110000000D02*
G01*
X106766646Y-110254869D01*
X106732349Y-110239259D01*
X106731678Y-110238976D01*
X106692170Y-110223663D01*
X106691354Y-110223379D01*
X106653180Y-110211500D01*
X106652286Y-110211257D01*
X106614142Y-110202375D01*
X106613273Y-110202204D01*
X106573855Y-110195883D01*
X106573106Y-110195786D01*
X106531109Y-110191592D01*
X106530539Y-110191548D01*
X106484660Y-110189044D01*
X106484279Y-110189029D01*
X106433215Y-110187780D01*
X106432999Y-110187776D01*
X106375444Y-110187346D01*
X106375358Y-110187346D01*
X106322700Y-110187309D01*
X106322700Y-109812691D01*
X106375358Y-109812653D01*
X106375444Y-109812653D01*
X106432999Y-109812223D01*
X106433215Y-109812219D01*
X106484279Y-109810970D01*
X106484660Y-109810955D01*
X106530539Y-109808451D01*
X106531109Y-109808407D01*
X106573106Y-109804213D01*
X106573855Y-109804116D01*
X106613273Y-109797795D01*
X106614142Y-109797624D01*
X106652286Y-109788742D01*
X106653180Y-109788499D01*
X106691354Y-109776620D01*
X106692170Y-109776336D01*
X106731678Y-109761023D01*
X106732349Y-109760740D01*
X106766646Y-109745131D01*
X107031678Y-110000000D01*
G37*
%TD.AperFunction*%
%TD*%
D21*
%TO.N,/HO*%
X98054370Y-109832834D02*
X98043272Y-109853020D01*
X98025205Y-109881340D01*
X98006132Y-109910160D01*
X98005939Y-109910461D01*
X97987843Y-109939555D01*
X97987360Y-109940403D01*
X97972086Y-109969771D01*
X97971398Y-109971345D01*
X97960742Y-110001065D01*
X97960121Y-110003580D01*
X97955876Y-110033729D01*
X97955857Y-110037127D01*
X97959818Y-110067782D01*
X97960818Y-110071337D01*
X97974780Y-110102574D01*
X97976494Y-110105371D01*
X97995077Y-110128385D01*
X97729910Y-110393552D01*
X97683629Y-110340638D01*
X97645363Y-110280813D01*
X97620148Y-110223083D01*
X97604710Y-110166704D01*
X97595930Y-110110987D01*
X97590721Y-110055278D01*
X97585981Y-109999570D01*
X97585916Y-109998969D01*
X97578459Y-109943029D01*
X97578228Y-109941781D01*
X97564855Y-109885294D01*
X97564323Y-109883589D01*
X97544791Y-109833707D01*
X97800000Y-109568322D01*
X98054370Y-109832834D01*
%TA.AperFunction,Conductor*%
D19*
G36*
X98054370Y-109832834D02*
G01*
X98043272Y-109853020D01*
X98025205Y-109881340D01*
X98006132Y-109910160D01*
X98005939Y-109910461D01*
X97987843Y-109939555D01*
X97987360Y-109940403D01*
X97972086Y-109969771D01*
X97971398Y-109971345D01*
X97960742Y-110001065D01*
X97960121Y-110003580D01*
X97955876Y-110033729D01*
X97955857Y-110037127D01*
X97959818Y-110067782D01*
X97960818Y-110071337D01*
X97974780Y-110102574D01*
X97976494Y-110105371D01*
X97995077Y-110128385D01*
X97729910Y-110393552D01*
X97683629Y-110340638D01*
X97645363Y-110280813D01*
X97620148Y-110223083D01*
X97604710Y-110166704D01*
X97595930Y-110110987D01*
X97590721Y-110055278D01*
X97585981Y-109999570D01*
X97585916Y-109998969D01*
X97578459Y-109943029D01*
X97578228Y-109941781D01*
X97564855Y-109885294D01*
X97564323Y-109883589D01*
X97544791Y-109833707D01*
X97800000Y-109568322D01*
X98054370Y-109832834D01*
G37*
%TD.AperFunction*%
%TD*%
D21*
%TO.N,/LO*%
X111061497Y-104896549D02*
X111061558Y-104896609D01*
X111102559Y-104937002D01*
X111102714Y-104937152D01*
X111139705Y-104972377D01*
X111139985Y-104972636D01*
X111174197Y-105003307D01*
X111174632Y-105003679D01*
X111207293Y-105030409D01*
X111207891Y-105030870D01*
X111240233Y-105054274D01*
X111240969Y-105054768D01*
X111274222Y-105075459D01*
X111275025Y-105075919D01*
X111310418Y-105094512D01*
X111311196Y-105094888D01*
X111349959Y-105111996D01*
X111350633Y-105112271D01*
X111385923Y-105125485D01*
X111393110Y-105493110D01*
X111025485Y-105485923D01*
X111012271Y-105450633D01*
X111011996Y-105449959D01*
X110994888Y-105411196D01*
X110994512Y-105410418D01*
X110975919Y-105375025D01*
X110975459Y-105374222D01*
X110954768Y-105340969D01*
X110954274Y-105340233D01*
X110930870Y-105307891D01*
X110930409Y-105307293D01*
X110903679Y-105274632D01*
X110903307Y-105274197D01*
X110872636Y-105239985D01*
X110872377Y-105239705D01*
X110837152Y-105202714D01*
X110837002Y-105202559D01*
X110796609Y-105161558D01*
X110796549Y-105161497D01*
X110759341Y-105124236D01*
X111024236Y-104859341D01*
X111061497Y-104896549D01*
%TA.AperFunction,Conductor*%
D19*
G36*
X111061497Y-104896549D02*
G01*
X111061558Y-104896609D01*
X111102559Y-104937002D01*
X111102714Y-104937152D01*
X111139705Y-104972377D01*
X111139985Y-104972636D01*
X111174197Y-105003307D01*
X111174632Y-105003679D01*
X111207293Y-105030409D01*
X111207891Y-105030870D01*
X111240233Y-105054274D01*
X111240969Y-105054768D01*
X111274222Y-105075459D01*
X111275025Y-105075919D01*
X111310418Y-105094512D01*
X111311196Y-105094888D01*
X111349959Y-105111996D01*
X111350633Y-105112271D01*
X111385923Y-105125485D01*
X111393110Y-105493110D01*
X111025485Y-105485923D01*
X111012271Y-105450633D01*
X111011996Y-105449959D01*
X110994888Y-105411196D01*
X110994512Y-105410418D01*
X110975919Y-105375025D01*
X110975459Y-105374222D01*
X110954768Y-105340969D01*
X110954274Y-105340233D01*
X110930870Y-105307891D01*
X110930409Y-105307293D01*
X110903679Y-105274632D01*
X110903307Y-105274197D01*
X110872636Y-105239985D01*
X110872377Y-105239705D01*
X110837152Y-105202714D01*
X110837002Y-105202559D01*
X110796609Y-105161558D01*
X110796549Y-105161497D01*
X110759341Y-105124236D01*
X111024236Y-104859341D01*
X111061497Y-104896549D01*
G37*
%TD.AperFunction*%
%TD*%
D21*
%TO.N,/LO*%
X98367650Y-101960740D02*
X98368321Y-101961023D01*
X98407829Y-101976336D01*
X98408645Y-101976620D01*
X98446819Y-101988499D01*
X98447713Y-101988742D01*
X98485857Y-101997624D01*
X98486726Y-101997795D01*
X98526144Y-102004116D01*
X98526893Y-102004213D01*
X98568890Y-102008407D01*
X98569460Y-102008451D01*
X98615339Y-102010955D01*
X98615720Y-102010970D01*
X98666784Y-102012219D01*
X98667000Y-102012223D01*
X98724555Y-102012653D01*
X98724641Y-102012653D01*
X98777300Y-102012691D01*
X98777300Y-102387309D01*
X98724641Y-102387346D01*
X98724555Y-102387346D01*
X98667000Y-102387776D01*
X98666784Y-102387780D01*
X98615720Y-102389029D01*
X98615339Y-102389044D01*
X98569460Y-102391548D01*
X98568890Y-102391592D01*
X98526893Y-102395786D01*
X98526144Y-102395883D01*
X98486726Y-102402204D01*
X98485857Y-102402375D01*
X98447713Y-102411257D01*
X98446819Y-102411500D01*
X98408645Y-102423379D01*
X98407829Y-102423663D01*
X98368321Y-102438976D01*
X98367650Y-102439259D01*
X98333353Y-102454869D01*
X98068322Y-102200000D01*
X98333354Y-101945131D01*
X98367650Y-101960740D01*
%TA.AperFunction,Conductor*%
D19*
G36*
X98367650Y-101960740D02*
G01*
X98368321Y-101961023D01*
X98407829Y-101976336D01*
X98408645Y-101976620D01*
X98446819Y-101988499D01*
X98447713Y-101988742D01*
X98485857Y-101997624D01*
X98486726Y-101997795D01*
X98526144Y-102004116D01*
X98526893Y-102004213D01*
X98568890Y-102008407D01*
X98569460Y-102008451D01*
X98615339Y-102010955D01*
X98615720Y-102010970D01*
X98666784Y-102012219D01*
X98667000Y-102012223D01*
X98724555Y-102012653D01*
X98724641Y-102012653D01*
X98777300Y-102012691D01*
X98777300Y-102387309D01*
X98724641Y-102387346D01*
X98724555Y-102387346D01*
X98667000Y-102387776D01*
X98666784Y-102387780D01*
X98615720Y-102389029D01*
X98615339Y-102389044D01*
X98569460Y-102391548D01*
X98568890Y-102391592D01*
X98526893Y-102395786D01*
X98526144Y-102395883D01*
X98486726Y-102402204D01*
X98485857Y-102402375D01*
X98447713Y-102411257D01*
X98446819Y-102411500D01*
X98408645Y-102423379D01*
X98407829Y-102423663D01*
X98368321Y-102438976D01*
X98367650Y-102439259D01*
X98333353Y-102454869D01*
X98068322Y-102200000D01*
X98333354Y-101945131D01*
X98367650Y-101960740D01*
G37*
%TD.AperFunction*%
%TD*%
D21*
%TO.N,/VOUT*%
X115099359Y-113666486D02*
X115138978Y-113725884D01*
X115166161Y-113782971D01*
X115183965Y-113838514D01*
X115195326Y-113893248D01*
X115203134Y-113947843D01*
X115210291Y-114002630D01*
X115210366Y-114003129D01*
X115219809Y-114058269D01*
X115220045Y-114059356D01*
X115234754Y-114115274D01*
X115235251Y-114116775D01*
X115255156Y-114166348D01*
X115000000Y-114431678D01*
X114745540Y-114167072D01*
X114755910Y-114147601D01*
X114772324Y-114119834D01*
X114789066Y-114091601D01*
X114789318Y-114091155D01*
X114804691Y-114062670D01*
X114805170Y-114061682D01*
X114817626Y-114032899D01*
X114818218Y-114031216D01*
X114826210Y-114002093D01*
X114826635Y-113999582D01*
X114828615Y-113970076D01*
X114828428Y-113966898D01*
X114822847Y-113936966D01*
X114821797Y-113933769D01*
X114807109Y-113903366D01*
X114805496Y-113900840D01*
X114787446Y-113878820D01*
X115052608Y-113613658D01*
X115099359Y-113666486D01*
%TA.AperFunction,Conductor*%
D19*
G36*
X115099359Y-113666486D02*
G01*
X115138978Y-113725884D01*
X115166161Y-113782971D01*
X115183965Y-113838514D01*
X115195326Y-113893248D01*
X115203134Y-113947843D01*
X115210291Y-114002630D01*
X115210366Y-114003129D01*
X115219809Y-114058269D01*
X115220045Y-114059356D01*
X115234754Y-114115274D01*
X115235251Y-114116775D01*
X115255156Y-114166348D01*
X115000000Y-114431678D01*
X114745540Y-114167072D01*
X114755910Y-114147601D01*
X114772324Y-114119834D01*
X114789066Y-114091601D01*
X114789318Y-114091155D01*
X114804691Y-114062670D01*
X114805170Y-114061682D01*
X114817626Y-114032899D01*
X114818218Y-114031216D01*
X114826210Y-114002093D01*
X114826635Y-113999582D01*
X114828615Y-113970076D01*
X114828428Y-113966898D01*
X114822847Y-113936966D01*
X114821797Y-113933769D01*
X114807109Y-113903366D01*
X114805496Y-113900840D01*
X114787446Y-113878820D01*
X115052608Y-113613658D01*
X115099359Y-113666486D01*
G37*
%TD.AperFunction*%
%TD*%
D21*
%TO.N,/VOUT*%
X110361778Y-106973023D02*
X110362698Y-106974170D01*
X110383415Y-106997135D01*
X110384631Y-106998314D01*
X110407217Y-107017466D01*
X110408670Y-107018531D01*
X110433532Y-107034166D01*
X110435074Y-107034993D01*
X110462618Y-107047409D01*
X110464078Y-107047962D01*
X110494709Y-107057454D01*
X110495963Y-107057773D01*
X110530090Y-107064640D01*
X110531090Y-107064801D01*
X110569116Y-107069338D01*
X110569871Y-107069405D01*
X110612204Y-107071910D01*
X110612746Y-107071930D01*
X110647301Y-107072495D01*
X110647301Y-107447122D01*
X110577319Y-107446144D01*
X110505329Y-107442928D01*
X110441921Y-107438007D01*
X110385200Y-107431752D01*
X110333032Y-107424502D01*
X110283472Y-107416617D01*
X110234469Y-107408443D01*
X110234395Y-107408431D01*
X110184113Y-107400351D01*
X110183888Y-107400317D01*
X110130374Y-107392700D01*
X110130043Y-107392657D01*
X110079975Y-107386867D01*
X109987856Y-107030989D01*
X110347383Y-106952780D01*
X110361778Y-106973023D01*
%TA.AperFunction,Conductor*%
D19*
G36*
X110361778Y-106973023D02*
G01*
X110362698Y-106974170D01*
X110383415Y-106997135D01*
X110384631Y-106998314D01*
X110407217Y-107017466D01*
X110408670Y-107018531D01*
X110433532Y-107034166D01*
X110435074Y-107034993D01*
X110462618Y-107047409D01*
X110464078Y-107047962D01*
X110494709Y-107057454D01*
X110495963Y-107057773D01*
X110530090Y-107064640D01*
X110531090Y-107064801D01*
X110569116Y-107069338D01*
X110569871Y-107069405D01*
X110612204Y-107071910D01*
X110612746Y-107071930D01*
X110647301Y-107072495D01*
X110647301Y-107447122D01*
X110577319Y-107446144D01*
X110505329Y-107442928D01*
X110441921Y-107438007D01*
X110385200Y-107431752D01*
X110333032Y-107424502D01*
X110283472Y-107416617D01*
X110234469Y-107408443D01*
X110234395Y-107408431D01*
X110184113Y-107400351D01*
X110183888Y-107400317D01*
X110130374Y-107392700D01*
X110130043Y-107392657D01*
X110079975Y-107386867D01*
X109987856Y-107030989D01*
X110347383Y-106952780D01*
X110361778Y-106973023D01*
G37*
%TD.AperFunction*%
%TD*%
D21*
%TO.N,/VOUT*%
X108612572Y-62849654D02*
X109379923Y-63277555D01*
X110043497Y-63715158D01*
X110606842Y-64182499D01*
X111073645Y-64699673D01*
X111447661Y-65286926D01*
X111732581Y-65964683D01*
X111931903Y-66753347D01*
X112049012Y-67673196D01*
X112086838Y-68731665D01*
X111711084Y-68731665D01*
X111645807Y-68253471D01*
X111645230Y-68251049D01*
X111643702Y-68248012D01*
X111455470Y-67973198D01*
X111453868Y-67971292D01*
X111451926Y-67969735D01*
X111448849Y-67968275D01*
X111157300Y-67875330D01*
X111154866Y-67874810D01*
X111151561Y-67874870D01*
X110774837Y-67931306D01*
X110772099Y-67932036D01*
X110328339Y-68105362D01*
X110327072Y-68105939D01*
X109834419Y-68363663D01*
X109833840Y-68363985D01*
X109310432Y-68673619D01*
X109310254Y-68673727D01*
X108774323Y-69002724D01*
X108244143Y-69318517D01*
X107745716Y-69584455D01*
X104018322Y-66000000D01*
X107745893Y-62415374D01*
X108612572Y-62849654D01*
%TA.AperFunction,Conductor*%
D19*
G36*
X108612572Y-62849654D02*
G01*
X109379923Y-63277555D01*
X110043497Y-63715158D01*
X110606842Y-64182499D01*
X111073645Y-64699673D01*
X111447661Y-65286926D01*
X111732581Y-65964683D01*
X111931903Y-66753347D01*
X112049012Y-67673196D01*
X112086838Y-68731665D01*
X111711084Y-68731665D01*
X111645807Y-68253471D01*
X111645230Y-68251049D01*
X111643702Y-68248012D01*
X111455470Y-67973198D01*
X111453868Y-67971292D01*
X111451926Y-67969735D01*
X111448849Y-67968275D01*
X111157300Y-67875330D01*
X111154866Y-67874810D01*
X111151561Y-67874870D01*
X110774837Y-67931306D01*
X110772099Y-67932036D01*
X110328339Y-68105362D01*
X110327072Y-68105939D01*
X109834419Y-68363663D01*
X109833840Y-68363985D01*
X109310432Y-68673619D01*
X109310254Y-68673727D01*
X108774323Y-69002724D01*
X108244143Y-69318517D01*
X107745716Y-69584455D01*
X104018322Y-66000000D01*
X107745893Y-62415374D01*
X108612572Y-62849654D01*
G37*
%TD.AperFunction*%
%TD*%
D21*
%TO.N,/VOUT*%
X120181678Y-106200000D02*
X119823244Y-106544690D01*
X119766926Y-106517159D01*
X119766904Y-106517149D01*
X119709772Y-106489351D01*
X119709546Y-106489244D01*
X119657120Y-106465003D01*
X119656645Y-106464795D01*
X119606465Y-106444033D01*
X119605746Y-106443760D01*
X119555353Y-106426402D01*
X119554464Y-106426132D01*
X119501400Y-106412100D01*
X119500466Y-106411890D01*
X119442271Y-106401110D01*
X119441417Y-106400982D01*
X119375633Y-106393376D01*
X119374927Y-106393314D01*
X119299093Y-106388807D01*
X119298553Y-106388787D01*
X119222700Y-106387512D01*
X119222700Y-106012488D01*
X119298554Y-106011212D01*
X119299093Y-106011192D01*
X119374927Y-106006685D01*
X119375633Y-106006623D01*
X119441417Y-105999017D01*
X119442271Y-105998889D01*
X119500466Y-105988109D01*
X119501400Y-105987899D01*
X119554464Y-105973867D01*
X119555353Y-105973597D01*
X119605746Y-105956239D01*
X119606465Y-105955966D01*
X119656645Y-105935204D01*
X119657120Y-105934996D01*
X119709546Y-105910755D01*
X119709772Y-105910648D01*
X119766904Y-105882850D01*
X119766925Y-105882840D01*
X119823244Y-105855310D01*
X120181678Y-106200000D01*
%TA.AperFunction,Conductor*%
D19*
G36*
X120181678Y-106200000D02*
G01*
X119823244Y-106544690D01*
X119766926Y-106517159D01*
X119766904Y-106517149D01*
X119709772Y-106489351D01*
X119709546Y-106489244D01*
X119657120Y-106465003D01*
X119656645Y-106464795D01*
X119606465Y-106444033D01*
X119605746Y-106443760D01*
X119555353Y-106426402D01*
X119554464Y-106426132D01*
X119501400Y-106412100D01*
X119500466Y-106411890D01*
X119442271Y-106401110D01*
X119441417Y-106400982D01*
X119375633Y-106393376D01*
X119374927Y-106393314D01*
X119299093Y-106388807D01*
X119298553Y-106388787D01*
X119222700Y-106387512D01*
X119222700Y-106012488D01*
X119298554Y-106011212D01*
X119299093Y-106011192D01*
X119374927Y-106006685D01*
X119375633Y-106006623D01*
X119441417Y-105999017D01*
X119442271Y-105998889D01*
X119500466Y-105988109D01*
X119501400Y-105987899D01*
X119554464Y-105973867D01*
X119555353Y-105973597D01*
X119605746Y-105956239D01*
X119606465Y-105955966D01*
X119656645Y-105935204D01*
X119657120Y-105934996D01*
X119709546Y-105910755D01*
X119709772Y-105910648D01*
X119766904Y-105882850D01*
X119766925Y-105882840D01*
X119823244Y-105855310D01*
X120181678Y-106200000D01*
G37*
%TD.AperFunction*%
%TD*%
M02*
