%TF.GenerationSoftware,KiCad,Pcbnew,(5.1.7)-1*%
%TF.CreationDate,2021-06-07T20:06:36+03:00*%
%TF.ProjectId,SynchronousBuck,53796e63-6872-46f6-9e6f-75734275636b,rev?*%
%TF.SameCoordinates,Original*%
%TF.FileFunction,Other,Fab,Top*%
%FSLAX46Y46*%
G04 Gerber Fmt 4.6, Leading zero omitted, Abs format (unit mm)*
G04 Created by KiCad (PCBNEW (5.1.7)-1) date 2021-06-07 20:06:36*
%MOMM*%
%LPD*%
G01*
G04 APERTURE LIST*
%ADD10C,0.100000*%
%ADD11C,0.120000*%
%ADD12C,0.060000*%
%ADD13C,0.150000*%
%ADD14C,0.040000*%
%ADD15C,0.075000*%
G04 APERTURE END LIST*
D10*
%TO.C,R120*%
X118612500Y-104800000D02*
X117787500Y-104800000D01*
X117787500Y-104800000D02*
X117787500Y-103200000D01*
X117787500Y-103200000D02*
X118612500Y-103200000D01*
X118612500Y-103200000D02*
X118612500Y-104800000D01*
%TO.C,D103*%
X124550000Y-97200000D02*
X125050000Y-97200000D01*
X124550000Y-97600000D02*
X123950000Y-97200000D01*
X124550000Y-96800000D02*
X124550000Y-97600000D01*
X123950000Y-97200000D02*
X124550000Y-96800000D01*
X123950000Y-97200000D02*
X123950000Y-97750000D01*
X123950000Y-97200000D02*
X123950000Y-96650000D01*
X123550000Y-97200000D02*
X123950000Y-97200000D01*
X122900000Y-98100000D02*
X122900000Y-96300000D01*
X125700000Y-98100000D02*
X122900000Y-98100000D01*
X125700000Y-96300000D02*
X125700000Y-98100000D01*
X122900000Y-96300000D02*
X125700000Y-96300000D01*
%TO.C,D102*%
X126950000Y-107500000D02*
X127450000Y-107500000D01*
X126950000Y-107900000D02*
X126350000Y-107500000D01*
X126950000Y-107100000D02*
X126950000Y-107900000D01*
X126350000Y-107500000D02*
X126950000Y-107100000D01*
X126350000Y-107500000D02*
X126350000Y-108050000D01*
X126350000Y-107500000D02*
X126350000Y-106950000D01*
X125950000Y-107500000D02*
X126350000Y-107500000D01*
X125300000Y-108400000D02*
X125300000Y-106600000D01*
X128100000Y-108400000D02*
X125300000Y-108400000D01*
X128100000Y-106600000D02*
X128100000Y-108400000D01*
X125300000Y-106600000D02*
X128100000Y-106600000D01*
%TO.C,C114*%
X102562278Y-76500000D02*
X102562278Y-75700000D01*
X102962278Y-76100000D02*
X102162278Y-76100000D01*
X103550000Y-71450000D02*
X102550000Y-70450000D01*
X103550000Y-77750000D02*
X102550000Y-78750000D01*
X103550000Y-77750000D02*
X103550000Y-71450000D01*
X102550000Y-70450000D02*
X95250000Y-70450000D01*
X102550000Y-78750000D02*
X95250000Y-78750000D01*
X95250000Y-78750000D02*
X95250000Y-70450000D01*
X103400000Y-74600000D02*
G75*
G03*
X103400000Y-74600000I-4000000J0D01*
G01*
%TO.C,C113*%
X110537722Y-79100000D02*
X110537722Y-79900000D01*
X110137722Y-79500000D02*
X110937722Y-79500000D01*
X109550000Y-84150000D02*
X110550000Y-85150000D01*
X109550000Y-77850000D02*
X110550000Y-76850000D01*
X109550000Y-77850000D02*
X109550000Y-84150000D01*
X110550000Y-85150000D02*
X117850000Y-85150000D01*
X110550000Y-76850000D02*
X117850000Y-76850000D01*
X117850000Y-76850000D02*
X117850000Y-85150000D01*
X117700000Y-81000000D02*
G75*
G03*
X117700000Y-81000000I-4000000J0D01*
G01*
%TO.C,C118*%
X93562278Y-83200000D02*
X93562278Y-82400000D01*
X93962278Y-82800000D02*
X93162278Y-82800000D01*
X94550000Y-78150000D02*
X93550000Y-77150000D01*
X94550000Y-84450000D02*
X93550000Y-85450000D01*
X94550000Y-84450000D02*
X94550000Y-78150000D01*
X93550000Y-77150000D02*
X86250000Y-77150000D01*
X93550000Y-85450000D02*
X86250000Y-85450000D01*
X86250000Y-85450000D02*
X86250000Y-77150000D01*
X94400000Y-81300000D02*
G75*
G03*
X94400000Y-81300000I-4000000J0D01*
G01*
%TO.C,C112*%
X110537722Y-70100000D02*
X110537722Y-70900000D01*
X110137722Y-70500000D02*
X110937722Y-70500000D01*
X109550000Y-75150000D02*
X110550000Y-76150000D01*
X109550000Y-68850000D02*
X110550000Y-67850000D01*
X109550000Y-68850000D02*
X109550000Y-75150000D01*
X110550000Y-76150000D02*
X117850000Y-76150000D01*
X110550000Y-67850000D02*
X117850000Y-67850000D01*
X117850000Y-67850000D02*
X117850000Y-76150000D01*
X117700000Y-72000000D02*
G75*
G03*
X117700000Y-72000000I-4000000J0D01*
G01*
%TO.C,C110*%
X102789838Y-60945000D02*
X102789838Y-60315000D01*
X103104838Y-60630000D02*
X102474838Y-60630000D01*
X103700000Y-57000000D02*
X102700000Y-56000000D01*
X103700000Y-61600000D02*
X102700000Y-62600000D01*
X103700000Y-61600000D02*
X103700000Y-57000000D01*
X102700000Y-56000000D02*
X97100000Y-56000000D01*
X102700000Y-62600000D02*
X97100000Y-62600000D01*
X97100000Y-62600000D02*
X97100000Y-56000000D01*
X103550000Y-59300000D02*
G75*
G03*
X103550000Y-59300000I-3150000J0D01*
G01*
%TO.C,R123*%
X120412500Y-103200000D02*
X120412500Y-104800000D01*
X119587500Y-103200000D02*
X120412500Y-103200000D01*
X119587500Y-104800000D02*
X119587500Y-103200000D01*
X120412500Y-104800000D02*
X119587500Y-104800000D01*
%TO.C,C121*%
X106950000Y-111700000D02*
X106950000Y-114900000D01*
X104450000Y-111700000D02*
X106950000Y-111700000D01*
X104450000Y-114900000D02*
X104450000Y-111700000D01*
X106950000Y-114900000D02*
X104450000Y-114900000D01*
%TO.C,C120*%
X94075000Y-115650000D02*
X97275000Y-115650000D01*
X94075000Y-118150000D02*
X94075000Y-115650000D01*
X97275000Y-118150000D02*
X94075000Y-118150000D01*
X97275000Y-115650000D02*
X97275000Y-118150000D01*
%TO.C,C119*%
X91100000Y-115500000D02*
X91100000Y-117100000D01*
X90300000Y-115500000D02*
X91100000Y-115500000D01*
X90300000Y-117100000D02*
X90300000Y-115500000D01*
X91100000Y-117100000D02*
X90300000Y-117100000D01*
%TO.C,C115*%
X103850000Y-89400000D02*
X103850000Y-86200000D01*
X106350000Y-89400000D02*
X103850000Y-89400000D01*
X106350000Y-86200000D02*
X106350000Y-89400000D01*
X103850000Y-86200000D02*
X106350000Y-86200000D01*
D11*
%TO.C,L101*%
X86400000Y-109300000D02*
X85900000Y-104500000D01*
X85900000Y-104500000D02*
X84400000Y-103400000D01*
X88600000Y-114300000D02*
X88600000Y-109300000D01*
X79900000Y-114300000D02*
X88600000Y-114300000D01*
X86400000Y-109300000D02*
X88600000Y-109300000D01*
X85900000Y-96100000D02*
X84400000Y-97200000D01*
X86400000Y-91300000D02*
X88600000Y-91300000D01*
X86400000Y-91300000D02*
X85900000Y-96100000D01*
X88600000Y-86300000D02*
X88600000Y-91300000D01*
X79900000Y-86300000D02*
X88600000Y-86300000D01*
X79900000Y-86300000D02*
X71200000Y-86300000D01*
X73400000Y-91300000D02*
X73900000Y-96100000D01*
X73400000Y-91300000D02*
X71200000Y-91300000D01*
X79900000Y-114300000D02*
X71200000Y-114300000D01*
X71200000Y-114300000D02*
X71200000Y-109300000D01*
X71200000Y-86300000D02*
X71200000Y-91300000D01*
X73900000Y-96100000D02*
X75400000Y-97200000D01*
X73400000Y-109300000D02*
X71200000Y-109300000D01*
X73900000Y-104500000D02*
X75400000Y-103400000D01*
X73400000Y-109300000D02*
X73900000Y-104500000D01*
X73500001Y-108299999D02*
G75*
G02*
X73500001Y-92300001I6399999J7999999D01*
G01*
X86299999Y-92300001D02*
G75*
G02*
X86299999Y-108299999I-6399999J-7999999D01*
G01*
X75398646Y-103398032D02*
G75*
G02*
X75400001Y-97200001I4501354J3098032D01*
G01*
X84401354Y-97201968D02*
G75*
G02*
X84399999Y-103399999I-4501354J-3098032D01*
G01*
D10*
%TO.C,U101*%
X107850000Y-109700000D02*
X107850000Y-113100000D01*
X108850000Y-114100000D02*
X114350000Y-114100000D01*
X114350000Y-114100000D02*
X114350000Y-109700000D01*
X114350000Y-109700000D02*
X107850000Y-109700000D01*
X107850000Y-113100000D02*
X108850000Y-114100000D01*
%TO.C,C117*%
X107150000Y-86200000D02*
X109650000Y-86200000D01*
X109650000Y-86200000D02*
X109650000Y-89400000D01*
X109650000Y-89400000D02*
X107150000Y-89400000D01*
X107150000Y-89400000D02*
X107150000Y-86200000D01*
%TO.C,C116*%
X97150000Y-86200000D02*
X99650000Y-86200000D01*
X99650000Y-86200000D02*
X99650000Y-89400000D01*
X99650000Y-89400000D02*
X97150000Y-89400000D01*
X97150000Y-89400000D02*
X97150000Y-86200000D01*
%TO.C,FID103*%
X61500000Y-81500000D02*
G75*
G03*
X61500000Y-81500000I-500000J0D01*
G01*
%TO.C,FID102*%
X139000000Y-81000000D02*
G75*
G03*
X139000000Y-81000000I-500000J0D01*
G01*
%TO.C,FID101*%
X76900000Y-132700000D02*
G75*
G03*
X76900000Y-132700000I-500000J0D01*
G01*
%TO.C,R121*%
X120412500Y-99950000D02*
X120412500Y-101550000D01*
X119587500Y-99950000D02*
X120412500Y-99950000D01*
X119587500Y-101550000D02*
X119587500Y-99950000D01*
X120412500Y-101550000D02*
X119587500Y-101550000D01*
%TO.C,R119*%
X121850000Y-111587500D02*
X123450000Y-111587500D01*
X121850000Y-112412500D02*
X121850000Y-111587500D01*
X123450000Y-112412500D02*
X121850000Y-112412500D01*
X123450000Y-111587500D02*
X123450000Y-112412500D01*
%TO.C,R118*%
X123450000Y-110662500D02*
X121850000Y-110662500D01*
X123450000Y-109837500D02*
X123450000Y-110662500D01*
X121850000Y-109837500D02*
X123450000Y-109837500D01*
X121850000Y-110662500D02*
X121850000Y-109837500D01*
%TO.C,R117*%
X121850000Y-113237500D02*
X123450000Y-113237500D01*
X121850000Y-114062500D02*
X121850000Y-113237500D01*
X123450000Y-114062500D02*
X121850000Y-114062500D01*
X123450000Y-113237500D02*
X123450000Y-114062500D01*
%TO.C,J102*%
X121330000Y-99265000D02*
X121965000Y-98630000D01*
X121330000Y-108790000D02*
X121330000Y-99265000D01*
X123870000Y-108790000D02*
X121330000Y-108790000D01*
X123870000Y-98630000D02*
X123870000Y-108790000D01*
X121965000Y-98630000D02*
X123870000Y-98630000D01*
%TO.C,R105*%
X107400000Y-99650000D02*
X104200000Y-99650000D01*
X104200000Y-99650000D02*
X104200000Y-93350000D01*
X104200000Y-93350000D02*
X107400000Y-93350000D01*
X107400000Y-93350000D02*
X107400000Y-99650000D01*
%TO.C,C102*%
X111300000Y-117250000D02*
X110300000Y-117250000D01*
X111300000Y-116750000D02*
X111300000Y-117250000D01*
X110300000Y-116750000D02*
X111300000Y-116750000D01*
X110300000Y-117250000D02*
X110300000Y-116750000D01*
%TO.C,C108*%
X96000000Y-111200000D02*
X96000000Y-109600000D01*
X96800000Y-111200000D02*
X96000000Y-111200000D01*
X96800000Y-109600000D02*
X96800000Y-111200000D01*
X96000000Y-109600000D02*
X96800000Y-109600000D01*
%TO.C,C107*%
X109000000Y-104800000D02*
X109000000Y-106400000D01*
X108200000Y-104800000D02*
X109000000Y-104800000D01*
X108200000Y-106400000D02*
X108200000Y-104800000D01*
X109000000Y-106400000D02*
X108200000Y-106400000D01*
%TO.C,C106*%
X116925000Y-114900000D02*
X118525000Y-114900000D01*
X116925000Y-115700000D02*
X116925000Y-114900000D01*
X118525000Y-115700000D02*
X116925000Y-115700000D01*
X118525000Y-114900000D02*
X118525000Y-115700000D01*
%TO.C,C105*%
X104875000Y-107500000D02*
X106475000Y-107500000D01*
X104875000Y-108300000D02*
X104875000Y-107500000D01*
X106475000Y-108300000D02*
X104875000Y-108300000D01*
X106475000Y-107500000D02*
X106475000Y-108300000D01*
%TO.C,C104*%
X115825000Y-115400000D02*
X115825000Y-117000000D01*
X115025000Y-115400000D02*
X115825000Y-115400000D01*
X115025000Y-117000000D02*
X115025000Y-115400000D01*
X115825000Y-117000000D02*
X115025000Y-117000000D01*
%TO.C,C103*%
X112600000Y-119800000D02*
X112600000Y-118200000D01*
X113400000Y-119800000D02*
X112600000Y-119800000D01*
X113400000Y-118200000D02*
X113400000Y-119800000D01*
X112600000Y-118200000D02*
X113400000Y-118200000D01*
%TO.C,R116*%
X120025000Y-116587500D02*
X121625000Y-116587500D01*
X120025000Y-117412500D02*
X120025000Y-116587500D01*
X121625000Y-117412500D02*
X120025000Y-117412500D01*
X121625000Y-116587500D02*
X121625000Y-117412500D01*
%TO.C,R115*%
X120025000Y-118287500D02*
X121625000Y-118287500D01*
X120025000Y-119112500D02*
X120025000Y-118287500D01*
X121625000Y-119112500D02*
X120025000Y-119112500D01*
X121625000Y-118287500D02*
X121625000Y-119112500D01*
%TO.C,R114*%
X110400000Y-94412500D02*
X108800000Y-94412500D01*
X110400000Y-93587500D02*
X110400000Y-94412500D01*
X108800000Y-93587500D02*
X110400000Y-93587500D01*
X108800000Y-94412500D02*
X108800000Y-93587500D01*
%TO.C,R113*%
X110400000Y-96012500D02*
X108800000Y-96012500D01*
X110400000Y-95187500D02*
X110400000Y-96012500D01*
X108800000Y-95187500D02*
X110400000Y-95187500D01*
X108800000Y-96012500D02*
X108800000Y-95187500D01*
%TO.C,R112*%
X110400000Y-97812500D02*
X108800000Y-97812500D01*
X110400000Y-96987500D02*
X110400000Y-97812500D01*
X108800000Y-96987500D02*
X110400000Y-96987500D01*
X108800000Y-97812500D02*
X108800000Y-96987500D01*
%TO.C,R111*%
X111375000Y-120887500D02*
X112975000Y-120887500D01*
X111375000Y-121712500D02*
X111375000Y-120887500D01*
X112975000Y-121712500D02*
X111375000Y-121712500D01*
X112975000Y-120887500D02*
X112975000Y-121712500D01*
%TO.C,Q102*%
X103675000Y-103150000D02*
X102675000Y-102150000D01*
X103675000Y-108050000D02*
X98525000Y-108050000D01*
X98525000Y-108050000D02*
X98525000Y-102150000D01*
X98525000Y-102150000D02*
X102675000Y-102150000D01*
X103675000Y-103150000D02*
X103675000Y-108050000D01*
%TO.C,R108*%
X115100000Y-119487500D02*
X116700000Y-119487500D01*
X115100000Y-120312500D02*
X115100000Y-119487500D01*
X116700000Y-120312500D02*
X115100000Y-120312500D01*
X116700000Y-119487500D02*
X116700000Y-120312500D01*
%TO.C,R107*%
X121625000Y-115712500D02*
X120025000Y-115712500D01*
X121625000Y-114887500D02*
X121625000Y-115712500D01*
X120025000Y-114887500D02*
X121625000Y-114887500D01*
X120025000Y-115712500D02*
X120025000Y-114887500D01*
%TO.C,R106*%
X93000000Y-110787500D02*
X94600000Y-110787500D01*
X93000000Y-111612500D02*
X93000000Y-110787500D01*
X94600000Y-111612500D02*
X93000000Y-111612500D01*
X94600000Y-110787500D02*
X94600000Y-111612500D01*
%TO.C,R104*%
X116925000Y-116587500D02*
X118525000Y-116587500D01*
X116925000Y-117412500D02*
X116925000Y-116587500D01*
X118525000Y-117412500D02*
X116925000Y-117412500D01*
X118525000Y-116587500D02*
X118525000Y-117412500D01*
%TO.C,R103*%
X111275000Y-119012500D02*
X109675000Y-119012500D01*
X111275000Y-118187500D02*
X111275000Y-119012500D01*
X109675000Y-118187500D02*
X111275000Y-118187500D01*
X109675000Y-119012500D02*
X109675000Y-118187500D01*
%TO.C,R101*%
X108275000Y-120887500D02*
X109875000Y-120887500D01*
X108275000Y-121712500D02*
X108275000Y-120887500D01*
X109875000Y-121712500D02*
X108275000Y-121712500D01*
X109875000Y-120887500D02*
X109875000Y-121712500D01*
%TO.C,Q101*%
X103675000Y-110500000D02*
X102675000Y-109500000D01*
X103675000Y-115400000D02*
X98525000Y-115400000D01*
X98525000Y-115400000D02*
X98525000Y-109500000D01*
X98525000Y-109500000D02*
X102675000Y-109500000D01*
X103675000Y-110500000D02*
X103675000Y-115400000D01*
%TO.C,D101*%
X104480000Y-104700000D02*
X104480000Y-106100000D01*
X107520000Y-106100000D02*
X104480000Y-106100000D01*
X106950000Y-104700000D02*
X107520000Y-105250000D01*
X107520000Y-105250000D02*
X107520000Y-106100000D01*
X106950000Y-104700000D02*
X104500000Y-104700000D01*
%TO.C,C111*%
X94075000Y-112350000D02*
X97275000Y-112350000D01*
X94075000Y-114850000D02*
X94075000Y-112350000D01*
X97275000Y-114850000D02*
X94075000Y-114850000D01*
X97275000Y-112350000D02*
X97275000Y-114850000D01*
%TO.C,C109*%
X100450000Y-89400000D02*
X100450000Y-86200000D01*
X102950000Y-89400000D02*
X100450000Y-89400000D01*
X102950000Y-86200000D02*
X102950000Y-89400000D01*
X100450000Y-86200000D02*
X102950000Y-86200000D01*
%TO.C,C101*%
X107300000Y-118400000D02*
X107300000Y-116800000D01*
X108100000Y-118400000D02*
X107300000Y-118400000D01*
X108100000Y-116800000D02*
X108100000Y-118400000D01*
X107300000Y-116800000D02*
X108100000Y-116800000D01*
%TD*%
%TO.C,R120*%
D12*
X118380952Y-104447619D02*
X118190476Y-104580952D01*
X118380952Y-104676190D02*
X117980952Y-104676190D01*
X117980952Y-104523809D01*
X118000000Y-104485714D01*
X118019047Y-104466666D01*
X118057142Y-104447619D01*
X118114285Y-104447619D01*
X118152380Y-104466666D01*
X118171428Y-104485714D01*
X118190476Y-104523809D01*
X118190476Y-104676190D01*
X118380952Y-104066666D02*
X118380952Y-104295238D01*
X118380952Y-104180952D02*
X117980952Y-104180952D01*
X118038095Y-104219047D01*
X118076190Y-104257142D01*
X118095238Y-104295238D01*
X118019047Y-103914285D02*
X118000000Y-103895238D01*
X117980952Y-103857142D01*
X117980952Y-103761904D01*
X118000000Y-103723809D01*
X118019047Y-103704761D01*
X118057142Y-103685714D01*
X118095238Y-103685714D01*
X118152380Y-103704761D01*
X118380952Y-103933333D01*
X118380952Y-103685714D01*
X117980952Y-103438095D02*
X117980952Y-103400000D01*
X118000000Y-103361904D01*
X118019047Y-103342857D01*
X118057142Y-103323809D01*
X118133333Y-103304761D01*
X118228571Y-103304761D01*
X118304761Y-103323809D01*
X118342857Y-103342857D01*
X118361904Y-103361904D01*
X118380952Y-103400000D01*
X118380952Y-103438095D01*
X118361904Y-103476190D01*
X118342857Y-103495238D01*
X118304761Y-103514285D01*
X118228571Y-103533333D01*
X118133333Y-103533333D01*
X118057142Y-103514285D01*
X118019047Y-103495238D01*
X118000000Y-103476190D01*
X117980952Y-103438095D01*
%TO.C,D103*%
D13*
X122609523Y-95652380D02*
X122609523Y-94652380D01*
X122847619Y-94652380D01*
X122990476Y-94700000D01*
X123085714Y-94795238D01*
X123133333Y-94890476D01*
X123180952Y-95080952D01*
X123180952Y-95223809D01*
X123133333Y-95414285D01*
X123085714Y-95509523D01*
X122990476Y-95604761D01*
X122847619Y-95652380D01*
X122609523Y-95652380D01*
X124133333Y-95652380D02*
X123561904Y-95652380D01*
X123847619Y-95652380D02*
X123847619Y-94652380D01*
X123752380Y-94795238D01*
X123657142Y-94890476D01*
X123561904Y-94938095D01*
X124752380Y-94652380D02*
X124847619Y-94652380D01*
X124942857Y-94700000D01*
X124990476Y-94747619D01*
X125038095Y-94842857D01*
X125085714Y-95033333D01*
X125085714Y-95271428D01*
X125038095Y-95461904D01*
X124990476Y-95557142D01*
X124942857Y-95604761D01*
X124847619Y-95652380D01*
X124752380Y-95652380D01*
X124657142Y-95604761D01*
X124609523Y-95557142D01*
X124561904Y-95461904D01*
X124514285Y-95271428D01*
X124514285Y-95033333D01*
X124561904Y-94842857D01*
X124609523Y-94747619D01*
X124657142Y-94700000D01*
X124752380Y-94652380D01*
X125419047Y-94652380D02*
X126038095Y-94652380D01*
X125704761Y-95033333D01*
X125847619Y-95033333D01*
X125942857Y-95080952D01*
X125990476Y-95128571D01*
X126038095Y-95223809D01*
X126038095Y-95461904D01*
X125990476Y-95557142D01*
X125942857Y-95604761D01*
X125847619Y-95652380D01*
X125561904Y-95652380D01*
X125466666Y-95604761D01*
X125419047Y-95557142D01*
%TO.C,D102*%
X125009523Y-105952380D02*
X125009523Y-104952380D01*
X125247619Y-104952380D01*
X125390476Y-105000000D01*
X125485714Y-105095238D01*
X125533333Y-105190476D01*
X125580952Y-105380952D01*
X125580952Y-105523809D01*
X125533333Y-105714285D01*
X125485714Y-105809523D01*
X125390476Y-105904761D01*
X125247619Y-105952380D01*
X125009523Y-105952380D01*
X126533333Y-105952380D02*
X125961904Y-105952380D01*
X126247619Y-105952380D02*
X126247619Y-104952380D01*
X126152380Y-105095238D01*
X126057142Y-105190476D01*
X125961904Y-105238095D01*
X127152380Y-104952380D02*
X127247619Y-104952380D01*
X127342857Y-105000000D01*
X127390476Y-105047619D01*
X127438095Y-105142857D01*
X127485714Y-105333333D01*
X127485714Y-105571428D01*
X127438095Y-105761904D01*
X127390476Y-105857142D01*
X127342857Y-105904761D01*
X127247619Y-105952380D01*
X127152380Y-105952380D01*
X127057142Y-105904761D01*
X127009523Y-105857142D01*
X126961904Y-105761904D01*
X126914285Y-105571428D01*
X126914285Y-105333333D01*
X126961904Y-105142857D01*
X127009523Y-105047619D01*
X127057142Y-105000000D01*
X127152380Y-104952380D01*
X127866666Y-105047619D02*
X127914285Y-105000000D01*
X128009523Y-104952380D01*
X128247619Y-104952380D01*
X128342857Y-105000000D01*
X128390476Y-105047619D01*
X128438095Y-105142857D01*
X128438095Y-105238095D01*
X128390476Y-105380952D01*
X127819047Y-105952380D01*
X128438095Y-105952380D01*
%TO.C,C114*%
X98280952Y-74957142D02*
X98233333Y-75004761D01*
X98090476Y-75052380D01*
X97995238Y-75052380D01*
X97852380Y-75004761D01*
X97757142Y-74909523D01*
X97709523Y-74814285D01*
X97661904Y-74623809D01*
X97661904Y-74480952D01*
X97709523Y-74290476D01*
X97757142Y-74195238D01*
X97852380Y-74100000D01*
X97995238Y-74052380D01*
X98090476Y-74052380D01*
X98233333Y-74100000D01*
X98280952Y-74147619D01*
X99233333Y-75052380D02*
X98661904Y-75052380D01*
X98947619Y-75052380D02*
X98947619Y-74052380D01*
X98852380Y-74195238D01*
X98757142Y-74290476D01*
X98661904Y-74338095D01*
X100185714Y-75052380D02*
X99614285Y-75052380D01*
X99900000Y-75052380D02*
X99900000Y-74052380D01*
X99804761Y-74195238D01*
X99709523Y-74290476D01*
X99614285Y-74338095D01*
X101042857Y-74385714D02*
X101042857Y-75052380D01*
X100804761Y-74004761D02*
X100566666Y-74719047D01*
X101185714Y-74719047D01*
%TO.C,C113*%
X112580952Y-81357142D02*
X112533333Y-81404761D01*
X112390476Y-81452380D01*
X112295238Y-81452380D01*
X112152380Y-81404761D01*
X112057142Y-81309523D01*
X112009523Y-81214285D01*
X111961904Y-81023809D01*
X111961904Y-80880952D01*
X112009523Y-80690476D01*
X112057142Y-80595238D01*
X112152380Y-80500000D01*
X112295238Y-80452380D01*
X112390476Y-80452380D01*
X112533333Y-80500000D01*
X112580952Y-80547619D01*
X113533333Y-81452380D02*
X112961904Y-81452380D01*
X113247619Y-81452380D02*
X113247619Y-80452380D01*
X113152380Y-80595238D01*
X113057142Y-80690476D01*
X112961904Y-80738095D01*
X114485714Y-81452380D02*
X113914285Y-81452380D01*
X114200000Y-81452380D02*
X114200000Y-80452380D01*
X114104761Y-80595238D01*
X114009523Y-80690476D01*
X113914285Y-80738095D01*
X114819047Y-80452380D02*
X115438095Y-80452380D01*
X115104761Y-80833333D01*
X115247619Y-80833333D01*
X115342857Y-80880952D01*
X115390476Y-80928571D01*
X115438095Y-81023809D01*
X115438095Y-81261904D01*
X115390476Y-81357142D01*
X115342857Y-81404761D01*
X115247619Y-81452380D01*
X114961904Y-81452380D01*
X114866666Y-81404761D01*
X114819047Y-81357142D01*
%TO.C,C118*%
X89280952Y-81657142D02*
X89233333Y-81704761D01*
X89090476Y-81752380D01*
X88995238Y-81752380D01*
X88852380Y-81704761D01*
X88757142Y-81609523D01*
X88709523Y-81514285D01*
X88661904Y-81323809D01*
X88661904Y-81180952D01*
X88709523Y-80990476D01*
X88757142Y-80895238D01*
X88852380Y-80800000D01*
X88995238Y-80752380D01*
X89090476Y-80752380D01*
X89233333Y-80800000D01*
X89280952Y-80847619D01*
X90233333Y-81752380D02*
X89661904Y-81752380D01*
X89947619Y-81752380D02*
X89947619Y-80752380D01*
X89852380Y-80895238D01*
X89757142Y-80990476D01*
X89661904Y-81038095D01*
X91185714Y-81752380D02*
X90614285Y-81752380D01*
X90900000Y-81752380D02*
X90900000Y-80752380D01*
X90804761Y-80895238D01*
X90709523Y-80990476D01*
X90614285Y-81038095D01*
X91757142Y-81180952D02*
X91661904Y-81133333D01*
X91614285Y-81085714D01*
X91566666Y-80990476D01*
X91566666Y-80942857D01*
X91614285Y-80847619D01*
X91661904Y-80800000D01*
X91757142Y-80752380D01*
X91947619Y-80752380D01*
X92042857Y-80800000D01*
X92090476Y-80847619D01*
X92138095Y-80942857D01*
X92138095Y-80990476D01*
X92090476Y-81085714D01*
X92042857Y-81133333D01*
X91947619Y-81180952D01*
X91757142Y-81180952D01*
X91661904Y-81228571D01*
X91614285Y-81276190D01*
X91566666Y-81371428D01*
X91566666Y-81561904D01*
X91614285Y-81657142D01*
X91661904Y-81704761D01*
X91757142Y-81752380D01*
X91947619Y-81752380D01*
X92042857Y-81704761D01*
X92090476Y-81657142D01*
X92138095Y-81561904D01*
X92138095Y-81371428D01*
X92090476Y-81276190D01*
X92042857Y-81228571D01*
X91947619Y-81180952D01*
%TO.C,C112*%
X112580952Y-72357142D02*
X112533333Y-72404761D01*
X112390476Y-72452380D01*
X112295238Y-72452380D01*
X112152380Y-72404761D01*
X112057142Y-72309523D01*
X112009523Y-72214285D01*
X111961904Y-72023809D01*
X111961904Y-71880952D01*
X112009523Y-71690476D01*
X112057142Y-71595238D01*
X112152380Y-71500000D01*
X112295238Y-71452380D01*
X112390476Y-71452380D01*
X112533333Y-71500000D01*
X112580952Y-71547619D01*
X113533333Y-72452380D02*
X112961904Y-72452380D01*
X113247619Y-72452380D02*
X113247619Y-71452380D01*
X113152380Y-71595238D01*
X113057142Y-71690476D01*
X112961904Y-71738095D01*
X114485714Y-72452380D02*
X113914285Y-72452380D01*
X114200000Y-72452380D02*
X114200000Y-71452380D01*
X114104761Y-71595238D01*
X114009523Y-71690476D01*
X113914285Y-71738095D01*
X114866666Y-71547619D02*
X114914285Y-71500000D01*
X115009523Y-71452380D01*
X115247619Y-71452380D01*
X115342857Y-71500000D01*
X115390476Y-71547619D01*
X115438095Y-71642857D01*
X115438095Y-71738095D01*
X115390476Y-71880952D01*
X114819047Y-72452380D01*
X115438095Y-72452380D01*
%TO.C,C110*%
X99280952Y-59657142D02*
X99233333Y-59704761D01*
X99090476Y-59752380D01*
X98995238Y-59752380D01*
X98852380Y-59704761D01*
X98757142Y-59609523D01*
X98709523Y-59514285D01*
X98661904Y-59323809D01*
X98661904Y-59180952D01*
X98709523Y-58990476D01*
X98757142Y-58895238D01*
X98852380Y-58800000D01*
X98995238Y-58752380D01*
X99090476Y-58752380D01*
X99233333Y-58800000D01*
X99280952Y-58847619D01*
X100233333Y-59752380D02*
X99661904Y-59752380D01*
X99947619Y-59752380D02*
X99947619Y-58752380D01*
X99852380Y-58895238D01*
X99757142Y-58990476D01*
X99661904Y-59038095D01*
X101185714Y-59752380D02*
X100614285Y-59752380D01*
X100900000Y-59752380D02*
X100900000Y-58752380D01*
X100804761Y-58895238D01*
X100709523Y-58990476D01*
X100614285Y-59038095D01*
X101804761Y-58752380D02*
X101900000Y-58752380D01*
X101995238Y-58800000D01*
X102042857Y-58847619D01*
X102090476Y-58942857D01*
X102138095Y-59133333D01*
X102138095Y-59371428D01*
X102090476Y-59561904D01*
X102042857Y-59657142D01*
X101995238Y-59704761D01*
X101900000Y-59752380D01*
X101804761Y-59752380D01*
X101709523Y-59704761D01*
X101661904Y-59657142D01*
X101614285Y-59561904D01*
X101566666Y-59371428D01*
X101566666Y-59133333D01*
X101614285Y-58942857D01*
X101661904Y-58847619D01*
X101709523Y-58800000D01*
X101804761Y-58752380D01*
%TO.C,R123*%
D12*
X120180952Y-104447619D02*
X119990476Y-104580952D01*
X120180952Y-104676190D02*
X119780952Y-104676190D01*
X119780952Y-104523809D01*
X119800000Y-104485714D01*
X119819047Y-104466666D01*
X119857142Y-104447619D01*
X119914285Y-104447619D01*
X119952380Y-104466666D01*
X119971428Y-104485714D01*
X119990476Y-104523809D01*
X119990476Y-104676190D01*
X120180952Y-104066666D02*
X120180952Y-104295238D01*
X120180952Y-104180952D02*
X119780952Y-104180952D01*
X119838095Y-104219047D01*
X119876190Y-104257142D01*
X119895238Y-104295238D01*
X119819047Y-103914285D02*
X119800000Y-103895238D01*
X119780952Y-103857142D01*
X119780952Y-103761904D01*
X119800000Y-103723809D01*
X119819047Y-103704761D01*
X119857142Y-103685714D01*
X119895238Y-103685714D01*
X119952380Y-103704761D01*
X120180952Y-103933333D01*
X120180952Y-103685714D01*
X119780952Y-103552380D02*
X119780952Y-103304761D01*
X119933333Y-103438095D01*
X119933333Y-103380952D01*
X119952380Y-103342857D01*
X119971428Y-103323809D01*
X120009523Y-103304761D01*
X120104761Y-103304761D01*
X120142857Y-103323809D01*
X120161904Y-103342857D01*
X120180952Y-103380952D01*
X120180952Y-103495238D01*
X120161904Y-103533333D01*
X120142857Y-103552380D01*
%TO.C,C121*%
D11*
X105985714Y-114195238D02*
X106023809Y-114233333D01*
X106061904Y-114347619D01*
X106061904Y-114423809D01*
X106023809Y-114538095D01*
X105947619Y-114614285D01*
X105871428Y-114652380D01*
X105719047Y-114690476D01*
X105604761Y-114690476D01*
X105452380Y-114652380D01*
X105376190Y-114614285D01*
X105300000Y-114538095D01*
X105261904Y-114423809D01*
X105261904Y-114347619D01*
X105300000Y-114233333D01*
X105338095Y-114195238D01*
X106061904Y-113433333D02*
X106061904Y-113890476D01*
X106061904Y-113661904D02*
X105261904Y-113661904D01*
X105376190Y-113738095D01*
X105452380Y-113814285D01*
X105490476Y-113890476D01*
X105338095Y-113128571D02*
X105300000Y-113090476D01*
X105261904Y-113014285D01*
X105261904Y-112823809D01*
X105300000Y-112747619D01*
X105338095Y-112709523D01*
X105414285Y-112671428D01*
X105490476Y-112671428D01*
X105604761Y-112709523D01*
X106061904Y-113166666D01*
X106061904Y-112671428D01*
X106061904Y-111909523D02*
X106061904Y-112366666D01*
X106061904Y-112138095D02*
X105261904Y-112138095D01*
X105376190Y-112214285D01*
X105452380Y-112290476D01*
X105490476Y-112366666D01*
%TO.C,C120*%
X94779761Y-117185714D02*
X94741666Y-117223809D01*
X94627380Y-117261904D01*
X94551190Y-117261904D01*
X94436904Y-117223809D01*
X94360714Y-117147619D01*
X94322619Y-117071428D01*
X94284523Y-116919047D01*
X94284523Y-116804761D01*
X94322619Y-116652380D01*
X94360714Y-116576190D01*
X94436904Y-116500000D01*
X94551190Y-116461904D01*
X94627380Y-116461904D01*
X94741666Y-116500000D01*
X94779761Y-116538095D01*
X95541666Y-117261904D02*
X95084523Y-117261904D01*
X95313095Y-117261904D02*
X95313095Y-116461904D01*
X95236904Y-116576190D01*
X95160714Y-116652380D01*
X95084523Y-116690476D01*
X95846428Y-116538095D02*
X95884523Y-116500000D01*
X95960714Y-116461904D01*
X96151190Y-116461904D01*
X96227380Y-116500000D01*
X96265476Y-116538095D01*
X96303571Y-116614285D01*
X96303571Y-116690476D01*
X96265476Y-116804761D01*
X95808333Y-117261904D01*
X96303571Y-117261904D01*
X96798809Y-116461904D02*
X96875000Y-116461904D01*
X96951190Y-116500000D01*
X96989285Y-116538095D01*
X97027380Y-116614285D01*
X97065476Y-116766666D01*
X97065476Y-116957142D01*
X97027380Y-117109523D01*
X96989285Y-117185714D01*
X96951190Y-117223809D01*
X96875000Y-117261904D01*
X96798809Y-117261904D01*
X96722619Y-117223809D01*
X96684523Y-117185714D01*
X96646428Y-117109523D01*
X96608333Y-116957142D01*
X96608333Y-116766666D01*
X96646428Y-116614285D01*
X96684523Y-116538095D01*
X96722619Y-116500000D01*
X96798809Y-116461904D01*
%TO.C,C119*%
D12*
X90842857Y-116747619D02*
X90861904Y-116766666D01*
X90880952Y-116823809D01*
X90880952Y-116861904D01*
X90861904Y-116919047D01*
X90823809Y-116957142D01*
X90785714Y-116976190D01*
X90709523Y-116995238D01*
X90652380Y-116995238D01*
X90576190Y-116976190D01*
X90538095Y-116957142D01*
X90500000Y-116919047D01*
X90480952Y-116861904D01*
X90480952Y-116823809D01*
X90500000Y-116766666D01*
X90519047Y-116747619D01*
X90880952Y-116366666D02*
X90880952Y-116595238D01*
X90880952Y-116480952D02*
X90480952Y-116480952D01*
X90538095Y-116519047D01*
X90576190Y-116557142D01*
X90595238Y-116595238D01*
X90880952Y-115985714D02*
X90880952Y-116214285D01*
X90880952Y-116100000D02*
X90480952Y-116100000D01*
X90538095Y-116138095D01*
X90576190Y-116176190D01*
X90595238Y-116214285D01*
X90880952Y-115795238D02*
X90880952Y-115719047D01*
X90861904Y-115680952D01*
X90842857Y-115661904D01*
X90785714Y-115623809D01*
X90709523Y-115604761D01*
X90557142Y-115604761D01*
X90519047Y-115623809D01*
X90500000Y-115642857D01*
X90480952Y-115680952D01*
X90480952Y-115757142D01*
X90500000Y-115795238D01*
X90519047Y-115814285D01*
X90557142Y-115833333D01*
X90652380Y-115833333D01*
X90690476Y-115814285D01*
X90709523Y-115795238D01*
X90728571Y-115757142D01*
X90728571Y-115680952D01*
X90709523Y-115642857D01*
X90690476Y-115623809D01*
X90652380Y-115604761D01*
%TO.C,C115*%
D11*
X105385714Y-88695238D02*
X105423809Y-88733333D01*
X105461904Y-88847619D01*
X105461904Y-88923809D01*
X105423809Y-89038095D01*
X105347619Y-89114285D01*
X105271428Y-89152380D01*
X105119047Y-89190476D01*
X105004761Y-89190476D01*
X104852380Y-89152380D01*
X104776190Y-89114285D01*
X104700000Y-89038095D01*
X104661904Y-88923809D01*
X104661904Y-88847619D01*
X104700000Y-88733333D01*
X104738095Y-88695238D01*
X105461904Y-87933333D02*
X105461904Y-88390476D01*
X105461904Y-88161904D02*
X104661904Y-88161904D01*
X104776190Y-88238095D01*
X104852380Y-88314285D01*
X104890476Y-88390476D01*
X105461904Y-87171428D02*
X105461904Y-87628571D01*
X105461904Y-87400000D02*
X104661904Y-87400000D01*
X104776190Y-87476190D01*
X104852380Y-87552380D01*
X104890476Y-87628571D01*
X104661904Y-86447619D02*
X104661904Y-86828571D01*
X105042857Y-86866666D01*
X105004761Y-86828571D01*
X104966666Y-86752380D01*
X104966666Y-86561904D01*
X105004761Y-86485714D01*
X105042857Y-86447619D01*
X105119047Y-86409523D01*
X105309523Y-86409523D01*
X105385714Y-86447619D01*
X105423809Y-86485714D01*
X105461904Y-86561904D01*
X105461904Y-86752380D01*
X105423809Y-86828571D01*
X105385714Y-86866666D01*
%TO.C,U101*%
D13*
X110552380Y-113614285D02*
X111361904Y-113614285D01*
X111457142Y-113566666D01*
X111504761Y-113519047D01*
X111552380Y-113423809D01*
X111552380Y-113233333D01*
X111504761Y-113138095D01*
X111457142Y-113090476D01*
X111361904Y-113042857D01*
X110552380Y-113042857D01*
X111552380Y-112042857D02*
X111552380Y-112614285D01*
X111552380Y-112328571D02*
X110552380Y-112328571D01*
X110695238Y-112423809D01*
X110790476Y-112519047D01*
X110838095Y-112614285D01*
X110552380Y-111423809D02*
X110552380Y-111328571D01*
X110600000Y-111233333D01*
X110647619Y-111185714D01*
X110742857Y-111138095D01*
X110933333Y-111090476D01*
X111171428Y-111090476D01*
X111361904Y-111138095D01*
X111457142Y-111185714D01*
X111504761Y-111233333D01*
X111552380Y-111328571D01*
X111552380Y-111423809D01*
X111504761Y-111519047D01*
X111457142Y-111566666D01*
X111361904Y-111614285D01*
X111171428Y-111661904D01*
X110933333Y-111661904D01*
X110742857Y-111614285D01*
X110647619Y-111566666D01*
X110600000Y-111519047D01*
X110552380Y-111423809D01*
X111552380Y-110138095D02*
X111552380Y-110709523D01*
X111552380Y-110423809D02*
X110552380Y-110423809D01*
X110695238Y-110519047D01*
X110790476Y-110614285D01*
X110838095Y-110709523D01*
%TO.C,C117*%
D11*
X108685714Y-88695238D02*
X108723809Y-88733333D01*
X108761904Y-88847619D01*
X108761904Y-88923809D01*
X108723809Y-89038095D01*
X108647619Y-89114285D01*
X108571428Y-89152380D01*
X108419047Y-89190476D01*
X108304761Y-89190476D01*
X108152380Y-89152380D01*
X108076190Y-89114285D01*
X108000000Y-89038095D01*
X107961904Y-88923809D01*
X107961904Y-88847619D01*
X108000000Y-88733333D01*
X108038095Y-88695238D01*
X108761904Y-87933333D02*
X108761904Y-88390476D01*
X108761904Y-88161904D02*
X107961904Y-88161904D01*
X108076190Y-88238095D01*
X108152380Y-88314285D01*
X108190476Y-88390476D01*
X108761904Y-87171428D02*
X108761904Y-87628571D01*
X108761904Y-87400000D02*
X107961904Y-87400000D01*
X108076190Y-87476190D01*
X108152380Y-87552380D01*
X108190476Y-87628571D01*
X107961904Y-86904761D02*
X107961904Y-86371428D01*
X108761904Y-86714285D01*
%TO.C,C116*%
X98685714Y-88695238D02*
X98723809Y-88733333D01*
X98761904Y-88847619D01*
X98761904Y-88923809D01*
X98723809Y-89038095D01*
X98647619Y-89114285D01*
X98571428Y-89152380D01*
X98419047Y-89190476D01*
X98304761Y-89190476D01*
X98152380Y-89152380D01*
X98076190Y-89114285D01*
X98000000Y-89038095D01*
X97961904Y-88923809D01*
X97961904Y-88847619D01*
X98000000Y-88733333D01*
X98038095Y-88695238D01*
X98761904Y-87933333D02*
X98761904Y-88390476D01*
X98761904Y-88161904D02*
X97961904Y-88161904D01*
X98076190Y-88238095D01*
X98152380Y-88314285D01*
X98190476Y-88390476D01*
X98761904Y-87171428D02*
X98761904Y-87628571D01*
X98761904Y-87400000D02*
X97961904Y-87400000D01*
X98076190Y-87476190D01*
X98152380Y-87552380D01*
X98190476Y-87628571D01*
X97961904Y-86485714D02*
X97961904Y-86638095D01*
X98000000Y-86714285D01*
X98038095Y-86752380D01*
X98152380Y-86828571D01*
X98304761Y-86866666D01*
X98609523Y-86866666D01*
X98685714Y-86828571D01*
X98723809Y-86790476D01*
X98761904Y-86714285D01*
X98761904Y-86561904D01*
X98723809Y-86485714D01*
X98685714Y-86447619D01*
X98609523Y-86409523D01*
X98419047Y-86409523D01*
X98342857Y-86447619D01*
X98304761Y-86485714D01*
X98266666Y-86561904D01*
X98266666Y-86714285D01*
X98304761Y-86790476D01*
X98342857Y-86828571D01*
X98419047Y-86866666D01*
%TO.C,H104*%
D13*
X126569984Y-71868110D02*
X126569984Y-70868110D01*
X126569984Y-71344301D02*
X127141412Y-71344301D01*
X127141412Y-71868110D02*
X127141412Y-70868110D01*
X128141412Y-71868110D02*
X127569984Y-71868110D01*
X127855698Y-71868110D02*
X127855698Y-70868110D01*
X127760460Y-71010968D01*
X127665222Y-71106206D01*
X127569984Y-71153825D01*
X128760460Y-70868110D02*
X128855698Y-70868110D01*
X128950936Y-70915730D01*
X128998555Y-70963349D01*
X129046174Y-71058587D01*
X129093793Y-71249063D01*
X129093793Y-71487158D01*
X129046174Y-71677634D01*
X128998555Y-71772872D01*
X128950936Y-71820491D01*
X128855698Y-71868110D01*
X128760460Y-71868110D01*
X128665222Y-71820491D01*
X128617603Y-71772872D01*
X128569984Y-71677634D01*
X128522365Y-71487158D01*
X128522365Y-71249063D01*
X128569984Y-71058587D01*
X128617603Y-70963349D01*
X128665222Y-70915730D01*
X128760460Y-70868110D01*
X129950936Y-71201444D02*
X129950936Y-71868110D01*
X129712841Y-70820491D02*
X129474746Y-71534777D01*
X130093793Y-71534777D01*
%TO.C,H103*%
X69401444Y-71868110D02*
X69401444Y-70868110D01*
X69401444Y-71344301D02*
X69972872Y-71344301D01*
X69972872Y-71868110D02*
X69972872Y-70868110D01*
X70972872Y-71868110D02*
X70401444Y-71868110D01*
X70687158Y-71868110D02*
X70687158Y-70868110D01*
X70591920Y-71010968D01*
X70496682Y-71106206D01*
X70401444Y-71153825D01*
X71591920Y-70868110D02*
X71687158Y-70868110D01*
X71782396Y-70915730D01*
X71830015Y-70963349D01*
X71877634Y-71058587D01*
X71925253Y-71249063D01*
X71925253Y-71487158D01*
X71877634Y-71677634D01*
X71830015Y-71772872D01*
X71782396Y-71820491D01*
X71687158Y-71868110D01*
X71591920Y-71868110D01*
X71496682Y-71820491D01*
X71449063Y-71772872D01*
X71401444Y-71677634D01*
X71353825Y-71487158D01*
X71353825Y-71249063D01*
X71401444Y-71058587D01*
X71449063Y-70963349D01*
X71496682Y-70915730D01*
X71591920Y-70868110D01*
X72258587Y-70868110D02*
X72877634Y-70868110D01*
X72544301Y-71249063D01*
X72687158Y-71249063D01*
X72782396Y-71296682D01*
X72830015Y-71344301D01*
X72877634Y-71439539D01*
X72877634Y-71677634D01*
X72830015Y-71772872D01*
X72782396Y-71820491D01*
X72687158Y-71868110D01*
X72401444Y-71868110D01*
X72306206Y-71820491D01*
X72258587Y-71772872D01*
%TO.C,H102*%
X69401444Y-129036650D02*
X69401444Y-128036650D01*
X69401444Y-128512841D02*
X69972872Y-128512841D01*
X69972872Y-129036650D02*
X69972872Y-128036650D01*
X70972872Y-129036650D02*
X70401444Y-129036650D01*
X70687158Y-129036650D02*
X70687158Y-128036650D01*
X70591920Y-128179508D01*
X70496682Y-128274746D01*
X70401444Y-128322365D01*
X71591920Y-128036650D02*
X71687158Y-128036650D01*
X71782396Y-128084270D01*
X71830015Y-128131889D01*
X71877634Y-128227127D01*
X71925253Y-128417603D01*
X71925253Y-128655698D01*
X71877634Y-128846174D01*
X71830015Y-128941412D01*
X71782396Y-128989031D01*
X71687158Y-129036650D01*
X71591920Y-129036650D01*
X71496682Y-128989031D01*
X71449063Y-128941412D01*
X71401444Y-128846174D01*
X71353825Y-128655698D01*
X71353825Y-128417603D01*
X71401444Y-128227127D01*
X71449063Y-128131889D01*
X71496682Y-128084270D01*
X71591920Y-128036650D01*
X72306206Y-128131889D02*
X72353825Y-128084270D01*
X72449063Y-128036650D01*
X72687158Y-128036650D01*
X72782396Y-128084270D01*
X72830015Y-128131889D01*
X72877634Y-128227127D01*
X72877634Y-128322365D01*
X72830015Y-128465222D01*
X72258587Y-129036650D01*
X72877634Y-129036650D01*
%TO.C,H101*%
X126569984Y-129036650D02*
X126569984Y-128036650D01*
X126569984Y-128512841D02*
X127141412Y-128512841D01*
X127141412Y-129036650D02*
X127141412Y-128036650D01*
X128141412Y-129036650D02*
X127569984Y-129036650D01*
X127855698Y-129036650D02*
X127855698Y-128036650D01*
X127760460Y-128179508D01*
X127665222Y-128274746D01*
X127569984Y-128322365D01*
X128760460Y-128036650D02*
X128855698Y-128036650D01*
X128950936Y-128084270D01*
X128998555Y-128131889D01*
X129046174Y-128227127D01*
X129093793Y-128417603D01*
X129093793Y-128655698D01*
X129046174Y-128846174D01*
X128998555Y-128941412D01*
X128950936Y-128989031D01*
X128855698Y-129036650D01*
X128760460Y-129036650D01*
X128665222Y-128989031D01*
X128617603Y-128941412D01*
X128569984Y-128846174D01*
X128522365Y-128655698D01*
X128522365Y-128417603D01*
X128569984Y-128227127D01*
X128617603Y-128131889D01*
X128665222Y-128084270D01*
X128760460Y-128036650D01*
X130046174Y-129036650D02*
X129474746Y-129036650D01*
X129760460Y-129036650D02*
X129760460Y-128036650D01*
X129665222Y-128179508D01*
X129569984Y-128274746D01*
X129474746Y-128322365D01*
%TO.C,FID103*%
D14*
X60595238Y-81485714D02*
X60528571Y-81485714D01*
X60528571Y-81590476D02*
X60528571Y-81390476D01*
X60623809Y-81390476D01*
X60700000Y-81590476D02*
X60700000Y-81390476D01*
X60795238Y-81590476D02*
X60795238Y-81390476D01*
X60842857Y-81390476D01*
X60871428Y-81400000D01*
X60890476Y-81419047D01*
X60900000Y-81438095D01*
X60909523Y-81476190D01*
X60909523Y-81504761D01*
X60900000Y-81542857D01*
X60890476Y-81561904D01*
X60871428Y-81580952D01*
X60842857Y-81590476D01*
X60795238Y-81590476D01*
X61100000Y-81590476D02*
X60985714Y-81590476D01*
X61042857Y-81590476D02*
X61042857Y-81390476D01*
X61023809Y-81419047D01*
X61004761Y-81438095D01*
X60985714Y-81447619D01*
X61223809Y-81390476D02*
X61242857Y-81390476D01*
X61261904Y-81400000D01*
X61271428Y-81409523D01*
X61280952Y-81428571D01*
X61290476Y-81466666D01*
X61290476Y-81514285D01*
X61280952Y-81552380D01*
X61271428Y-81571428D01*
X61261904Y-81580952D01*
X61242857Y-81590476D01*
X61223809Y-81590476D01*
X61204761Y-81580952D01*
X61195238Y-81571428D01*
X61185714Y-81552380D01*
X61176190Y-81514285D01*
X61176190Y-81466666D01*
X61185714Y-81428571D01*
X61195238Y-81409523D01*
X61204761Y-81400000D01*
X61223809Y-81390476D01*
X61357142Y-81390476D02*
X61480952Y-81390476D01*
X61414285Y-81466666D01*
X61442857Y-81466666D01*
X61461904Y-81476190D01*
X61471428Y-81485714D01*
X61480952Y-81504761D01*
X61480952Y-81552380D01*
X61471428Y-81571428D01*
X61461904Y-81580952D01*
X61442857Y-81590476D01*
X61385714Y-81590476D01*
X61366666Y-81580952D01*
X61357142Y-81571428D01*
%TO.C,FID102*%
X138095238Y-80985714D02*
X138028571Y-80985714D01*
X138028571Y-81090476D02*
X138028571Y-80890476D01*
X138123809Y-80890476D01*
X138200000Y-81090476D02*
X138200000Y-80890476D01*
X138295238Y-81090476D02*
X138295238Y-80890476D01*
X138342857Y-80890476D01*
X138371428Y-80900000D01*
X138390476Y-80919047D01*
X138400000Y-80938095D01*
X138409523Y-80976190D01*
X138409523Y-81004761D01*
X138400000Y-81042857D01*
X138390476Y-81061904D01*
X138371428Y-81080952D01*
X138342857Y-81090476D01*
X138295238Y-81090476D01*
X138600000Y-81090476D02*
X138485714Y-81090476D01*
X138542857Y-81090476D02*
X138542857Y-80890476D01*
X138523809Y-80919047D01*
X138504761Y-80938095D01*
X138485714Y-80947619D01*
X138723809Y-80890476D02*
X138742857Y-80890476D01*
X138761904Y-80900000D01*
X138771428Y-80909523D01*
X138780952Y-80928571D01*
X138790476Y-80966666D01*
X138790476Y-81014285D01*
X138780952Y-81052380D01*
X138771428Y-81071428D01*
X138761904Y-81080952D01*
X138742857Y-81090476D01*
X138723809Y-81090476D01*
X138704761Y-81080952D01*
X138695238Y-81071428D01*
X138685714Y-81052380D01*
X138676190Y-81014285D01*
X138676190Y-80966666D01*
X138685714Y-80928571D01*
X138695238Y-80909523D01*
X138704761Y-80900000D01*
X138723809Y-80890476D01*
X138866666Y-80909523D02*
X138876190Y-80900000D01*
X138895238Y-80890476D01*
X138942857Y-80890476D01*
X138961904Y-80900000D01*
X138971428Y-80909523D01*
X138980952Y-80928571D01*
X138980952Y-80947619D01*
X138971428Y-80976190D01*
X138857142Y-81090476D01*
X138980952Y-81090476D01*
%TO.C,FID101*%
X75995238Y-132685714D02*
X75928571Y-132685714D01*
X75928571Y-132790476D02*
X75928571Y-132590476D01*
X76023809Y-132590476D01*
X76100000Y-132790476D02*
X76100000Y-132590476D01*
X76195238Y-132790476D02*
X76195238Y-132590476D01*
X76242857Y-132590476D01*
X76271428Y-132600000D01*
X76290476Y-132619047D01*
X76300000Y-132638095D01*
X76309523Y-132676190D01*
X76309523Y-132704761D01*
X76300000Y-132742857D01*
X76290476Y-132761904D01*
X76271428Y-132780952D01*
X76242857Y-132790476D01*
X76195238Y-132790476D01*
X76500000Y-132790476D02*
X76385714Y-132790476D01*
X76442857Y-132790476D02*
X76442857Y-132590476D01*
X76423809Y-132619047D01*
X76404761Y-132638095D01*
X76385714Y-132647619D01*
X76623809Y-132590476D02*
X76642857Y-132590476D01*
X76661904Y-132600000D01*
X76671428Y-132609523D01*
X76680952Y-132628571D01*
X76690476Y-132666666D01*
X76690476Y-132714285D01*
X76680952Y-132752380D01*
X76671428Y-132771428D01*
X76661904Y-132780952D01*
X76642857Y-132790476D01*
X76623809Y-132790476D01*
X76604761Y-132780952D01*
X76595238Y-132771428D01*
X76585714Y-132752380D01*
X76576190Y-132714285D01*
X76576190Y-132666666D01*
X76585714Y-132628571D01*
X76595238Y-132609523D01*
X76604761Y-132600000D01*
X76623809Y-132590476D01*
X76880952Y-132790476D02*
X76766666Y-132790476D01*
X76823809Y-132790476D02*
X76823809Y-132590476D01*
X76804761Y-132619047D01*
X76785714Y-132638095D01*
X76766666Y-132647619D01*
%TO.C,R121*%
D12*
X120180952Y-101197619D02*
X119990476Y-101330952D01*
X120180952Y-101426190D02*
X119780952Y-101426190D01*
X119780952Y-101273809D01*
X119800000Y-101235714D01*
X119819047Y-101216666D01*
X119857142Y-101197619D01*
X119914285Y-101197619D01*
X119952380Y-101216666D01*
X119971428Y-101235714D01*
X119990476Y-101273809D01*
X119990476Y-101426190D01*
X120180952Y-100816666D02*
X120180952Y-101045238D01*
X120180952Y-100930952D02*
X119780952Y-100930952D01*
X119838095Y-100969047D01*
X119876190Y-101007142D01*
X119895238Y-101045238D01*
X119819047Y-100664285D02*
X119800000Y-100645238D01*
X119780952Y-100607142D01*
X119780952Y-100511904D01*
X119800000Y-100473809D01*
X119819047Y-100454761D01*
X119857142Y-100435714D01*
X119895238Y-100435714D01*
X119952380Y-100454761D01*
X120180952Y-100683333D01*
X120180952Y-100435714D01*
X120180952Y-100054761D02*
X120180952Y-100283333D01*
X120180952Y-100169047D02*
X119780952Y-100169047D01*
X119838095Y-100207142D01*
X119876190Y-100245238D01*
X119895238Y-100283333D01*
%TO.C,R119*%
X122202380Y-112180952D02*
X122069047Y-111990476D01*
X121973809Y-112180952D02*
X121973809Y-111780952D01*
X122126190Y-111780952D01*
X122164285Y-111800000D01*
X122183333Y-111819047D01*
X122202380Y-111857142D01*
X122202380Y-111914285D01*
X122183333Y-111952380D01*
X122164285Y-111971428D01*
X122126190Y-111990476D01*
X121973809Y-111990476D01*
X122583333Y-112180952D02*
X122354761Y-112180952D01*
X122469047Y-112180952D02*
X122469047Y-111780952D01*
X122430952Y-111838095D01*
X122392857Y-111876190D01*
X122354761Y-111895238D01*
X122964285Y-112180952D02*
X122735714Y-112180952D01*
X122850000Y-112180952D02*
X122850000Y-111780952D01*
X122811904Y-111838095D01*
X122773809Y-111876190D01*
X122735714Y-111895238D01*
X123154761Y-112180952D02*
X123230952Y-112180952D01*
X123269047Y-112161904D01*
X123288095Y-112142857D01*
X123326190Y-112085714D01*
X123345238Y-112009523D01*
X123345238Y-111857142D01*
X123326190Y-111819047D01*
X123307142Y-111800000D01*
X123269047Y-111780952D01*
X123192857Y-111780952D01*
X123154761Y-111800000D01*
X123135714Y-111819047D01*
X123116666Y-111857142D01*
X123116666Y-111952380D01*
X123135714Y-111990476D01*
X123154761Y-112009523D01*
X123192857Y-112028571D01*
X123269047Y-112028571D01*
X123307142Y-112009523D01*
X123326190Y-111990476D01*
X123345238Y-111952380D01*
%TO.C,R118*%
X122202380Y-110430952D02*
X122069047Y-110240476D01*
X121973809Y-110430952D02*
X121973809Y-110030952D01*
X122126190Y-110030952D01*
X122164285Y-110050000D01*
X122183333Y-110069047D01*
X122202380Y-110107142D01*
X122202380Y-110164285D01*
X122183333Y-110202380D01*
X122164285Y-110221428D01*
X122126190Y-110240476D01*
X121973809Y-110240476D01*
X122583333Y-110430952D02*
X122354761Y-110430952D01*
X122469047Y-110430952D02*
X122469047Y-110030952D01*
X122430952Y-110088095D01*
X122392857Y-110126190D01*
X122354761Y-110145238D01*
X122964285Y-110430952D02*
X122735714Y-110430952D01*
X122850000Y-110430952D02*
X122850000Y-110030952D01*
X122811904Y-110088095D01*
X122773809Y-110126190D01*
X122735714Y-110145238D01*
X123192857Y-110202380D02*
X123154761Y-110183333D01*
X123135714Y-110164285D01*
X123116666Y-110126190D01*
X123116666Y-110107142D01*
X123135714Y-110069047D01*
X123154761Y-110050000D01*
X123192857Y-110030952D01*
X123269047Y-110030952D01*
X123307142Y-110050000D01*
X123326190Y-110069047D01*
X123345238Y-110107142D01*
X123345238Y-110126190D01*
X123326190Y-110164285D01*
X123307142Y-110183333D01*
X123269047Y-110202380D01*
X123192857Y-110202380D01*
X123154761Y-110221428D01*
X123135714Y-110240476D01*
X123116666Y-110278571D01*
X123116666Y-110354761D01*
X123135714Y-110392857D01*
X123154761Y-110411904D01*
X123192857Y-110430952D01*
X123269047Y-110430952D01*
X123307142Y-110411904D01*
X123326190Y-110392857D01*
X123345238Y-110354761D01*
X123345238Y-110278571D01*
X123326190Y-110240476D01*
X123307142Y-110221428D01*
X123269047Y-110202380D01*
%TO.C,R117*%
X122202380Y-113830952D02*
X122069047Y-113640476D01*
X121973809Y-113830952D02*
X121973809Y-113430952D01*
X122126190Y-113430952D01*
X122164285Y-113450000D01*
X122183333Y-113469047D01*
X122202380Y-113507142D01*
X122202380Y-113564285D01*
X122183333Y-113602380D01*
X122164285Y-113621428D01*
X122126190Y-113640476D01*
X121973809Y-113640476D01*
X122583333Y-113830952D02*
X122354761Y-113830952D01*
X122469047Y-113830952D02*
X122469047Y-113430952D01*
X122430952Y-113488095D01*
X122392857Y-113526190D01*
X122354761Y-113545238D01*
X122964285Y-113830952D02*
X122735714Y-113830952D01*
X122850000Y-113830952D02*
X122850000Y-113430952D01*
X122811904Y-113488095D01*
X122773809Y-113526190D01*
X122735714Y-113545238D01*
X123097619Y-113430952D02*
X123364285Y-113430952D01*
X123192857Y-113830952D01*
%TO.C,J102*%
D13*
X122052380Y-104995714D02*
X122766666Y-104995714D01*
X122909523Y-105043333D01*
X123004761Y-105138571D01*
X123052380Y-105281428D01*
X123052380Y-105376666D01*
X123052380Y-103995714D02*
X123052380Y-104567142D01*
X123052380Y-104281428D02*
X122052380Y-104281428D01*
X122195238Y-104376666D01*
X122290476Y-104471904D01*
X122338095Y-104567142D01*
X122052380Y-103376666D02*
X122052380Y-103281428D01*
X122100000Y-103186190D01*
X122147619Y-103138571D01*
X122242857Y-103090952D01*
X122433333Y-103043333D01*
X122671428Y-103043333D01*
X122861904Y-103090952D01*
X122957142Y-103138571D01*
X123004761Y-103186190D01*
X123052380Y-103281428D01*
X123052380Y-103376666D01*
X123004761Y-103471904D01*
X122957142Y-103519523D01*
X122861904Y-103567142D01*
X122671428Y-103614761D01*
X122433333Y-103614761D01*
X122242857Y-103567142D01*
X122147619Y-103519523D01*
X122100000Y-103471904D01*
X122052380Y-103376666D01*
X122147619Y-102662380D02*
X122100000Y-102614761D01*
X122052380Y-102519523D01*
X122052380Y-102281428D01*
X122100000Y-102186190D01*
X122147619Y-102138571D01*
X122242857Y-102090952D01*
X122338095Y-102090952D01*
X122480952Y-102138571D01*
X123052380Y-102710000D01*
X123052380Y-102090952D01*
%TO.C,R105*%
X106252380Y-97619047D02*
X105776190Y-97952380D01*
X106252380Y-98190476D02*
X105252380Y-98190476D01*
X105252380Y-97809523D01*
X105300000Y-97714285D01*
X105347619Y-97666666D01*
X105442857Y-97619047D01*
X105585714Y-97619047D01*
X105680952Y-97666666D01*
X105728571Y-97714285D01*
X105776190Y-97809523D01*
X105776190Y-98190476D01*
X106252380Y-96666666D02*
X106252380Y-97238095D01*
X106252380Y-96952380D02*
X105252380Y-96952380D01*
X105395238Y-97047619D01*
X105490476Y-97142857D01*
X105538095Y-97238095D01*
X105252380Y-96047619D02*
X105252380Y-95952380D01*
X105300000Y-95857142D01*
X105347619Y-95809523D01*
X105442857Y-95761904D01*
X105633333Y-95714285D01*
X105871428Y-95714285D01*
X106061904Y-95761904D01*
X106157142Y-95809523D01*
X106204761Y-95857142D01*
X106252380Y-95952380D01*
X106252380Y-96047619D01*
X106204761Y-96142857D01*
X106157142Y-96190476D01*
X106061904Y-96238095D01*
X105871428Y-96285714D01*
X105633333Y-96285714D01*
X105442857Y-96238095D01*
X105347619Y-96190476D01*
X105300000Y-96142857D01*
X105252380Y-96047619D01*
X105252380Y-94809523D02*
X105252380Y-95285714D01*
X105728571Y-95333333D01*
X105680952Y-95285714D01*
X105633333Y-95190476D01*
X105633333Y-94952380D01*
X105680952Y-94857142D01*
X105728571Y-94809523D01*
X105823809Y-94761904D01*
X106061904Y-94761904D01*
X106157142Y-94809523D01*
X106204761Y-94857142D01*
X106252380Y-94952380D01*
X106252380Y-95190476D01*
X106204761Y-95285714D01*
X106157142Y-95333333D01*
%TO.C,C102*%
D14*
X110520238Y-117089285D02*
X110508333Y-117101190D01*
X110472619Y-117113095D01*
X110448809Y-117113095D01*
X110413095Y-117101190D01*
X110389285Y-117077380D01*
X110377380Y-117053571D01*
X110365476Y-117005952D01*
X110365476Y-116970238D01*
X110377380Y-116922619D01*
X110389285Y-116898809D01*
X110413095Y-116875000D01*
X110448809Y-116863095D01*
X110472619Y-116863095D01*
X110508333Y-116875000D01*
X110520238Y-116886904D01*
X110758333Y-117113095D02*
X110615476Y-117113095D01*
X110686904Y-117113095D02*
X110686904Y-116863095D01*
X110663095Y-116898809D01*
X110639285Y-116922619D01*
X110615476Y-116934523D01*
X110913095Y-116863095D02*
X110936904Y-116863095D01*
X110960714Y-116875000D01*
X110972619Y-116886904D01*
X110984523Y-116910714D01*
X110996428Y-116958333D01*
X110996428Y-117017857D01*
X110984523Y-117065476D01*
X110972619Y-117089285D01*
X110960714Y-117101190D01*
X110936904Y-117113095D01*
X110913095Y-117113095D01*
X110889285Y-117101190D01*
X110877380Y-117089285D01*
X110865476Y-117065476D01*
X110853571Y-117017857D01*
X110853571Y-116958333D01*
X110865476Y-116910714D01*
X110877380Y-116886904D01*
X110889285Y-116875000D01*
X110913095Y-116863095D01*
X111091666Y-116886904D02*
X111103571Y-116875000D01*
X111127380Y-116863095D01*
X111186904Y-116863095D01*
X111210714Y-116875000D01*
X111222619Y-116886904D01*
X111234523Y-116910714D01*
X111234523Y-116934523D01*
X111222619Y-116970238D01*
X111079761Y-117113095D01*
X111234523Y-117113095D01*
%TO.C,C108*%
D12*
X96542857Y-110847619D02*
X96561904Y-110866666D01*
X96580952Y-110923809D01*
X96580952Y-110961904D01*
X96561904Y-111019047D01*
X96523809Y-111057142D01*
X96485714Y-111076190D01*
X96409523Y-111095238D01*
X96352380Y-111095238D01*
X96276190Y-111076190D01*
X96238095Y-111057142D01*
X96200000Y-111019047D01*
X96180952Y-110961904D01*
X96180952Y-110923809D01*
X96200000Y-110866666D01*
X96219047Y-110847619D01*
X96580952Y-110466666D02*
X96580952Y-110695238D01*
X96580952Y-110580952D02*
X96180952Y-110580952D01*
X96238095Y-110619047D01*
X96276190Y-110657142D01*
X96295238Y-110695238D01*
X96180952Y-110219047D02*
X96180952Y-110180952D01*
X96200000Y-110142857D01*
X96219047Y-110123809D01*
X96257142Y-110104761D01*
X96333333Y-110085714D01*
X96428571Y-110085714D01*
X96504761Y-110104761D01*
X96542857Y-110123809D01*
X96561904Y-110142857D01*
X96580952Y-110180952D01*
X96580952Y-110219047D01*
X96561904Y-110257142D01*
X96542857Y-110276190D01*
X96504761Y-110295238D01*
X96428571Y-110314285D01*
X96333333Y-110314285D01*
X96257142Y-110295238D01*
X96219047Y-110276190D01*
X96200000Y-110257142D01*
X96180952Y-110219047D01*
X96352380Y-109857142D02*
X96333333Y-109895238D01*
X96314285Y-109914285D01*
X96276190Y-109933333D01*
X96257142Y-109933333D01*
X96219047Y-109914285D01*
X96200000Y-109895238D01*
X96180952Y-109857142D01*
X96180952Y-109780952D01*
X96200000Y-109742857D01*
X96219047Y-109723809D01*
X96257142Y-109704761D01*
X96276190Y-109704761D01*
X96314285Y-109723809D01*
X96333333Y-109742857D01*
X96352380Y-109780952D01*
X96352380Y-109857142D01*
X96371428Y-109895238D01*
X96390476Y-109914285D01*
X96428571Y-109933333D01*
X96504761Y-109933333D01*
X96542857Y-109914285D01*
X96561904Y-109895238D01*
X96580952Y-109857142D01*
X96580952Y-109780952D01*
X96561904Y-109742857D01*
X96542857Y-109723809D01*
X96504761Y-109704761D01*
X96428571Y-109704761D01*
X96390476Y-109723809D01*
X96371428Y-109742857D01*
X96352380Y-109780952D01*
%TO.C,C107*%
X108742857Y-106047619D02*
X108761904Y-106066666D01*
X108780952Y-106123809D01*
X108780952Y-106161904D01*
X108761904Y-106219047D01*
X108723809Y-106257142D01*
X108685714Y-106276190D01*
X108609523Y-106295238D01*
X108552380Y-106295238D01*
X108476190Y-106276190D01*
X108438095Y-106257142D01*
X108400000Y-106219047D01*
X108380952Y-106161904D01*
X108380952Y-106123809D01*
X108400000Y-106066666D01*
X108419047Y-106047619D01*
X108780952Y-105666666D02*
X108780952Y-105895238D01*
X108780952Y-105780952D02*
X108380952Y-105780952D01*
X108438095Y-105819047D01*
X108476190Y-105857142D01*
X108495238Y-105895238D01*
X108380952Y-105419047D02*
X108380952Y-105380952D01*
X108400000Y-105342857D01*
X108419047Y-105323809D01*
X108457142Y-105304761D01*
X108533333Y-105285714D01*
X108628571Y-105285714D01*
X108704761Y-105304761D01*
X108742857Y-105323809D01*
X108761904Y-105342857D01*
X108780952Y-105380952D01*
X108780952Y-105419047D01*
X108761904Y-105457142D01*
X108742857Y-105476190D01*
X108704761Y-105495238D01*
X108628571Y-105514285D01*
X108533333Y-105514285D01*
X108457142Y-105495238D01*
X108419047Y-105476190D01*
X108400000Y-105457142D01*
X108380952Y-105419047D01*
X108380952Y-105152380D02*
X108380952Y-104885714D01*
X108780952Y-105057142D01*
%TO.C,C106*%
X117277380Y-115442857D02*
X117258333Y-115461904D01*
X117201190Y-115480952D01*
X117163095Y-115480952D01*
X117105952Y-115461904D01*
X117067857Y-115423809D01*
X117048809Y-115385714D01*
X117029761Y-115309523D01*
X117029761Y-115252380D01*
X117048809Y-115176190D01*
X117067857Y-115138095D01*
X117105952Y-115100000D01*
X117163095Y-115080952D01*
X117201190Y-115080952D01*
X117258333Y-115100000D01*
X117277380Y-115119047D01*
X117658333Y-115480952D02*
X117429761Y-115480952D01*
X117544047Y-115480952D02*
X117544047Y-115080952D01*
X117505952Y-115138095D01*
X117467857Y-115176190D01*
X117429761Y-115195238D01*
X117905952Y-115080952D02*
X117944047Y-115080952D01*
X117982142Y-115100000D01*
X118001190Y-115119047D01*
X118020238Y-115157142D01*
X118039285Y-115233333D01*
X118039285Y-115328571D01*
X118020238Y-115404761D01*
X118001190Y-115442857D01*
X117982142Y-115461904D01*
X117944047Y-115480952D01*
X117905952Y-115480952D01*
X117867857Y-115461904D01*
X117848809Y-115442857D01*
X117829761Y-115404761D01*
X117810714Y-115328571D01*
X117810714Y-115233333D01*
X117829761Y-115157142D01*
X117848809Y-115119047D01*
X117867857Y-115100000D01*
X117905952Y-115080952D01*
X118382142Y-115080952D02*
X118305952Y-115080952D01*
X118267857Y-115100000D01*
X118248809Y-115119047D01*
X118210714Y-115176190D01*
X118191666Y-115252380D01*
X118191666Y-115404761D01*
X118210714Y-115442857D01*
X118229761Y-115461904D01*
X118267857Y-115480952D01*
X118344047Y-115480952D01*
X118382142Y-115461904D01*
X118401190Y-115442857D01*
X118420238Y-115404761D01*
X118420238Y-115309523D01*
X118401190Y-115271428D01*
X118382142Y-115252380D01*
X118344047Y-115233333D01*
X118267857Y-115233333D01*
X118229761Y-115252380D01*
X118210714Y-115271428D01*
X118191666Y-115309523D01*
%TO.C,C105*%
X105227380Y-108042857D02*
X105208333Y-108061904D01*
X105151190Y-108080952D01*
X105113095Y-108080952D01*
X105055952Y-108061904D01*
X105017857Y-108023809D01*
X104998809Y-107985714D01*
X104979761Y-107909523D01*
X104979761Y-107852380D01*
X104998809Y-107776190D01*
X105017857Y-107738095D01*
X105055952Y-107700000D01*
X105113095Y-107680952D01*
X105151190Y-107680952D01*
X105208333Y-107700000D01*
X105227380Y-107719047D01*
X105608333Y-108080952D02*
X105379761Y-108080952D01*
X105494047Y-108080952D02*
X105494047Y-107680952D01*
X105455952Y-107738095D01*
X105417857Y-107776190D01*
X105379761Y-107795238D01*
X105855952Y-107680952D02*
X105894047Y-107680952D01*
X105932142Y-107700000D01*
X105951190Y-107719047D01*
X105970238Y-107757142D01*
X105989285Y-107833333D01*
X105989285Y-107928571D01*
X105970238Y-108004761D01*
X105951190Y-108042857D01*
X105932142Y-108061904D01*
X105894047Y-108080952D01*
X105855952Y-108080952D01*
X105817857Y-108061904D01*
X105798809Y-108042857D01*
X105779761Y-108004761D01*
X105760714Y-107928571D01*
X105760714Y-107833333D01*
X105779761Y-107757142D01*
X105798809Y-107719047D01*
X105817857Y-107700000D01*
X105855952Y-107680952D01*
X106351190Y-107680952D02*
X106160714Y-107680952D01*
X106141666Y-107871428D01*
X106160714Y-107852380D01*
X106198809Y-107833333D01*
X106294047Y-107833333D01*
X106332142Y-107852380D01*
X106351190Y-107871428D01*
X106370238Y-107909523D01*
X106370238Y-108004761D01*
X106351190Y-108042857D01*
X106332142Y-108061904D01*
X106294047Y-108080952D01*
X106198809Y-108080952D01*
X106160714Y-108061904D01*
X106141666Y-108042857D01*
%TO.C,C104*%
X115567857Y-116647619D02*
X115586904Y-116666666D01*
X115605952Y-116723809D01*
X115605952Y-116761904D01*
X115586904Y-116819047D01*
X115548809Y-116857142D01*
X115510714Y-116876190D01*
X115434523Y-116895238D01*
X115377380Y-116895238D01*
X115301190Y-116876190D01*
X115263095Y-116857142D01*
X115225000Y-116819047D01*
X115205952Y-116761904D01*
X115205952Y-116723809D01*
X115225000Y-116666666D01*
X115244047Y-116647619D01*
X115605952Y-116266666D02*
X115605952Y-116495238D01*
X115605952Y-116380952D02*
X115205952Y-116380952D01*
X115263095Y-116419047D01*
X115301190Y-116457142D01*
X115320238Y-116495238D01*
X115205952Y-116019047D02*
X115205952Y-115980952D01*
X115225000Y-115942857D01*
X115244047Y-115923809D01*
X115282142Y-115904761D01*
X115358333Y-115885714D01*
X115453571Y-115885714D01*
X115529761Y-115904761D01*
X115567857Y-115923809D01*
X115586904Y-115942857D01*
X115605952Y-115980952D01*
X115605952Y-116019047D01*
X115586904Y-116057142D01*
X115567857Y-116076190D01*
X115529761Y-116095238D01*
X115453571Y-116114285D01*
X115358333Y-116114285D01*
X115282142Y-116095238D01*
X115244047Y-116076190D01*
X115225000Y-116057142D01*
X115205952Y-116019047D01*
X115339285Y-115542857D02*
X115605952Y-115542857D01*
X115186904Y-115638095D02*
X115472619Y-115733333D01*
X115472619Y-115485714D01*
%TO.C,C103*%
X113142857Y-119447619D02*
X113161904Y-119466666D01*
X113180952Y-119523809D01*
X113180952Y-119561904D01*
X113161904Y-119619047D01*
X113123809Y-119657142D01*
X113085714Y-119676190D01*
X113009523Y-119695238D01*
X112952380Y-119695238D01*
X112876190Y-119676190D01*
X112838095Y-119657142D01*
X112800000Y-119619047D01*
X112780952Y-119561904D01*
X112780952Y-119523809D01*
X112800000Y-119466666D01*
X112819047Y-119447619D01*
X113180952Y-119066666D02*
X113180952Y-119295238D01*
X113180952Y-119180952D02*
X112780952Y-119180952D01*
X112838095Y-119219047D01*
X112876190Y-119257142D01*
X112895238Y-119295238D01*
X112780952Y-118819047D02*
X112780952Y-118780952D01*
X112800000Y-118742857D01*
X112819047Y-118723809D01*
X112857142Y-118704761D01*
X112933333Y-118685714D01*
X113028571Y-118685714D01*
X113104761Y-118704761D01*
X113142857Y-118723809D01*
X113161904Y-118742857D01*
X113180952Y-118780952D01*
X113180952Y-118819047D01*
X113161904Y-118857142D01*
X113142857Y-118876190D01*
X113104761Y-118895238D01*
X113028571Y-118914285D01*
X112933333Y-118914285D01*
X112857142Y-118895238D01*
X112819047Y-118876190D01*
X112800000Y-118857142D01*
X112780952Y-118819047D01*
X112780952Y-118552380D02*
X112780952Y-118304761D01*
X112933333Y-118438095D01*
X112933333Y-118380952D01*
X112952380Y-118342857D01*
X112971428Y-118323809D01*
X113009523Y-118304761D01*
X113104761Y-118304761D01*
X113142857Y-118323809D01*
X113161904Y-118342857D01*
X113180952Y-118380952D01*
X113180952Y-118495238D01*
X113161904Y-118533333D01*
X113142857Y-118552380D01*
%TO.C,R116*%
X120377380Y-117180952D02*
X120244047Y-116990476D01*
X120148809Y-117180952D02*
X120148809Y-116780952D01*
X120301190Y-116780952D01*
X120339285Y-116800000D01*
X120358333Y-116819047D01*
X120377380Y-116857142D01*
X120377380Y-116914285D01*
X120358333Y-116952380D01*
X120339285Y-116971428D01*
X120301190Y-116990476D01*
X120148809Y-116990476D01*
X120758333Y-117180952D02*
X120529761Y-117180952D01*
X120644047Y-117180952D02*
X120644047Y-116780952D01*
X120605952Y-116838095D01*
X120567857Y-116876190D01*
X120529761Y-116895238D01*
X121139285Y-117180952D02*
X120910714Y-117180952D01*
X121025000Y-117180952D02*
X121025000Y-116780952D01*
X120986904Y-116838095D01*
X120948809Y-116876190D01*
X120910714Y-116895238D01*
X121482142Y-116780952D02*
X121405952Y-116780952D01*
X121367857Y-116800000D01*
X121348809Y-116819047D01*
X121310714Y-116876190D01*
X121291666Y-116952380D01*
X121291666Y-117104761D01*
X121310714Y-117142857D01*
X121329761Y-117161904D01*
X121367857Y-117180952D01*
X121444047Y-117180952D01*
X121482142Y-117161904D01*
X121501190Y-117142857D01*
X121520238Y-117104761D01*
X121520238Y-117009523D01*
X121501190Y-116971428D01*
X121482142Y-116952380D01*
X121444047Y-116933333D01*
X121367857Y-116933333D01*
X121329761Y-116952380D01*
X121310714Y-116971428D01*
X121291666Y-117009523D01*
%TO.C,R115*%
X120377380Y-118880952D02*
X120244047Y-118690476D01*
X120148809Y-118880952D02*
X120148809Y-118480952D01*
X120301190Y-118480952D01*
X120339285Y-118500000D01*
X120358333Y-118519047D01*
X120377380Y-118557142D01*
X120377380Y-118614285D01*
X120358333Y-118652380D01*
X120339285Y-118671428D01*
X120301190Y-118690476D01*
X120148809Y-118690476D01*
X120758333Y-118880952D02*
X120529761Y-118880952D01*
X120644047Y-118880952D02*
X120644047Y-118480952D01*
X120605952Y-118538095D01*
X120567857Y-118576190D01*
X120529761Y-118595238D01*
X121139285Y-118880952D02*
X120910714Y-118880952D01*
X121025000Y-118880952D02*
X121025000Y-118480952D01*
X120986904Y-118538095D01*
X120948809Y-118576190D01*
X120910714Y-118595238D01*
X121501190Y-118480952D02*
X121310714Y-118480952D01*
X121291666Y-118671428D01*
X121310714Y-118652380D01*
X121348809Y-118633333D01*
X121444047Y-118633333D01*
X121482142Y-118652380D01*
X121501190Y-118671428D01*
X121520238Y-118709523D01*
X121520238Y-118804761D01*
X121501190Y-118842857D01*
X121482142Y-118861904D01*
X121444047Y-118880952D01*
X121348809Y-118880952D01*
X121310714Y-118861904D01*
X121291666Y-118842857D01*
%TO.C,R114*%
X109152380Y-94180952D02*
X109019047Y-93990476D01*
X108923809Y-94180952D02*
X108923809Y-93780952D01*
X109076190Y-93780952D01*
X109114285Y-93800000D01*
X109133333Y-93819047D01*
X109152380Y-93857142D01*
X109152380Y-93914285D01*
X109133333Y-93952380D01*
X109114285Y-93971428D01*
X109076190Y-93990476D01*
X108923809Y-93990476D01*
X109533333Y-94180952D02*
X109304761Y-94180952D01*
X109419047Y-94180952D02*
X109419047Y-93780952D01*
X109380952Y-93838095D01*
X109342857Y-93876190D01*
X109304761Y-93895238D01*
X109914285Y-94180952D02*
X109685714Y-94180952D01*
X109800000Y-94180952D02*
X109800000Y-93780952D01*
X109761904Y-93838095D01*
X109723809Y-93876190D01*
X109685714Y-93895238D01*
X110257142Y-93914285D02*
X110257142Y-94180952D01*
X110161904Y-93761904D02*
X110066666Y-94047619D01*
X110314285Y-94047619D01*
%TO.C,R113*%
X109152380Y-95780952D02*
X109019047Y-95590476D01*
X108923809Y-95780952D02*
X108923809Y-95380952D01*
X109076190Y-95380952D01*
X109114285Y-95400000D01*
X109133333Y-95419047D01*
X109152380Y-95457142D01*
X109152380Y-95514285D01*
X109133333Y-95552380D01*
X109114285Y-95571428D01*
X109076190Y-95590476D01*
X108923809Y-95590476D01*
X109533333Y-95780952D02*
X109304761Y-95780952D01*
X109419047Y-95780952D02*
X109419047Y-95380952D01*
X109380952Y-95438095D01*
X109342857Y-95476190D01*
X109304761Y-95495238D01*
X109914285Y-95780952D02*
X109685714Y-95780952D01*
X109800000Y-95780952D02*
X109800000Y-95380952D01*
X109761904Y-95438095D01*
X109723809Y-95476190D01*
X109685714Y-95495238D01*
X110047619Y-95380952D02*
X110295238Y-95380952D01*
X110161904Y-95533333D01*
X110219047Y-95533333D01*
X110257142Y-95552380D01*
X110276190Y-95571428D01*
X110295238Y-95609523D01*
X110295238Y-95704761D01*
X110276190Y-95742857D01*
X110257142Y-95761904D01*
X110219047Y-95780952D01*
X110104761Y-95780952D01*
X110066666Y-95761904D01*
X110047619Y-95742857D01*
%TO.C,R112*%
X109152380Y-97580952D02*
X109019047Y-97390476D01*
X108923809Y-97580952D02*
X108923809Y-97180952D01*
X109076190Y-97180952D01*
X109114285Y-97200000D01*
X109133333Y-97219047D01*
X109152380Y-97257142D01*
X109152380Y-97314285D01*
X109133333Y-97352380D01*
X109114285Y-97371428D01*
X109076190Y-97390476D01*
X108923809Y-97390476D01*
X109533333Y-97580952D02*
X109304761Y-97580952D01*
X109419047Y-97580952D02*
X109419047Y-97180952D01*
X109380952Y-97238095D01*
X109342857Y-97276190D01*
X109304761Y-97295238D01*
X109914285Y-97580952D02*
X109685714Y-97580952D01*
X109800000Y-97580952D02*
X109800000Y-97180952D01*
X109761904Y-97238095D01*
X109723809Y-97276190D01*
X109685714Y-97295238D01*
X110066666Y-97219047D02*
X110085714Y-97200000D01*
X110123809Y-97180952D01*
X110219047Y-97180952D01*
X110257142Y-97200000D01*
X110276190Y-97219047D01*
X110295238Y-97257142D01*
X110295238Y-97295238D01*
X110276190Y-97352380D01*
X110047619Y-97580952D01*
X110295238Y-97580952D01*
%TO.C,R111*%
X111727380Y-121480952D02*
X111594047Y-121290476D01*
X111498809Y-121480952D02*
X111498809Y-121080952D01*
X111651190Y-121080952D01*
X111689285Y-121100000D01*
X111708333Y-121119047D01*
X111727380Y-121157142D01*
X111727380Y-121214285D01*
X111708333Y-121252380D01*
X111689285Y-121271428D01*
X111651190Y-121290476D01*
X111498809Y-121290476D01*
X112108333Y-121480952D02*
X111879761Y-121480952D01*
X111994047Y-121480952D02*
X111994047Y-121080952D01*
X111955952Y-121138095D01*
X111917857Y-121176190D01*
X111879761Y-121195238D01*
X112489285Y-121480952D02*
X112260714Y-121480952D01*
X112375000Y-121480952D02*
X112375000Y-121080952D01*
X112336904Y-121138095D01*
X112298809Y-121176190D01*
X112260714Y-121195238D01*
X112870238Y-121480952D02*
X112641666Y-121480952D01*
X112755952Y-121480952D02*
X112755952Y-121080952D01*
X112717857Y-121138095D01*
X112679761Y-121176190D01*
X112641666Y-121195238D01*
%TO.C,Q102*%
D13*
X101647619Y-106147619D02*
X101600000Y-106242857D01*
X101504761Y-106338095D01*
X101361904Y-106480952D01*
X101314285Y-106576190D01*
X101314285Y-106671428D01*
X101552380Y-106623809D02*
X101504761Y-106719047D01*
X101409523Y-106814285D01*
X101219047Y-106861904D01*
X100885714Y-106861904D01*
X100695238Y-106814285D01*
X100600000Y-106719047D01*
X100552380Y-106623809D01*
X100552380Y-106433333D01*
X100600000Y-106338095D01*
X100695238Y-106242857D01*
X100885714Y-106195238D01*
X101219047Y-106195238D01*
X101409523Y-106242857D01*
X101504761Y-106338095D01*
X101552380Y-106433333D01*
X101552380Y-106623809D01*
X101552380Y-105242857D02*
X101552380Y-105814285D01*
X101552380Y-105528571D02*
X100552380Y-105528571D01*
X100695238Y-105623809D01*
X100790476Y-105719047D01*
X100838095Y-105814285D01*
X100552380Y-104623809D02*
X100552380Y-104528571D01*
X100600000Y-104433333D01*
X100647619Y-104385714D01*
X100742857Y-104338095D01*
X100933333Y-104290476D01*
X101171428Y-104290476D01*
X101361904Y-104338095D01*
X101457142Y-104385714D01*
X101504761Y-104433333D01*
X101552380Y-104528571D01*
X101552380Y-104623809D01*
X101504761Y-104719047D01*
X101457142Y-104766666D01*
X101361904Y-104814285D01*
X101171428Y-104861904D01*
X100933333Y-104861904D01*
X100742857Y-104814285D01*
X100647619Y-104766666D01*
X100600000Y-104719047D01*
X100552380Y-104623809D01*
X100647619Y-103909523D02*
X100600000Y-103861904D01*
X100552380Y-103766666D01*
X100552380Y-103528571D01*
X100600000Y-103433333D01*
X100647619Y-103385714D01*
X100742857Y-103338095D01*
X100838095Y-103338095D01*
X100980952Y-103385714D01*
X101552380Y-103957142D01*
X101552380Y-103338095D01*
%TO.C,R108*%
D12*
X115452380Y-120080952D02*
X115319047Y-119890476D01*
X115223809Y-120080952D02*
X115223809Y-119680952D01*
X115376190Y-119680952D01*
X115414285Y-119700000D01*
X115433333Y-119719047D01*
X115452380Y-119757142D01*
X115452380Y-119814285D01*
X115433333Y-119852380D01*
X115414285Y-119871428D01*
X115376190Y-119890476D01*
X115223809Y-119890476D01*
X115833333Y-120080952D02*
X115604761Y-120080952D01*
X115719047Y-120080952D02*
X115719047Y-119680952D01*
X115680952Y-119738095D01*
X115642857Y-119776190D01*
X115604761Y-119795238D01*
X116080952Y-119680952D02*
X116119047Y-119680952D01*
X116157142Y-119700000D01*
X116176190Y-119719047D01*
X116195238Y-119757142D01*
X116214285Y-119833333D01*
X116214285Y-119928571D01*
X116195238Y-120004761D01*
X116176190Y-120042857D01*
X116157142Y-120061904D01*
X116119047Y-120080952D01*
X116080952Y-120080952D01*
X116042857Y-120061904D01*
X116023809Y-120042857D01*
X116004761Y-120004761D01*
X115985714Y-119928571D01*
X115985714Y-119833333D01*
X116004761Y-119757142D01*
X116023809Y-119719047D01*
X116042857Y-119700000D01*
X116080952Y-119680952D01*
X116442857Y-119852380D02*
X116404761Y-119833333D01*
X116385714Y-119814285D01*
X116366666Y-119776190D01*
X116366666Y-119757142D01*
X116385714Y-119719047D01*
X116404761Y-119700000D01*
X116442857Y-119680952D01*
X116519047Y-119680952D01*
X116557142Y-119700000D01*
X116576190Y-119719047D01*
X116595238Y-119757142D01*
X116595238Y-119776190D01*
X116576190Y-119814285D01*
X116557142Y-119833333D01*
X116519047Y-119852380D01*
X116442857Y-119852380D01*
X116404761Y-119871428D01*
X116385714Y-119890476D01*
X116366666Y-119928571D01*
X116366666Y-120004761D01*
X116385714Y-120042857D01*
X116404761Y-120061904D01*
X116442857Y-120080952D01*
X116519047Y-120080952D01*
X116557142Y-120061904D01*
X116576190Y-120042857D01*
X116595238Y-120004761D01*
X116595238Y-119928571D01*
X116576190Y-119890476D01*
X116557142Y-119871428D01*
X116519047Y-119852380D01*
%TO.C,R107*%
X120377380Y-115480952D02*
X120244047Y-115290476D01*
X120148809Y-115480952D02*
X120148809Y-115080952D01*
X120301190Y-115080952D01*
X120339285Y-115100000D01*
X120358333Y-115119047D01*
X120377380Y-115157142D01*
X120377380Y-115214285D01*
X120358333Y-115252380D01*
X120339285Y-115271428D01*
X120301190Y-115290476D01*
X120148809Y-115290476D01*
X120758333Y-115480952D02*
X120529761Y-115480952D01*
X120644047Y-115480952D02*
X120644047Y-115080952D01*
X120605952Y-115138095D01*
X120567857Y-115176190D01*
X120529761Y-115195238D01*
X121005952Y-115080952D02*
X121044047Y-115080952D01*
X121082142Y-115100000D01*
X121101190Y-115119047D01*
X121120238Y-115157142D01*
X121139285Y-115233333D01*
X121139285Y-115328571D01*
X121120238Y-115404761D01*
X121101190Y-115442857D01*
X121082142Y-115461904D01*
X121044047Y-115480952D01*
X121005952Y-115480952D01*
X120967857Y-115461904D01*
X120948809Y-115442857D01*
X120929761Y-115404761D01*
X120910714Y-115328571D01*
X120910714Y-115233333D01*
X120929761Y-115157142D01*
X120948809Y-115119047D01*
X120967857Y-115100000D01*
X121005952Y-115080952D01*
X121272619Y-115080952D02*
X121539285Y-115080952D01*
X121367857Y-115480952D01*
%TO.C,R106*%
X93352380Y-111380952D02*
X93219047Y-111190476D01*
X93123809Y-111380952D02*
X93123809Y-110980952D01*
X93276190Y-110980952D01*
X93314285Y-111000000D01*
X93333333Y-111019047D01*
X93352380Y-111057142D01*
X93352380Y-111114285D01*
X93333333Y-111152380D01*
X93314285Y-111171428D01*
X93276190Y-111190476D01*
X93123809Y-111190476D01*
X93733333Y-111380952D02*
X93504761Y-111380952D01*
X93619047Y-111380952D02*
X93619047Y-110980952D01*
X93580952Y-111038095D01*
X93542857Y-111076190D01*
X93504761Y-111095238D01*
X93980952Y-110980952D02*
X94019047Y-110980952D01*
X94057142Y-111000000D01*
X94076190Y-111019047D01*
X94095238Y-111057142D01*
X94114285Y-111133333D01*
X94114285Y-111228571D01*
X94095238Y-111304761D01*
X94076190Y-111342857D01*
X94057142Y-111361904D01*
X94019047Y-111380952D01*
X93980952Y-111380952D01*
X93942857Y-111361904D01*
X93923809Y-111342857D01*
X93904761Y-111304761D01*
X93885714Y-111228571D01*
X93885714Y-111133333D01*
X93904761Y-111057142D01*
X93923809Y-111019047D01*
X93942857Y-111000000D01*
X93980952Y-110980952D01*
X94457142Y-110980952D02*
X94380952Y-110980952D01*
X94342857Y-111000000D01*
X94323809Y-111019047D01*
X94285714Y-111076190D01*
X94266666Y-111152380D01*
X94266666Y-111304761D01*
X94285714Y-111342857D01*
X94304761Y-111361904D01*
X94342857Y-111380952D01*
X94419047Y-111380952D01*
X94457142Y-111361904D01*
X94476190Y-111342857D01*
X94495238Y-111304761D01*
X94495238Y-111209523D01*
X94476190Y-111171428D01*
X94457142Y-111152380D01*
X94419047Y-111133333D01*
X94342857Y-111133333D01*
X94304761Y-111152380D01*
X94285714Y-111171428D01*
X94266666Y-111209523D01*
%TO.C,R104*%
X117277380Y-117180952D02*
X117144047Y-116990476D01*
X117048809Y-117180952D02*
X117048809Y-116780952D01*
X117201190Y-116780952D01*
X117239285Y-116800000D01*
X117258333Y-116819047D01*
X117277380Y-116857142D01*
X117277380Y-116914285D01*
X117258333Y-116952380D01*
X117239285Y-116971428D01*
X117201190Y-116990476D01*
X117048809Y-116990476D01*
X117658333Y-117180952D02*
X117429761Y-117180952D01*
X117544047Y-117180952D02*
X117544047Y-116780952D01*
X117505952Y-116838095D01*
X117467857Y-116876190D01*
X117429761Y-116895238D01*
X117905952Y-116780952D02*
X117944047Y-116780952D01*
X117982142Y-116800000D01*
X118001190Y-116819047D01*
X118020238Y-116857142D01*
X118039285Y-116933333D01*
X118039285Y-117028571D01*
X118020238Y-117104761D01*
X118001190Y-117142857D01*
X117982142Y-117161904D01*
X117944047Y-117180952D01*
X117905952Y-117180952D01*
X117867857Y-117161904D01*
X117848809Y-117142857D01*
X117829761Y-117104761D01*
X117810714Y-117028571D01*
X117810714Y-116933333D01*
X117829761Y-116857142D01*
X117848809Y-116819047D01*
X117867857Y-116800000D01*
X117905952Y-116780952D01*
X118382142Y-116914285D02*
X118382142Y-117180952D01*
X118286904Y-116761904D02*
X118191666Y-117047619D01*
X118439285Y-117047619D01*
%TO.C,R103*%
X110027380Y-118780952D02*
X109894047Y-118590476D01*
X109798809Y-118780952D02*
X109798809Y-118380952D01*
X109951190Y-118380952D01*
X109989285Y-118400000D01*
X110008333Y-118419047D01*
X110027380Y-118457142D01*
X110027380Y-118514285D01*
X110008333Y-118552380D01*
X109989285Y-118571428D01*
X109951190Y-118590476D01*
X109798809Y-118590476D01*
X110408333Y-118780952D02*
X110179761Y-118780952D01*
X110294047Y-118780952D02*
X110294047Y-118380952D01*
X110255952Y-118438095D01*
X110217857Y-118476190D01*
X110179761Y-118495238D01*
X110655952Y-118380952D02*
X110694047Y-118380952D01*
X110732142Y-118400000D01*
X110751190Y-118419047D01*
X110770238Y-118457142D01*
X110789285Y-118533333D01*
X110789285Y-118628571D01*
X110770238Y-118704761D01*
X110751190Y-118742857D01*
X110732142Y-118761904D01*
X110694047Y-118780952D01*
X110655952Y-118780952D01*
X110617857Y-118761904D01*
X110598809Y-118742857D01*
X110579761Y-118704761D01*
X110560714Y-118628571D01*
X110560714Y-118533333D01*
X110579761Y-118457142D01*
X110598809Y-118419047D01*
X110617857Y-118400000D01*
X110655952Y-118380952D01*
X110922619Y-118380952D02*
X111170238Y-118380952D01*
X111036904Y-118533333D01*
X111094047Y-118533333D01*
X111132142Y-118552380D01*
X111151190Y-118571428D01*
X111170238Y-118609523D01*
X111170238Y-118704761D01*
X111151190Y-118742857D01*
X111132142Y-118761904D01*
X111094047Y-118780952D01*
X110979761Y-118780952D01*
X110941666Y-118761904D01*
X110922619Y-118742857D01*
%TO.C,R101*%
X108627380Y-121480952D02*
X108494047Y-121290476D01*
X108398809Y-121480952D02*
X108398809Y-121080952D01*
X108551190Y-121080952D01*
X108589285Y-121100000D01*
X108608333Y-121119047D01*
X108627380Y-121157142D01*
X108627380Y-121214285D01*
X108608333Y-121252380D01*
X108589285Y-121271428D01*
X108551190Y-121290476D01*
X108398809Y-121290476D01*
X109008333Y-121480952D02*
X108779761Y-121480952D01*
X108894047Y-121480952D02*
X108894047Y-121080952D01*
X108855952Y-121138095D01*
X108817857Y-121176190D01*
X108779761Y-121195238D01*
X109255952Y-121080952D02*
X109294047Y-121080952D01*
X109332142Y-121100000D01*
X109351190Y-121119047D01*
X109370238Y-121157142D01*
X109389285Y-121233333D01*
X109389285Y-121328571D01*
X109370238Y-121404761D01*
X109351190Y-121442857D01*
X109332142Y-121461904D01*
X109294047Y-121480952D01*
X109255952Y-121480952D01*
X109217857Y-121461904D01*
X109198809Y-121442857D01*
X109179761Y-121404761D01*
X109160714Y-121328571D01*
X109160714Y-121233333D01*
X109179761Y-121157142D01*
X109198809Y-121119047D01*
X109217857Y-121100000D01*
X109255952Y-121080952D01*
X109770238Y-121480952D02*
X109541666Y-121480952D01*
X109655952Y-121480952D02*
X109655952Y-121080952D01*
X109617857Y-121138095D01*
X109579761Y-121176190D01*
X109541666Y-121195238D01*
%TO.C,Q101*%
D13*
X101647619Y-113497619D02*
X101600000Y-113592857D01*
X101504761Y-113688095D01*
X101361904Y-113830952D01*
X101314285Y-113926190D01*
X101314285Y-114021428D01*
X101552380Y-113973809D02*
X101504761Y-114069047D01*
X101409523Y-114164285D01*
X101219047Y-114211904D01*
X100885714Y-114211904D01*
X100695238Y-114164285D01*
X100600000Y-114069047D01*
X100552380Y-113973809D01*
X100552380Y-113783333D01*
X100600000Y-113688095D01*
X100695238Y-113592857D01*
X100885714Y-113545238D01*
X101219047Y-113545238D01*
X101409523Y-113592857D01*
X101504761Y-113688095D01*
X101552380Y-113783333D01*
X101552380Y-113973809D01*
X101552380Y-112592857D02*
X101552380Y-113164285D01*
X101552380Y-112878571D02*
X100552380Y-112878571D01*
X100695238Y-112973809D01*
X100790476Y-113069047D01*
X100838095Y-113164285D01*
X100552380Y-111973809D02*
X100552380Y-111878571D01*
X100600000Y-111783333D01*
X100647619Y-111735714D01*
X100742857Y-111688095D01*
X100933333Y-111640476D01*
X101171428Y-111640476D01*
X101361904Y-111688095D01*
X101457142Y-111735714D01*
X101504761Y-111783333D01*
X101552380Y-111878571D01*
X101552380Y-111973809D01*
X101504761Y-112069047D01*
X101457142Y-112116666D01*
X101361904Y-112164285D01*
X101171428Y-112211904D01*
X100933333Y-112211904D01*
X100742857Y-112164285D01*
X100647619Y-112116666D01*
X100600000Y-112069047D01*
X100552380Y-111973809D01*
X101552380Y-110688095D02*
X101552380Y-111259523D01*
X101552380Y-110973809D02*
X100552380Y-110973809D01*
X100695238Y-111069047D01*
X100790476Y-111164285D01*
X100838095Y-111259523D01*
%TO.C,D101*%
D15*
X105154761Y-105626190D02*
X105154761Y-105126190D01*
X105273809Y-105126190D01*
X105345238Y-105150000D01*
X105392857Y-105197619D01*
X105416666Y-105245238D01*
X105440476Y-105340476D01*
X105440476Y-105411904D01*
X105416666Y-105507142D01*
X105392857Y-105554761D01*
X105345238Y-105602380D01*
X105273809Y-105626190D01*
X105154761Y-105626190D01*
X105916666Y-105626190D02*
X105630952Y-105626190D01*
X105773809Y-105626190D02*
X105773809Y-105126190D01*
X105726190Y-105197619D01*
X105678571Y-105245238D01*
X105630952Y-105269047D01*
X106226190Y-105126190D02*
X106273809Y-105126190D01*
X106321428Y-105150000D01*
X106345238Y-105173809D01*
X106369047Y-105221428D01*
X106392857Y-105316666D01*
X106392857Y-105435714D01*
X106369047Y-105530952D01*
X106345238Y-105578571D01*
X106321428Y-105602380D01*
X106273809Y-105626190D01*
X106226190Y-105626190D01*
X106178571Y-105602380D01*
X106154761Y-105578571D01*
X106130952Y-105530952D01*
X106107142Y-105435714D01*
X106107142Y-105316666D01*
X106130952Y-105221428D01*
X106154761Y-105173809D01*
X106178571Y-105150000D01*
X106226190Y-105126190D01*
X106869047Y-105626190D02*
X106583333Y-105626190D01*
X106726190Y-105626190D02*
X106726190Y-105126190D01*
X106678571Y-105197619D01*
X106630952Y-105245238D01*
X106583333Y-105269047D01*
%TO.C,C111*%
D11*
X94779761Y-113885714D02*
X94741666Y-113923809D01*
X94627380Y-113961904D01*
X94551190Y-113961904D01*
X94436904Y-113923809D01*
X94360714Y-113847619D01*
X94322619Y-113771428D01*
X94284523Y-113619047D01*
X94284523Y-113504761D01*
X94322619Y-113352380D01*
X94360714Y-113276190D01*
X94436904Y-113200000D01*
X94551190Y-113161904D01*
X94627380Y-113161904D01*
X94741666Y-113200000D01*
X94779761Y-113238095D01*
X95541666Y-113961904D02*
X95084523Y-113961904D01*
X95313095Y-113961904D02*
X95313095Y-113161904D01*
X95236904Y-113276190D01*
X95160714Y-113352380D01*
X95084523Y-113390476D01*
X96303571Y-113961904D02*
X95846428Y-113961904D01*
X96075000Y-113961904D02*
X96075000Y-113161904D01*
X95998809Y-113276190D01*
X95922619Y-113352380D01*
X95846428Y-113390476D01*
X97065476Y-113961904D02*
X96608333Y-113961904D01*
X96836904Y-113961904D02*
X96836904Y-113161904D01*
X96760714Y-113276190D01*
X96684523Y-113352380D01*
X96608333Y-113390476D01*
%TO.C,C109*%
X101985714Y-88695238D02*
X102023809Y-88733333D01*
X102061904Y-88847619D01*
X102061904Y-88923809D01*
X102023809Y-89038095D01*
X101947619Y-89114285D01*
X101871428Y-89152380D01*
X101719047Y-89190476D01*
X101604761Y-89190476D01*
X101452380Y-89152380D01*
X101376190Y-89114285D01*
X101300000Y-89038095D01*
X101261904Y-88923809D01*
X101261904Y-88847619D01*
X101300000Y-88733333D01*
X101338095Y-88695238D01*
X102061904Y-87933333D02*
X102061904Y-88390476D01*
X102061904Y-88161904D02*
X101261904Y-88161904D01*
X101376190Y-88238095D01*
X101452380Y-88314285D01*
X101490476Y-88390476D01*
X101261904Y-87438095D02*
X101261904Y-87361904D01*
X101300000Y-87285714D01*
X101338095Y-87247619D01*
X101414285Y-87209523D01*
X101566666Y-87171428D01*
X101757142Y-87171428D01*
X101909523Y-87209523D01*
X101985714Y-87247619D01*
X102023809Y-87285714D01*
X102061904Y-87361904D01*
X102061904Y-87438095D01*
X102023809Y-87514285D01*
X101985714Y-87552380D01*
X101909523Y-87590476D01*
X101757142Y-87628571D01*
X101566666Y-87628571D01*
X101414285Y-87590476D01*
X101338095Y-87552380D01*
X101300000Y-87514285D01*
X101261904Y-87438095D01*
X102061904Y-86790476D02*
X102061904Y-86638095D01*
X102023809Y-86561904D01*
X101985714Y-86523809D01*
X101871428Y-86447619D01*
X101719047Y-86409523D01*
X101414285Y-86409523D01*
X101338095Y-86447619D01*
X101300000Y-86485714D01*
X101261904Y-86561904D01*
X101261904Y-86714285D01*
X101300000Y-86790476D01*
X101338095Y-86828571D01*
X101414285Y-86866666D01*
X101604761Y-86866666D01*
X101680952Y-86828571D01*
X101719047Y-86790476D01*
X101757142Y-86714285D01*
X101757142Y-86561904D01*
X101719047Y-86485714D01*
X101680952Y-86447619D01*
X101604761Y-86409523D01*
%TO.C,C101*%
D12*
X107842857Y-118047619D02*
X107861904Y-118066666D01*
X107880952Y-118123809D01*
X107880952Y-118161904D01*
X107861904Y-118219047D01*
X107823809Y-118257142D01*
X107785714Y-118276190D01*
X107709523Y-118295238D01*
X107652380Y-118295238D01*
X107576190Y-118276190D01*
X107538095Y-118257142D01*
X107500000Y-118219047D01*
X107480952Y-118161904D01*
X107480952Y-118123809D01*
X107500000Y-118066666D01*
X107519047Y-118047619D01*
X107880952Y-117666666D02*
X107880952Y-117895238D01*
X107880952Y-117780952D02*
X107480952Y-117780952D01*
X107538095Y-117819047D01*
X107576190Y-117857142D01*
X107595238Y-117895238D01*
X107480952Y-117419047D02*
X107480952Y-117380952D01*
X107500000Y-117342857D01*
X107519047Y-117323809D01*
X107557142Y-117304761D01*
X107633333Y-117285714D01*
X107728571Y-117285714D01*
X107804761Y-117304761D01*
X107842857Y-117323809D01*
X107861904Y-117342857D01*
X107880952Y-117380952D01*
X107880952Y-117419047D01*
X107861904Y-117457142D01*
X107842857Y-117476190D01*
X107804761Y-117495238D01*
X107728571Y-117514285D01*
X107633333Y-117514285D01*
X107557142Y-117495238D01*
X107519047Y-117476190D01*
X107500000Y-117457142D01*
X107480952Y-117419047D01*
X107880952Y-116904761D02*
X107880952Y-117133333D01*
X107880952Y-117019047D02*
X107480952Y-117019047D01*
X107538095Y-117057142D01*
X107576190Y-117095238D01*
X107595238Y-117133333D01*
%TD*%
M02*
