%TF.GenerationSoftware,KiCad,Pcbnew,(5.1.7)-1*%
%TF.CreationDate,2021-06-09T19:52:20+03:00*%
%TF.ProjectId,SynchronousBuck,53796e63-6872-46f6-9e6f-75734275636b,rev?*%
%TF.SameCoordinates,Original*%
%TF.FileFunction,Copper,L2,Inr*%
%TF.FilePolarity,Positive*%
%FSLAX46Y46*%
G04 Gerber Fmt 4.6, Leading zero omitted, Abs format (unit mm)*
G04 Created by KiCad (PCBNEW (5.1.7)-1) date 2021-06-09 19:52:20*
%MOMM*%
%LPD*%
G01*
G04 APERTURE LIST*
%TA.AperFunction,ComponentPad*%
%ADD10C,1.800000*%
%TD*%
%TA.AperFunction,ComponentPad*%
%ADD11C,8.000000*%
%TD*%
%TA.AperFunction,ComponentPad*%
%ADD12O,1.700000X1.700000*%
%TD*%
%TA.AperFunction,ComponentPad*%
%ADD13R,1.700000X1.700000*%
%TD*%
%TA.AperFunction,ViaPad*%
%ADD14C,0.600000*%
%TD*%
%TA.AperFunction,ViaPad*%
%ADD15C,0.800000*%
%TD*%
%TA.AperFunction,ViaPad*%
%ADD16C,0.400000*%
%TD*%
%TA.AperFunction,Conductor*%
%ADD17C,0.254000*%
%TD*%
%TA.AperFunction,Conductor*%
%ADD18C,0.100000*%
%TD*%
%TA.AperFunction,Conductor*%
%ADD19C,0.200000*%
%TD*%
G04 APERTURE END LIST*
D10*
%TO.N,GND*%
%TO.C,J104*%
X82950000Y-116200000D03*
%TO.N,Net-(C119-Pad2)*%
X86450000Y-116200000D03*
%TD*%
D11*
%TO.N,GND*%
%TO.C,J103*%
X94000000Y-66000000D03*
%TO.N,/VOUT*%
X106000000Y-66000000D03*
%TD*%
%TO.N,VCC*%
%TO.C,J101*%
X90700000Y-122200000D03*
%TO.N,GND*%
X78700000Y-122200000D03*
%TD*%
D12*
%TO.N,Net-(D102-Pad1)*%
%TO.C,J102*%
X122600000Y-107520000D03*
%TO.N,GND*%
X122600000Y-104980000D03*
X122600000Y-102440000D03*
D13*
%TO.N,Net-(D103-Pad1)*%
X122600000Y-99900000D03*
%TD*%
D14*
%TO.N,GND*%
X107950000Y-111500000D03*
X107950000Y-113100000D03*
D15*
%TO.N,/VOUT*%
X104800000Y-80300000D03*
X104800000Y-81400000D03*
%TO.N,GND*%
X105900000Y-90700000D03*
X107100000Y-90700000D03*
X103600000Y-90700000D03*
X104700000Y-90700000D03*
X108300000Y-90700000D03*
X101300000Y-90700000D03*
X102500000Y-90700000D03*
X116008000Y-113200000D03*
X109700000Y-106100000D03*
X116008000Y-112200000D03*
X116008000Y-111200000D03*
X116008000Y-110200000D03*
X116808000Y-112700000D03*
X116808000Y-111700000D03*
X116808000Y-110700000D03*
D14*
X107500000Y-102000000D03*
X112200000Y-99000000D03*
D15*
X107100000Y-91700000D03*
X105900000Y-91700000D03*
X104700000Y-91700000D03*
X103600000Y-91700000D03*
X102500000Y-91700000D03*
X103600000Y-93000000D03*
X102500000Y-93000000D03*
X101300000Y-93000000D03*
X101300000Y-91700000D03*
X108300000Y-91700000D03*
D14*
X121300000Y-120200000D03*
X118100000Y-119400000D03*
X112000000Y-103600000D03*
X106525000Y-118375000D03*
X107700000Y-119700000D03*
D16*
X56044999Y-99164999D03*
X57164999Y-108684999D03*
X57724999Y-88524999D03*
X59964999Y-116524999D03*
X61084999Y-80124999D03*
X62204999Y-94684999D03*
X63324999Y-104204999D03*
X63324999Y-123804999D03*
X65564999Y-73404999D03*
X66124999Y-85724999D03*
X66124999Y-112044999D03*
X68364999Y-129404999D03*
X69484999Y-119324999D03*
X70604999Y-67804999D03*
X70604999Y-79004999D03*
X70604999Y-91884999D03*
X71724999Y-106444999D03*
X73964999Y-134444999D03*
X75084999Y-113724999D03*
X75644999Y-84604999D03*
X75644999Y-97484999D03*
X76204999Y-72844999D03*
X77324999Y-62764999D03*
X77324999Y-127164999D03*
X80124999Y-90764999D03*
X80124999Y-103644999D03*
X81244999Y-78444999D03*
X82364999Y-68364999D03*
X84604999Y-59404999D03*
X85164999Y-96364999D03*
X85724999Y-85164999D03*
X87404999Y-73964999D03*
X93004999Y-57164999D03*
X98044999Y-92444999D03*
X98604999Y-62204999D03*
X103644999Y-56604999D03*
X104764999Y-105884999D03*
X110364999Y-60524999D03*
X110364999Y-73964999D03*
X110364999Y-98604999D03*
X114284999Y-67244999D03*
X114284999Y-91324999D03*
X115404999Y-107004999D03*
X115964999Y-79004999D03*
X119324999Y-96924999D03*
X119884999Y-61644999D03*
X119884999Y-72284999D03*
X119884999Y-85724999D03*
X119884999Y-113164999D03*
X121004999Y-127724999D03*
X124364999Y-104140000D03*
X124364999Y-119324999D03*
X124924999Y-91324999D03*
X124924999Y-134444999D03*
X125484999Y-66684999D03*
X125484999Y-77324999D03*
X127724999Y-109804999D03*
X129404999Y-84044999D03*
X129404999Y-124924999D03*
X129964999Y-96924999D03*
X131644999Y-71164999D03*
X132204999Y-115964999D03*
X133324999Y-104204999D03*
X134444999Y-89644999D03*
X135004999Y-78444999D03*
X137244999Y-121564999D03*
X137804999Y-110364999D03*
X138924999Y-98604999D03*
X140044999Y-84044999D03*
X142844999Y-91884999D03*
X143404999Y-104764999D03*
D14*
X91300000Y-111400000D03*
X91800000Y-112400000D03*
X92000000Y-113600000D03*
X92200000Y-116400000D03*
X92200000Y-115100000D03*
X127700000Y-97100000D03*
X126000000Y-95600000D03*
X118500000Y-98800000D03*
X120100000Y-98400000D03*
D15*
%TO.N,VCC*%
X105500000Y-121000000D03*
X101000000Y-119000000D03*
X98300000Y-119600000D03*
X96000000Y-121000000D03*
X99500000Y-121000000D03*
X102500000Y-121000000D03*
X122500000Y-126000000D03*
X122500000Y-123000000D03*
X121000000Y-124500000D03*
X119500000Y-126000000D03*
X116500000Y-126000000D03*
X113500000Y-126000000D03*
X113500000Y-123000000D03*
X115000000Y-124500000D03*
X111500000Y-124500000D03*
X110000000Y-126000000D03*
X110000000Y-123000000D03*
X107000000Y-126000000D03*
X107000000Y-123000000D03*
X104000000Y-126000000D03*
X104000000Y-123000000D03*
X108500000Y-124500000D03*
X105500000Y-124500000D03*
X101000000Y-126000000D03*
X101000000Y-123000000D03*
X102500000Y-124500000D03*
X98000000Y-126000000D03*
X99500000Y-124500000D03*
X98000000Y-123000000D03*
X96000000Y-124500000D03*
X118000000Y-124500000D03*
D14*
X110135000Y-116100000D03*
D15*
%TO.N,Net-(Q102-Pad1)*%
X99100000Y-100900000D03*
X105100000Y-98900000D03*
X104100000Y-99900000D03*
X105100000Y-100900000D03*
X103100000Y-100900000D03*
X101100000Y-100900000D03*
X100100000Y-99900000D03*
X102100000Y-99900000D03*
X103100000Y-98900000D03*
X101100000Y-98900000D03*
X99100000Y-98900000D03*
X98100000Y-99900000D03*
D14*
%TO.N,Net-(R112-Pad2)*%
X114000000Y-98000000D03*
X112800000Y-98000000D03*
D15*
%TO.N,/SW*%
X90000000Y-99500000D03*
X90000000Y-100500000D03*
X90000000Y-101500000D03*
X90000000Y-102500000D03*
X90000000Y-103500000D03*
X90000000Y-104500000D03*
X90000000Y-105500000D03*
X90000000Y-106500000D03*
X90000000Y-107500000D03*
X98000000Y-108000000D03*
X98000000Y-107000000D03*
X98000000Y-106000000D03*
X98000000Y-105000000D03*
X98000000Y-104000000D03*
X91000000Y-102000000D03*
X92000000Y-102000000D03*
X93000000Y-102000000D03*
X94000000Y-102000000D03*
X95000000Y-102000000D03*
X96000000Y-102000000D03*
D14*
%TO.N,/HO*%
X97800000Y-109700000D03*
X106900000Y-110000000D03*
%TO.N,/LO*%
X98200000Y-102200000D03*
X111300000Y-105400000D03*
D15*
%TO.N,/VOUT*%
X103900000Y-87400000D03*
X104800000Y-83500000D03*
X104800000Y-84700000D03*
X104800000Y-85700000D03*
X104800000Y-86800000D03*
X104800000Y-82500000D03*
X103900000Y-83000000D03*
X103900000Y-81900000D03*
X103900000Y-80900000D03*
X103900000Y-84100000D03*
X103900000Y-85200000D03*
X103900000Y-86300000D03*
D14*
X110100000Y-107100000D03*
X115000000Y-114300000D03*
D15*
X94500000Y-91000000D03*
X120000000Y-106200000D03*
%TD*%
D17*
%TO.N,/SW*%
X97096257Y-98640769D02*
X97185955Y-98677923D01*
X97262976Y-98737024D01*
X97322077Y-98814045D01*
X97359231Y-98903743D01*
X97373000Y-99008328D01*
X97373000Y-99163289D01*
X97296063Y-99240226D01*
X97182795Y-99409744D01*
X97104774Y-99598102D01*
X97065000Y-99798061D01*
X97065000Y-100001939D01*
X97104774Y-100201898D01*
X97182795Y-100390256D01*
X97296063Y-100559774D01*
X97373000Y-100636711D01*
X97373000Y-101754737D01*
X97371414Y-101757111D01*
X97300932Y-101927271D01*
X97265000Y-102107911D01*
X97265000Y-102292089D01*
X97300932Y-102472729D01*
X97371414Y-102642889D01*
X97373000Y-102645263D01*
X97373000Y-103000000D01*
X97374086Y-103016577D01*
X97391123Y-103145987D01*
X97399704Y-103178011D01*
X97449654Y-103298601D01*
X97466232Y-103327313D01*
X97545692Y-103430866D01*
X97569134Y-103454308D01*
X97672687Y-103533768D01*
X97701399Y-103550346D01*
X97821989Y-103600296D01*
X97854013Y-103608877D01*
X97983423Y-103625914D01*
X98000000Y-103627000D01*
X103091672Y-103627000D01*
X103196257Y-103640769D01*
X103285955Y-103677923D01*
X103362976Y-103737024D01*
X103422077Y-103814045D01*
X103459231Y-103903743D01*
X103473000Y-104008328D01*
X103473000Y-109791672D01*
X103459231Y-109896257D01*
X103422077Y-109985955D01*
X103362976Y-110062976D01*
X103285955Y-110122077D01*
X103196257Y-110159231D01*
X103091672Y-110173000D01*
X98608467Y-110173000D01*
X98628586Y-110142889D01*
X98699068Y-109972729D01*
X98735000Y-109792089D01*
X98735000Y-109607911D01*
X98699068Y-109427271D01*
X98628586Y-109257111D01*
X98526262Y-109103972D01*
X98396028Y-108973738D01*
X98242889Y-108871414D01*
X98072729Y-108800932D01*
X97892089Y-108765000D01*
X97707911Y-108765000D01*
X97527271Y-108800932D01*
X97357111Y-108871414D01*
X97203972Y-108973738D01*
X97073738Y-109103972D01*
X96971414Y-109257111D01*
X96900932Y-109427271D01*
X96865000Y-109607911D01*
X96865000Y-109792089D01*
X96900932Y-109972729D01*
X96971414Y-110142889D01*
X96991533Y-110173000D01*
X85008328Y-110173000D01*
X84903743Y-110159231D01*
X84814045Y-110122077D01*
X84737024Y-110062976D01*
X84677923Y-109985955D01*
X84640769Y-109896257D01*
X84627000Y-109791672D01*
X84627000Y-99008328D01*
X84640769Y-98903743D01*
X84677923Y-98814045D01*
X84737024Y-98737024D01*
X84814045Y-98677923D01*
X84903743Y-98640769D01*
X85008328Y-98627000D01*
X96991672Y-98627000D01*
X97096257Y-98640769D01*
%TA.AperFunction,Conductor*%
D18*
G36*
X97096257Y-98640769D02*
G01*
X97185955Y-98677923D01*
X97262976Y-98737024D01*
X97322077Y-98814045D01*
X97359231Y-98903743D01*
X97373000Y-99008328D01*
X97373000Y-99163289D01*
X97296063Y-99240226D01*
X97182795Y-99409744D01*
X97104774Y-99598102D01*
X97065000Y-99798061D01*
X97065000Y-100001939D01*
X97104774Y-100201898D01*
X97182795Y-100390256D01*
X97296063Y-100559774D01*
X97373000Y-100636711D01*
X97373000Y-101754737D01*
X97371414Y-101757111D01*
X97300932Y-101927271D01*
X97265000Y-102107911D01*
X97265000Y-102292089D01*
X97300932Y-102472729D01*
X97371414Y-102642889D01*
X97373000Y-102645263D01*
X97373000Y-103000000D01*
X97374086Y-103016577D01*
X97391123Y-103145987D01*
X97399704Y-103178011D01*
X97449654Y-103298601D01*
X97466232Y-103327313D01*
X97545692Y-103430866D01*
X97569134Y-103454308D01*
X97672687Y-103533768D01*
X97701399Y-103550346D01*
X97821989Y-103600296D01*
X97854013Y-103608877D01*
X97983423Y-103625914D01*
X98000000Y-103627000D01*
X103091672Y-103627000D01*
X103196257Y-103640769D01*
X103285955Y-103677923D01*
X103362976Y-103737024D01*
X103422077Y-103814045D01*
X103459231Y-103903743D01*
X103473000Y-104008328D01*
X103473000Y-109791672D01*
X103459231Y-109896257D01*
X103422077Y-109985955D01*
X103362976Y-110062976D01*
X103285955Y-110122077D01*
X103196257Y-110159231D01*
X103091672Y-110173000D01*
X98608467Y-110173000D01*
X98628586Y-110142889D01*
X98699068Y-109972729D01*
X98735000Y-109792089D01*
X98735000Y-109607911D01*
X98699068Y-109427271D01*
X98628586Y-109257111D01*
X98526262Y-109103972D01*
X98396028Y-108973738D01*
X98242889Y-108871414D01*
X98072729Y-108800932D01*
X97892089Y-108765000D01*
X97707911Y-108765000D01*
X97527271Y-108800932D01*
X97357111Y-108871414D01*
X97203972Y-108973738D01*
X97073738Y-109103972D01*
X96971414Y-109257111D01*
X96900932Y-109427271D01*
X96865000Y-109607911D01*
X96865000Y-109792089D01*
X96900932Y-109972729D01*
X96971414Y-110142889D01*
X96991533Y-110173000D01*
X85008328Y-110173000D01*
X84903743Y-110159231D01*
X84814045Y-110122077D01*
X84737024Y-110062976D01*
X84677923Y-109985955D01*
X84640769Y-109896257D01*
X84627000Y-109791672D01*
X84627000Y-99008328D01*
X84640769Y-98903743D01*
X84677923Y-98814045D01*
X84737024Y-98737024D01*
X84814045Y-98677923D01*
X84903743Y-98640769D01*
X85008328Y-98627000D01*
X96991672Y-98627000D01*
X97096257Y-98640769D01*
G37*
%TD.AperFunction*%
%TD*%
D19*
%TO.N,GND*%
X102377800Y-55663980D02*
X105003010Y-55883037D01*
X107610642Y-56257404D01*
X110191451Y-56785755D01*
X112736389Y-57466237D01*
X115236498Y-58296454D01*
X117682974Y-59273485D01*
X120067167Y-60393872D01*
X122380753Y-61653703D01*
X124615537Y-63048520D01*
X126763666Y-64573417D01*
X128817576Y-66223027D01*
X130770054Y-67991559D01*
X132614191Y-69872750D01*
X134343523Y-71860011D01*
X135951950Y-73946327D01*
X137433826Y-76124380D01*
X138783908Y-78386461D01*
X139997462Y-80724635D01*
X141070209Y-83130665D01*
X141998379Y-85596085D01*
X142778701Y-88112220D01*
X143408420Y-90670176D01*
X143885334Y-93261004D01*
X144207754Y-95875545D01*
X144374547Y-98504606D01*
X144385126Y-101138928D01*
X144239455Y-103769243D01*
X143938045Y-106386301D01*
X143481958Y-108980865D01*
X142872800Y-111543814D01*
X142112717Y-114066117D01*
X141204377Y-116538920D01*
X140150992Y-118953481D01*
X138956257Y-121301330D01*
X137624378Y-123574198D01*
X136160057Y-125764062D01*
X134568440Y-127863229D01*
X132855120Y-129864321D01*
X131026142Y-131760276D01*
X129087948Y-133544416D01*
X127041802Y-135215004D01*
X126798079Y-135400000D01*
X122248528Y-135400000D01*
X120600000Y-133751473D01*
X120600000Y-128323268D01*
X125934270Y-128323268D01*
X125934270Y-128845272D01*
X126036108Y-129357246D01*
X126235871Y-129839516D01*
X126525881Y-130273546D01*
X126894994Y-130642659D01*
X127329024Y-130932669D01*
X127811294Y-131132432D01*
X128323268Y-131234270D01*
X128845272Y-131234270D01*
X129357246Y-131132432D01*
X129839516Y-130932669D01*
X130273546Y-130642659D01*
X130642659Y-130273546D01*
X130932669Y-129839516D01*
X131132432Y-129357246D01*
X131234270Y-128845272D01*
X131234270Y-128323268D01*
X131132432Y-127811294D01*
X130932669Y-127329024D01*
X130642659Y-126894994D01*
X130273546Y-126525881D01*
X129839516Y-126235871D01*
X129357246Y-126036108D01*
X128845272Y-125934270D01*
X128323268Y-125934270D01*
X127811294Y-126036108D01*
X127329024Y-126235871D01*
X126894994Y-126525881D01*
X126525881Y-126894994D01*
X126235871Y-127329024D01*
X126036108Y-127811294D01*
X125934270Y-128323268D01*
X120600000Y-128323268D01*
X120600000Y-127029474D01*
X120602903Y-127000000D01*
X120597632Y-126946479D01*
X120591318Y-126882379D01*
X120557010Y-126769279D01*
X120501296Y-126665045D01*
X120426317Y-126573683D01*
X120334955Y-126498704D01*
X120271766Y-126464929D01*
X120297570Y-126426310D01*
X120365414Y-126262520D01*
X120400000Y-126088642D01*
X120400000Y-125911358D01*
X121600000Y-125911358D01*
X121600000Y-126088642D01*
X121634586Y-126262520D01*
X121702430Y-126426310D01*
X121800924Y-126573717D01*
X121926283Y-126699076D01*
X122073690Y-126797570D01*
X122237480Y-126865414D01*
X122411358Y-126900000D01*
X122588642Y-126900000D01*
X122762520Y-126865414D01*
X122926310Y-126797570D01*
X123073717Y-126699076D01*
X123199076Y-126573717D01*
X123297570Y-126426310D01*
X123365414Y-126262520D01*
X123400000Y-126088642D01*
X123400000Y-125911358D01*
X123365414Y-125737480D01*
X123297570Y-125573690D01*
X123199076Y-125426283D01*
X123073717Y-125300924D01*
X122926310Y-125202430D01*
X122762520Y-125134586D01*
X122588642Y-125100000D01*
X122411358Y-125100000D01*
X122237480Y-125134586D01*
X122073690Y-125202430D01*
X121926283Y-125300924D01*
X121800924Y-125426283D01*
X121702430Y-125573690D01*
X121634586Y-125737480D01*
X121600000Y-125911358D01*
X120400000Y-125911358D01*
X120365414Y-125737480D01*
X120297570Y-125573690D01*
X120199076Y-125426283D01*
X120073717Y-125300924D01*
X119926310Y-125202430D01*
X119762520Y-125134586D01*
X119588642Y-125100000D01*
X119411358Y-125100000D01*
X119237480Y-125134586D01*
X119073690Y-125202430D01*
X118926283Y-125300924D01*
X118800924Y-125426283D01*
X118702430Y-125573690D01*
X118634586Y-125737480D01*
X118600000Y-125911358D01*
X118600000Y-126088642D01*
X118634586Y-126262520D01*
X118691532Y-126400000D01*
X117308468Y-126400000D01*
X117365414Y-126262520D01*
X117400000Y-126088642D01*
X117400000Y-125911358D01*
X117365414Y-125737480D01*
X117297570Y-125573690D01*
X117199076Y-125426283D01*
X117073717Y-125300924D01*
X116926310Y-125202430D01*
X116762520Y-125134586D01*
X116588642Y-125100000D01*
X116411358Y-125100000D01*
X116237480Y-125134586D01*
X116073690Y-125202430D01*
X115926283Y-125300924D01*
X115800924Y-125426283D01*
X115702430Y-125573690D01*
X115634586Y-125737480D01*
X115600000Y-125911358D01*
X115600000Y-126088642D01*
X115634586Y-126262520D01*
X115691532Y-126400000D01*
X114308468Y-126400000D01*
X114365414Y-126262520D01*
X114400000Y-126088642D01*
X114400000Y-125911358D01*
X114365414Y-125737480D01*
X114297570Y-125573690D01*
X114199076Y-125426283D01*
X114073717Y-125300924D01*
X113926310Y-125202430D01*
X113762520Y-125134586D01*
X113588642Y-125100000D01*
X113411358Y-125100000D01*
X113237480Y-125134586D01*
X113073690Y-125202430D01*
X112926283Y-125300924D01*
X112800924Y-125426283D01*
X112702430Y-125573690D01*
X112634586Y-125737480D01*
X112600000Y-125911358D01*
X112600000Y-126088642D01*
X112634586Y-126262520D01*
X112691532Y-126400000D01*
X110808468Y-126400000D01*
X110865414Y-126262520D01*
X110900000Y-126088642D01*
X110900000Y-125911358D01*
X110865414Y-125737480D01*
X110797570Y-125573690D01*
X110699076Y-125426283D01*
X110573717Y-125300924D01*
X110426310Y-125202430D01*
X110262520Y-125134586D01*
X110088642Y-125100000D01*
X109911358Y-125100000D01*
X109737480Y-125134586D01*
X109573690Y-125202430D01*
X109426283Y-125300924D01*
X109300924Y-125426283D01*
X109202430Y-125573690D01*
X109134586Y-125737480D01*
X109100000Y-125911358D01*
X109100000Y-126088642D01*
X109134586Y-126262520D01*
X109191532Y-126400000D01*
X107808468Y-126400000D01*
X107865414Y-126262520D01*
X107900000Y-126088642D01*
X107900000Y-125911358D01*
X107865414Y-125737480D01*
X107797570Y-125573690D01*
X107699076Y-125426283D01*
X107573717Y-125300924D01*
X107426310Y-125202430D01*
X107262520Y-125134586D01*
X107088642Y-125100000D01*
X106911358Y-125100000D01*
X106737480Y-125134586D01*
X106700000Y-125150111D01*
X106700000Y-124411358D01*
X107600000Y-124411358D01*
X107600000Y-124588642D01*
X107634586Y-124762520D01*
X107702430Y-124926310D01*
X107800924Y-125073717D01*
X107926283Y-125199076D01*
X108073690Y-125297570D01*
X108237480Y-125365414D01*
X108411358Y-125400000D01*
X108588642Y-125400000D01*
X108762520Y-125365414D01*
X108926310Y-125297570D01*
X109073717Y-125199076D01*
X109199076Y-125073717D01*
X109297570Y-124926310D01*
X109365414Y-124762520D01*
X109400000Y-124588642D01*
X109400000Y-124411358D01*
X110600000Y-124411358D01*
X110600000Y-124588642D01*
X110634586Y-124762520D01*
X110702430Y-124926310D01*
X110800924Y-125073717D01*
X110926283Y-125199076D01*
X111073690Y-125297570D01*
X111237480Y-125365414D01*
X111411358Y-125400000D01*
X111588642Y-125400000D01*
X111762520Y-125365414D01*
X111926310Y-125297570D01*
X112073717Y-125199076D01*
X112199076Y-125073717D01*
X112297570Y-124926310D01*
X112365414Y-124762520D01*
X112400000Y-124588642D01*
X112400000Y-124411358D01*
X114100000Y-124411358D01*
X114100000Y-124588642D01*
X114134586Y-124762520D01*
X114202430Y-124926310D01*
X114300924Y-125073717D01*
X114426283Y-125199076D01*
X114573690Y-125297570D01*
X114737480Y-125365414D01*
X114911358Y-125400000D01*
X115088642Y-125400000D01*
X115262520Y-125365414D01*
X115426310Y-125297570D01*
X115573717Y-125199076D01*
X115699076Y-125073717D01*
X115797570Y-124926310D01*
X115865414Y-124762520D01*
X115900000Y-124588642D01*
X115900000Y-124411358D01*
X117100000Y-124411358D01*
X117100000Y-124588642D01*
X117134586Y-124762520D01*
X117202430Y-124926310D01*
X117300924Y-125073717D01*
X117426283Y-125199076D01*
X117573690Y-125297570D01*
X117737480Y-125365414D01*
X117911358Y-125400000D01*
X118088642Y-125400000D01*
X118262520Y-125365414D01*
X118426310Y-125297570D01*
X118573717Y-125199076D01*
X118699076Y-125073717D01*
X118797570Y-124926310D01*
X118865414Y-124762520D01*
X118900000Y-124588642D01*
X118900000Y-124411358D01*
X120100000Y-124411358D01*
X120100000Y-124588642D01*
X120134586Y-124762520D01*
X120202430Y-124926310D01*
X120300924Y-125073717D01*
X120426283Y-125199076D01*
X120573690Y-125297570D01*
X120737480Y-125365414D01*
X120911358Y-125400000D01*
X121088642Y-125400000D01*
X121262520Y-125365414D01*
X121426310Y-125297570D01*
X121573717Y-125199076D01*
X121699076Y-125073717D01*
X121797570Y-124926310D01*
X121865414Y-124762520D01*
X121900000Y-124588642D01*
X121900000Y-124411358D01*
X121865414Y-124237480D01*
X121797570Y-124073690D01*
X121699076Y-123926283D01*
X121573717Y-123800924D01*
X121426310Y-123702430D01*
X121262520Y-123634586D01*
X121088642Y-123600000D01*
X120911358Y-123600000D01*
X120737480Y-123634586D01*
X120573690Y-123702430D01*
X120426283Y-123800924D01*
X120300924Y-123926283D01*
X120202430Y-124073690D01*
X120134586Y-124237480D01*
X120100000Y-124411358D01*
X118900000Y-124411358D01*
X118865414Y-124237480D01*
X118797570Y-124073690D01*
X118699076Y-123926283D01*
X118573717Y-123800924D01*
X118426310Y-123702430D01*
X118262520Y-123634586D01*
X118088642Y-123600000D01*
X117911358Y-123600000D01*
X117737480Y-123634586D01*
X117573690Y-123702430D01*
X117426283Y-123800924D01*
X117300924Y-123926283D01*
X117202430Y-124073690D01*
X117134586Y-124237480D01*
X117100000Y-124411358D01*
X115900000Y-124411358D01*
X115865414Y-124237480D01*
X115797570Y-124073690D01*
X115699076Y-123926283D01*
X115573717Y-123800924D01*
X115426310Y-123702430D01*
X115262520Y-123634586D01*
X115088642Y-123600000D01*
X114911358Y-123600000D01*
X114737480Y-123634586D01*
X114573690Y-123702430D01*
X114426283Y-123800924D01*
X114300924Y-123926283D01*
X114202430Y-124073690D01*
X114134586Y-124237480D01*
X114100000Y-124411358D01*
X112400000Y-124411358D01*
X112365414Y-124237480D01*
X112297570Y-124073690D01*
X112199076Y-123926283D01*
X112073717Y-123800924D01*
X111926310Y-123702430D01*
X111762520Y-123634586D01*
X111588642Y-123600000D01*
X111411358Y-123600000D01*
X111237480Y-123634586D01*
X111073690Y-123702430D01*
X110926283Y-123800924D01*
X110800924Y-123926283D01*
X110702430Y-124073690D01*
X110634586Y-124237480D01*
X110600000Y-124411358D01*
X109400000Y-124411358D01*
X109365414Y-124237480D01*
X109297570Y-124073690D01*
X109199076Y-123926283D01*
X109073717Y-123800924D01*
X108926310Y-123702430D01*
X108762520Y-123634586D01*
X108588642Y-123600000D01*
X108411358Y-123600000D01*
X108237480Y-123634586D01*
X108073690Y-123702430D01*
X107926283Y-123800924D01*
X107800924Y-123926283D01*
X107702430Y-124073690D01*
X107634586Y-124237480D01*
X107600000Y-124411358D01*
X106700000Y-124411358D01*
X106700000Y-123849889D01*
X106737480Y-123865414D01*
X106911358Y-123900000D01*
X107088642Y-123900000D01*
X107262520Y-123865414D01*
X107426310Y-123797570D01*
X107573717Y-123699076D01*
X107699076Y-123573717D01*
X107797570Y-123426310D01*
X107865414Y-123262520D01*
X107900000Y-123088642D01*
X107900000Y-122911358D01*
X109100000Y-122911358D01*
X109100000Y-123088642D01*
X109134586Y-123262520D01*
X109202430Y-123426310D01*
X109300924Y-123573717D01*
X109426283Y-123699076D01*
X109573690Y-123797570D01*
X109737480Y-123865414D01*
X109911358Y-123900000D01*
X110088642Y-123900000D01*
X110262520Y-123865414D01*
X110426310Y-123797570D01*
X110573717Y-123699076D01*
X110699076Y-123573717D01*
X110797570Y-123426310D01*
X110865414Y-123262520D01*
X110900000Y-123088642D01*
X110900000Y-122911358D01*
X112600000Y-122911358D01*
X112600000Y-123088642D01*
X112634586Y-123262520D01*
X112702430Y-123426310D01*
X112800924Y-123573717D01*
X112926283Y-123699076D01*
X113073690Y-123797570D01*
X113237480Y-123865414D01*
X113411358Y-123900000D01*
X113588642Y-123900000D01*
X113762520Y-123865414D01*
X113926310Y-123797570D01*
X114073717Y-123699076D01*
X114199076Y-123573717D01*
X114297570Y-123426310D01*
X114365414Y-123262520D01*
X114400000Y-123088642D01*
X114400000Y-122911358D01*
X121600000Y-122911358D01*
X121600000Y-123088642D01*
X121634586Y-123262520D01*
X121702430Y-123426310D01*
X121800924Y-123573717D01*
X121926283Y-123699076D01*
X122073690Y-123797570D01*
X122237480Y-123865414D01*
X122411358Y-123900000D01*
X122588642Y-123900000D01*
X122762520Y-123865414D01*
X122926310Y-123797570D01*
X123073717Y-123699076D01*
X123199076Y-123573717D01*
X123297570Y-123426310D01*
X123365414Y-123262520D01*
X123400000Y-123088642D01*
X123400000Y-122911358D01*
X123365414Y-122737480D01*
X123297570Y-122573690D01*
X123199076Y-122426283D01*
X123073717Y-122300924D01*
X122926310Y-122202430D01*
X122762520Y-122134586D01*
X122588642Y-122100000D01*
X122411358Y-122100000D01*
X122237480Y-122134586D01*
X122073690Y-122202430D01*
X121926283Y-122300924D01*
X121800924Y-122426283D01*
X121702430Y-122573690D01*
X121634586Y-122737480D01*
X121600000Y-122911358D01*
X114400000Y-122911358D01*
X114365414Y-122737480D01*
X114297570Y-122573690D01*
X114199076Y-122426283D01*
X114073717Y-122300924D01*
X113926310Y-122202430D01*
X113762520Y-122134586D01*
X113588642Y-122100000D01*
X113411358Y-122100000D01*
X113237480Y-122134586D01*
X113073690Y-122202430D01*
X112926283Y-122300924D01*
X112800924Y-122426283D01*
X112702430Y-122573690D01*
X112634586Y-122737480D01*
X112600000Y-122911358D01*
X110900000Y-122911358D01*
X110865414Y-122737480D01*
X110797570Y-122573690D01*
X110699076Y-122426283D01*
X110573717Y-122300924D01*
X110426310Y-122202430D01*
X110262520Y-122134586D01*
X110088642Y-122100000D01*
X109911358Y-122100000D01*
X109737480Y-122134586D01*
X109573690Y-122202430D01*
X109426283Y-122300924D01*
X109300924Y-122426283D01*
X109202430Y-122573690D01*
X109134586Y-122737480D01*
X109100000Y-122911358D01*
X107900000Y-122911358D01*
X107865414Y-122737480D01*
X107797570Y-122573690D01*
X107699076Y-122426283D01*
X107573717Y-122300924D01*
X107426310Y-122202430D01*
X107262520Y-122134586D01*
X107088642Y-122100000D01*
X106911358Y-122100000D01*
X106737480Y-122134586D01*
X106700000Y-122150111D01*
X106700000Y-116021207D01*
X109335000Y-116021207D01*
X109335000Y-116178793D01*
X109365743Y-116333351D01*
X109426049Y-116478942D01*
X109513599Y-116609970D01*
X109625030Y-116721401D01*
X109756058Y-116808951D01*
X109901649Y-116869257D01*
X110056207Y-116900000D01*
X110213793Y-116900000D01*
X110368351Y-116869257D01*
X110513942Y-116808951D01*
X110644970Y-116721401D01*
X110756401Y-116609970D01*
X110843951Y-116478942D01*
X110904257Y-116333351D01*
X110935000Y-116178793D01*
X110935000Y-116021207D01*
X110904257Y-115866649D01*
X110843951Y-115721058D01*
X110756401Y-115590030D01*
X110644970Y-115478599D01*
X110513942Y-115391049D01*
X110368351Y-115330743D01*
X110213793Y-115300000D01*
X110056207Y-115300000D01*
X109901649Y-115330743D01*
X109756058Y-115391049D01*
X109625030Y-115478599D01*
X109513599Y-115590030D01*
X109426049Y-115721058D01*
X109365743Y-115866649D01*
X109335000Y-116021207D01*
X106700000Y-116021207D01*
X106700000Y-114221207D01*
X114200000Y-114221207D01*
X114200000Y-114378793D01*
X114230743Y-114533351D01*
X114291049Y-114678942D01*
X114378599Y-114809970D01*
X114490030Y-114921401D01*
X114621058Y-115008951D01*
X114766649Y-115069257D01*
X114921207Y-115100000D01*
X115078793Y-115100000D01*
X115233351Y-115069257D01*
X115378942Y-115008951D01*
X115509970Y-114921401D01*
X115621401Y-114809970D01*
X115708951Y-114678942D01*
X115769257Y-114533351D01*
X115800000Y-114378793D01*
X115800000Y-114221207D01*
X115769257Y-114066649D01*
X115708951Y-113921058D01*
X115621401Y-113790030D01*
X115509970Y-113678599D01*
X115378942Y-113591049D01*
X115233351Y-113530743D01*
X115078793Y-113500000D01*
X114921207Y-113500000D01*
X114766649Y-113530743D01*
X114621058Y-113591049D01*
X114490030Y-113678599D01*
X114378599Y-113790030D01*
X114291049Y-113921058D01*
X114230743Y-114066649D01*
X114200000Y-114221207D01*
X106700000Y-114221207D01*
X106700000Y-111400145D01*
X106695721Y-111334871D01*
X106678678Y-111205438D01*
X106644883Y-111079337D01*
X106594915Y-110958728D01*
X106529628Y-110845673D01*
X106450141Y-110742110D01*
X106357814Y-110649811D01*
X106254228Y-110570355D01*
X106141157Y-110505103D01*
X106020534Y-110455170D01*
X105894425Y-110421411D01*
X105764987Y-110404405D01*
X105699710Y-110400145D01*
X104026628Y-110400630D01*
X104094732Y-110282671D01*
X104144682Y-110162081D01*
X104185762Y-110008769D01*
X104197289Y-109921207D01*
X106100000Y-109921207D01*
X106100000Y-110078793D01*
X106130743Y-110233351D01*
X106191049Y-110378942D01*
X106278599Y-110509970D01*
X106390030Y-110621401D01*
X106521058Y-110708951D01*
X106666649Y-110769257D01*
X106821207Y-110800000D01*
X106978793Y-110800000D01*
X107133351Y-110769257D01*
X107278942Y-110708951D01*
X107409970Y-110621401D01*
X107521401Y-110509970D01*
X107608951Y-110378942D01*
X107669257Y-110233351D01*
X107700000Y-110078793D01*
X107700000Y-109921207D01*
X107669257Y-109766649D01*
X107608951Y-109621058D01*
X107521401Y-109490030D01*
X107409970Y-109378599D01*
X107278942Y-109291049D01*
X107133351Y-109230743D01*
X106978793Y-109200000D01*
X106821207Y-109200000D01*
X106666649Y-109230743D01*
X106521058Y-109291049D01*
X106390030Y-109378599D01*
X106278599Y-109490030D01*
X106191049Y-109621058D01*
X106130743Y-109766649D01*
X106100000Y-109921207D01*
X104197289Y-109921207D01*
X104202799Y-109879359D01*
X104208000Y-109800000D01*
X104208000Y-107021207D01*
X109300000Y-107021207D01*
X109300000Y-107178793D01*
X109330743Y-107333351D01*
X109391049Y-107478942D01*
X109478599Y-107609970D01*
X109590030Y-107721401D01*
X109721058Y-107808951D01*
X109866649Y-107869257D01*
X110021207Y-107900000D01*
X110178793Y-107900000D01*
X110333351Y-107869257D01*
X110478942Y-107808951D01*
X110609970Y-107721401D01*
X110721401Y-107609970D01*
X110808951Y-107478942D01*
X110847019Y-107387037D01*
X121250000Y-107387037D01*
X121250000Y-107652963D01*
X121301880Y-107913780D01*
X121403646Y-108159465D01*
X121551387Y-108380575D01*
X121739425Y-108568613D01*
X121960535Y-108716354D01*
X122206220Y-108818120D01*
X122467037Y-108870000D01*
X122732963Y-108870000D01*
X122993780Y-108818120D01*
X123239465Y-108716354D01*
X123460575Y-108568613D01*
X123648613Y-108380575D01*
X123796354Y-108159465D01*
X123898120Y-107913780D01*
X123950000Y-107652963D01*
X123950000Y-107387037D01*
X123898120Y-107126220D01*
X123796354Y-106880535D01*
X123648613Y-106659425D01*
X123460575Y-106471387D01*
X123239465Y-106323646D01*
X122993780Y-106221880D01*
X122750002Y-106173389D01*
X122750002Y-106120975D01*
X122942284Y-106182230D01*
X123170251Y-106092353D01*
X123376303Y-105959729D01*
X123552522Y-105789455D01*
X123692136Y-105588074D01*
X123789780Y-105363325D01*
X123802223Y-105322283D01*
X123740175Y-105130000D01*
X122750000Y-105130000D01*
X122750000Y-105150000D01*
X122450000Y-105150000D01*
X122450000Y-105130000D01*
X121459825Y-105130000D01*
X121397777Y-105322283D01*
X121410220Y-105363325D01*
X121507864Y-105588074D01*
X121647478Y-105789455D01*
X121823697Y-105959729D01*
X122029749Y-106092353D01*
X122257716Y-106182230D01*
X122449998Y-106120975D01*
X122449998Y-106173389D01*
X122206220Y-106221880D01*
X121960535Y-106323646D01*
X121739425Y-106471387D01*
X121551387Y-106659425D01*
X121403646Y-106880535D01*
X121301880Y-107126220D01*
X121250000Y-107387037D01*
X110847019Y-107387037D01*
X110869257Y-107333351D01*
X110900000Y-107178793D01*
X110900000Y-107021207D01*
X110869257Y-106866649D01*
X110808951Y-106721058D01*
X110721401Y-106590030D01*
X110609970Y-106478599D01*
X110478942Y-106391049D01*
X110333351Y-106330743D01*
X110178793Y-106300000D01*
X110021207Y-106300000D01*
X109866649Y-106330743D01*
X109721058Y-106391049D01*
X109590030Y-106478599D01*
X109478599Y-106590030D01*
X109391049Y-106721058D01*
X109330743Y-106866649D01*
X109300000Y-107021207D01*
X104208000Y-107021207D01*
X104208000Y-105321207D01*
X110500000Y-105321207D01*
X110500000Y-105478793D01*
X110530743Y-105633351D01*
X110591049Y-105778942D01*
X110678599Y-105909970D01*
X110790030Y-106021401D01*
X110921058Y-106108951D01*
X111066649Y-106169257D01*
X111221207Y-106200000D01*
X111378793Y-106200000D01*
X111533351Y-106169257D01*
X111673131Y-106111358D01*
X119100000Y-106111358D01*
X119100000Y-106288642D01*
X119134586Y-106462520D01*
X119202430Y-106626310D01*
X119300924Y-106773717D01*
X119426283Y-106899076D01*
X119573690Y-106997570D01*
X119737480Y-107065414D01*
X119911358Y-107100000D01*
X120088642Y-107100000D01*
X120262520Y-107065414D01*
X120426310Y-106997570D01*
X120573717Y-106899076D01*
X120699076Y-106773717D01*
X120797570Y-106626310D01*
X120865414Y-106462520D01*
X120900000Y-106288642D01*
X120900000Y-106111358D01*
X120865414Y-105937480D01*
X120797570Y-105773690D01*
X120699076Y-105626283D01*
X120573717Y-105500924D01*
X120426310Y-105402430D01*
X120262520Y-105334586D01*
X120088642Y-105300000D01*
X119911358Y-105300000D01*
X119737480Y-105334586D01*
X119573690Y-105402430D01*
X119426283Y-105500924D01*
X119300924Y-105626283D01*
X119202430Y-105773690D01*
X119134586Y-105937480D01*
X119100000Y-106111358D01*
X111673131Y-106111358D01*
X111678942Y-106108951D01*
X111809970Y-106021401D01*
X111921401Y-105909970D01*
X112008951Y-105778942D01*
X112069257Y-105633351D01*
X112100000Y-105478793D01*
X112100000Y-105321207D01*
X112069257Y-105166649D01*
X112008951Y-105021058D01*
X111921401Y-104890030D01*
X111809970Y-104778599D01*
X111678942Y-104691049D01*
X111550188Y-104637717D01*
X121397777Y-104637717D01*
X121459825Y-104830000D01*
X122450000Y-104830000D01*
X122450000Y-103839026D01*
X122750000Y-103839026D01*
X122750000Y-104830000D01*
X123740175Y-104830000D01*
X123802223Y-104637717D01*
X123789780Y-104596675D01*
X123692136Y-104371926D01*
X123552522Y-104170545D01*
X123376303Y-104000271D01*
X123170251Y-103867647D01*
X122942284Y-103777770D01*
X122750000Y-103839026D01*
X122450000Y-103839026D01*
X122257716Y-103777770D01*
X122029749Y-103867647D01*
X121823697Y-104000271D01*
X121647478Y-104170545D01*
X121507864Y-104371926D01*
X121410220Y-104596675D01*
X121397777Y-104637717D01*
X111550188Y-104637717D01*
X111533351Y-104630743D01*
X111378793Y-104600000D01*
X111221207Y-104600000D01*
X111066649Y-104630743D01*
X110921058Y-104691049D01*
X110790030Y-104778599D01*
X110678599Y-104890030D01*
X110591049Y-105021058D01*
X110530743Y-105166649D01*
X110500000Y-105321207D01*
X104208000Y-105321207D01*
X104208000Y-104000000D01*
X104202799Y-103920641D01*
X104185762Y-103791231D01*
X104144682Y-103637919D01*
X104094732Y-103517329D01*
X104015370Y-103379870D01*
X103935910Y-103276317D01*
X103823683Y-103164090D01*
X103720130Y-103084630D01*
X103582671Y-103005268D01*
X103462081Y-102955318D01*
X103308769Y-102914238D01*
X103179359Y-102897201D01*
X103100000Y-102892000D01*
X98604311Y-102892000D01*
X98709970Y-102821401D01*
X98749088Y-102782283D01*
X121397777Y-102782283D01*
X121410220Y-102823325D01*
X121507864Y-103048074D01*
X121647478Y-103249455D01*
X121823697Y-103419729D01*
X122029749Y-103552353D01*
X122257716Y-103642230D01*
X122450000Y-103580974D01*
X122450000Y-102590000D01*
X122750000Y-102590000D01*
X122750000Y-103580974D01*
X122942284Y-103642230D01*
X123170251Y-103552353D01*
X123376303Y-103419729D01*
X123552522Y-103249455D01*
X123692136Y-103048074D01*
X123789780Y-102823325D01*
X123802223Y-102782283D01*
X123740175Y-102590000D01*
X122750000Y-102590000D01*
X122450000Y-102590000D01*
X121459825Y-102590000D01*
X121397777Y-102782283D01*
X98749088Y-102782283D01*
X98821401Y-102709970D01*
X98908951Y-102578942D01*
X98969257Y-102433351D01*
X99000000Y-102278793D01*
X99000000Y-102121207D01*
X98969257Y-101966649D01*
X98908951Y-101821058D01*
X98877027Y-101773280D01*
X99011358Y-101800000D01*
X99188642Y-101800000D01*
X99362520Y-101765414D01*
X99526310Y-101697570D01*
X99673717Y-101599076D01*
X99799076Y-101473717D01*
X99897570Y-101326310D01*
X99965414Y-101162520D01*
X100000000Y-100988642D01*
X100000000Y-100811358D01*
X99997180Y-100797180D01*
X100011358Y-100800000D01*
X100188642Y-100800000D01*
X100202820Y-100797180D01*
X100200000Y-100811358D01*
X100200000Y-100988642D01*
X100234586Y-101162520D01*
X100302430Y-101326310D01*
X100400924Y-101473717D01*
X100526283Y-101599076D01*
X100673690Y-101697570D01*
X100837480Y-101765414D01*
X101011358Y-101800000D01*
X101188642Y-101800000D01*
X101362520Y-101765414D01*
X101526310Y-101697570D01*
X101673717Y-101599076D01*
X101799076Y-101473717D01*
X101897570Y-101326310D01*
X101965414Y-101162520D01*
X102000000Y-100988642D01*
X102000000Y-100811358D01*
X101997180Y-100797180D01*
X102011358Y-100800000D01*
X102188642Y-100800000D01*
X102202820Y-100797180D01*
X102200000Y-100811358D01*
X102200000Y-100988642D01*
X102234586Y-101162520D01*
X102302430Y-101326310D01*
X102400924Y-101473717D01*
X102526283Y-101599076D01*
X102673690Y-101697570D01*
X102837480Y-101765414D01*
X103011358Y-101800000D01*
X103188642Y-101800000D01*
X103362520Y-101765414D01*
X103526310Y-101697570D01*
X103673717Y-101599076D01*
X103799076Y-101473717D01*
X103897570Y-101326310D01*
X103965414Y-101162520D01*
X104000000Y-100988642D01*
X104000000Y-100811358D01*
X103997180Y-100797180D01*
X104011358Y-100800000D01*
X104188642Y-100800000D01*
X104202820Y-100797180D01*
X104200000Y-100811358D01*
X104200000Y-100988642D01*
X104234586Y-101162520D01*
X104302430Y-101326310D01*
X104400924Y-101473717D01*
X104526283Y-101599076D01*
X104673690Y-101697570D01*
X104837480Y-101765414D01*
X105011358Y-101800000D01*
X105188642Y-101800000D01*
X105362520Y-101765414D01*
X105526310Y-101697570D01*
X105673717Y-101599076D01*
X105799076Y-101473717D01*
X105897570Y-101326310D01*
X105965414Y-101162520D01*
X106000000Y-100988642D01*
X106000000Y-100811358D01*
X105965414Y-100637480D01*
X105897570Y-100473690D01*
X105799076Y-100326283D01*
X105673717Y-100200924D01*
X105526310Y-100102430D01*
X105362520Y-100034586D01*
X105188642Y-100000000D01*
X105011358Y-100000000D01*
X104997180Y-100002820D01*
X105000000Y-99988642D01*
X105000000Y-99811358D01*
X104997180Y-99797180D01*
X105011358Y-99800000D01*
X105188642Y-99800000D01*
X105362520Y-99765414D01*
X105526310Y-99697570D01*
X105673717Y-99599076D01*
X105799076Y-99473717D01*
X105897570Y-99326310D01*
X105965414Y-99162520D01*
X105987795Y-99050000D01*
X121247581Y-99050000D01*
X121247581Y-100750000D01*
X121257235Y-100848017D01*
X121285825Y-100942267D01*
X121332254Y-101029129D01*
X121394736Y-101105264D01*
X121470871Y-101167746D01*
X121557733Y-101214175D01*
X121651983Y-101242765D01*
X121750000Y-101252419D01*
X122220560Y-101252419D01*
X122029749Y-101327647D01*
X121823697Y-101460271D01*
X121647478Y-101630545D01*
X121507864Y-101831926D01*
X121410220Y-102056675D01*
X121397777Y-102097717D01*
X121459825Y-102290000D01*
X122450000Y-102290000D01*
X122450000Y-102270000D01*
X122750000Y-102270000D01*
X122750000Y-102290000D01*
X123740175Y-102290000D01*
X123802223Y-102097717D01*
X123789780Y-102056675D01*
X123692136Y-101831926D01*
X123552522Y-101630545D01*
X123376303Y-101460271D01*
X123170251Y-101327647D01*
X122979440Y-101252419D01*
X123450000Y-101252419D01*
X123548017Y-101242765D01*
X123642267Y-101214175D01*
X123729129Y-101167746D01*
X123805264Y-101105264D01*
X123867746Y-101029129D01*
X123914175Y-100942267D01*
X123942765Y-100848017D01*
X123952419Y-100750000D01*
X123952419Y-99050000D01*
X123942765Y-98951983D01*
X123914175Y-98857733D01*
X123867746Y-98770871D01*
X123805264Y-98694736D01*
X123729129Y-98632254D01*
X123642267Y-98585825D01*
X123548017Y-98557235D01*
X123450000Y-98547581D01*
X121750000Y-98547581D01*
X121651983Y-98557235D01*
X121557733Y-98585825D01*
X121470871Y-98632254D01*
X121394736Y-98694736D01*
X121332254Y-98770871D01*
X121285825Y-98857733D01*
X121257235Y-98951983D01*
X121247581Y-99050000D01*
X105987795Y-99050000D01*
X106000000Y-98988642D01*
X106000000Y-98811358D01*
X105965414Y-98637480D01*
X105897570Y-98473690D01*
X105799076Y-98326283D01*
X105673717Y-98200924D01*
X105526310Y-98102430D01*
X105362520Y-98034586D01*
X105188642Y-98000000D01*
X105011358Y-98000000D01*
X104837480Y-98034586D01*
X104673690Y-98102430D01*
X104526283Y-98200924D01*
X104400924Y-98326283D01*
X104302430Y-98473690D01*
X104234586Y-98637480D01*
X104200000Y-98811358D01*
X104200000Y-98988642D01*
X104202820Y-99002820D01*
X104188642Y-99000000D01*
X104011358Y-99000000D01*
X103997180Y-99002820D01*
X104000000Y-98988642D01*
X104000000Y-98811358D01*
X103965414Y-98637480D01*
X103897570Y-98473690D01*
X103799076Y-98326283D01*
X103673717Y-98200924D01*
X103526310Y-98102430D01*
X103362520Y-98034586D01*
X103188642Y-98000000D01*
X103011358Y-98000000D01*
X102837480Y-98034586D01*
X102673690Y-98102430D01*
X102526283Y-98200924D01*
X102400924Y-98326283D01*
X102302430Y-98473690D01*
X102234586Y-98637480D01*
X102200000Y-98811358D01*
X102200000Y-98988642D01*
X102202820Y-99002820D01*
X102188642Y-99000000D01*
X102011358Y-99000000D01*
X101997180Y-99002820D01*
X102000000Y-98988642D01*
X102000000Y-98811358D01*
X101965414Y-98637480D01*
X101897570Y-98473690D01*
X101799076Y-98326283D01*
X101673717Y-98200924D01*
X101526310Y-98102430D01*
X101362520Y-98034586D01*
X101188642Y-98000000D01*
X101011358Y-98000000D01*
X100837480Y-98034586D01*
X100673690Y-98102430D01*
X100526283Y-98200924D01*
X100400924Y-98326283D01*
X100302430Y-98473690D01*
X100234586Y-98637480D01*
X100200000Y-98811358D01*
X100200000Y-98988642D01*
X100202820Y-99002820D01*
X100188642Y-99000000D01*
X100011358Y-99000000D01*
X99997180Y-99002820D01*
X100000000Y-98988642D01*
X100000000Y-98811358D01*
X99965414Y-98637480D01*
X99897570Y-98473690D01*
X99799076Y-98326283D01*
X99673717Y-98200924D01*
X99526310Y-98102430D01*
X99362520Y-98034586D01*
X99188642Y-98000000D01*
X99011358Y-98000000D01*
X98837480Y-98034586D01*
X98673690Y-98102430D01*
X98526283Y-98200924D01*
X98400924Y-98326283D01*
X98302430Y-98473690D01*
X98234586Y-98637480D01*
X98200000Y-98811358D01*
X98200000Y-98988642D01*
X98202820Y-99002820D01*
X98188642Y-99000000D01*
X98108000Y-99000000D01*
X98102799Y-98920641D01*
X98085762Y-98791231D01*
X98044682Y-98637919D01*
X97994732Y-98517329D01*
X97915370Y-98379870D01*
X97835910Y-98276317D01*
X97723683Y-98164090D01*
X97620130Y-98084630D01*
X97482671Y-98005268D01*
X97362081Y-97955318D01*
X97234778Y-97921207D01*
X112000000Y-97921207D01*
X112000000Y-98078793D01*
X112030743Y-98233351D01*
X112091049Y-98378942D01*
X112178599Y-98509970D01*
X112290030Y-98621401D01*
X112421058Y-98708951D01*
X112566649Y-98769257D01*
X112721207Y-98800000D01*
X112878793Y-98800000D01*
X113033351Y-98769257D01*
X113178942Y-98708951D01*
X113309970Y-98621401D01*
X113400000Y-98531371D01*
X113490030Y-98621401D01*
X113621058Y-98708951D01*
X113766649Y-98769257D01*
X113921207Y-98800000D01*
X114078793Y-98800000D01*
X114233351Y-98769257D01*
X114378942Y-98708951D01*
X114509970Y-98621401D01*
X114621401Y-98509970D01*
X114708951Y-98378942D01*
X114769257Y-98233351D01*
X114800000Y-98078793D01*
X114800000Y-97921207D01*
X114769257Y-97766649D01*
X114708951Y-97621058D01*
X114621401Y-97490030D01*
X114509970Y-97378599D01*
X114378942Y-97291049D01*
X114233351Y-97230743D01*
X114078793Y-97200000D01*
X113921207Y-97200000D01*
X113766649Y-97230743D01*
X113621058Y-97291049D01*
X113490030Y-97378599D01*
X113400000Y-97468629D01*
X113309970Y-97378599D01*
X113178942Y-97291049D01*
X113033351Y-97230743D01*
X112878793Y-97200000D01*
X112721207Y-97200000D01*
X112566649Y-97230743D01*
X112421058Y-97291049D01*
X112290030Y-97378599D01*
X112178599Y-97490030D01*
X112091049Y-97621058D01*
X112030743Y-97766649D01*
X112000000Y-97921207D01*
X97234778Y-97921207D01*
X97208769Y-97914238D01*
X97079359Y-97897201D01*
X97000000Y-97892000D01*
X85000000Y-97892000D01*
X84920641Y-97897201D01*
X84791231Y-97914238D01*
X84637919Y-97955318D01*
X84517329Y-98005268D01*
X84379870Y-98084630D01*
X84276317Y-98164090D01*
X84164090Y-98276317D01*
X84084630Y-98379870D01*
X84005268Y-98517329D01*
X83955318Y-98637919D01*
X83914238Y-98791231D01*
X83897201Y-98920641D01*
X83892000Y-99000000D01*
X83892000Y-109800000D01*
X83897201Y-109879359D01*
X83914238Y-110008769D01*
X83955318Y-110162081D01*
X84005268Y-110282671D01*
X84076714Y-110406418D01*
X80499710Y-110407456D01*
X80434461Y-110411751D01*
X80305080Y-110428819D01*
X80179030Y-110462627D01*
X80058472Y-110512595D01*
X79945469Y-110577866D01*
X79841948Y-110657328D01*
X79749681Y-110749622D01*
X79670249Y-110853166D01*
X79605009Y-110966191D01*
X79555077Y-111086763D01*
X79521307Y-111212818D01*
X79504276Y-111342204D01*
X79500000Y-111407456D01*
X79500000Y-126500000D01*
X79504277Y-126565263D01*
X79514827Y-126645399D01*
X79498704Y-126665045D01*
X79442990Y-126769279D01*
X79408682Y-126882379D01*
X79397097Y-127000000D01*
X79400000Y-127029474D01*
X79400001Y-133751471D01*
X77751473Y-135400000D01*
X73209939Y-135400000D01*
X71300502Y-133877359D01*
X69341874Y-132115664D01*
X67491174Y-130240914D01*
X65810622Y-128323268D01*
X68765730Y-128323268D01*
X68765730Y-128845272D01*
X68867568Y-129357246D01*
X69067331Y-129839516D01*
X69357341Y-130273546D01*
X69726454Y-130642659D01*
X70160484Y-130932669D01*
X70642754Y-131132432D01*
X71154728Y-131234270D01*
X71676732Y-131234270D01*
X72188706Y-131132432D01*
X72670976Y-130932669D01*
X73105006Y-130642659D01*
X73474119Y-130273546D01*
X73764129Y-129839516D01*
X73963892Y-129357246D01*
X74065730Y-128845272D01*
X74065730Y-128323268D01*
X73963892Y-127811294D01*
X73764129Y-127329024D01*
X73474119Y-126894994D01*
X73105006Y-126525881D01*
X72670976Y-126235871D01*
X72188706Y-126036108D01*
X71676732Y-125934270D01*
X71154728Y-125934270D01*
X70642754Y-126036108D01*
X70160484Y-126235871D01*
X69726454Y-126525881D01*
X69357341Y-126894994D01*
X69067331Y-127329024D01*
X68867568Y-127811294D01*
X68765730Y-128323268D01*
X65810622Y-128323268D01*
X65754922Y-128259710D01*
X64139209Y-126179005D01*
X62649751Y-124006156D01*
X61291774Y-121748791D01*
X60070067Y-119414866D01*
X58988921Y-117012586D01*
X58052159Y-114550439D01*
X57263057Y-112037040D01*
X56624409Y-109481283D01*
X56138456Y-106892140D01*
X55806914Y-104278749D01*
X55630943Y-101650278D01*
X55611169Y-99016009D01*
X55747657Y-96385206D01*
X56039932Y-93767107D01*
X56486956Y-91170978D01*
X56547705Y-90911358D01*
X93600000Y-90911358D01*
X93600000Y-91088642D01*
X93634586Y-91262520D01*
X93702430Y-91426310D01*
X93800924Y-91573717D01*
X93926283Y-91699076D01*
X94073690Y-91797570D01*
X94237480Y-91865414D01*
X94411358Y-91900000D01*
X94588642Y-91900000D01*
X94762520Y-91865414D01*
X94926310Y-91797570D01*
X95073717Y-91699076D01*
X95199076Y-91573717D01*
X95297570Y-91426310D01*
X95365414Y-91262520D01*
X95400000Y-91088642D01*
X95400000Y-90911358D01*
X95365414Y-90737480D01*
X95297570Y-90573690D01*
X95199076Y-90426283D01*
X95073717Y-90300924D01*
X94926310Y-90202430D01*
X94762520Y-90134586D01*
X94588642Y-90100000D01*
X94411358Y-90100000D01*
X94237480Y-90134586D01*
X94073690Y-90202430D01*
X93926283Y-90300924D01*
X93800924Y-90426283D01*
X93702430Y-90573690D01*
X93634586Y-90737480D01*
X93600000Y-90911358D01*
X56547705Y-90911358D01*
X57087166Y-88605910D01*
X57838445Y-86080955D01*
X58738138Y-83605019D01*
X59783097Y-81186776D01*
X59972486Y-80811358D01*
X103000000Y-80811358D01*
X103000000Y-80988642D01*
X103034586Y-81162520D01*
X103102430Y-81326310D01*
X103151668Y-81400000D01*
X103102430Y-81473690D01*
X103034586Y-81637480D01*
X103000000Y-81811358D01*
X103000000Y-81988642D01*
X103034586Y-82162520D01*
X103102430Y-82326310D01*
X103185077Y-82450000D01*
X103102430Y-82573690D01*
X103034586Y-82737480D01*
X103000000Y-82911358D01*
X103000000Y-83088642D01*
X103034586Y-83262520D01*
X103102430Y-83426310D01*
X103185077Y-83550000D01*
X103102430Y-83673690D01*
X103034586Y-83837480D01*
X103000000Y-84011358D01*
X103000000Y-84188642D01*
X103034586Y-84362520D01*
X103102430Y-84526310D01*
X103185077Y-84650000D01*
X103102430Y-84773690D01*
X103034586Y-84937480D01*
X103000000Y-85111358D01*
X103000000Y-85288642D01*
X103034586Y-85462520D01*
X103102430Y-85626310D01*
X103185077Y-85750000D01*
X103102430Y-85873690D01*
X103034586Y-86037480D01*
X103000000Y-86211358D01*
X103000000Y-86388642D01*
X103034586Y-86562520D01*
X103102430Y-86726310D01*
X103185077Y-86850000D01*
X103102430Y-86973690D01*
X103034586Y-87137480D01*
X103000000Y-87311358D01*
X103000000Y-87488642D01*
X103034586Y-87662520D01*
X103102430Y-87826310D01*
X103200924Y-87973717D01*
X103326283Y-88099076D01*
X103473690Y-88197570D01*
X103637480Y-88265414D01*
X103811358Y-88300000D01*
X103988642Y-88300000D01*
X104162520Y-88265414D01*
X104326310Y-88197570D01*
X104473717Y-88099076D01*
X104599076Y-87973717D01*
X104697570Y-87826310D01*
X104749889Y-87700000D01*
X104888642Y-87700000D01*
X105062520Y-87665414D01*
X105226310Y-87597570D01*
X105373717Y-87499076D01*
X105499076Y-87373717D01*
X105597570Y-87226310D01*
X105665414Y-87062520D01*
X105700000Y-86888642D01*
X105700000Y-86711358D01*
X105665414Y-86537480D01*
X105597570Y-86373690D01*
X105514923Y-86250000D01*
X105597570Y-86126310D01*
X105665414Y-85962520D01*
X105700000Y-85788642D01*
X105700000Y-85611358D01*
X105665414Y-85437480D01*
X105597570Y-85273690D01*
X105548332Y-85200000D01*
X105597570Y-85126310D01*
X105665414Y-84962520D01*
X105700000Y-84788642D01*
X105700000Y-84611358D01*
X105665414Y-84437480D01*
X105597570Y-84273690D01*
X105499076Y-84126283D01*
X105472793Y-84100000D01*
X105499076Y-84073717D01*
X105597570Y-83926310D01*
X105665414Y-83762520D01*
X105700000Y-83588642D01*
X105700000Y-83411358D01*
X105665414Y-83237480D01*
X105597570Y-83073690D01*
X105548332Y-83000000D01*
X105597570Y-82926310D01*
X105665414Y-82762520D01*
X105700000Y-82588642D01*
X105700000Y-82411358D01*
X105665414Y-82237480D01*
X105597570Y-82073690D01*
X105514923Y-81950000D01*
X105597570Y-81826310D01*
X105665414Y-81662520D01*
X105700000Y-81488642D01*
X105700000Y-81311358D01*
X105665414Y-81137480D01*
X105597570Y-80973690D01*
X105514923Y-80850000D01*
X105597570Y-80726310D01*
X105665414Y-80562520D01*
X105700000Y-80388642D01*
X105700000Y-80211358D01*
X105665414Y-80037480D01*
X105597570Y-79873690D01*
X105499076Y-79726283D01*
X105373717Y-79600924D01*
X105226310Y-79502430D01*
X105062520Y-79434586D01*
X104888642Y-79400000D01*
X104711358Y-79400000D01*
X104537480Y-79434586D01*
X104373690Y-79502430D01*
X104226283Y-79600924D01*
X104100924Y-79726283D01*
X104002430Y-79873690D01*
X103950111Y-80000000D01*
X103811358Y-80000000D01*
X103637480Y-80034586D01*
X103473690Y-80102430D01*
X103326283Y-80200924D01*
X103200924Y-80326283D01*
X103102430Y-80473690D01*
X103034586Y-80637480D01*
X103000000Y-80811358D01*
X59972486Y-80811358D01*
X60969630Y-78834773D01*
X62293562Y-76557281D01*
X63750230Y-74362317D01*
X65334515Y-72257600D01*
X66272133Y-71154728D01*
X68765730Y-71154728D01*
X68765730Y-71676732D01*
X68867568Y-72188706D01*
X69067331Y-72670976D01*
X69357341Y-73105006D01*
X69726454Y-73474119D01*
X70160484Y-73764129D01*
X70642754Y-73963892D01*
X71154728Y-74065730D01*
X71676732Y-74065730D01*
X72188706Y-73963892D01*
X72670976Y-73764129D01*
X73105006Y-73474119D01*
X73474119Y-73105006D01*
X73764129Y-72670976D01*
X73963892Y-72188706D01*
X74065730Y-71676732D01*
X74065730Y-71154728D01*
X125934270Y-71154728D01*
X125934270Y-71676732D01*
X126036108Y-72188706D01*
X126235871Y-72670976D01*
X126525881Y-73105006D01*
X126894994Y-73474119D01*
X127329024Y-73764129D01*
X127811294Y-73963892D01*
X128323268Y-74065730D01*
X128845272Y-74065730D01*
X129357246Y-73963892D01*
X129839516Y-73764129D01*
X130273546Y-73474119D01*
X130642659Y-73105006D01*
X130932669Y-72670976D01*
X131132432Y-72188706D01*
X131234270Y-71676732D01*
X131234270Y-71154728D01*
X131132432Y-70642754D01*
X130932669Y-70160484D01*
X130642659Y-69726454D01*
X130273546Y-69357341D01*
X129839516Y-69067331D01*
X129357246Y-68867568D01*
X128845272Y-68765730D01*
X128323268Y-68765730D01*
X127811294Y-68867568D01*
X127329024Y-69067331D01*
X126894994Y-69357341D01*
X126525881Y-69726454D01*
X126235871Y-70160484D01*
X126036108Y-70642754D01*
X125934270Y-71154728D01*
X74065730Y-71154728D01*
X73963892Y-70642754D01*
X73764129Y-70160484D01*
X73474119Y-69726454D01*
X73105006Y-69357341D01*
X72670976Y-69067331D01*
X72188706Y-68867568D01*
X71676732Y-68765730D01*
X71154728Y-68765730D01*
X70642754Y-68867568D01*
X70160484Y-69067331D01*
X69726454Y-69357341D01*
X69357341Y-69726454D01*
X69067331Y-70160484D01*
X68867568Y-70642754D01*
X68765730Y-71154728D01*
X66272133Y-71154728D01*
X67040839Y-70250540D01*
X68863181Y-68348221D01*
X70795140Y-66557322D01*
X72011905Y-65556789D01*
X101500000Y-65556789D01*
X101500000Y-66443211D01*
X101672932Y-67312602D01*
X102012151Y-68131550D01*
X102504621Y-68868583D01*
X103131417Y-69495379D01*
X103868450Y-69987849D01*
X104687398Y-70327068D01*
X105556789Y-70500000D01*
X106443211Y-70500000D01*
X107312602Y-70327068D01*
X108131550Y-69987849D01*
X108868583Y-69495379D01*
X109495379Y-68868583D01*
X109987849Y-68131550D01*
X110327068Y-67312602D01*
X110500000Y-66443211D01*
X110500000Y-65556789D01*
X110327068Y-64687398D01*
X109987849Y-63868450D01*
X109495379Y-63131417D01*
X108868583Y-62504621D01*
X108131550Y-62012151D01*
X107312602Y-61672932D01*
X106443211Y-61500000D01*
X105556789Y-61500000D01*
X104687398Y-61672932D01*
X103868450Y-62012151D01*
X103131417Y-62504621D01*
X102504621Y-63131417D01*
X102012151Y-63868450D01*
X101672932Y-64687398D01*
X101500000Y-65556789D01*
X72011905Y-65556789D01*
X72829909Y-64884153D01*
X74960321Y-63334607D01*
X77178902Y-61914123D01*
X79477794Y-60627730D01*
X81848953Y-59479930D01*
X84283994Y-58474782D01*
X86774367Y-57615815D01*
X89311297Y-56906054D01*
X91885851Y-56347999D01*
X94488992Y-55943611D01*
X97111505Y-55694320D01*
X99744183Y-55601000D01*
X102377800Y-55663980D01*
%TA.AperFunction,Conductor*%
D18*
G36*
X102377800Y-55663980D02*
G01*
X105003010Y-55883037D01*
X107610642Y-56257404D01*
X110191451Y-56785755D01*
X112736389Y-57466237D01*
X115236498Y-58296454D01*
X117682974Y-59273485D01*
X120067167Y-60393872D01*
X122380753Y-61653703D01*
X124615537Y-63048520D01*
X126763666Y-64573417D01*
X128817576Y-66223027D01*
X130770054Y-67991559D01*
X132614191Y-69872750D01*
X134343523Y-71860011D01*
X135951950Y-73946327D01*
X137433826Y-76124380D01*
X138783908Y-78386461D01*
X139997462Y-80724635D01*
X141070209Y-83130665D01*
X141998379Y-85596085D01*
X142778701Y-88112220D01*
X143408420Y-90670176D01*
X143885334Y-93261004D01*
X144207754Y-95875545D01*
X144374547Y-98504606D01*
X144385126Y-101138928D01*
X144239455Y-103769243D01*
X143938045Y-106386301D01*
X143481958Y-108980865D01*
X142872800Y-111543814D01*
X142112717Y-114066117D01*
X141204377Y-116538920D01*
X140150992Y-118953481D01*
X138956257Y-121301330D01*
X137624378Y-123574198D01*
X136160057Y-125764062D01*
X134568440Y-127863229D01*
X132855120Y-129864321D01*
X131026142Y-131760276D01*
X129087948Y-133544416D01*
X127041802Y-135215004D01*
X126798079Y-135400000D01*
X122248528Y-135400000D01*
X120600000Y-133751473D01*
X120600000Y-128323268D01*
X125934270Y-128323268D01*
X125934270Y-128845272D01*
X126036108Y-129357246D01*
X126235871Y-129839516D01*
X126525881Y-130273546D01*
X126894994Y-130642659D01*
X127329024Y-130932669D01*
X127811294Y-131132432D01*
X128323268Y-131234270D01*
X128845272Y-131234270D01*
X129357246Y-131132432D01*
X129839516Y-130932669D01*
X130273546Y-130642659D01*
X130642659Y-130273546D01*
X130932669Y-129839516D01*
X131132432Y-129357246D01*
X131234270Y-128845272D01*
X131234270Y-128323268D01*
X131132432Y-127811294D01*
X130932669Y-127329024D01*
X130642659Y-126894994D01*
X130273546Y-126525881D01*
X129839516Y-126235871D01*
X129357246Y-126036108D01*
X128845272Y-125934270D01*
X128323268Y-125934270D01*
X127811294Y-126036108D01*
X127329024Y-126235871D01*
X126894994Y-126525881D01*
X126525881Y-126894994D01*
X126235871Y-127329024D01*
X126036108Y-127811294D01*
X125934270Y-128323268D01*
X120600000Y-128323268D01*
X120600000Y-127029474D01*
X120602903Y-127000000D01*
X120597632Y-126946479D01*
X120591318Y-126882379D01*
X120557010Y-126769279D01*
X120501296Y-126665045D01*
X120426317Y-126573683D01*
X120334955Y-126498704D01*
X120271766Y-126464929D01*
X120297570Y-126426310D01*
X120365414Y-126262520D01*
X120400000Y-126088642D01*
X120400000Y-125911358D01*
X121600000Y-125911358D01*
X121600000Y-126088642D01*
X121634586Y-126262520D01*
X121702430Y-126426310D01*
X121800924Y-126573717D01*
X121926283Y-126699076D01*
X122073690Y-126797570D01*
X122237480Y-126865414D01*
X122411358Y-126900000D01*
X122588642Y-126900000D01*
X122762520Y-126865414D01*
X122926310Y-126797570D01*
X123073717Y-126699076D01*
X123199076Y-126573717D01*
X123297570Y-126426310D01*
X123365414Y-126262520D01*
X123400000Y-126088642D01*
X123400000Y-125911358D01*
X123365414Y-125737480D01*
X123297570Y-125573690D01*
X123199076Y-125426283D01*
X123073717Y-125300924D01*
X122926310Y-125202430D01*
X122762520Y-125134586D01*
X122588642Y-125100000D01*
X122411358Y-125100000D01*
X122237480Y-125134586D01*
X122073690Y-125202430D01*
X121926283Y-125300924D01*
X121800924Y-125426283D01*
X121702430Y-125573690D01*
X121634586Y-125737480D01*
X121600000Y-125911358D01*
X120400000Y-125911358D01*
X120365414Y-125737480D01*
X120297570Y-125573690D01*
X120199076Y-125426283D01*
X120073717Y-125300924D01*
X119926310Y-125202430D01*
X119762520Y-125134586D01*
X119588642Y-125100000D01*
X119411358Y-125100000D01*
X119237480Y-125134586D01*
X119073690Y-125202430D01*
X118926283Y-125300924D01*
X118800924Y-125426283D01*
X118702430Y-125573690D01*
X118634586Y-125737480D01*
X118600000Y-125911358D01*
X118600000Y-126088642D01*
X118634586Y-126262520D01*
X118691532Y-126400000D01*
X117308468Y-126400000D01*
X117365414Y-126262520D01*
X117400000Y-126088642D01*
X117400000Y-125911358D01*
X117365414Y-125737480D01*
X117297570Y-125573690D01*
X117199076Y-125426283D01*
X117073717Y-125300924D01*
X116926310Y-125202430D01*
X116762520Y-125134586D01*
X116588642Y-125100000D01*
X116411358Y-125100000D01*
X116237480Y-125134586D01*
X116073690Y-125202430D01*
X115926283Y-125300924D01*
X115800924Y-125426283D01*
X115702430Y-125573690D01*
X115634586Y-125737480D01*
X115600000Y-125911358D01*
X115600000Y-126088642D01*
X115634586Y-126262520D01*
X115691532Y-126400000D01*
X114308468Y-126400000D01*
X114365414Y-126262520D01*
X114400000Y-126088642D01*
X114400000Y-125911358D01*
X114365414Y-125737480D01*
X114297570Y-125573690D01*
X114199076Y-125426283D01*
X114073717Y-125300924D01*
X113926310Y-125202430D01*
X113762520Y-125134586D01*
X113588642Y-125100000D01*
X113411358Y-125100000D01*
X113237480Y-125134586D01*
X113073690Y-125202430D01*
X112926283Y-125300924D01*
X112800924Y-125426283D01*
X112702430Y-125573690D01*
X112634586Y-125737480D01*
X112600000Y-125911358D01*
X112600000Y-126088642D01*
X112634586Y-126262520D01*
X112691532Y-126400000D01*
X110808468Y-126400000D01*
X110865414Y-126262520D01*
X110900000Y-126088642D01*
X110900000Y-125911358D01*
X110865414Y-125737480D01*
X110797570Y-125573690D01*
X110699076Y-125426283D01*
X110573717Y-125300924D01*
X110426310Y-125202430D01*
X110262520Y-125134586D01*
X110088642Y-125100000D01*
X109911358Y-125100000D01*
X109737480Y-125134586D01*
X109573690Y-125202430D01*
X109426283Y-125300924D01*
X109300924Y-125426283D01*
X109202430Y-125573690D01*
X109134586Y-125737480D01*
X109100000Y-125911358D01*
X109100000Y-126088642D01*
X109134586Y-126262520D01*
X109191532Y-126400000D01*
X107808468Y-126400000D01*
X107865414Y-126262520D01*
X107900000Y-126088642D01*
X107900000Y-125911358D01*
X107865414Y-125737480D01*
X107797570Y-125573690D01*
X107699076Y-125426283D01*
X107573717Y-125300924D01*
X107426310Y-125202430D01*
X107262520Y-125134586D01*
X107088642Y-125100000D01*
X106911358Y-125100000D01*
X106737480Y-125134586D01*
X106700000Y-125150111D01*
X106700000Y-124411358D01*
X107600000Y-124411358D01*
X107600000Y-124588642D01*
X107634586Y-124762520D01*
X107702430Y-124926310D01*
X107800924Y-125073717D01*
X107926283Y-125199076D01*
X108073690Y-125297570D01*
X108237480Y-125365414D01*
X108411358Y-125400000D01*
X108588642Y-125400000D01*
X108762520Y-125365414D01*
X108926310Y-125297570D01*
X109073717Y-125199076D01*
X109199076Y-125073717D01*
X109297570Y-124926310D01*
X109365414Y-124762520D01*
X109400000Y-124588642D01*
X109400000Y-124411358D01*
X110600000Y-124411358D01*
X110600000Y-124588642D01*
X110634586Y-124762520D01*
X110702430Y-124926310D01*
X110800924Y-125073717D01*
X110926283Y-125199076D01*
X111073690Y-125297570D01*
X111237480Y-125365414D01*
X111411358Y-125400000D01*
X111588642Y-125400000D01*
X111762520Y-125365414D01*
X111926310Y-125297570D01*
X112073717Y-125199076D01*
X112199076Y-125073717D01*
X112297570Y-124926310D01*
X112365414Y-124762520D01*
X112400000Y-124588642D01*
X112400000Y-124411358D01*
X114100000Y-124411358D01*
X114100000Y-124588642D01*
X114134586Y-124762520D01*
X114202430Y-124926310D01*
X114300924Y-125073717D01*
X114426283Y-125199076D01*
X114573690Y-125297570D01*
X114737480Y-125365414D01*
X114911358Y-125400000D01*
X115088642Y-125400000D01*
X115262520Y-125365414D01*
X115426310Y-125297570D01*
X115573717Y-125199076D01*
X115699076Y-125073717D01*
X115797570Y-124926310D01*
X115865414Y-124762520D01*
X115900000Y-124588642D01*
X115900000Y-124411358D01*
X117100000Y-124411358D01*
X117100000Y-124588642D01*
X117134586Y-124762520D01*
X117202430Y-124926310D01*
X117300924Y-125073717D01*
X117426283Y-125199076D01*
X117573690Y-125297570D01*
X117737480Y-125365414D01*
X117911358Y-125400000D01*
X118088642Y-125400000D01*
X118262520Y-125365414D01*
X118426310Y-125297570D01*
X118573717Y-125199076D01*
X118699076Y-125073717D01*
X118797570Y-124926310D01*
X118865414Y-124762520D01*
X118900000Y-124588642D01*
X118900000Y-124411358D01*
X120100000Y-124411358D01*
X120100000Y-124588642D01*
X120134586Y-124762520D01*
X120202430Y-124926310D01*
X120300924Y-125073717D01*
X120426283Y-125199076D01*
X120573690Y-125297570D01*
X120737480Y-125365414D01*
X120911358Y-125400000D01*
X121088642Y-125400000D01*
X121262520Y-125365414D01*
X121426310Y-125297570D01*
X121573717Y-125199076D01*
X121699076Y-125073717D01*
X121797570Y-124926310D01*
X121865414Y-124762520D01*
X121900000Y-124588642D01*
X121900000Y-124411358D01*
X121865414Y-124237480D01*
X121797570Y-124073690D01*
X121699076Y-123926283D01*
X121573717Y-123800924D01*
X121426310Y-123702430D01*
X121262520Y-123634586D01*
X121088642Y-123600000D01*
X120911358Y-123600000D01*
X120737480Y-123634586D01*
X120573690Y-123702430D01*
X120426283Y-123800924D01*
X120300924Y-123926283D01*
X120202430Y-124073690D01*
X120134586Y-124237480D01*
X120100000Y-124411358D01*
X118900000Y-124411358D01*
X118865414Y-124237480D01*
X118797570Y-124073690D01*
X118699076Y-123926283D01*
X118573717Y-123800924D01*
X118426310Y-123702430D01*
X118262520Y-123634586D01*
X118088642Y-123600000D01*
X117911358Y-123600000D01*
X117737480Y-123634586D01*
X117573690Y-123702430D01*
X117426283Y-123800924D01*
X117300924Y-123926283D01*
X117202430Y-124073690D01*
X117134586Y-124237480D01*
X117100000Y-124411358D01*
X115900000Y-124411358D01*
X115865414Y-124237480D01*
X115797570Y-124073690D01*
X115699076Y-123926283D01*
X115573717Y-123800924D01*
X115426310Y-123702430D01*
X115262520Y-123634586D01*
X115088642Y-123600000D01*
X114911358Y-123600000D01*
X114737480Y-123634586D01*
X114573690Y-123702430D01*
X114426283Y-123800924D01*
X114300924Y-123926283D01*
X114202430Y-124073690D01*
X114134586Y-124237480D01*
X114100000Y-124411358D01*
X112400000Y-124411358D01*
X112365414Y-124237480D01*
X112297570Y-124073690D01*
X112199076Y-123926283D01*
X112073717Y-123800924D01*
X111926310Y-123702430D01*
X111762520Y-123634586D01*
X111588642Y-123600000D01*
X111411358Y-123600000D01*
X111237480Y-123634586D01*
X111073690Y-123702430D01*
X110926283Y-123800924D01*
X110800924Y-123926283D01*
X110702430Y-124073690D01*
X110634586Y-124237480D01*
X110600000Y-124411358D01*
X109400000Y-124411358D01*
X109365414Y-124237480D01*
X109297570Y-124073690D01*
X109199076Y-123926283D01*
X109073717Y-123800924D01*
X108926310Y-123702430D01*
X108762520Y-123634586D01*
X108588642Y-123600000D01*
X108411358Y-123600000D01*
X108237480Y-123634586D01*
X108073690Y-123702430D01*
X107926283Y-123800924D01*
X107800924Y-123926283D01*
X107702430Y-124073690D01*
X107634586Y-124237480D01*
X107600000Y-124411358D01*
X106700000Y-124411358D01*
X106700000Y-123849889D01*
X106737480Y-123865414D01*
X106911358Y-123900000D01*
X107088642Y-123900000D01*
X107262520Y-123865414D01*
X107426310Y-123797570D01*
X107573717Y-123699076D01*
X107699076Y-123573717D01*
X107797570Y-123426310D01*
X107865414Y-123262520D01*
X107900000Y-123088642D01*
X107900000Y-122911358D01*
X109100000Y-122911358D01*
X109100000Y-123088642D01*
X109134586Y-123262520D01*
X109202430Y-123426310D01*
X109300924Y-123573717D01*
X109426283Y-123699076D01*
X109573690Y-123797570D01*
X109737480Y-123865414D01*
X109911358Y-123900000D01*
X110088642Y-123900000D01*
X110262520Y-123865414D01*
X110426310Y-123797570D01*
X110573717Y-123699076D01*
X110699076Y-123573717D01*
X110797570Y-123426310D01*
X110865414Y-123262520D01*
X110900000Y-123088642D01*
X110900000Y-122911358D01*
X112600000Y-122911358D01*
X112600000Y-123088642D01*
X112634586Y-123262520D01*
X112702430Y-123426310D01*
X112800924Y-123573717D01*
X112926283Y-123699076D01*
X113073690Y-123797570D01*
X113237480Y-123865414D01*
X113411358Y-123900000D01*
X113588642Y-123900000D01*
X113762520Y-123865414D01*
X113926310Y-123797570D01*
X114073717Y-123699076D01*
X114199076Y-123573717D01*
X114297570Y-123426310D01*
X114365414Y-123262520D01*
X114400000Y-123088642D01*
X114400000Y-122911358D01*
X121600000Y-122911358D01*
X121600000Y-123088642D01*
X121634586Y-123262520D01*
X121702430Y-123426310D01*
X121800924Y-123573717D01*
X121926283Y-123699076D01*
X122073690Y-123797570D01*
X122237480Y-123865414D01*
X122411358Y-123900000D01*
X122588642Y-123900000D01*
X122762520Y-123865414D01*
X122926310Y-123797570D01*
X123073717Y-123699076D01*
X123199076Y-123573717D01*
X123297570Y-123426310D01*
X123365414Y-123262520D01*
X123400000Y-123088642D01*
X123400000Y-122911358D01*
X123365414Y-122737480D01*
X123297570Y-122573690D01*
X123199076Y-122426283D01*
X123073717Y-122300924D01*
X122926310Y-122202430D01*
X122762520Y-122134586D01*
X122588642Y-122100000D01*
X122411358Y-122100000D01*
X122237480Y-122134586D01*
X122073690Y-122202430D01*
X121926283Y-122300924D01*
X121800924Y-122426283D01*
X121702430Y-122573690D01*
X121634586Y-122737480D01*
X121600000Y-122911358D01*
X114400000Y-122911358D01*
X114365414Y-122737480D01*
X114297570Y-122573690D01*
X114199076Y-122426283D01*
X114073717Y-122300924D01*
X113926310Y-122202430D01*
X113762520Y-122134586D01*
X113588642Y-122100000D01*
X113411358Y-122100000D01*
X113237480Y-122134586D01*
X113073690Y-122202430D01*
X112926283Y-122300924D01*
X112800924Y-122426283D01*
X112702430Y-122573690D01*
X112634586Y-122737480D01*
X112600000Y-122911358D01*
X110900000Y-122911358D01*
X110865414Y-122737480D01*
X110797570Y-122573690D01*
X110699076Y-122426283D01*
X110573717Y-122300924D01*
X110426310Y-122202430D01*
X110262520Y-122134586D01*
X110088642Y-122100000D01*
X109911358Y-122100000D01*
X109737480Y-122134586D01*
X109573690Y-122202430D01*
X109426283Y-122300924D01*
X109300924Y-122426283D01*
X109202430Y-122573690D01*
X109134586Y-122737480D01*
X109100000Y-122911358D01*
X107900000Y-122911358D01*
X107865414Y-122737480D01*
X107797570Y-122573690D01*
X107699076Y-122426283D01*
X107573717Y-122300924D01*
X107426310Y-122202430D01*
X107262520Y-122134586D01*
X107088642Y-122100000D01*
X106911358Y-122100000D01*
X106737480Y-122134586D01*
X106700000Y-122150111D01*
X106700000Y-116021207D01*
X109335000Y-116021207D01*
X109335000Y-116178793D01*
X109365743Y-116333351D01*
X109426049Y-116478942D01*
X109513599Y-116609970D01*
X109625030Y-116721401D01*
X109756058Y-116808951D01*
X109901649Y-116869257D01*
X110056207Y-116900000D01*
X110213793Y-116900000D01*
X110368351Y-116869257D01*
X110513942Y-116808951D01*
X110644970Y-116721401D01*
X110756401Y-116609970D01*
X110843951Y-116478942D01*
X110904257Y-116333351D01*
X110935000Y-116178793D01*
X110935000Y-116021207D01*
X110904257Y-115866649D01*
X110843951Y-115721058D01*
X110756401Y-115590030D01*
X110644970Y-115478599D01*
X110513942Y-115391049D01*
X110368351Y-115330743D01*
X110213793Y-115300000D01*
X110056207Y-115300000D01*
X109901649Y-115330743D01*
X109756058Y-115391049D01*
X109625030Y-115478599D01*
X109513599Y-115590030D01*
X109426049Y-115721058D01*
X109365743Y-115866649D01*
X109335000Y-116021207D01*
X106700000Y-116021207D01*
X106700000Y-114221207D01*
X114200000Y-114221207D01*
X114200000Y-114378793D01*
X114230743Y-114533351D01*
X114291049Y-114678942D01*
X114378599Y-114809970D01*
X114490030Y-114921401D01*
X114621058Y-115008951D01*
X114766649Y-115069257D01*
X114921207Y-115100000D01*
X115078793Y-115100000D01*
X115233351Y-115069257D01*
X115378942Y-115008951D01*
X115509970Y-114921401D01*
X115621401Y-114809970D01*
X115708951Y-114678942D01*
X115769257Y-114533351D01*
X115800000Y-114378793D01*
X115800000Y-114221207D01*
X115769257Y-114066649D01*
X115708951Y-113921058D01*
X115621401Y-113790030D01*
X115509970Y-113678599D01*
X115378942Y-113591049D01*
X115233351Y-113530743D01*
X115078793Y-113500000D01*
X114921207Y-113500000D01*
X114766649Y-113530743D01*
X114621058Y-113591049D01*
X114490030Y-113678599D01*
X114378599Y-113790030D01*
X114291049Y-113921058D01*
X114230743Y-114066649D01*
X114200000Y-114221207D01*
X106700000Y-114221207D01*
X106700000Y-111400145D01*
X106695721Y-111334871D01*
X106678678Y-111205438D01*
X106644883Y-111079337D01*
X106594915Y-110958728D01*
X106529628Y-110845673D01*
X106450141Y-110742110D01*
X106357814Y-110649811D01*
X106254228Y-110570355D01*
X106141157Y-110505103D01*
X106020534Y-110455170D01*
X105894425Y-110421411D01*
X105764987Y-110404405D01*
X105699710Y-110400145D01*
X104026628Y-110400630D01*
X104094732Y-110282671D01*
X104144682Y-110162081D01*
X104185762Y-110008769D01*
X104197289Y-109921207D01*
X106100000Y-109921207D01*
X106100000Y-110078793D01*
X106130743Y-110233351D01*
X106191049Y-110378942D01*
X106278599Y-110509970D01*
X106390030Y-110621401D01*
X106521058Y-110708951D01*
X106666649Y-110769257D01*
X106821207Y-110800000D01*
X106978793Y-110800000D01*
X107133351Y-110769257D01*
X107278942Y-110708951D01*
X107409970Y-110621401D01*
X107521401Y-110509970D01*
X107608951Y-110378942D01*
X107669257Y-110233351D01*
X107700000Y-110078793D01*
X107700000Y-109921207D01*
X107669257Y-109766649D01*
X107608951Y-109621058D01*
X107521401Y-109490030D01*
X107409970Y-109378599D01*
X107278942Y-109291049D01*
X107133351Y-109230743D01*
X106978793Y-109200000D01*
X106821207Y-109200000D01*
X106666649Y-109230743D01*
X106521058Y-109291049D01*
X106390030Y-109378599D01*
X106278599Y-109490030D01*
X106191049Y-109621058D01*
X106130743Y-109766649D01*
X106100000Y-109921207D01*
X104197289Y-109921207D01*
X104202799Y-109879359D01*
X104208000Y-109800000D01*
X104208000Y-107021207D01*
X109300000Y-107021207D01*
X109300000Y-107178793D01*
X109330743Y-107333351D01*
X109391049Y-107478942D01*
X109478599Y-107609970D01*
X109590030Y-107721401D01*
X109721058Y-107808951D01*
X109866649Y-107869257D01*
X110021207Y-107900000D01*
X110178793Y-107900000D01*
X110333351Y-107869257D01*
X110478942Y-107808951D01*
X110609970Y-107721401D01*
X110721401Y-107609970D01*
X110808951Y-107478942D01*
X110847019Y-107387037D01*
X121250000Y-107387037D01*
X121250000Y-107652963D01*
X121301880Y-107913780D01*
X121403646Y-108159465D01*
X121551387Y-108380575D01*
X121739425Y-108568613D01*
X121960535Y-108716354D01*
X122206220Y-108818120D01*
X122467037Y-108870000D01*
X122732963Y-108870000D01*
X122993780Y-108818120D01*
X123239465Y-108716354D01*
X123460575Y-108568613D01*
X123648613Y-108380575D01*
X123796354Y-108159465D01*
X123898120Y-107913780D01*
X123950000Y-107652963D01*
X123950000Y-107387037D01*
X123898120Y-107126220D01*
X123796354Y-106880535D01*
X123648613Y-106659425D01*
X123460575Y-106471387D01*
X123239465Y-106323646D01*
X122993780Y-106221880D01*
X122750002Y-106173389D01*
X122750002Y-106120975D01*
X122942284Y-106182230D01*
X123170251Y-106092353D01*
X123376303Y-105959729D01*
X123552522Y-105789455D01*
X123692136Y-105588074D01*
X123789780Y-105363325D01*
X123802223Y-105322283D01*
X123740175Y-105130000D01*
X122750000Y-105130000D01*
X122750000Y-105150000D01*
X122450000Y-105150000D01*
X122450000Y-105130000D01*
X121459825Y-105130000D01*
X121397777Y-105322283D01*
X121410220Y-105363325D01*
X121507864Y-105588074D01*
X121647478Y-105789455D01*
X121823697Y-105959729D01*
X122029749Y-106092353D01*
X122257716Y-106182230D01*
X122449998Y-106120975D01*
X122449998Y-106173389D01*
X122206220Y-106221880D01*
X121960535Y-106323646D01*
X121739425Y-106471387D01*
X121551387Y-106659425D01*
X121403646Y-106880535D01*
X121301880Y-107126220D01*
X121250000Y-107387037D01*
X110847019Y-107387037D01*
X110869257Y-107333351D01*
X110900000Y-107178793D01*
X110900000Y-107021207D01*
X110869257Y-106866649D01*
X110808951Y-106721058D01*
X110721401Y-106590030D01*
X110609970Y-106478599D01*
X110478942Y-106391049D01*
X110333351Y-106330743D01*
X110178793Y-106300000D01*
X110021207Y-106300000D01*
X109866649Y-106330743D01*
X109721058Y-106391049D01*
X109590030Y-106478599D01*
X109478599Y-106590030D01*
X109391049Y-106721058D01*
X109330743Y-106866649D01*
X109300000Y-107021207D01*
X104208000Y-107021207D01*
X104208000Y-105321207D01*
X110500000Y-105321207D01*
X110500000Y-105478793D01*
X110530743Y-105633351D01*
X110591049Y-105778942D01*
X110678599Y-105909970D01*
X110790030Y-106021401D01*
X110921058Y-106108951D01*
X111066649Y-106169257D01*
X111221207Y-106200000D01*
X111378793Y-106200000D01*
X111533351Y-106169257D01*
X111673131Y-106111358D01*
X119100000Y-106111358D01*
X119100000Y-106288642D01*
X119134586Y-106462520D01*
X119202430Y-106626310D01*
X119300924Y-106773717D01*
X119426283Y-106899076D01*
X119573690Y-106997570D01*
X119737480Y-107065414D01*
X119911358Y-107100000D01*
X120088642Y-107100000D01*
X120262520Y-107065414D01*
X120426310Y-106997570D01*
X120573717Y-106899076D01*
X120699076Y-106773717D01*
X120797570Y-106626310D01*
X120865414Y-106462520D01*
X120900000Y-106288642D01*
X120900000Y-106111358D01*
X120865414Y-105937480D01*
X120797570Y-105773690D01*
X120699076Y-105626283D01*
X120573717Y-105500924D01*
X120426310Y-105402430D01*
X120262520Y-105334586D01*
X120088642Y-105300000D01*
X119911358Y-105300000D01*
X119737480Y-105334586D01*
X119573690Y-105402430D01*
X119426283Y-105500924D01*
X119300924Y-105626283D01*
X119202430Y-105773690D01*
X119134586Y-105937480D01*
X119100000Y-106111358D01*
X111673131Y-106111358D01*
X111678942Y-106108951D01*
X111809970Y-106021401D01*
X111921401Y-105909970D01*
X112008951Y-105778942D01*
X112069257Y-105633351D01*
X112100000Y-105478793D01*
X112100000Y-105321207D01*
X112069257Y-105166649D01*
X112008951Y-105021058D01*
X111921401Y-104890030D01*
X111809970Y-104778599D01*
X111678942Y-104691049D01*
X111550188Y-104637717D01*
X121397777Y-104637717D01*
X121459825Y-104830000D01*
X122450000Y-104830000D01*
X122450000Y-103839026D01*
X122750000Y-103839026D01*
X122750000Y-104830000D01*
X123740175Y-104830000D01*
X123802223Y-104637717D01*
X123789780Y-104596675D01*
X123692136Y-104371926D01*
X123552522Y-104170545D01*
X123376303Y-104000271D01*
X123170251Y-103867647D01*
X122942284Y-103777770D01*
X122750000Y-103839026D01*
X122450000Y-103839026D01*
X122257716Y-103777770D01*
X122029749Y-103867647D01*
X121823697Y-104000271D01*
X121647478Y-104170545D01*
X121507864Y-104371926D01*
X121410220Y-104596675D01*
X121397777Y-104637717D01*
X111550188Y-104637717D01*
X111533351Y-104630743D01*
X111378793Y-104600000D01*
X111221207Y-104600000D01*
X111066649Y-104630743D01*
X110921058Y-104691049D01*
X110790030Y-104778599D01*
X110678599Y-104890030D01*
X110591049Y-105021058D01*
X110530743Y-105166649D01*
X110500000Y-105321207D01*
X104208000Y-105321207D01*
X104208000Y-104000000D01*
X104202799Y-103920641D01*
X104185762Y-103791231D01*
X104144682Y-103637919D01*
X104094732Y-103517329D01*
X104015370Y-103379870D01*
X103935910Y-103276317D01*
X103823683Y-103164090D01*
X103720130Y-103084630D01*
X103582671Y-103005268D01*
X103462081Y-102955318D01*
X103308769Y-102914238D01*
X103179359Y-102897201D01*
X103100000Y-102892000D01*
X98604311Y-102892000D01*
X98709970Y-102821401D01*
X98749088Y-102782283D01*
X121397777Y-102782283D01*
X121410220Y-102823325D01*
X121507864Y-103048074D01*
X121647478Y-103249455D01*
X121823697Y-103419729D01*
X122029749Y-103552353D01*
X122257716Y-103642230D01*
X122450000Y-103580974D01*
X122450000Y-102590000D01*
X122750000Y-102590000D01*
X122750000Y-103580974D01*
X122942284Y-103642230D01*
X123170251Y-103552353D01*
X123376303Y-103419729D01*
X123552522Y-103249455D01*
X123692136Y-103048074D01*
X123789780Y-102823325D01*
X123802223Y-102782283D01*
X123740175Y-102590000D01*
X122750000Y-102590000D01*
X122450000Y-102590000D01*
X121459825Y-102590000D01*
X121397777Y-102782283D01*
X98749088Y-102782283D01*
X98821401Y-102709970D01*
X98908951Y-102578942D01*
X98969257Y-102433351D01*
X99000000Y-102278793D01*
X99000000Y-102121207D01*
X98969257Y-101966649D01*
X98908951Y-101821058D01*
X98877027Y-101773280D01*
X99011358Y-101800000D01*
X99188642Y-101800000D01*
X99362520Y-101765414D01*
X99526310Y-101697570D01*
X99673717Y-101599076D01*
X99799076Y-101473717D01*
X99897570Y-101326310D01*
X99965414Y-101162520D01*
X100000000Y-100988642D01*
X100000000Y-100811358D01*
X99997180Y-100797180D01*
X100011358Y-100800000D01*
X100188642Y-100800000D01*
X100202820Y-100797180D01*
X100200000Y-100811358D01*
X100200000Y-100988642D01*
X100234586Y-101162520D01*
X100302430Y-101326310D01*
X100400924Y-101473717D01*
X100526283Y-101599076D01*
X100673690Y-101697570D01*
X100837480Y-101765414D01*
X101011358Y-101800000D01*
X101188642Y-101800000D01*
X101362520Y-101765414D01*
X101526310Y-101697570D01*
X101673717Y-101599076D01*
X101799076Y-101473717D01*
X101897570Y-101326310D01*
X101965414Y-101162520D01*
X102000000Y-100988642D01*
X102000000Y-100811358D01*
X101997180Y-100797180D01*
X102011358Y-100800000D01*
X102188642Y-100800000D01*
X102202820Y-100797180D01*
X102200000Y-100811358D01*
X102200000Y-100988642D01*
X102234586Y-101162520D01*
X102302430Y-101326310D01*
X102400924Y-101473717D01*
X102526283Y-101599076D01*
X102673690Y-101697570D01*
X102837480Y-101765414D01*
X103011358Y-101800000D01*
X103188642Y-101800000D01*
X103362520Y-101765414D01*
X103526310Y-101697570D01*
X103673717Y-101599076D01*
X103799076Y-101473717D01*
X103897570Y-101326310D01*
X103965414Y-101162520D01*
X104000000Y-100988642D01*
X104000000Y-100811358D01*
X103997180Y-100797180D01*
X104011358Y-100800000D01*
X104188642Y-100800000D01*
X104202820Y-100797180D01*
X104200000Y-100811358D01*
X104200000Y-100988642D01*
X104234586Y-101162520D01*
X104302430Y-101326310D01*
X104400924Y-101473717D01*
X104526283Y-101599076D01*
X104673690Y-101697570D01*
X104837480Y-101765414D01*
X105011358Y-101800000D01*
X105188642Y-101800000D01*
X105362520Y-101765414D01*
X105526310Y-101697570D01*
X105673717Y-101599076D01*
X105799076Y-101473717D01*
X105897570Y-101326310D01*
X105965414Y-101162520D01*
X106000000Y-100988642D01*
X106000000Y-100811358D01*
X105965414Y-100637480D01*
X105897570Y-100473690D01*
X105799076Y-100326283D01*
X105673717Y-100200924D01*
X105526310Y-100102430D01*
X105362520Y-100034586D01*
X105188642Y-100000000D01*
X105011358Y-100000000D01*
X104997180Y-100002820D01*
X105000000Y-99988642D01*
X105000000Y-99811358D01*
X104997180Y-99797180D01*
X105011358Y-99800000D01*
X105188642Y-99800000D01*
X105362520Y-99765414D01*
X105526310Y-99697570D01*
X105673717Y-99599076D01*
X105799076Y-99473717D01*
X105897570Y-99326310D01*
X105965414Y-99162520D01*
X105987795Y-99050000D01*
X121247581Y-99050000D01*
X121247581Y-100750000D01*
X121257235Y-100848017D01*
X121285825Y-100942267D01*
X121332254Y-101029129D01*
X121394736Y-101105264D01*
X121470871Y-101167746D01*
X121557733Y-101214175D01*
X121651983Y-101242765D01*
X121750000Y-101252419D01*
X122220560Y-101252419D01*
X122029749Y-101327647D01*
X121823697Y-101460271D01*
X121647478Y-101630545D01*
X121507864Y-101831926D01*
X121410220Y-102056675D01*
X121397777Y-102097717D01*
X121459825Y-102290000D01*
X122450000Y-102290000D01*
X122450000Y-102270000D01*
X122750000Y-102270000D01*
X122750000Y-102290000D01*
X123740175Y-102290000D01*
X123802223Y-102097717D01*
X123789780Y-102056675D01*
X123692136Y-101831926D01*
X123552522Y-101630545D01*
X123376303Y-101460271D01*
X123170251Y-101327647D01*
X122979440Y-101252419D01*
X123450000Y-101252419D01*
X123548017Y-101242765D01*
X123642267Y-101214175D01*
X123729129Y-101167746D01*
X123805264Y-101105264D01*
X123867746Y-101029129D01*
X123914175Y-100942267D01*
X123942765Y-100848017D01*
X123952419Y-100750000D01*
X123952419Y-99050000D01*
X123942765Y-98951983D01*
X123914175Y-98857733D01*
X123867746Y-98770871D01*
X123805264Y-98694736D01*
X123729129Y-98632254D01*
X123642267Y-98585825D01*
X123548017Y-98557235D01*
X123450000Y-98547581D01*
X121750000Y-98547581D01*
X121651983Y-98557235D01*
X121557733Y-98585825D01*
X121470871Y-98632254D01*
X121394736Y-98694736D01*
X121332254Y-98770871D01*
X121285825Y-98857733D01*
X121257235Y-98951983D01*
X121247581Y-99050000D01*
X105987795Y-99050000D01*
X106000000Y-98988642D01*
X106000000Y-98811358D01*
X105965414Y-98637480D01*
X105897570Y-98473690D01*
X105799076Y-98326283D01*
X105673717Y-98200924D01*
X105526310Y-98102430D01*
X105362520Y-98034586D01*
X105188642Y-98000000D01*
X105011358Y-98000000D01*
X104837480Y-98034586D01*
X104673690Y-98102430D01*
X104526283Y-98200924D01*
X104400924Y-98326283D01*
X104302430Y-98473690D01*
X104234586Y-98637480D01*
X104200000Y-98811358D01*
X104200000Y-98988642D01*
X104202820Y-99002820D01*
X104188642Y-99000000D01*
X104011358Y-99000000D01*
X103997180Y-99002820D01*
X104000000Y-98988642D01*
X104000000Y-98811358D01*
X103965414Y-98637480D01*
X103897570Y-98473690D01*
X103799076Y-98326283D01*
X103673717Y-98200924D01*
X103526310Y-98102430D01*
X103362520Y-98034586D01*
X103188642Y-98000000D01*
X103011358Y-98000000D01*
X102837480Y-98034586D01*
X102673690Y-98102430D01*
X102526283Y-98200924D01*
X102400924Y-98326283D01*
X102302430Y-98473690D01*
X102234586Y-98637480D01*
X102200000Y-98811358D01*
X102200000Y-98988642D01*
X102202820Y-99002820D01*
X102188642Y-99000000D01*
X102011358Y-99000000D01*
X101997180Y-99002820D01*
X102000000Y-98988642D01*
X102000000Y-98811358D01*
X101965414Y-98637480D01*
X101897570Y-98473690D01*
X101799076Y-98326283D01*
X101673717Y-98200924D01*
X101526310Y-98102430D01*
X101362520Y-98034586D01*
X101188642Y-98000000D01*
X101011358Y-98000000D01*
X100837480Y-98034586D01*
X100673690Y-98102430D01*
X100526283Y-98200924D01*
X100400924Y-98326283D01*
X100302430Y-98473690D01*
X100234586Y-98637480D01*
X100200000Y-98811358D01*
X100200000Y-98988642D01*
X100202820Y-99002820D01*
X100188642Y-99000000D01*
X100011358Y-99000000D01*
X99997180Y-99002820D01*
X100000000Y-98988642D01*
X100000000Y-98811358D01*
X99965414Y-98637480D01*
X99897570Y-98473690D01*
X99799076Y-98326283D01*
X99673717Y-98200924D01*
X99526310Y-98102430D01*
X99362520Y-98034586D01*
X99188642Y-98000000D01*
X99011358Y-98000000D01*
X98837480Y-98034586D01*
X98673690Y-98102430D01*
X98526283Y-98200924D01*
X98400924Y-98326283D01*
X98302430Y-98473690D01*
X98234586Y-98637480D01*
X98200000Y-98811358D01*
X98200000Y-98988642D01*
X98202820Y-99002820D01*
X98188642Y-99000000D01*
X98108000Y-99000000D01*
X98102799Y-98920641D01*
X98085762Y-98791231D01*
X98044682Y-98637919D01*
X97994732Y-98517329D01*
X97915370Y-98379870D01*
X97835910Y-98276317D01*
X97723683Y-98164090D01*
X97620130Y-98084630D01*
X97482671Y-98005268D01*
X97362081Y-97955318D01*
X97234778Y-97921207D01*
X112000000Y-97921207D01*
X112000000Y-98078793D01*
X112030743Y-98233351D01*
X112091049Y-98378942D01*
X112178599Y-98509970D01*
X112290030Y-98621401D01*
X112421058Y-98708951D01*
X112566649Y-98769257D01*
X112721207Y-98800000D01*
X112878793Y-98800000D01*
X113033351Y-98769257D01*
X113178942Y-98708951D01*
X113309970Y-98621401D01*
X113400000Y-98531371D01*
X113490030Y-98621401D01*
X113621058Y-98708951D01*
X113766649Y-98769257D01*
X113921207Y-98800000D01*
X114078793Y-98800000D01*
X114233351Y-98769257D01*
X114378942Y-98708951D01*
X114509970Y-98621401D01*
X114621401Y-98509970D01*
X114708951Y-98378942D01*
X114769257Y-98233351D01*
X114800000Y-98078793D01*
X114800000Y-97921207D01*
X114769257Y-97766649D01*
X114708951Y-97621058D01*
X114621401Y-97490030D01*
X114509970Y-97378599D01*
X114378942Y-97291049D01*
X114233351Y-97230743D01*
X114078793Y-97200000D01*
X113921207Y-97200000D01*
X113766649Y-97230743D01*
X113621058Y-97291049D01*
X113490030Y-97378599D01*
X113400000Y-97468629D01*
X113309970Y-97378599D01*
X113178942Y-97291049D01*
X113033351Y-97230743D01*
X112878793Y-97200000D01*
X112721207Y-97200000D01*
X112566649Y-97230743D01*
X112421058Y-97291049D01*
X112290030Y-97378599D01*
X112178599Y-97490030D01*
X112091049Y-97621058D01*
X112030743Y-97766649D01*
X112000000Y-97921207D01*
X97234778Y-97921207D01*
X97208769Y-97914238D01*
X97079359Y-97897201D01*
X97000000Y-97892000D01*
X85000000Y-97892000D01*
X84920641Y-97897201D01*
X84791231Y-97914238D01*
X84637919Y-97955318D01*
X84517329Y-98005268D01*
X84379870Y-98084630D01*
X84276317Y-98164090D01*
X84164090Y-98276317D01*
X84084630Y-98379870D01*
X84005268Y-98517329D01*
X83955318Y-98637919D01*
X83914238Y-98791231D01*
X83897201Y-98920641D01*
X83892000Y-99000000D01*
X83892000Y-109800000D01*
X83897201Y-109879359D01*
X83914238Y-110008769D01*
X83955318Y-110162081D01*
X84005268Y-110282671D01*
X84076714Y-110406418D01*
X80499710Y-110407456D01*
X80434461Y-110411751D01*
X80305080Y-110428819D01*
X80179030Y-110462627D01*
X80058472Y-110512595D01*
X79945469Y-110577866D01*
X79841948Y-110657328D01*
X79749681Y-110749622D01*
X79670249Y-110853166D01*
X79605009Y-110966191D01*
X79555077Y-111086763D01*
X79521307Y-111212818D01*
X79504276Y-111342204D01*
X79500000Y-111407456D01*
X79500000Y-126500000D01*
X79504277Y-126565263D01*
X79514827Y-126645399D01*
X79498704Y-126665045D01*
X79442990Y-126769279D01*
X79408682Y-126882379D01*
X79397097Y-127000000D01*
X79400000Y-127029474D01*
X79400001Y-133751471D01*
X77751473Y-135400000D01*
X73209939Y-135400000D01*
X71300502Y-133877359D01*
X69341874Y-132115664D01*
X67491174Y-130240914D01*
X65810622Y-128323268D01*
X68765730Y-128323268D01*
X68765730Y-128845272D01*
X68867568Y-129357246D01*
X69067331Y-129839516D01*
X69357341Y-130273546D01*
X69726454Y-130642659D01*
X70160484Y-130932669D01*
X70642754Y-131132432D01*
X71154728Y-131234270D01*
X71676732Y-131234270D01*
X72188706Y-131132432D01*
X72670976Y-130932669D01*
X73105006Y-130642659D01*
X73474119Y-130273546D01*
X73764129Y-129839516D01*
X73963892Y-129357246D01*
X74065730Y-128845272D01*
X74065730Y-128323268D01*
X73963892Y-127811294D01*
X73764129Y-127329024D01*
X73474119Y-126894994D01*
X73105006Y-126525881D01*
X72670976Y-126235871D01*
X72188706Y-126036108D01*
X71676732Y-125934270D01*
X71154728Y-125934270D01*
X70642754Y-126036108D01*
X70160484Y-126235871D01*
X69726454Y-126525881D01*
X69357341Y-126894994D01*
X69067331Y-127329024D01*
X68867568Y-127811294D01*
X68765730Y-128323268D01*
X65810622Y-128323268D01*
X65754922Y-128259710D01*
X64139209Y-126179005D01*
X62649751Y-124006156D01*
X61291774Y-121748791D01*
X60070067Y-119414866D01*
X58988921Y-117012586D01*
X58052159Y-114550439D01*
X57263057Y-112037040D01*
X56624409Y-109481283D01*
X56138456Y-106892140D01*
X55806914Y-104278749D01*
X55630943Y-101650278D01*
X55611169Y-99016009D01*
X55747657Y-96385206D01*
X56039932Y-93767107D01*
X56486956Y-91170978D01*
X56547705Y-90911358D01*
X93600000Y-90911358D01*
X93600000Y-91088642D01*
X93634586Y-91262520D01*
X93702430Y-91426310D01*
X93800924Y-91573717D01*
X93926283Y-91699076D01*
X94073690Y-91797570D01*
X94237480Y-91865414D01*
X94411358Y-91900000D01*
X94588642Y-91900000D01*
X94762520Y-91865414D01*
X94926310Y-91797570D01*
X95073717Y-91699076D01*
X95199076Y-91573717D01*
X95297570Y-91426310D01*
X95365414Y-91262520D01*
X95400000Y-91088642D01*
X95400000Y-90911358D01*
X95365414Y-90737480D01*
X95297570Y-90573690D01*
X95199076Y-90426283D01*
X95073717Y-90300924D01*
X94926310Y-90202430D01*
X94762520Y-90134586D01*
X94588642Y-90100000D01*
X94411358Y-90100000D01*
X94237480Y-90134586D01*
X94073690Y-90202430D01*
X93926283Y-90300924D01*
X93800924Y-90426283D01*
X93702430Y-90573690D01*
X93634586Y-90737480D01*
X93600000Y-90911358D01*
X56547705Y-90911358D01*
X57087166Y-88605910D01*
X57838445Y-86080955D01*
X58738138Y-83605019D01*
X59783097Y-81186776D01*
X59972486Y-80811358D01*
X103000000Y-80811358D01*
X103000000Y-80988642D01*
X103034586Y-81162520D01*
X103102430Y-81326310D01*
X103151668Y-81400000D01*
X103102430Y-81473690D01*
X103034586Y-81637480D01*
X103000000Y-81811358D01*
X103000000Y-81988642D01*
X103034586Y-82162520D01*
X103102430Y-82326310D01*
X103185077Y-82450000D01*
X103102430Y-82573690D01*
X103034586Y-82737480D01*
X103000000Y-82911358D01*
X103000000Y-83088642D01*
X103034586Y-83262520D01*
X103102430Y-83426310D01*
X103185077Y-83550000D01*
X103102430Y-83673690D01*
X103034586Y-83837480D01*
X103000000Y-84011358D01*
X103000000Y-84188642D01*
X103034586Y-84362520D01*
X103102430Y-84526310D01*
X103185077Y-84650000D01*
X103102430Y-84773690D01*
X103034586Y-84937480D01*
X103000000Y-85111358D01*
X103000000Y-85288642D01*
X103034586Y-85462520D01*
X103102430Y-85626310D01*
X103185077Y-85750000D01*
X103102430Y-85873690D01*
X103034586Y-86037480D01*
X103000000Y-86211358D01*
X103000000Y-86388642D01*
X103034586Y-86562520D01*
X103102430Y-86726310D01*
X103185077Y-86850000D01*
X103102430Y-86973690D01*
X103034586Y-87137480D01*
X103000000Y-87311358D01*
X103000000Y-87488642D01*
X103034586Y-87662520D01*
X103102430Y-87826310D01*
X103200924Y-87973717D01*
X103326283Y-88099076D01*
X103473690Y-88197570D01*
X103637480Y-88265414D01*
X103811358Y-88300000D01*
X103988642Y-88300000D01*
X104162520Y-88265414D01*
X104326310Y-88197570D01*
X104473717Y-88099076D01*
X104599076Y-87973717D01*
X104697570Y-87826310D01*
X104749889Y-87700000D01*
X104888642Y-87700000D01*
X105062520Y-87665414D01*
X105226310Y-87597570D01*
X105373717Y-87499076D01*
X105499076Y-87373717D01*
X105597570Y-87226310D01*
X105665414Y-87062520D01*
X105700000Y-86888642D01*
X105700000Y-86711358D01*
X105665414Y-86537480D01*
X105597570Y-86373690D01*
X105514923Y-86250000D01*
X105597570Y-86126310D01*
X105665414Y-85962520D01*
X105700000Y-85788642D01*
X105700000Y-85611358D01*
X105665414Y-85437480D01*
X105597570Y-85273690D01*
X105548332Y-85200000D01*
X105597570Y-85126310D01*
X105665414Y-84962520D01*
X105700000Y-84788642D01*
X105700000Y-84611358D01*
X105665414Y-84437480D01*
X105597570Y-84273690D01*
X105499076Y-84126283D01*
X105472793Y-84100000D01*
X105499076Y-84073717D01*
X105597570Y-83926310D01*
X105665414Y-83762520D01*
X105700000Y-83588642D01*
X105700000Y-83411358D01*
X105665414Y-83237480D01*
X105597570Y-83073690D01*
X105548332Y-83000000D01*
X105597570Y-82926310D01*
X105665414Y-82762520D01*
X105700000Y-82588642D01*
X105700000Y-82411358D01*
X105665414Y-82237480D01*
X105597570Y-82073690D01*
X105514923Y-81950000D01*
X105597570Y-81826310D01*
X105665414Y-81662520D01*
X105700000Y-81488642D01*
X105700000Y-81311358D01*
X105665414Y-81137480D01*
X105597570Y-80973690D01*
X105514923Y-80850000D01*
X105597570Y-80726310D01*
X105665414Y-80562520D01*
X105700000Y-80388642D01*
X105700000Y-80211358D01*
X105665414Y-80037480D01*
X105597570Y-79873690D01*
X105499076Y-79726283D01*
X105373717Y-79600924D01*
X105226310Y-79502430D01*
X105062520Y-79434586D01*
X104888642Y-79400000D01*
X104711358Y-79400000D01*
X104537480Y-79434586D01*
X104373690Y-79502430D01*
X104226283Y-79600924D01*
X104100924Y-79726283D01*
X104002430Y-79873690D01*
X103950111Y-80000000D01*
X103811358Y-80000000D01*
X103637480Y-80034586D01*
X103473690Y-80102430D01*
X103326283Y-80200924D01*
X103200924Y-80326283D01*
X103102430Y-80473690D01*
X103034586Y-80637480D01*
X103000000Y-80811358D01*
X59972486Y-80811358D01*
X60969630Y-78834773D01*
X62293562Y-76557281D01*
X63750230Y-74362317D01*
X65334515Y-72257600D01*
X66272133Y-71154728D01*
X68765730Y-71154728D01*
X68765730Y-71676732D01*
X68867568Y-72188706D01*
X69067331Y-72670976D01*
X69357341Y-73105006D01*
X69726454Y-73474119D01*
X70160484Y-73764129D01*
X70642754Y-73963892D01*
X71154728Y-74065730D01*
X71676732Y-74065730D01*
X72188706Y-73963892D01*
X72670976Y-73764129D01*
X73105006Y-73474119D01*
X73474119Y-73105006D01*
X73764129Y-72670976D01*
X73963892Y-72188706D01*
X74065730Y-71676732D01*
X74065730Y-71154728D01*
X125934270Y-71154728D01*
X125934270Y-71676732D01*
X126036108Y-72188706D01*
X126235871Y-72670976D01*
X126525881Y-73105006D01*
X126894994Y-73474119D01*
X127329024Y-73764129D01*
X127811294Y-73963892D01*
X128323268Y-74065730D01*
X128845272Y-74065730D01*
X129357246Y-73963892D01*
X129839516Y-73764129D01*
X130273546Y-73474119D01*
X130642659Y-73105006D01*
X130932669Y-72670976D01*
X131132432Y-72188706D01*
X131234270Y-71676732D01*
X131234270Y-71154728D01*
X131132432Y-70642754D01*
X130932669Y-70160484D01*
X130642659Y-69726454D01*
X130273546Y-69357341D01*
X129839516Y-69067331D01*
X129357246Y-68867568D01*
X128845272Y-68765730D01*
X128323268Y-68765730D01*
X127811294Y-68867568D01*
X127329024Y-69067331D01*
X126894994Y-69357341D01*
X126525881Y-69726454D01*
X126235871Y-70160484D01*
X126036108Y-70642754D01*
X125934270Y-71154728D01*
X74065730Y-71154728D01*
X73963892Y-70642754D01*
X73764129Y-70160484D01*
X73474119Y-69726454D01*
X73105006Y-69357341D01*
X72670976Y-69067331D01*
X72188706Y-68867568D01*
X71676732Y-68765730D01*
X71154728Y-68765730D01*
X70642754Y-68867568D01*
X70160484Y-69067331D01*
X69726454Y-69357341D01*
X69357341Y-69726454D01*
X69067331Y-70160484D01*
X68867568Y-70642754D01*
X68765730Y-71154728D01*
X66272133Y-71154728D01*
X67040839Y-70250540D01*
X68863181Y-68348221D01*
X70795140Y-66557322D01*
X72011905Y-65556789D01*
X101500000Y-65556789D01*
X101500000Y-66443211D01*
X101672932Y-67312602D01*
X102012151Y-68131550D01*
X102504621Y-68868583D01*
X103131417Y-69495379D01*
X103868450Y-69987849D01*
X104687398Y-70327068D01*
X105556789Y-70500000D01*
X106443211Y-70500000D01*
X107312602Y-70327068D01*
X108131550Y-69987849D01*
X108868583Y-69495379D01*
X109495379Y-68868583D01*
X109987849Y-68131550D01*
X110327068Y-67312602D01*
X110500000Y-66443211D01*
X110500000Y-65556789D01*
X110327068Y-64687398D01*
X109987849Y-63868450D01*
X109495379Y-63131417D01*
X108868583Y-62504621D01*
X108131550Y-62012151D01*
X107312602Y-61672932D01*
X106443211Y-61500000D01*
X105556789Y-61500000D01*
X104687398Y-61672932D01*
X103868450Y-62012151D01*
X103131417Y-62504621D01*
X102504621Y-63131417D01*
X102012151Y-63868450D01*
X101672932Y-64687398D01*
X101500000Y-65556789D01*
X72011905Y-65556789D01*
X72829909Y-64884153D01*
X74960321Y-63334607D01*
X77178902Y-61914123D01*
X79477794Y-60627730D01*
X81848953Y-59479930D01*
X84283994Y-58474782D01*
X86774367Y-57615815D01*
X89311297Y-56906054D01*
X91885851Y-56347999D01*
X94488992Y-55943611D01*
X97111505Y-55694320D01*
X99744183Y-55601000D01*
X102377800Y-55663980D01*
G37*
%TD.AperFunction*%
%TD*%
D19*
%TO.N,VCC*%
X105803213Y-111014584D02*
X105899501Y-111054443D01*
X105982191Y-111117871D01*
X106045644Y-111200544D01*
X106085532Y-111296822D01*
X106100000Y-111406699D01*
X106100000Y-117696824D01*
X106015030Y-117753599D01*
X105903599Y-117865030D01*
X105816049Y-117996058D01*
X105755743Y-118141649D01*
X105725000Y-118296207D01*
X105725000Y-118453793D01*
X105755743Y-118608351D01*
X105816049Y-118753942D01*
X105903599Y-118884970D01*
X106015030Y-118996401D01*
X106100000Y-119053176D01*
X106100000Y-126400000D01*
X80319372Y-126400000D01*
X80831550Y-126187849D01*
X81568583Y-125695379D01*
X82195379Y-125068583D01*
X82687849Y-124331550D01*
X83027068Y-123512602D01*
X83200000Y-122643211D01*
X83200000Y-121756789D01*
X83027068Y-120887398D01*
X82687849Y-120068450D01*
X82195379Y-119331417D01*
X81568583Y-118704621D01*
X80831550Y-118212151D01*
X80100000Y-117909133D01*
X80100000Y-116062112D01*
X81550000Y-116062112D01*
X81550000Y-116337888D01*
X81603801Y-116608365D01*
X81709336Y-116863149D01*
X81862549Y-117092448D01*
X82057552Y-117287451D01*
X82286851Y-117440664D01*
X82541635Y-117546199D01*
X82812112Y-117600000D01*
X83087888Y-117600000D01*
X83358365Y-117546199D01*
X83613149Y-117440664D01*
X83842448Y-117287451D01*
X84037451Y-117092448D01*
X84190664Y-116863149D01*
X84296199Y-116608365D01*
X84350000Y-116337888D01*
X84350000Y-116062112D01*
X85050000Y-116062112D01*
X85050000Y-116337888D01*
X85103801Y-116608365D01*
X85209336Y-116863149D01*
X85362549Y-117092448D01*
X85557552Y-117287451D01*
X85786851Y-117440664D01*
X86041635Y-117546199D01*
X86312112Y-117600000D01*
X86587888Y-117600000D01*
X86858365Y-117546199D01*
X87113149Y-117440664D01*
X87342448Y-117287451D01*
X87537451Y-117092448D01*
X87690664Y-116863149D01*
X87796199Y-116608365D01*
X87850000Y-116337888D01*
X87850000Y-116062112D01*
X87796199Y-115791635D01*
X87690664Y-115536851D01*
X87537451Y-115307552D01*
X87342448Y-115112549D01*
X87113149Y-114959336D01*
X86858365Y-114853801D01*
X86587888Y-114800000D01*
X86312112Y-114800000D01*
X86041635Y-114853801D01*
X85786851Y-114959336D01*
X85557552Y-115112549D01*
X85362549Y-115307552D01*
X85209336Y-115536851D01*
X85103801Y-115791635D01*
X85050000Y-116062112D01*
X84350000Y-116062112D01*
X84296199Y-115791635D01*
X84190664Y-115536851D01*
X84037451Y-115307552D01*
X83842448Y-115112549D01*
X83613149Y-114959336D01*
X83358365Y-114853801D01*
X83087888Y-114800000D01*
X82812112Y-114800000D01*
X82541635Y-114853801D01*
X82286851Y-114959336D01*
X82057552Y-115112549D01*
X81862549Y-115307552D01*
X81709336Y-115536851D01*
X81603801Y-115791635D01*
X81550000Y-116062112D01*
X80100000Y-116062112D01*
X80100000Y-111414010D01*
X80114458Y-111304170D01*
X80154318Y-111207920D01*
X80217727Y-111125263D01*
X80300364Y-111061831D01*
X80396601Y-111021944D01*
X80506437Y-111007454D01*
X90602096Y-111004525D01*
X90591049Y-111021058D01*
X90530743Y-111166649D01*
X90500000Y-111321207D01*
X90500000Y-111478793D01*
X90530743Y-111633351D01*
X90591049Y-111778942D01*
X90678599Y-111909970D01*
X90790030Y-112021401D01*
X90921058Y-112108951D01*
X91035079Y-112156180D01*
X91030743Y-112166649D01*
X91000000Y-112321207D01*
X91000000Y-112478793D01*
X91030743Y-112633351D01*
X91091049Y-112778942D01*
X91178599Y-112909970D01*
X91290030Y-113021401D01*
X91384263Y-113084366D01*
X91378599Y-113090030D01*
X91291049Y-113221058D01*
X91230743Y-113366649D01*
X91200000Y-113521207D01*
X91200000Y-113678793D01*
X91230743Y-113833351D01*
X91291049Y-113978942D01*
X91378599Y-114109970D01*
X91490030Y-114221401D01*
X91621058Y-114308951D01*
X91766649Y-114369257D01*
X91838949Y-114383638D01*
X91821058Y-114391049D01*
X91690030Y-114478599D01*
X91578599Y-114590030D01*
X91491049Y-114721058D01*
X91430743Y-114866649D01*
X91400000Y-115021207D01*
X91400000Y-115178793D01*
X91430743Y-115333351D01*
X91491049Y-115478942D01*
X91578599Y-115609970D01*
X91690030Y-115721401D01*
X91732831Y-115750000D01*
X91690030Y-115778599D01*
X91578599Y-115890030D01*
X91491049Y-116021058D01*
X91430743Y-116166649D01*
X91400000Y-116321207D01*
X91400000Y-116478793D01*
X91430743Y-116633351D01*
X91491049Y-116778942D01*
X91578599Y-116909970D01*
X91690030Y-117021401D01*
X91821058Y-117108951D01*
X91966649Y-117169257D01*
X92121207Y-117200000D01*
X92278793Y-117200000D01*
X92433351Y-117169257D01*
X92578942Y-117108951D01*
X92709970Y-117021401D01*
X92821401Y-116909970D01*
X92908951Y-116778942D01*
X92969257Y-116633351D01*
X93000000Y-116478793D01*
X93000000Y-116321207D01*
X92969257Y-116166649D01*
X92908951Y-116021058D01*
X92821401Y-115890030D01*
X92709970Y-115778599D01*
X92667169Y-115750000D01*
X92709970Y-115721401D01*
X92821401Y-115609970D01*
X92908951Y-115478942D01*
X92969257Y-115333351D01*
X93000000Y-115178793D01*
X93000000Y-115021207D01*
X92969257Y-114866649D01*
X92908951Y-114721058D01*
X92821401Y-114590030D01*
X92709970Y-114478599D01*
X92578942Y-114391049D01*
X92433351Y-114330743D01*
X92361051Y-114316362D01*
X92378942Y-114308951D01*
X92509970Y-114221401D01*
X92621401Y-114109970D01*
X92708951Y-113978942D01*
X92769257Y-113833351D01*
X92800000Y-113678793D01*
X92800000Y-113521207D01*
X92769257Y-113366649D01*
X92708951Y-113221058D01*
X92621401Y-113090030D01*
X92509970Y-112978599D01*
X92415737Y-112915634D01*
X92421401Y-112909970D01*
X92508951Y-112778942D01*
X92569257Y-112633351D01*
X92600000Y-112478793D01*
X92600000Y-112321207D01*
X92569257Y-112166649D01*
X92508951Y-112021058D01*
X92421401Y-111890030D01*
X92309970Y-111778599D01*
X92178942Y-111691049D01*
X92064921Y-111643820D01*
X92069257Y-111633351D01*
X92100000Y-111478793D01*
X92100000Y-111321207D01*
X92069257Y-111166649D01*
X92008951Y-111021058D01*
X91997634Y-111004120D01*
X105693328Y-111000147D01*
X105803213Y-111014584D01*
%TA.AperFunction,Conductor*%
D18*
G36*
X105803213Y-111014584D02*
G01*
X105899501Y-111054443D01*
X105982191Y-111117871D01*
X106045644Y-111200544D01*
X106085532Y-111296822D01*
X106100000Y-111406699D01*
X106100000Y-117696824D01*
X106015030Y-117753599D01*
X105903599Y-117865030D01*
X105816049Y-117996058D01*
X105755743Y-118141649D01*
X105725000Y-118296207D01*
X105725000Y-118453793D01*
X105755743Y-118608351D01*
X105816049Y-118753942D01*
X105903599Y-118884970D01*
X106015030Y-118996401D01*
X106100000Y-119053176D01*
X106100000Y-126400000D01*
X80319372Y-126400000D01*
X80831550Y-126187849D01*
X81568583Y-125695379D01*
X82195379Y-125068583D01*
X82687849Y-124331550D01*
X83027068Y-123512602D01*
X83200000Y-122643211D01*
X83200000Y-121756789D01*
X83027068Y-120887398D01*
X82687849Y-120068450D01*
X82195379Y-119331417D01*
X81568583Y-118704621D01*
X80831550Y-118212151D01*
X80100000Y-117909133D01*
X80100000Y-116062112D01*
X81550000Y-116062112D01*
X81550000Y-116337888D01*
X81603801Y-116608365D01*
X81709336Y-116863149D01*
X81862549Y-117092448D01*
X82057552Y-117287451D01*
X82286851Y-117440664D01*
X82541635Y-117546199D01*
X82812112Y-117600000D01*
X83087888Y-117600000D01*
X83358365Y-117546199D01*
X83613149Y-117440664D01*
X83842448Y-117287451D01*
X84037451Y-117092448D01*
X84190664Y-116863149D01*
X84296199Y-116608365D01*
X84350000Y-116337888D01*
X84350000Y-116062112D01*
X85050000Y-116062112D01*
X85050000Y-116337888D01*
X85103801Y-116608365D01*
X85209336Y-116863149D01*
X85362549Y-117092448D01*
X85557552Y-117287451D01*
X85786851Y-117440664D01*
X86041635Y-117546199D01*
X86312112Y-117600000D01*
X86587888Y-117600000D01*
X86858365Y-117546199D01*
X87113149Y-117440664D01*
X87342448Y-117287451D01*
X87537451Y-117092448D01*
X87690664Y-116863149D01*
X87796199Y-116608365D01*
X87850000Y-116337888D01*
X87850000Y-116062112D01*
X87796199Y-115791635D01*
X87690664Y-115536851D01*
X87537451Y-115307552D01*
X87342448Y-115112549D01*
X87113149Y-114959336D01*
X86858365Y-114853801D01*
X86587888Y-114800000D01*
X86312112Y-114800000D01*
X86041635Y-114853801D01*
X85786851Y-114959336D01*
X85557552Y-115112549D01*
X85362549Y-115307552D01*
X85209336Y-115536851D01*
X85103801Y-115791635D01*
X85050000Y-116062112D01*
X84350000Y-116062112D01*
X84296199Y-115791635D01*
X84190664Y-115536851D01*
X84037451Y-115307552D01*
X83842448Y-115112549D01*
X83613149Y-114959336D01*
X83358365Y-114853801D01*
X83087888Y-114800000D01*
X82812112Y-114800000D01*
X82541635Y-114853801D01*
X82286851Y-114959336D01*
X82057552Y-115112549D01*
X81862549Y-115307552D01*
X81709336Y-115536851D01*
X81603801Y-115791635D01*
X81550000Y-116062112D01*
X80100000Y-116062112D01*
X80100000Y-111414010D01*
X80114458Y-111304170D01*
X80154318Y-111207920D01*
X80217727Y-111125263D01*
X80300364Y-111061831D01*
X80396601Y-111021944D01*
X80506437Y-111007454D01*
X90602096Y-111004525D01*
X90591049Y-111021058D01*
X90530743Y-111166649D01*
X90500000Y-111321207D01*
X90500000Y-111478793D01*
X90530743Y-111633351D01*
X90591049Y-111778942D01*
X90678599Y-111909970D01*
X90790030Y-112021401D01*
X90921058Y-112108951D01*
X91035079Y-112156180D01*
X91030743Y-112166649D01*
X91000000Y-112321207D01*
X91000000Y-112478793D01*
X91030743Y-112633351D01*
X91091049Y-112778942D01*
X91178599Y-112909970D01*
X91290030Y-113021401D01*
X91384263Y-113084366D01*
X91378599Y-113090030D01*
X91291049Y-113221058D01*
X91230743Y-113366649D01*
X91200000Y-113521207D01*
X91200000Y-113678793D01*
X91230743Y-113833351D01*
X91291049Y-113978942D01*
X91378599Y-114109970D01*
X91490030Y-114221401D01*
X91621058Y-114308951D01*
X91766649Y-114369257D01*
X91838949Y-114383638D01*
X91821058Y-114391049D01*
X91690030Y-114478599D01*
X91578599Y-114590030D01*
X91491049Y-114721058D01*
X91430743Y-114866649D01*
X91400000Y-115021207D01*
X91400000Y-115178793D01*
X91430743Y-115333351D01*
X91491049Y-115478942D01*
X91578599Y-115609970D01*
X91690030Y-115721401D01*
X91732831Y-115750000D01*
X91690030Y-115778599D01*
X91578599Y-115890030D01*
X91491049Y-116021058D01*
X91430743Y-116166649D01*
X91400000Y-116321207D01*
X91400000Y-116478793D01*
X91430743Y-116633351D01*
X91491049Y-116778942D01*
X91578599Y-116909970D01*
X91690030Y-117021401D01*
X91821058Y-117108951D01*
X91966649Y-117169257D01*
X92121207Y-117200000D01*
X92278793Y-117200000D01*
X92433351Y-117169257D01*
X92578942Y-117108951D01*
X92709970Y-117021401D01*
X92821401Y-116909970D01*
X92908951Y-116778942D01*
X92969257Y-116633351D01*
X93000000Y-116478793D01*
X93000000Y-116321207D01*
X92969257Y-116166649D01*
X92908951Y-116021058D01*
X92821401Y-115890030D01*
X92709970Y-115778599D01*
X92667169Y-115750000D01*
X92709970Y-115721401D01*
X92821401Y-115609970D01*
X92908951Y-115478942D01*
X92969257Y-115333351D01*
X93000000Y-115178793D01*
X93000000Y-115021207D01*
X92969257Y-114866649D01*
X92908951Y-114721058D01*
X92821401Y-114590030D01*
X92709970Y-114478599D01*
X92578942Y-114391049D01*
X92433351Y-114330743D01*
X92361051Y-114316362D01*
X92378942Y-114308951D01*
X92509970Y-114221401D01*
X92621401Y-114109970D01*
X92708951Y-113978942D01*
X92769257Y-113833351D01*
X92800000Y-113678793D01*
X92800000Y-113521207D01*
X92769257Y-113366649D01*
X92708951Y-113221058D01*
X92621401Y-113090030D01*
X92509970Y-112978599D01*
X92415737Y-112915634D01*
X92421401Y-112909970D01*
X92508951Y-112778942D01*
X92569257Y-112633351D01*
X92600000Y-112478793D01*
X92600000Y-112321207D01*
X92569257Y-112166649D01*
X92508951Y-112021058D01*
X92421401Y-111890030D01*
X92309970Y-111778599D01*
X92178942Y-111691049D01*
X92064921Y-111643820D01*
X92069257Y-111633351D01*
X92100000Y-111478793D01*
X92100000Y-111321207D01*
X92069257Y-111166649D01*
X92008951Y-111021058D01*
X91997634Y-111004120D01*
X105693328Y-111000147D01*
X105803213Y-111014584D01*
G37*
%TD.AperFunction*%
%TD*%
M02*
