%TF.GenerationSoftware,KiCad,Pcbnew,(5.1.7)-1*%
%TF.CreationDate,2021-06-10T19:06:36+03:00*%
%TF.ProjectId,SynchronousBuck,53796e63-6872-46f6-9e6f-75734275636b,rev?*%
%TF.SameCoordinates,Original*%
%TF.FileFunction,Soldermask,Top*%
%TF.FilePolarity,Negative*%
%FSLAX46Y46*%
G04 Gerber Fmt 4.6, Leading zero omitted, Abs format (unit mm)*
G04 Created by KiCad (PCBNEW (5.1.7)-1) date 2021-06-10 19:06:36*
%MOMM*%
%LPD*%
G01*
G04 APERTURE LIST*
%ADD10R,4.200000X3.000000*%
%ADD11R,0.420000X1.780000*%
%ADD12R,0.900000X1.200000*%
%ADD13C,1.800000*%
%ADD14C,8.000000*%
%ADD15C,4.300000*%
%ADD16C,1.000000*%
%ADD17O,1.700000X1.700000*%
%ADD18R,1.700000X1.700000*%
%ADD19C,0.100000*%
%ADD20R,0.500000X0.850000*%
%ADD21R,0.800000X0.900000*%
%ADD22C,0.600000*%
%ADD23C,0.800000*%
G04 APERTURE END LIST*
%TO.C,C114*%
G36*
G01*
X119750000Y-116425000D02*
X120250000Y-116425000D01*
G75*
G02*
X120475000Y-116650000I0J-225000D01*
G01*
X120475000Y-117100000D01*
G75*
G02*
X120250000Y-117325000I-225000J0D01*
G01*
X119750000Y-117325000D01*
G75*
G02*
X119525000Y-117100000I0J225000D01*
G01*
X119525000Y-116650000D01*
G75*
G02*
X119750000Y-116425000I225000J0D01*
G01*
G37*
G36*
G01*
X119750000Y-114875000D02*
X120250000Y-114875000D01*
G75*
G02*
X120475000Y-115100000I0J-225000D01*
G01*
X120475000Y-115550000D01*
G75*
G02*
X120250000Y-115775000I-225000J0D01*
G01*
X119750000Y-115775000D01*
G75*
G02*
X119525000Y-115550000I0J225000D01*
G01*
X119525000Y-115100000D01*
G75*
G02*
X119750000Y-114875000I225000J0D01*
G01*
G37*
%TD*%
%TO.C,C113*%
G36*
G01*
X115950000Y-119625000D02*
X116450000Y-119625000D01*
G75*
G02*
X116675000Y-119850000I0J-225000D01*
G01*
X116675000Y-120300000D01*
G75*
G02*
X116450000Y-120525000I-225000J0D01*
G01*
X115950000Y-120525000D01*
G75*
G02*
X115725000Y-120300000I0J225000D01*
G01*
X115725000Y-119850000D01*
G75*
G02*
X115950000Y-119625000I225000J0D01*
G01*
G37*
G36*
G01*
X115950000Y-118075000D02*
X116450000Y-118075000D01*
G75*
G02*
X116675000Y-118300000I0J-225000D01*
G01*
X116675000Y-118750000D01*
G75*
G02*
X116450000Y-118975000I-225000J0D01*
G01*
X115950000Y-118975000D01*
G75*
G02*
X115725000Y-118750000I0J225000D01*
G01*
X115725000Y-118300000D01*
G75*
G02*
X115950000Y-118075000I225000J0D01*
G01*
G37*
%TD*%
D10*
%TO.C,U101*%
X111100000Y-111900000D03*
D11*
X108175000Y-108930000D03*
X108825000Y-108930000D03*
X109475000Y-108930000D03*
X110125000Y-108930000D03*
X110775000Y-108930000D03*
X111425000Y-108930000D03*
X112075000Y-108930000D03*
X112725000Y-108930000D03*
X113375000Y-108930000D03*
X114025000Y-108930000D03*
X114025000Y-114870000D03*
X113375000Y-114870000D03*
X112725000Y-114870000D03*
X112075000Y-114870000D03*
X111425000Y-114870000D03*
X110775000Y-114870000D03*
X110125000Y-114870000D03*
X109475000Y-114870000D03*
X108825000Y-114870000D03*
X108175000Y-114870000D03*
%TD*%
%TO.C,R105*%
G36*
G01*
X104515000Y-97835000D02*
X104515000Y-94765000D01*
G75*
G02*
X104820000Y-94460000I305000J0D01*
G01*
X107260000Y-94460000D01*
G75*
G02*
X107565000Y-94765000I0J-305000D01*
G01*
X107565000Y-97835000D01*
G75*
G02*
X107260000Y-98140000I-305000J0D01*
G01*
X104820000Y-98140000D01*
G75*
G02*
X104515000Y-97835000I0J305000D01*
G01*
G37*
G36*
G01*
X108835000Y-97835000D02*
X108835000Y-94765000D01*
G75*
G02*
X109140000Y-94460000I305000J0D01*
G01*
X111580000Y-94460000D01*
G75*
G02*
X111885000Y-94765000I0J-305000D01*
G01*
X111885000Y-97835000D01*
G75*
G02*
X111580000Y-98140000I-305000J0D01*
G01*
X109140000Y-98140000D01*
G75*
G02*
X108835000Y-97835000I0J305000D01*
G01*
G37*
G36*
G01*
X108800000Y-96220000D02*
X108800000Y-96380000D01*
G75*
G02*
X108780000Y-96400000I-20000J0D01*
G01*
X108520000Y-96400000D01*
G75*
G02*
X108500000Y-96380000I0J20000D01*
G01*
X108500000Y-96220000D01*
G75*
G02*
X108520000Y-96200000I20000J0D01*
G01*
X108780000Y-96200000D01*
G75*
G02*
X108800000Y-96220000I0J-20000D01*
G01*
G37*
G36*
G01*
X107900000Y-96220000D02*
X107900000Y-96380000D01*
G75*
G02*
X107880000Y-96400000I-20000J0D01*
G01*
X107620000Y-96400000D01*
G75*
G02*
X107600000Y-96380000I0J20000D01*
G01*
X107600000Y-96220000D01*
G75*
G02*
X107620000Y-96200000I20000J0D01*
G01*
X107880000Y-96200000D01*
G75*
G02*
X107900000Y-96220000I0J-20000D01*
G01*
G37*
%TD*%
%TO.C,C112*%
G36*
G01*
X102699200Y-76600000D02*
X101300800Y-76600000D01*
G75*
G02*
X101050000Y-76349200I0J250800D01*
G01*
X101050000Y-72700800D01*
G75*
G02*
X101300800Y-72450000I250800J0D01*
G01*
X102699200Y-72450000D01*
G75*
G02*
X102950000Y-72700800I0J-250800D01*
G01*
X102950000Y-76349200D01*
G75*
G02*
X102699200Y-76600000I-250800J0D01*
G01*
G37*
G36*
G01*
X102699200Y-83550000D02*
X101300800Y-83550000D01*
G75*
G02*
X101050000Y-83299200I0J250800D01*
G01*
X101050000Y-79650800D01*
G75*
G02*
X101300800Y-79400000I250800J0D01*
G01*
X102699200Y-79400000D01*
G75*
G02*
X102950000Y-79650800I0J-250800D01*
G01*
X102950000Y-83299200D01*
G75*
G02*
X102699200Y-83550000I-250800J0D01*
G01*
G37*
%TD*%
%TO.C,C110*%
G36*
G01*
X93699200Y-76600000D02*
X92300800Y-76600000D01*
G75*
G02*
X92050000Y-76349200I0J250800D01*
G01*
X92050000Y-72700800D01*
G75*
G02*
X92300800Y-72450000I250800J0D01*
G01*
X93699200Y-72450000D01*
G75*
G02*
X93950000Y-72700800I0J-250800D01*
G01*
X93950000Y-76349200D01*
G75*
G02*
X93699200Y-76600000I-250800J0D01*
G01*
G37*
G36*
G01*
X93699200Y-83550000D02*
X92300800Y-83550000D01*
G75*
G02*
X92050000Y-83299200I0J250800D01*
G01*
X92050000Y-79650800D01*
G75*
G02*
X92300800Y-79400000I250800J0D01*
G01*
X93699200Y-79400000D01*
G75*
G02*
X93950000Y-79650800I0J-250800D01*
G01*
X93950000Y-83299200D01*
G75*
G02*
X93699200Y-83550000I-250800J0D01*
G01*
G37*
%TD*%
%TO.C,R102*%
G36*
G01*
X109325000Y-119525000D02*
X109875000Y-119525000D01*
G75*
G02*
X110075000Y-119725000I0J-200000D01*
G01*
X110075000Y-120125000D01*
G75*
G02*
X109875000Y-120325000I-200000J0D01*
G01*
X109325000Y-120325000D01*
G75*
G02*
X109125000Y-120125000I0J200000D01*
G01*
X109125000Y-119725000D01*
G75*
G02*
X109325000Y-119525000I200000J0D01*
G01*
G37*
G36*
G01*
X109325000Y-117875000D02*
X109875000Y-117875000D01*
G75*
G02*
X110075000Y-118075000I0J-200000D01*
G01*
X110075000Y-118475000D01*
G75*
G02*
X109875000Y-118675000I-200000J0D01*
G01*
X109325000Y-118675000D01*
G75*
G02*
X109125000Y-118475000I0J200000D01*
G01*
X109125000Y-118075000D01*
G75*
G02*
X109325000Y-117875000I200000J0D01*
G01*
G37*
%TD*%
%TO.C,R120*%
G36*
G01*
X118475000Y-103575000D02*
X117925000Y-103575000D01*
G75*
G02*
X117725000Y-103375000I0J200000D01*
G01*
X117725000Y-102975000D01*
G75*
G02*
X117925000Y-102775000I200000J0D01*
G01*
X118475000Y-102775000D01*
G75*
G02*
X118675000Y-102975000I0J-200000D01*
G01*
X118675000Y-103375000D01*
G75*
G02*
X118475000Y-103575000I-200000J0D01*
G01*
G37*
G36*
G01*
X118475000Y-105225000D02*
X117925000Y-105225000D01*
G75*
G02*
X117725000Y-105025000I0J200000D01*
G01*
X117725000Y-104625000D01*
G75*
G02*
X117925000Y-104425000I200000J0D01*
G01*
X118475000Y-104425000D01*
G75*
G02*
X118675000Y-104625000I0J-200000D01*
G01*
X118675000Y-105025000D01*
G75*
G02*
X118475000Y-105225000I-200000J0D01*
G01*
G37*
%TD*%
D12*
%TO.C,D103*%
X125950000Y-96800000D03*
X122650000Y-96800000D03*
%TD*%
%TO.C,D102*%
X116714000Y-107950000D03*
X120014000Y-107950000D03*
%TD*%
D13*
%TO.C,J104*%
X82950000Y-116200000D03*
X86450000Y-116200000D03*
%TD*%
%TO.C,R123*%
G36*
G01*
X120275000Y-103575000D02*
X119725000Y-103575000D01*
G75*
G02*
X119525000Y-103375000I0J200000D01*
G01*
X119525000Y-102975000D01*
G75*
G02*
X119725000Y-102775000I200000J0D01*
G01*
X120275000Y-102775000D01*
G75*
G02*
X120475000Y-102975000I0J-200000D01*
G01*
X120475000Y-103375000D01*
G75*
G02*
X120275000Y-103575000I-200000J0D01*
G01*
G37*
G36*
G01*
X120275000Y-105225000D02*
X119725000Y-105225000D01*
G75*
G02*
X119525000Y-105025000I0J200000D01*
G01*
X119525000Y-104625000D01*
G75*
G02*
X119725000Y-104425000I200000J0D01*
G01*
X120275000Y-104425000D01*
G75*
G02*
X120475000Y-104625000I0J-200000D01*
G01*
X120475000Y-105025000D01*
G75*
G02*
X120275000Y-105225000I-200000J0D01*
G01*
G37*
%TD*%
%TO.C,C120*%
G36*
G01*
X107018450Y-112384000D02*
X104817550Y-112384000D01*
G75*
G02*
X104568000Y-112134450I0J249550D01*
G01*
X104568000Y-111483550D01*
G75*
G02*
X104817550Y-111234000I249550J0D01*
G01*
X107018450Y-111234000D01*
G75*
G02*
X107268000Y-111483550I0J-249550D01*
G01*
X107268000Y-112134450D01*
G75*
G02*
X107018450Y-112384000I-249550J0D01*
G01*
G37*
G36*
G01*
X107018001Y-115334000D02*
X104817999Y-115334000D01*
G75*
G02*
X104568000Y-115084001I0J249999D01*
G01*
X104568000Y-114433999D01*
G75*
G02*
X104817999Y-114184000I249999J0D01*
G01*
X107018001Y-114184000D01*
G75*
G02*
X107268000Y-114433999I0J-249999D01*
G01*
X107268000Y-115084001D01*
G75*
G02*
X107018001Y-115334000I-249999J0D01*
G01*
G37*
%TD*%
%TO.C,C119*%
G36*
G01*
X90950000Y-115975000D02*
X90450000Y-115975000D01*
G75*
G02*
X90225000Y-115750000I0J225000D01*
G01*
X90225000Y-115300000D01*
G75*
G02*
X90450000Y-115075000I225000J0D01*
G01*
X90950000Y-115075000D01*
G75*
G02*
X91175000Y-115300000I0J-225000D01*
G01*
X91175000Y-115750000D01*
G75*
G02*
X90950000Y-115975000I-225000J0D01*
G01*
G37*
G36*
G01*
X90950000Y-117525000D02*
X90450000Y-117525000D01*
G75*
G02*
X90225000Y-117300000I0J225000D01*
G01*
X90225000Y-116850000D01*
G75*
G02*
X90450000Y-116625000I225000J0D01*
G01*
X90950000Y-116625000D01*
G75*
G02*
X91175000Y-116850000I0J-225000D01*
G01*
X91175000Y-117300000D01*
G75*
G02*
X90950000Y-117525000I-225000J0D01*
G01*
G37*
%TD*%
%TO.C,L101*%
G36*
G01*
X96260500Y-108040000D02*
X92259500Y-108040000D01*
G75*
G02*
X91460000Y-107240500I0J799500D01*
G01*
X91460000Y-103509500D01*
G75*
G02*
X92259500Y-102710000I799500J0D01*
G01*
X96260500Y-102710000D01*
G75*
G02*
X97060000Y-103509500I0J-799500D01*
G01*
X97060000Y-107240500D01*
G75*
G02*
X96260500Y-108040000I-799500J0D01*
G01*
G37*
G36*
G01*
X96255500Y-97890000D02*
X92264500Y-97890000D01*
G75*
G02*
X91465000Y-97090500I0J799500D01*
G01*
X91465000Y-93359500D01*
G75*
G02*
X92264500Y-92560000I799500J0D01*
G01*
X96255500Y-92560000D01*
G75*
G02*
X97055000Y-93359500I0J-799500D01*
G01*
X97055000Y-97090500D01*
G75*
G02*
X96255500Y-97890000I-799500J0D01*
G01*
G37*
G36*
G01*
X73500000Y-103475000D02*
X70860000Y-103475000D01*
G75*
G02*
X69540000Y-102155000I0J1320000D01*
G01*
X69540000Y-98445000D01*
G75*
G02*
X70860000Y-97125000I1320000J0D01*
G01*
X73500000Y-97125000D01*
G75*
G02*
X74820000Y-98445000I0J-1320000D01*
G01*
X74820000Y-102155000D01*
G75*
G02*
X73500000Y-103475000I-1320000J0D01*
G01*
G37*
%TD*%
D14*
%TO.C,J103*%
X94000000Y-66000000D03*
X106000000Y-66000000D03*
%TD*%
%TO.C,J101*%
X90700000Y-122200000D03*
X78700000Y-122200000D03*
%TD*%
D15*
%TO.C,H104*%
X128584270Y-71415730D03*
%TD*%
%TO.C,H103*%
X71415730Y-71415730D03*
%TD*%
%TO.C,H102*%
X71415730Y-128584270D03*
%TD*%
%TO.C,H101*%
X128584270Y-128584270D03*
%TD*%
D16*
%TO.C,FID103*%
X61000000Y-81500000D03*
%TD*%
%TO.C,FID102*%
X138500000Y-81000000D03*
%TD*%
%TO.C,FID101*%
X76400000Y-132700000D03*
%TD*%
%TO.C,R121*%
G36*
G01*
X120275000Y-100325000D02*
X119725000Y-100325000D01*
G75*
G02*
X119525000Y-100125000I0J200000D01*
G01*
X119525000Y-99725000D01*
G75*
G02*
X119725000Y-99525000I200000J0D01*
G01*
X120275000Y-99525000D01*
G75*
G02*
X120475000Y-99725000I0J-200000D01*
G01*
X120475000Y-100125000D01*
G75*
G02*
X120275000Y-100325000I-200000J0D01*
G01*
G37*
G36*
G01*
X120275000Y-101975000D02*
X119725000Y-101975000D01*
G75*
G02*
X119525000Y-101775000I0J200000D01*
G01*
X119525000Y-101375000D01*
G75*
G02*
X119725000Y-101175000I200000J0D01*
G01*
X120275000Y-101175000D01*
G75*
G02*
X120475000Y-101375000I0J-200000D01*
G01*
X120475000Y-101775000D01*
G75*
G02*
X120275000Y-101975000I-200000J0D01*
G01*
G37*
%TD*%
%TO.C,R119*%
G36*
G01*
X122225000Y-111725000D02*
X122225000Y-112275000D01*
G75*
G02*
X122025000Y-112475000I-200000J0D01*
G01*
X121625000Y-112475000D01*
G75*
G02*
X121425000Y-112275000I0J200000D01*
G01*
X121425000Y-111725000D01*
G75*
G02*
X121625000Y-111525000I200000J0D01*
G01*
X122025000Y-111525000D01*
G75*
G02*
X122225000Y-111725000I0J-200000D01*
G01*
G37*
G36*
G01*
X123875000Y-111725000D02*
X123875000Y-112275000D01*
G75*
G02*
X123675000Y-112475000I-200000J0D01*
G01*
X123275000Y-112475000D01*
G75*
G02*
X123075000Y-112275000I0J200000D01*
G01*
X123075000Y-111725000D01*
G75*
G02*
X123275000Y-111525000I200000J0D01*
G01*
X123675000Y-111525000D01*
G75*
G02*
X123875000Y-111725000I0J-200000D01*
G01*
G37*
%TD*%
%TO.C,R118*%
G36*
G01*
X123075000Y-110525000D02*
X123075000Y-109975000D01*
G75*
G02*
X123275000Y-109775000I200000J0D01*
G01*
X123675000Y-109775000D01*
G75*
G02*
X123875000Y-109975000I0J-200000D01*
G01*
X123875000Y-110525000D01*
G75*
G02*
X123675000Y-110725000I-200000J0D01*
G01*
X123275000Y-110725000D01*
G75*
G02*
X123075000Y-110525000I0J200000D01*
G01*
G37*
G36*
G01*
X121425000Y-110525000D02*
X121425000Y-109975000D01*
G75*
G02*
X121625000Y-109775000I200000J0D01*
G01*
X122025000Y-109775000D01*
G75*
G02*
X122225000Y-109975000I0J-200000D01*
G01*
X122225000Y-110525000D01*
G75*
G02*
X122025000Y-110725000I-200000J0D01*
G01*
X121625000Y-110725000D01*
G75*
G02*
X121425000Y-110525000I0J200000D01*
G01*
G37*
%TD*%
%TO.C,R117*%
G36*
G01*
X122225000Y-113375000D02*
X122225000Y-113925000D01*
G75*
G02*
X122025000Y-114125000I-200000J0D01*
G01*
X121625000Y-114125000D01*
G75*
G02*
X121425000Y-113925000I0J200000D01*
G01*
X121425000Y-113375000D01*
G75*
G02*
X121625000Y-113175000I200000J0D01*
G01*
X122025000Y-113175000D01*
G75*
G02*
X122225000Y-113375000I0J-200000D01*
G01*
G37*
G36*
G01*
X123875000Y-113375000D02*
X123875000Y-113925000D01*
G75*
G02*
X123675000Y-114125000I-200000J0D01*
G01*
X123275000Y-114125000D01*
G75*
G02*
X123075000Y-113925000I0J200000D01*
G01*
X123075000Y-113375000D01*
G75*
G02*
X123275000Y-113175000I200000J0D01*
G01*
X123675000Y-113175000D01*
G75*
G02*
X123875000Y-113375000I0J-200000D01*
G01*
G37*
%TD*%
D17*
%TO.C,J102*%
X122600000Y-107520000D03*
X122600000Y-104980000D03*
X122600000Y-102440000D03*
D18*
X122600000Y-99900000D03*
%TD*%
%TO.C,C102*%
G36*
G01*
X111300000Y-116970000D02*
X111300000Y-116630000D01*
G75*
G02*
X111440000Y-116490000I140000J0D01*
G01*
X111720000Y-116490000D01*
G75*
G02*
X111860000Y-116630000I0J-140000D01*
G01*
X111860000Y-116970000D01*
G75*
G02*
X111720000Y-117110000I-140000J0D01*
G01*
X111440000Y-117110000D01*
G75*
G02*
X111300000Y-116970000I0J140000D01*
G01*
G37*
G36*
G01*
X110340000Y-116970000D02*
X110340000Y-116630000D01*
G75*
G02*
X110480000Y-116490000I140000J0D01*
G01*
X110760000Y-116490000D01*
G75*
G02*
X110900000Y-116630000I0J-140000D01*
G01*
X110900000Y-116970000D01*
G75*
G02*
X110760000Y-117110000I-140000J0D01*
G01*
X110480000Y-117110000D01*
G75*
G02*
X110340000Y-116970000I0J140000D01*
G01*
G37*
%TD*%
%TO.C,C108*%
G36*
G01*
X96150000Y-110725000D02*
X96650000Y-110725000D01*
G75*
G02*
X96875000Y-110950000I0J-225000D01*
G01*
X96875000Y-111400000D01*
G75*
G02*
X96650000Y-111625000I-225000J0D01*
G01*
X96150000Y-111625000D01*
G75*
G02*
X95925000Y-111400000I0J225000D01*
G01*
X95925000Y-110950000D01*
G75*
G02*
X96150000Y-110725000I225000J0D01*
G01*
G37*
G36*
G01*
X96150000Y-109175000D02*
X96650000Y-109175000D01*
G75*
G02*
X96875000Y-109400000I0J-225000D01*
G01*
X96875000Y-109850000D01*
G75*
G02*
X96650000Y-110075000I-225000J0D01*
G01*
X96150000Y-110075000D01*
G75*
G02*
X95925000Y-109850000I0J225000D01*
G01*
X95925000Y-109400000D01*
G75*
G02*
X96150000Y-109175000I225000J0D01*
G01*
G37*
%TD*%
%TO.C,C107*%
G36*
G01*
X108850000Y-105275000D02*
X108350000Y-105275000D01*
G75*
G02*
X108125000Y-105050000I0J225000D01*
G01*
X108125000Y-104600000D01*
G75*
G02*
X108350000Y-104375000I225000J0D01*
G01*
X108850000Y-104375000D01*
G75*
G02*
X109075000Y-104600000I0J-225000D01*
G01*
X109075000Y-105050000D01*
G75*
G02*
X108850000Y-105275000I-225000J0D01*
G01*
G37*
G36*
G01*
X108850000Y-106825000D02*
X108350000Y-106825000D01*
G75*
G02*
X108125000Y-106600000I0J225000D01*
G01*
X108125000Y-106150000D01*
G75*
G02*
X108350000Y-105925000I225000J0D01*
G01*
X108850000Y-105925000D01*
G75*
G02*
X109075000Y-106150000I0J-225000D01*
G01*
X109075000Y-106600000D01*
G75*
G02*
X108850000Y-106825000I-225000J0D01*
G01*
G37*
%TD*%
%TO.C,C106*%
G36*
G01*
X117400000Y-115050000D02*
X117400000Y-115550000D01*
G75*
G02*
X117175000Y-115775000I-225000J0D01*
G01*
X116725000Y-115775000D01*
G75*
G02*
X116500000Y-115550000I0J225000D01*
G01*
X116500000Y-115050000D01*
G75*
G02*
X116725000Y-114825000I225000J0D01*
G01*
X117175000Y-114825000D01*
G75*
G02*
X117400000Y-115050000I0J-225000D01*
G01*
G37*
G36*
G01*
X118950000Y-115050000D02*
X118950000Y-115550000D01*
G75*
G02*
X118725000Y-115775000I-225000J0D01*
G01*
X118275000Y-115775000D01*
G75*
G02*
X118050000Y-115550000I0J225000D01*
G01*
X118050000Y-115050000D01*
G75*
G02*
X118275000Y-114825000I225000J0D01*
G01*
X118725000Y-114825000D01*
G75*
G02*
X118950000Y-115050000I0J-225000D01*
G01*
G37*
%TD*%
%TO.C,C105*%
G36*
G01*
X105350000Y-107650000D02*
X105350000Y-108150000D01*
G75*
G02*
X105125000Y-108375000I-225000J0D01*
G01*
X104675000Y-108375000D01*
G75*
G02*
X104450000Y-108150000I0J225000D01*
G01*
X104450000Y-107650000D01*
G75*
G02*
X104675000Y-107425000I225000J0D01*
G01*
X105125000Y-107425000D01*
G75*
G02*
X105350000Y-107650000I0J-225000D01*
G01*
G37*
G36*
G01*
X106900000Y-107650000D02*
X106900000Y-108150000D01*
G75*
G02*
X106675000Y-108375000I-225000J0D01*
G01*
X106225000Y-108375000D01*
G75*
G02*
X106000000Y-108150000I0J225000D01*
G01*
X106000000Y-107650000D01*
G75*
G02*
X106225000Y-107425000I225000J0D01*
G01*
X106675000Y-107425000D01*
G75*
G02*
X106900000Y-107650000I0J-225000D01*
G01*
G37*
%TD*%
%TO.C,C104*%
G36*
G01*
X115675000Y-115875000D02*
X115175000Y-115875000D01*
G75*
G02*
X114950000Y-115650000I0J225000D01*
G01*
X114950000Y-115200000D01*
G75*
G02*
X115175000Y-114975000I225000J0D01*
G01*
X115675000Y-114975000D01*
G75*
G02*
X115900000Y-115200000I0J-225000D01*
G01*
X115900000Y-115650000D01*
G75*
G02*
X115675000Y-115875000I-225000J0D01*
G01*
G37*
G36*
G01*
X115675000Y-117425000D02*
X115175000Y-117425000D01*
G75*
G02*
X114950000Y-117200000I0J225000D01*
G01*
X114950000Y-116750000D01*
G75*
G02*
X115175000Y-116525000I225000J0D01*
G01*
X115675000Y-116525000D01*
G75*
G02*
X115900000Y-116750000I0J-225000D01*
G01*
X115900000Y-117200000D01*
G75*
G02*
X115675000Y-117425000I-225000J0D01*
G01*
G37*
%TD*%
%TO.C,C103*%
G36*
G01*
X112750000Y-119325000D02*
X113250000Y-119325000D01*
G75*
G02*
X113475000Y-119550000I0J-225000D01*
G01*
X113475000Y-120000000D01*
G75*
G02*
X113250000Y-120225000I-225000J0D01*
G01*
X112750000Y-120225000D01*
G75*
G02*
X112525000Y-120000000I0J225000D01*
G01*
X112525000Y-119550000D01*
G75*
G02*
X112750000Y-119325000I225000J0D01*
G01*
G37*
G36*
G01*
X112750000Y-117775000D02*
X113250000Y-117775000D01*
G75*
G02*
X113475000Y-118000000I0J-225000D01*
G01*
X113475000Y-118450000D01*
G75*
G02*
X113250000Y-118675000I-225000J0D01*
G01*
X112750000Y-118675000D01*
G75*
G02*
X112525000Y-118450000I0J225000D01*
G01*
X112525000Y-118000000D01*
G75*
G02*
X112750000Y-117775000I225000J0D01*
G01*
G37*
%TD*%
%TO.C,R116*%
G36*
G01*
X120375000Y-118875000D02*
X119825000Y-118875000D01*
G75*
G02*
X119625000Y-118675000I0J200000D01*
G01*
X119625000Y-118275000D01*
G75*
G02*
X119825000Y-118075000I200000J0D01*
G01*
X120375000Y-118075000D01*
G75*
G02*
X120575000Y-118275000I0J-200000D01*
G01*
X120575000Y-118675000D01*
G75*
G02*
X120375000Y-118875000I-200000J0D01*
G01*
G37*
G36*
G01*
X120375000Y-120525000D02*
X119825000Y-120525000D01*
G75*
G02*
X119625000Y-120325000I0J200000D01*
G01*
X119625000Y-119925000D01*
G75*
G02*
X119825000Y-119725000I200000J0D01*
G01*
X120375000Y-119725000D01*
G75*
G02*
X120575000Y-119925000I0J-200000D01*
G01*
X120575000Y-120325000D01*
G75*
G02*
X120375000Y-120525000I-200000J0D01*
G01*
G37*
%TD*%
%TO.C,R115*%
G36*
G01*
X118775000Y-118875000D02*
X118225000Y-118875000D01*
G75*
G02*
X118025000Y-118675000I0J200000D01*
G01*
X118025000Y-118275000D01*
G75*
G02*
X118225000Y-118075000I200000J0D01*
G01*
X118775000Y-118075000D01*
G75*
G02*
X118975000Y-118275000I0J-200000D01*
G01*
X118975000Y-118675000D01*
G75*
G02*
X118775000Y-118875000I-200000J0D01*
G01*
G37*
G36*
G01*
X118775000Y-120525000D02*
X118225000Y-120525000D01*
G75*
G02*
X118025000Y-120325000I0J200000D01*
G01*
X118025000Y-119925000D01*
G75*
G02*
X118225000Y-119725000I200000J0D01*
G01*
X118775000Y-119725000D01*
G75*
G02*
X118975000Y-119925000I0J-200000D01*
G01*
X118975000Y-120325000D01*
G75*
G02*
X118775000Y-120525000I-200000J0D01*
G01*
G37*
%TD*%
%TO.C,R114*%
G36*
G01*
X111125000Y-100525000D02*
X111675000Y-100525000D01*
G75*
G02*
X111875000Y-100725000I0J-200000D01*
G01*
X111875000Y-101125000D01*
G75*
G02*
X111675000Y-101325000I-200000J0D01*
G01*
X111125000Y-101325000D01*
G75*
G02*
X110925000Y-101125000I0J200000D01*
G01*
X110925000Y-100725000D01*
G75*
G02*
X111125000Y-100525000I200000J0D01*
G01*
G37*
G36*
G01*
X111125000Y-98875000D02*
X111675000Y-98875000D01*
G75*
G02*
X111875000Y-99075000I0J-200000D01*
G01*
X111875000Y-99475000D01*
G75*
G02*
X111675000Y-99675000I-200000J0D01*
G01*
X111125000Y-99675000D01*
G75*
G02*
X110925000Y-99475000I0J200000D01*
G01*
X110925000Y-99075000D01*
G75*
G02*
X111125000Y-98875000I200000J0D01*
G01*
G37*
%TD*%
%TO.C,R113*%
G36*
G01*
X108725000Y-100501000D02*
X109275000Y-100501000D01*
G75*
G02*
X109475000Y-100701000I0J-200000D01*
G01*
X109475000Y-101101000D01*
G75*
G02*
X109275000Y-101301000I-200000J0D01*
G01*
X108725000Y-101301000D01*
G75*
G02*
X108525000Y-101101000I0J200000D01*
G01*
X108525000Y-100701000D01*
G75*
G02*
X108725000Y-100501000I200000J0D01*
G01*
G37*
G36*
G01*
X108725000Y-98851000D02*
X109275000Y-98851000D01*
G75*
G02*
X109475000Y-99051000I0J-200000D01*
G01*
X109475000Y-99451000D01*
G75*
G02*
X109275000Y-99651000I-200000J0D01*
G01*
X108725000Y-99651000D01*
G75*
G02*
X108525000Y-99451000I0J200000D01*
G01*
X108525000Y-99051000D01*
G75*
G02*
X108725000Y-98851000I200000J0D01*
G01*
G37*
%TD*%
%TO.C,R112*%
G36*
G01*
X107125000Y-100501000D02*
X107675000Y-100501000D01*
G75*
G02*
X107875000Y-100701000I0J-200000D01*
G01*
X107875000Y-101101000D01*
G75*
G02*
X107675000Y-101301000I-200000J0D01*
G01*
X107125000Y-101301000D01*
G75*
G02*
X106925000Y-101101000I0J200000D01*
G01*
X106925000Y-100701000D01*
G75*
G02*
X107125000Y-100501000I200000J0D01*
G01*
G37*
G36*
G01*
X107125000Y-98851000D02*
X107675000Y-98851000D01*
G75*
G02*
X107875000Y-99051000I0J-200000D01*
G01*
X107875000Y-99451000D01*
G75*
G02*
X107675000Y-99651000I-200000J0D01*
G01*
X107125000Y-99651000D01*
G75*
G02*
X106925000Y-99451000I0J200000D01*
G01*
X106925000Y-99051000D01*
G75*
G02*
X107125000Y-98851000I200000J0D01*
G01*
G37*
%TD*%
%TO.C,R111*%
G36*
G01*
X111750000Y-121325000D02*
X111750000Y-121875000D01*
G75*
G02*
X111550000Y-122075000I-200000J0D01*
G01*
X111150000Y-122075000D01*
G75*
G02*
X110950000Y-121875000I0J200000D01*
G01*
X110950000Y-121325000D01*
G75*
G02*
X111150000Y-121125000I200000J0D01*
G01*
X111550000Y-121125000D01*
G75*
G02*
X111750000Y-121325000I0J-200000D01*
G01*
G37*
G36*
G01*
X113400000Y-121325000D02*
X113400000Y-121875000D01*
G75*
G02*
X113200000Y-122075000I-200000J0D01*
G01*
X112800000Y-122075000D01*
G75*
G02*
X112600000Y-121875000I0J200000D01*
G01*
X112600000Y-121325000D01*
G75*
G02*
X112800000Y-121125000I200000J0D01*
G01*
X113200000Y-121125000D01*
G75*
G02*
X113400000Y-121325000I0J-200000D01*
G01*
G37*
%TD*%
D19*
%TO.C,Q102*%
G36*
X102705000Y-108425000D02*
G01*
X102705000Y-107625000D01*
X102035000Y-107625000D01*
X102035000Y-108425000D01*
X101435000Y-108425000D01*
X101435000Y-107625000D01*
X100765000Y-107625000D01*
X100765000Y-108425000D01*
X100165000Y-108425000D01*
X100165000Y-107625000D01*
X99495000Y-107625000D01*
X99495000Y-108425000D01*
X98895000Y-108425000D01*
X98895000Y-103875000D01*
X103305000Y-103875000D01*
X103305000Y-108425000D01*
X102705000Y-108425000D01*
G37*
D20*
X99195000Y-102200000D03*
X100465000Y-102200000D03*
X101735000Y-102200000D03*
X103005000Y-102200000D03*
%TD*%
%TO.C,R108*%
G36*
G01*
X114325000Y-119725000D02*
X114875000Y-119725000D01*
G75*
G02*
X115075000Y-119925000I0J-200000D01*
G01*
X115075000Y-120325000D01*
G75*
G02*
X114875000Y-120525000I-200000J0D01*
G01*
X114325000Y-120525000D01*
G75*
G02*
X114125000Y-120325000I0J200000D01*
G01*
X114125000Y-119925000D01*
G75*
G02*
X114325000Y-119725000I200000J0D01*
G01*
G37*
G36*
G01*
X114325000Y-118075000D02*
X114875000Y-118075000D01*
G75*
G02*
X115075000Y-118275000I0J-200000D01*
G01*
X115075000Y-118675000D01*
G75*
G02*
X114875000Y-118875000I-200000J0D01*
G01*
X114325000Y-118875000D01*
G75*
G02*
X114125000Y-118675000I0J200000D01*
G01*
X114125000Y-118275000D01*
G75*
G02*
X114325000Y-118075000I200000J0D01*
G01*
G37*
%TD*%
%TO.C,R107*%
G36*
G01*
X121325000Y-116525000D02*
X121875000Y-116525000D01*
G75*
G02*
X122075000Y-116725000I0J-200000D01*
G01*
X122075000Y-117125000D01*
G75*
G02*
X121875000Y-117325000I-200000J0D01*
G01*
X121325000Y-117325000D01*
G75*
G02*
X121125000Y-117125000I0J200000D01*
G01*
X121125000Y-116725000D01*
G75*
G02*
X121325000Y-116525000I200000J0D01*
G01*
G37*
G36*
G01*
X121325000Y-114875000D02*
X121875000Y-114875000D01*
G75*
G02*
X122075000Y-115075000I0J-200000D01*
G01*
X122075000Y-115475000D01*
G75*
G02*
X121875000Y-115675000I-200000J0D01*
G01*
X121325000Y-115675000D01*
G75*
G02*
X121125000Y-115475000I0J200000D01*
G01*
X121125000Y-115075000D01*
G75*
G02*
X121325000Y-114875000I200000J0D01*
G01*
G37*
%TD*%
%TO.C,R106*%
G36*
G01*
X93375000Y-110925000D02*
X93375000Y-111475000D01*
G75*
G02*
X93175000Y-111675000I-200000J0D01*
G01*
X92775000Y-111675000D01*
G75*
G02*
X92575000Y-111475000I0J200000D01*
G01*
X92575000Y-110925000D01*
G75*
G02*
X92775000Y-110725000I200000J0D01*
G01*
X93175000Y-110725000D01*
G75*
G02*
X93375000Y-110925000I0J-200000D01*
G01*
G37*
G36*
G01*
X95025000Y-110925000D02*
X95025000Y-111475000D01*
G75*
G02*
X94825000Y-111675000I-200000J0D01*
G01*
X94425000Y-111675000D01*
G75*
G02*
X94225000Y-111475000I0J200000D01*
G01*
X94225000Y-110925000D01*
G75*
G02*
X94425000Y-110725000I200000J0D01*
G01*
X94825000Y-110725000D01*
G75*
G02*
X95025000Y-110925000I0J-200000D01*
G01*
G37*
%TD*%
%TO.C,R104*%
G36*
G01*
X117300000Y-116725000D02*
X117300000Y-117275000D01*
G75*
G02*
X117100000Y-117475000I-200000J0D01*
G01*
X116700000Y-117475000D01*
G75*
G02*
X116500000Y-117275000I0J200000D01*
G01*
X116500000Y-116725000D01*
G75*
G02*
X116700000Y-116525000I200000J0D01*
G01*
X117100000Y-116525000D01*
G75*
G02*
X117300000Y-116725000I0J-200000D01*
G01*
G37*
G36*
G01*
X118950000Y-116725000D02*
X118950000Y-117275000D01*
G75*
G02*
X118750000Y-117475000I-200000J0D01*
G01*
X118350000Y-117475000D01*
G75*
G02*
X118150000Y-117275000I0J200000D01*
G01*
X118150000Y-116725000D01*
G75*
G02*
X118350000Y-116525000I200000J0D01*
G01*
X118750000Y-116525000D01*
G75*
G02*
X118950000Y-116725000I0J-200000D01*
G01*
G37*
%TD*%
%TO.C,R103*%
G36*
G01*
X111425000Y-118675000D02*
X110875000Y-118675000D01*
G75*
G02*
X110675000Y-118475000I0J200000D01*
G01*
X110675000Y-118075000D01*
G75*
G02*
X110875000Y-117875000I200000J0D01*
G01*
X111425000Y-117875000D01*
G75*
G02*
X111625000Y-118075000I0J-200000D01*
G01*
X111625000Y-118475000D01*
G75*
G02*
X111425000Y-118675000I-200000J0D01*
G01*
G37*
G36*
G01*
X111425000Y-120325000D02*
X110875000Y-120325000D01*
G75*
G02*
X110675000Y-120125000I0J200000D01*
G01*
X110675000Y-119725000D01*
G75*
G02*
X110875000Y-119525000I200000J0D01*
G01*
X111425000Y-119525000D01*
G75*
G02*
X111625000Y-119725000I0J-200000D01*
G01*
X111625000Y-120125000D01*
G75*
G02*
X111425000Y-120325000I-200000J0D01*
G01*
G37*
%TD*%
%TO.C,R101*%
G36*
G01*
X108650000Y-121325000D02*
X108650000Y-121875000D01*
G75*
G02*
X108450000Y-122075000I-200000J0D01*
G01*
X108050000Y-122075000D01*
G75*
G02*
X107850000Y-121875000I0J200000D01*
G01*
X107850000Y-121325000D01*
G75*
G02*
X108050000Y-121125000I200000J0D01*
G01*
X108450000Y-121125000D01*
G75*
G02*
X108650000Y-121325000I0J-200000D01*
G01*
G37*
G36*
G01*
X110300000Y-121325000D02*
X110300000Y-121875000D01*
G75*
G02*
X110100000Y-122075000I-200000J0D01*
G01*
X109700000Y-122075000D01*
G75*
G02*
X109500000Y-121875000I0J200000D01*
G01*
X109500000Y-121325000D01*
G75*
G02*
X109700000Y-121125000I200000J0D01*
G01*
X110100000Y-121125000D01*
G75*
G02*
X110300000Y-121325000I0J-200000D01*
G01*
G37*
%TD*%
D19*
%TO.C,Q101*%
G36*
X102705000Y-115775000D02*
G01*
X102705000Y-114975000D01*
X102035000Y-114975000D01*
X102035000Y-115775000D01*
X101435000Y-115775000D01*
X101435000Y-114975000D01*
X100765000Y-114975000D01*
X100765000Y-115775000D01*
X100165000Y-115775000D01*
X100165000Y-114975000D01*
X99495000Y-114975000D01*
X99495000Y-115775000D01*
X98895000Y-115775000D01*
X98895000Y-111225000D01*
X103305000Y-111225000D01*
X103305000Y-115775000D01*
X102705000Y-115775000D01*
G37*
D20*
X99195000Y-109550000D03*
X100465000Y-109550000D03*
X101735000Y-109550000D03*
X103005000Y-109550000D03*
%TD*%
D21*
%TO.C,D101*%
X106000000Y-106400000D03*
X105050000Y-104400000D03*
X106950000Y-104400000D03*
%TD*%
%TO.C,C111*%
G36*
G01*
X94775000Y-113649550D02*
X94775000Y-115850450D01*
G75*
G02*
X94525450Y-116100000I-249550J0D01*
G01*
X93874550Y-116100000D01*
G75*
G02*
X93625000Y-115850450I0J249550D01*
G01*
X93625000Y-113649550D01*
G75*
G02*
X93874550Y-113400000I249550J0D01*
G01*
X94525450Y-113400000D01*
G75*
G02*
X94775000Y-113649550I0J-249550D01*
G01*
G37*
G36*
G01*
X97725000Y-113649999D02*
X97725000Y-115850001D01*
G75*
G02*
X97475001Y-116100000I-249999J0D01*
G01*
X96824999Y-116100000D01*
G75*
G02*
X96575000Y-115850001I0J249999D01*
G01*
X96575000Y-113649999D01*
G75*
G02*
X96824999Y-113400000I249999J0D01*
G01*
X97475001Y-113400000D01*
G75*
G02*
X97725000Y-113649999I0J-249999D01*
G01*
G37*
%TD*%
%TO.C,C109*%
G36*
G01*
X100599550Y-88700000D02*
X102800450Y-88700000D01*
G75*
G02*
X103050000Y-88949550I0J-249550D01*
G01*
X103050000Y-89600450D01*
G75*
G02*
X102800450Y-89850000I-249550J0D01*
G01*
X100599550Y-89850000D01*
G75*
G02*
X100350000Y-89600450I0J249550D01*
G01*
X100350000Y-88949550D01*
G75*
G02*
X100599550Y-88700000I249550J0D01*
G01*
G37*
G36*
G01*
X100599550Y-85750000D02*
X102800450Y-85750000D01*
G75*
G02*
X103050000Y-85999550I0J-249550D01*
G01*
X103050000Y-86650450D01*
G75*
G02*
X102800450Y-86900000I-249550J0D01*
G01*
X100599550Y-86900000D01*
G75*
G02*
X100350000Y-86650450I0J249550D01*
G01*
X100350000Y-85999550D01*
G75*
G02*
X100599550Y-85750000I249550J0D01*
G01*
G37*
%TD*%
%TO.C,C101*%
G36*
G01*
X107450000Y-117925000D02*
X107950000Y-117925000D01*
G75*
G02*
X108175000Y-118150000I0J-225000D01*
G01*
X108175000Y-118600000D01*
G75*
G02*
X107950000Y-118825000I-225000J0D01*
G01*
X107450000Y-118825000D01*
G75*
G02*
X107225000Y-118600000I0J225000D01*
G01*
X107225000Y-118150000D01*
G75*
G02*
X107450000Y-117925000I225000J0D01*
G01*
G37*
G36*
G01*
X107450000Y-116375000D02*
X107950000Y-116375000D01*
G75*
G02*
X108175000Y-116600000I0J-225000D01*
G01*
X108175000Y-117050000D01*
G75*
G02*
X107950000Y-117275000I-225000J0D01*
G01*
X107450000Y-117275000D01*
G75*
G02*
X107225000Y-117050000I0J225000D01*
G01*
X107225000Y-116600000D01*
G75*
G02*
X107450000Y-116375000I225000J0D01*
G01*
G37*
%TD*%
D22*
X107950000Y-111500000D03*
X107950000Y-113100000D03*
D23*
X113800000Y-94400000D03*
X113800000Y-95400000D03*
X113800000Y-98400000D03*
X112900000Y-94900000D03*
X100300000Y-90700000D03*
X116008000Y-113200000D03*
X109700000Y-106100000D03*
X116008000Y-112200000D03*
X116008000Y-111200000D03*
X116008000Y-110200000D03*
X116808000Y-112700000D03*
X116808000Y-111700000D03*
X116808000Y-110700000D03*
D22*
X112700000Y-99100000D03*
D23*
X112900000Y-96900000D03*
X113800000Y-96300000D03*
X112900000Y-97900000D03*
X112900000Y-93900000D03*
X102200000Y-90700000D03*
X113800000Y-97300000D03*
X101300000Y-90700000D03*
X112900000Y-95900000D03*
D22*
X114600000Y-121600000D03*
X112700000Y-102000000D03*
X106525000Y-118375000D03*
X107700000Y-119700000D03*
X91300000Y-111400000D03*
X91800000Y-112400000D03*
X92000000Y-113600000D03*
X92200000Y-116400000D03*
X92200000Y-115100000D03*
X127700000Y-97100000D03*
X126000000Y-95600000D03*
X118500000Y-98800000D03*
X120100000Y-98400000D03*
D23*
X103200000Y-90700000D03*
D22*
X56684999Y-93924999D03*
X56684999Y-105324999D03*
X58964999Y-114444999D03*
X59724999Y-83284999D03*
X62764999Y-99244999D03*
X62764999Y-122044999D03*
X64284999Y-74924999D03*
X65044999Y-89364999D03*
X65044999Y-108364999D03*
X67324999Y-128884999D03*
X68844999Y-115964999D03*
X69604999Y-81004999D03*
X70364999Y-68084999D03*
X70364999Y-95444999D03*
X72644999Y-104564999D03*
X73404999Y-122804999D03*
X73404999Y-134204999D03*
X74924999Y-87084999D03*
X75684999Y-74164999D03*
X76444999Y-112164999D03*
X77204999Y-62764999D03*
X78724999Y-98484999D03*
X81004999Y-80244999D03*
X82524999Y-68844999D03*
X82524999Y-90884999D03*
X82524999Y-106084999D03*
X85564999Y-58964999D03*
X87844999Y-74924999D03*
X88604999Y-85564999D03*
X88604999Y-96964999D03*
X94684999Y-56684999D03*
X95444999Y-71124999D03*
X98484999Y-92404999D03*
X99244999Y-63524999D03*
X99244999Y-78724999D03*
X105324999Y-57444999D03*
X108364999Y-90884999D03*
X110644999Y-69604999D03*
X110644999Y-81004999D03*
X113684999Y-60484999D03*
X114444999Y-100764999D03*
X116724999Y-74924999D03*
X117484999Y-85564999D03*
X118244999Y-108364999D03*
X119764999Y-65804999D03*
X119764999Y-94684999D03*
X121284999Y-128124999D03*
X124324999Y-78724999D03*
X124324999Y-103044999D03*
X124324999Y-115964999D03*
X125844999Y-88604999D03*
X126604999Y-134204999D03*
X128124999Y-123564999D03*
X128884999Y-68084999D03*
X129644999Y-96204999D03*
X129644999Y-109124999D03*
X131924999Y-82524999D03*
X134204999Y-117484999D03*
X134964999Y-74164999D03*
X134964999Y-102284999D03*
X135724999Y-90124999D03*
X139524999Y-110644999D03*
X141044999Y-96204999D03*
D23*
X105500000Y-121000000D03*
X101000000Y-119000000D03*
X98300000Y-119600000D03*
X96000000Y-121000000D03*
X99500000Y-121000000D03*
X102500000Y-121000000D03*
X122500000Y-126000000D03*
X122500000Y-123000000D03*
X121000000Y-124500000D03*
X119500000Y-126000000D03*
X116500000Y-126000000D03*
X113500000Y-126000000D03*
X113500000Y-123000000D03*
X115000000Y-124500000D03*
X111500000Y-124500000D03*
X110000000Y-126000000D03*
X110000000Y-123000000D03*
X107000000Y-126000000D03*
X107000000Y-123000000D03*
X104000000Y-126000000D03*
X104000000Y-123000000D03*
X108500000Y-124500000D03*
X105500000Y-124500000D03*
X101000000Y-126000000D03*
X101000000Y-123000000D03*
X102500000Y-124500000D03*
X98000000Y-126000000D03*
X99500000Y-124500000D03*
X98000000Y-123000000D03*
X96000000Y-124500000D03*
X118000000Y-124500000D03*
D22*
X110135000Y-116100000D03*
D23*
X99100000Y-100900000D03*
X105100000Y-98900000D03*
X104100000Y-99900000D03*
X105100000Y-100900000D03*
X103100000Y-100900000D03*
X101100000Y-100900000D03*
X100100000Y-99900000D03*
X102100000Y-99900000D03*
X103100000Y-98900000D03*
X101100000Y-98900000D03*
X99100000Y-98900000D03*
X98100000Y-99900000D03*
D22*
X112700000Y-106400000D03*
X113500000Y-105000000D03*
D23*
X90000000Y-99500000D03*
X90000000Y-100500000D03*
X90000000Y-101500000D03*
X90000000Y-102500000D03*
X90000000Y-103500000D03*
X90000000Y-104500000D03*
X90000000Y-105500000D03*
X90000000Y-106500000D03*
X90000000Y-107500000D03*
X98000000Y-108000000D03*
X98000000Y-107000000D03*
X98000000Y-106000000D03*
X98000000Y-105000000D03*
X98000000Y-104000000D03*
X91000000Y-102000000D03*
X92000000Y-102000000D03*
X93000000Y-102000000D03*
X94000000Y-102000000D03*
X95000000Y-102000000D03*
X96000000Y-102000000D03*
D22*
X97800000Y-109700000D03*
X104394000Y-110490000D03*
X98200000Y-102200000D03*
X111400000Y-106100000D03*
D23*
X104800000Y-80300000D03*
X104800000Y-81400000D03*
X103900000Y-87400000D03*
X104800000Y-83500000D03*
X104800000Y-84700000D03*
X104800000Y-85700000D03*
X104800000Y-86800000D03*
X104800000Y-82500000D03*
X103900000Y-83000000D03*
X103900000Y-81900000D03*
X103900000Y-80900000D03*
X103900000Y-84100000D03*
X103900000Y-85200000D03*
X103900000Y-86300000D03*
D22*
X115000000Y-114300000D03*
D23*
X94500000Y-91000000D03*
X120000000Y-106200000D03*
D22*
X109900000Y-107200000D03*
M02*
