%TF.GenerationSoftware,KiCad,Pcbnew,(5.1.7)-1*%
%TF.CreationDate,2021-06-09T19:52:20+03:00*%
%TF.ProjectId,SynchronousBuck,53796e63-6872-46f6-9e6f-75734275636b,rev?*%
%TF.SameCoordinates,Original*%
%TF.FileFunction,Other,Fab,Top*%
%FSLAX46Y46*%
G04 Gerber Fmt 4.6, Leading zero omitted, Abs format (unit mm)*
G04 Created by KiCad (PCBNEW (5.1.7)-1) date 2021-06-09 19:52:20*
%MOMM*%
%LPD*%
G01*
G04 APERTURE LIST*
%ADD10C,0.100000*%
%ADD11C,0.120000*%
%ADD12C,0.150000*%
%ADD13C,0.060000*%
G04 APERTURE END LIST*
D10*
%TO.C,C112*%
X106000000Y-78000000D02*
G75*
G03*
X106000000Y-78000000I-4000000J0D01*
G01*
X97850000Y-73850000D02*
X106150000Y-73850000D01*
X97850000Y-81150000D02*
X97850000Y-73850000D01*
X106150000Y-81150000D02*
X106150000Y-73850000D01*
X98850000Y-82150000D02*
X105150000Y-82150000D01*
X98850000Y-82150000D02*
X97850000Y-81150000D01*
X105150000Y-82150000D02*
X106150000Y-81150000D01*
X100500000Y-81562278D02*
X100500000Y-80762278D01*
X100100000Y-81162278D02*
X100900000Y-81162278D01*
%TO.C,C110*%
X97000000Y-78000000D02*
G75*
G03*
X97000000Y-78000000I-4000000J0D01*
G01*
X88850000Y-73850000D02*
X97150000Y-73850000D01*
X88850000Y-81150000D02*
X88850000Y-73850000D01*
X97150000Y-81150000D02*
X97150000Y-73850000D01*
X89850000Y-82150000D02*
X96150000Y-82150000D01*
X89850000Y-82150000D02*
X88850000Y-81150000D01*
X96150000Y-82150000D02*
X97150000Y-81150000D01*
X91500000Y-81562278D02*
X91500000Y-80762278D01*
X91100000Y-81162278D02*
X91900000Y-81162278D01*
%TO.C,R102*%
X109187500Y-119900000D02*
X109187500Y-118300000D01*
X110012500Y-119900000D02*
X109187500Y-119900000D01*
X110012500Y-118300000D02*
X110012500Y-119900000D01*
X109187500Y-118300000D02*
X110012500Y-118300000D01*
%TO.C,R120*%
X118612500Y-104800000D02*
X117787500Y-104800000D01*
X117787500Y-104800000D02*
X117787500Y-103200000D01*
X117787500Y-103200000D02*
X118612500Y-103200000D01*
X118612500Y-103200000D02*
X118612500Y-104800000D01*
%TO.C,D103*%
X124550000Y-96800000D02*
X125050000Y-96800000D01*
X124550000Y-97200000D02*
X123950000Y-96800000D01*
X124550000Y-96400000D02*
X124550000Y-97200000D01*
X123950000Y-96800000D02*
X124550000Y-96400000D01*
X123950000Y-96800000D02*
X123950000Y-97350000D01*
X123950000Y-96800000D02*
X123950000Y-96250000D01*
X123550000Y-96800000D02*
X123950000Y-96800000D01*
X122900000Y-97700000D02*
X122900000Y-95900000D01*
X125700000Y-97700000D02*
X122900000Y-97700000D01*
X125700000Y-95900000D02*
X125700000Y-97700000D01*
X122900000Y-95900000D02*
X125700000Y-95900000D01*
%TO.C,D102*%
X118114000Y-107950000D02*
X117614000Y-107950000D01*
X118114000Y-107550000D02*
X118714000Y-107950000D01*
X118114000Y-108350000D02*
X118114000Y-107550000D01*
X118714000Y-107950000D02*
X118114000Y-108350000D01*
X118714000Y-107950000D02*
X118714000Y-107400000D01*
X118714000Y-107950000D02*
X118714000Y-108500000D01*
X119114000Y-107950000D02*
X118714000Y-107950000D01*
X119764000Y-107050000D02*
X119764000Y-108850000D01*
X116964000Y-107050000D02*
X119764000Y-107050000D01*
X116964000Y-108850000D02*
X116964000Y-107050000D01*
X119764000Y-108850000D02*
X116964000Y-108850000D01*
%TO.C,R123*%
X120412500Y-103200000D02*
X120412500Y-104800000D01*
X119587500Y-103200000D02*
X120412500Y-103200000D01*
X119587500Y-104800000D02*
X119587500Y-103200000D01*
X120412500Y-104800000D02*
X119587500Y-104800000D01*
%TO.C,C120*%
X107168000Y-111684000D02*
X107168000Y-114884000D01*
X104668000Y-111684000D02*
X107168000Y-111684000D01*
X104668000Y-114884000D02*
X104668000Y-111684000D01*
X107168000Y-114884000D02*
X104668000Y-114884000D01*
%TO.C,C119*%
X91100000Y-115500000D02*
X91100000Y-117100000D01*
X90300000Y-115500000D02*
X91100000Y-115500000D01*
X90300000Y-117100000D02*
X90300000Y-115500000D01*
X91100000Y-117100000D02*
X90300000Y-117100000D01*
D11*
%TO.C,L101*%
X86400000Y-109300000D02*
X85900000Y-104500000D01*
X85900000Y-104500000D02*
X84400000Y-103400000D01*
X88600000Y-114300000D02*
X88600000Y-109300000D01*
X79900000Y-114300000D02*
X88600000Y-114300000D01*
X86400000Y-109300000D02*
X88600000Y-109300000D01*
X85900000Y-96100000D02*
X84400000Y-97200000D01*
X86400000Y-91300000D02*
X88600000Y-91300000D01*
X86400000Y-91300000D02*
X85900000Y-96100000D01*
X88600000Y-86300000D02*
X88600000Y-91300000D01*
X79900000Y-86300000D02*
X88600000Y-86300000D01*
X79900000Y-86300000D02*
X71200000Y-86300000D01*
X73400000Y-91300000D02*
X73900000Y-96100000D01*
X73400000Y-91300000D02*
X71200000Y-91300000D01*
X79900000Y-114300000D02*
X71200000Y-114300000D01*
X71200000Y-114300000D02*
X71200000Y-109300000D01*
X71200000Y-86300000D02*
X71200000Y-91300000D01*
X73900000Y-96100000D02*
X75400000Y-97200000D01*
X73400000Y-109300000D02*
X71200000Y-109300000D01*
X73900000Y-104500000D02*
X75400000Y-103400000D01*
X73400000Y-109300000D02*
X73900000Y-104500000D01*
X73500001Y-108299999D02*
G75*
G02*
X73500001Y-92300001I6399999J7999999D01*
G01*
X86299999Y-92300001D02*
G75*
G02*
X86299999Y-108299999I-6399999J-7999999D01*
G01*
X75398646Y-103398032D02*
G75*
G02*
X75400001Y-97200001I4501354J3098032D01*
G01*
X84401354Y-97201968D02*
G75*
G02*
X84399999Y-103399999I-4501354J-3098032D01*
G01*
D10*
%TO.C,U101*%
X107850000Y-109700000D02*
X107850000Y-113100000D01*
X108850000Y-114100000D02*
X114350000Y-114100000D01*
X114350000Y-114100000D02*
X114350000Y-109700000D01*
X114350000Y-109700000D02*
X107850000Y-109700000D01*
X107850000Y-113100000D02*
X108850000Y-114100000D01*
%TO.C,FID103*%
X61500000Y-81500000D02*
G75*
G03*
X61500000Y-81500000I-500000J0D01*
G01*
%TO.C,FID102*%
X139000000Y-81000000D02*
G75*
G03*
X139000000Y-81000000I-500000J0D01*
G01*
%TO.C,FID101*%
X76900000Y-132700000D02*
G75*
G03*
X76900000Y-132700000I-500000J0D01*
G01*
%TO.C,R121*%
X120412500Y-99950000D02*
X120412500Y-101550000D01*
X119587500Y-99950000D02*
X120412500Y-99950000D01*
X119587500Y-101550000D02*
X119587500Y-99950000D01*
X120412500Y-101550000D02*
X119587500Y-101550000D01*
%TO.C,R119*%
X121850000Y-111587500D02*
X123450000Y-111587500D01*
X121850000Y-112412500D02*
X121850000Y-111587500D01*
X123450000Y-112412500D02*
X121850000Y-112412500D01*
X123450000Y-111587500D02*
X123450000Y-112412500D01*
%TO.C,R118*%
X123450000Y-110662500D02*
X121850000Y-110662500D01*
X123450000Y-109837500D02*
X123450000Y-110662500D01*
X121850000Y-109837500D02*
X123450000Y-109837500D01*
X121850000Y-110662500D02*
X121850000Y-109837500D01*
%TO.C,R117*%
X121850000Y-113237500D02*
X123450000Y-113237500D01*
X121850000Y-114062500D02*
X121850000Y-113237500D01*
X123450000Y-114062500D02*
X121850000Y-114062500D01*
X123450000Y-113237500D02*
X123450000Y-114062500D01*
%TO.C,J102*%
X121330000Y-99265000D02*
X121965000Y-98630000D01*
X121330000Y-108790000D02*
X121330000Y-99265000D01*
X123870000Y-108790000D02*
X121330000Y-108790000D01*
X123870000Y-98630000D02*
X123870000Y-108790000D01*
X121965000Y-98630000D02*
X123870000Y-98630000D01*
%TO.C,R105*%
X107400000Y-99650000D02*
X104200000Y-99650000D01*
X104200000Y-99650000D02*
X104200000Y-93350000D01*
X104200000Y-93350000D02*
X107400000Y-93350000D01*
X107400000Y-93350000D02*
X107400000Y-99650000D01*
%TO.C,C102*%
X111600000Y-117050000D02*
X110600000Y-117050000D01*
X111600000Y-116550000D02*
X111600000Y-117050000D01*
X110600000Y-116550000D02*
X111600000Y-116550000D01*
X110600000Y-117050000D02*
X110600000Y-116550000D01*
%TO.C,C108*%
X96000000Y-111200000D02*
X96000000Y-109600000D01*
X96800000Y-111200000D02*
X96000000Y-111200000D01*
X96800000Y-109600000D02*
X96800000Y-111200000D01*
X96000000Y-109600000D02*
X96800000Y-109600000D01*
%TO.C,C107*%
X109000000Y-104800000D02*
X109000000Y-106400000D01*
X108200000Y-104800000D02*
X109000000Y-104800000D01*
X108200000Y-106400000D02*
X108200000Y-104800000D01*
X109000000Y-106400000D02*
X108200000Y-106400000D01*
%TO.C,C106*%
X116925000Y-114900000D02*
X118525000Y-114900000D01*
X116925000Y-115700000D02*
X116925000Y-114900000D01*
X118525000Y-115700000D02*
X116925000Y-115700000D01*
X118525000Y-114900000D02*
X118525000Y-115700000D01*
%TO.C,C105*%
X104875000Y-107500000D02*
X106475000Y-107500000D01*
X104875000Y-108300000D02*
X104875000Y-107500000D01*
X106475000Y-108300000D02*
X104875000Y-108300000D01*
X106475000Y-107500000D02*
X106475000Y-108300000D01*
%TO.C,C104*%
X115825000Y-115400000D02*
X115825000Y-117000000D01*
X115025000Y-115400000D02*
X115825000Y-115400000D01*
X115025000Y-117000000D02*
X115025000Y-115400000D01*
X115825000Y-117000000D02*
X115025000Y-117000000D01*
%TO.C,C103*%
X112600000Y-119800000D02*
X112600000Y-118200000D01*
X113400000Y-119800000D02*
X112600000Y-119800000D01*
X113400000Y-118200000D02*
X113400000Y-119800000D01*
X112600000Y-118200000D02*
X113400000Y-118200000D01*
%TO.C,R116*%
X120025000Y-116587500D02*
X121625000Y-116587500D01*
X120025000Y-117412500D02*
X120025000Y-116587500D01*
X121625000Y-117412500D02*
X120025000Y-117412500D01*
X121625000Y-116587500D02*
X121625000Y-117412500D01*
%TO.C,R115*%
X120025000Y-118287500D02*
X121625000Y-118287500D01*
X120025000Y-119112500D02*
X120025000Y-118287500D01*
X121625000Y-119112500D02*
X120025000Y-119112500D01*
X121625000Y-118287500D02*
X121625000Y-119112500D01*
%TO.C,R114*%
X110400000Y-94412500D02*
X108800000Y-94412500D01*
X110400000Y-93587500D02*
X110400000Y-94412500D01*
X108800000Y-93587500D02*
X110400000Y-93587500D01*
X108800000Y-94412500D02*
X108800000Y-93587500D01*
%TO.C,R113*%
X110400000Y-96012500D02*
X108800000Y-96012500D01*
X110400000Y-95187500D02*
X110400000Y-96012500D01*
X108800000Y-95187500D02*
X110400000Y-95187500D01*
X108800000Y-96012500D02*
X108800000Y-95187500D01*
%TO.C,R112*%
X110400000Y-97812500D02*
X108800000Y-97812500D01*
X110400000Y-96987500D02*
X110400000Y-97812500D01*
X108800000Y-96987500D02*
X110400000Y-96987500D01*
X108800000Y-97812500D02*
X108800000Y-96987500D01*
%TO.C,R111*%
X111375000Y-121187500D02*
X112975000Y-121187500D01*
X111375000Y-122012500D02*
X111375000Y-121187500D01*
X112975000Y-122012500D02*
X111375000Y-122012500D01*
X112975000Y-121187500D02*
X112975000Y-122012500D01*
%TO.C,Q102*%
X103675000Y-103150000D02*
X102675000Y-102150000D01*
X103675000Y-108050000D02*
X98525000Y-108050000D01*
X98525000Y-108050000D02*
X98525000Y-102150000D01*
X98525000Y-102150000D02*
X102675000Y-102150000D01*
X103675000Y-103150000D02*
X103675000Y-108050000D01*
%TO.C,R108*%
X115100000Y-119487500D02*
X116700000Y-119487500D01*
X115100000Y-120312500D02*
X115100000Y-119487500D01*
X116700000Y-120312500D02*
X115100000Y-120312500D01*
X116700000Y-119487500D02*
X116700000Y-120312500D01*
%TO.C,R107*%
X121625000Y-115712500D02*
X120025000Y-115712500D01*
X121625000Y-114887500D02*
X121625000Y-115712500D01*
X120025000Y-114887500D02*
X121625000Y-114887500D01*
X120025000Y-115712500D02*
X120025000Y-114887500D01*
%TO.C,R106*%
X93000000Y-110787500D02*
X94600000Y-110787500D01*
X93000000Y-111612500D02*
X93000000Y-110787500D01*
X94600000Y-111612500D02*
X93000000Y-111612500D01*
X94600000Y-110787500D02*
X94600000Y-111612500D01*
%TO.C,R104*%
X116925000Y-116587500D02*
X118525000Y-116587500D01*
X116925000Y-117412500D02*
X116925000Y-116587500D01*
X118525000Y-117412500D02*
X116925000Y-117412500D01*
X118525000Y-116587500D02*
X118525000Y-117412500D01*
%TO.C,R103*%
X111562500Y-118300000D02*
X111562500Y-119900000D01*
X110737500Y-118300000D02*
X111562500Y-118300000D01*
X110737500Y-119900000D02*
X110737500Y-118300000D01*
X111562500Y-119900000D02*
X110737500Y-119900000D01*
%TO.C,R101*%
X108275000Y-121187500D02*
X109875000Y-121187500D01*
X108275000Y-122012500D02*
X108275000Y-121187500D01*
X109875000Y-122012500D02*
X108275000Y-122012500D01*
X109875000Y-121187500D02*
X109875000Y-122012500D01*
%TO.C,Q101*%
X103675000Y-110500000D02*
X102675000Y-109500000D01*
X103675000Y-115400000D02*
X98525000Y-115400000D01*
X98525000Y-115400000D02*
X98525000Y-109500000D01*
X98525000Y-109500000D02*
X102675000Y-109500000D01*
X103675000Y-110500000D02*
X103675000Y-115400000D01*
%TO.C,D101*%
X104480000Y-104700000D02*
X104480000Y-106100000D01*
X107520000Y-106100000D02*
X104480000Y-106100000D01*
X106950000Y-104700000D02*
X107520000Y-105250000D01*
X107520000Y-105250000D02*
X107520000Y-106100000D01*
X106950000Y-104700000D02*
X104500000Y-104700000D01*
%TO.C,C111*%
X94075000Y-113500000D02*
X97275000Y-113500000D01*
X94075000Y-116000000D02*
X94075000Y-113500000D01*
X97275000Y-116000000D02*
X94075000Y-116000000D01*
X97275000Y-113500000D02*
X97275000Y-116000000D01*
%TO.C,C109*%
X100450000Y-89400000D02*
X100450000Y-86200000D01*
X102950000Y-89400000D02*
X100450000Y-89400000D01*
X102950000Y-86200000D02*
X102950000Y-89400000D01*
X100450000Y-86200000D02*
X102950000Y-86200000D01*
%TO.C,C101*%
X107300000Y-118400000D02*
X107300000Y-116800000D01*
X108100000Y-118400000D02*
X107300000Y-118400000D01*
X108100000Y-116800000D02*
X108100000Y-118400000D01*
X107300000Y-116800000D02*
X108100000Y-116800000D01*
%TD*%
%TO.C,C112*%
D12*
X102357142Y-79119047D02*
X102404761Y-79166666D01*
X102452380Y-79309523D01*
X102452380Y-79404761D01*
X102404761Y-79547619D01*
X102309523Y-79642857D01*
X102214285Y-79690476D01*
X102023809Y-79738095D01*
X101880952Y-79738095D01*
X101690476Y-79690476D01*
X101595238Y-79642857D01*
X101500000Y-79547619D01*
X101452380Y-79404761D01*
X101452380Y-79309523D01*
X101500000Y-79166666D01*
X101547619Y-79119047D01*
X102452380Y-78166666D02*
X102452380Y-78738095D01*
X102452380Y-78452380D02*
X101452380Y-78452380D01*
X101595238Y-78547619D01*
X101690476Y-78642857D01*
X101738095Y-78738095D01*
X102452380Y-77214285D02*
X102452380Y-77785714D01*
X102452380Y-77500000D02*
X101452380Y-77500000D01*
X101595238Y-77595238D01*
X101690476Y-77690476D01*
X101738095Y-77785714D01*
X101547619Y-76833333D02*
X101500000Y-76785714D01*
X101452380Y-76690476D01*
X101452380Y-76452380D01*
X101500000Y-76357142D01*
X101547619Y-76309523D01*
X101642857Y-76261904D01*
X101738095Y-76261904D01*
X101880952Y-76309523D01*
X102452380Y-76880952D01*
X102452380Y-76261904D01*
%TO.C,C110*%
X93357142Y-79119047D02*
X93404761Y-79166666D01*
X93452380Y-79309523D01*
X93452380Y-79404761D01*
X93404761Y-79547619D01*
X93309523Y-79642857D01*
X93214285Y-79690476D01*
X93023809Y-79738095D01*
X92880952Y-79738095D01*
X92690476Y-79690476D01*
X92595238Y-79642857D01*
X92500000Y-79547619D01*
X92452380Y-79404761D01*
X92452380Y-79309523D01*
X92500000Y-79166666D01*
X92547619Y-79119047D01*
X93452380Y-78166666D02*
X93452380Y-78738095D01*
X93452380Y-78452380D02*
X92452380Y-78452380D01*
X92595238Y-78547619D01*
X92690476Y-78642857D01*
X92738095Y-78738095D01*
X93452380Y-77214285D02*
X93452380Y-77785714D01*
X93452380Y-77500000D02*
X92452380Y-77500000D01*
X92595238Y-77595238D01*
X92690476Y-77690476D01*
X92738095Y-77785714D01*
X92452380Y-76595238D02*
X92452380Y-76500000D01*
X92500000Y-76404761D01*
X92547619Y-76357142D01*
X92642857Y-76309523D01*
X92833333Y-76261904D01*
X93071428Y-76261904D01*
X93261904Y-76309523D01*
X93357142Y-76357142D01*
X93404761Y-76404761D01*
X93452380Y-76500000D01*
X93452380Y-76595238D01*
X93404761Y-76690476D01*
X93357142Y-76738095D01*
X93261904Y-76785714D01*
X93071428Y-76833333D01*
X92833333Y-76833333D01*
X92642857Y-76785714D01*
X92547619Y-76738095D01*
X92500000Y-76690476D01*
X92452380Y-76595238D01*
%TO.C,R102*%
D13*
X109780952Y-119547619D02*
X109590476Y-119680952D01*
X109780952Y-119776190D02*
X109380952Y-119776190D01*
X109380952Y-119623809D01*
X109400000Y-119585714D01*
X109419047Y-119566666D01*
X109457142Y-119547619D01*
X109514285Y-119547619D01*
X109552380Y-119566666D01*
X109571428Y-119585714D01*
X109590476Y-119623809D01*
X109590476Y-119776190D01*
X109780952Y-119166666D02*
X109780952Y-119395238D01*
X109780952Y-119280952D02*
X109380952Y-119280952D01*
X109438095Y-119319047D01*
X109476190Y-119357142D01*
X109495238Y-119395238D01*
X109380952Y-118919047D02*
X109380952Y-118880952D01*
X109400000Y-118842857D01*
X109419047Y-118823809D01*
X109457142Y-118804761D01*
X109533333Y-118785714D01*
X109628571Y-118785714D01*
X109704761Y-118804761D01*
X109742857Y-118823809D01*
X109761904Y-118842857D01*
X109780952Y-118880952D01*
X109780952Y-118919047D01*
X109761904Y-118957142D01*
X109742857Y-118976190D01*
X109704761Y-118995238D01*
X109628571Y-119014285D01*
X109533333Y-119014285D01*
X109457142Y-118995238D01*
X109419047Y-118976190D01*
X109400000Y-118957142D01*
X109380952Y-118919047D01*
X109419047Y-118633333D02*
X109400000Y-118614285D01*
X109380952Y-118576190D01*
X109380952Y-118480952D01*
X109400000Y-118442857D01*
X109419047Y-118423809D01*
X109457142Y-118404761D01*
X109495238Y-118404761D01*
X109552380Y-118423809D01*
X109780952Y-118652380D01*
X109780952Y-118404761D01*
%TO.C,R120*%
D12*
X118516666Y-104783333D02*
X118183333Y-105016666D01*
X118516666Y-105183333D02*
X117816666Y-105183333D01*
X117816666Y-104916666D01*
X117850000Y-104850000D01*
X117883333Y-104816666D01*
X117950000Y-104783333D01*
X118050000Y-104783333D01*
X118116666Y-104816666D01*
X118150000Y-104850000D01*
X118183333Y-104916666D01*
X118183333Y-105183333D01*
X118516666Y-104116666D02*
X118516666Y-104516666D01*
X118516666Y-104316666D02*
X117816666Y-104316666D01*
X117916666Y-104383333D01*
X117983333Y-104450000D01*
X118016666Y-104516666D01*
X117883333Y-103850000D02*
X117850000Y-103816666D01*
X117816666Y-103750000D01*
X117816666Y-103583333D01*
X117850000Y-103516666D01*
X117883333Y-103483333D01*
X117950000Y-103450000D01*
X118016666Y-103450000D01*
X118116666Y-103483333D01*
X118516666Y-103883333D01*
X118516666Y-103450000D01*
X117816666Y-103016666D02*
X117816666Y-102950000D01*
X117850000Y-102883333D01*
X117883333Y-102850000D01*
X117950000Y-102816666D01*
X118083333Y-102783333D01*
X118250000Y-102783333D01*
X118383333Y-102816666D01*
X118450000Y-102850000D01*
X118483333Y-102883333D01*
X118516666Y-102950000D01*
X118516666Y-103016666D01*
X118483333Y-103083333D01*
X118450000Y-103116666D01*
X118383333Y-103150000D01*
X118250000Y-103183333D01*
X118083333Y-103183333D01*
X117950000Y-103150000D01*
X117883333Y-103116666D01*
X117850000Y-103083333D01*
X117816666Y-103016666D01*
%TO.C,D103*%
X123116666Y-95116666D02*
X123116666Y-94416666D01*
X123283333Y-94416666D01*
X123383333Y-94450000D01*
X123450000Y-94516666D01*
X123483333Y-94583333D01*
X123516666Y-94716666D01*
X123516666Y-94816666D01*
X123483333Y-94950000D01*
X123450000Y-95016666D01*
X123383333Y-95083333D01*
X123283333Y-95116666D01*
X123116666Y-95116666D01*
X124183333Y-95116666D02*
X123783333Y-95116666D01*
X123983333Y-95116666D02*
X123983333Y-94416666D01*
X123916666Y-94516666D01*
X123850000Y-94583333D01*
X123783333Y-94616666D01*
X124616666Y-94416666D02*
X124683333Y-94416666D01*
X124750000Y-94450000D01*
X124783333Y-94483333D01*
X124816666Y-94550000D01*
X124850000Y-94683333D01*
X124850000Y-94850000D01*
X124816666Y-94983333D01*
X124783333Y-95050000D01*
X124750000Y-95083333D01*
X124683333Y-95116666D01*
X124616666Y-95116666D01*
X124550000Y-95083333D01*
X124516666Y-95050000D01*
X124483333Y-94983333D01*
X124450000Y-94850000D01*
X124450000Y-94683333D01*
X124483333Y-94550000D01*
X124516666Y-94483333D01*
X124550000Y-94450000D01*
X124616666Y-94416666D01*
X125083333Y-94416666D02*
X125516666Y-94416666D01*
X125283333Y-94683333D01*
X125383333Y-94683333D01*
X125450000Y-94716666D01*
X125483333Y-94750000D01*
X125516666Y-94816666D01*
X125516666Y-94983333D01*
X125483333Y-95050000D01*
X125450000Y-95083333D01*
X125383333Y-95116666D01*
X125183333Y-95116666D01*
X125116666Y-95083333D01*
X125083333Y-95050000D01*
%TO.C,D102*%
X117180666Y-110266666D02*
X117180666Y-109566666D01*
X117347333Y-109566666D01*
X117447333Y-109600000D01*
X117514000Y-109666666D01*
X117547333Y-109733333D01*
X117580666Y-109866666D01*
X117580666Y-109966666D01*
X117547333Y-110100000D01*
X117514000Y-110166666D01*
X117447333Y-110233333D01*
X117347333Y-110266666D01*
X117180666Y-110266666D01*
X118247333Y-110266666D02*
X117847333Y-110266666D01*
X118047333Y-110266666D02*
X118047333Y-109566666D01*
X117980666Y-109666666D01*
X117914000Y-109733333D01*
X117847333Y-109766666D01*
X118680666Y-109566666D02*
X118747333Y-109566666D01*
X118814000Y-109600000D01*
X118847333Y-109633333D01*
X118880666Y-109700000D01*
X118914000Y-109833333D01*
X118914000Y-110000000D01*
X118880666Y-110133333D01*
X118847333Y-110200000D01*
X118814000Y-110233333D01*
X118747333Y-110266666D01*
X118680666Y-110266666D01*
X118614000Y-110233333D01*
X118580666Y-110200000D01*
X118547333Y-110133333D01*
X118514000Y-110000000D01*
X118514000Y-109833333D01*
X118547333Y-109700000D01*
X118580666Y-109633333D01*
X118614000Y-109600000D01*
X118680666Y-109566666D01*
X119180666Y-109633333D02*
X119214000Y-109600000D01*
X119280666Y-109566666D01*
X119447333Y-109566666D01*
X119514000Y-109600000D01*
X119547333Y-109633333D01*
X119580666Y-109700000D01*
X119580666Y-109766666D01*
X119547333Y-109866666D01*
X119147333Y-110266666D01*
X119580666Y-110266666D01*
%TO.C,R123*%
X120316666Y-104783333D02*
X119983333Y-105016666D01*
X120316666Y-105183333D02*
X119616666Y-105183333D01*
X119616666Y-104916666D01*
X119650000Y-104850000D01*
X119683333Y-104816666D01*
X119750000Y-104783333D01*
X119850000Y-104783333D01*
X119916666Y-104816666D01*
X119950000Y-104850000D01*
X119983333Y-104916666D01*
X119983333Y-105183333D01*
X120316666Y-104116666D02*
X120316666Y-104516666D01*
X120316666Y-104316666D02*
X119616666Y-104316666D01*
X119716666Y-104383333D01*
X119783333Y-104450000D01*
X119816666Y-104516666D01*
X119683333Y-103850000D02*
X119650000Y-103816666D01*
X119616666Y-103750000D01*
X119616666Y-103583333D01*
X119650000Y-103516666D01*
X119683333Y-103483333D01*
X119750000Y-103450000D01*
X119816666Y-103450000D01*
X119916666Y-103483333D01*
X120316666Y-103883333D01*
X120316666Y-103450000D01*
X119616666Y-103216666D02*
X119616666Y-102783333D01*
X119883333Y-103016666D01*
X119883333Y-102916666D01*
X119916666Y-102850000D01*
X119950000Y-102816666D01*
X120016666Y-102783333D01*
X120183333Y-102783333D01*
X120250000Y-102816666D01*
X120283333Y-102850000D01*
X120316666Y-102916666D01*
X120316666Y-103116666D01*
X120283333Y-103183333D01*
X120250000Y-103216666D01*
%TO.C,C120*%
X106168000Y-114067333D02*
X106201333Y-114100666D01*
X106234666Y-114200666D01*
X106234666Y-114267333D01*
X106201333Y-114367333D01*
X106134666Y-114434000D01*
X106068000Y-114467333D01*
X105934666Y-114500666D01*
X105834666Y-114500666D01*
X105701333Y-114467333D01*
X105634666Y-114434000D01*
X105568000Y-114367333D01*
X105534666Y-114267333D01*
X105534666Y-114200666D01*
X105568000Y-114100666D01*
X105601333Y-114067333D01*
X106234666Y-113400666D02*
X106234666Y-113800666D01*
X106234666Y-113600666D02*
X105534666Y-113600666D01*
X105634666Y-113667333D01*
X105701333Y-113734000D01*
X105734666Y-113800666D01*
X105601333Y-113134000D02*
X105568000Y-113100666D01*
X105534666Y-113034000D01*
X105534666Y-112867333D01*
X105568000Y-112800666D01*
X105601333Y-112767333D01*
X105668000Y-112734000D01*
X105734666Y-112734000D01*
X105834666Y-112767333D01*
X106234666Y-113167333D01*
X106234666Y-112734000D01*
X105534666Y-112300666D02*
X105534666Y-112234000D01*
X105568000Y-112167333D01*
X105601333Y-112134000D01*
X105668000Y-112100666D01*
X105801333Y-112067333D01*
X105968000Y-112067333D01*
X106101333Y-112100666D01*
X106168000Y-112134000D01*
X106201333Y-112167333D01*
X106234666Y-112234000D01*
X106234666Y-112300666D01*
X106201333Y-112367333D01*
X106168000Y-112400666D01*
X106101333Y-112434000D01*
X105968000Y-112467333D01*
X105801333Y-112467333D01*
X105668000Y-112434000D01*
X105601333Y-112400666D01*
X105568000Y-112367333D01*
X105534666Y-112300666D01*
%TO.C,C119*%
X90950000Y-117083333D02*
X90983333Y-117116666D01*
X91016666Y-117216666D01*
X91016666Y-117283333D01*
X90983333Y-117383333D01*
X90916666Y-117450000D01*
X90850000Y-117483333D01*
X90716666Y-117516666D01*
X90616666Y-117516666D01*
X90483333Y-117483333D01*
X90416666Y-117450000D01*
X90350000Y-117383333D01*
X90316666Y-117283333D01*
X90316666Y-117216666D01*
X90350000Y-117116666D01*
X90383333Y-117083333D01*
X91016666Y-116416666D02*
X91016666Y-116816666D01*
X91016666Y-116616666D02*
X90316666Y-116616666D01*
X90416666Y-116683333D01*
X90483333Y-116750000D01*
X90516666Y-116816666D01*
X91016666Y-115750000D02*
X91016666Y-116150000D01*
X91016666Y-115950000D02*
X90316666Y-115950000D01*
X90416666Y-116016666D01*
X90483333Y-116083333D01*
X90516666Y-116150000D01*
X91016666Y-115416666D02*
X91016666Y-115283333D01*
X90983333Y-115216666D01*
X90950000Y-115183333D01*
X90850000Y-115116666D01*
X90716666Y-115083333D01*
X90450000Y-115083333D01*
X90383333Y-115116666D01*
X90350000Y-115150000D01*
X90316666Y-115216666D01*
X90316666Y-115350000D01*
X90350000Y-115416666D01*
X90383333Y-115450000D01*
X90450000Y-115483333D01*
X90616666Y-115483333D01*
X90683333Y-115450000D01*
X90716666Y-115416666D01*
X90750000Y-115350000D01*
X90750000Y-115216666D01*
X90716666Y-115150000D01*
X90683333Y-115116666D01*
X90616666Y-115083333D01*
%TO.C,U101*%
X110716666Y-113100000D02*
X111283333Y-113100000D01*
X111350000Y-113066666D01*
X111383333Y-113033333D01*
X111416666Y-112966666D01*
X111416666Y-112833333D01*
X111383333Y-112766666D01*
X111350000Y-112733333D01*
X111283333Y-112700000D01*
X110716666Y-112700000D01*
X111416666Y-112000000D02*
X111416666Y-112400000D01*
X111416666Y-112200000D02*
X110716666Y-112200000D01*
X110816666Y-112266666D01*
X110883333Y-112333333D01*
X110916666Y-112400000D01*
X110716666Y-111566666D02*
X110716666Y-111500000D01*
X110750000Y-111433333D01*
X110783333Y-111400000D01*
X110850000Y-111366666D01*
X110983333Y-111333333D01*
X111150000Y-111333333D01*
X111283333Y-111366666D01*
X111350000Y-111400000D01*
X111383333Y-111433333D01*
X111416666Y-111500000D01*
X111416666Y-111566666D01*
X111383333Y-111633333D01*
X111350000Y-111666666D01*
X111283333Y-111700000D01*
X111150000Y-111733333D01*
X110983333Y-111733333D01*
X110850000Y-111700000D01*
X110783333Y-111666666D01*
X110750000Y-111633333D01*
X110716666Y-111566666D01*
X111416666Y-110666666D02*
X111416666Y-111066666D01*
X111416666Y-110866666D02*
X110716666Y-110866666D01*
X110816666Y-110933333D01*
X110883333Y-111000000D01*
X110916666Y-111066666D01*
%TO.C,H104*%
X127084270Y-71732396D02*
X127084270Y-71032396D01*
X127084270Y-71365730D02*
X127484270Y-71365730D01*
X127484270Y-71732396D02*
X127484270Y-71032396D01*
X128184270Y-71732396D02*
X127784270Y-71732396D01*
X127984270Y-71732396D02*
X127984270Y-71032396D01*
X127917603Y-71132396D01*
X127850936Y-71199063D01*
X127784270Y-71232396D01*
X128617603Y-71032396D02*
X128684270Y-71032396D01*
X128750936Y-71065730D01*
X128784270Y-71099063D01*
X128817603Y-71165730D01*
X128850936Y-71299063D01*
X128850936Y-71465730D01*
X128817603Y-71599063D01*
X128784270Y-71665730D01*
X128750936Y-71699063D01*
X128684270Y-71732396D01*
X128617603Y-71732396D01*
X128550936Y-71699063D01*
X128517603Y-71665730D01*
X128484270Y-71599063D01*
X128450936Y-71465730D01*
X128450936Y-71299063D01*
X128484270Y-71165730D01*
X128517603Y-71099063D01*
X128550936Y-71065730D01*
X128617603Y-71032396D01*
X129450936Y-71265730D02*
X129450936Y-71732396D01*
X129284270Y-70999063D02*
X129117603Y-71499063D01*
X129550936Y-71499063D01*
%TO.C,H103*%
X69915730Y-71732396D02*
X69915730Y-71032396D01*
X69915730Y-71365730D02*
X70315730Y-71365730D01*
X70315730Y-71732396D02*
X70315730Y-71032396D01*
X71015730Y-71732396D02*
X70615730Y-71732396D01*
X70815730Y-71732396D02*
X70815730Y-71032396D01*
X70749063Y-71132396D01*
X70682396Y-71199063D01*
X70615730Y-71232396D01*
X71449063Y-71032396D02*
X71515730Y-71032396D01*
X71582396Y-71065730D01*
X71615730Y-71099063D01*
X71649063Y-71165730D01*
X71682396Y-71299063D01*
X71682396Y-71465730D01*
X71649063Y-71599063D01*
X71615730Y-71665730D01*
X71582396Y-71699063D01*
X71515730Y-71732396D01*
X71449063Y-71732396D01*
X71382396Y-71699063D01*
X71349063Y-71665730D01*
X71315730Y-71599063D01*
X71282396Y-71465730D01*
X71282396Y-71299063D01*
X71315730Y-71165730D01*
X71349063Y-71099063D01*
X71382396Y-71065730D01*
X71449063Y-71032396D01*
X71915730Y-71032396D02*
X72349063Y-71032396D01*
X72115730Y-71299063D01*
X72215730Y-71299063D01*
X72282396Y-71332396D01*
X72315730Y-71365730D01*
X72349063Y-71432396D01*
X72349063Y-71599063D01*
X72315730Y-71665730D01*
X72282396Y-71699063D01*
X72215730Y-71732396D01*
X72015730Y-71732396D01*
X71949063Y-71699063D01*
X71915730Y-71665730D01*
%TO.C,H102*%
X69915730Y-128900936D02*
X69915730Y-128200936D01*
X69915730Y-128534270D02*
X70315730Y-128534270D01*
X70315730Y-128900936D02*
X70315730Y-128200936D01*
X71015730Y-128900936D02*
X70615730Y-128900936D01*
X70815730Y-128900936D02*
X70815730Y-128200936D01*
X70749063Y-128300936D01*
X70682396Y-128367603D01*
X70615730Y-128400936D01*
X71449063Y-128200936D02*
X71515730Y-128200936D01*
X71582396Y-128234270D01*
X71615730Y-128267603D01*
X71649063Y-128334270D01*
X71682396Y-128467603D01*
X71682396Y-128634270D01*
X71649063Y-128767603D01*
X71615730Y-128834270D01*
X71582396Y-128867603D01*
X71515730Y-128900936D01*
X71449063Y-128900936D01*
X71382396Y-128867603D01*
X71349063Y-128834270D01*
X71315730Y-128767603D01*
X71282396Y-128634270D01*
X71282396Y-128467603D01*
X71315730Y-128334270D01*
X71349063Y-128267603D01*
X71382396Y-128234270D01*
X71449063Y-128200936D01*
X71949063Y-128267603D02*
X71982396Y-128234270D01*
X72049063Y-128200936D01*
X72215730Y-128200936D01*
X72282396Y-128234270D01*
X72315730Y-128267603D01*
X72349063Y-128334270D01*
X72349063Y-128400936D01*
X72315730Y-128500936D01*
X71915730Y-128900936D01*
X72349063Y-128900936D01*
%TO.C,H101*%
X127084270Y-128900936D02*
X127084270Y-128200936D01*
X127084270Y-128534270D02*
X127484270Y-128534270D01*
X127484270Y-128900936D02*
X127484270Y-128200936D01*
X128184270Y-128900936D02*
X127784270Y-128900936D01*
X127984270Y-128900936D02*
X127984270Y-128200936D01*
X127917603Y-128300936D01*
X127850936Y-128367603D01*
X127784270Y-128400936D01*
X128617603Y-128200936D02*
X128684270Y-128200936D01*
X128750936Y-128234270D01*
X128784270Y-128267603D01*
X128817603Y-128334270D01*
X128850936Y-128467603D01*
X128850936Y-128634270D01*
X128817603Y-128767603D01*
X128784270Y-128834270D01*
X128750936Y-128867603D01*
X128684270Y-128900936D01*
X128617603Y-128900936D01*
X128550936Y-128867603D01*
X128517603Y-128834270D01*
X128484270Y-128767603D01*
X128450936Y-128634270D01*
X128450936Y-128467603D01*
X128484270Y-128334270D01*
X128517603Y-128267603D01*
X128550936Y-128234270D01*
X128617603Y-128200936D01*
X129517603Y-128900936D02*
X129117603Y-128900936D01*
X129317603Y-128900936D02*
X129317603Y-128200936D01*
X129250936Y-128300936D01*
X129184270Y-128367603D01*
X129117603Y-128400936D01*
%TO.C,FID103*%
X59583333Y-81450000D02*
X59350000Y-81450000D01*
X59350000Y-81816666D02*
X59350000Y-81116666D01*
X59683333Y-81116666D01*
X59950000Y-81816666D02*
X59950000Y-81116666D01*
X60283333Y-81816666D02*
X60283333Y-81116666D01*
X60450000Y-81116666D01*
X60550000Y-81150000D01*
X60616666Y-81216666D01*
X60650000Y-81283333D01*
X60683333Y-81416666D01*
X60683333Y-81516666D01*
X60650000Y-81650000D01*
X60616666Y-81716666D01*
X60550000Y-81783333D01*
X60450000Y-81816666D01*
X60283333Y-81816666D01*
X61350000Y-81816666D02*
X60950000Y-81816666D01*
X61150000Y-81816666D02*
X61150000Y-81116666D01*
X61083333Y-81216666D01*
X61016666Y-81283333D01*
X60950000Y-81316666D01*
X61783333Y-81116666D02*
X61850000Y-81116666D01*
X61916666Y-81150000D01*
X61950000Y-81183333D01*
X61983333Y-81250000D01*
X62016666Y-81383333D01*
X62016666Y-81550000D01*
X61983333Y-81683333D01*
X61950000Y-81750000D01*
X61916666Y-81783333D01*
X61850000Y-81816666D01*
X61783333Y-81816666D01*
X61716666Y-81783333D01*
X61683333Y-81750000D01*
X61650000Y-81683333D01*
X61616666Y-81550000D01*
X61616666Y-81383333D01*
X61650000Y-81250000D01*
X61683333Y-81183333D01*
X61716666Y-81150000D01*
X61783333Y-81116666D01*
X62250000Y-81116666D02*
X62683333Y-81116666D01*
X62450000Y-81383333D01*
X62550000Y-81383333D01*
X62616666Y-81416666D01*
X62650000Y-81450000D01*
X62683333Y-81516666D01*
X62683333Y-81683333D01*
X62650000Y-81750000D01*
X62616666Y-81783333D01*
X62550000Y-81816666D01*
X62350000Y-81816666D01*
X62283333Y-81783333D01*
X62250000Y-81750000D01*
%TO.C,FID102*%
X137083333Y-80950000D02*
X136850000Y-80950000D01*
X136850000Y-81316666D02*
X136850000Y-80616666D01*
X137183333Y-80616666D01*
X137450000Y-81316666D02*
X137450000Y-80616666D01*
X137783333Y-81316666D02*
X137783333Y-80616666D01*
X137950000Y-80616666D01*
X138050000Y-80650000D01*
X138116666Y-80716666D01*
X138150000Y-80783333D01*
X138183333Y-80916666D01*
X138183333Y-81016666D01*
X138150000Y-81150000D01*
X138116666Y-81216666D01*
X138050000Y-81283333D01*
X137950000Y-81316666D01*
X137783333Y-81316666D01*
X138850000Y-81316666D02*
X138450000Y-81316666D01*
X138650000Y-81316666D02*
X138650000Y-80616666D01*
X138583333Y-80716666D01*
X138516666Y-80783333D01*
X138450000Y-80816666D01*
X139283333Y-80616666D02*
X139350000Y-80616666D01*
X139416666Y-80650000D01*
X139450000Y-80683333D01*
X139483333Y-80750000D01*
X139516666Y-80883333D01*
X139516666Y-81050000D01*
X139483333Y-81183333D01*
X139450000Y-81250000D01*
X139416666Y-81283333D01*
X139350000Y-81316666D01*
X139283333Y-81316666D01*
X139216666Y-81283333D01*
X139183333Y-81250000D01*
X139150000Y-81183333D01*
X139116666Y-81050000D01*
X139116666Y-80883333D01*
X139150000Y-80750000D01*
X139183333Y-80683333D01*
X139216666Y-80650000D01*
X139283333Y-80616666D01*
X139783333Y-80683333D02*
X139816666Y-80650000D01*
X139883333Y-80616666D01*
X140050000Y-80616666D01*
X140116666Y-80650000D01*
X140150000Y-80683333D01*
X140183333Y-80750000D01*
X140183333Y-80816666D01*
X140150000Y-80916666D01*
X139750000Y-81316666D01*
X140183333Y-81316666D01*
%TO.C,FID101*%
X74983333Y-132650000D02*
X74750000Y-132650000D01*
X74750000Y-133016666D02*
X74750000Y-132316666D01*
X75083333Y-132316666D01*
X75350000Y-133016666D02*
X75350000Y-132316666D01*
X75683333Y-133016666D02*
X75683333Y-132316666D01*
X75850000Y-132316666D01*
X75950000Y-132350000D01*
X76016666Y-132416666D01*
X76050000Y-132483333D01*
X76083333Y-132616666D01*
X76083333Y-132716666D01*
X76050000Y-132850000D01*
X76016666Y-132916666D01*
X75950000Y-132983333D01*
X75850000Y-133016666D01*
X75683333Y-133016666D01*
X76750000Y-133016666D02*
X76350000Y-133016666D01*
X76550000Y-133016666D02*
X76550000Y-132316666D01*
X76483333Y-132416666D01*
X76416666Y-132483333D01*
X76350000Y-132516666D01*
X77183333Y-132316666D02*
X77250000Y-132316666D01*
X77316666Y-132350000D01*
X77350000Y-132383333D01*
X77383333Y-132450000D01*
X77416666Y-132583333D01*
X77416666Y-132750000D01*
X77383333Y-132883333D01*
X77350000Y-132950000D01*
X77316666Y-132983333D01*
X77250000Y-133016666D01*
X77183333Y-133016666D01*
X77116666Y-132983333D01*
X77083333Y-132950000D01*
X77050000Y-132883333D01*
X77016666Y-132750000D01*
X77016666Y-132583333D01*
X77050000Y-132450000D01*
X77083333Y-132383333D01*
X77116666Y-132350000D01*
X77183333Y-132316666D01*
X78083333Y-133016666D02*
X77683333Y-133016666D01*
X77883333Y-133016666D02*
X77883333Y-132316666D01*
X77816666Y-132416666D01*
X77750000Y-132483333D01*
X77683333Y-132516666D01*
%TO.C,R121*%
X120316666Y-101533333D02*
X119983333Y-101766666D01*
X120316666Y-101933333D02*
X119616666Y-101933333D01*
X119616666Y-101666666D01*
X119650000Y-101600000D01*
X119683333Y-101566666D01*
X119750000Y-101533333D01*
X119850000Y-101533333D01*
X119916666Y-101566666D01*
X119950000Y-101600000D01*
X119983333Y-101666666D01*
X119983333Y-101933333D01*
X120316666Y-100866666D02*
X120316666Y-101266666D01*
X120316666Y-101066666D02*
X119616666Y-101066666D01*
X119716666Y-101133333D01*
X119783333Y-101200000D01*
X119816666Y-101266666D01*
X119683333Y-100600000D02*
X119650000Y-100566666D01*
X119616666Y-100500000D01*
X119616666Y-100333333D01*
X119650000Y-100266666D01*
X119683333Y-100233333D01*
X119750000Y-100200000D01*
X119816666Y-100200000D01*
X119916666Y-100233333D01*
X120316666Y-100633333D01*
X120316666Y-100200000D01*
X120316666Y-99533333D02*
X120316666Y-99933333D01*
X120316666Y-99733333D02*
X119616666Y-99733333D01*
X119716666Y-99800000D01*
X119783333Y-99866666D01*
X119816666Y-99933333D01*
%TO.C,R119*%
X121866666Y-112316666D02*
X121633333Y-111983333D01*
X121466666Y-112316666D02*
X121466666Y-111616666D01*
X121733333Y-111616666D01*
X121800000Y-111650000D01*
X121833333Y-111683333D01*
X121866666Y-111750000D01*
X121866666Y-111850000D01*
X121833333Y-111916666D01*
X121800000Y-111950000D01*
X121733333Y-111983333D01*
X121466666Y-111983333D01*
X122533333Y-112316666D02*
X122133333Y-112316666D01*
X122333333Y-112316666D02*
X122333333Y-111616666D01*
X122266666Y-111716666D01*
X122200000Y-111783333D01*
X122133333Y-111816666D01*
X123200000Y-112316666D02*
X122800000Y-112316666D01*
X123000000Y-112316666D02*
X123000000Y-111616666D01*
X122933333Y-111716666D01*
X122866666Y-111783333D01*
X122800000Y-111816666D01*
X123533333Y-112316666D02*
X123666666Y-112316666D01*
X123733333Y-112283333D01*
X123766666Y-112250000D01*
X123833333Y-112150000D01*
X123866666Y-112016666D01*
X123866666Y-111750000D01*
X123833333Y-111683333D01*
X123800000Y-111650000D01*
X123733333Y-111616666D01*
X123600000Y-111616666D01*
X123533333Y-111650000D01*
X123500000Y-111683333D01*
X123466666Y-111750000D01*
X123466666Y-111916666D01*
X123500000Y-111983333D01*
X123533333Y-112016666D01*
X123600000Y-112050000D01*
X123733333Y-112050000D01*
X123800000Y-112016666D01*
X123833333Y-111983333D01*
X123866666Y-111916666D01*
%TO.C,R118*%
X121866666Y-110566666D02*
X121633333Y-110233333D01*
X121466666Y-110566666D02*
X121466666Y-109866666D01*
X121733333Y-109866666D01*
X121800000Y-109900000D01*
X121833333Y-109933333D01*
X121866666Y-110000000D01*
X121866666Y-110100000D01*
X121833333Y-110166666D01*
X121800000Y-110200000D01*
X121733333Y-110233333D01*
X121466666Y-110233333D01*
X122533333Y-110566666D02*
X122133333Y-110566666D01*
X122333333Y-110566666D02*
X122333333Y-109866666D01*
X122266666Y-109966666D01*
X122200000Y-110033333D01*
X122133333Y-110066666D01*
X123200000Y-110566666D02*
X122800000Y-110566666D01*
X123000000Y-110566666D02*
X123000000Y-109866666D01*
X122933333Y-109966666D01*
X122866666Y-110033333D01*
X122800000Y-110066666D01*
X123600000Y-110166666D02*
X123533333Y-110133333D01*
X123500000Y-110100000D01*
X123466666Y-110033333D01*
X123466666Y-110000000D01*
X123500000Y-109933333D01*
X123533333Y-109900000D01*
X123600000Y-109866666D01*
X123733333Y-109866666D01*
X123800000Y-109900000D01*
X123833333Y-109933333D01*
X123866666Y-110000000D01*
X123866666Y-110033333D01*
X123833333Y-110100000D01*
X123800000Y-110133333D01*
X123733333Y-110166666D01*
X123600000Y-110166666D01*
X123533333Y-110200000D01*
X123500000Y-110233333D01*
X123466666Y-110300000D01*
X123466666Y-110433333D01*
X123500000Y-110500000D01*
X123533333Y-110533333D01*
X123600000Y-110566666D01*
X123733333Y-110566666D01*
X123800000Y-110533333D01*
X123833333Y-110500000D01*
X123866666Y-110433333D01*
X123866666Y-110300000D01*
X123833333Y-110233333D01*
X123800000Y-110200000D01*
X123733333Y-110166666D01*
%TO.C,R117*%
X121866666Y-113966666D02*
X121633333Y-113633333D01*
X121466666Y-113966666D02*
X121466666Y-113266666D01*
X121733333Y-113266666D01*
X121800000Y-113300000D01*
X121833333Y-113333333D01*
X121866666Y-113400000D01*
X121866666Y-113500000D01*
X121833333Y-113566666D01*
X121800000Y-113600000D01*
X121733333Y-113633333D01*
X121466666Y-113633333D01*
X122533333Y-113966666D02*
X122133333Y-113966666D01*
X122333333Y-113966666D02*
X122333333Y-113266666D01*
X122266666Y-113366666D01*
X122200000Y-113433333D01*
X122133333Y-113466666D01*
X123200000Y-113966666D02*
X122800000Y-113966666D01*
X123000000Y-113966666D02*
X123000000Y-113266666D01*
X122933333Y-113366666D01*
X122866666Y-113433333D01*
X122800000Y-113466666D01*
X123433333Y-113266666D02*
X123900000Y-113266666D01*
X123600000Y-113966666D01*
%TO.C,J102*%
X122216666Y-104610000D02*
X122716666Y-104610000D01*
X122816666Y-104643333D01*
X122883333Y-104710000D01*
X122916666Y-104810000D01*
X122916666Y-104876666D01*
X122916666Y-103910000D02*
X122916666Y-104310000D01*
X122916666Y-104110000D02*
X122216666Y-104110000D01*
X122316666Y-104176666D01*
X122383333Y-104243333D01*
X122416666Y-104310000D01*
X122216666Y-103476666D02*
X122216666Y-103410000D01*
X122250000Y-103343333D01*
X122283333Y-103310000D01*
X122350000Y-103276666D01*
X122483333Y-103243333D01*
X122650000Y-103243333D01*
X122783333Y-103276666D01*
X122850000Y-103310000D01*
X122883333Y-103343333D01*
X122916666Y-103410000D01*
X122916666Y-103476666D01*
X122883333Y-103543333D01*
X122850000Y-103576666D01*
X122783333Y-103610000D01*
X122650000Y-103643333D01*
X122483333Y-103643333D01*
X122350000Y-103610000D01*
X122283333Y-103576666D01*
X122250000Y-103543333D01*
X122216666Y-103476666D01*
X122283333Y-102976666D02*
X122250000Y-102943333D01*
X122216666Y-102876666D01*
X122216666Y-102710000D01*
X122250000Y-102643333D01*
X122283333Y-102610000D01*
X122350000Y-102576666D01*
X122416666Y-102576666D01*
X122516666Y-102610000D01*
X122916666Y-103010000D01*
X122916666Y-102576666D01*
%TO.C,R105*%
X106116666Y-97283333D02*
X105783333Y-97516666D01*
X106116666Y-97683333D02*
X105416666Y-97683333D01*
X105416666Y-97416666D01*
X105450000Y-97350000D01*
X105483333Y-97316666D01*
X105550000Y-97283333D01*
X105650000Y-97283333D01*
X105716666Y-97316666D01*
X105750000Y-97350000D01*
X105783333Y-97416666D01*
X105783333Y-97683333D01*
X106116666Y-96616666D02*
X106116666Y-97016666D01*
X106116666Y-96816666D02*
X105416666Y-96816666D01*
X105516666Y-96883333D01*
X105583333Y-96950000D01*
X105616666Y-97016666D01*
X105416666Y-96183333D02*
X105416666Y-96116666D01*
X105450000Y-96050000D01*
X105483333Y-96016666D01*
X105550000Y-95983333D01*
X105683333Y-95950000D01*
X105850000Y-95950000D01*
X105983333Y-95983333D01*
X106050000Y-96016666D01*
X106083333Y-96050000D01*
X106116666Y-96116666D01*
X106116666Y-96183333D01*
X106083333Y-96250000D01*
X106050000Y-96283333D01*
X105983333Y-96316666D01*
X105850000Y-96350000D01*
X105683333Y-96350000D01*
X105550000Y-96316666D01*
X105483333Y-96283333D01*
X105450000Y-96250000D01*
X105416666Y-96183333D01*
X105416666Y-95316666D02*
X105416666Y-95650000D01*
X105750000Y-95683333D01*
X105716666Y-95650000D01*
X105683333Y-95583333D01*
X105683333Y-95416666D01*
X105716666Y-95350000D01*
X105750000Y-95316666D01*
X105816666Y-95283333D01*
X105983333Y-95283333D01*
X106050000Y-95316666D01*
X106083333Y-95350000D01*
X106116666Y-95416666D01*
X106116666Y-95583333D01*
X106083333Y-95650000D01*
X106050000Y-95683333D01*
%TO.C,C102*%
X110316666Y-117050000D02*
X110283333Y-117083333D01*
X110183333Y-117116666D01*
X110116666Y-117116666D01*
X110016666Y-117083333D01*
X109950000Y-117016666D01*
X109916666Y-116950000D01*
X109883333Y-116816666D01*
X109883333Y-116716666D01*
X109916666Y-116583333D01*
X109950000Y-116516666D01*
X110016666Y-116450000D01*
X110116666Y-116416666D01*
X110183333Y-116416666D01*
X110283333Y-116450000D01*
X110316666Y-116483333D01*
X110983333Y-117116666D02*
X110583333Y-117116666D01*
X110783333Y-117116666D02*
X110783333Y-116416666D01*
X110716666Y-116516666D01*
X110650000Y-116583333D01*
X110583333Y-116616666D01*
X111416666Y-116416666D02*
X111483333Y-116416666D01*
X111550000Y-116450000D01*
X111583333Y-116483333D01*
X111616666Y-116550000D01*
X111650000Y-116683333D01*
X111650000Y-116850000D01*
X111616666Y-116983333D01*
X111583333Y-117050000D01*
X111550000Y-117083333D01*
X111483333Y-117116666D01*
X111416666Y-117116666D01*
X111350000Y-117083333D01*
X111316666Y-117050000D01*
X111283333Y-116983333D01*
X111250000Y-116850000D01*
X111250000Y-116683333D01*
X111283333Y-116550000D01*
X111316666Y-116483333D01*
X111350000Y-116450000D01*
X111416666Y-116416666D01*
X111916666Y-116483333D02*
X111950000Y-116450000D01*
X112016666Y-116416666D01*
X112183333Y-116416666D01*
X112250000Y-116450000D01*
X112283333Y-116483333D01*
X112316666Y-116550000D01*
X112316666Y-116616666D01*
X112283333Y-116716666D01*
X111883333Y-117116666D01*
X112316666Y-117116666D01*
%TO.C,C108*%
X96650000Y-111183333D02*
X96683333Y-111216666D01*
X96716666Y-111316666D01*
X96716666Y-111383333D01*
X96683333Y-111483333D01*
X96616666Y-111550000D01*
X96550000Y-111583333D01*
X96416666Y-111616666D01*
X96316666Y-111616666D01*
X96183333Y-111583333D01*
X96116666Y-111550000D01*
X96050000Y-111483333D01*
X96016666Y-111383333D01*
X96016666Y-111316666D01*
X96050000Y-111216666D01*
X96083333Y-111183333D01*
X96716666Y-110516666D02*
X96716666Y-110916666D01*
X96716666Y-110716666D02*
X96016666Y-110716666D01*
X96116666Y-110783333D01*
X96183333Y-110850000D01*
X96216666Y-110916666D01*
X96016666Y-110083333D02*
X96016666Y-110016666D01*
X96050000Y-109950000D01*
X96083333Y-109916666D01*
X96150000Y-109883333D01*
X96283333Y-109850000D01*
X96450000Y-109850000D01*
X96583333Y-109883333D01*
X96650000Y-109916666D01*
X96683333Y-109950000D01*
X96716666Y-110016666D01*
X96716666Y-110083333D01*
X96683333Y-110150000D01*
X96650000Y-110183333D01*
X96583333Y-110216666D01*
X96450000Y-110250000D01*
X96283333Y-110250000D01*
X96150000Y-110216666D01*
X96083333Y-110183333D01*
X96050000Y-110150000D01*
X96016666Y-110083333D01*
X96316666Y-109450000D02*
X96283333Y-109516666D01*
X96250000Y-109550000D01*
X96183333Y-109583333D01*
X96150000Y-109583333D01*
X96083333Y-109550000D01*
X96050000Y-109516666D01*
X96016666Y-109450000D01*
X96016666Y-109316666D01*
X96050000Y-109250000D01*
X96083333Y-109216666D01*
X96150000Y-109183333D01*
X96183333Y-109183333D01*
X96250000Y-109216666D01*
X96283333Y-109250000D01*
X96316666Y-109316666D01*
X96316666Y-109450000D01*
X96350000Y-109516666D01*
X96383333Y-109550000D01*
X96450000Y-109583333D01*
X96583333Y-109583333D01*
X96650000Y-109550000D01*
X96683333Y-109516666D01*
X96716666Y-109450000D01*
X96716666Y-109316666D01*
X96683333Y-109250000D01*
X96650000Y-109216666D01*
X96583333Y-109183333D01*
X96450000Y-109183333D01*
X96383333Y-109216666D01*
X96350000Y-109250000D01*
X96316666Y-109316666D01*
%TO.C,C107*%
X108850000Y-106383333D02*
X108883333Y-106416666D01*
X108916666Y-106516666D01*
X108916666Y-106583333D01*
X108883333Y-106683333D01*
X108816666Y-106750000D01*
X108750000Y-106783333D01*
X108616666Y-106816666D01*
X108516666Y-106816666D01*
X108383333Y-106783333D01*
X108316666Y-106750000D01*
X108250000Y-106683333D01*
X108216666Y-106583333D01*
X108216666Y-106516666D01*
X108250000Y-106416666D01*
X108283333Y-106383333D01*
X108916666Y-105716666D02*
X108916666Y-106116666D01*
X108916666Y-105916666D02*
X108216666Y-105916666D01*
X108316666Y-105983333D01*
X108383333Y-106050000D01*
X108416666Y-106116666D01*
X108216666Y-105283333D02*
X108216666Y-105216666D01*
X108250000Y-105150000D01*
X108283333Y-105116666D01*
X108350000Y-105083333D01*
X108483333Y-105050000D01*
X108650000Y-105050000D01*
X108783333Y-105083333D01*
X108850000Y-105116666D01*
X108883333Y-105150000D01*
X108916666Y-105216666D01*
X108916666Y-105283333D01*
X108883333Y-105350000D01*
X108850000Y-105383333D01*
X108783333Y-105416666D01*
X108650000Y-105450000D01*
X108483333Y-105450000D01*
X108350000Y-105416666D01*
X108283333Y-105383333D01*
X108250000Y-105350000D01*
X108216666Y-105283333D01*
X108216666Y-104816666D02*
X108216666Y-104350000D01*
X108916666Y-104650000D01*
%TO.C,C106*%
X116941666Y-115550000D02*
X116908333Y-115583333D01*
X116808333Y-115616666D01*
X116741666Y-115616666D01*
X116641666Y-115583333D01*
X116575000Y-115516666D01*
X116541666Y-115450000D01*
X116508333Y-115316666D01*
X116508333Y-115216666D01*
X116541666Y-115083333D01*
X116575000Y-115016666D01*
X116641666Y-114950000D01*
X116741666Y-114916666D01*
X116808333Y-114916666D01*
X116908333Y-114950000D01*
X116941666Y-114983333D01*
X117608333Y-115616666D02*
X117208333Y-115616666D01*
X117408333Y-115616666D02*
X117408333Y-114916666D01*
X117341666Y-115016666D01*
X117275000Y-115083333D01*
X117208333Y-115116666D01*
X118041666Y-114916666D02*
X118108333Y-114916666D01*
X118175000Y-114950000D01*
X118208333Y-114983333D01*
X118241666Y-115050000D01*
X118275000Y-115183333D01*
X118275000Y-115350000D01*
X118241666Y-115483333D01*
X118208333Y-115550000D01*
X118175000Y-115583333D01*
X118108333Y-115616666D01*
X118041666Y-115616666D01*
X117975000Y-115583333D01*
X117941666Y-115550000D01*
X117908333Y-115483333D01*
X117875000Y-115350000D01*
X117875000Y-115183333D01*
X117908333Y-115050000D01*
X117941666Y-114983333D01*
X117975000Y-114950000D01*
X118041666Y-114916666D01*
X118875000Y-114916666D02*
X118741666Y-114916666D01*
X118675000Y-114950000D01*
X118641666Y-114983333D01*
X118575000Y-115083333D01*
X118541666Y-115216666D01*
X118541666Y-115483333D01*
X118575000Y-115550000D01*
X118608333Y-115583333D01*
X118675000Y-115616666D01*
X118808333Y-115616666D01*
X118875000Y-115583333D01*
X118908333Y-115550000D01*
X118941666Y-115483333D01*
X118941666Y-115316666D01*
X118908333Y-115250000D01*
X118875000Y-115216666D01*
X118808333Y-115183333D01*
X118675000Y-115183333D01*
X118608333Y-115216666D01*
X118575000Y-115250000D01*
X118541666Y-115316666D01*
%TO.C,C105*%
X104891666Y-108150000D02*
X104858333Y-108183333D01*
X104758333Y-108216666D01*
X104691666Y-108216666D01*
X104591666Y-108183333D01*
X104525000Y-108116666D01*
X104491666Y-108050000D01*
X104458333Y-107916666D01*
X104458333Y-107816666D01*
X104491666Y-107683333D01*
X104525000Y-107616666D01*
X104591666Y-107550000D01*
X104691666Y-107516666D01*
X104758333Y-107516666D01*
X104858333Y-107550000D01*
X104891666Y-107583333D01*
X105558333Y-108216666D02*
X105158333Y-108216666D01*
X105358333Y-108216666D02*
X105358333Y-107516666D01*
X105291666Y-107616666D01*
X105225000Y-107683333D01*
X105158333Y-107716666D01*
X105991666Y-107516666D02*
X106058333Y-107516666D01*
X106125000Y-107550000D01*
X106158333Y-107583333D01*
X106191666Y-107650000D01*
X106225000Y-107783333D01*
X106225000Y-107950000D01*
X106191666Y-108083333D01*
X106158333Y-108150000D01*
X106125000Y-108183333D01*
X106058333Y-108216666D01*
X105991666Y-108216666D01*
X105925000Y-108183333D01*
X105891666Y-108150000D01*
X105858333Y-108083333D01*
X105825000Y-107950000D01*
X105825000Y-107783333D01*
X105858333Y-107650000D01*
X105891666Y-107583333D01*
X105925000Y-107550000D01*
X105991666Y-107516666D01*
X106858333Y-107516666D02*
X106525000Y-107516666D01*
X106491666Y-107850000D01*
X106525000Y-107816666D01*
X106591666Y-107783333D01*
X106758333Y-107783333D01*
X106825000Y-107816666D01*
X106858333Y-107850000D01*
X106891666Y-107916666D01*
X106891666Y-108083333D01*
X106858333Y-108150000D01*
X106825000Y-108183333D01*
X106758333Y-108216666D01*
X106591666Y-108216666D01*
X106525000Y-108183333D01*
X106491666Y-108150000D01*
%TO.C,C104*%
X115675000Y-116983333D02*
X115708333Y-117016666D01*
X115741666Y-117116666D01*
X115741666Y-117183333D01*
X115708333Y-117283333D01*
X115641666Y-117350000D01*
X115575000Y-117383333D01*
X115441666Y-117416666D01*
X115341666Y-117416666D01*
X115208333Y-117383333D01*
X115141666Y-117350000D01*
X115075000Y-117283333D01*
X115041666Y-117183333D01*
X115041666Y-117116666D01*
X115075000Y-117016666D01*
X115108333Y-116983333D01*
X115741666Y-116316666D02*
X115741666Y-116716666D01*
X115741666Y-116516666D02*
X115041666Y-116516666D01*
X115141666Y-116583333D01*
X115208333Y-116650000D01*
X115241666Y-116716666D01*
X115041666Y-115883333D02*
X115041666Y-115816666D01*
X115075000Y-115750000D01*
X115108333Y-115716666D01*
X115175000Y-115683333D01*
X115308333Y-115650000D01*
X115475000Y-115650000D01*
X115608333Y-115683333D01*
X115675000Y-115716666D01*
X115708333Y-115750000D01*
X115741666Y-115816666D01*
X115741666Y-115883333D01*
X115708333Y-115950000D01*
X115675000Y-115983333D01*
X115608333Y-116016666D01*
X115475000Y-116050000D01*
X115308333Y-116050000D01*
X115175000Y-116016666D01*
X115108333Y-115983333D01*
X115075000Y-115950000D01*
X115041666Y-115883333D01*
X115275000Y-115050000D02*
X115741666Y-115050000D01*
X115008333Y-115216666D02*
X115508333Y-115383333D01*
X115508333Y-114950000D01*
%TO.C,C103*%
X113250000Y-119783333D02*
X113283333Y-119816666D01*
X113316666Y-119916666D01*
X113316666Y-119983333D01*
X113283333Y-120083333D01*
X113216666Y-120150000D01*
X113150000Y-120183333D01*
X113016666Y-120216666D01*
X112916666Y-120216666D01*
X112783333Y-120183333D01*
X112716666Y-120150000D01*
X112650000Y-120083333D01*
X112616666Y-119983333D01*
X112616666Y-119916666D01*
X112650000Y-119816666D01*
X112683333Y-119783333D01*
X113316666Y-119116666D02*
X113316666Y-119516666D01*
X113316666Y-119316666D02*
X112616666Y-119316666D01*
X112716666Y-119383333D01*
X112783333Y-119450000D01*
X112816666Y-119516666D01*
X112616666Y-118683333D02*
X112616666Y-118616666D01*
X112650000Y-118550000D01*
X112683333Y-118516666D01*
X112750000Y-118483333D01*
X112883333Y-118450000D01*
X113050000Y-118450000D01*
X113183333Y-118483333D01*
X113250000Y-118516666D01*
X113283333Y-118550000D01*
X113316666Y-118616666D01*
X113316666Y-118683333D01*
X113283333Y-118750000D01*
X113250000Y-118783333D01*
X113183333Y-118816666D01*
X113050000Y-118850000D01*
X112883333Y-118850000D01*
X112750000Y-118816666D01*
X112683333Y-118783333D01*
X112650000Y-118750000D01*
X112616666Y-118683333D01*
X112616666Y-118216666D02*
X112616666Y-117783333D01*
X112883333Y-118016666D01*
X112883333Y-117916666D01*
X112916666Y-117850000D01*
X112950000Y-117816666D01*
X113016666Y-117783333D01*
X113183333Y-117783333D01*
X113250000Y-117816666D01*
X113283333Y-117850000D01*
X113316666Y-117916666D01*
X113316666Y-118116666D01*
X113283333Y-118183333D01*
X113250000Y-118216666D01*
%TO.C,R116*%
X120041666Y-117316666D02*
X119808333Y-116983333D01*
X119641666Y-117316666D02*
X119641666Y-116616666D01*
X119908333Y-116616666D01*
X119975000Y-116650000D01*
X120008333Y-116683333D01*
X120041666Y-116750000D01*
X120041666Y-116850000D01*
X120008333Y-116916666D01*
X119975000Y-116950000D01*
X119908333Y-116983333D01*
X119641666Y-116983333D01*
X120708333Y-117316666D02*
X120308333Y-117316666D01*
X120508333Y-117316666D02*
X120508333Y-116616666D01*
X120441666Y-116716666D01*
X120375000Y-116783333D01*
X120308333Y-116816666D01*
X121375000Y-117316666D02*
X120975000Y-117316666D01*
X121175000Y-117316666D02*
X121175000Y-116616666D01*
X121108333Y-116716666D01*
X121041666Y-116783333D01*
X120975000Y-116816666D01*
X121975000Y-116616666D02*
X121841666Y-116616666D01*
X121775000Y-116650000D01*
X121741666Y-116683333D01*
X121675000Y-116783333D01*
X121641666Y-116916666D01*
X121641666Y-117183333D01*
X121675000Y-117250000D01*
X121708333Y-117283333D01*
X121775000Y-117316666D01*
X121908333Y-117316666D01*
X121975000Y-117283333D01*
X122008333Y-117250000D01*
X122041666Y-117183333D01*
X122041666Y-117016666D01*
X122008333Y-116950000D01*
X121975000Y-116916666D01*
X121908333Y-116883333D01*
X121775000Y-116883333D01*
X121708333Y-116916666D01*
X121675000Y-116950000D01*
X121641666Y-117016666D01*
%TO.C,R115*%
X120041666Y-119016666D02*
X119808333Y-118683333D01*
X119641666Y-119016666D02*
X119641666Y-118316666D01*
X119908333Y-118316666D01*
X119975000Y-118350000D01*
X120008333Y-118383333D01*
X120041666Y-118450000D01*
X120041666Y-118550000D01*
X120008333Y-118616666D01*
X119975000Y-118650000D01*
X119908333Y-118683333D01*
X119641666Y-118683333D01*
X120708333Y-119016666D02*
X120308333Y-119016666D01*
X120508333Y-119016666D02*
X120508333Y-118316666D01*
X120441666Y-118416666D01*
X120375000Y-118483333D01*
X120308333Y-118516666D01*
X121375000Y-119016666D02*
X120975000Y-119016666D01*
X121175000Y-119016666D02*
X121175000Y-118316666D01*
X121108333Y-118416666D01*
X121041666Y-118483333D01*
X120975000Y-118516666D01*
X122008333Y-118316666D02*
X121675000Y-118316666D01*
X121641666Y-118650000D01*
X121675000Y-118616666D01*
X121741666Y-118583333D01*
X121908333Y-118583333D01*
X121975000Y-118616666D01*
X122008333Y-118650000D01*
X122041666Y-118716666D01*
X122041666Y-118883333D01*
X122008333Y-118950000D01*
X121975000Y-118983333D01*
X121908333Y-119016666D01*
X121741666Y-119016666D01*
X121675000Y-118983333D01*
X121641666Y-118950000D01*
%TO.C,R114*%
X108816666Y-94316666D02*
X108583333Y-93983333D01*
X108416666Y-94316666D02*
X108416666Y-93616666D01*
X108683333Y-93616666D01*
X108750000Y-93650000D01*
X108783333Y-93683333D01*
X108816666Y-93750000D01*
X108816666Y-93850000D01*
X108783333Y-93916666D01*
X108750000Y-93950000D01*
X108683333Y-93983333D01*
X108416666Y-93983333D01*
X109483333Y-94316666D02*
X109083333Y-94316666D01*
X109283333Y-94316666D02*
X109283333Y-93616666D01*
X109216666Y-93716666D01*
X109150000Y-93783333D01*
X109083333Y-93816666D01*
X110150000Y-94316666D02*
X109750000Y-94316666D01*
X109950000Y-94316666D02*
X109950000Y-93616666D01*
X109883333Y-93716666D01*
X109816666Y-93783333D01*
X109750000Y-93816666D01*
X110750000Y-93850000D02*
X110750000Y-94316666D01*
X110583333Y-93583333D02*
X110416666Y-94083333D01*
X110850000Y-94083333D01*
%TO.C,R113*%
X108816666Y-95916666D02*
X108583333Y-95583333D01*
X108416666Y-95916666D02*
X108416666Y-95216666D01*
X108683333Y-95216666D01*
X108750000Y-95250000D01*
X108783333Y-95283333D01*
X108816666Y-95350000D01*
X108816666Y-95450000D01*
X108783333Y-95516666D01*
X108750000Y-95550000D01*
X108683333Y-95583333D01*
X108416666Y-95583333D01*
X109483333Y-95916666D02*
X109083333Y-95916666D01*
X109283333Y-95916666D02*
X109283333Y-95216666D01*
X109216666Y-95316666D01*
X109150000Y-95383333D01*
X109083333Y-95416666D01*
X110150000Y-95916666D02*
X109750000Y-95916666D01*
X109950000Y-95916666D02*
X109950000Y-95216666D01*
X109883333Y-95316666D01*
X109816666Y-95383333D01*
X109750000Y-95416666D01*
X110383333Y-95216666D02*
X110816666Y-95216666D01*
X110583333Y-95483333D01*
X110683333Y-95483333D01*
X110750000Y-95516666D01*
X110783333Y-95550000D01*
X110816666Y-95616666D01*
X110816666Y-95783333D01*
X110783333Y-95850000D01*
X110750000Y-95883333D01*
X110683333Y-95916666D01*
X110483333Y-95916666D01*
X110416666Y-95883333D01*
X110383333Y-95850000D01*
%TO.C,R112*%
X108816666Y-97716666D02*
X108583333Y-97383333D01*
X108416666Y-97716666D02*
X108416666Y-97016666D01*
X108683333Y-97016666D01*
X108750000Y-97050000D01*
X108783333Y-97083333D01*
X108816666Y-97150000D01*
X108816666Y-97250000D01*
X108783333Y-97316666D01*
X108750000Y-97350000D01*
X108683333Y-97383333D01*
X108416666Y-97383333D01*
X109483333Y-97716666D02*
X109083333Y-97716666D01*
X109283333Y-97716666D02*
X109283333Y-97016666D01*
X109216666Y-97116666D01*
X109150000Y-97183333D01*
X109083333Y-97216666D01*
X110150000Y-97716666D02*
X109750000Y-97716666D01*
X109950000Y-97716666D02*
X109950000Y-97016666D01*
X109883333Y-97116666D01*
X109816666Y-97183333D01*
X109750000Y-97216666D01*
X110416666Y-97083333D02*
X110450000Y-97050000D01*
X110516666Y-97016666D01*
X110683333Y-97016666D01*
X110750000Y-97050000D01*
X110783333Y-97083333D01*
X110816666Y-97150000D01*
X110816666Y-97216666D01*
X110783333Y-97316666D01*
X110383333Y-97716666D01*
X110816666Y-97716666D01*
%TO.C,R111*%
X111391666Y-121916666D02*
X111158333Y-121583333D01*
X110991666Y-121916666D02*
X110991666Y-121216666D01*
X111258333Y-121216666D01*
X111325000Y-121250000D01*
X111358333Y-121283333D01*
X111391666Y-121350000D01*
X111391666Y-121450000D01*
X111358333Y-121516666D01*
X111325000Y-121550000D01*
X111258333Y-121583333D01*
X110991666Y-121583333D01*
X112058333Y-121916666D02*
X111658333Y-121916666D01*
X111858333Y-121916666D02*
X111858333Y-121216666D01*
X111791666Y-121316666D01*
X111725000Y-121383333D01*
X111658333Y-121416666D01*
X112725000Y-121916666D02*
X112325000Y-121916666D01*
X112525000Y-121916666D02*
X112525000Y-121216666D01*
X112458333Y-121316666D01*
X112391666Y-121383333D01*
X112325000Y-121416666D01*
X113391666Y-121916666D02*
X112991666Y-121916666D01*
X113191666Y-121916666D02*
X113191666Y-121216666D01*
X113125000Y-121316666D01*
X113058333Y-121383333D01*
X112991666Y-121416666D01*
%TO.C,Q102*%
X101483333Y-105833333D02*
X101450000Y-105900000D01*
X101383333Y-105966666D01*
X101283333Y-106066666D01*
X101250000Y-106133333D01*
X101250000Y-106200000D01*
X101416666Y-106166666D02*
X101383333Y-106233333D01*
X101316666Y-106300000D01*
X101183333Y-106333333D01*
X100950000Y-106333333D01*
X100816666Y-106300000D01*
X100750000Y-106233333D01*
X100716666Y-106166666D01*
X100716666Y-106033333D01*
X100750000Y-105966666D01*
X100816666Y-105900000D01*
X100950000Y-105866666D01*
X101183333Y-105866666D01*
X101316666Y-105900000D01*
X101383333Y-105966666D01*
X101416666Y-106033333D01*
X101416666Y-106166666D01*
X101416666Y-105200000D02*
X101416666Y-105600000D01*
X101416666Y-105400000D02*
X100716666Y-105400000D01*
X100816666Y-105466666D01*
X100883333Y-105533333D01*
X100916666Y-105600000D01*
X100716666Y-104766666D02*
X100716666Y-104700000D01*
X100750000Y-104633333D01*
X100783333Y-104600000D01*
X100850000Y-104566666D01*
X100983333Y-104533333D01*
X101150000Y-104533333D01*
X101283333Y-104566666D01*
X101350000Y-104600000D01*
X101383333Y-104633333D01*
X101416666Y-104700000D01*
X101416666Y-104766666D01*
X101383333Y-104833333D01*
X101350000Y-104866666D01*
X101283333Y-104900000D01*
X101150000Y-104933333D01*
X100983333Y-104933333D01*
X100850000Y-104900000D01*
X100783333Y-104866666D01*
X100750000Y-104833333D01*
X100716666Y-104766666D01*
X100783333Y-104266666D02*
X100750000Y-104233333D01*
X100716666Y-104166666D01*
X100716666Y-104000000D01*
X100750000Y-103933333D01*
X100783333Y-103900000D01*
X100850000Y-103866666D01*
X100916666Y-103866666D01*
X101016666Y-103900000D01*
X101416666Y-104300000D01*
X101416666Y-103866666D01*
%TO.C,R108*%
X115116666Y-120216666D02*
X114883333Y-119883333D01*
X114716666Y-120216666D02*
X114716666Y-119516666D01*
X114983333Y-119516666D01*
X115050000Y-119550000D01*
X115083333Y-119583333D01*
X115116666Y-119650000D01*
X115116666Y-119750000D01*
X115083333Y-119816666D01*
X115050000Y-119850000D01*
X114983333Y-119883333D01*
X114716666Y-119883333D01*
X115783333Y-120216666D02*
X115383333Y-120216666D01*
X115583333Y-120216666D02*
X115583333Y-119516666D01*
X115516666Y-119616666D01*
X115450000Y-119683333D01*
X115383333Y-119716666D01*
X116216666Y-119516666D02*
X116283333Y-119516666D01*
X116350000Y-119550000D01*
X116383333Y-119583333D01*
X116416666Y-119650000D01*
X116450000Y-119783333D01*
X116450000Y-119950000D01*
X116416666Y-120083333D01*
X116383333Y-120150000D01*
X116350000Y-120183333D01*
X116283333Y-120216666D01*
X116216666Y-120216666D01*
X116150000Y-120183333D01*
X116116666Y-120150000D01*
X116083333Y-120083333D01*
X116050000Y-119950000D01*
X116050000Y-119783333D01*
X116083333Y-119650000D01*
X116116666Y-119583333D01*
X116150000Y-119550000D01*
X116216666Y-119516666D01*
X116850000Y-119816666D02*
X116783333Y-119783333D01*
X116750000Y-119750000D01*
X116716666Y-119683333D01*
X116716666Y-119650000D01*
X116750000Y-119583333D01*
X116783333Y-119550000D01*
X116850000Y-119516666D01*
X116983333Y-119516666D01*
X117050000Y-119550000D01*
X117083333Y-119583333D01*
X117116666Y-119650000D01*
X117116666Y-119683333D01*
X117083333Y-119750000D01*
X117050000Y-119783333D01*
X116983333Y-119816666D01*
X116850000Y-119816666D01*
X116783333Y-119850000D01*
X116750000Y-119883333D01*
X116716666Y-119950000D01*
X116716666Y-120083333D01*
X116750000Y-120150000D01*
X116783333Y-120183333D01*
X116850000Y-120216666D01*
X116983333Y-120216666D01*
X117050000Y-120183333D01*
X117083333Y-120150000D01*
X117116666Y-120083333D01*
X117116666Y-119950000D01*
X117083333Y-119883333D01*
X117050000Y-119850000D01*
X116983333Y-119816666D01*
%TO.C,R107*%
X120041666Y-115616666D02*
X119808333Y-115283333D01*
X119641666Y-115616666D02*
X119641666Y-114916666D01*
X119908333Y-114916666D01*
X119975000Y-114950000D01*
X120008333Y-114983333D01*
X120041666Y-115050000D01*
X120041666Y-115150000D01*
X120008333Y-115216666D01*
X119975000Y-115250000D01*
X119908333Y-115283333D01*
X119641666Y-115283333D01*
X120708333Y-115616666D02*
X120308333Y-115616666D01*
X120508333Y-115616666D02*
X120508333Y-114916666D01*
X120441666Y-115016666D01*
X120375000Y-115083333D01*
X120308333Y-115116666D01*
X121141666Y-114916666D02*
X121208333Y-114916666D01*
X121275000Y-114950000D01*
X121308333Y-114983333D01*
X121341666Y-115050000D01*
X121375000Y-115183333D01*
X121375000Y-115350000D01*
X121341666Y-115483333D01*
X121308333Y-115550000D01*
X121275000Y-115583333D01*
X121208333Y-115616666D01*
X121141666Y-115616666D01*
X121075000Y-115583333D01*
X121041666Y-115550000D01*
X121008333Y-115483333D01*
X120975000Y-115350000D01*
X120975000Y-115183333D01*
X121008333Y-115050000D01*
X121041666Y-114983333D01*
X121075000Y-114950000D01*
X121141666Y-114916666D01*
X121608333Y-114916666D02*
X122075000Y-114916666D01*
X121775000Y-115616666D01*
%TO.C,R106*%
X93016666Y-111516666D02*
X92783333Y-111183333D01*
X92616666Y-111516666D02*
X92616666Y-110816666D01*
X92883333Y-110816666D01*
X92950000Y-110850000D01*
X92983333Y-110883333D01*
X93016666Y-110950000D01*
X93016666Y-111050000D01*
X92983333Y-111116666D01*
X92950000Y-111150000D01*
X92883333Y-111183333D01*
X92616666Y-111183333D01*
X93683333Y-111516666D02*
X93283333Y-111516666D01*
X93483333Y-111516666D02*
X93483333Y-110816666D01*
X93416666Y-110916666D01*
X93350000Y-110983333D01*
X93283333Y-111016666D01*
X94116666Y-110816666D02*
X94183333Y-110816666D01*
X94250000Y-110850000D01*
X94283333Y-110883333D01*
X94316666Y-110950000D01*
X94350000Y-111083333D01*
X94350000Y-111250000D01*
X94316666Y-111383333D01*
X94283333Y-111450000D01*
X94250000Y-111483333D01*
X94183333Y-111516666D01*
X94116666Y-111516666D01*
X94050000Y-111483333D01*
X94016666Y-111450000D01*
X93983333Y-111383333D01*
X93950000Y-111250000D01*
X93950000Y-111083333D01*
X93983333Y-110950000D01*
X94016666Y-110883333D01*
X94050000Y-110850000D01*
X94116666Y-110816666D01*
X94950000Y-110816666D02*
X94816666Y-110816666D01*
X94750000Y-110850000D01*
X94716666Y-110883333D01*
X94650000Y-110983333D01*
X94616666Y-111116666D01*
X94616666Y-111383333D01*
X94650000Y-111450000D01*
X94683333Y-111483333D01*
X94750000Y-111516666D01*
X94883333Y-111516666D01*
X94950000Y-111483333D01*
X94983333Y-111450000D01*
X95016666Y-111383333D01*
X95016666Y-111216666D01*
X94983333Y-111150000D01*
X94950000Y-111116666D01*
X94883333Y-111083333D01*
X94750000Y-111083333D01*
X94683333Y-111116666D01*
X94650000Y-111150000D01*
X94616666Y-111216666D01*
%TO.C,R104*%
X116941666Y-117316666D02*
X116708333Y-116983333D01*
X116541666Y-117316666D02*
X116541666Y-116616666D01*
X116808333Y-116616666D01*
X116875000Y-116650000D01*
X116908333Y-116683333D01*
X116941666Y-116750000D01*
X116941666Y-116850000D01*
X116908333Y-116916666D01*
X116875000Y-116950000D01*
X116808333Y-116983333D01*
X116541666Y-116983333D01*
X117608333Y-117316666D02*
X117208333Y-117316666D01*
X117408333Y-117316666D02*
X117408333Y-116616666D01*
X117341666Y-116716666D01*
X117275000Y-116783333D01*
X117208333Y-116816666D01*
X118041666Y-116616666D02*
X118108333Y-116616666D01*
X118175000Y-116650000D01*
X118208333Y-116683333D01*
X118241666Y-116750000D01*
X118275000Y-116883333D01*
X118275000Y-117050000D01*
X118241666Y-117183333D01*
X118208333Y-117250000D01*
X118175000Y-117283333D01*
X118108333Y-117316666D01*
X118041666Y-117316666D01*
X117975000Y-117283333D01*
X117941666Y-117250000D01*
X117908333Y-117183333D01*
X117875000Y-117050000D01*
X117875000Y-116883333D01*
X117908333Y-116750000D01*
X117941666Y-116683333D01*
X117975000Y-116650000D01*
X118041666Y-116616666D01*
X118875000Y-116850000D02*
X118875000Y-117316666D01*
X118708333Y-116583333D02*
X118541666Y-117083333D01*
X118975000Y-117083333D01*
%TO.C,R103*%
X111466666Y-119883333D02*
X111133333Y-120116666D01*
X111466666Y-120283333D02*
X110766666Y-120283333D01*
X110766666Y-120016666D01*
X110800000Y-119950000D01*
X110833333Y-119916666D01*
X110900000Y-119883333D01*
X111000000Y-119883333D01*
X111066666Y-119916666D01*
X111100000Y-119950000D01*
X111133333Y-120016666D01*
X111133333Y-120283333D01*
X111466666Y-119216666D02*
X111466666Y-119616666D01*
X111466666Y-119416666D02*
X110766666Y-119416666D01*
X110866666Y-119483333D01*
X110933333Y-119550000D01*
X110966666Y-119616666D01*
X110766666Y-118783333D02*
X110766666Y-118716666D01*
X110800000Y-118650000D01*
X110833333Y-118616666D01*
X110900000Y-118583333D01*
X111033333Y-118550000D01*
X111200000Y-118550000D01*
X111333333Y-118583333D01*
X111400000Y-118616666D01*
X111433333Y-118650000D01*
X111466666Y-118716666D01*
X111466666Y-118783333D01*
X111433333Y-118850000D01*
X111400000Y-118883333D01*
X111333333Y-118916666D01*
X111200000Y-118950000D01*
X111033333Y-118950000D01*
X110900000Y-118916666D01*
X110833333Y-118883333D01*
X110800000Y-118850000D01*
X110766666Y-118783333D01*
X110766666Y-118316666D02*
X110766666Y-117883333D01*
X111033333Y-118116666D01*
X111033333Y-118016666D01*
X111066666Y-117950000D01*
X111100000Y-117916666D01*
X111166666Y-117883333D01*
X111333333Y-117883333D01*
X111400000Y-117916666D01*
X111433333Y-117950000D01*
X111466666Y-118016666D01*
X111466666Y-118216666D01*
X111433333Y-118283333D01*
X111400000Y-118316666D01*
%TO.C,R101*%
X108291666Y-121916666D02*
X108058333Y-121583333D01*
X107891666Y-121916666D02*
X107891666Y-121216666D01*
X108158333Y-121216666D01*
X108225000Y-121250000D01*
X108258333Y-121283333D01*
X108291666Y-121350000D01*
X108291666Y-121450000D01*
X108258333Y-121516666D01*
X108225000Y-121550000D01*
X108158333Y-121583333D01*
X107891666Y-121583333D01*
X108958333Y-121916666D02*
X108558333Y-121916666D01*
X108758333Y-121916666D02*
X108758333Y-121216666D01*
X108691666Y-121316666D01*
X108625000Y-121383333D01*
X108558333Y-121416666D01*
X109391666Y-121216666D02*
X109458333Y-121216666D01*
X109525000Y-121250000D01*
X109558333Y-121283333D01*
X109591666Y-121350000D01*
X109625000Y-121483333D01*
X109625000Y-121650000D01*
X109591666Y-121783333D01*
X109558333Y-121850000D01*
X109525000Y-121883333D01*
X109458333Y-121916666D01*
X109391666Y-121916666D01*
X109325000Y-121883333D01*
X109291666Y-121850000D01*
X109258333Y-121783333D01*
X109225000Y-121650000D01*
X109225000Y-121483333D01*
X109258333Y-121350000D01*
X109291666Y-121283333D01*
X109325000Y-121250000D01*
X109391666Y-121216666D01*
X110291666Y-121916666D02*
X109891666Y-121916666D01*
X110091666Y-121916666D02*
X110091666Y-121216666D01*
X110025000Y-121316666D01*
X109958333Y-121383333D01*
X109891666Y-121416666D01*
%TO.C,Q101*%
X101483333Y-113183333D02*
X101450000Y-113250000D01*
X101383333Y-113316666D01*
X101283333Y-113416666D01*
X101250000Y-113483333D01*
X101250000Y-113550000D01*
X101416666Y-113516666D02*
X101383333Y-113583333D01*
X101316666Y-113650000D01*
X101183333Y-113683333D01*
X100950000Y-113683333D01*
X100816666Y-113650000D01*
X100750000Y-113583333D01*
X100716666Y-113516666D01*
X100716666Y-113383333D01*
X100750000Y-113316666D01*
X100816666Y-113250000D01*
X100950000Y-113216666D01*
X101183333Y-113216666D01*
X101316666Y-113250000D01*
X101383333Y-113316666D01*
X101416666Y-113383333D01*
X101416666Y-113516666D01*
X101416666Y-112550000D02*
X101416666Y-112950000D01*
X101416666Y-112750000D02*
X100716666Y-112750000D01*
X100816666Y-112816666D01*
X100883333Y-112883333D01*
X100916666Y-112950000D01*
X100716666Y-112116666D02*
X100716666Y-112050000D01*
X100750000Y-111983333D01*
X100783333Y-111950000D01*
X100850000Y-111916666D01*
X100983333Y-111883333D01*
X101150000Y-111883333D01*
X101283333Y-111916666D01*
X101350000Y-111950000D01*
X101383333Y-111983333D01*
X101416666Y-112050000D01*
X101416666Y-112116666D01*
X101383333Y-112183333D01*
X101350000Y-112216666D01*
X101283333Y-112250000D01*
X101150000Y-112283333D01*
X100983333Y-112283333D01*
X100850000Y-112250000D01*
X100783333Y-112216666D01*
X100750000Y-112183333D01*
X100716666Y-112116666D01*
X101416666Y-111216666D02*
X101416666Y-111616666D01*
X101416666Y-111416666D02*
X100716666Y-111416666D01*
X100816666Y-111483333D01*
X100883333Y-111550000D01*
X100916666Y-111616666D01*
%TO.C,D101*%
X104816666Y-105716666D02*
X104816666Y-105016666D01*
X104983333Y-105016666D01*
X105083333Y-105050000D01*
X105150000Y-105116666D01*
X105183333Y-105183333D01*
X105216666Y-105316666D01*
X105216666Y-105416666D01*
X105183333Y-105550000D01*
X105150000Y-105616666D01*
X105083333Y-105683333D01*
X104983333Y-105716666D01*
X104816666Y-105716666D01*
X105883333Y-105716666D02*
X105483333Y-105716666D01*
X105683333Y-105716666D02*
X105683333Y-105016666D01*
X105616666Y-105116666D01*
X105550000Y-105183333D01*
X105483333Y-105216666D01*
X106316666Y-105016666D02*
X106383333Y-105016666D01*
X106450000Y-105050000D01*
X106483333Y-105083333D01*
X106516666Y-105150000D01*
X106550000Y-105283333D01*
X106550000Y-105450000D01*
X106516666Y-105583333D01*
X106483333Y-105650000D01*
X106450000Y-105683333D01*
X106383333Y-105716666D01*
X106316666Y-105716666D01*
X106250000Y-105683333D01*
X106216666Y-105650000D01*
X106183333Y-105583333D01*
X106150000Y-105450000D01*
X106150000Y-105283333D01*
X106183333Y-105150000D01*
X106216666Y-105083333D01*
X106250000Y-105050000D01*
X106316666Y-105016666D01*
X107216666Y-105716666D02*
X106816666Y-105716666D01*
X107016666Y-105716666D02*
X107016666Y-105016666D01*
X106950000Y-105116666D01*
X106883333Y-105183333D01*
X106816666Y-105216666D01*
%TO.C,C111*%
X94891666Y-115000000D02*
X94858333Y-115033333D01*
X94758333Y-115066666D01*
X94691666Y-115066666D01*
X94591666Y-115033333D01*
X94525000Y-114966666D01*
X94491666Y-114900000D01*
X94458333Y-114766666D01*
X94458333Y-114666666D01*
X94491666Y-114533333D01*
X94525000Y-114466666D01*
X94591666Y-114400000D01*
X94691666Y-114366666D01*
X94758333Y-114366666D01*
X94858333Y-114400000D01*
X94891666Y-114433333D01*
X95558333Y-115066666D02*
X95158333Y-115066666D01*
X95358333Y-115066666D02*
X95358333Y-114366666D01*
X95291666Y-114466666D01*
X95225000Y-114533333D01*
X95158333Y-114566666D01*
X96225000Y-115066666D02*
X95825000Y-115066666D01*
X96025000Y-115066666D02*
X96025000Y-114366666D01*
X95958333Y-114466666D01*
X95891666Y-114533333D01*
X95825000Y-114566666D01*
X96891666Y-115066666D02*
X96491666Y-115066666D01*
X96691666Y-115066666D02*
X96691666Y-114366666D01*
X96625000Y-114466666D01*
X96558333Y-114533333D01*
X96491666Y-114566666D01*
%TO.C,C109*%
X101950000Y-88583333D02*
X101983333Y-88616666D01*
X102016666Y-88716666D01*
X102016666Y-88783333D01*
X101983333Y-88883333D01*
X101916666Y-88950000D01*
X101850000Y-88983333D01*
X101716666Y-89016666D01*
X101616666Y-89016666D01*
X101483333Y-88983333D01*
X101416666Y-88950000D01*
X101350000Y-88883333D01*
X101316666Y-88783333D01*
X101316666Y-88716666D01*
X101350000Y-88616666D01*
X101383333Y-88583333D01*
X102016666Y-87916666D02*
X102016666Y-88316666D01*
X102016666Y-88116666D02*
X101316666Y-88116666D01*
X101416666Y-88183333D01*
X101483333Y-88250000D01*
X101516666Y-88316666D01*
X101316666Y-87483333D02*
X101316666Y-87416666D01*
X101350000Y-87350000D01*
X101383333Y-87316666D01*
X101450000Y-87283333D01*
X101583333Y-87250000D01*
X101750000Y-87250000D01*
X101883333Y-87283333D01*
X101950000Y-87316666D01*
X101983333Y-87350000D01*
X102016666Y-87416666D01*
X102016666Y-87483333D01*
X101983333Y-87550000D01*
X101950000Y-87583333D01*
X101883333Y-87616666D01*
X101750000Y-87650000D01*
X101583333Y-87650000D01*
X101450000Y-87616666D01*
X101383333Y-87583333D01*
X101350000Y-87550000D01*
X101316666Y-87483333D01*
X102016666Y-86916666D02*
X102016666Y-86783333D01*
X101983333Y-86716666D01*
X101950000Y-86683333D01*
X101850000Y-86616666D01*
X101716666Y-86583333D01*
X101450000Y-86583333D01*
X101383333Y-86616666D01*
X101350000Y-86650000D01*
X101316666Y-86716666D01*
X101316666Y-86850000D01*
X101350000Y-86916666D01*
X101383333Y-86950000D01*
X101450000Y-86983333D01*
X101616666Y-86983333D01*
X101683333Y-86950000D01*
X101716666Y-86916666D01*
X101750000Y-86850000D01*
X101750000Y-86716666D01*
X101716666Y-86650000D01*
X101683333Y-86616666D01*
X101616666Y-86583333D01*
%TO.C,C101*%
X107950000Y-118383333D02*
X107983333Y-118416666D01*
X108016666Y-118516666D01*
X108016666Y-118583333D01*
X107983333Y-118683333D01*
X107916666Y-118750000D01*
X107850000Y-118783333D01*
X107716666Y-118816666D01*
X107616666Y-118816666D01*
X107483333Y-118783333D01*
X107416666Y-118750000D01*
X107350000Y-118683333D01*
X107316666Y-118583333D01*
X107316666Y-118516666D01*
X107350000Y-118416666D01*
X107383333Y-118383333D01*
X108016666Y-117716666D02*
X108016666Y-118116666D01*
X108016666Y-117916666D02*
X107316666Y-117916666D01*
X107416666Y-117983333D01*
X107483333Y-118050000D01*
X107516666Y-118116666D01*
X107316666Y-117283333D02*
X107316666Y-117216666D01*
X107350000Y-117150000D01*
X107383333Y-117116666D01*
X107450000Y-117083333D01*
X107583333Y-117050000D01*
X107750000Y-117050000D01*
X107883333Y-117083333D01*
X107950000Y-117116666D01*
X107983333Y-117150000D01*
X108016666Y-117216666D01*
X108016666Y-117283333D01*
X107983333Y-117350000D01*
X107950000Y-117383333D01*
X107883333Y-117416666D01*
X107750000Y-117450000D01*
X107583333Y-117450000D01*
X107450000Y-117416666D01*
X107383333Y-117383333D01*
X107350000Y-117350000D01*
X107316666Y-117283333D01*
X108016666Y-116383333D02*
X108016666Y-116783333D01*
X108016666Y-116583333D02*
X107316666Y-116583333D01*
X107416666Y-116650000D01*
X107483333Y-116716666D01*
X107516666Y-116783333D01*
%TD*%
M02*
