M48
; DRILL file {KiCad (5.1.7)-1} date 06/08/21 21:36:10
; FORMAT={-:-/ absolute / inch / decimal}
; #@! TF.CreationDate,2021-06-08T21:36:10+03:00
; #@! TF.GenerationSoftware,Kicad,Pcbnew,(5.1.7)-1
; #@! TF.FileFunction,Plated,1,4,PTH
FMAT,2
INCH
T1C0.0118
T2C0.0157
T3C0.0394
T4C0.1693
%
G90
G05
T1
X2.2065Y-3.9041
X2.2506Y-4.2789
X2.2726Y-3.4852
X2.3608Y-4.5876
X2.4049Y-3.1545
X2.449Y-3.7278
X2.4931Y-4.1026
X2.4931Y-4.8742
X2.5813Y-2.89
X2.6033Y-3.375
X2.6033Y-4.4112
X2.6915Y-5.0947
X2.7356Y-4.6978
X2.7797Y-2.6695
X2.7797Y-3.1104
X2.7797Y-3.6175
X2.8238Y-4.1907
X2.912Y-5.2931
X2.9561Y-4.4774
X2.9781Y-3.3309
X2.9781Y-3.838
X3.0002Y-2.8679
X3.0443Y-2.4711
X3.0443Y-5.0065
X3.1545Y-3.5734
X3.1545Y-4.0805
X3.1986Y-3.0884
X3.2427Y-2.6915
X3.3309Y-2.3388
X3.353Y-3.7939
X3.375Y-3.353
X3.4411Y-2.912
X3.5945Y-4.3858
X3.626Y-4.4331
X3.6299Y-4.4724
X3.6299Y-4.5315
X3.6299Y-4.5827
X3.6616Y-2.2506
X3.6616Y-3.1104
X3.7719Y-2.7797
X3.8504Y-4.3189
X3.86Y-3.6396
X3.8661Y-4.0236
X3.8821Y-2.449
X3.9923Y-3.0222
X4.0805Y-2.2285
X4.1246Y-4.1687
X4.1939Y-4.6604
X4.2087Y-4.3307
X4.2323Y-4.0157
X4.2402Y-4.7126
X4.3346Y-4.2165
X4.336Y-4.5709
X4.3451Y-2.3829
X4.3451Y-2.912
X4.3451Y-3.3309
X4.3451Y-3.8821
X4.3819Y-4.1496
X4.4094Y-4.0787
X4.4173Y-3.8976
X4.4409Y-3.8583
X4.4882Y-3.8583
X4.4994Y-2.6474
X4.4994Y-3.5955
X4.5276Y-4.5
X4.5435Y-4.2128
X4.5656Y-3.1104
X4.6496Y-4.7008
X4.6654Y-3.9331
X4.6978Y-3.8159
X4.7199Y-2.427
X4.7199Y-2.8459
X4.7199Y-3.375
X4.7199Y-4.4553
X4.7283Y-3.874
X4.764Y-5.0285
X4.7756Y-4.7323
X4.8963Y-4.1
X4.8963Y-4.6978
X4.9183Y-3.5955
X4.9183Y-5.2931
X4.9404Y-2.6254
X4.9404Y-3.0443
X4.9606Y-3.7638
X5.0276Y-3.8228
X5.0285Y-4.323
X5.0947Y-3.3089
X5.0947Y-4.9183
X5.1167Y-3.8159
X5.1829Y-2.8018
X5.2049Y-4.5656
X5.249Y-4.1026
X5.2931Y-3.5293
X5.3152Y-3.0884
X5.4033Y-4.786
X5.4254Y-4.3451
X5.4695Y-3.8821
X5.5136Y-3.3089
X5.6238Y-3.6175
X5.6459Y-4.1246
T2
X3.5433Y-3.9173
X3.5433Y-3.9567
X3.5433Y-3.9961
X3.5433Y-4.0354
X3.5433Y-4.0748
X3.5433Y-4.1142
X3.5433Y-4.1535
X3.5433Y-4.1929
X3.5433Y-4.2323
X3.5827Y-4.0157
X3.6024Y-3.5827
X3.622Y-3.5433
X3.622Y-3.622
X3.622Y-4.0157
X3.6417Y-3.5827
X3.6614Y-3.5433
X3.6614Y-3.622
X3.6614Y-4.0157
X3.6811Y-3.5827
X3.7008Y-3.5433
X3.7008Y-3.622
X3.7008Y-4.0157
X3.7205Y-3.5827
X3.7402Y-3.5433
X3.7402Y-3.622
X3.7402Y-4.0157
X3.7795Y-4.0157
X3.7795Y-4.7638
X3.7795Y-4.9016
X3.8583Y-4.0945
X3.8583Y-4.1339
X3.8583Y-4.1732
X3.8583Y-4.2126
X3.8583Y-4.252
X3.8583Y-4.8425
X3.8583Y-4.9606
X3.8622Y-3.9331
X3.8701Y-4.7087
X3.9016Y-3.8937
X3.9016Y-3.9724
X3.9173Y-4.7638
X3.9173Y-4.9016
X3.9409Y-3.9331
X3.9764Y-3.3071
X3.9764Y-4.685
X3.9764Y-4.8425
X3.9764Y-4.9606
X3.9803Y-3.8937
X3.9803Y-3.9724
X3.9882Y-3.5709
X3.9882Y-3.6102
X3.9882Y-3.6614
X4.0157Y-3.3071
X4.0197Y-3.9331
X4.0354Y-3.5709
X4.0354Y-3.6102
X4.0354Y-3.6614
X4.0354Y-4.7638
X4.0354Y-4.9016
X4.0551Y-3.3071
X4.0591Y-3.8937
X4.0591Y-3.9724
X4.0787Y-3.5709
X4.0787Y-3.6102
X4.0787Y-3.6614
X4.0945Y-3.3071
X4.0945Y-4.8425
X4.0945Y-4.9606
X4.0984Y-3.9331
X4.122Y-3.5709
X4.122Y-3.6102
X4.1339Y-3.3071
X4.1378Y-3.8937
X4.1378Y-3.9724
X4.1535Y-4.7638
X4.1535Y-4.9016
X4.1693Y-3.5709
X4.1693Y-3.6102
X4.1732Y-2.7953
X4.1732Y-2.8346
X4.1732Y-2.874
X4.1732Y-2.9134
X4.1732Y-2.9528
X4.1732Y-2.9921
X4.1732Y-3.0315
X4.1732Y-3.0709
X4.1732Y-3.1102
X4.1732Y-3.1496
X4.1732Y-3.189
X4.1732Y-3.2283
X4.1732Y-3.2677
X4.1732Y-3.3071
X4.2126Y-4.8425
X4.2126Y-4.9606
X4.2165Y-3.5709
X4.2165Y-3.6102
X4.2638Y-3.5709
X4.2638Y-3.6102
X4.2717Y-4.9016
X4.3189Y-4.1772
X4.3307Y-4.8425
X4.3307Y-4.9606
X4.3898Y-4.9016
X4.4685Y-4.8425
X4.4685Y-4.9606
X4.5276Y-4.9016
X4.5672Y-4.3386
X4.5672Y-4.378
X4.5672Y-4.4173
X4.5672Y-4.4567
X4.5866Y-4.9606
X4.5987Y-4.3583
X4.5987Y-4.3976
X4.5987Y-4.437
X4.6457Y-4.9016
X4.7047Y-4.9606
X4.7244Y-4.1811
X4.7638Y-4.9016
X4.8228Y-4.8425
X4.8228Y-4.9606
T3
X3.2657Y-4.5748
X3.4035Y-4.5748
X4.8268Y-3.9331
X4.8268Y-4.0331
X4.8268Y-4.1331
X4.8268Y-4.2331
T4
X3.0984Y-4.811
X3.5709Y-4.811
X3.7008Y-2.5984
X4.1732Y-2.5984
T0
M30
