%TF.GenerationSoftware,KiCad,Pcbnew,(5.1.7)-1*%
%TF.CreationDate,2021-06-10T19:06:36+03:00*%
%TF.ProjectId,SynchronousBuck,53796e63-6872-46f6-9e6f-75734275636b,rev?*%
%TF.SameCoordinates,Original*%
%TF.FileFunction,Copper,L3,Inr*%
%TF.FilePolarity,Positive*%
%FSLAX46Y46*%
G04 Gerber Fmt 4.6, Leading zero omitted, Abs format (unit mm)*
G04 Created by KiCad (PCBNEW (5.1.7)-1) date 2021-06-10 19:06:36*
%MOMM*%
%LPD*%
G01*
G04 APERTURE LIST*
%TA.AperFunction,ComponentPad*%
%ADD10C,1.800000*%
%TD*%
%TA.AperFunction,ComponentPad*%
%ADD11C,8.000000*%
%TD*%
%TA.AperFunction,ComponentPad*%
%ADD12O,1.700000X1.700000*%
%TD*%
%TA.AperFunction,ComponentPad*%
%ADD13R,1.700000X1.700000*%
%TD*%
%TA.AperFunction,ViaPad*%
%ADD14C,0.600000*%
%TD*%
%TA.AperFunction,ViaPad*%
%ADD15C,0.800000*%
%TD*%
%TA.AperFunction,Conductor*%
%ADD16C,0.400000*%
%TD*%
%TA.AperFunction,Conductor*%
%ADD17C,0.200000*%
%TD*%
%TA.AperFunction,Conductor*%
%ADD18C,0.100000*%
%TD*%
%TA.AperFunction,Conductor*%
%ADD19C,0.254000*%
%TD*%
%TA.AperFunction,Conductor*%
%ADD20C,0.025400*%
%TD*%
G04 APERTURE END LIST*
D10*
%TO.N,GND*%
%TO.C,J104*%
X82950000Y-116200000D03*
%TO.N,Net-(C119-Pad2)*%
X86450000Y-116200000D03*
%TD*%
D11*
%TO.N,GND*%
%TO.C,J103*%
X94000000Y-66000000D03*
%TO.N,/VOUT*%
X106000000Y-66000000D03*
%TD*%
%TO.N,VCC*%
%TO.C,J101*%
X90700000Y-122200000D03*
%TO.N,GND*%
X78700000Y-122200000D03*
%TD*%
D12*
%TO.N,Net-(D102-Pad1)*%
%TO.C,J102*%
X122600000Y-107520000D03*
%TO.N,GND*%
X122600000Y-104980000D03*
X122600000Y-102440000D03*
D13*
%TO.N,Net-(D103-Pad1)*%
X122600000Y-99900000D03*
%TD*%
D14*
%TO.N,GND*%
X107950000Y-111500000D03*
X107950000Y-113100000D03*
D15*
X113800000Y-94400000D03*
X113800000Y-95400000D03*
X113800000Y-98400000D03*
X112900000Y-94900000D03*
X100300000Y-90700000D03*
X116008000Y-113200000D03*
X109700000Y-106100000D03*
X116008000Y-112200000D03*
X116008000Y-111200000D03*
X116008000Y-110200000D03*
X116808000Y-112700000D03*
X116808000Y-111700000D03*
X116808000Y-110700000D03*
D14*
X112700000Y-99100000D03*
D15*
X112900000Y-96900000D03*
X113800000Y-96300000D03*
X112900000Y-97900000D03*
X112900000Y-93900000D03*
X102200000Y-90700000D03*
X113800000Y-97300000D03*
X101300000Y-90700000D03*
X112900000Y-95900000D03*
D14*
X114600000Y-121600000D03*
X112700000Y-102000000D03*
X106525000Y-118375000D03*
X107700000Y-119700000D03*
X91300000Y-111400000D03*
X91800000Y-112400000D03*
X92000000Y-113600000D03*
X92200000Y-116400000D03*
X92200000Y-115100000D03*
X127700000Y-97100000D03*
X126000000Y-95600000D03*
X118500000Y-98800000D03*
X120100000Y-98400000D03*
D15*
X103200000Y-90700000D03*
D14*
X56684999Y-93924999D03*
X56684999Y-105324999D03*
X58964999Y-114444999D03*
X59724999Y-83284999D03*
X62764999Y-99244999D03*
X62764999Y-122044999D03*
X64284999Y-74924999D03*
X65044999Y-89364999D03*
X65044999Y-108364999D03*
X67324999Y-128884999D03*
X68844999Y-115964999D03*
X69604999Y-81004999D03*
X70364999Y-68084999D03*
X70364999Y-95444999D03*
X72644999Y-104564999D03*
X73404999Y-122804999D03*
X73404999Y-134204999D03*
X74924999Y-87084999D03*
X75684999Y-74164999D03*
X76444999Y-112164999D03*
X77204999Y-62764999D03*
X78724999Y-98484999D03*
X81004999Y-80244999D03*
X82524999Y-68844999D03*
X82524999Y-90884999D03*
X82524999Y-106084999D03*
X85564999Y-58964999D03*
X87844999Y-74924999D03*
X88604999Y-85564999D03*
X88604999Y-96964999D03*
X94684999Y-56684999D03*
X95444999Y-71124999D03*
X98484999Y-92404999D03*
X99244999Y-63524999D03*
X99244999Y-78724999D03*
X105324999Y-57444999D03*
X108364999Y-90884999D03*
X110644999Y-69604999D03*
X110644999Y-81004999D03*
X113684999Y-60484999D03*
X114444999Y-100764999D03*
X116724999Y-74924999D03*
X117484999Y-85564999D03*
X118244999Y-108364999D03*
X119764999Y-65804999D03*
X119764999Y-94684999D03*
X121284999Y-128124999D03*
X124324999Y-78724999D03*
X124324999Y-103044999D03*
X124324999Y-115964999D03*
X125844999Y-88604999D03*
X126604999Y-134204999D03*
X128124999Y-123564999D03*
X128884999Y-68084999D03*
X129644999Y-96204999D03*
X129644999Y-109124999D03*
X131924999Y-82524999D03*
X134204999Y-117484999D03*
X134964999Y-74164999D03*
X134964999Y-102284999D03*
X135724999Y-90124999D03*
X139524999Y-110644999D03*
X141044999Y-96204999D03*
D15*
%TO.N,VCC*%
X105500000Y-121000000D03*
X101000000Y-119000000D03*
X98300000Y-119600000D03*
X96000000Y-121000000D03*
X99500000Y-121000000D03*
X102500000Y-121000000D03*
X122500000Y-126000000D03*
X122500000Y-123000000D03*
X121000000Y-124500000D03*
X119500000Y-126000000D03*
X116500000Y-126000000D03*
X113500000Y-126000000D03*
X113500000Y-123000000D03*
X115000000Y-124500000D03*
X111500000Y-124500000D03*
X110000000Y-126000000D03*
X110000000Y-123000000D03*
X107000000Y-126000000D03*
X107000000Y-123000000D03*
X104000000Y-126000000D03*
X104000000Y-123000000D03*
X108500000Y-124500000D03*
X105500000Y-124500000D03*
X101000000Y-126000000D03*
X101000000Y-123000000D03*
X102500000Y-124500000D03*
X98000000Y-126000000D03*
X99500000Y-124500000D03*
X98000000Y-123000000D03*
X96000000Y-124500000D03*
X118000000Y-124500000D03*
D14*
X110135000Y-116100000D03*
D15*
%TO.N,Net-(Q102-Pad1)*%
X99100000Y-100900000D03*
X105100000Y-98900000D03*
X104100000Y-99900000D03*
X105100000Y-100900000D03*
X103100000Y-100900000D03*
X101100000Y-100900000D03*
X100100000Y-99900000D03*
X102100000Y-99900000D03*
X103100000Y-98900000D03*
X101100000Y-98900000D03*
X99100000Y-98900000D03*
X98100000Y-99900000D03*
D14*
%TO.N,Net-(R113-Pad2)*%
X112700000Y-106400000D03*
X113500000Y-105000000D03*
D15*
%TO.N,/SW*%
X90000000Y-99500000D03*
X90000000Y-100500000D03*
X90000000Y-101500000D03*
X90000000Y-102500000D03*
X90000000Y-103500000D03*
X90000000Y-104500000D03*
X90000000Y-105500000D03*
X90000000Y-106500000D03*
X90000000Y-107500000D03*
X98000000Y-108000000D03*
X98000000Y-107000000D03*
X98000000Y-106000000D03*
X98000000Y-105000000D03*
X98000000Y-104000000D03*
X91000000Y-102000000D03*
X92000000Y-102000000D03*
X93000000Y-102000000D03*
X94000000Y-102000000D03*
X95000000Y-102000000D03*
X96000000Y-102000000D03*
D14*
%TO.N,/HO*%
X97800000Y-109700000D03*
X104394000Y-110490000D03*
%TO.N,/LO*%
X98200000Y-102200000D03*
X111400000Y-106100000D03*
D15*
%TO.N,/VOUT*%
X104800000Y-80300000D03*
X104800000Y-81400000D03*
X103900000Y-87400000D03*
X104800000Y-83500000D03*
X104800000Y-84700000D03*
X104800000Y-85700000D03*
X104800000Y-86800000D03*
X104800000Y-82500000D03*
X103900000Y-83000000D03*
X103900000Y-81900000D03*
X103900000Y-80900000D03*
X103900000Y-84100000D03*
X103900000Y-85200000D03*
X103900000Y-86300000D03*
D14*
X115000000Y-114300000D03*
D15*
X94500000Y-91000000D03*
X120000000Y-106200000D03*
D14*
X109900000Y-107200000D03*
%TD*%
D16*
%TO.N,/HO*%
X97800000Y-109700000D02*
X97800000Y-110200000D01*
X97800000Y-110200000D02*
X98100000Y-110500000D01*
X98100000Y-110500000D02*
X104384000Y-110500000D01*
X104384000Y-110500000D02*
X104394000Y-110490000D01*
%TO.N,/LO*%
X99760001Y-103160001D02*
X99500000Y-102900000D01*
X99500000Y-102900000D02*
X99500000Y-102500000D01*
X99200000Y-102200000D02*
X98200000Y-102200000D01*
X99500000Y-102500000D02*
X99200000Y-102200000D01*
X111400000Y-106100000D02*
X111400000Y-105600000D01*
X111139999Y-105339999D02*
X105539999Y-105339999D01*
X111400000Y-105600000D02*
X111139999Y-105339999D01*
X105539999Y-105339999D02*
X104600000Y-104400000D01*
X104600000Y-103700000D02*
X104060001Y-103160001D01*
X104600000Y-104400000D02*
X104600000Y-103700000D01*
X104060001Y-103160001D02*
X99760001Y-103160001D01*
%TO.N,/VOUT*%
X97800000Y-91000000D02*
X99300000Y-89500000D01*
X99300000Y-89500000D02*
X108500000Y-89500000D01*
X94500000Y-91000000D02*
X97800000Y-91000000D01*
X109900000Y-107200000D02*
X110200000Y-107500000D01*
X110200000Y-107500000D02*
X110200000Y-108900000D01*
X113700000Y-112400000D02*
X115000000Y-112400000D01*
X110200000Y-108900000D02*
X113700000Y-112400000D01*
X115000000Y-112400000D02*
X115000000Y-114300000D01*
X115000000Y-110900000D02*
X115000000Y-112400000D01*
X108500000Y-89500000D02*
X113800000Y-89500000D01*
X113800000Y-89500000D02*
X116000000Y-91700000D01*
X116000000Y-107800000D02*
X115000000Y-108800000D01*
X116000000Y-91700000D02*
X116000000Y-107800000D01*
X115000000Y-108800000D02*
X115000000Y-110900000D01*
X111900000Y-67100000D02*
X110800000Y-66000000D01*
X116000000Y-79868802D02*
X111900000Y-75768802D01*
X110800000Y-66000000D02*
X106000000Y-66000000D01*
X116000000Y-87500000D02*
X116000000Y-79868802D01*
X111900000Y-75768802D02*
X111900000Y-67100000D01*
X117839999Y-89339999D02*
X116000000Y-87500000D01*
X117839999Y-104039999D02*
X117839999Y-89339999D01*
X120000000Y-106200000D02*
X117839999Y-104039999D01*
%TD*%
D17*
%TO.N,VCC*%
X90679668Y-111068426D02*
X90626901Y-111195818D01*
X90600000Y-111331056D01*
X90600000Y-111468944D01*
X90626901Y-111604182D01*
X90679668Y-111731574D01*
X90756274Y-111846224D01*
X90853776Y-111943726D01*
X90968426Y-112020332D01*
X91095818Y-112073099D01*
X91171497Y-112088153D01*
X91126901Y-112195818D01*
X91100000Y-112331056D01*
X91100000Y-112468944D01*
X91126901Y-112604182D01*
X91179668Y-112731574D01*
X91256274Y-112846224D01*
X91353776Y-112943726D01*
X91468426Y-113020332D01*
X91554320Y-113055910D01*
X91553776Y-113056274D01*
X91456274Y-113153776D01*
X91379668Y-113268426D01*
X91326901Y-113395818D01*
X91300000Y-113531056D01*
X91300000Y-113668944D01*
X91326901Y-113804182D01*
X91379668Y-113931574D01*
X91456274Y-114046224D01*
X91553776Y-114143726D01*
X91668426Y-114220332D01*
X91795818Y-114273099D01*
X91931056Y-114300000D01*
X92068944Y-114300000D01*
X92204182Y-114273099D01*
X92331574Y-114220332D01*
X92446224Y-114143726D01*
X92543726Y-114046224D01*
X92620332Y-113931574D01*
X92673099Y-113804182D01*
X92700000Y-113668944D01*
X92700000Y-113531056D01*
X92673099Y-113395818D01*
X92620332Y-113268426D01*
X92543726Y-113153776D01*
X92446224Y-113056274D01*
X92331574Y-112979668D01*
X92245680Y-112944090D01*
X92246224Y-112943726D01*
X92343726Y-112846224D01*
X92420332Y-112731574D01*
X92473099Y-112604182D01*
X92500000Y-112468944D01*
X92500000Y-112331056D01*
X92473099Y-112195818D01*
X92420332Y-112068426D01*
X92343726Y-111953776D01*
X92246224Y-111856274D01*
X92131574Y-111779668D01*
X92004182Y-111726901D01*
X91928503Y-111711847D01*
X91973099Y-111604182D01*
X92000000Y-111468944D01*
X92000000Y-111331056D01*
X91973099Y-111195818D01*
X91920332Y-111068426D01*
X91874612Y-111000000D01*
X97763466Y-111000000D01*
X97765045Y-111001296D01*
X97869279Y-111057010D01*
X97982379Y-111091318D01*
X98099999Y-111102903D01*
X98129473Y-111100000D01*
X103881879Y-111100000D01*
X103918016Y-111100092D01*
X103963279Y-111100791D01*
X103997741Y-111102202D01*
X104022476Y-111104211D01*
X104039612Y-111106551D01*
X104052865Y-111109255D01*
X104066575Y-111113065D01*
X104082541Y-111118664D01*
X104189818Y-111163099D01*
X104325056Y-111190000D01*
X104462944Y-111190000D01*
X104598182Y-111163099D01*
X104725574Y-111110332D01*
X104840224Y-111033726D01*
X104873950Y-111000000D01*
X107460050Y-111000000D01*
X107406274Y-111053776D01*
X107329668Y-111168426D01*
X107276901Y-111295818D01*
X107250000Y-111431056D01*
X107250000Y-111568944D01*
X107276901Y-111704182D01*
X107329668Y-111831574D01*
X107406274Y-111946224D01*
X107503776Y-112043726D01*
X107618426Y-112120332D01*
X107745818Y-112173099D01*
X107881056Y-112200000D01*
X108018944Y-112200000D01*
X108154182Y-112173099D01*
X108281574Y-112120332D01*
X108396224Y-112043726D01*
X108400000Y-112039950D01*
X108400000Y-112560050D01*
X108396224Y-112556274D01*
X108281574Y-112479668D01*
X108154182Y-112426901D01*
X108018944Y-112400000D01*
X107881056Y-112400000D01*
X107745818Y-112426901D01*
X107618426Y-112479668D01*
X107503776Y-112556274D01*
X107406274Y-112653776D01*
X107329668Y-112768426D01*
X107276901Y-112895818D01*
X107250000Y-113031056D01*
X107250000Y-113168944D01*
X107276901Y-113304182D01*
X107329668Y-113431574D01*
X107406274Y-113546224D01*
X107503776Y-113643726D01*
X107618426Y-113720332D01*
X107745818Y-113773099D01*
X107881056Y-113800000D01*
X108018944Y-113800000D01*
X108154182Y-113773099D01*
X108281574Y-113720332D01*
X108396224Y-113643726D01*
X108400000Y-113639950D01*
X108400000Y-119631056D01*
X108373099Y-119495818D01*
X108320332Y-119368426D01*
X108243726Y-119253776D01*
X108146224Y-119156274D01*
X108031574Y-119079668D01*
X107904182Y-119026901D01*
X107768944Y-119000000D01*
X107631056Y-119000000D01*
X107495818Y-119026901D01*
X107368426Y-119079668D01*
X107253776Y-119156274D01*
X107156274Y-119253776D01*
X107079668Y-119368426D01*
X107026901Y-119495818D01*
X107000000Y-119631056D01*
X107000000Y-119768944D01*
X107026901Y-119904182D01*
X107079668Y-120031574D01*
X107156274Y-120146224D01*
X107253776Y-120243726D01*
X107368426Y-120320332D01*
X107495818Y-120373099D01*
X107631056Y-120400000D01*
X107768944Y-120400000D01*
X107904182Y-120373099D01*
X108031574Y-120320332D01*
X108146224Y-120243726D01*
X108243726Y-120146224D01*
X108320332Y-120031574D01*
X108373099Y-119904182D01*
X108400000Y-119768944D01*
X108400000Y-122300000D01*
X108401921Y-122319509D01*
X108407612Y-122338268D01*
X108436901Y-122408979D01*
X108446142Y-122426268D01*
X108458578Y-122441421D01*
X108473732Y-122453858D01*
X108491021Y-122463099D01*
X108561732Y-122492388D01*
X108580492Y-122498079D01*
X108600000Y-122500000D01*
X122980109Y-122500000D01*
X122994174Y-122505826D01*
X123000000Y-122519891D01*
X123000000Y-126880109D01*
X122994174Y-126894174D01*
X122980109Y-126900000D01*
X120492163Y-126900000D01*
X120464175Y-126807733D01*
X120417746Y-126720871D01*
X120355264Y-126644736D01*
X120279129Y-126582254D01*
X120192267Y-126535825D01*
X120098017Y-126507235D01*
X120024560Y-126500000D01*
X120000000Y-126497581D01*
X119975440Y-126500000D01*
X80100000Y-126500000D01*
X80100000Y-126382627D01*
X80784182Y-126099230D01*
X81504837Y-125617703D01*
X82117703Y-125004837D01*
X82599230Y-124284182D01*
X82930911Y-123483433D01*
X83100000Y-122633362D01*
X83100000Y-121766638D01*
X82930911Y-120916567D01*
X82599230Y-120115818D01*
X82117703Y-119395163D01*
X81504837Y-118782297D01*
X80792094Y-118306056D01*
X105825000Y-118306056D01*
X105825000Y-118443944D01*
X105851901Y-118579182D01*
X105904668Y-118706574D01*
X105981274Y-118821224D01*
X106078776Y-118918726D01*
X106193426Y-118995332D01*
X106320818Y-119048099D01*
X106456056Y-119075000D01*
X106593944Y-119075000D01*
X106729182Y-119048099D01*
X106856574Y-118995332D01*
X106971224Y-118918726D01*
X107068726Y-118821224D01*
X107145332Y-118706574D01*
X107198099Y-118579182D01*
X107225000Y-118443944D01*
X107225000Y-118306056D01*
X107198099Y-118170818D01*
X107145332Y-118043426D01*
X107068726Y-117928776D01*
X106971224Y-117831274D01*
X106856574Y-117754668D01*
X106729182Y-117701901D01*
X106593944Y-117675000D01*
X106456056Y-117675000D01*
X106320818Y-117701901D01*
X106193426Y-117754668D01*
X106078776Y-117831274D01*
X105981274Y-117928776D01*
X105904668Y-118043426D01*
X105851901Y-118170818D01*
X105825000Y-118306056D01*
X80792094Y-118306056D01*
X80784182Y-118300770D01*
X80100000Y-118017373D01*
X80100000Y-116071961D01*
X81650000Y-116071961D01*
X81650000Y-116328039D01*
X81699958Y-116579196D01*
X81797955Y-116815781D01*
X81940224Y-117028702D01*
X82121298Y-117209776D01*
X82334219Y-117352045D01*
X82570804Y-117450042D01*
X82821961Y-117500000D01*
X83078039Y-117500000D01*
X83329196Y-117450042D01*
X83565781Y-117352045D01*
X83778702Y-117209776D01*
X83959776Y-117028702D01*
X84102045Y-116815781D01*
X84200042Y-116579196D01*
X84250000Y-116328039D01*
X84250000Y-116071961D01*
X85150000Y-116071961D01*
X85150000Y-116328039D01*
X85199958Y-116579196D01*
X85297955Y-116815781D01*
X85440224Y-117028702D01*
X85621298Y-117209776D01*
X85834219Y-117352045D01*
X86070804Y-117450042D01*
X86321961Y-117500000D01*
X86578039Y-117500000D01*
X86829196Y-117450042D01*
X87065781Y-117352045D01*
X87278702Y-117209776D01*
X87459776Y-117028702D01*
X87602045Y-116815781D01*
X87700042Y-116579196D01*
X87750000Y-116328039D01*
X87750000Y-116071961D01*
X87700042Y-115820804D01*
X87602045Y-115584219D01*
X87459776Y-115371298D01*
X87278702Y-115190224D01*
X87065781Y-115047955D01*
X87024984Y-115031056D01*
X91500000Y-115031056D01*
X91500000Y-115168944D01*
X91526901Y-115304182D01*
X91579668Y-115431574D01*
X91656274Y-115546224D01*
X91753776Y-115643726D01*
X91868426Y-115720332D01*
X91940052Y-115750000D01*
X91868426Y-115779668D01*
X91753776Y-115856274D01*
X91656274Y-115953776D01*
X91579668Y-116068426D01*
X91526901Y-116195818D01*
X91500000Y-116331056D01*
X91500000Y-116468944D01*
X91526901Y-116604182D01*
X91579668Y-116731574D01*
X91656274Y-116846224D01*
X91753776Y-116943726D01*
X91868426Y-117020332D01*
X91995818Y-117073099D01*
X92131056Y-117100000D01*
X92268944Y-117100000D01*
X92404182Y-117073099D01*
X92531574Y-117020332D01*
X92646224Y-116943726D01*
X92743726Y-116846224D01*
X92820332Y-116731574D01*
X92873099Y-116604182D01*
X92900000Y-116468944D01*
X92900000Y-116331056D01*
X92873099Y-116195818D01*
X92820332Y-116068426D01*
X92743726Y-115953776D01*
X92646224Y-115856274D01*
X92531574Y-115779668D01*
X92459948Y-115750000D01*
X92531574Y-115720332D01*
X92646224Y-115643726D01*
X92743726Y-115546224D01*
X92820332Y-115431574D01*
X92873099Y-115304182D01*
X92900000Y-115168944D01*
X92900000Y-115031056D01*
X92873099Y-114895818D01*
X92820332Y-114768426D01*
X92743726Y-114653776D01*
X92646224Y-114556274D01*
X92531574Y-114479668D01*
X92404182Y-114426901D01*
X92268944Y-114400000D01*
X92131056Y-114400000D01*
X91995818Y-114426901D01*
X91868426Y-114479668D01*
X91753776Y-114556274D01*
X91656274Y-114653776D01*
X91579668Y-114768426D01*
X91526901Y-114895818D01*
X91500000Y-115031056D01*
X87024984Y-115031056D01*
X86829196Y-114949958D01*
X86578039Y-114900000D01*
X86321961Y-114900000D01*
X86070804Y-114949958D01*
X85834219Y-115047955D01*
X85621298Y-115190224D01*
X85440224Y-115371298D01*
X85297955Y-115584219D01*
X85199958Y-115820804D01*
X85150000Y-116071961D01*
X84250000Y-116071961D01*
X84200042Y-115820804D01*
X84102045Y-115584219D01*
X83959776Y-115371298D01*
X83778702Y-115190224D01*
X83565781Y-115047955D01*
X83329196Y-114949958D01*
X83078039Y-114900000D01*
X82821961Y-114900000D01*
X82570804Y-114949958D01*
X82334219Y-115047955D01*
X82121298Y-115190224D01*
X81940224Y-115371298D01*
X81797955Y-115584219D01*
X81699958Y-115820804D01*
X81650000Y-116071961D01*
X80100000Y-116071961D01*
X80100000Y-111019891D01*
X80105826Y-111005826D01*
X80119891Y-111000000D01*
X90725388Y-111000000D01*
X90679668Y-111068426D01*
%TA.AperFunction,Conductor*%
D18*
G36*
X90679668Y-111068426D02*
G01*
X90626901Y-111195818D01*
X90600000Y-111331056D01*
X90600000Y-111468944D01*
X90626901Y-111604182D01*
X90679668Y-111731574D01*
X90756274Y-111846224D01*
X90853776Y-111943726D01*
X90968426Y-112020332D01*
X91095818Y-112073099D01*
X91171497Y-112088153D01*
X91126901Y-112195818D01*
X91100000Y-112331056D01*
X91100000Y-112468944D01*
X91126901Y-112604182D01*
X91179668Y-112731574D01*
X91256274Y-112846224D01*
X91353776Y-112943726D01*
X91468426Y-113020332D01*
X91554320Y-113055910D01*
X91553776Y-113056274D01*
X91456274Y-113153776D01*
X91379668Y-113268426D01*
X91326901Y-113395818D01*
X91300000Y-113531056D01*
X91300000Y-113668944D01*
X91326901Y-113804182D01*
X91379668Y-113931574D01*
X91456274Y-114046224D01*
X91553776Y-114143726D01*
X91668426Y-114220332D01*
X91795818Y-114273099D01*
X91931056Y-114300000D01*
X92068944Y-114300000D01*
X92204182Y-114273099D01*
X92331574Y-114220332D01*
X92446224Y-114143726D01*
X92543726Y-114046224D01*
X92620332Y-113931574D01*
X92673099Y-113804182D01*
X92700000Y-113668944D01*
X92700000Y-113531056D01*
X92673099Y-113395818D01*
X92620332Y-113268426D01*
X92543726Y-113153776D01*
X92446224Y-113056274D01*
X92331574Y-112979668D01*
X92245680Y-112944090D01*
X92246224Y-112943726D01*
X92343726Y-112846224D01*
X92420332Y-112731574D01*
X92473099Y-112604182D01*
X92500000Y-112468944D01*
X92500000Y-112331056D01*
X92473099Y-112195818D01*
X92420332Y-112068426D01*
X92343726Y-111953776D01*
X92246224Y-111856274D01*
X92131574Y-111779668D01*
X92004182Y-111726901D01*
X91928503Y-111711847D01*
X91973099Y-111604182D01*
X92000000Y-111468944D01*
X92000000Y-111331056D01*
X91973099Y-111195818D01*
X91920332Y-111068426D01*
X91874612Y-111000000D01*
X97763466Y-111000000D01*
X97765045Y-111001296D01*
X97869279Y-111057010D01*
X97982379Y-111091318D01*
X98099999Y-111102903D01*
X98129473Y-111100000D01*
X103881879Y-111100000D01*
X103918016Y-111100092D01*
X103963279Y-111100791D01*
X103997741Y-111102202D01*
X104022476Y-111104211D01*
X104039612Y-111106551D01*
X104052865Y-111109255D01*
X104066575Y-111113065D01*
X104082541Y-111118664D01*
X104189818Y-111163099D01*
X104325056Y-111190000D01*
X104462944Y-111190000D01*
X104598182Y-111163099D01*
X104725574Y-111110332D01*
X104840224Y-111033726D01*
X104873950Y-111000000D01*
X107460050Y-111000000D01*
X107406274Y-111053776D01*
X107329668Y-111168426D01*
X107276901Y-111295818D01*
X107250000Y-111431056D01*
X107250000Y-111568944D01*
X107276901Y-111704182D01*
X107329668Y-111831574D01*
X107406274Y-111946224D01*
X107503776Y-112043726D01*
X107618426Y-112120332D01*
X107745818Y-112173099D01*
X107881056Y-112200000D01*
X108018944Y-112200000D01*
X108154182Y-112173099D01*
X108281574Y-112120332D01*
X108396224Y-112043726D01*
X108400000Y-112039950D01*
X108400000Y-112560050D01*
X108396224Y-112556274D01*
X108281574Y-112479668D01*
X108154182Y-112426901D01*
X108018944Y-112400000D01*
X107881056Y-112400000D01*
X107745818Y-112426901D01*
X107618426Y-112479668D01*
X107503776Y-112556274D01*
X107406274Y-112653776D01*
X107329668Y-112768426D01*
X107276901Y-112895818D01*
X107250000Y-113031056D01*
X107250000Y-113168944D01*
X107276901Y-113304182D01*
X107329668Y-113431574D01*
X107406274Y-113546224D01*
X107503776Y-113643726D01*
X107618426Y-113720332D01*
X107745818Y-113773099D01*
X107881056Y-113800000D01*
X108018944Y-113800000D01*
X108154182Y-113773099D01*
X108281574Y-113720332D01*
X108396224Y-113643726D01*
X108400000Y-113639950D01*
X108400000Y-119631056D01*
X108373099Y-119495818D01*
X108320332Y-119368426D01*
X108243726Y-119253776D01*
X108146224Y-119156274D01*
X108031574Y-119079668D01*
X107904182Y-119026901D01*
X107768944Y-119000000D01*
X107631056Y-119000000D01*
X107495818Y-119026901D01*
X107368426Y-119079668D01*
X107253776Y-119156274D01*
X107156274Y-119253776D01*
X107079668Y-119368426D01*
X107026901Y-119495818D01*
X107000000Y-119631056D01*
X107000000Y-119768944D01*
X107026901Y-119904182D01*
X107079668Y-120031574D01*
X107156274Y-120146224D01*
X107253776Y-120243726D01*
X107368426Y-120320332D01*
X107495818Y-120373099D01*
X107631056Y-120400000D01*
X107768944Y-120400000D01*
X107904182Y-120373099D01*
X108031574Y-120320332D01*
X108146224Y-120243726D01*
X108243726Y-120146224D01*
X108320332Y-120031574D01*
X108373099Y-119904182D01*
X108400000Y-119768944D01*
X108400000Y-122300000D01*
X108401921Y-122319509D01*
X108407612Y-122338268D01*
X108436901Y-122408979D01*
X108446142Y-122426268D01*
X108458578Y-122441421D01*
X108473732Y-122453858D01*
X108491021Y-122463099D01*
X108561732Y-122492388D01*
X108580492Y-122498079D01*
X108600000Y-122500000D01*
X122980109Y-122500000D01*
X122994174Y-122505826D01*
X123000000Y-122519891D01*
X123000000Y-126880109D01*
X122994174Y-126894174D01*
X122980109Y-126900000D01*
X120492163Y-126900000D01*
X120464175Y-126807733D01*
X120417746Y-126720871D01*
X120355264Y-126644736D01*
X120279129Y-126582254D01*
X120192267Y-126535825D01*
X120098017Y-126507235D01*
X120024560Y-126500000D01*
X120000000Y-126497581D01*
X119975440Y-126500000D01*
X80100000Y-126500000D01*
X80100000Y-126382627D01*
X80784182Y-126099230D01*
X81504837Y-125617703D01*
X82117703Y-125004837D01*
X82599230Y-124284182D01*
X82930911Y-123483433D01*
X83100000Y-122633362D01*
X83100000Y-121766638D01*
X82930911Y-120916567D01*
X82599230Y-120115818D01*
X82117703Y-119395163D01*
X81504837Y-118782297D01*
X80792094Y-118306056D01*
X105825000Y-118306056D01*
X105825000Y-118443944D01*
X105851901Y-118579182D01*
X105904668Y-118706574D01*
X105981274Y-118821224D01*
X106078776Y-118918726D01*
X106193426Y-118995332D01*
X106320818Y-119048099D01*
X106456056Y-119075000D01*
X106593944Y-119075000D01*
X106729182Y-119048099D01*
X106856574Y-118995332D01*
X106971224Y-118918726D01*
X107068726Y-118821224D01*
X107145332Y-118706574D01*
X107198099Y-118579182D01*
X107225000Y-118443944D01*
X107225000Y-118306056D01*
X107198099Y-118170818D01*
X107145332Y-118043426D01*
X107068726Y-117928776D01*
X106971224Y-117831274D01*
X106856574Y-117754668D01*
X106729182Y-117701901D01*
X106593944Y-117675000D01*
X106456056Y-117675000D01*
X106320818Y-117701901D01*
X106193426Y-117754668D01*
X106078776Y-117831274D01*
X105981274Y-117928776D01*
X105904668Y-118043426D01*
X105851901Y-118170818D01*
X105825000Y-118306056D01*
X80792094Y-118306056D01*
X80784182Y-118300770D01*
X80100000Y-118017373D01*
X80100000Y-116071961D01*
X81650000Y-116071961D01*
X81650000Y-116328039D01*
X81699958Y-116579196D01*
X81797955Y-116815781D01*
X81940224Y-117028702D01*
X82121298Y-117209776D01*
X82334219Y-117352045D01*
X82570804Y-117450042D01*
X82821961Y-117500000D01*
X83078039Y-117500000D01*
X83329196Y-117450042D01*
X83565781Y-117352045D01*
X83778702Y-117209776D01*
X83959776Y-117028702D01*
X84102045Y-116815781D01*
X84200042Y-116579196D01*
X84250000Y-116328039D01*
X84250000Y-116071961D01*
X85150000Y-116071961D01*
X85150000Y-116328039D01*
X85199958Y-116579196D01*
X85297955Y-116815781D01*
X85440224Y-117028702D01*
X85621298Y-117209776D01*
X85834219Y-117352045D01*
X86070804Y-117450042D01*
X86321961Y-117500000D01*
X86578039Y-117500000D01*
X86829196Y-117450042D01*
X87065781Y-117352045D01*
X87278702Y-117209776D01*
X87459776Y-117028702D01*
X87602045Y-116815781D01*
X87700042Y-116579196D01*
X87750000Y-116328039D01*
X87750000Y-116071961D01*
X87700042Y-115820804D01*
X87602045Y-115584219D01*
X87459776Y-115371298D01*
X87278702Y-115190224D01*
X87065781Y-115047955D01*
X87024984Y-115031056D01*
X91500000Y-115031056D01*
X91500000Y-115168944D01*
X91526901Y-115304182D01*
X91579668Y-115431574D01*
X91656274Y-115546224D01*
X91753776Y-115643726D01*
X91868426Y-115720332D01*
X91940052Y-115750000D01*
X91868426Y-115779668D01*
X91753776Y-115856274D01*
X91656274Y-115953776D01*
X91579668Y-116068426D01*
X91526901Y-116195818D01*
X91500000Y-116331056D01*
X91500000Y-116468944D01*
X91526901Y-116604182D01*
X91579668Y-116731574D01*
X91656274Y-116846224D01*
X91753776Y-116943726D01*
X91868426Y-117020332D01*
X91995818Y-117073099D01*
X92131056Y-117100000D01*
X92268944Y-117100000D01*
X92404182Y-117073099D01*
X92531574Y-117020332D01*
X92646224Y-116943726D01*
X92743726Y-116846224D01*
X92820332Y-116731574D01*
X92873099Y-116604182D01*
X92900000Y-116468944D01*
X92900000Y-116331056D01*
X92873099Y-116195818D01*
X92820332Y-116068426D01*
X92743726Y-115953776D01*
X92646224Y-115856274D01*
X92531574Y-115779668D01*
X92459948Y-115750000D01*
X92531574Y-115720332D01*
X92646224Y-115643726D01*
X92743726Y-115546224D01*
X92820332Y-115431574D01*
X92873099Y-115304182D01*
X92900000Y-115168944D01*
X92900000Y-115031056D01*
X92873099Y-114895818D01*
X92820332Y-114768426D01*
X92743726Y-114653776D01*
X92646224Y-114556274D01*
X92531574Y-114479668D01*
X92404182Y-114426901D01*
X92268944Y-114400000D01*
X92131056Y-114400000D01*
X91995818Y-114426901D01*
X91868426Y-114479668D01*
X91753776Y-114556274D01*
X91656274Y-114653776D01*
X91579668Y-114768426D01*
X91526901Y-114895818D01*
X91500000Y-115031056D01*
X87024984Y-115031056D01*
X86829196Y-114949958D01*
X86578039Y-114900000D01*
X86321961Y-114900000D01*
X86070804Y-114949958D01*
X85834219Y-115047955D01*
X85621298Y-115190224D01*
X85440224Y-115371298D01*
X85297955Y-115584219D01*
X85199958Y-115820804D01*
X85150000Y-116071961D01*
X84250000Y-116071961D01*
X84200042Y-115820804D01*
X84102045Y-115584219D01*
X83959776Y-115371298D01*
X83778702Y-115190224D01*
X83565781Y-115047955D01*
X83329196Y-114949958D01*
X83078039Y-114900000D01*
X82821961Y-114900000D01*
X82570804Y-114949958D01*
X82334219Y-115047955D01*
X82121298Y-115190224D01*
X81940224Y-115371298D01*
X81797955Y-115584219D01*
X81699958Y-115820804D01*
X81650000Y-116071961D01*
X80100000Y-116071961D01*
X80100000Y-111019891D01*
X80105826Y-111005826D01*
X80119891Y-111000000D01*
X90725388Y-111000000D01*
X90679668Y-111068426D01*
G37*
%TD.AperFunction*%
%TD*%
D19*
%TO.N,/SW*%
X97096257Y-98640769D02*
X97185955Y-98677923D01*
X97262976Y-98737024D01*
X97322077Y-98814045D01*
X97359231Y-98903743D01*
X97373000Y-99008328D01*
X97373000Y-99163289D01*
X97296063Y-99240226D01*
X97182795Y-99409744D01*
X97104774Y-99598102D01*
X97065000Y-99798061D01*
X97065000Y-100001939D01*
X97104774Y-100201898D01*
X97182795Y-100390256D01*
X97296063Y-100559774D01*
X97373000Y-100636711D01*
X97373000Y-101754737D01*
X97371414Y-101757111D01*
X97300932Y-101927271D01*
X97265000Y-102107911D01*
X97265000Y-102292089D01*
X97300932Y-102472729D01*
X97371414Y-102642889D01*
X97373000Y-102645263D01*
X97373000Y-103000000D01*
X97374086Y-103016577D01*
X97391123Y-103145987D01*
X97399704Y-103178011D01*
X97449654Y-103298601D01*
X97466232Y-103327313D01*
X97545692Y-103430866D01*
X97569134Y-103454308D01*
X97672687Y-103533768D01*
X97701399Y-103550346D01*
X97821989Y-103600296D01*
X97854013Y-103608877D01*
X97983423Y-103625914D01*
X98000000Y-103627000D01*
X99046132Y-103627000D01*
X99140559Y-103721427D01*
X99166710Y-103753292D01*
X99293855Y-103857637D01*
X99438914Y-103935173D01*
X99596312Y-103982919D01*
X99760001Y-103999041D01*
X99801019Y-103995001D01*
X103446245Y-103995001D01*
X103448000Y-104008328D01*
X103448000Y-107991672D01*
X103434231Y-108096257D01*
X103397077Y-108185955D01*
X103337976Y-108262976D01*
X103260955Y-108322077D01*
X103171257Y-108359231D01*
X103066672Y-108373000D01*
X97400000Y-108373000D01*
X97383423Y-108374086D01*
X97254013Y-108391123D01*
X97221989Y-108399704D01*
X97101399Y-108449654D01*
X97072687Y-108466232D01*
X96969134Y-108545692D01*
X96945692Y-108569134D01*
X96866232Y-108672687D01*
X96849654Y-108701399D01*
X96799704Y-108821989D01*
X96791123Y-108854013D01*
X96774086Y-108983423D01*
X96773000Y-109000000D01*
X96773000Y-109891672D01*
X96759231Y-109996257D01*
X96722077Y-110085955D01*
X96662976Y-110162976D01*
X96585955Y-110222077D01*
X96496257Y-110259231D01*
X96391672Y-110273000D01*
X85008328Y-110273000D01*
X84903743Y-110259231D01*
X84814045Y-110222077D01*
X84737024Y-110162976D01*
X84677923Y-110085955D01*
X84640769Y-109996257D01*
X84627000Y-109891672D01*
X84627000Y-99008328D01*
X84640769Y-98903743D01*
X84677923Y-98814045D01*
X84737024Y-98737024D01*
X84814045Y-98677923D01*
X84903743Y-98640769D01*
X85008328Y-98627000D01*
X96991672Y-98627000D01*
X97096257Y-98640769D01*
%TA.AperFunction,Conductor*%
D18*
G36*
X97096257Y-98640769D02*
G01*
X97185955Y-98677923D01*
X97262976Y-98737024D01*
X97322077Y-98814045D01*
X97359231Y-98903743D01*
X97373000Y-99008328D01*
X97373000Y-99163289D01*
X97296063Y-99240226D01*
X97182795Y-99409744D01*
X97104774Y-99598102D01*
X97065000Y-99798061D01*
X97065000Y-100001939D01*
X97104774Y-100201898D01*
X97182795Y-100390256D01*
X97296063Y-100559774D01*
X97373000Y-100636711D01*
X97373000Y-101754737D01*
X97371414Y-101757111D01*
X97300932Y-101927271D01*
X97265000Y-102107911D01*
X97265000Y-102292089D01*
X97300932Y-102472729D01*
X97371414Y-102642889D01*
X97373000Y-102645263D01*
X97373000Y-103000000D01*
X97374086Y-103016577D01*
X97391123Y-103145987D01*
X97399704Y-103178011D01*
X97449654Y-103298601D01*
X97466232Y-103327313D01*
X97545692Y-103430866D01*
X97569134Y-103454308D01*
X97672687Y-103533768D01*
X97701399Y-103550346D01*
X97821989Y-103600296D01*
X97854013Y-103608877D01*
X97983423Y-103625914D01*
X98000000Y-103627000D01*
X99046132Y-103627000D01*
X99140559Y-103721427D01*
X99166710Y-103753292D01*
X99293855Y-103857637D01*
X99438914Y-103935173D01*
X99596312Y-103982919D01*
X99760001Y-103999041D01*
X99801019Y-103995001D01*
X103446245Y-103995001D01*
X103448000Y-104008328D01*
X103448000Y-107991672D01*
X103434231Y-108096257D01*
X103397077Y-108185955D01*
X103337976Y-108262976D01*
X103260955Y-108322077D01*
X103171257Y-108359231D01*
X103066672Y-108373000D01*
X97400000Y-108373000D01*
X97383423Y-108374086D01*
X97254013Y-108391123D01*
X97221989Y-108399704D01*
X97101399Y-108449654D01*
X97072687Y-108466232D01*
X96969134Y-108545692D01*
X96945692Y-108569134D01*
X96866232Y-108672687D01*
X96849654Y-108701399D01*
X96799704Y-108821989D01*
X96791123Y-108854013D01*
X96774086Y-108983423D01*
X96773000Y-109000000D01*
X96773000Y-109891672D01*
X96759231Y-109996257D01*
X96722077Y-110085955D01*
X96662976Y-110162976D01*
X96585955Y-110222077D01*
X96496257Y-110259231D01*
X96391672Y-110273000D01*
X85008328Y-110273000D01*
X84903743Y-110259231D01*
X84814045Y-110222077D01*
X84737024Y-110162976D01*
X84677923Y-110085955D01*
X84640769Y-109996257D01*
X84627000Y-109891672D01*
X84627000Y-99008328D01*
X84640769Y-98903743D01*
X84677923Y-98814045D01*
X84737024Y-98737024D01*
X84814045Y-98677923D01*
X84903743Y-98640769D01*
X85008328Y-98627000D01*
X96991672Y-98627000D01*
X97096257Y-98640769D01*
G37*
%TD.AperFunction*%
%TD*%
D17*
%TO.N,GND*%
X102372012Y-55771873D02*
X104990833Y-55990396D01*
X107592113Y-56363851D01*
X110166635Y-56890915D01*
X112705390Y-57569743D01*
X115199419Y-58397940D01*
X117639926Y-59372587D01*
X120018345Y-60490260D01*
X122326290Y-61747020D01*
X124555635Y-63138442D01*
X126698540Y-64659631D01*
X128747446Y-66305222D01*
X130695173Y-68069450D01*
X132534824Y-69946066D01*
X134259946Y-71928488D01*
X135864457Y-74009725D01*
X137342726Y-76182475D01*
X138689524Y-78439054D01*
X139900128Y-80771543D01*
X140970267Y-83171723D01*
X141896174Y-85631133D01*
X142674596Y-88141140D01*
X143302788Y-90692892D01*
X143778537Y-93277398D01*
X144100174Y-95885586D01*
X144266560Y-98508242D01*
X144277115Y-101136150D01*
X144131797Y-103760072D01*
X143831120Y-106370765D01*
X143376145Y-108959005D01*
X142768472Y-111515707D01*
X142010235Y-114031885D01*
X141104112Y-116498657D01*
X140053278Y-118907370D01*
X138861458Y-121249491D01*
X137532820Y-123516827D01*
X136072059Y-125701366D01*
X134484311Y-127795430D01*
X132775169Y-129791642D01*
X130950647Y-131682979D01*
X129017163Y-133462784D01*
X126974985Y-135130133D01*
X126761733Y-135292000D01*
X122293263Y-135292000D01*
X120708000Y-133706738D01*
X120708000Y-128312631D01*
X125826270Y-128312631D01*
X125826270Y-128855909D01*
X125932258Y-129388749D01*
X126140162Y-129890673D01*
X126441991Y-130342393D01*
X126826147Y-130726549D01*
X127277867Y-131028378D01*
X127779791Y-131236282D01*
X128312631Y-131342270D01*
X128855909Y-131342270D01*
X129388749Y-131236282D01*
X129890673Y-131028378D01*
X130342393Y-130726549D01*
X130726549Y-130342393D01*
X131028378Y-129890673D01*
X131236282Y-129388749D01*
X131342270Y-128855909D01*
X131342270Y-128312631D01*
X131236282Y-127779791D01*
X131028378Y-127277867D01*
X130726549Y-126826147D01*
X130342393Y-126441991D01*
X129890673Y-126140162D01*
X129388749Y-125932258D01*
X128855909Y-125826270D01*
X128312631Y-125826270D01*
X127779791Y-125932258D01*
X127277867Y-126140162D01*
X126826147Y-126441991D01*
X126441991Y-126826147D01*
X126140162Y-127277867D01*
X125932258Y-127779791D01*
X125826270Y-128312631D01*
X120708000Y-128312631D01*
X120708000Y-127608000D01*
X123000000Y-127608000D01*
X123118612Y-127596318D01*
X123232668Y-127561720D01*
X123303379Y-127532431D01*
X123408500Y-127476243D01*
X123500634Y-127400630D01*
X123576246Y-127308495D01*
X123632431Y-127203379D01*
X123661720Y-127132668D01*
X123696317Y-127018615D01*
X123708000Y-126900000D01*
X123708000Y-122500000D01*
X123696318Y-122381388D01*
X123661720Y-122267332D01*
X123632431Y-122196621D01*
X123576243Y-122091500D01*
X123500630Y-121999366D01*
X123408495Y-121923754D01*
X123303379Y-121867569D01*
X123232668Y-121838280D01*
X123118615Y-121803683D01*
X123000000Y-121792000D01*
X109108000Y-121792000D01*
X109108000Y-116010570D01*
X109227000Y-116010570D01*
X109227000Y-116189430D01*
X109261894Y-116364854D01*
X109330341Y-116530099D01*
X109429711Y-116678816D01*
X109556184Y-116805289D01*
X109704901Y-116904659D01*
X109870146Y-116973106D01*
X110045570Y-117008000D01*
X110224430Y-117008000D01*
X110399854Y-116973106D01*
X110565099Y-116904659D01*
X110713816Y-116805289D01*
X110840289Y-116678816D01*
X110939659Y-116530099D01*
X111008106Y-116364854D01*
X111043000Y-116189430D01*
X111043000Y-116010570D01*
X111008106Y-115835146D01*
X110939659Y-115669901D01*
X110840289Y-115521184D01*
X110713816Y-115394711D01*
X110565099Y-115295341D01*
X110399854Y-115226894D01*
X110224430Y-115192000D01*
X110045570Y-115192000D01*
X109870146Y-115226894D01*
X109704901Y-115295341D01*
X109556184Y-115394711D01*
X109429711Y-115521184D01*
X109330341Y-115669901D01*
X109261894Y-115835146D01*
X109227000Y-116010570D01*
X109108000Y-116010570D01*
X109108000Y-111000000D01*
X109096318Y-110881388D01*
X109061720Y-110767332D01*
X109032431Y-110696621D01*
X108976243Y-110591500D01*
X108900630Y-110499366D01*
X108808495Y-110423754D01*
X108703379Y-110367569D01*
X108632668Y-110338280D01*
X108518615Y-110303683D01*
X108400000Y-110292000D01*
X105280404Y-110292000D01*
X105267106Y-110225146D01*
X105198659Y-110059901D01*
X105099289Y-109911184D01*
X104972816Y-109784711D01*
X104824099Y-109685341D01*
X104658854Y-109616894D01*
X104483430Y-109582000D01*
X104304570Y-109582000D01*
X104129146Y-109616894D01*
X103963901Y-109685341D01*
X103957411Y-109689678D01*
X103942784Y-109690545D01*
X103906762Y-109691516D01*
X103856835Y-109691940D01*
X103793426Y-109692000D01*
X98708000Y-109692000D01*
X98708000Y-109610570D01*
X98673106Y-109435146D01*
X98604659Y-109269901D01*
X98505289Y-109121184D01*
X98492105Y-109108000D01*
X103075000Y-109108000D01*
X103154359Y-109102799D01*
X103283769Y-109085762D01*
X103437081Y-109044682D01*
X103557671Y-108994732D01*
X103695130Y-108915370D01*
X103798683Y-108835910D01*
X103910910Y-108723683D01*
X103990370Y-108620130D01*
X104069732Y-108482671D01*
X104119682Y-108362081D01*
X104160762Y-108208769D01*
X104177799Y-108079359D01*
X104183000Y-108000000D01*
X104183000Y-105125683D01*
X104940593Y-105883276D01*
X104965893Y-105914105D01*
X105088927Y-106015077D01*
X105229295Y-106090105D01*
X105317353Y-106116817D01*
X105381602Y-106136307D01*
X105396878Y-106137812D01*
X105500311Y-106147999D01*
X105500318Y-106147999D01*
X105539998Y-106151907D01*
X105579678Y-106147999D01*
X110492000Y-106147999D01*
X110492000Y-106189430D01*
X110526894Y-106364854D01*
X110595341Y-106530099D01*
X110694711Y-106678816D01*
X110821184Y-106805289D01*
X110969901Y-106904659D01*
X111135146Y-106973106D01*
X111310570Y-107008000D01*
X111489430Y-107008000D01*
X111664854Y-106973106D01*
X111830099Y-106904659D01*
X111909646Y-106851507D01*
X111994711Y-106978816D01*
X112121184Y-107105289D01*
X112269901Y-107204659D01*
X112435146Y-107273106D01*
X112610570Y-107308000D01*
X112789430Y-107308000D01*
X112964854Y-107273106D01*
X113130099Y-107204659D01*
X113278816Y-107105289D01*
X113405289Y-106978816D01*
X113504659Y-106830099D01*
X113573106Y-106664854D01*
X113608000Y-106489430D01*
X113608000Y-106310570D01*
X113573106Y-106135146D01*
X113504659Y-105969901D01*
X113463298Y-105908000D01*
X113589430Y-105908000D01*
X113764854Y-105873106D01*
X113930099Y-105804659D01*
X114078816Y-105705289D01*
X114205289Y-105578816D01*
X114304659Y-105430099D01*
X114373106Y-105264854D01*
X114408000Y-105089430D01*
X114408000Y-104910570D01*
X114373106Y-104735146D01*
X114304659Y-104569901D01*
X114205289Y-104421184D01*
X114078816Y-104294711D01*
X113930099Y-104195341D01*
X113764854Y-104126894D01*
X113589430Y-104092000D01*
X113410570Y-104092000D01*
X113235146Y-104126894D01*
X113069901Y-104195341D01*
X112921184Y-104294711D01*
X112794711Y-104421184D01*
X112695341Y-104569901D01*
X112626894Y-104735146D01*
X112592000Y-104910570D01*
X112592000Y-105089430D01*
X112626894Y-105264854D01*
X112695341Y-105430099D01*
X112736702Y-105492000D01*
X112610570Y-105492000D01*
X112435146Y-105526894D01*
X112269901Y-105595341D01*
X112221630Y-105627595D01*
X112217266Y-105592794D01*
X112208313Y-105535979D01*
X112203313Y-105512723D01*
X112196308Y-105441604D01*
X112150106Y-105289296D01*
X112075078Y-105148928D01*
X111974106Y-105025894D01*
X111943272Y-105000589D01*
X111739410Y-104796727D01*
X111714105Y-104765893D01*
X111591071Y-104664921D01*
X111450703Y-104589893D01*
X111298395Y-104543691D01*
X111179687Y-104531999D01*
X111179679Y-104531999D01*
X111139999Y-104528091D01*
X111100319Y-104531999D01*
X105874683Y-104531999D01*
X105408000Y-104065317D01*
X105408000Y-103739680D01*
X105411908Y-103700000D01*
X105408000Y-103660320D01*
X105408000Y-103660312D01*
X105396308Y-103541604D01*
X105390523Y-103522533D01*
X105350106Y-103389295D01*
X105299953Y-103295466D01*
X105275078Y-103248928D01*
X105174106Y-103125894D01*
X105143272Y-103100589D01*
X104659412Y-102616729D01*
X104634107Y-102585895D01*
X104511073Y-102484923D01*
X104370705Y-102409895D01*
X104218397Y-102363693D01*
X104099689Y-102352001D01*
X104099681Y-102352001D01*
X104060001Y-102348093D01*
X104020321Y-102352001D01*
X100297332Y-102352001D01*
X100296308Y-102341604D01*
X100296152Y-102341088D01*
X100282341Y-102295560D01*
X100250106Y-102189296D01*
X100175078Y-102048928D01*
X100074106Y-101925894D01*
X100043272Y-101900589D01*
X99799411Y-101656728D01*
X99785612Y-101639915D01*
X99882965Y-101542562D01*
X99993278Y-101377467D01*
X100069263Y-101194023D01*
X100100000Y-101039498D01*
X100130737Y-101194023D01*
X100206722Y-101377467D01*
X100317035Y-101542562D01*
X100457438Y-101682965D01*
X100622533Y-101793278D01*
X100805977Y-101869263D01*
X101000721Y-101908000D01*
X101199279Y-101908000D01*
X101394023Y-101869263D01*
X101577467Y-101793278D01*
X101742562Y-101682965D01*
X101882965Y-101542562D01*
X101993278Y-101377467D01*
X102069263Y-101194023D01*
X102100000Y-101039498D01*
X102130737Y-101194023D01*
X102206722Y-101377467D01*
X102317035Y-101542562D01*
X102457438Y-101682965D01*
X102622533Y-101793278D01*
X102805977Y-101869263D01*
X103000721Y-101908000D01*
X103199279Y-101908000D01*
X103394023Y-101869263D01*
X103577467Y-101793278D01*
X103742562Y-101682965D01*
X103882965Y-101542562D01*
X103993278Y-101377467D01*
X104069263Y-101194023D01*
X104100000Y-101039498D01*
X104130737Y-101194023D01*
X104206722Y-101377467D01*
X104317035Y-101542562D01*
X104457438Y-101682965D01*
X104622533Y-101793278D01*
X104805977Y-101869263D01*
X105000721Y-101908000D01*
X105199279Y-101908000D01*
X105394023Y-101869263D01*
X105577467Y-101793278D01*
X105742562Y-101682965D01*
X105882965Y-101542562D01*
X105993278Y-101377467D01*
X106069263Y-101194023D01*
X106108000Y-100999279D01*
X106108000Y-100800721D01*
X106069263Y-100605977D01*
X105993278Y-100422533D01*
X105882965Y-100257438D01*
X105742562Y-100117035D01*
X105577467Y-100006722D01*
X105394023Y-99930737D01*
X105239498Y-99900000D01*
X105394023Y-99869263D01*
X105577467Y-99793278D01*
X105742562Y-99682965D01*
X105882965Y-99542562D01*
X105993278Y-99377467D01*
X106069263Y-99194023D01*
X106108000Y-98999279D01*
X106108000Y-98800721D01*
X106069263Y-98605977D01*
X105993278Y-98422533D01*
X105882965Y-98257438D01*
X105742562Y-98117035D01*
X105577467Y-98006722D01*
X105394023Y-97930737D01*
X105199279Y-97892000D01*
X105000721Y-97892000D01*
X104805977Y-97930737D01*
X104622533Y-98006722D01*
X104457438Y-98117035D01*
X104317035Y-98257438D01*
X104206722Y-98422533D01*
X104130737Y-98605977D01*
X104100000Y-98760502D01*
X104069263Y-98605977D01*
X103993278Y-98422533D01*
X103882965Y-98257438D01*
X103742562Y-98117035D01*
X103577467Y-98006722D01*
X103394023Y-97930737D01*
X103199279Y-97892000D01*
X103000721Y-97892000D01*
X102805977Y-97930737D01*
X102622533Y-98006722D01*
X102457438Y-98117035D01*
X102317035Y-98257438D01*
X102206722Y-98422533D01*
X102130737Y-98605977D01*
X102100000Y-98760502D01*
X102069263Y-98605977D01*
X101993278Y-98422533D01*
X101882965Y-98257438D01*
X101742562Y-98117035D01*
X101577467Y-98006722D01*
X101394023Y-97930737D01*
X101199279Y-97892000D01*
X101000721Y-97892000D01*
X100805977Y-97930737D01*
X100622533Y-98006722D01*
X100457438Y-98117035D01*
X100317035Y-98257438D01*
X100206722Y-98422533D01*
X100130737Y-98605977D01*
X100100000Y-98760502D01*
X100069263Y-98605977D01*
X99993278Y-98422533D01*
X99882965Y-98257438D01*
X99742562Y-98117035D01*
X99577467Y-98006722D01*
X99394023Y-97930737D01*
X99199279Y-97892000D01*
X99000721Y-97892000D01*
X98805977Y-97930737D01*
X98622533Y-98006722D01*
X98457438Y-98117035D01*
X98317035Y-98257438D01*
X98206722Y-98422533D01*
X98130737Y-98605977D01*
X98092000Y-98800721D01*
X98092000Y-98838614D01*
X98085762Y-98791231D01*
X98044682Y-98637919D01*
X97994732Y-98517329D01*
X97915370Y-98379870D01*
X97835910Y-98276317D01*
X97723683Y-98164090D01*
X97620130Y-98084630D01*
X97482671Y-98005268D01*
X97362081Y-97955318D01*
X97208769Y-97914238D01*
X97079359Y-97897201D01*
X97000000Y-97892000D01*
X85000000Y-97892000D01*
X84920641Y-97897201D01*
X84791231Y-97914238D01*
X84637919Y-97955318D01*
X84517329Y-98005268D01*
X84379870Y-98084630D01*
X84276317Y-98164090D01*
X84164090Y-98276317D01*
X84084630Y-98379870D01*
X84005268Y-98517329D01*
X83955318Y-98637919D01*
X83914238Y-98791231D01*
X83897201Y-98920641D01*
X83892000Y-99000000D01*
X83892000Y-109900000D01*
X83897201Y-109979359D01*
X83914238Y-110108769D01*
X83955318Y-110262081D01*
X83967711Y-110292000D01*
X80100000Y-110292000D01*
X79981388Y-110303682D01*
X79867332Y-110338280D01*
X79796621Y-110367569D01*
X79691500Y-110423757D01*
X79599366Y-110499370D01*
X79523754Y-110591505D01*
X79467569Y-110696621D01*
X79438280Y-110767332D01*
X79403683Y-110881385D01*
X79392000Y-111000000D01*
X79392000Y-126635570D01*
X79342729Y-126727749D01*
X79302245Y-126861208D01*
X79288575Y-127000000D01*
X79292000Y-127034774D01*
X79292001Y-133706736D01*
X77706738Y-135292000D01*
X73247729Y-135292000D01*
X71370340Y-133794915D01*
X69416478Y-132037508D01*
X67570288Y-130167325D01*
X65944905Y-128312631D01*
X68657730Y-128312631D01*
X68657730Y-128855909D01*
X68763718Y-129388749D01*
X68971622Y-129890673D01*
X69273451Y-130342393D01*
X69657607Y-130726549D01*
X70109327Y-131028378D01*
X70611251Y-131236282D01*
X71144091Y-131342270D01*
X71687369Y-131342270D01*
X72220209Y-131236282D01*
X72722133Y-131028378D01*
X73173853Y-130726549D01*
X73558009Y-130342393D01*
X73859838Y-129890673D01*
X74067742Y-129388749D01*
X74173730Y-128855909D01*
X74173730Y-128312631D01*
X74067742Y-127779791D01*
X73859838Y-127277867D01*
X73558009Y-126826147D01*
X73173853Y-126441991D01*
X72722133Y-126140162D01*
X72220209Y-125932258D01*
X71687369Y-125826270D01*
X71144091Y-125826270D01*
X70611251Y-125932258D01*
X70109327Y-126140162D01*
X69657607Y-126441991D01*
X69273451Y-126826147D01*
X68971622Y-127277867D01*
X68763718Y-127779791D01*
X68657730Y-128312631D01*
X65944905Y-128312631D01*
X65838241Y-128190919D01*
X64226472Y-126115292D01*
X62740649Y-123947744D01*
X61385971Y-121695863D01*
X60167240Y-119367625D01*
X59088726Y-116971193D01*
X58154241Y-114515032D01*
X57367056Y-112007740D01*
X56729967Y-109458220D01*
X56245196Y-106875374D01*
X55914458Y-104268330D01*
X55738916Y-101646259D01*
X55719190Y-99018403D01*
X55855346Y-96393997D01*
X56146908Y-93782285D01*
X56592845Y-91192467D01*
X56661111Y-90900721D01*
X93492000Y-90900721D01*
X93492000Y-91099279D01*
X93530737Y-91294023D01*
X93606722Y-91477467D01*
X93717035Y-91642562D01*
X93857438Y-91782965D01*
X94022533Y-91893278D01*
X94205977Y-91969263D01*
X94400721Y-92008000D01*
X94599279Y-92008000D01*
X94794023Y-91969263D01*
X94977467Y-91893278D01*
X95003646Y-91875785D01*
X95004662Y-91875289D01*
X95056449Y-91850092D01*
X95092106Y-91833604D01*
X95113819Y-91824621D01*
X95125742Y-91820514D01*
X95135116Y-91818035D01*
X95150444Y-91815196D01*
X95178812Y-91811916D01*
X95224816Y-91809182D01*
X95295105Y-91808000D01*
X97760320Y-91808000D01*
X97800000Y-91811908D01*
X97839680Y-91808000D01*
X97839688Y-91808000D01*
X97958396Y-91796308D01*
X98110704Y-91750106D01*
X98251072Y-91675078D01*
X98374106Y-91574106D01*
X98399411Y-91543272D01*
X99634684Y-90308000D01*
X113465317Y-90308000D01*
X115192000Y-92034685D01*
X115192001Y-107465315D01*
X114456727Y-108200590D01*
X114425894Y-108225894D01*
X114324922Y-108348929D01*
X114249894Y-108489297D01*
X114223127Y-108577537D01*
X114203692Y-108641604D01*
X114202619Y-108652503D01*
X114192000Y-108760313D01*
X114192000Y-108760320D01*
X114188092Y-108800000D01*
X114192000Y-108839681D01*
X114192001Y-110860303D01*
X114192000Y-110860313D01*
X114192000Y-111592000D01*
X114034684Y-111592000D01*
X111008000Y-108565317D01*
X111008000Y-107539679D01*
X111011908Y-107499999D01*
X111008000Y-107460319D01*
X111008000Y-107460312D01*
X110996308Y-107341604D01*
X110995519Y-107339001D01*
X110985555Y-107306154D01*
X110950106Y-107189296D01*
X110875078Y-107048928D01*
X110774106Y-106925894D01*
X110769297Y-106921948D01*
X110764513Y-106913939D01*
X110763550Y-106912077D01*
X110704659Y-106769901D01*
X110605289Y-106621184D01*
X110478816Y-106494711D01*
X110330099Y-106395341D01*
X110164854Y-106326894D01*
X109989430Y-106292000D01*
X109810570Y-106292000D01*
X109635146Y-106326894D01*
X109469901Y-106395341D01*
X109321184Y-106494711D01*
X109194711Y-106621184D01*
X109095341Y-106769901D01*
X109026894Y-106935146D01*
X108992000Y-107110570D01*
X108992000Y-107289430D01*
X109026894Y-107464854D01*
X109095341Y-107630099D01*
X109194711Y-107778816D01*
X109321184Y-107905289D01*
X109392000Y-107952607D01*
X109392001Y-108860310D01*
X109388092Y-108900000D01*
X109403692Y-109058396D01*
X109430602Y-109147104D01*
X109449895Y-109210704D01*
X109524923Y-109351072D01*
X109625895Y-109474106D01*
X109656723Y-109499406D01*
X113100594Y-112943278D01*
X113125894Y-112974106D01*
X113248928Y-113075078D01*
X113389296Y-113150106D01*
X113541604Y-113196308D01*
X113660312Y-113208000D01*
X113660321Y-113208000D01*
X113699999Y-113211908D01*
X113739677Y-113208000D01*
X114192000Y-113208000D01*
X114192001Y-113709556D01*
X114192000Y-113709563D01*
X114191954Y-113772888D01*
X114191579Y-113823209D01*
X114190679Y-113859971D01*
X114189421Y-113883031D01*
X114189268Y-113884562D01*
X114126894Y-114035146D01*
X114092000Y-114210570D01*
X114092000Y-114389430D01*
X114126894Y-114564854D01*
X114195341Y-114730099D01*
X114294711Y-114878816D01*
X114421184Y-115005289D01*
X114569901Y-115104659D01*
X114735146Y-115173106D01*
X114910570Y-115208000D01*
X115089430Y-115208000D01*
X115264854Y-115173106D01*
X115430099Y-115104659D01*
X115578816Y-115005289D01*
X115705289Y-114878816D01*
X115804659Y-114730099D01*
X115873106Y-114564854D01*
X115908000Y-114389430D01*
X115908000Y-114210570D01*
X115873106Y-114035146D01*
X115810731Y-113884559D01*
X115810578Y-113883031D01*
X115809320Y-113859971D01*
X115808420Y-113823209D01*
X115808045Y-113772891D01*
X115808000Y-113709572D01*
X115808000Y-112439688D01*
X115811909Y-112400000D01*
X115808000Y-112360312D01*
X115808000Y-109134684D01*
X116543283Y-108399402D01*
X116574106Y-108374106D01*
X116599402Y-108343283D01*
X116599406Y-108343279D01*
X116634435Y-108300595D01*
X116675078Y-108251072D01*
X116750106Y-108110704D01*
X116796308Y-107958396D01*
X116808000Y-107839688D01*
X116808000Y-107839680D01*
X116811908Y-107800000D01*
X116808000Y-107760320D01*
X116808000Y-107376399D01*
X121142000Y-107376399D01*
X121142000Y-107663601D01*
X121198030Y-107945283D01*
X121307937Y-108210622D01*
X121467497Y-108449421D01*
X121670579Y-108652503D01*
X121909378Y-108812063D01*
X122174717Y-108921970D01*
X122456399Y-108978000D01*
X122743601Y-108978000D01*
X123025283Y-108921970D01*
X123290622Y-108812063D01*
X123529421Y-108652503D01*
X123732503Y-108449421D01*
X123892063Y-108210622D01*
X124001970Y-107945283D01*
X124058000Y-107663601D01*
X124058000Y-107376399D01*
X124001970Y-107094717D01*
X123892063Y-106829378D01*
X123732503Y-106590579D01*
X123529421Y-106387497D01*
X123314910Y-106244166D01*
X123488852Y-106135736D01*
X123697246Y-105940122D01*
X123863473Y-105707611D01*
X123981146Y-105447139D01*
X124007903Y-105358910D01*
X123896889Y-105134000D01*
X122754000Y-105134000D01*
X122754000Y-105154000D01*
X122446000Y-105154000D01*
X122446000Y-105134000D01*
X121303111Y-105134000D01*
X121192097Y-105358910D01*
X121218854Y-105447139D01*
X121336527Y-105707611D01*
X121502754Y-105940122D01*
X121711148Y-106135736D01*
X121885090Y-106244166D01*
X121670579Y-106387497D01*
X121467497Y-106590579D01*
X121307937Y-106829378D01*
X121198030Y-107094717D01*
X121142000Y-107376399D01*
X116808000Y-107376399D01*
X116808000Y-91739680D01*
X116811908Y-91700000D01*
X116808000Y-91660320D01*
X116808000Y-91660312D01*
X116797680Y-91555536D01*
X116796308Y-91541603D01*
X116750106Y-91389295D01*
X116704180Y-91303375D01*
X116675078Y-91248928D01*
X116620327Y-91182214D01*
X116599406Y-91156721D01*
X116599402Y-91156717D01*
X116574106Y-91125894D01*
X116543284Y-91100599D01*
X114399411Y-88956728D01*
X114374106Y-88925894D01*
X114251072Y-88824922D01*
X114110704Y-88749894D01*
X113958396Y-88703692D01*
X113839688Y-88692000D01*
X113839680Y-88692000D01*
X113800000Y-88688092D01*
X113760320Y-88692000D01*
X99339679Y-88692000D01*
X99299999Y-88688092D01*
X99260319Y-88692000D01*
X99260312Y-88692000D01*
X99156879Y-88702187D01*
X99141603Y-88703692D01*
X99095401Y-88717707D01*
X98989296Y-88749894D01*
X98848928Y-88824922D01*
X98725894Y-88925894D01*
X98700594Y-88956722D01*
X97465317Y-90192000D01*
X95295112Y-90192000D01*
X95224817Y-90190818D01*
X95178812Y-90188083D01*
X95150444Y-90184803D01*
X95135116Y-90181964D01*
X95125742Y-90179485D01*
X95113819Y-90175378D01*
X95092106Y-90166395D01*
X95056449Y-90149907D01*
X95005008Y-90124879D01*
X95003640Y-90124210D01*
X94977467Y-90106722D01*
X94794023Y-90030737D01*
X94599279Y-89992000D01*
X94400721Y-89992000D01*
X94205977Y-90030737D01*
X94022533Y-90106722D01*
X93857438Y-90217035D01*
X93717035Y-90357438D01*
X93606722Y-90522533D01*
X93530737Y-90705977D01*
X93492000Y-90900721D01*
X56661111Y-90900721D01*
X57191595Y-88633643D01*
X57941042Y-86114840D01*
X58838553Y-83644910D01*
X59880966Y-81232559D01*
X60098818Y-80800721D01*
X102892000Y-80800721D01*
X102892000Y-80999279D01*
X102930737Y-81194023D01*
X103006722Y-81377467D01*
X103021778Y-81400000D01*
X103006722Y-81422533D01*
X102930737Y-81605977D01*
X102892000Y-81800721D01*
X102892000Y-81999279D01*
X102930737Y-82194023D01*
X103006722Y-82377467D01*
X103055187Y-82450000D01*
X103006722Y-82522533D01*
X102930737Y-82705977D01*
X102892000Y-82900721D01*
X102892000Y-83099279D01*
X102930737Y-83294023D01*
X103006722Y-83477467D01*
X103055187Y-83550000D01*
X103006722Y-83622533D01*
X102930737Y-83805977D01*
X102892000Y-84000721D01*
X102892000Y-84199279D01*
X102930737Y-84394023D01*
X103006722Y-84577467D01*
X103055187Y-84650000D01*
X103006722Y-84722533D01*
X102930737Y-84905977D01*
X102892000Y-85100721D01*
X102892000Y-85299279D01*
X102930737Y-85494023D01*
X103006722Y-85677467D01*
X103055187Y-85750000D01*
X103006722Y-85822533D01*
X102930737Y-86005977D01*
X102892000Y-86200721D01*
X102892000Y-86399279D01*
X102930737Y-86594023D01*
X103006722Y-86777467D01*
X103055187Y-86850000D01*
X103006722Y-86922533D01*
X102930737Y-87105977D01*
X102892000Y-87300721D01*
X102892000Y-87499279D01*
X102930737Y-87694023D01*
X103006722Y-87877467D01*
X103117035Y-88042562D01*
X103257438Y-88182965D01*
X103422533Y-88293278D01*
X103605977Y-88369263D01*
X103800721Y-88408000D01*
X103999279Y-88408000D01*
X104194023Y-88369263D01*
X104377467Y-88293278D01*
X104542562Y-88182965D01*
X104682965Y-88042562D01*
X104793278Y-87877467D01*
X104822052Y-87808000D01*
X104899279Y-87808000D01*
X105094023Y-87769263D01*
X105277467Y-87693278D01*
X105442562Y-87582965D01*
X105582965Y-87442562D01*
X105693278Y-87277467D01*
X105769263Y-87094023D01*
X105808000Y-86899279D01*
X105808000Y-86700721D01*
X105769263Y-86505977D01*
X105693278Y-86322533D01*
X105644813Y-86250000D01*
X105693278Y-86177467D01*
X105769263Y-85994023D01*
X105808000Y-85799279D01*
X105808000Y-85600721D01*
X105769263Y-85405977D01*
X105693278Y-85222533D01*
X105678222Y-85200000D01*
X105693278Y-85177467D01*
X105769263Y-84994023D01*
X105808000Y-84799279D01*
X105808000Y-84600721D01*
X105769263Y-84405977D01*
X105693278Y-84222533D01*
X105611404Y-84100000D01*
X105693278Y-83977467D01*
X105769263Y-83794023D01*
X105808000Y-83599279D01*
X105808000Y-83400721D01*
X105769263Y-83205977D01*
X105693278Y-83022533D01*
X105678222Y-83000000D01*
X105693278Y-82977467D01*
X105769263Y-82794023D01*
X105808000Y-82599279D01*
X105808000Y-82400721D01*
X105769263Y-82205977D01*
X105693278Y-82022533D01*
X105644813Y-81950000D01*
X105693278Y-81877467D01*
X105769263Y-81694023D01*
X105808000Y-81499279D01*
X105808000Y-81300721D01*
X105769263Y-81105977D01*
X105693278Y-80922533D01*
X105644813Y-80850000D01*
X105693278Y-80777467D01*
X105769263Y-80594023D01*
X105808000Y-80399279D01*
X105808000Y-80200721D01*
X105769263Y-80005977D01*
X105693278Y-79822533D01*
X105582965Y-79657438D01*
X105442562Y-79517035D01*
X105277467Y-79406722D01*
X105094023Y-79330737D01*
X104899279Y-79292000D01*
X104700721Y-79292000D01*
X104505977Y-79330737D01*
X104322533Y-79406722D01*
X104157438Y-79517035D01*
X104017035Y-79657438D01*
X103906722Y-79822533D01*
X103877948Y-79892000D01*
X103800721Y-79892000D01*
X103605977Y-79930737D01*
X103422533Y-80006722D01*
X103257438Y-80117035D01*
X103117035Y-80257438D01*
X103006722Y-80422533D01*
X102930737Y-80605977D01*
X102892000Y-80800721D01*
X60098818Y-80800721D01*
X61064600Y-78886300D01*
X62385318Y-76614333D01*
X63838442Y-74424711D01*
X65418882Y-72325101D01*
X66422930Y-71144091D01*
X68657730Y-71144091D01*
X68657730Y-71687369D01*
X68763718Y-72220209D01*
X68971622Y-72722133D01*
X69273451Y-73173853D01*
X69657607Y-73558009D01*
X70109327Y-73859838D01*
X70611251Y-74067742D01*
X71144091Y-74173730D01*
X71687369Y-74173730D01*
X72220209Y-74067742D01*
X72722133Y-73859838D01*
X73173853Y-73558009D01*
X73558009Y-73173853D01*
X73859838Y-72722133D01*
X74067742Y-72220209D01*
X74173730Y-71687369D01*
X74173730Y-71144091D01*
X74067742Y-70611251D01*
X73859838Y-70109327D01*
X73558009Y-69657607D01*
X73173853Y-69273451D01*
X72722133Y-68971622D01*
X72220209Y-68763718D01*
X71687369Y-68657730D01*
X71144091Y-68657730D01*
X70611251Y-68763718D01*
X70109327Y-68971622D01*
X69657607Y-69273451D01*
X69273451Y-69657607D01*
X68971622Y-70109327D01*
X68763718Y-70611251D01*
X68657730Y-71144091D01*
X66422930Y-71144091D01*
X67121031Y-70322952D01*
X68938950Y-68425249D01*
X70866205Y-66638709D01*
X72194881Y-65546152D01*
X101392000Y-65546152D01*
X101392000Y-66453848D01*
X101569083Y-67344104D01*
X101916443Y-68182706D01*
X102420733Y-68937429D01*
X103062571Y-69579267D01*
X103817294Y-70083557D01*
X104655896Y-70430917D01*
X105546152Y-70608000D01*
X106453848Y-70608000D01*
X107344104Y-70430917D01*
X108182706Y-70083557D01*
X108396153Y-69940936D01*
X108536593Y-69866004D01*
X108561519Y-69851941D01*
X109092012Y-69535961D01*
X109098962Y-69531758D01*
X109630733Y-69205315D01*
X110136204Y-68906292D01*
X110585233Y-68671390D01*
X110934323Y-68535040D01*
X111055313Y-68516915D01*
X111092001Y-68785677D01*
X111092000Y-75729122D01*
X111088092Y-75768802D01*
X111092000Y-75808482D01*
X111092000Y-75808489D01*
X111103692Y-75927197D01*
X111149894Y-76079505D01*
X111224922Y-76219873D01*
X111325894Y-76342908D01*
X111356728Y-76368213D01*
X115192001Y-80203488D01*
X115192000Y-87460320D01*
X115188092Y-87500000D01*
X115192000Y-87539680D01*
X115192000Y-87539687D01*
X115201152Y-87632604D01*
X115203692Y-87658396D01*
X115214274Y-87693278D01*
X115249894Y-87810703D01*
X115324922Y-87951071D01*
X115425894Y-88074106D01*
X115456727Y-88099411D01*
X117032000Y-89674685D01*
X117031999Y-104000319D01*
X117028091Y-104039999D01*
X117031999Y-104079679D01*
X117031999Y-104079686D01*
X117041652Y-104177688D01*
X117043691Y-104198395D01*
X117049780Y-104218468D01*
X117089893Y-104350702D01*
X117164921Y-104491070D01*
X117265893Y-104614105D01*
X117296727Y-104639410D01*
X118866427Y-106209112D01*
X118915297Y-106259653D01*
X118945893Y-106294116D01*
X118963648Y-106316513D01*
X118972459Y-106329331D01*
X118977344Y-106337729D01*
X118982872Y-106349065D01*
X118991858Y-106370734D01*
X119005451Y-106407709D01*
X119023978Y-106461352D01*
X119024597Y-106463155D01*
X119030737Y-106494023D01*
X119106722Y-106677467D01*
X119217035Y-106842562D01*
X119357438Y-106982965D01*
X119522533Y-107093278D01*
X119705977Y-107169263D01*
X119900721Y-107208000D01*
X120099279Y-107208000D01*
X120294023Y-107169263D01*
X120477467Y-107093278D01*
X120642562Y-106982965D01*
X120782965Y-106842562D01*
X120893278Y-106677467D01*
X120969263Y-106494023D01*
X121008000Y-106299279D01*
X121008000Y-106100721D01*
X120969263Y-105905977D01*
X120893278Y-105722533D01*
X120782965Y-105557438D01*
X120642562Y-105417035D01*
X120477467Y-105306722D01*
X120294023Y-105230737D01*
X120263155Y-105224597D01*
X120261352Y-105223978D01*
X120207709Y-105205451D01*
X120170734Y-105191858D01*
X120149065Y-105182872D01*
X120137729Y-105177344D01*
X120129331Y-105172459D01*
X120116513Y-105163648D01*
X120094116Y-105145893D01*
X120059653Y-105115297D01*
X120009112Y-105066427D01*
X118647999Y-103705316D01*
X118647999Y-102818910D01*
X121192097Y-102818910D01*
X121218854Y-102907139D01*
X121336527Y-103167611D01*
X121502754Y-103400122D01*
X121711148Y-103595736D01*
X121894449Y-103710000D01*
X121711148Y-103824264D01*
X121502754Y-104019878D01*
X121336527Y-104252389D01*
X121218854Y-104512861D01*
X121192097Y-104601090D01*
X121303111Y-104826000D01*
X122446000Y-104826000D01*
X122446000Y-102594000D01*
X122754000Y-102594000D01*
X122754000Y-104826000D01*
X123896889Y-104826000D01*
X124007903Y-104601090D01*
X123981146Y-104512861D01*
X123863473Y-104252389D01*
X123697246Y-104019878D01*
X123488852Y-103824264D01*
X123305551Y-103710000D01*
X123488852Y-103595736D01*
X123697246Y-103400122D01*
X123863473Y-103167611D01*
X123981146Y-102907139D01*
X124007903Y-102818910D01*
X123896889Y-102594000D01*
X122754000Y-102594000D01*
X122446000Y-102594000D01*
X121303111Y-102594000D01*
X121192097Y-102818910D01*
X118647999Y-102818910D01*
X118647999Y-99050000D01*
X121139059Y-99050000D01*
X121139059Y-100750000D01*
X121150798Y-100869189D01*
X121185564Y-100983797D01*
X121242021Y-101089421D01*
X121317999Y-101182001D01*
X121410579Y-101257979D01*
X121516203Y-101314436D01*
X121630811Y-101349202D01*
X121640908Y-101350196D01*
X121502754Y-101479878D01*
X121336527Y-101712389D01*
X121218854Y-101972861D01*
X121192097Y-102061090D01*
X121303111Y-102286000D01*
X122446000Y-102286000D01*
X122446000Y-102266000D01*
X122754000Y-102266000D01*
X122754000Y-102286000D01*
X123896889Y-102286000D01*
X124007903Y-102061090D01*
X123981146Y-101972861D01*
X123863473Y-101712389D01*
X123697246Y-101479878D01*
X123559092Y-101350196D01*
X123569189Y-101349202D01*
X123683797Y-101314436D01*
X123789421Y-101257979D01*
X123882001Y-101182001D01*
X123957979Y-101089421D01*
X124014436Y-100983797D01*
X124049202Y-100869189D01*
X124060941Y-100750000D01*
X124060941Y-99050000D01*
X124049202Y-98930811D01*
X124014436Y-98816203D01*
X123957979Y-98710579D01*
X123882001Y-98617999D01*
X123789421Y-98542021D01*
X123683797Y-98485564D01*
X123569189Y-98450798D01*
X123450000Y-98439059D01*
X121750000Y-98439059D01*
X121630811Y-98450798D01*
X121516203Y-98485564D01*
X121410579Y-98542021D01*
X121317999Y-98617999D01*
X121242021Y-98710579D01*
X121185564Y-98816203D01*
X121150798Y-98930811D01*
X121139059Y-99050000D01*
X118647999Y-99050000D01*
X118647999Y-89379679D01*
X118651907Y-89339999D01*
X118647999Y-89300319D01*
X118647999Y-89300311D01*
X118636307Y-89181603D01*
X118590105Y-89029295D01*
X118515077Y-88888927D01*
X118446651Y-88805550D01*
X118439405Y-88796720D01*
X118439401Y-88796716D01*
X118414105Y-88765893D01*
X118383282Y-88740597D01*
X116808000Y-87165317D01*
X116808000Y-79908482D01*
X116811908Y-79868802D01*
X116808000Y-79829122D01*
X116808000Y-79829114D01*
X116796308Y-79710406D01*
X116750106Y-79558098D01*
X116675078Y-79417730D01*
X116632641Y-79366020D01*
X116599406Y-79325523D01*
X116599402Y-79325519D01*
X116574106Y-79294696D01*
X116543283Y-79269400D01*
X112708000Y-75434119D01*
X112708000Y-71144091D01*
X125826270Y-71144091D01*
X125826270Y-71687369D01*
X125932258Y-72220209D01*
X126140162Y-72722133D01*
X126441991Y-73173853D01*
X126826147Y-73558009D01*
X127277867Y-73859838D01*
X127779791Y-74067742D01*
X128312631Y-74173730D01*
X128855909Y-74173730D01*
X129388749Y-74067742D01*
X129890673Y-73859838D01*
X130342393Y-73558009D01*
X130726549Y-73173853D01*
X131028378Y-72722133D01*
X131236282Y-72220209D01*
X131342270Y-71687369D01*
X131342270Y-71144091D01*
X131236282Y-70611251D01*
X131028378Y-70109327D01*
X130726549Y-69657607D01*
X130342393Y-69273451D01*
X129890673Y-68971622D01*
X129388749Y-68763718D01*
X128855909Y-68657730D01*
X128312631Y-68657730D01*
X127779791Y-68763718D01*
X127277867Y-68971622D01*
X126826147Y-69273451D01*
X126441991Y-69657607D01*
X126140162Y-70109327D01*
X125932258Y-70611251D01*
X125826270Y-71144091D01*
X112708000Y-71144091D01*
X112708000Y-67139680D01*
X112711908Y-67100000D01*
X112708000Y-67060320D01*
X112708000Y-67060312D01*
X112696308Y-66941604D01*
X112690224Y-66921548D01*
X112650106Y-66789295D01*
X112606178Y-66707113D01*
X112575078Y-66648928D01*
X112532669Y-66597253D01*
X112334125Y-65811664D01*
X112305147Y-65725019D01*
X112019441Y-65045393D01*
X111971777Y-64954402D01*
X111596609Y-64365340D01*
X111535123Y-64284574D01*
X111066994Y-63765931D01*
X111003852Y-63705370D01*
X110439265Y-63236998D01*
X110385791Y-63197370D01*
X109721244Y-62759126D01*
X109682636Y-62735676D01*
X108914633Y-62307411D01*
X108890896Y-62294853D01*
X108323626Y-62010603D01*
X108182706Y-61916443D01*
X107344104Y-61569083D01*
X106453848Y-61392000D01*
X105546152Y-61392000D01*
X104655896Y-61569083D01*
X103817294Y-61916443D01*
X103062571Y-62420733D01*
X102420733Y-63062571D01*
X101916443Y-63817294D01*
X101569083Y-64655896D01*
X101392000Y-65546152D01*
X72194881Y-65546152D01*
X72896022Y-64969612D01*
X75021256Y-63423832D01*
X77234435Y-62006807D01*
X79527730Y-60723546D01*
X81893118Y-59578540D01*
X84322242Y-58575834D01*
X86806548Y-57718958D01*
X89337304Y-57010924D01*
X91905599Y-56454227D01*
X94502394Y-56050824D01*
X97118532Y-55802140D01*
X99744821Y-55709046D01*
X102372012Y-55771873D01*
%TA.AperFunction,Conductor*%
D18*
G36*
X102372012Y-55771873D02*
G01*
X104990833Y-55990396D01*
X107592113Y-56363851D01*
X110166635Y-56890915D01*
X112705390Y-57569743D01*
X115199419Y-58397940D01*
X117639926Y-59372587D01*
X120018345Y-60490260D01*
X122326290Y-61747020D01*
X124555635Y-63138442D01*
X126698540Y-64659631D01*
X128747446Y-66305222D01*
X130695173Y-68069450D01*
X132534824Y-69946066D01*
X134259946Y-71928488D01*
X135864457Y-74009725D01*
X137342726Y-76182475D01*
X138689524Y-78439054D01*
X139900128Y-80771543D01*
X140970267Y-83171723D01*
X141896174Y-85631133D01*
X142674596Y-88141140D01*
X143302788Y-90692892D01*
X143778537Y-93277398D01*
X144100174Y-95885586D01*
X144266560Y-98508242D01*
X144277115Y-101136150D01*
X144131797Y-103760072D01*
X143831120Y-106370765D01*
X143376145Y-108959005D01*
X142768472Y-111515707D01*
X142010235Y-114031885D01*
X141104112Y-116498657D01*
X140053278Y-118907370D01*
X138861458Y-121249491D01*
X137532820Y-123516827D01*
X136072059Y-125701366D01*
X134484311Y-127795430D01*
X132775169Y-129791642D01*
X130950647Y-131682979D01*
X129017163Y-133462784D01*
X126974985Y-135130133D01*
X126761733Y-135292000D01*
X122293263Y-135292000D01*
X120708000Y-133706738D01*
X120708000Y-128312631D01*
X125826270Y-128312631D01*
X125826270Y-128855909D01*
X125932258Y-129388749D01*
X126140162Y-129890673D01*
X126441991Y-130342393D01*
X126826147Y-130726549D01*
X127277867Y-131028378D01*
X127779791Y-131236282D01*
X128312631Y-131342270D01*
X128855909Y-131342270D01*
X129388749Y-131236282D01*
X129890673Y-131028378D01*
X130342393Y-130726549D01*
X130726549Y-130342393D01*
X131028378Y-129890673D01*
X131236282Y-129388749D01*
X131342270Y-128855909D01*
X131342270Y-128312631D01*
X131236282Y-127779791D01*
X131028378Y-127277867D01*
X130726549Y-126826147D01*
X130342393Y-126441991D01*
X129890673Y-126140162D01*
X129388749Y-125932258D01*
X128855909Y-125826270D01*
X128312631Y-125826270D01*
X127779791Y-125932258D01*
X127277867Y-126140162D01*
X126826147Y-126441991D01*
X126441991Y-126826147D01*
X126140162Y-127277867D01*
X125932258Y-127779791D01*
X125826270Y-128312631D01*
X120708000Y-128312631D01*
X120708000Y-127608000D01*
X123000000Y-127608000D01*
X123118612Y-127596318D01*
X123232668Y-127561720D01*
X123303379Y-127532431D01*
X123408500Y-127476243D01*
X123500634Y-127400630D01*
X123576246Y-127308495D01*
X123632431Y-127203379D01*
X123661720Y-127132668D01*
X123696317Y-127018615D01*
X123708000Y-126900000D01*
X123708000Y-122500000D01*
X123696318Y-122381388D01*
X123661720Y-122267332D01*
X123632431Y-122196621D01*
X123576243Y-122091500D01*
X123500630Y-121999366D01*
X123408495Y-121923754D01*
X123303379Y-121867569D01*
X123232668Y-121838280D01*
X123118615Y-121803683D01*
X123000000Y-121792000D01*
X109108000Y-121792000D01*
X109108000Y-116010570D01*
X109227000Y-116010570D01*
X109227000Y-116189430D01*
X109261894Y-116364854D01*
X109330341Y-116530099D01*
X109429711Y-116678816D01*
X109556184Y-116805289D01*
X109704901Y-116904659D01*
X109870146Y-116973106D01*
X110045570Y-117008000D01*
X110224430Y-117008000D01*
X110399854Y-116973106D01*
X110565099Y-116904659D01*
X110713816Y-116805289D01*
X110840289Y-116678816D01*
X110939659Y-116530099D01*
X111008106Y-116364854D01*
X111043000Y-116189430D01*
X111043000Y-116010570D01*
X111008106Y-115835146D01*
X110939659Y-115669901D01*
X110840289Y-115521184D01*
X110713816Y-115394711D01*
X110565099Y-115295341D01*
X110399854Y-115226894D01*
X110224430Y-115192000D01*
X110045570Y-115192000D01*
X109870146Y-115226894D01*
X109704901Y-115295341D01*
X109556184Y-115394711D01*
X109429711Y-115521184D01*
X109330341Y-115669901D01*
X109261894Y-115835146D01*
X109227000Y-116010570D01*
X109108000Y-116010570D01*
X109108000Y-111000000D01*
X109096318Y-110881388D01*
X109061720Y-110767332D01*
X109032431Y-110696621D01*
X108976243Y-110591500D01*
X108900630Y-110499366D01*
X108808495Y-110423754D01*
X108703379Y-110367569D01*
X108632668Y-110338280D01*
X108518615Y-110303683D01*
X108400000Y-110292000D01*
X105280404Y-110292000D01*
X105267106Y-110225146D01*
X105198659Y-110059901D01*
X105099289Y-109911184D01*
X104972816Y-109784711D01*
X104824099Y-109685341D01*
X104658854Y-109616894D01*
X104483430Y-109582000D01*
X104304570Y-109582000D01*
X104129146Y-109616894D01*
X103963901Y-109685341D01*
X103957411Y-109689678D01*
X103942784Y-109690545D01*
X103906762Y-109691516D01*
X103856835Y-109691940D01*
X103793426Y-109692000D01*
X98708000Y-109692000D01*
X98708000Y-109610570D01*
X98673106Y-109435146D01*
X98604659Y-109269901D01*
X98505289Y-109121184D01*
X98492105Y-109108000D01*
X103075000Y-109108000D01*
X103154359Y-109102799D01*
X103283769Y-109085762D01*
X103437081Y-109044682D01*
X103557671Y-108994732D01*
X103695130Y-108915370D01*
X103798683Y-108835910D01*
X103910910Y-108723683D01*
X103990370Y-108620130D01*
X104069732Y-108482671D01*
X104119682Y-108362081D01*
X104160762Y-108208769D01*
X104177799Y-108079359D01*
X104183000Y-108000000D01*
X104183000Y-105125683D01*
X104940593Y-105883276D01*
X104965893Y-105914105D01*
X105088927Y-106015077D01*
X105229295Y-106090105D01*
X105317353Y-106116817D01*
X105381602Y-106136307D01*
X105396878Y-106137812D01*
X105500311Y-106147999D01*
X105500318Y-106147999D01*
X105539998Y-106151907D01*
X105579678Y-106147999D01*
X110492000Y-106147999D01*
X110492000Y-106189430D01*
X110526894Y-106364854D01*
X110595341Y-106530099D01*
X110694711Y-106678816D01*
X110821184Y-106805289D01*
X110969901Y-106904659D01*
X111135146Y-106973106D01*
X111310570Y-107008000D01*
X111489430Y-107008000D01*
X111664854Y-106973106D01*
X111830099Y-106904659D01*
X111909646Y-106851507D01*
X111994711Y-106978816D01*
X112121184Y-107105289D01*
X112269901Y-107204659D01*
X112435146Y-107273106D01*
X112610570Y-107308000D01*
X112789430Y-107308000D01*
X112964854Y-107273106D01*
X113130099Y-107204659D01*
X113278816Y-107105289D01*
X113405289Y-106978816D01*
X113504659Y-106830099D01*
X113573106Y-106664854D01*
X113608000Y-106489430D01*
X113608000Y-106310570D01*
X113573106Y-106135146D01*
X113504659Y-105969901D01*
X113463298Y-105908000D01*
X113589430Y-105908000D01*
X113764854Y-105873106D01*
X113930099Y-105804659D01*
X114078816Y-105705289D01*
X114205289Y-105578816D01*
X114304659Y-105430099D01*
X114373106Y-105264854D01*
X114408000Y-105089430D01*
X114408000Y-104910570D01*
X114373106Y-104735146D01*
X114304659Y-104569901D01*
X114205289Y-104421184D01*
X114078816Y-104294711D01*
X113930099Y-104195341D01*
X113764854Y-104126894D01*
X113589430Y-104092000D01*
X113410570Y-104092000D01*
X113235146Y-104126894D01*
X113069901Y-104195341D01*
X112921184Y-104294711D01*
X112794711Y-104421184D01*
X112695341Y-104569901D01*
X112626894Y-104735146D01*
X112592000Y-104910570D01*
X112592000Y-105089430D01*
X112626894Y-105264854D01*
X112695341Y-105430099D01*
X112736702Y-105492000D01*
X112610570Y-105492000D01*
X112435146Y-105526894D01*
X112269901Y-105595341D01*
X112221630Y-105627595D01*
X112217266Y-105592794D01*
X112208313Y-105535979D01*
X112203313Y-105512723D01*
X112196308Y-105441604D01*
X112150106Y-105289296D01*
X112075078Y-105148928D01*
X111974106Y-105025894D01*
X111943272Y-105000589D01*
X111739410Y-104796727D01*
X111714105Y-104765893D01*
X111591071Y-104664921D01*
X111450703Y-104589893D01*
X111298395Y-104543691D01*
X111179687Y-104531999D01*
X111179679Y-104531999D01*
X111139999Y-104528091D01*
X111100319Y-104531999D01*
X105874683Y-104531999D01*
X105408000Y-104065317D01*
X105408000Y-103739680D01*
X105411908Y-103700000D01*
X105408000Y-103660320D01*
X105408000Y-103660312D01*
X105396308Y-103541604D01*
X105390523Y-103522533D01*
X105350106Y-103389295D01*
X105299953Y-103295466D01*
X105275078Y-103248928D01*
X105174106Y-103125894D01*
X105143272Y-103100589D01*
X104659412Y-102616729D01*
X104634107Y-102585895D01*
X104511073Y-102484923D01*
X104370705Y-102409895D01*
X104218397Y-102363693D01*
X104099689Y-102352001D01*
X104099681Y-102352001D01*
X104060001Y-102348093D01*
X104020321Y-102352001D01*
X100297332Y-102352001D01*
X100296308Y-102341604D01*
X100296152Y-102341088D01*
X100282341Y-102295560D01*
X100250106Y-102189296D01*
X100175078Y-102048928D01*
X100074106Y-101925894D01*
X100043272Y-101900589D01*
X99799411Y-101656728D01*
X99785612Y-101639915D01*
X99882965Y-101542562D01*
X99993278Y-101377467D01*
X100069263Y-101194023D01*
X100100000Y-101039498D01*
X100130737Y-101194023D01*
X100206722Y-101377467D01*
X100317035Y-101542562D01*
X100457438Y-101682965D01*
X100622533Y-101793278D01*
X100805977Y-101869263D01*
X101000721Y-101908000D01*
X101199279Y-101908000D01*
X101394023Y-101869263D01*
X101577467Y-101793278D01*
X101742562Y-101682965D01*
X101882965Y-101542562D01*
X101993278Y-101377467D01*
X102069263Y-101194023D01*
X102100000Y-101039498D01*
X102130737Y-101194023D01*
X102206722Y-101377467D01*
X102317035Y-101542562D01*
X102457438Y-101682965D01*
X102622533Y-101793278D01*
X102805977Y-101869263D01*
X103000721Y-101908000D01*
X103199279Y-101908000D01*
X103394023Y-101869263D01*
X103577467Y-101793278D01*
X103742562Y-101682965D01*
X103882965Y-101542562D01*
X103993278Y-101377467D01*
X104069263Y-101194023D01*
X104100000Y-101039498D01*
X104130737Y-101194023D01*
X104206722Y-101377467D01*
X104317035Y-101542562D01*
X104457438Y-101682965D01*
X104622533Y-101793278D01*
X104805977Y-101869263D01*
X105000721Y-101908000D01*
X105199279Y-101908000D01*
X105394023Y-101869263D01*
X105577467Y-101793278D01*
X105742562Y-101682965D01*
X105882965Y-101542562D01*
X105993278Y-101377467D01*
X106069263Y-101194023D01*
X106108000Y-100999279D01*
X106108000Y-100800721D01*
X106069263Y-100605977D01*
X105993278Y-100422533D01*
X105882965Y-100257438D01*
X105742562Y-100117035D01*
X105577467Y-100006722D01*
X105394023Y-99930737D01*
X105239498Y-99900000D01*
X105394023Y-99869263D01*
X105577467Y-99793278D01*
X105742562Y-99682965D01*
X105882965Y-99542562D01*
X105993278Y-99377467D01*
X106069263Y-99194023D01*
X106108000Y-98999279D01*
X106108000Y-98800721D01*
X106069263Y-98605977D01*
X105993278Y-98422533D01*
X105882965Y-98257438D01*
X105742562Y-98117035D01*
X105577467Y-98006722D01*
X105394023Y-97930737D01*
X105199279Y-97892000D01*
X105000721Y-97892000D01*
X104805977Y-97930737D01*
X104622533Y-98006722D01*
X104457438Y-98117035D01*
X104317035Y-98257438D01*
X104206722Y-98422533D01*
X104130737Y-98605977D01*
X104100000Y-98760502D01*
X104069263Y-98605977D01*
X103993278Y-98422533D01*
X103882965Y-98257438D01*
X103742562Y-98117035D01*
X103577467Y-98006722D01*
X103394023Y-97930737D01*
X103199279Y-97892000D01*
X103000721Y-97892000D01*
X102805977Y-97930737D01*
X102622533Y-98006722D01*
X102457438Y-98117035D01*
X102317035Y-98257438D01*
X102206722Y-98422533D01*
X102130737Y-98605977D01*
X102100000Y-98760502D01*
X102069263Y-98605977D01*
X101993278Y-98422533D01*
X101882965Y-98257438D01*
X101742562Y-98117035D01*
X101577467Y-98006722D01*
X101394023Y-97930737D01*
X101199279Y-97892000D01*
X101000721Y-97892000D01*
X100805977Y-97930737D01*
X100622533Y-98006722D01*
X100457438Y-98117035D01*
X100317035Y-98257438D01*
X100206722Y-98422533D01*
X100130737Y-98605977D01*
X100100000Y-98760502D01*
X100069263Y-98605977D01*
X99993278Y-98422533D01*
X99882965Y-98257438D01*
X99742562Y-98117035D01*
X99577467Y-98006722D01*
X99394023Y-97930737D01*
X99199279Y-97892000D01*
X99000721Y-97892000D01*
X98805977Y-97930737D01*
X98622533Y-98006722D01*
X98457438Y-98117035D01*
X98317035Y-98257438D01*
X98206722Y-98422533D01*
X98130737Y-98605977D01*
X98092000Y-98800721D01*
X98092000Y-98838614D01*
X98085762Y-98791231D01*
X98044682Y-98637919D01*
X97994732Y-98517329D01*
X97915370Y-98379870D01*
X97835910Y-98276317D01*
X97723683Y-98164090D01*
X97620130Y-98084630D01*
X97482671Y-98005268D01*
X97362081Y-97955318D01*
X97208769Y-97914238D01*
X97079359Y-97897201D01*
X97000000Y-97892000D01*
X85000000Y-97892000D01*
X84920641Y-97897201D01*
X84791231Y-97914238D01*
X84637919Y-97955318D01*
X84517329Y-98005268D01*
X84379870Y-98084630D01*
X84276317Y-98164090D01*
X84164090Y-98276317D01*
X84084630Y-98379870D01*
X84005268Y-98517329D01*
X83955318Y-98637919D01*
X83914238Y-98791231D01*
X83897201Y-98920641D01*
X83892000Y-99000000D01*
X83892000Y-109900000D01*
X83897201Y-109979359D01*
X83914238Y-110108769D01*
X83955318Y-110262081D01*
X83967711Y-110292000D01*
X80100000Y-110292000D01*
X79981388Y-110303682D01*
X79867332Y-110338280D01*
X79796621Y-110367569D01*
X79691500Y-110423757D01*
X79599366Y-110499370D01*
X79523754Y-110591505D01*
X79467569Y-110696621D01*
X79438280Y-110767332D01*
X79403683Y-110881385D01*
X79392000Y-111000000D01*
X79392000Y-126635570D01*
X79342729Y-126727749D01*
X79302245Y-126861208D01*
X79288575Y-127000000D01*
X79292000Y-127034774D01*
X79292001Y-133706736D01*
X77706738Y-135292000D01*
X73247729Y-135292000D01*
X71370340Y-133794915D01*
X69416478Y-132037508D01*
X67570288Y-130167325D01*
X65944905Y-128312631D01*
X68657730Y-128312631D01*
X68657730Y-128855909D01*
X68763718Y-129388749D01*
X68971622Y-129890673D01*
X69273451Y-130342393D01*
X69657607Y-130726549D01*
X70109327Y-131028378D01*
X70611251Y-131236282D01*
X71144091Y-131342270D01*
X71687369Y-131342270D01*
X72220209Y-131236282D01*
X72722133Y-131028378D01*
X73173853Y-130726549D01*
X73558009Y-130342393D01*
X73859838Y-129890673D01*
X74067742Y-129388749D01*
X74173730Y-128855909D01*
X74173730Y-128312631D01*
X74067742Y-127779791D01*
X73859838Y-127277867D01*
X73558009Y-126826147D01*
X73173853Y-126441991D01*
X72722133Y-126140162D01*
X72220209Y-125932258D01*
X71687369Y-125826270D01*
X71144091Y-125826270D01*
X70611251Y-125932258D01*
X70109327Y-126140162D01*
X69657607Y-126441991D01*
X69273451Y-126826147D01*
X68971622Y-127277867D01*
X68763718Y-127779791D01*
X68657730Y-128312631D01*
X65944905Y-128312631D01*
X65838241Y-128190919D01*
X64226472Y-126115292D01*
X62740649Y-123947744D01*
X61385971Y-121695863D01*
X60167240Y-119367625D01*
X59088726Y-116971193D01*
X58154241Y-114515032D01*
X57367056Y-112007740D01*
X56729967Y-109458220D01*
X56245196Y-106875374D01*
X55914458Y-104268330D01*
X55738916Y-101646259D01*
X55719190Y-99018403D01*
X55855346Y-96393997D01*
X56146908Y-93782285D01*
X56592845Y-91192467D01*
X56661111Y-90900721D01*
X93492000Y-90900721D01*
X93492000Y-91099279D01*
X93530737Y-91294023D01*
X93606722Y-91477467D01*
X93717035Y-91642562D01*
X93857438Y-91782965D01*
X94022533Y-91893278D01*
X94205977Y-91969263D01*
X94400721Y-92008000D01*
X94599279Y-92008000D01*
X94794023Y-91969263D01*
X94977467Y-91893278D01*
X95003646Y-91875785D01*
X95004662Y-91875289D01*
X95056449Y-91850092D01*
X95092106Y-91833604D01*
X95113819Y-91824621D01*
X95125742Y-91820514D01*
X95135116Y-91818035D01*
X95150444Y-91815196D01*
X95178812Y-91811916D01*
X95224816Y-91809182D01*
X95295105Y-91808000D01*
X97760320Y-91808000D01*
X97800000Y-91811908D01*
X97839680Y-91808000D01*
X97839688Y-91808000D01*
X97958396Y-91796308D01*
X98110704Y-91750106D01*
X98251072Y-91675078D01*
X98374106Y-91574106D01*
X98399411Y-91543272D01*
X99634684Y-90308000D01*
X113465317Y-90308000D01*
X115192000Y-92034685D01*
X115192001Y-107465315D01*
X114456727Y-108200590D01*
X114425894Y-108225894D01*
X114324922Y-108348929D01*
X114249894Y-108489297D01*
X114223127Y-108577537D01*
X114203692Y-108641604D01*
X114202619Y-108652503D01*
X114192000Y-108760313D01*
X114192000Y-108760320D01*
X114188092Y-108800000D01*
X114192000Y-108839681D01*
X114192001Y-110860303D01*
X114192000Y-110860313D01*
X114192000Y-111592000D01*
X114034684Y-111592000D01*
X111008000Y-108565317D01*
X111008000Y-107539679D01*
X111011908Y-107499999D01*
X111008000Y-107460319D01*
X111008000Y-107460312D01*
X110996308Y-107341604D01*
X110995519Y-107339001D01*
X110985555Y-107306154D01*
X110950106Y-107189296D01*
X110875078Y-107048928D01*
X110774106Y-106925894D01*
X110769297Y-106921948D01*
X110764513Y-106913939D01*
X110763550Y-106912077D01*
X110704659Y-106769901D01*
X110605289Y-106621184D01*
X110478816Y-106494711D01*
X110330099Y-106395341D01*
X110164854Y-106326894D01*
X109989430Y-106292000D01*
X109810570Y-106292000D01*
X109635146Y-106326894D01*
X109469901Y-106395341D01*
X109321184Y-106494711D01*
X109194711Y-106621184D01*
X109095341Y-106769901D01*
X109026894Y-106935146D01*
X108992000Y-107110570D01*
X108992000Y-107289430D01*
X109026894Y-107464854D01*
X109095341Y-107630099D01*
X109194711Y-107778816D01*
X109321184Y-107905289D01*
X109392000Y-107952607D01*
X109392001Y-108860310D01*
X109388092Y-108900000D01*
X109403692Y-109058396D01*
X109430602Y-109147104D01*
X109449895Y-109210704D01*
X109524923Y-109351072D01*
X109625895Y-109474106D01*
X109656723Y-109499406D01*
X113100594Y-112943278D01*
X113125894Y-112974106D01*
X113248928Y-113075078D01*
X113389296Y-113150106D01*
X113541604Y-113196308D01*
X113660312Y-113208000D01*
X113660321Y-113208000D01*
X113699999Y-113211908D01*
X113739677Y-113208000D01*
X114192000Y-113208000D01*
X114192001Y-113709556D01*
X114192000Y-113709563D01*
X114191954Y-113772888D01*
X114191579Y-113823209D01*
X114190679Y-113859971D01*
X114189421Y-113883031D01*
X114189268Y-113884562D01*
X114126894Y-114035146D01*
X114092000Y-114210570D01*
X114092000Y-114389430D01*
X114126894Y-114564854D01*
X114195341Y-114730099D01*
X114294711Y-114878816D01*
X114421184Y-115005289D01*
X114569901Y-115104659D01*
X114735146Y-115173106D01*
X114910570Y-115208000D01*
X115089430Y-115208000D01*
X115264854Y-115173106D01*
X115430099Y-115104659D01*
X115578816Y-115005289D01*
X115705289Y-114878816D01*
X115804659Y-114730099D01*
X115873106Y-114564854D01*
X115908000Y-114389430D01*
X115908000Y-114210570D01*
X115873106Y-114035146D01*
X115810731Y-113884559D01*
X115810578Y-113883031D01*
X115809320Y-113859971D01*
X115808420Y-113823209D01*
X115808045Y-113772891D01*
X115808000Y-113709572D01*
X115808000Y-112439688D01*
X115811909Y-112400000D01*
X115808000Y-112360312D01*
X115808000Y-109134684D01*
X116543283Y-108399402D01*
X116574106Y-108374106D01*
X116599402Y-108343283D01*
X116599406Y-108343279D01*
X116634435Y-108300595D01*
X116675078Y-108251072D01*
X116750106Y-108110704D01*
X116796308Y-107958396D01*
X116808000Y-107839688D01*
X116808000Y-107839680D01*
X116811908Y-107800000D01*
X116808000Y-107760320D01*
X116808000Y-107376399D01*
X121142000Y-107376399D01*
X121142000Y-107663601D01*
X121198030Y-107945283D01*
X121307937Y-108210622D01*
X121467497Y-108449421D01*
X121670579Y-108652503D01*
X121909378Y-108812063D01*
X122174717Y-108921970D01*
X122456399Y-108978000D01*
X122743601Y-108978000D01*
X123025283Y-108921970D01*
X123290622Y-108812063D01*
X123529421Y-108652503D01*
X123732503Y-108449421D01*
X123892063Y-108210622D01*
X124001970Y-107945283D01*
X124058000Y-107663601D01*
X124058000Y-107376399D01*
X124001970Y-107094717D01*
X123892063Y-106829378D01*
X123732503Y-106590579D01*
X123529421Y-106387497D01*
X123314910Y-106244166D01*
X123488852Y-106135736D01*
X123697246Y-105940122D01*
X123863473Y-105707611D01*
X123981146Y-105447139D01*
X124007903Y-105358910D01*
X123896889Y-105134000D01*
X122754000Y-105134000D01*
X122754000Y-105154000D01*
X122446000Y-105154000D01*
X122446000Y-105134000D01*
X121303111Y-105134000D01*
X121192097Y-105358910D01*
X121218854Y-105447139D01*
X121336527Y-105707611D01*
X121502754Y-105940122D01*
X121711148Y-106135736D01*
X121885090Y-106244166D01*
X121670579Y-106387497D01*
X121467497Y-106590579D01*
X121307937Y-106829378D01*
X121198030Y-107094717D01*
X121142000Y-107376399D01*
X116808000Y-107376399D01*
X116808000Y-91739680D01*
X116811908Y-91700000D01*
X116808000Y-91660320D01*
X116808000Y-91660312D01*
X116797680Y-91555536D01*
X116796308Y-91541603D01*
X116750106Y-91389295D01*
X116704180Y-91303375D01*
X116675078Y-91248928D01*
X116620327Y-91182214D01*
X116599406Y-91156721D01*
X116599402Y-91156717D01*
X116574106Y-91125894D01*
X116543284Y-91100599D01*
X114399411Y-88956728D01*
X114374106Y-88925894D01*
X114251072Y-88824922D01*
X114110704Y-88749894D01*
X113958396Y-88703692D01*
X113839688Y-88692000D01*
X113839680Y-88692000D01*
X113800000Y-88688092D01*
X113760320Y-88692000D01*
X99339679Y-88692000D01*
X99299999Y-88688092D01*
X99260319Y-88692000D01*
X99260312Y-88692000D01*
X99156879Y-88702187D01*
X99141603Y-88703692D01*
X99095401Y-88717707D01*
X98989296Y-88749894D01*
X98848928Y-88824922D01*
X98725894Y-88925894D01*
X98700594Y-88956722D01*
X97465317Y-90192000D01*
X95295112Y-90192000D01*
X95224817Y-90190818D01*
X95178812Y-90188083D01*
X95150444Y-90184803D01*
X95135116Y-90181964D01*
X95125742Y-90179485D01*
X95113819Y-90175378D01*
X95092106Y-90166395D01*
X95056449Y-90149907D01*
X95005008Y-90124879D01*
X95003640Y-90124210D01*
X94977467Y-90106722D01*
X94794023Y-90030737D01*
X94599279Y-89992000D01*
X94400721Y-89992000D01*
X94205977Y-90030737D01*
X94022533Y-90106722D01*
X93857438Y-90217035D01*
X93717035Y-90357438D01*
X93606722Y-90522533D01*
X93530737Y-90705977D01*
X93492000Y-90900721D01*
X56661111Y-90900721D01*
X57191595Y-88633643D01*
X57941042Y-86114840D01*
X58838553Y-83644910D01*
X59880966Y-81232559D01*
X60098818Y-80800721D01*
X102892000Y-80800721D01*
X102892000Y-80999279D01*
X102930737Y-81194023D01*
X103006722Y-81377467D01*
X103021778Y-81400000D01*
X103006722Y-81422533D01*
X102930737Y-81605977D01*
X102892000Y-81800721D01*
X102892000Y-81999279D01*
X102930737Y-82194023D01*
X103006722Y-82377467D01*
X103055187Y-82450000D01*
X103006722Y-82522533D01*
X102930737Y-82705977D01*
X102892000Y-82900721D01*
X102892000Y-83099279D01*
X102930737Y-83294023D01*
X103006722Y-83477467D01*
X103055187Y-83550000D01*
X103006722Y-83622533D01*
X102930737Y-83805977D01*
X102892000Y-84000721D01*
X102892000Y-84199279D01*
X102930737Y-84394023D01*
X103006722Y-84577467D01*
X103055187Y-84650000D01*
X103006722Y-84722533D01*
X102930737Y-84905977D01*
X102892000Y-85100721D01*
X102892000Y-85299279D01*
X102930737Y-85494023D01*
X103006722Y-85677467D01*
X103055187Y-85750000D01*
X103006722Y-85822533D01*
X102930737Y-86005977D01*
X102892000Y-86200721D01*
X102892000Y-86399279D01*
X102930737Y-86594023D01*
X103006722Y-86777467D01*
X103055187Y-86850000D01*
X103006722Y-86922533D01*
X102930737Y-87105977D01*
X102892000Y-87300721D01*
X102892000Y-87499279D01*
X102930737Y-87694023D01*
X103006722Y-87877467D01*
X103117035Y-88042562D01*
X103257438Y-88182965D01*
X103422533Y-88293278D01*
X103605977Y-88369263D01*
X103800721Y-88408000D01*
X103999279Y-88408000D01*
X104194023Y-88369263D01*
X104377467Y-88293278D01*
X104542562Y-88182965D01*
X104682965Y-88042562D01*
X104793278Y-87877467D01*
X104822052Y-87808000D01*
X104899279Y-87808000D01*
X105094023Y-87769263D01*
X105277467Y-87693278D01*
X105442562Y-87582965D01*
X105582965Y-87442562D01*
X105693278Y-87277467D01*
X105769263Y-87094023D01*
X105808000Y-86899279D01*
X105808000Y-86700721D01*
X105769263Y-86505977D01*
X105693278Y-86322533D01*
X105644813Y-86250000D01*
X105693278Y-86177467D01*
X105769263Y-85994023D01*
X105808000Y-85799279D01*
X105808000Y-85600721D01*
X105769263Y-85405977D01*
X105693278Y-85222533D01*
X105678222Y-85200000D01*
X105693278Y-85177467D01*
X105769263Y-84994023D01*
X105808000Y-84799279D01*
X105808000Y-84600721D01*
X105769263Y-84405977D01*
X105693278Y-84222533D01*
X105611404Y-84100000D01*
X105693278Y-83977467D01*
X105769263Y-83794023D01*
X105808000Y-83599279D01*
X105808000Y-83400721D01*
X105769263Y-83205977D01*
X105693278Y-83022533D01*
X105678222Y-83000000D01*
X105693278Y-82977467D01*
X105769263Y-82794023D01*
X105808000Y-82599279D01*
X105808000Y-82400721D01*
X105769263Y-82205977D01*
X105693278Y-82022533D01*
X105644813Y-81950000D01*
X105693278Y-81877467D01*
X105769263Y-81694023D01*
X105808000Y-81499279D01*
X105808000Y-81300721D01*
X105769263Y-81105977D01*
X105693278Y-80922533D01*
X105644813Y-80850000D01*
X105693278Y-80777467D01*
X105769263Y-80594023D01*
X105808000Y-80399279D01*
X105808000Y-80200721D01*
X105769263Y-80005977D01*
X105693278Y-79822533D01*
X105582965Y-79657438D01*
X105442562Y-79517035D01*
X105277467Y-79406722D01*
X105094023Y-79330737D01*
X104899279Y-79292000D01*
X104700721Y-79292000D01*
X104505977Y-79330737D01*
X104322533Y-79406722D01*
X104157438Y-79517035D01*
X104017035Y-79657438D01*
X103906722Y-79822533D01*
X103877948Y-79892000D01*
X103800721Y-79892000D01*
X103605977Y-79930737D01*
X103422533Y-80006722D01*
X103257438Y-80117035D01*
X103117035Y-80257438D01*
X103006722Y-80422533D01*
X102930737Y-80605977D01*
X102892000Y-80800721D01*
X60098818Y-80800721D01*
X61064600Y-78886300D01*
X62385318Y-76614333D01*
X63838442Y-74424711D01*
X65418882Y-72325101D01*
X66422930Y-71144091D01*
X68657730Y-71144091D01*
X68657730Y-71687369D01*
X68763718Y-72220209D01*
X68971622Y-72722133D01*
X69273451Y-73173853D01*
X69657607Y-73558009D01*
X70109327Y-73859838D01*
X70611251Y-74067742D01*
X71144091Y-74173730D01*
X71687369Y-74173730D01*
X72220209Y-74067742D01*
X72722133Y-73859838D01*
X73173853Y-73558009D01*
X73558009Y-73173853D01*
X73859838Y-72722133D01*
X74067742Y-72220209D01*
X74173730Y-71687369D01*
X74173730Y-71144091D01*
X74067742Y-70611251D01*
X73859838Y-70109327D01*
X73558009Y-69657607D01*
X73173853Y-69273451D01*
X72722133Y-68971622D01*
X72220209Y-68763718D01*
X71687369Y-68657730D01*
X71144091Y-68657730D01*
X70611251Y-68763718D01*
X70109327Y-68971622D01*
X69657607Y-69273451D01*
X69273451Y-69657607D01*
X68971622Y-70109327D01*
X68763718Y-70611251D01*
X68657730Y-71144091D01*
X66422930Y-71144091D01*
X67121031Y-70322952D01*
X68938950Y-68425249D01*
X70866205Y-66638709D01*
X72194881Y-65546152D01*
X101392000Y-65546152D01*
X101392000Y-66453848D01*
X101569083Y-67344104D01*
X101916443Y-68182706D01*
X102420733Y-68937429D01*
X103062571Y-69579267D01*
X103817294Y-70083557D01*
X104655896Y-70430917D01*
X105546152Y-70608000D01*
X106453848Y-70608000D01*
X107344104Y-70430917D01*
X108182706Y-70083557D01*
X108396153Y-69940936D01*
X108536593Y-69866004D01*
X108561519Y-69851941D01*
X109092012Y-69535961D01*
X109098962Y-69531758D01*
X109630733Y-69205315D01*
X110136204Y-68906292D01*
X110585233Y-68671390D01*
X110934323Y-68535040D01*
X111055313Y-68516915D01*
X111092001Y-68785677D01*
X111092000Y-75729122D01*
X111088092Y-75768802D01*
X111092000Y-75808482D01*
X111092000Y-75808489D01*
X111103692Y-75927197D01*
X111149894Y-76079505D01*
X111224922Y-76219873D01*
X111325894Y-76342908D01*
X111356728Y-76368213D01*
X115192001Y-80203488D01*
X115192000Y-87460320D01*
X115188092Y-87500000D01*
X115192000Y-87539680D01*
X115192000Y-87539687D01*
X115201152Y-87632604D01*
X115203692Y-87658396D01*
X115214274Y-87693278D01*
X115249894Y-87810703D01*
X115324922Y-87951071D01*
X115425894Y-88074106D01*
X115456727Y-88099411D01*
X117032000Y-89674685D01*
X117031999Y-104000319D01*
X117028091Y-104039999D01*
X117031999Y-104079679D01*
X117031999Y-104079686D01*
X117041652Y-104177688D01*
X117043691Y-104198395D01*
X117049780Y-104218468D01*
X117089893Y-104350702D01*
X117164921Y-104491070D01*
X117265893Y-104614105D01*
X117296727Y-104639410D01*
X118866427Y-106209112D01*
X118915297Y-106259653D01*
X118945893Y-106294116D01*
X118963648Y-106316513D01*
X118972459Y-106329331D01*
X118977344Y-106337729D01*
X118982872Y-106349065D01*
X118991858Y-106370734D01*
X119005451Y-106407709D01*
X119023978Y-106461352D01*
X119024597Y-106463155D01*
X119030737Y-106494023D01*
X119106722Y-106677467D01*
X119217035Y-106842562D01*
X119357438Y-106982965D01*
X119522533Y-107093278D01*
X119705977Y-107169263D01*
X119900721Y-107208000D01*
X120099279Y-107208000D01*
X120294023Y-107169263D01*
X120477467Y-107093278D01*
X120642562Y-106982965D01*
X120782965Y-106842562D01*
X120893278Y-106677467D01*
X120969263Y-106494023D01*
X121008000Y-106299279D01*
X121008000Y-106100721D01*
X120969263Y-105905977D01*
X120893278Y-105722533D01*
X120782965Y-105557438D01*
X120642562Y-105417035D01*
X120477467Y-105306722D01*
X120294023Y-105230737D01*
X120263155Y-105224597D01*
X120261352Y-105223978D01*
X120207709Y-105205451D01*
X120170734Y-105191858D01*
X120149065Y-105182872D01*
X120137729Y-105177344D01*
X120129331Y-105172459D01*
X120116513Y-105163648D01*
X120094116Y-105145893D01*
X120059653Y-105115297D01*
X120009112Y-105066427D01*
X118647999Y-103705316D01*
X118647999Y-102818910D01*
X121192097Y-102818910D01*
X121218854Y-102907139D01*
X121336527Y-103167611D01*
X121502754Y-103400122D01*
X121711148Y-103595736D01*
X121894449Y-103710000D01*
X121711148Y-103824264D01*
X121502754Y-104019878D01*
X121336527Y-104252389D01*
X121218854Y-104512861D01*
X121192097Y-104601090D01*
X121303111Y-104826000D01*
X122446000Y-104826000D01*
X122446000Y-102594000D01*
X122754000Y-102594000D01*
X122754000Y-104826000D01*
X123896889Y-104826000D01*
X124007903Y-104601090D01*
X123981146Y-104512861D01*
X123863473Y-104252389D01*
X123697246Y-104019878D01*
X123488852Y-103824264D01*
X123305551Y-103710000D01*
X123488852Y-103595736D01*
X123697246Y-103400122D01*
X123863473Y-103167611D01*
X123981146Y-102907139D01*
X124007903Y-102818910D01*
X123896889Y-102594000D01*
X122754000Y-102594000D01*
X122446000Y-102594000D01*
X121303111Y-102594000D01*
X121192097Y-102818910D01*
X118647999Y-102818910D01*
X118647999Y-99050000D01*
X121139059Y-99050000D01*
X121139059Y-100750000D01*
X121150798Y-100869189D01*
X121185564Y-100983797D01*
X121242021Y-101089421D01*
X121317999Y-101182001D01*
X121410579Y-101257979D01*
X121516203Y-101314436D01*
X121630811Y-101349202D01*
X121640908Y-101350196D01*
X121502754Y-101479878D01*
X121336527Y-101712389D01*
X121218854Y-101972861D01*
X121192097Y-102061090D01*
X121303111Y-102286000D01*
X122446000Y-102286000D01*
X122446000Y-102266000D01*
X122754000Y-102266000D01*
X122754000Y-102286000D01*
X123896889Y-102286000D01*
X124007903Y-102061090D01*
X123981146Y-101972861D01*
X123863473Y-101712389D01*
X123697246Y-101479878D01*
X123559092Y-101350196D01*
X123569189Y-101349202D01*
X123683797Y-101314436D01*
X123789421Y-101257979D01*
X123882001Y-101182001D01*
X123957979Y-101089421D01*
X124014436Y-100983797D01*
X124049202Y-100869189D01*
X124060941Y-100750000D01*
X124060941Y-99050000D01*
X124049202Y-98930811D01*
X124014436Y-98816203D01*
X123957979Y-98710579D01*
X123882001Y-98617999D01*
X123789421Y-98542021D01*
X123683797Y-98485564D01*
X123569189Y-98450798D01*
X123450000Y-98439059D01*
X121750000Y-98439059D01*
X121630811Y-98450798D01*
X121516203Y-98485564D01*
X121410579Y-98542021D01*
X121317999Y-98617999D01*
X121242021Y-98710579D01*
X121185564Y-98816203D01*
X121150798Y-98930811D01*
X121139059Y-99050000D01*
X118647999Y-99050000D01*
X118647999Y-89379679D01*
X118651907Y-89339999D01*
X118647999Y-89300319D01*
X118647999Y-89300311D01*
X118636307Y-89181603D01*
X118590105Y-89029295D01*
X118515077Y-88888927D01*
X118446651Y-88805550D01*
X118439405Y-88796720D01*
X118439401Y-88796716D01*
X118414105Y-88765893D01*
X118383282Y-88740597D01*
X116808000Y-87165317D01*
X116808000Y-79908482D01*
X116811908Y-79868802D01*
X116808000Y-79829122D01*
X116808000Y-79829114D01*
X116796308Y-79710406D01*
X116750106Y-79558098D01*
X116675078Y-79417730D01*
X116632641Y-79366020D01*
X116599406Y-79325523D01*
X116599402Y-79325519D01*
X116574106Y-79294696D01*
X116543283Y-79269400D01*
X112708000Y-75434119D01*
X112708000Y-71144091D01*
X125826270Y-71144091D01*
X125826270Y-71687369D01*
X125932258Y-72220209D01*
X126140162Y-72722133D01*
X126441991Y-73173853D01*
X126826147Y-73558009D01*
X127277867Y-73859838D01*
X127779791Y-74067742D01*
X128312631Y-74173730D01*
X128855909Y-74173730D01*
X129388749Y-74067742D01*
X129890673Y-73859838D01*
X130342393Y-73558009D01*
X130726549Y-73173853D01*
X131028378Y-72722133D01*
X131236282Y-72220209D01*
X131342270Y-71687369D01*
X131342270Y-71144091D01*
X131236282Y-70611251D01*
X131028378Y-70109327D01*
X130726549Y-69657607D01*
X130342393Y-69273451D01*
X129890673Y-68971622D01*
X129388749Y-68763718D01*
X128855909Y-68657730D01*
X128312631Y-68657730D01*
X127779791Y-68763718D01*
X127277867Y-68971622D01*
X126826147Y-69273451D01*
X126441991Y-69657607D01*
X126140162Y-70109327D01*
X125932258Y-70611251D01*
X125826270Y-71144091D01*
X112708000Y-71144091D01*
X112708000Y-67139680D01*
X112711908Y-67100000D01*
X112708000Y-67060320D01*
X112708000Y-67060312D01*
X112696308Y-66941604D01*
X112690224Y-66921548D01*
X112650106Y-66789295D01*
X112606178Y-66707113D01*
X112575078Y-66648928D01*
X112532669Y-66597253D01*
X112334125Y-65811664D01*
X112305147Y-65725019D01*
X112019441Y-65045393D01*
X111971777Y-64954402D01*
X111596609Y-64365340D01*
X111535123Y-64284574D01*
X111066994Y-63765931D01*
X111003852Y-63705370D01*
X110439265Y-63236998D01*
X110385791Y-63197370D01*
X109721244Y-62759126D01*
X109682636Y-62735676D01*
X108914633Y-62307411D01*
X108890896Y-62294853D01*
X108323626Y-62010603D01*
X108182706Y-61916443D01*
X107344104Y-61569083D01*
X106453848Y-61392000D01*
X105546152Y-61392000D01*
X104655896Y-61569083D01*
X103817294Y-61916443D01*
X103062571Y-62420733D01*
X102420733Y-63062571D01*
X101916443Y-63817294D01*
X101569083Y-64655896D01*
X101392000Y-65546152D01*
X72194881Y-65546152D01*
X72896022Y-64969612D01*
X75021256Y-63423832D01*
X77234435Y-62006807D01*
X79527730Y-60723546D01*
X81893118Y-59578540D01*
X84322242Y-58575834D01*
X86806548Y-57718958D01*
X89337304Y-57010924D01*
X91905599Y-56454227D01*
X94502394Y-56050824D01*
X97118532Y-55802140D01*
X99744821Y-55709046D01*
X102372012Y-55771873D01*
G37*
%TD.AperFunction*%
%TD*%
D20*
%TO.N,/HO*%
X98054370Y-109832834D02*
X98043272Y-109853020D01*
X98025205Y-109881340D01*
X98006132Y-109910160D01*
X98005939Y-109910461D01*
X97987843Y-109939555D01*
X97987360Y-109940403D01*
X97972086Y-109969771D01*
X97971398Y-109971345D01*
X97960742Y-110001065D01*
X97960121Y-110003580D01*
X97955876Y-110033729D01*
X97955857Y-110037127D01*
X97959818Y-110067782D01*
X97960818Y-110071337D01*
X97974780Y-110102574D01*
X97976494Y-110105371D01*
X97995077Y-110128385D01*
X97729910Y-110393552D01*
X97683629Y-110340638D01*
X97645363Y-110280813D01*
X97620148Y-110223083D01*
X97604710Y-110166704D01*
X97595930Y-110110987D01*
X97590721Y-110055278D01*
X97585981Y-109999570D01*
X97585916Y-109998969D01*
X97578459Y-109943029D01*
X97578228Y-109941781D01*
X97564855Y-109885294D01*
X97564323Y-109883589D01*
X97544791Y-109833707D01*
X97800000Y-109568322D01*
X98054370Y-109832834D01*
%TA.AperFunction,Conductor*%
D18*
G36*
X98054370Y-109832834D02*
G01*
X98043272Y-109853020D01*
X98025205Y-109881340D01*
X98006132Y-109910160D01*
X98005939Y-109910461D01*
X97987843Y-109939555D01*
X97987360Y-109940403D01*
X97972086Y-109969771D01*
X97971398Y-109971345D01*
X97960742Y-110001065D01*
X97960121Y-110003580D01*
X97955876Y-110033729D01*
X97955857Y-110037127D01*
X97959818Y-110067782D01*
X97960818Y-110071337D01*
X97974780Y-110102574D01*
X97976494Y-110105371D01*
X97995077Y-110128385D01*
X97729910Y-110393552D01*
X97683629Y-110340638D01*
X97645363Y-110280813D01*
X97620148Y-110223083D01*
X97604710Y-110166704D01*
X97595930Y-110110987D01*
X97590721Y-110055278D01*
X97585981Y-109999570D01*
X97585916Y-109998969D01*
X97578459Y-109943029D01*
X97578228Y-109941781D01*
X97564855Y-109885294D01*
X97564323Y-109883589D01*
X97544791Y-109833707D01*
X97800000Y-109568322D01*
X98054370Y-109832834D01*
G37*
%TD.AperFunction*%
%TD*%
D20*
%TO.N,/HO*%
X104525604Y-110485613D02*
X104269211Y-110749169D01*
X104232782Y-110734030D01*
X104232110Y-110733773D01*
X104190640Y-110719232D01*
X104189839Y-110718981D01*
X104149910Y-110707884D01*
X104149048Y-110707676D01*
X104109277Y-110699561D01*
X104108456Y-110699422D01*
X104067460Y-110693825D01*
X104066770Y-110693750D01*
X104023166Y-110690208D01*
X104022657Y-110690177D01*
X103975064Y-110688229D01*
X103974741Y-110688220D01*
X103921775Y-110687401D01*
X103921611Y-110687399D01*
X103861890Y-110687247D01*
X103861848Y-110687247D01*
X103806700Y-110687290D01*
X103806700Y-110312688D01*
X103859674Y-110312638D01*
X103859770Y-110312638D01*
X103917670Y-110312146D01*
X103917904Y-110312141D01*
X103969316Y-110310756D01*
X103969726Y-110310739D01*
X104015926Y-110307998D01*
X104016536Y-110307947D01*
X104058797Y-110303387D01*
X104059597Y-110303275D01*
X104099197Y-110296435D01*
X104100124Y-110296239D01*
X104138336Y-110286657D01*
X104139288Y-110286378D01*
X104177388Y-110273589D01*
X104178256Y-110273262D01*
X104217519Y-110256806D01*
X104218232Y-110256481D01*
X104252216Y-110239704D01*
X104525604Y-110485613D01*
%TA.AperFunction,Conductor*%
D18*
G36*
X104525604Y-110485613D02*
G01*
X104269211Y-110749169D01*
X104232782Y-110734030D01*
X104232110Y-110733773D01*
X104190640Y-110719232D01*
X104189839Y-110718981D01*
X104149910Y-110707884D01*
X104149048Y-110707676D01*
X104109277Y-110699561D01*
X104108456Y-110699422D01*
X104067460Y-110693825D01*
X104066770Y-110693750D01*
X104023166Y-110690208D01*
X104022657Y-110690177D01*
X103975064Y-110688229D01*
X103974741Y-110688220D01*
X103921775Y-110687401D01*
X103921611Y-110687399D01*
X103861890Y-110687247D01*
X103861848Y-110687247D01*
X103806700Y-110687290D01*
X103806700Y-110312688D01*
X103859674Y-110312638D01*
X103859770Y-110312638D01*
X103917670Y-110312146D01*
X103917904Y-110312141D01*
X103969316Y-110310756D01*
X103969726Y-110310739D01*
X104015926Y-110307998D01*
X104016536Y-110307947D01*
X104058797Y-110303387D01*
X104059597Y-110303275D01*
X104099197Y-110296435D01*
X104100124Y-110296239D01*
X104138336Y-110286657D01*
X104139288Y-110286378D01*
X104177388Y-110273589D01*
X104178256Y-110273262D01*
X104217519Y-110256806D01*
X104218232Y-110256481D01*
X104252216Y-110239704D01*
X104525604Y-110485613D01*
G37*
%TD.AperFunction*%
%TD*%
D20*
%TO.N,/LO*%
X98367650Y-101960740D02*
X98368321Y-101961023D01*
X98407829Y-101976336D01*
X98408645Y-101976620D01*
X98446819Y-101988499D01*
X98447713Y-101988742D01*
X98485857Y-101997624D01*
X98486726Y-101997795D01*
X98526144Y-102004116D01*
X98526893Y-102004213D01*
X98568890Y-102008407D01*
X98569460Y-102008451D01*
X98615339Y-102010955D01*
X98615720Y-102010970D01*
X98666784Y-102012219D01*
X98667000Y-102012223D01*
X98724555Y-102012653D01*
X98724641Y-102012653D01*
X98777300Y-102012691D01*
X98777300Y-102387309D01*
X98724641Y-102387346D01*
X98724555Y-102387346D01*
X98667000Y-102387776D01*
X98666784Y-102387780D01*
X98615720Y-102389029D01*
X98615339Y-102389044D01*
X98569460Y-102391548D01*
X98568890Y-102391592D01*
X98526893Y-102395786D01*
X98526144Y-102395883D01*
X98486726Y-102402204D01*
X98485857Y-102402375D01*
X98447713Y-102411257D01*
X98446819Y-102411500D01*
X98408645Y-102423379D01*
X98407829Y-102423663D01*
X98368321Y-102438976D01*
X98367650Y-102439259D01*
X98333353Y-102454869D01*
X98068322Y-102200000D01*
X98333354Y-101945131D01*
X98367650Y-101960740D01*
%TA.AperFunction,Conductor*%
D18*
G36*
X98367650Y-101960740D02*
G01*
X98368321Y-101961023D01*
X98407829Y-101976336D01*
X98408645Y-101976620D01*
X98446819Y-101988499D01*
X98447713Y-101988742D01*
X98485857Y-101997624D01*
X98486726Y-101997795D01*
X98526144Y-102004116D01*
X98526893Y-102004213D01*
X98568890Y-102008407D01*
X98569460Y-102008451D01*
X98615339Y-102010955D01*
X98615720Y-102010970D01*
X98666784Y-102012219D01*
X98667000Y-102012223D01*
X98724555Y-102012653D01*
X98724641Y-102012653D01*
X98777300Y-102012691D01*
X98777300Y-102387309D01*
X98724641Y-102387346D01*
X98724555Y-102387346D01*
X98667000Y-102387776D01*
X98666784Y-102387780D01*
X98615720Y-102389029D01*
X98615339Y-102389044D01*
X98569460Y-102391548D01*
X98568890Y-102391592D01*
X98526893Y-102395786D01*
X98526144Y-102395883D01*
X98486726Y-102402204D01*
X98485857Y-102402375D01*
X98447713Y-102411257D01*
X98446819Y-102411500D01*
X98408645Y-102423379D01*
X98407829Y-102423663D01*
X98368321Y-102438976D01*
X98367650Y-102439259D01*
X98333353Y-102454869D01*
X98068322Y-102200000D01*
X98333354Y-101945131D01*
X98367650Y-101960740D01*
G37*
%TD.AperFunction*%
%TD*%
D20*
%TO.N,/LO*%
X111516370Y-105459361D02*
X111554636Y-105519186D01*
X111579851Y-105576916D01*
X111595289Y-105633295D01*
X111604069Y-105689012D01*
X111609278Y-105744721D01*
X111614018Y-105800429D01*
X111614083Y-105801030D01*
X111621540Y-105856970D01*
X111621771Y-105858218D01*
X111635144Y-105914705D01*
X111635676Y-105916410D01*
X111655209Y-105966293D01*
X111400000Y-106231678D01*
X111145630Y-105967165D01*
X111156723Y-105946985D01*
X111174794Y-105918659D01*
X111193867Y-105889839D01*
X111194060Y-105889538D01*
X111212156Y-105860444D01*
X111212639Y-105859596D01*
X111227913Y-105830228D01*
X111228601Y-105828654D01*
X111239257Y-105798934D01*
X111239878Y-105796419D01*
X111244123Y-105766270D01*
X111244142Y-105762872D01*
X111240181Y-105732217D01*
X111239181Y-105728662D01*
X111225219Y-105697425D01*
X111223505Y-105694628D01*
X111204923Y-105671615D01*
X111470090Y-105406448D01*
X111516370Y-105459361D01*
%TA.AperFunction,Conductor*%
D18*
G36*
X111516370Y-105459361D02*
G01*
X111554636Y-105519186D01*
X111579851Y-105576916D01*
X111595289Y-105633295D01*
X111604069Y-105689012D01*
X111609278Y-105744721D01*
X111614018Y-105800429D01*
X111614083Y-105801030D01*
X111621540Y-105856970D01*
X111621771Y-105858218D01*
X111635144Y-105914705D01*
X111635676Y-105916410D01*
X111655209Y-105966293D01*
X111400000Y-106231678D01*
X111145630Y-105967165D01*
X111156723Y-105946985D01*
X111174794Y-105918659D01*
X111193867Y-105889839D01*
X111194060Y-105889538D01*
X111212156Y-105860444D01*
X111212639Y-105859596D01*
X111227913Y-105830228D01*
X111228601Y-105828654D01*
X111239257Y-105798934D01*
X111239878Y-105796419D01*
X111244123Y-105766270D01*
X111244142Y-105762872D01*
X111240181Y-105732217D01*
X111239181Y-105728662D01*
X111225219Y-105697425D01*
X111223505Y-105694628D01*
X111204923Y-105671615D01*
X111470090Y-105406448D01*
X111516370Y-105459361D01*
G37*
%TD.AperFunction*%
%TD*%
D20*
%TO.N,/VOUT*%
X94733074Y-90682840D02*
X94733095Y-90682850D01*
X94790227Y-90710648D01*
X94790453Y-90710755D01*
X94842879Y-90734996D01*
X94843354Y-90735204D01*
X94893534Y-90755966D01*
X94894253Y-90756239D01*
X94944646Y-90773597D01*
X94945535Y-90773867D01*
X94998599Y-90787899D01*
X94999533Y-90788109D01*
X95057728Y-90798889D01*
X95058582Y-90799017D01*
X95124366Y-90806623D01*
X95125072Y-90806685D01*
X95200906Y-90811192D01*
X95201445Y-90811212D01*
X95277300Y-90812488D01*
X95277300Y-91187512D01*
X95201446Y-91188787D01*
X95200906Y-91188807D01*
X95125072Y-91193314D01*
X95124366Y-91193376D01*
X95058582Y-91200982D01*
X95057728Y-91201110D01*
X94999533Y-91211890D01*
X94998599Y-91212100D01*
X94945535Y-91226132D01*
X94944646Y-91226402D01*
X94894253Y-91243760D01*
X94893534Y-91244033D01*
X94843354Y-91264795D01*
X94842879Y-91265003D01*
X94790453Y-91289244D01*
X94790227Y-91289351D01*
X94733095Y-91317149D01*
X94733073Y-91317159D01*
X94676756Y-91344689D01*
X94318322Y-91000000D01*
X94676756Y-90655310D01*
X94733074Y-90682840D01*
%TA.AperFunction,Conductor*%
D18*
G36*
X94733074Y-90682840D02*
G01*
X94733095Y-90682850D01*
X94790227Y-90710648D01*
X94790453Y-90710755D01*
X94842879Y-90734996D01*
X94843354Y-90735204D01*
X94893534Y-90755966D01*
X94894253Y-90756239D01*
X94944646Y-90773597D01*
X94945535Y-90773867D01*
X94998599Y-90787899D01*
X94999533Y-90788109D01*
X95057728Y-90798889D01*
X95058582Y-90799017D01*
X95124366Y-90806623D01*
X95125072Y-90806685D01*
X95200906Y-90811192D01*
X95201445Y-90811212D01*
X95277300Y-90812488D01*
X95277300Y-91187512D01*
X95201446Y-91188787D01*
X95200906Y-91188807D01*
X95125072Y-91193314D01*
X95124366Y-91193376D01*
X95058582Y-91200982D01*
X95057728Y-91201110D01*
X94999533Y-91211890D01*
X94998599Y-91212100D01*
X94945535Y-91226132D01*
X94944646Y-91226402D01*
X94894253Y-91243760D01*
X94893534Y-91244033D01*
X94843354Y-91264795D01*
X94842879Y-91265003D01*
X94790453Y-91289244D01*
X94790227Y-91289351D01*
X94733095Y-91317149D01*
X94733073Y-91317159D01*
X94676756Y-91344689D01*
X94318322Y-91000000D01*
X94676756Y-90655310D01*
X94733074Y-90682840D01*
G37*
%TD.AperFunction*%
%TD*%
D20*
%TO.N,/VOUT*%
X110174769Y-107114082D02*
X110194812Y-107163423D01*
X110195296Y-107164475D01*
X110221698Y-107215550D01*
X110222077Y-107216231D01*
X110250356Y-107263568D01*
X110250505Y-107263811D01*
X110279264Y-107309591D01*
X110307035Y-107355860D01*
X110332514Y-107404839D01*
X110354501Y-107458865D01*
X110371813Y-107520396D01*
X110383186Y-107591879D01*
X110386664Y-107663035D01*
X110011711Y-107663035D01*
X110009568Y-107636601D01*
X110009155Y-107634259D01*
X110000377Y-107602346D01*
X109999406Y-107599866D01*
X109985677Y-107573398D01*
X109984204Y-107571169D01*
X109966261Y-107549396D01*
X109964584Y-107547712D01*
X109943162Y-107529883D01*
X109941618Y-107528781D01*
X109917456Y-107514145D01*
X109916240Y-107513497D01*
X109890073Y-107501303D01*
X109889249Y-107500953D01*
X109861814Y-107490452D01*
X109861382Y-107490296D01*
X109833416Y-107480736D01*
X109833369Y-107480720D01*
X109814071Y-107474208D01*
X109806890Y-107106890D01*
X110174769Y-107114082D01*
%TA.AperFunction,Conductor*%
D18*
G36*
X110174769Y-107114082D02*
G01*
X110194812Y-107163423D01*
X110195296Y-107164475D01*
X110221698Y-107215550D01*
X110222077Y-107216231D01*
X110250356Y-107263568D01*
X110250505Y-107263811D01*
X110279264Y-107309591D01*
X110307035Y-107355860D01*
X110332514Y-107404839D01*
X110354501Y-107458865D01*
X110371813Y-107520396D01*
X110383186Y-107591879D01*
X110386664Y-107663035D01*
X110011711Y-107663035D01*
X110009568Y-107636601D01*
X110009155Y-107634259D01*
X110000377Y-107602346D01*
X109999406Y-107599866D01*
X109985677Y-107573398D01*
X109984204Y-107571169D01*
X109966261Y-107549396D01*
X109964584Y-107547712D01*
X109943162Y-107529883D01*
X109941618Y-107528781D01*
X109917456Y-107514145D01*
X109916240Y-107513497D01*
X109890073Y-107501303D01*
X109889249Y-107500953D01*
X109861814Y-107490452D01*
X109861382Y-107490296D01*
X109833416Y-107480736D01*
X109833369Y-107480720D01*
X109814071Y-107474208D01*
X109806890Y-107106890D01*
X110174769Y-107114082D01*
G37*
%TD.AperFunction*%
%TD*%
D20*
%TO.N,/VOUT*%
X115187346Y-113775358D02*
X115187346Y-113775444D01*
X115187776Y-113832999D01*
X115187780Y-113833215D01*
X115189029Y-113884279D01*
X115189044Y-113884660D01*
X115191548Y-113930539D01*
X115191592Y-113931109D01*
X115195786Y-113973106D01*
X115195883Y-113973855D01*
X115202204Y-114013273D01*
X115202375Y-114014142D01*
X115211257Y-114052286D01*
X115211500Y-114053180D01*
X115223379Y-114091354D01*
X115223663Y-114092170D01*
X115238976Y-114131678D01*
X115239259Y-114132349D01*
X115254869Y-114166646D01*
X115000000Y-114431678D01*
X114745131Y-114166646D01*
X114760740Y-114132349D01*
X114761023Y-114131678D01*
X114776336Y-114092170D01*
X114776620Y-114091354D01*
X114788499Y-114053180D01*
X114788742Y-114052286D01*
X114797624Y-114014142D01*
X114797795Y-114013273D01*
X114804116Y-113973855D01*
X114804213Y-113973106D01*
X114808407Y-113931109D01*
X114808451Y-113930539D01*
X114810955Y-113884660D01*
X114810970Y-113884279D01*
X114812219Y-113833215D01*
X114812223Y-113832999D01*
X114812653Y-113775444D01*
X114812653Y-113775358D01*
X114812691Y-113722700D01*
X115187309Y-113722700D01*
X115187346Y-113775358D01*
%TA.AperFunction,Conductor*%
D18*
G36*
X115187346Y-113775358D02*
G01*
X115187346Y-113775444D01*
X115187776Y-113832999D01*
X115187780Y-113833215D01*
X115189029Y-113884279D01*
X115189044Y-113884660D01*
X115191548Y-113930539D01*
X115191592Y-113931109D01*
X115195786Y-113973106D01*
X115195883Y-113973855D01*
X115202204Y-114013273D01*
X115202375Y-114014142D01*
X115211257Y-114052286D01*
X115211500Y-114053180D01*
X115223379Y-114091354D01*
X115223663Y-114092170D01*
X115238976Y-114131678D01*
X115239259Y-114132349D01*
X115254869Y-114166646D01*
X115000000Y-114431678D01*
X114745131Y-114166646D01*
X114760740Y-114132349D01*
X114761023Y-114131678D01*
X114776336Y-114092170D01*
X114776620Y-114091354D01*
X114788499Y-114053180D01*
X114788742Y-114052286D01*
X114797624Y-114014142D01*
X114797795Y-114013273D01*
X114804116Y-113973855D01*
X114804213Y-113973106D01*
X114808407Y-113931109D01*
X114808451Y-113930539D01*
X114810955Y-113884660D01*
X114810970Y-113884279D01*
X114812219Y-113833215D01*
X114812223Y-113832999D01*
X114812653Y-113775444D01*
X114812653Y-113775358D01*
X114812691Y-113722700D01*
X115187309Y-113722700D01*
X115187346Y-113775358D01*
G37*
%TD.AperFunction*%
%TD*%
D20*
%TO.N,/VOUT*%
X108612572Y-62849654D02*
X109379923Y-63277555D01*
X110043497Y-63715158D01*
X110606842Y-64182499D01*
X111073645Y-64699673D01*
X111447661Y-65286926D01*
X111732581Y-65964683D01*
X111931903Y-66753347D01*
X112049012Y-67673196D01*
X112086838Y-68731665D01*
X111711084Y-68731665D01*
X111645807Y-68253471D01*
X111645230Y-68251049D01*
X111643702Y-68248012D01*
X111455470Y-67973198D01*
X111453868Y-67971292D01*
X111451926Y-67969735D01*
X111448849Y-67968275D01*
X111157300Y-67875330D01*
X111154866Y-67874810D01*
X111151561Y-67874870D01*
X110774837Y-67931306D01*
X110772099Y-67932036D01*
X110328339Y-68105362D01*
X110327072Y-68105939D01*
X109834419Y-68363663D01*
X109833840Y-68363985D01*
X109310432Y-68673619D01*
X109310254Y-68673727D01*
X108774323Y-69002724D01*
X108244143Y-69318517D01*
X107745716Y-69584455D01*
X104018322Y-66000000D01*
X107745893Y-62415374D01*
X108612572Y-62849654D01*
%TA.AperFunction,Conductor*%
D18*
G36*
X108612572Y-62849654D02*
G01*
X109379923Y-63277555D01*
X110043497Y-63715158D01*
X110606842Y-64182499D01*
X111073645Y-64699673D01*
X111447661Y-65286926D01*
X111732581Y-65964683D01*
X111931903Y-66753347D01*
X112049012Y-67673196D01*
X112086838Y-68731665D01*
X111711084Y-68731665D01*
X111645807Y-68253471D01*
X111645230Y-68251049D01*
X111643702Y-68248012D01*
X111455470Y-67973198D01*
X111453868Y-67971292D01*
X111451926Y-67969735D01*
X111448849Y-67968275D01*
X111157300Y-67875330D01*
X111154866Y-67874810D01*
X111151561Y-67874870D01*
X110774837Y-67931306D01*
X110772099Y-67932036D01*
X110328339Y-68105362D01*
X110327072Y-68105939D01*
X109834419Y-68363663D01*
X109833840Y-68363985D01*
X109310432Y-68673619D01*
X109310254Y-68673727D01*
X108774323Y-69002724D01*
X108244143Y-69318517D01*
X107745716Y-69584455D01*
X104018322Y-66000000D01*
X107745893Y-62415374D01*
X108612572Y-62849654D01*
G37*
%TD.AperFunction*%
%TD*%
D20*
%TO.N,/VOUT*%
X119637496Y-105570510D02*
X119637892Y-105570877D01*
X119694701Y-105621312D01*
X119695244Y-105621767D01*
X119747139Y-105662906D01*
X119747834Y-105663420D01*
X119796606Y-105696947D01*
X119797414Y-105697459D01*
X119844858Y-105725059D01*
X119845678Y-105725496D01*
X119893585Y-105748855D01*
X119894286Y-105749171D01*
X119944449Y-105769973D01*
X119944932Y-105770162D01*
X119999144Y-105790092D01*
X119999380Y-105790176D01*
X120059435Y-105810918D01*
X120059457Y-105810926D01*
X120118746Y-105831282D01*
X120128465Y-106328465D01*
X119631282Y-106318746D01*
X119610926Y-106259457D01*
X119610918Y-106259435D01*
X119590176Y-106199380D01*
X119590092Y-106199144D01*
X119570162Y-106144932D01*
X119569973Y-106144449D01*
X119549171Y-106094286D01*
X119548855Y-106093585D01*
X119525496Y-106045678D01*
X119525059Y-106044858D01*
X119497459Y-105997414D01*
X119496947Y-105996606D01*
X119463420Y-105947834D01*
X119462906Y-105947139D01*
X119421767Y-105895244D01*
X119421312Y-105894701D01*
X119370877Y-105837892D01*
X119370510Y-105837496D01*
X119317776Y-105782957D01*
X119582957Y-105517776D01*
X119637496Y-105570510D01*
%TA.AperFunction,Conductor*%
D18*
G36*
X119637496Y-105570510D02*
G01*
X119637892Y-105570877D01*
X119694701Y-105621312D01*
X119695244Y-105621767D01*
X119747139Y-105662906D01*
X119747834Y-105663420D01*
X119796606Y-105696947D01*
X119797414Y-105697459D01*
X119844858Y-105725059D01*
X119845678Y-105725496D01*
X119893585Y-105748855D01*
X119894286Y-105749171D01*
X119944449Y-105769973D01*
X119944932Y-105770162D01*
X119999144Y-105790092D01*
X119999380Y-105790176D01*
X120059435Y-105810918D01*
X120059457Y-105810926D01*
X120118746Y-105831282D01*
X120128465Y-106328465D01*
X119631282Y-106318746D01*
X119610926Y-106259457D01*
X119610918Y-106259435D01*
X119590176Y-106199380D01*
X119590092Y-106199144D01*
X119570162Y-106144932D01*
X119569973Y-106144449D01*
X119549171Y-106094286D01*
X119548855Y-106093585D01*
X119525496Y-106045678D01*
X119525059Y-106044858D01*
X119497459Y-105997414D01*
X119496947Y-105996606D01*
X119463420Y-105947834D01*
X119462906Y-105947139D01*
X119421767Y-105895244D01*
X119421312Y-105894701D01*
X119370877Y-105837892D01*
X119370510Y-105837496D01*
X119317776Y-105782957D01*
X119582957Y-105517776D01*
X119637496Y-105570510D01*
G37*
%TD.AperFunction*%
%TD*%
M02*
