M48
; DRILL file {KiCad (5.1.7)-1} date 06/10/21 19:02:40
; FORMAT={-:-/ absolute / inch / decimal}
; #@! TF.CreationDate,2021-06-10T19:02:40+03:00
; #@! TF.GenerationSoftware,Kicad,Pcbnew,(5.1.7)-1
; #@! TF.FileFunction,Plated,1,4,PTH
FMAT,2
INCH
T1C0.0118
T2C0.0157
T3C0.0394
T4C0.1693
%
G90
G05
T1
X2.2317Y-3.6978
X2.2317Y-4.1467
X2.3215Y-4.5057
X2.3514Y-3.2789
X2.4711Y-3.9073
X2.4711Y-4.8049
X2.5309Y-2.9498
X2.5608Y-3.5183
X2.5608Y-4.2663
X2.6506Y-5.0742
X2.7104Y-4.5656
X2.7404Y-3.1892
X2.7703Y-2.6805
X2.7703Y-3.7577
X2.86Y-4.1167
X2.89Y-4.8348
X2.89Y-5.2837
X2.9498Y-3.4285
X2.9797Y-2.9199
X3.0096Y-4.4159
X3.0396Y-2.4711
X3.0994Y-3.8774
X3.1892Y-3.1593
X3.249Y-2.7104
X3.249Y-3.5781
X3.249Y-4.1766
X3.3687Y-2.3215
X3.4585Y-2.9498
X3.4884Y-3.3687
X3.4884Y-3.8175
X3.5945Y-4.3858
X3.6142Y-4.4252
X3.622Y-4.4724
X3.6299Y-4.5315
X3.6299Y-4.5827
X3.7278Y-2.2317
X3.7577Y-2.8002
X3.8504Y-4.3189
X3.8661Y-4.0236
X3.8774Y-3.638
X3.9073Y-2.501
X3.9073Y-3.0994
X4.11Y-4.35
X4.1467Y-2.2616
X4.1939Y-4.6604
X4.2402Y-4.7126
X4.25Y-4.3898
X4.25Y-4.4528
X4.2663Y-3.5781
X4.3268Y-4.2205
X4.336Y-4.5709
X4.3561Y-2.7404
X4.3561Y-3.1892
X4.3858Y-4.1772
X4.437Y-3.9016
X4.437Y-4.0157
X4.437Y-4.189
X4.4685Y-4.1339
X4.4758Y-2.3813
X4.5057Y-3.9671
X4.5118Y-4.7874
X4.5276Y-4.5
X4.5955Y-2.9498
X4.6254Y-3.3687
X4.6553Y-4.2663
X4.6654Y-3.8898
X4.7152Y-2.5907
X4.7152Y-3.7278
X4.7283Y-3.874
X4.775Y-5.0443
X4.8947Y-3.0994
X4.8947Y-4.0569
X4.8947Y-4.5656
X4.9545Y-3.4884
X4.9606Y-3.7638
X4.9844Y-5.2837
X5.0276Y-3.8228
X5.0443Y-4.8648
X5.0742Y-2.6805
X5.1041Y-3.7876
X5.1041Y-4.2963
X5.1939Y-3.249
X5.2837Y-4.6254
X5.3136Y-2.9199
X5.3136Y-4.027
X5.3435Y-3.5482
X5.4931Y-4.3561
X5.553Y-3.7876
T2
X3.5433Y-3.9173
X3.5433Y-3.9567
X3.5433Y-3.9961
X3.5433Y-4.0354
X3.5433Y-4.0748
X3.5433Y-4.1142
X3.5433Y-4.1535
X3.5433Y-4.1929
X3.5433Y-4.2323
X3.5827Y-4.0157
X3.622Y-4.0157
X3.6614Y-4.0157
X3.7008Y-4.0157
X3.7205Y-3.5827
X3.7402Y-4.0157
X3.7795Y-4.0157
X3.7795Y-4.7638
X3.7795Y-4.9016
X3.8583Y-4.0945
X3.8583Y-4.1339
X3.8583Y-4.1732
X3.8583Y-4.2126
X3.8583Y-4.252
X3.8583Y-4.8425
X3.8583Y-4.9606
X3.8622Y-3.9331
X3.8701Y-4.7087
X3.9016Y-3.8937
X3.9016Y-3.9724
X3.9173Y-4.7638
X3.9173Y-4.9016
X3.9409Y-3.9331
X3.9488Y-3.5709
X3.9764Y-4.685
X3.9764Y-4.8425
X3.9764Y-4.9606
X3.9803Y-3.8937
X3.9803Y-3.9724
X3.9882Y-3.5709
X4.0197Y-3.9331
X4.0236Y-3.5709
X4.0354Y-4.7638
X4.0354Y-4.9016
X4.0591Y-3.8937
X4.0591Y-3.9724
X4.063Y-3.5709
X4.0906Y-3.185
X4.0906Y-3.2244
X4.0906Y-3.2677
X4.0906Y-3.311
X4.0906Y-3.3543
X4.0906Y-3.3976
X4.0906Y-3.4409
X4.0945Y-4.8425
X4.0945Y-4.9606
X4.0984Y-3.9331
X4.126Y-3.1614
X4.126Y-3.2047
X4.126Y-3.248
X4.126Y-3.2874
X4.126Y-3.3346
X4.126Y-3.374
X4.126Y-3.4173
X4.1378Y-3.8937
X4.1378Y-3.9724
X4.1535Y-4.7638
X4.1535Y-4.9016
X4.2126Y-4.8425
X4.2126Y-4.9606
X4.2717Y-4.9016
X4.3189Y-4.1772
X4.3307Y-4.8425
X4.3307Y-4.9606
X4.3898Y-4.9016
X4.4449Y-3.6969
X4.4449Y-3.7362
X4.4449Y-3.7756
X4.4449Y-3.815
X4.4449Y-3.8543
X4.4685Y-4.8425
X4.4685Y-4.9606
X4.4803Y-3.7165
X4.4803Y-3.7559
X4.4803Y-3.7913
X4.4803Y-3.8307
X4.4803Y-3.874
X4.5276Y-4.9016
X4.5672Y-4.3386
X4.5672Y-4.378
X4.5672Y-4.4173
X4.5672Y-4.4567
X4.5866Y-4.9606
X4.5987Y-4.3583
X4.5987Y-4.3976
X4.5987Y-4.437
X4.6457Y-4.9016
X4.7047Y-4.9606
X4.7244Y-4.1811
X4.7638Y-4.9016
X4.8228Y-4.8425
X4.8228Y-4.9606
T3
X4.8268Y-3.9331
X4.8268Y-4.0331
X4.8268Y-4.1331
X4.8268Y-4.2331
X3.2657Y-4.5748
X3.4035Y-4.5748
T4
X3.7008Y-2.5984
X4.1732Y-2.5984
X3.0984Y-4.811
X3.5709Y-4.811
T0
M30
