%TF.GenerationSoftware,KiCad,Pcbnew,(5.1.7)-1*%
%TF.CreationDate,2021-06-10T19:06:36+03:00*%
%TF.ProjectId,SynchronousBuck,53796e63-6872-46f6-9e6f-75734275636b,rev?*%
%TF.SameCoordinates,Original*%
%TF.FileFunction,Legend,Top*%
%TF.FilePolarity,Positive*%
%FSLAX46Y46*%
G04 Gerber Fmt 4.6, Leading zero omitted, Abs format (unit mm)*
G04 Created by KiCad (PCBNEW (5.1.7)-1) date 2021-06-10 19:06:36*
%MOMM*%
%LPD*%
G01*
G04 APERTURE LIST*
%ADD10C,0.300000*%
%ADD11C,0.500000*%
%ADD12C,0.700000*%
%ADD13C,0.120000*%
%ADD14C,0.100000*%
G04 APERTURE END LIST*
D10*
X125909285Y-99492857D02*
X126309285Y-100692857D01*
X126709285Y-99492857D01*
X127337857Y-99492857D02*
X127566428Y-99492857D01*
X127680714Y-99550000D01*
X127795000Y-99664285D01*
X127852142Y-99892857D01*
X127852142Y-100292857D01*
X127795000Y-100521428D01*
X127680714Y-100635714D01*
X127566428Y-100692857D01*
X127337857Y-100692857D01*
X127223571Y-100635714D01*
X127109285Y-100521428D01*
X127052142Y-100292857D01*
X127052142Y-99892857D01*
X127109285Y-99664285D01*
X127223571Y-99550000D01*
X127337857Y-99492857D01*
X128366428Y-99492857D02*
X128366428Y-100464285D01*
X128423571Y-100578571D01*
X128480714Y-100635714D01*
X128595000Y-100692857D01*
X128823571Y-100692857D01*
X128937857Y-100635714D01*
X128995000Y-100578571D01*
X129052142Y-100464285D01*
X129052142Y-99492857D01*
X129452142Y-99492857D02*
X130137857Y-99492857D01*
X129795000Y-100692857D02*
X129795000Y-99492857D01*
X131452142Y-100692857D02*
X131452142Y-99492857D01*
X131852142Y-100350000D01*
X132252142Y-99492857D01*
X132252142Y-100692857D01*
X132823571Y-100064285D02*
X133223571Y-100064285D01*
X133395000Y-100692857D02*
X132823571Y-100692857D01*
X132823571Y-99492857D01*
X133395000Y-99492857D01*
X133852142Y-100350000D02*
X134423571Y-100350000D01*
X133737857Y-100692857D02*
X134137857Y-99492857D01*
X134537857Y-100692857D01*
X134880714Y-100635714D02*
X135052142Y-100692857D01*
X135337857Y-100692857D01*
X135452142Y-100635714D01*
X135509285Y-100578571D01*
X135566428Y-100464285D01*
X135566428Y-100350000D01*
X135509285Y-100235714D01*
X135452142Y-100178571D01*
X135337857Y-100121428D01*
X135109285Y-100064285D01*
X134995000Y-100007142D01*
X134937857Y-99950000D01*
X134880714Y-99835714D01*
X134880714Y-99721428D01*
X134937857Y-99607142D01*
X134995000Y-99550000D01*
X135109285Y-99492857D01*
X135395000Y-99492857D01*
X135566428Y-99550000D01*
X126709285Y-101650000D02*
X126595000Y-101592857D01*
X126423571Y-101592857D01*
X126252142Y-101650000D01*
X126137857Y-101764285D01*
X126080714Y-101878571D01*
X126023571Y-102107142D01*
X126023571Y-102278571D01*
X126080714Y-102507142D01*
X126137857Y-102621428D01*
X126252142Y-102735714D01*
X126423571Y-102792857D01*
X126537857Y-102792857D01*
X126709285Y-102735714D01*
X126766428Y-102678571D01*
X126766428Y-102278571D01*
X126537857Y-102278571D01*
X127280714Y-102792857D02*
X127280714Y-101592857D01*
X127966428Y-102792857D01*
X127966428Y-101592857D01*
X128537857Y-102792857D02*
X128537857Y-101592857D01*
X128823571Y-101592857D01*
X128995000Y-101650000D01*
X129109285Y-101764285D01*
X129166428Y-101878571D01*
X129223571Y-102107142D01*
X129223571Y-102278571D01*
X129166428Y-102507142D01*
X129109285Y-102621428D01*
X128995000Y-102735714D01*
X128823571Y-102792857D01*
X128537857Y-102792857D01*
D11*
X107400000Y-115824000D02*
G75*
G03*
X107400000Y-115824000I-100000J0D01*
G01*
D12*
X104600000Y-109800000D02*
G75*
G03*
X104600000Y-109800000I-100000J0D01*
G01*
X104500000Y-103100000D02*
G75*
G03*
X104500000Y-103100000I-100000J0D01*
G01*
D10*
X126609285Y-104522000D02*
X126495000Y-104464857D01*
X126323571Y-104464857D01*
X126152142Y-104522000D01*
X126037857Y-104636285D01*
X125980714Y-104750571D01*
X125923571Y-104979142D01*
X125923571Y-105150571D01*
X125980714Y-105379142D01*
X126037857Y-105493428D01*
X126152142Y-105607714D01*
X126323571Y-105664857D01*
X126437857Y-105664857D01*
X126609285Y-105607714D01*
X126666428Y-105550571D01*
X126666428Y-105150571D01*
X126437857Y-105150571D01*
X127180714Y-105664857D02*
X127180714Y-104464857D01*
X127866428Y-105664857D01*
X127866428Y-104464857D01*
X128437857Y-105664857D02*
X128437857Y-104464857D01*
X128723571Y-104464857D01*
X128895000Y-104522000D01*
X129009285Y-104636285D01*
X129066428Y-104750571D01*
X129123571Y-104979142D01*
X129123571Y-105150571D01*
X129066428Y-105379142D01*
X129009285Y-105493428D01*
X128895000Y-105607714D01*
X128723571Y-105664857D01*
X128437857Y-105664857D01*
X125809285Y-106564857D02*
X126209285Y-107764857D01*
X126609285Y-106564857D01*
X127009285Y-107764857D02*
X127009285Y-106564857D01*
X127580714Y-107764857D02*
X127580714Y-106564857D01*
X128266428Y-107764857D01*
X128266428Y-106564857D01*
X129752142Y-107764857D02*
X129752142Y-106564857D01*
X130152142Y-107422000D01*
X130552142Y-106564857D01*
X130552142Y-107764857D01*
X131123571Y-107136285D02*
X131523571Y-107136285D01*
X131695000Y-107764857D02*
X131123571Y-107764857D01*
X131123571Y-106564857D01*
X131695000Y-106564857D01*
X132152142Y-107422000D02*
X132723571Y-107422000D01*
X132037857Y-107764857D02*
X132437857Y-106564857D01*
X132837857Y-107764857D01*
X133180714Y-107707714D02*
X133352142Y-107764857D01*
X133637857Y-107764857D01*
X133752142Y-107707714D01*
X133809285Y-107650571D01*
X133866428Y-107536285D01*
X133866428Y-107422000D01*
X133809285Y-107307714D01*
X133752142Y-107250571D01*
X133637857Y-107193428D01*
X133409285Y-107136285D01*
X133295000Y-107079142D01*
X133237857Y-107022000D01*
X133180714Y-106907714D01*
X133180714Y-106793428D01*
X133237857Y-106679142D01*
X133295000Y-106622000D01*
X133409285Y-106564857D01*
X133695000Y-106564857D01*
X133866428Y-106622000D01*
D11*
X109857142Y-60185714D02*
X107571428Y-60185714D01*
X108714285Y-59042857D02*
X108714285Y-61328571D01*
X92428571Y-60185714D02*
X90142857Y-60185714D01*
X89042857Y-117641714D02*
X86757142Y-117641714D01*
X87900000Y-116498857D02*
X87900000Y-118784571D01*
X83042857Y-117641714D02*
X80757142Y-117641714D01*
D13*
%TO.C,C114*%
X120510000Y-115959420D02*
X120510000Y-116240580D01*
X119490000Y-115959420D02*
X119490000Y-116240580D01*
%TO.C,C113*%
X116710000Y-119159420D02*
X116710000Y-119440580D01*
X115690000Y-119159420D02*
X115690000Y-119440580D01*
%TO.C,U101*%
X107700000Y-109590000D02*
X107700000Y-115760000D01*
X114500000Y-109590000D02*
X114500000Y-114210000D01*
%TO.C,C112*%
X106260000Y-73740000D02*
X103210000Y-73740000D01*
X97740000Y-73740000D02*
X100790000Y-73740000D01*
X97740000Y-81195563D02*
X97740000Y-73740000D01*
X106260000Y-81195563D02*
X106260000Y-73740000D01*
X105195563Y-82260000D02*
X103210000Y-82260000D01*
X98804437Y-82260000D02*
X100790000Y-82260000D01*
X98804437Y-82260000D02*
X97740000Y-81195563D01*
X105195563Y-82260000D02*
X106260000Y-81195563D01*
X99790000Y-83500000D02*
X99790000Y-82500000D01*
X99290000Y-83000000D02*
X100290000Y-83000000D01*
%TO.C,C110*%
X97260000Y-73740000D02*
X94210000Y-73740000D01*
X88740000Y-73740000D02*
X91790000Y-73740000D01*
X88740000Y-81195563D02*
X88740000Y-73740000D01*
X97260000Y-81195563D02*
X97260000Y-73740000D01*
X96195563Y-82260000D02*
X94210000Y-82260000D01*
X89804437Y-82260000D02*
X91790000Y-82260000D01*
X89804437Y-82260000D02*
X88740000Y-81195563D01*
X96195563Y-82260000D02*
X97260000Y-81195563D01*
X90790000Y-83500000D02*
X90790000Y-82500000D01*
X90290000Y-83000000D02*
X91290000Y-83000000D01*
%TO.C,R102*%
X109077500Y-118862742D02*
X109077500Y-119337258D01*
X110122500Y-118862742D02*
X110122500Y-119337258D01*
%TO.C,R120*%
X117677500Y-104237258D02*
X117677500Y-103762742D01*
X118722500Y-104237258D02*
X118722500Y-103762742D01*
%TO.C,D103*%
X122050000Y-95800000D02*
X122050000Y-97800000D01*
X122050000Y-97800000D02*
X125950000Y-97800000D01*
X122050000Y-95800000D02*
X125950000Y-95800000D01*
%TO.C,D102*%
X120614000Y-108950000D02*
X120614000Y-106950000D01*
X120614000Y-106950000D02*
X116714000Y-106950000D01*
X120614000Y-108950000D02*
X116714000Y-108950000D01*
%TO.C,R123*%
X120522500Y-104237258D02*
X120522500Y-103762742D01*
X119477500Y-104237258D02*
X119477500Y-103762742D01*
%TO.C,C120*%
X107278000Y-113995252D02*
X107278000Y-112572748D01*
X104558000Y-113995252D02*
X104558000Y-112572748D01*
%TO.C,C119*%
X91210000Y-116440580D02*
X91210000Y-116159420D01*
X90190000Y-116440580D02*
X90190000Y-116159420D01*
%TO.C,L101*%
X88800000Y-114300000D02*
X70900000Y-114300000D01*
X70900000Y-114300000D02*
X70900000Y-109300000D01*
X70900000Y-109300000D02*
X73400000Y-109300000D01*
X88900000Y-114300000D02*
X88900000Y-109300000D01*
X88900000Y-109300000D02*
X86400000Y-109300000D01*
X73400000Y-109300000D02*
X73900000Y-104500000D01*
X86400000Y-109300000D02*
X85900000Y-104500000D01*
X85900000Y-96100000D02*
X86400000Y-91300000D01*
X86400000Y-91300000D02*
X88800000Y-91300000D01*
X88800000Y-91300000D02*
X88900000Y-91300000D01*
X88900000Y-91300000D02*
X88900000Y-86300000D01*
X88900000Y-86300000D02*
X70900000Y-86300000D01*
X70900000Y-86300000D02*
X70900000Y-91300000D01*
X70900000Y-91300000D02*
X73400000Y-91300000D01*
X73400000Y-91300000D02*
X73900000Y-96100000D01*
X70274750Y-96790794D02*
G75*
G02*
X73500001Y-92300001I9625250J-3509206D01*
G01*
X70274750Y-103809206D02*
G75*
G03*
X73500001Y-108299999I9625250J3509206D01*
G01*
X86299999Y-92300001D02*
G75*
G02*
X86299999Y-108299999I-6399999J-7999999D01*
G01*
%TO.C,R121*%
X120522500Y-100987258D02*
X120522500Y-100512742D01*
X119477500Y-100987258D02*
X119477500Y-100512742D01*
%TO.C,R119*%
X122887258Y-111477500D02*
X122412742Y-111477500D01*
X122887258Y-112522500D02*
X122412742Y-112522500D01*
%TO.C,R118*%
X122412742Y-110772500D02*
X122887258Y-110772500D01*
X122412742Y-109727500D02*
X122887258Y-109727500D01*
%TO.C,R117*%
X122887258Y-113127500D02*
X122412742Y-113127500D01*
X122887258Y-114172500D02*
X122412742Y-114172500D01*
%TO.C,J102*%
X121270000Y-98570000D02*
X122600000Y-98570000D01*
X121270000Y-99900000D02*
X121270000Y-98570000D01*
X121270000Y-101170000D02*
X123930000Y-101170000D01*
X123930000Y-101170000D02*
X123930000Y-108850000D01*
X121270000Y-101170000D02*
X121270000Y-108850000D01*
X121270000Y-108850000D02*
X123930000Y-108850000D01*
%TO.C,C102*%
X110992164Y-117160000D02*
X111207836Y-117160000D01*
X110992164Y-116440000D02*
X111207836Y-116440000D01*
%TO.C,C108*%
X95890000Y-110259420D02*
X95890000Y-110540580D01*
X96910000Y-110259420D02*
X96910000Y-110540580D01*
%TO.C,C107*%
X109110000Y-105740580D02*
X109110000Y-105459420D01*
X108090000Y-105740580D02*
X108090000Y-105459420D01*
%TO.C,C106*%
X117865580Y-114790000D02*
X117584420Y-114790000D01*
X117865580Y-115810000D02*
X117584420Y-115810000D01*
%TO.C,C105*%
X105815580Y-107390000D02*
X105534420Y-107390000D01*
X105815580Y-108410000D02*
X105534420Y-108410000D01*
%TO.C,C104*%
X115935000Y-116340580D02*
X115935000Y-116059420D01*
X114915000Y-116340580D02*
X114915000Y-116059420D01*
%TO.C,C103*%
X112490000Y-118859420D02*
X112490000Y-119140580D01*
X113510000Y-118859420D02*
X113510000Y-119140580D01*
%TO.C,R116*%
X120622500Y-119537258D02*
X120622500Y-119062742D01*
X119577500Y-119537258D02*
X119577500Y-119062742D01*
%TO.C,R115*%
X119022500Y-119537258D02*
X119022500Y-119062742D01*
X117977500Y-119537258D02*
X117977500Y-119062742D01*
%TO.C,R114*%
X110877500Y-99862742D02*
X110877500Y-100337258D01*
X111922500Y-99862742D02*
X111922500Y-100337258D01*
%TO.C,R113*%
X108477500Y-99838742D02*
X108477500Y-100313258D01*
X109522500Y-99838742D02*
X109522500Y-100313258D01*
%TO.C,R112*%
X106877500Y-99838742D02*
X106877500Y-100313258D01*
X107922500Y-99838742D02*
X107922500Y-100313258D01*
%TO.C,R111*%
X112412258Y-121077500D02*
X111937742Y-121077500D01*
X112412258Y-122122500D02*
X111937742Y-122122500D01*
%TO.C,Q102*%
X103485000Y-108160000D02*
X103785000Y-108160000D01*
X98715000Y-108160000D02*
X98415000Y-108160000D01*
X98765000Y-102040000D02*
X98415000Y-102040000D01*
X103785000Y-108160000D02*
X103785000Y-102040000D01*
X98415000Y-108160000D02*
X98415000Y-102040000D01*
%TO.C,R108*%
X114077500Y-119062742D02*
X114077500Y-119537258D01*
X115122500Y-119062742D02*
X115122500Y-119537258D01*
%TO.C,R107*%
X121077500Y-115862742D02*
X121077500Y-116337258D01*
X122122500Y-115862742D02*
X122122500Y-116337258D01*
%TO.C,R106*%
X94037258Y-110677500D02*
X93562742Y-110677500D01*
X94037258Y-111722500D02*
X93562742Y-111722500D01*
%TO.C,R104*%
X117962258Y-116477500D02*
X117487742Y-116477500D01*
X117962258Y-117522500D02*
X117487742Y-117522500D01*
%TO.C,R103*%
X111672500Y-119337258D02*
X111672500Y-118862742D01*
X110627500Y-119337258D02*
X110627500Y-118862742D01*
%TO.C,R101*%
X109312258Y-121077500D02*
X108837742Y-121077500D01*
X109312258Y-122122500D02*
X108837742Y-122122500D01*
%TO.C,Q101*%
X103485000Y-115510000D02*
X103785000Y-115510000D01*
X98715000Y-115510000D02*
X98415000Y-115510000D01*
X98765000Y-109390000D02*
X98415000Y-109390000D01*
X103785000Y-115510000D02*
X103785000Y-109390000D01*
X98415000Y-115510000D02*
X98415000Y-109390000D01*
%TO.C,D101*%
X104420000Y-106160000D02*
X104420000Y-104700000D01*
X107580000Y-106160000D02*
X107580000Y-104000000D01*
X107580000Y-106160000D02*
X106650000Y-106160000D01*
X104420000Y-106160000D02*
X105350000Y-106160000D01*
%TO.C,C111*%
X96386252Y-113390000D02*
X94963748Y-113390000D01*
X96386252Y-116110000D02*
X94963748Y-116110000D01*
%TO.C,C109*%
X100340000Y-87088748D02*
X100340000Y-88511252D01*
X103060000Y-87088748D02*
X103060000Y-88511252D01*
%TO.C,C101*%
X107190000Y-117459420D02*
X107190000Y-117740580D01*
X108210000Y-117459420D02*
X108210000Y-117740580D01*
%TO.C,C114*%
D14*
X121680000Y-116883333D02*
X121713333Y-116916666D01*
X121746666Y-117016666D01*
X121746666Y-117083333D01*
X121713333Y-117183333D01*
X121646666Y-117250000D01*
X121580000Y-117283333D01*
X121446666Y-117316666D01*
X121346666Y-117316666D01*
X121213333Y-117283333D01*
X121146666Y-117250000D01*
X121080000Y-117183333D01*
X121046666Y-117083333D01*
X121046666Y-117016666D01*
X121080000Y-116916666D01*
X121113333Y-116883333D01*
X121746666Y-116216666D02*
X121746666Y-116616666D01*
X121746666Y-116416666D02*
X121046666Y-116416666D01*
X121146666Y-116483333D01*
X121213333Y-116550000D01*
X121246666Y-116616666D01*
X121746666Y-115550000D02*
X121746666Y-115950000D01*
X121746666Y-115750000D02*
X121046666Y-115750000D01*
X121146666Y-115816666D01*
X121213333Y-115883333D01*
X121246666Y-115950000D01*
X121280000Y-114950000D02*
X121746666Y-114950000D01*
X121013333Y-115116666D02*
X121513333Y-115283333D01*
X121513333Y-114850000D01*
%TO.C,C113*%
X117880000Y-120083333D02*
X117913333Y-120116666D01*
X117946666Y-120216666D01*
X117946666Y-120283333D01*
X117913333Y-120383333D01*
X117846666Y-120450000D01*
X117780000Y-120483333D01*
X117646666Y-120516666D01*
X117546666Y-120516666D01*
X117413333Y-120483333D01*
X117346666Y-120450000D01*
X117280000Y-120383333D01*
X117246666Y-120283333D01*
X117246666Y-120216666D01*
X117280000Y-120116666D01*
X117313333Y-120083333D01*
X117946666Y-119416666D02*
X117946666Y-119816666D01*
X117946666Y-119616666D02*
X117246666Y-119616666D01*
X117346666Y-119683333D01*
X117413333Y-119750000D01*
X117446666Y-119816666D01*
X117946666Y-118750000D02*
X117946666Y-119150000D01*
X117946666Y-118950000D02*
X117246666Y-118950000D01*
X117346666Y-119016666D01*
X117413333Y-119083333D01*
X117446666Y-119150000D01*
X117246666Y-118516666D02*
X117246666Y-118083333D01*
X117513333Y-118316666D01*
X117513333Y-118216666D01*
X117546666Y-118150000D01*
X117580000Y-118116666D01*
X117646666Y-118083333D01*
X117813333Y-118083333D01*
X117880000Y-118116666D01*
X117913333Y-118150000D01*
X117946666Y-118216666D01*
X117946666Y-118416666D01*
X117913333Y-118483333D01*
X117880000Y-118516666D01*
%TO.C,U101*%
X114678666Y-112960000D02*
X115245333Y-112960000D01*
X115312000Y-112926666D01*
X115345333Y-112893333D01*
X115378666Y-112826666D01*
X115378666Y-112693333D01*
X115345333Y-112626666D01*
X115312000Y-112593333D01*
X115245333Y-112560000D01*
X114678666Y-112560000D01*
X115378666Y-111860000D02*
X115378666Y-112260000D01*
X115378666Y-112060000D02*
X114678666Y-112060000D01*
X114778666Y-112126666D01*
X114845333Y-112193333D01*
X114878666Y-112260000D01*
X114678666Y-111426666D02*
X114678666Y-111360000D01*
X114712000Y-111293333D01*
X114745333Y-111260000D01*
X114812000Y-111226666D01*
X114945333Y-111193333D01*
X115112000Y-111193333D01*
X115245333Y-111226666D01*
X115312000Y-111260000D01*
X115345333Y-111293333D01*
X115378666Y-111360000D01*
X115378666Y-111426666D01*
X115345333Y-111493333D01*
X115312000Y-111526666D01*
X115245333Y-111560000D01*
X115112000Y-111593333D01*
X114945333Y-111593333D01*
X114812000Y-111560000D01*
X114745333Y-111526666D01*
X114712000Y-111493333D01*
X114678666Y-111426666D01*
X115378666Y-110526666D02*
X115378666Y-110926666D01*
X115378666Y-110726666D02*
X114678666Y-110726666D01*
X114778666Y-110793333D01*
X114845333Y-110860000D01*
X114878666Y-110926666D01*
%TO.C,R105*%
X107416666Y-93716666D02*
X107183333Y-93383333D01*
X107016666Y-93716666D02*
X107016666Y-93016666D01*
X107283333Y-93016666D01*
X107350000Y-93050000D01*
X107383333Y-93083333D01*
X107416666Y-93150000D01*
X107416666Y-93250000D01*
X107383333Y-93316666D01*
X107350000Y-93350000D01*
X107283333Y-93383333D01*
X107016666Y-93383333D01*
X108083333Y-93716666D02*
X107683333Y-93716666D01*
X107883333Y-93716666D02*
X107883333Y-93016666D01*
X107816666Y-93116666D01*
X107750000Y-93183333D01*
X107683333Y-93216666D01*
X108516666Y-93016666D02*
X108583333Y-93016666D01*
X108650000Y-93050000D01*
X108683333Y-93083333D01*
X108716666Y-93150000D01*
X108750000Y-93283333D01*
X108750000Y-93450000D01*
X108716666Y-93583333D01*
X108683333Y-93650000D01*
X108650000Y-93683333D01*
X108583333Y-93716666D01*
X108516666Y-93716666D01*
X108450000Y-93683333D01*
X108416666Y-93650000D01*
X108383333Y-93583333D01*
X108350000Y-93450000D01*
X108350000Y-93283333D01*
X108383333Y-93150000D01*
X108416666Y-93083333D01*
X108450000Y-93050000D01*
X108516666Y-93016666D01*
X109383333Y-93016666D02*
X109050000Y-93016666D01*
X109016666Y-93350000D01*
X109050000Y-93316666D01*
X109116666Y-93283333D01*
X109283333Y-93283333D01*
X109350000Y-93316666D01*
X109383333Y-93350000D01*
X109416666Y-93416666D01*
X109416666Y-93583333D01*
X109383333Y-93650000D01*
X109350000Y-93683333D01*
X109283333Y-93716666D01*
X109116666Y-93716666D01*
X109050000Y-93683333D01*
X109016666Y-93650000D01*
%TO.C,C112*%
X98016666Y-73050000D02*
X97983333Y-73083333D01*
X97883333Y-73116666D01*
X97816666Y-73116666D01*
X97716666Y-73083333D01*
X97650000Y-73016666D01*
X97616666Y-72950000D01*
X97583333Y-72816666D01*
X97583333Y-72716666D01*
X97616666Y-72583333D01*
X97650000Y-72516666D01*
X97716666Y-72450000D01*
X97816666Y-72416666D01*
X97883333Y-72416666D01*
X97983333Y-72450000D01*
X98016666Y-72483333D01*
X98683333Y-73116666D02*
X98283333Y-73116666D01*
X98483333Y-73116666D02*
X98483333Y-72416666D01*
X98416666Y-72516666D01*
X98350000Y-72583333D01*
X98283333Y-72616666D01*
X99350000Y-73116666D02*
X98950000Y-73116666D01*
X99150000Y-73116666D02*
X99150000Y-72416666D01*
X99083333Y-72516666D01*
X99016666Y-72583333D01*
X98950000Y-72616666D01*
X99616666Y-72483333D02*
X99650000Y-72450000D01*
X99716666Y-72416666D01*
X99883333Y-72416666D01*
X99950000Y-72450000D01*
X99983333Y-72483333D01*
X100016666Y-72550000D01*
X100016666Y-72616666D01*
X99983333Y-72716666D01*
X99583333Y-73116666D01*
X100016666Y-73116666D01*
%TO.C,C110*%
X89116666Y-73150000D02*
X89083333Y-73183333D01*
X88983333Y-73216666D01*
X88916666Y-73216666D01*
X88816666Y-73183333D01*
X88750000Y-73116666D01*
X88716666Y-73050000D01*
X88683333Y-72916666D01*
X88683333Y-72816666D01*
X88716666Y-72683333D01*
X88750000Y-72616666D01*
X88816666Y-72550000D01*
X88916666Y-72516666D01*
X88983333Y-72516666D01*
X89083333Y-72550000D01*
X89116666Y-72583333D01*
X89783333Y-73216666D02*
X89383333Y-73216666D01*
X89583333Y-73216666D02*
X89583333Y-72516666D01*
X89516666Y-72616666D01*
X89450000Y-72683333D01*
X89383333Y-72716666D01*
X90450000Y-73216666D02*
X90050000Y-73216666D01*
X90250000Y-73216666D02*
X90250000Y-72516666D01*
X90183333Y-72616666D01*
X90116666Y-72683333D01*
X90050000Y-72716666D01*
X90883333Y-72516666D02*
X90950000Y-72516666D01*
X91016666Y-72550000D01*
X91050000Y-72583333D01*
X91083333Y-72650000D01*
X91116666Y-72783333D01*
X91116666Y-72950000D01*
X91083333Y-73083333D01*
X91050000Y-73150000D01*
X91016666Y-73183333D01*
X90950000Y-73216666D01*
X90883333Y-73216666D01*
X90816666Y-73183333D01*
X90783333Y-73150000D01*
X90750000Y-73083333D01*
X90716666Y-72950000D01*
X90716666Y-72783333D01*
X90750000Y-72650000D01*
X90783333Y-72583333D01*
X90816666Y-72550000D01*
X90883333Y-72516666D01*
%TO.C,R102*%
X111346666Y-119883333D02*
X111013333Y-120116666D01*
X111346666Y-120283333D02*
X110646666Y-120283333D01*
X110646666Y-120016666D01*
X110680000Y-119950000D01*
X110713333Y-119916666D01*
X110780000Y-119883333D01*
X110880000Y-119883333D01*
X110946666Y-119916666D01*
X110980000Y-119950000D01*
X111013333Y-120016666D01*
X111013333Y-120283333D01*
X111346666Y-119216666D02*
X111346666Y-119616666D01*
X111346666Y-119416666D02*
X110646666Y-119416666D01*
X110746666Y-119483333D01*
X110813333Y-119550000D01*
X110846666Y-119616666D01*
X110646666Y-118783333D02*
X110646666Y-118716666D01*
X110680000Y-118650000D01*
X110713333Y-118616666D01*
X110780000Y-118583333D01*
X110913333Y-118550000D01*
X111080000Y-118550000D01*
X111213333Y-118583333D01*
X111280000Y-118616666D01*
X111313333Y-118650000D01*
X111346666Y-118716666D01*
X111346666Y-118783333D01*
X111313333Y-118850000D01*
X111280000Y-118883333D01*
X111213333Y-118916666D01*
X111080000Y-118950000D01*
X110913333Y-118950000D01*
X110780000Y-118916666D01*
X110713333Y-118883333D01*
X110680000Y-118850000D01*
X110646666Y-118783333D01*
X110713333Y-118283333D02*
X110680000Y-118250000D01*
X110646666Y-118183333D01*
X110646666Y-118016666D01*
X110680000Y-117950000D01*
X110713333Y-117916666D01*
X110780000Y-117883333D01*
X110846666Y-117883333D01*
X110946666Y-117916666D01*
X111346666Y-118316666D01*
X111346666Y-117883333D01*
%TO.C,R120*%
X116016666Y-104783333D02*
X115683333Y-105016666D01*
X116016666Y-105183333D02*
X115316666Y-105183333D01*
X115316666Y-104916666D01*
X115350000Y-104850000D01*
X115383333Y-104816666D01*
X115450000Y-104783333D01*
X115550000Y-104783333D01*
X115616666Y-104816666D01*
X115650000Y-104850000D01*
X115683333Y-104916666D01*
X115683333Y-105183333D01*
X116016666Y-104116666D02*
X116016666Y-104516666D01*
X116016666Y-104316666D02*
X115316666Y-104316666D01*
X115416666Y-104383333D01*
X115483333Y-104450000D01*
X115516666Y-104516666D01*
X115383333Y-103850000D02*
X115350000Y-103816666D01*
X115316666Y-103750000D01*
X115316666Y-103583333D01*
X115350000Y-103516666D01*
X115383333Y-103483333D01*
X115450000Y-103450000D01*
X115516666Y-103450000D01*
X115616666Y-103483333D01*
X116016666Y-103883333D01*
X116016666Y-103450000D01*
X115316666Y-103016666D02*
X115316666Y-102950000D01*
X115350000Y-102883333D01*
X115383333Y-102850000D01*
X115450000Y-102816666D01*
X115583333Y-102783333D01*
X115750000Y-102783333D01*
X115883333Y-102816666D01*
X115950000Y-102850000D01*
X115983333Y-102883333D01*
X116016666Y-102950000D01*
X116016666Y-103016666D01*
X115983333Y-103083333D01*
X115950000Y-103116666D01*
X115883333Y-103150000D01*
X115750000Y-103183333D01*
X115583333Y-103183333D01*
X115450000Y-103150000D01*
X115383333Y-103116666D01*
X115350000Y-103083333D01*
X115316666Y-103016666D01*
%TO.C,D103*%
X123116666Y-95116666D02*
X123116666Y-94416666D01*
X123283333Y-94416666D01*
X123383333Y-94450000D01*
X123450000Y-94516666D01*
X123483333Y-94583333D01*
X123516666Y-94716666D01*
X123516666Y-94816666D01*
X123483333Y-94950000D01*
X123450000Y-95016666D01*
X123383333Y-95083333D01*
X123283333Y-95116666D01*
X123116666Y-95116666D01*
X124183333Y-95116666D02*
X123783333Y-95116666D01*
X123983333Y-95116666D02*
X123983333Y-94416666D01*
X123916666Y-94516666D01*
X123850000Y-94583333D01*
X123783333Y-94616666D01*
X124616666Y-94416666D02*
X124683333Y-94416666D01*
X124750000Y-94450000D01*
X124783333Y-94483333D01*
X124816666Y-94550000D01*
X124850000Y-94683333D01*
X124850000Y-94850000D01*
X124816666Y-94983333D01*
X124783333Y-95050000D01*
X124750000Y-95083333D01*
X124683333Y-95116666D01*
X124616666Y-95116666D01*
X124550000Y-95083333D01*
X124516666Y-95050000D01*
X124483333Y-94983333D01*
X124450000Y-94850000D01*
X124450000Y-94683333D01*
X124483333Y-94550000D01*
X124516666Y-94483333D01*
X124550000Y-94450000D01*
X124616666Y-94416666D01*
X125083333Y-94416666D02*
X125516666Y-94416666D01*
X125283333Y-94683333D01*
X125383333Y-94683333D01*
X125450000Y-94716666D01*
X125483333Y-94750000D01*
X125516666Y-94816666D01*
X125516666Y-94983333D01*
X125483333Y-95050000D01*
X125450000Y-95083333D01*
X125383333Y-95116666D01*
X125183333Y-95116666D01*
X125116666Y-95083333D01*
X125083333Y-95050000D01*
%TO.C,D102*%
X117180666Y-110266666D02*
X117180666Y-109566666D01*
X117347333Y-109566666D01*
X117447333Y-109600000D01*
X117514000Y-109666666D01*
X117547333Y-109733333D01*
X117580666Y-109866666D01*
X117580666Y-109966666D01*
X117547333Y-110100000D01*
X117514000Y-110166666D01*
X117447333Y-110233333D01*
X117347333Y-110266666D01*
X117180666Y-110266666D01*
X118247333Y-110266666D02*
X117847333Y-110266666D01*
X118047333Y-110266666D02*
X118047333Y-109566666D01*
X117980666Y-109666666D01*
X117914000Y-109733333D01*
X117847333Y-109766666D01*
X118680666Y-109566666D02*
X118747333Y-109566666D01*
X118814000Y-109600000D01*
X118847333Y-109633333D01*
X118880666Y-109700000D01*
X118914000Y-109833333D01*
X118914000Y-110000000D01*
X118880666Y-110133333D01*
X118847333Y-110200000D01*
X118814000Y-110233333D01*
X118747333Y-110266666D01*
X118680666Y-110266666D01*
X118614000Y-110233333D01*
X118580666Y-110200000D01*
X118547333Y-110133333D01*
X118514000Y-110000000D01*
X118514000Y-109833333D01*
X118547333Y-109700000D01*
X118580666Y-109633333D01*
X118614000Y-109600000D01*
X118680666Y-109566666D01*
X119180666Y-109633333D02*
X119214000Y-109600000D01*
X119280666Y-109566666D01*
X119447333Y-109566666D01*
X119514000Y-109600000D01*
X119547333Y-109633333D01*
X119580666Y-109700000D01*
X119580666Y-109766666D01*
X119547333Y-109866666D01*
X119147333Y-110266666D01*
X119580666Y-110266666D01*
%TO.C,J104*%
X83800000Y-118516666D02*
X83800000Y-119016666D01*
X83766666Y-119116666D01*
X83700000Y-119183333D01*
X83600000Y-119216666D01*
X83533333Y-119216666D01*
X84500000Y-119216666D02*
X84100000Y-119216666D01*
X84300000Y-119216666D02*
X84300000Y-118516666D01*
X84233333Y-118616666D01*
X84166666Y-118683333D01*
X84100000Y-118716666D01*
X84933333Y-118516666D02*
X85000000Y-118516666D01*
X85066666Y-118550000D01*
X85100000Y-118583333D01*
X85133333Y-118650000D01*
X85166666Y-118783333D01*
X85166666Y-118950000D01*
X85133333Y-119083333D01*
X85100000Y-119150000D01*
X85066666Y-119183333D01*
X85000000Y-119216666D01*
X84933333Y-119216666D01*
X84866666Y-119183333D01*
X84833333Y-119150000D01*
X84800000Y-119083333D01*
X84766666Y-118950000D01*
X84766666Y-118783333D01*
X84800000Y-118650000D01*
X84833333Y-118583333D01*
X84866666Y-118550000D01*
X84933333Y-118516666D01*
X85766666Y-118750000D02*
X85766666Y-119216666D01*
X85600000Y-118483333D02*
X85433333Y-118983333D01*
X85866666Y-118983333D01*
%TO.C,R123*%
X117316666Y-104783333D02*
X116983333Y-105016666D01*
X117316666Y-105183333D02*
X116616666Y-105183333D01*
X116616666Y-104916666D01*
X116650000Y-104850000D01*
X116683333Y-104816666D01*
X116750000Y-104783333D01*
X116850000Y-104783333D01*
X116916666Y-104816666D01*
X116950000Y-104850000D01*
X116983333Y-104916666D01*
X116983333Y-105183333D01*
X117316666Y-104116666D02*
X117316666Y-104516666D01*
X117316666Y-104316666D02*
X116616666Y-104316666D01*
X116716666Y-104383333D01*
X116783333Y-104450000D01*
X116816666Y-104516666D01*
X116683333Y-103850000D02*
X116650000Y-103816666D01*
X116616666Y-103750000D01*
X116616666Y-103583333D01*
X116650000Y-103516666D01*
X116683333Y-103483333D01*
X116750000Y-103450000D01*
X116816666Y-103450000D01*
X116916666Y-103483333D01*
X117316666Y-103883333D01*
X117316666Y-103450000D01*
X116616666Y-103216666D02*
X116616666Y-102783333D01*
X116883333Y-103016666D01*
X116883333Y-102916666D01*
X116916666Y-102850000D01*
X116950000Y-102816666D01*
X117016666Y-102783333D01*
X117183333Y-102783333D01*
X117250000Y-102816666D01*
X117283333Y-102850000D01*
X117316666Y-102916666D01*
X117316666Y-103116666D01*
X117283333Y-103183333D01*
X117250000Y-103216666D01*
%TO.C,C120*%
X105134666Y-110859000D02*
X105101333Y-110892333D01*
X105001333Y-110925666D01*
X104934666Y-110925666D01*
X104834666Y-110892333D01*
X104768000Y-110825666D01*
X104734666Y-110759000D01*
X104701333Y-110625666D01*
X104701333Y-110525666D01*
X104734666Y-110392333D01*
X104768000Y-110325666D01*
X104834666Y-110259000D01*
X104934666Y-110225666D01*
X105001333Y-110225666D01*
X105101333Y-110259000D01*
X105134666Y-110292333D01*
X105801333Y-110925666D02*
X105401333Y-110925666D01*
X105601333Y-110925666D02*
X105601333Y-110225666D01*
X105534666Y-110325666D01*
X105468000Y-110392333D01*
X105401333Y-110425666D01*
X106068000Y-110292333D02*
X106101333Y-110259000D01*
X106168000Y-110225666D01*
X106334666Y-110225666D01*
X106401333Y-110259000D01*
X106434666Y-110292333D01*
X106468000Y-110359000D01*
X106468000Y-110425666D01*
X106434666Y-110525666D01*
X106034666Y-110925666D01*
X106468000Y-110925666D01*
X106901333Y-110225666D02*
X106968000Y-110225666D01*
X107034666Y-110259000D01*
X107068000Y-110292333D01*
X107101333Y-110359000D01*
X107134666Y-110492333D01*
X107134666Y-110659000D01*
X107101333Y-110792333D01*
X107068000Y-110859000D01*
X107034666Y-110892333D01*
X106968000Y-110925666D01*
X106901333Y-110925666D01*
X106834666Y-110892333D01*
X106801333Y-110859000D01*
X106768000Y-110792333D01*
X106734666Y-110659000D01*
X106734666Y-110492333D01*
X106768000Y-110359000D01*
X106801333Y-110292333D01*
X106834666Y-110259000D01*
X106901333Y-110225666D01*
%TO.C,C119*%
X90928000Y-114067333D02*
X90961333Y-114100666D01*
X90994666Y-114200666D01*
X90994666Y-114267333D01*
X90961333Y-114367333D01*
X90894666Y-114434000D01*
X90828000Y-114467333D01*
X90694666Y-114500666D01*
X90594666Y-114500666D01*
X90461333Y-114467333D01*
X90394666Y-114434000D01*
X90328000Y-114367333D01*
X90294666Y-114267333D01*
X90294666Y-114200666D01*
X90328000Y-114100666D01*
X90361333Y-114067333D01*
X90994666Y-113400666D02*
X90994666Y-113800666D01*
X90994666Y-113600666D02*
X90294666Y-113600666D01*
X90394666Y-113667333D01*
X90461333Y-113734000D01*
X90494666Y-113800666D01*
X90994666Y-112734000D02*
X90994666Y-113134000D01*
X90994666Y-112934000D02*
X90294666Y-112934000D01*
X90394666Y-113000666D01*
X90461333Y-113067333D01*
X90494666Y-113134000D01*
X90994666Y-112400666D02*
X90994666Y-112267333D01*
X90961333Y-112200666D01*
X90928000Y-112167333D01*
X90828000Y-112100666D01*
X90694666Y-112067333D01*
X90428000Y-112067333D01*
X90361333Y-112100666D01*
X90328000Y-112134000D01*
X90294666Y-112200666D01*
X90294666Y-112334000D01*
X90328000Y-112400666D01*
X90361333Y-112434000D01*
X90428000Y-112467333D01*
X90594666Y-112467333D01*
X90661333Y-112434000D01*
X90694666Y-112400666D01*
X90728000Y-112334000D01*
X90728000Y-112200666D01*
X90694666Y-112134000D01*
X90661333Y-112100666D01*
X90594666Y-112067333D01*
%TO.C,L101*%
X69316666Y-112883333D02*
X69316666Y-113216666D01*
X68616666Y-113216666D01*
X69316666Y-112283333D02*
X69316666Y-112683333D01*
X69316666Y-112483333D02*
X68616666Y-112483333D01*
X68716666Y-112550000D01*
X68783333Y-112616666D01*
X68816666Y-112683333D01*
X68616666Y-111850000D02*
X68616666Y-111783333D01*
X68650000Y-111716666D01*
X68683333Y-111683333D01*
X68750000Y-111650000D01*
X68883333Y-111616666D01*
X69050000Y-111616666D01*
X69183333Y-111650000D01*
X69250000Y-111683333D01*
X69283333Y-111716666D01*
X69316666Y-111783333D01*
X69316666Y-111850000D01*
X69283333Y-111916666D01*
X69250000Y-111950000D01*
X69183333Y-111983333D01*
X69050000Y-112016666D01*
X68883333Y-112016666D01*
X68750000Y-111983333D01*
X68683333Y-111950000D01*
X68650000Y-111916666D01*
X68616666Y-111850000D01*
X69316666Y-110950000D02*
X69316666Y-111350000D01*
X69316666Y-111150000D02*
X68616666Y-111150000D01*
X68716666Y-111216666D01*
X68783333Y-111283333D01*
X68816666Y-111350000D01*
%TO.C,J103*%
X99100000Y-65516666D02*
X99100000Y-66016666D01*
X99066666Y-66116666D01*
X99000000Y-66183333D01*
X98900000Y-66216666D01*
X98833333Y-66216666D01*
X99800000Y-66216666D02*
X99400000Y-66216666D01*
X99600000Y-66216666D02*
X99600000Y-65516666D01*
X99533333Y-65616666D01*
X99466666Y-65683333D01*
X99400000Y-65716666D01*
X100233333Y-65516666D02*
X100300000Y-65516666D01*
X100366666Y-65550000D01*
X100400000Y-65583333D01*
X100433333Y-65650000D01*
X100466666Y-65783333D01*
X100466666Y-65950000D01*
X100433333Y-66083333D01*
X100400000Y-66150000D01*
X100366666Y-66183333D01*
X100300000Y-66216666D01*
X100233333Y-66216666D01*
X100166666Y-66183333D01*
X100133333Y-66150000D01*
X100100000Y-66083333D01*
X100066666Y-65950000D01*
X100066666Y-65783333D01*
X100100000Y-65650000D01*
X100133333Y-65583333D01*
X100166666Y-65550000D01*
X100233333Y-65516666D01*
X100700000Y-65516666D02*
X101133333Y-65516666D01*
X100900000Y-65783333D01*
X101000000Y-65783333D01*
X101066666Y-65816666D01*
X101100000Y-65850000D01*
X101133333Y-65916666D01*
X101133333Y-66083333D01*
X101100000Y-66150000D01*
X101066666Y-66183333D01*
X101000000Y-66216666D01*
X100800000Y-66216666D01*
X100733333Y-66183333D01*
X100700000Y-66150000D01*
%TO.C,J101*%
X83800000Y-124516666D02*
X83800000Y-125016666D01*
X83766666Y-125116666D01*
X83700000Y-125183333D01*
X83600000Y-125216666D01*
X83533333Y-125216666D01*
X84500000Y-125216666D02*
X84100000Y-125216666D01*
X84300000Y-125216666D02*
X84300000Y-124516666D01*
X84233333Y-124616666D01*
X84166666Y-124683333D01*
X84100000Y-124716666D01*
X84933333Y-124516666D02*
X85000000Y-124516666D01*
X85066666Y-124550000D01*
X85100000Y-124583333D01*
X85133333Y-124650000D01*
X85166666Y-124783333D01*
X85166666Y-124950000D01*
X85133333Y-125083333D01*
X85100000Y-125150000D01*
X85066666Y-125183333D01*
X85000000Y-125216666D01*
X84933333Y-125216666D01*
X84866666Y-125183333D01*
X84833333Y-125150000D01*
X84800000Y-125083333D01*
X84766666Y-124950000D01*
X84766666Y-124783333D01*
X84800000Y-124650000D01*
X84833333Y-124583333D01*
X84866666Y-124550000D01*
X84933333Y-124516666D01*
X85833333Y-125216666D02*
X85433333Y-125216666D01*
X85633333Y-125216666D02*
X85633333Y-124516666D01*
X85566666Y-124616666D01*
X85500000Y-124683333D01*
X85433333Y-124716666D01*
%TO.C,R121*%
X118816666Y-101583333D02*
X118483333Y-101816666D01*
X118816666Y-101983333D02*
X118116666Y-101983333D01*
X118116666Y-101716666D01*
X118150000Y-101650000D01*
X118183333Y-101616666D01*
X118250000Y-101583333D01*
X118350000Y-101583333D01*
X118416666Y-101616666D01*
X118450000Y-101650000D01*
X118483333Y-101716666D01*
X118483333Y-101983333D01*
X118816666Y-100916666D02*
X118816666Y-101316666D01*
X118816666Y-101116666D02*
X118116666Y-101116666D01*
X118216666Y-101183333D01*
X118283333Y-101250000D01*
X118316666Y-101316666D01*
X118183333Y-100650000D02*
X118150000Y-100616666D01*
X118116666Y-100550000D01*
X118116666Y-100383333D01*
X118150000Y-100316666D01*
X118183333Y-100283333D01*
X118250000Y-100250000D01*
X118316666Y-100250000D01*
X118416666Y-100283333D01*
X118816666Y-100683333D01*
X118816666Y-100250000D01*
X118816666Y-99583333D02*
X118816666Y-99983333D01*
X118816666Y-99783333D02*
X118116666Y-99783333D01*
X118216666Y-99850000D01*
X118283333Y-99916666D01*
X118316666Y-99983333D01*
%TO.C,R119*%
X124946666Y-112316666D02*
X124713333Y-111983333D01*
X124546666Y-112316666D02*
X124546666Y-111616666D01*
X124813333Y-111616666D01*
X124880000Y-111650000D01*
X124913333Y-111683333D01*
X124946666Y-111750000D01*
X124946666Y-111850000D01*
X124913333Y-111916666D01*
X124880000Y-111950000D01*
X124813333Y-111983333D01*
X124546666Y-111983333D01*
X125613333Y-112316666D02*
X125213333Y-112316666D01*
X125413333Y-112316666D02*
X125413333Y-111616666D01*
X125346666Y-111716666D01*
X125280000Y-111783333D01*
X125213333Y-111816666D01*
X126280000Y-112316666D02*
X125880000Y-112316666D01*
X126080000Y-112316666D02*
X126080000Y-111616666D01*
X126013333Y-111716666D01*
X125946666Y-111783333D01*
X125880000Y-111816666D01*
X126613333Y-112316666D02*
X126746666Y-112316666D01*
X126813333Y-112283333D01*
X126846666Y-112250000D01*
X126913333Y-112150000D01*
X126946666Y-112016666D01*
X126946666Y-111750000D01*
X126913333Y-111683333D01*
X126880000Y-111650000D01*
X126813333Y-111616666D01*
X126680000Y-111616666D01*
X126613333Y-111650000D01*
X126580000Y-111683333D01*
X126546666Y-111750000D01*
X126546666Y-111916666D01*
X126580000Y-111983333D01*
X126613333Y-112016666D01*
X126680000Y-112050000D01*
X126813333Y-112050000D01*
X126880000Y-112016666D01*
X126913333Y-111983333D01*
X126946666Y-111916666D01*
%TO.C,R118*%
X124946666Y-110552666D02*
X124713333Y-110219333D01*
X124546666Y-110552666D02*
X124546666Y-109852666D01*
X124813333Y-109852666D01*
X124880000Y-109886000D01*
X124913333Y-109919333D01*
X124946666Y-109986000D01*
X124946666Y-110086000D01*
X124913333Y-110152666D01*
X124880000Y-110186000D01*
X124813333Y-110219333D01*
X124546666Y-110219333D01*
X125613333Y-110552666D02*
X125213333Y-110552666D01*
X125413333Y-110552666D02*
X125413333Y-109852666D01*
X125346666Y-109952666D01*
X125280000Y-110019333D01*
X125213333Y-110052666D01*
X126280000Y-110552666D02*
X125880000Y-110552666D01*
X126080000Y-110552666D02*
X126080000Y-109852666D01*
X126013333Y-109952666D01*
X125946666Y-110019333D01*
X125880000Y-110052666D01*
X126680000Y-110152666D02*
X126613333Y-110119333D01*
X126580000Y-110086000D01*
X126546666Y-110019333D01*
X126546666Y-109986000D01*
X126580000Y-109919333D01*
X126613333Y-109886000D01*
X126680000Y-109852666D01*
X126813333Y-109852666D01*
X126880000Y-109886000D01*
X126913333Y-109919333D01*
X126946666Y-109986000D01*
X126946666Y-110019333D01*
X126913333Y-110086000D01*
X126880000Y-110119333D01*
X126813333Y-110152666D01*
X126680000Y-110152666D01*
X126613333Y-110186000D01*
X126580000Y-110219333D01*
X126546666Y-110286000D01*
X126546666Y-110419333D01*
X126580000Y-110486000D01*
X126613333Y-110519333D01*
X126680000Y-110552666D01*
X126813333Y-110552666D01*
X126880000Y-110519333D01*
X126913333Y-110486000D01*
X126946666Y-110419333D01*
X126946666Y-110286000D01*
X126913333Y-110219333D01*
X126880000Y-110186000D01*
X126813333Y-110152666D01*
%TO.C,R117*%
X124946666Y-114016666D02*
X124713333Y-113683333D01*
X124546666Y-114016666D02*
X124546666Y-113316666D01*
X124813333Y-113316666D01*
X124880000Y-113350000D01*
X124913333Y-113383333D01*
X124946666Y-113450000D01*
X124946666Y-113550000D01*
X124913333Y-113616666D01*
X124880000Y-113650000D01*
X124813333Y-113683333D01*
X124546666Y-113683333D01*
X125613333Y-114016666D02*
X125213333Y-114016666D01*
X125413333Y-114016666D02*
X125413333Y-113316666D01*
X125346666Y-113416666D01*
X125280000Y-113483333D01*
X125213333Y-113516666D01*
X126280000Y-114016666D02*
X125880000Y-114016666D01*
X126080000Y-114016666D02*
X126080000Y-113316666D01*
X126013333Y-113416666D01*
X125946666Y-113483333D01*
X125880000Y-113516666D01*
X126513333Y-113316666D02*
X126980000Y-113316666D01*
X126680000Y-114016666D01*
%TO.C,J102*%
X124516666Y-100800000D02*
X125016666Y-100800000D01*
X125116666Y-100833333D01*
X125183333Y-100900000D01*
X125216666Y-101000000D01*
X125216666Y-101066666D01*
X125216666Y-100100000D02*
X125216666Y-100500000D01*
X125216666Y-100300000D02*
X124516666Y-100300000D01*
X124616666Y-100366666D01*
X124683333Y-100433333D01*
X124716666Y-100500000D01*
X124516666Y-99666666D02*
X124516666Y-99600000D01*
X124550000Y-99533333D01*
X124583333Y-99500000D01*
X124650000Y-99466666D01*
X124783333Y-99433333D01*
X124950000Y-99433333D01*
X125083333Y-99466666D01*
X125150000Y-99500000D01*
X125183333Y-99533333D01*
X125216666Y-99600000D01*
X125216666Y-99666666D01*
X125183333Y-99733333D01*
X125150000Y-99766666D01*
X125083333Y-99800000D01*
X124950000Y-99833333D01*
X124783333Y-99833333D01*
X124650000Y-99800000D01*
X124583333Y-99766666D01*
X124550000Y-99733333D01*
X124516666Y-99666666D01*
X124583333Y-99166666D02*
X124550000Y-99133333D01*
X124516666Y-99066666D01*
X124516666Y-98900000D01*
X124550000Y-98833333D01*
X124583333Y-98800000D01*
X124650000Y-98766666D01*
X124716666Y-98766666D01*
X124816666Y-98800000D01*
X125216666Y-99200000D01*
X125216666Y-98766666D01*
%TO.C,C108*%
X93516666Y-109850000D02*
X93483333Y-109883333D01*
X93383333Y-109916666D01*
X93316666Y-109916666D01*
X93216666Y-109883333D01*
X93150000Y-109816666D01*
X93116666Y-109750000D01*
X93083333Y-109616666D01*
X93083333Y-109516666D01*
X93116666Y-109383333D01*
X93150000Y-109316666D01*
X93216666Y-109250000D01*
X93316666Y-109216666D01*
X93383333Y-109216666D01*
X93483333Y-109250000D01*
X93516666Y-109283333D01*
X94183333Y-109916666D02*
X93783333Y-109916666D01*
X93983333Y-109916666D02*
X93983333Y-109216666D01*
X93916666Y-109316666D01*
X93850000Y-109383333D01*
X93783333Y-109416666D01*
X94616666Y-109216666D02*
X94683333Y-109216666D01*
X94750000Y-109250000D01*
X94783333Y-109283333D01*
X94816666Y-109350000D01*
X94850000Y-109483333D01*
X94850000Y-109650000D01*
X94816666Y-109783333D01*
X94783333Y-109850000D01*
X94750000Y-109883333D01*
X94683333Y-109916666D01*
X94616666Y-109916666D01*
X94550000Y-109883333D01*
X94516666Y-109850000D01*
X94483333Y-109783333D01*
X94450000Y-109650000D01*
X94450000Y-109483333D01*
X94483333Y-109350000D01*
X94516666Y-109283333D01*
X94550000Y-109250000D01*
X94616666Y-109216666D01*
X95250000Y-109516666D02*
X95183333Y-109483333D01*
X95150000Y-109450000D01*
X95116666Y-109383333D01*
X95116666Y-109350000D01*
X95150000Y-109283333D01*
X95183333Y-109250000D01*
X95250000Y-109216666D01*
X95383333Y-109216666D01*
X95450000Y-109250000D01*
X95483333Y-109283333D01*
X95516666Y-109350000D01*
X95516666Y-109383333D01*
X95483333Y-109450000D01*
X95450000Y-109483333D01*
X95383333Y-109516666D01*
X95250000Y-109516666D01*
X95183333Y-109550000D01*
X95150000Y-109583333D01*
X95116666Y-109650000D01*
X95116666Y-109783333D01*
X95150000Y-109850000D01*
X95183333Y-109883333D01*
X95250000Y-109916666D01*
X95383333Y-109916666D01*
X95450000Y-109883333D01*
X95483333Y-109850000D01*
X95516666Y-109783333D01*
X95516666Y-109650000D01*
X95483333Y-109583333D01*
X95450000Y-109550000D01*
X95383333Y-109516666D01*
%TO.C,C107*%
X108850000Y-103383333D02*
X108883333Y-103416666D01*
X108916666Y-103516666D01*
X108916666Y-103583333D01*
X108883333Y-103683333D01*
X108816666Y-103750000D01*
X108750000Y-103783333D01*
X108616666Y-103816666D01*
X108516666Y-103816666D01*
X108383333Y-103783333D01*
X108316666Y-103750000D01*
X108250000Y-103683333D01*
X108216666Y-103583333D01*
X108216666Y-103516666D01*
X108250000Y-103416666D01*
X108283333Y-103383333D01*
X108916666Y-102716666D02*
X108916666Y-103116666D01*
X108916666Y-102916666D02*
X108216666Y-102916666D01*
X108316666Y-102983333D01*
X108383333Y-103050000D01*
X108416666Y-103116666D01*
X108216666Y-102283333D02*
X108216666Y-102216666D01*
X108250000Y-102150000D01*
X108283333Y-102116666D01*
X108350000Y-102083333D01*
X108483333Y-102050000D01*
X108650000Y-102050000D01*
X108783333Y-102083333D01*
X108850000Y-102116666D01*
X108883333Y-102150000D01*
X108916666Y-102216666D01*
X108916666Y-102283333D01*
X108883333Y-102350000D01*
X108850000Y-102383333D01*
X108783333Y-102416666D01*
X108650000Y-102450000D01*
X108483333Y-102450000D01*
X108350000Y-102416666D01*
X108283333Y-102383333D01*
X108250000Y-102350000D01*
X108216666Y-102283333D01*
X108216666Y-101816666D02*
X108216666Y-101350000D01*
X108916666Y-101650000D01*
%TO.C,C106*%
X118516666Y-112650000D02*
X118483333Y-112683333D01*
X118383333Y-112716666D01*
X118316666Y-112716666D01*
X118216666Y-112683333D01*
X118150000Y-112616666D01*
X118116666Y-112550000D01*
X118083333Y-112416666D01*
X118083333Y-112316666D01*
X118116666Y-112183333D01*
X118150000Y-112116666D01*
X118216666Y-112050000D01*
X118316666Y-112016666D01*
X118383333Y-112016666D01*
X118483333Y-112050000D01*
X118516666Y-112083333D01*
X119183333Y-112716666D02*
X118783333Y-112716666D01*
X118983333Y-112716666D02*
X118983333Y-112016666D01*
X118916666Y-112116666D01*
X118850000Y-112183333D01*
X118783333Y-112216666D01*
X119616666Y-112016666D02*
X119683333Y-112016666D01*
X119750000Y-112050000D01*
X119783333Y-112083333D01*
X119816666Y-112150000D01*
X119850000Y-112283333D01*
X119850000Y-112450000D01*
X119816666Y-112583333D01*
X119783333Y-112650000D01*
X119750000Y-112683333D01*
X119683333Y-112716666D01*
X119616666Y-112716666D01*
X119550000Y-112683333D01*
X119516666Y-112650000D01*
X119483333Y-112583333D01*
X119450000Y-112450000D01*
X119450000Y-112283333D01*
X119483333Y-112150000D01*
X119516666Y-112083333D01*
X119550000Y-112050000D01*
X119616666Y-112016666D01*
X120450000Y-112016666D02*
X120316666Y-112016666D01*
X120250000Y-112050000D01*
X120216666Y-112083333D01*
X120150000Y-112183333D01*
X120116666Y-112316666D01*
X120116666Y-112583333D01*
X120150000Y-112650000D01*
X120183333Y-112683333D01*
X120250000Y-112716666D01*
X120383333Y-112716666D01*
X120450000Y-112683333D01*
X120483333Y-112650000D01*
X120516666Y-112583333D01*
X120516666Y-112416666D01*
X120483333Y-112350000D01*
X120450000Y-112316666D01*
X120383333Y-112283333D01*
X120250000Y-112283333D01*
X120183333Y-112316666D01*
X120150000Y-112350000D01*
X120116666Y-112416666D01*
%TO.C,C105*%
X105416666Y-109450000D02*
X105383333Y-109483333D01*
X105283333Y-109516666D01*
X105216666Y-109516666D01*
X105116666Y-109483333D01*
X105050000Y-109416666D01*
X105016666Y-109350000D01*
X104983333Y-109216666D01*
X104983333Y-109116666D01*
X105016666Y-108983333D01*
X105050000Y-108916666D01*
X105116666Y-108850000D01*
X105216666Y-108816666D01*
X105283333Y-108816666D01*
X105383333Y-108850000D01*
X105416666Y-108883333D01*
X106083333Y-109516666D02*
X105683333Y-109516666D01*
X105883333Y-109516666D02*
X105883333Y-108816666D01*
X105816666Y-108916666D01*
X105750000Y-108983333D01*
X105683333Y-109016666D01*
X106516666Y-108816666D02*
X106583333Y-108816666D01*
X106650000Y-108850000D01*
X106683333Y-108883333D01*
X106716666Y-108950000D01*
X106750000Y-109083333D01*
X106750000Y-109250000D01*
X106716666Y-109383333D01*
X106683333Y-109450000D01*
X106650000Y-109483333D01*
X106583333Y-109516666D01*
X106516666Y-109516666D01*
X106450000Y-109483333D01*
X106416666Y-109450000D01*
X106383333Y-109383333D01*
X106350000Y-109250000D01*
X106350000Y-109083333D01*
X106383333Y-108950000D01*
X106416666Y-108883333D01*
X106450000Y-108850000D01*
X106516666Y-108816666D01*
X107383333Y-108816666D02*
X107050000Y-108816666D01*
X107016666Y-109150000D01*
X107050000Y-109116666D01*
X107116666Y-109083333D01*
X107283333Y-109083333D01*
X107350000Y-109116666D01*
X107383333Y-109150000D01*
X107416666Y-109216666D01*
X107416666Y-109383333D01*
X107383333Y-109450000D01*
X107350000Y-109483333D01*
X107283333Y-109516666D01*
X107116666Y-109516666D01*
X107050000Y-109483333D01*
X107016666Y-109450000D01*
%TO.C,C104*%
X112516666Y-117150000D02*
X112483333Y-117183333D01*
X112383333Y-117216666D01*
X112316666Y-117216666D01*
X112216666Y-117183333D01*
X112150000Y-117116666D01*
X112116666Y-117050000D01*
X112083333Y-116916666D01*
X112083333Y-116816666D01*
X112116666Y-116683333D01*
X112150000Y-116616666D01*
X112216666Y-116550000D01*
X112316666Y-116516666D01*
X112383333Y-116516666D01*
X112483333Y-116550000D01*
X112516666Y-116583333D01*
X113183333Y-117216666D02*
X112783333Y-117216666D01*
X112983333Y-117216666D02*
X112983333Y-116516666D01*
X112916666Y-116616666D01*
X112850000Y-116683333D01*
X112783333Y-116716666D01*
X113616666Y-116516666D02*
X113683333Y-116516666D01*
X113750000Y-116550000D01*
X113783333Y-116583333D01*
X113816666Y-116650000D01*
X113850000Y-116783333D01*
X113850000Y-116950000D01*
X113816666Y-117083333D01*
X113783333Y-117150000D01*
X113750000Y-117183333D01*
X113683333Y-117216666D01*
X113616666Y-117216666D01*
X113550000Y-117183333D01*
X113516666Y-117150000D01*
X113483333Y-117083333D01*
X113450000Y-116950000D01*
X113450000Y-116783333D01*
X113483333Y-116650000D01*
X113516666Y-116583333D01*
X113550000Y-116550000D01*
X113616666Y-116516666D01*
X114450000Y-116750000D02*
X114450000Y-117216666D01*
X114283333Y-116483333D02*
X114116666Y-116983333D01*
X114550000Y-116983333D01*
%TO.C,C103*%
X127216666Y-119150000D02*
X127183333Y-119183333D01*
X127083333Y-119216666D01*
X127016666Y-119216666D01*
X126916666Y-119183333D01*
X126850000Y-119116666D01*
X126816666Y-119050000D01*
X126783333Y-118916666D01*
X126783333Y-118816666D01*
X126816666Y-118683333D01*
X126850000Y-118616666D01*
X126916666Y-118550000D01*
X127016666Y-118516666D01*
X127083333Y-118516666D01*
X127183333Y-118550000D01*
X127216666Y-118583333D01*
X127883333Y-119216666D02*
X127483333Y-119216666D01*
X127683333Y-119216666D02*
X127683333Y-118516666D01*
X127616666Y-118616666D01*
X127550000Y-118683333D01*
X127483333Y-118716666D01*
X128316666Y-118516666D02*
X128383333Y-118516666D01*
X128450000Y-118550000D01*
X128483333Y-118583333D01*
X128516666Y-118650000D01*
X128550000Y-118783333D01*
X128550000Y-118950000D01*
X128516666Y-119083333D01*
X128483333Y-119150000D01*
X128450000Y-119183333D01*
X128383333Y-119216666D01*
X128316666Y-119216666D01*
X128250000Y-119183333D01*
X128216666Y-119150000D01*
X128183333Y-119083333D01*
X128150000Y-118950000D01*
X128150000Y-118783333D01*
X128183333Y-118650000D01*
X128216666Y-118583333D01*
X128250000Y-118550000D01*
X128316666Y-118516666D01*
X128783333Y-118516666D02*
X129216666Y-118516666D01*
X128983333Y-118783333D01*
X129083333Y-118783333D01*
X129150000Y-118816666D01*
X129183333Y-118850000D01*
X129216666Y-118916666D01*
X129216666Y-119083333D01*
X129183333Y-119150000D01*
X129150000Y-119183333D01*
X129083333Y-119216666D01*
X128883333Y-119216666D01*
X128816666Y-119183333D01*
X128783333Y-119150000D01*
%TO.C,R116*%
X120416666Y-122958333D02*
X120083333Y-123191666D01*
X120416666Y-123358333D02*
X119716666Y-123358333D01*
X119716666Y-123091666D01*
X119750000Y-123025000D01*
X119783333Y-122991666D01*
X119850000Y-122958333D01*
X119950000Y-122958333D01*
X120016666Y-122991666D01*
X120050000Y-123025000D01*
X120083333Y-123091666D01*
X120083333Y-123358333D01*
X120416666Y-122291666D02*
X120416666Y-122691666D01*
X120416666Y-122491666D02*
X119716666Y-122491666D01*
X119816666Y-122558333D01*
X119883333Y-122625000D01*
X119916666Y-122691666D01*
X120416666Y-121625000D02*
X120416666Y-122025000D01*
X120416666Y-121825000D02*
X119716666Y-121825000D01*
X119816666Y-121891666D01*
X119883333Y-121958333D01*
X119916666Y-122025000D01*
X119716666Y-121025000D02*
X119716666Y-121158333D01*
X119750000Y-121225000D01*
X119783333Y-121258333D01*
X119883333Y-121325000D01*
X120016666Y-121358333D01*
X120283333Y-121358333D01*
X120350000Y-121325000D01*
X120383333Y-121291666D01*
X120416666Y-121225000D01*
X120416666Y-121091666D01*
X120383333Y-121025000D01*
X120350000Y-120991666D01*
X120283333Y-120958333D01*
X120116666Y-120958333D01*
X120050000Y-120991666D01*
X120016666Y-121025000D01*
X119983333Y-121091666D01*
X119983333Y-121225000D01*
X120016666Y-121291666D01*
X120050000Y-121325000D01*
X120116666Y-121358333D01*
%TO.C,R115*%
X118816666Y-123058333D02*
X118483333Y-123291666D01*
X118816666Y-123458333D02*
X118116666Y-123458333D01*
X118116666Y-123191666D01*
X118150000Y-123125000D01*
X118183333Y-123091666D01*
X118250000Y-123058333D01*
X118350000Y-123058333D01*
X118416666Y-123091666D01*
X118450000Y-123125000D01*
X118483333Y-123191666D01*
X118483333Y-123458333D01*
X118816666Y-122391666D02*
X118816666Y-122791666D01*
X118816666Y-122591666D02*
X118116666Y-122591666D01*
X118216666Y-122658333D01*
X118283333Y-122725000D01*
X118316666Y-122791666D01*
X118816666Y-121725000D02*
X118816666Y-122125000D01*
X118816666Y-121925000D02*
X118116666Y-121925000D01*
X118216666Y-121991666D01*
X118283333Y-122058333D01*
X118316666Y-122125000D01*
X118116666Y-121091666D02*
X118116666Y-121425000D01*
X118450000Y-121458333D01*
X118416666Y-121425000D01*
X118383333Y-121358333D01*
X118383333Y-121191666D01*
X118416666Y-121125000D01*
X118450000Y-121091666D01*
X118516666Y-121058333D01*
X118683333Y-121058333D01*
X118750000Y-121091666D01*
X118783333Y-121125000D01*
X118816666Y-121191666D01*
X118816666Y-121358333D01*
X118783333Y-121425000D01*
X118750000Y-121458333D01*
%TO.C,R114*%
X111716666Y-103783333D02*
X111383333Y-104016666D01*
X111716666Y-104183333D02*
X111016666Y-104183333D01*
X111016666Y-103916666D01*
X111050000Y-103850000D01*
X111083333Y-103816666D01*
X111150000Y-103783333D01*
X111250000Y-103783333D01*
X111316666Y-103816666D01*
X111350000Y-103850000D01*
X111383333Y-103916666D01*
X111383333Y-104183333D01*
X111716666Y-103116666D02*
X111716666Y-103516666D01*
X111716666Y-103316666D02*
X111016666Y-103316666D01*
X111116666Y-103383333D01*
X111183333Y-103450000D01*
X111216666Y-103516666D01*
X111716666Y-102450000D02*
X111716666Y-102850000D01*
X111716666Y-102650000D02*
X111016666Y-102650000D01*
X111116666Y-102716666D01*
X111183333Y-102783333D01*
X111216666Y-102850000D01*
X111250000Y-101850000D02*
X111716666Y-101850000D01*
X110983333Y-102016666D02*
X111483333Y-102183333D01*
X111483333Y-101750000D01*
%TO.C,R113*%
X109316666Y-103759333D02*
X108983333Y-103992666D01*
X109316666Y-104159333D02*
X108616666Y-104159333D01*
X108616666Y-103892666D01*
X108650000Y-103826000D01*
X108683333Y-103792666D01*
X108750000Y-103759333D01*
X108850000Y-103759333D01*
X108916666Y-103792666D01*
X108950000Y-103826000D01*
X108983333Y-103892666D01*
X108983333Y-104159333D01*
X109316666Y-103092666D02*
X109316666Y-103492666D01*
X109316666Y-103292666D02*
X108616666Y-103292666D01*
X108716666Y-103359333D01*
X108783333Y-103426000D01*
X108816666Y-103492666D01*
X109316666Y-102426000D02*
X109316666Y-102826000D01*
X109316666Y-102626000D02*
X108616666Y-102626000D01*
X108716666Y-102692666D01*
X108783333Y-102759333D01*
X108816666Y-102826000D01*
X108616666Y-102192666D02*
X108616666Y-101759333D01*
X108883333Y-101992666D01*
X108883333Y-101892666D01*
X108916666Y-101826000D01*
X108950000Y-101792666D01*
X109016666Y-101759333D01*
X109183333Y-101759333D01*
X109250000Y-101792666D01*
X109283333Y-101826000D01*
X109316666Y-101892666D01*
X109316666Y-102092666D01*
X109283333Y-102159333D01*
X109250000Y-102192666D01*
%TO.C,R112*%
X108016666Y-103759333D02*
X107683333Y-103992666D01*
X108016666Y-104159333D02*
X107316666Y-104159333D01*
X107316666Y-103892666D01*
X107350000Y-103826000D01*
X107383333Y-103792666D01*
X107450000Y-103759333D01*
X107550000Y-103759333D01*
X107616666Y-103792666D01*
X107650000Y-103826000D01*
X107683333Y-103892666D01*
X107683333Y-104159333D01*
X108016666Y-103092666D02*
X108016666Y-103492666D01*
X108016666Y-103292666D02*
X107316666Y-103292666D01*
X107416666Y-103359333D01*
X107483333Y-103426000D01*
X107516666Y-103492666D01*
X108016666Y-102426000D02*
X108016666Y-102826000D01*
X108016666Y-102626000D02*
X107316666Y-102626000D01*
X107416666Y-102692666D01*
X107483333Y-102759333D01*
X107516666Y-102826000D01*
X107383333Y-102159333D02*
X107350000Y-102126000D01*
X107316666Y-102059333D01*
X107316666Y-101892666D01*
X107350000Y-101826000D01*
X107383333Y-101792666D01*
X107450000Y-101759333D01*
X107516666Y-101759333D01*
X107616666Y-101792666D01*
X108016666Y-102192666D01*
X108016666Y-101759333D01*
%TO.C,R111*%
X111016666Y-123716666D02*
X110783333Y-123383333D01*
X110616666Y-123716666D02*
X110616666Y-123016666D01*
X110883333Y-123016666D01*
X110950000Y-123050000D01*
X110983333Y-123083333D01*
X111016666Y-123150000D01*
X111016666Y-123250000D01*
X110983333Y-123316666D01*
X110950000Y-123350000D01*
X110883333Y-123383333D01*
X110616666Y-123383333D01*
X111683333Y-123716666D02*
X111283333Y-123716666D01*
X111483333Y-123716666D02*
X111483333Y-123016666D01*
X111416666Y-123116666D01*
X111350000Y-123183333D01*
X111283333Y-123216666D01*
X112350000Y-123716666D02*
X111950000Y-123716666D01*
X112150000Y-123716666D02*
X112150000Y-123016666D01*
X112083333Y-123116666D01*
X112016666Y-123183333D01*
X111950000Y-123216666D01*
X113016666Y-123716666D02*
X112616666Y-123716666D01*
X112816666Y-123716666D02*
X112816666Y-123016666D01*
X112750000Y-123116666D01*
X112683333Y-123183333D01*
X112616666Y-123216666D01*
%TO.C,Q102*%
X105066666Y-102583333D02*
X105000000Y-102550000D01*
X104933333Y-102483333D01*
X104833333Y-102383333D01*
X104766666Y-102350000D01*
X104700000Y-102350000D01*
X104733333Y-102516666D02*
X104666666Y-102483333D01*
X104600000Y-102416666D01*
X104566666Y-102283333D01*
X104566666Y-102050000D01*
X104600000Y-101916666D01*
X104666666Y-101850000D01*
X104733333Y-101816666D01*
X104866666Y-101816666D01*
X104933333Y-101850000D01*
X105000000Y-101916666D01*
X105033333Y-102050000D01*
X105033333Y-102283333D01*
X105000000Y-102416666D01*
X104933333Y-102483333D01*
X104866666Y-102516666D01*
X104733333Y-102516666D01*
X105700000Y-102516666D02*
X105300000Y-102516666D01*
X105500000Y-102516666D02*
X105500000Y-101816666D01*
X105433333Y-101916666D01*
X105366666Y-101983333D01*
X105300000Y-102016666D01*
X106133333Y-101816666D02*
X106200000Y-101816666D01*
X106266666Y-101850000D01*
X106300000Y-101883333D01*
X106333333Y-101950000D01*
X106366666Y-102083333D01*
X106366666Y-102250000D01*
X106333333Y-102383333D01*
X106300000Y-102450000D01*
X106266666Y-102483333D01*
X106200000Y-102516666D01*
X106133333Y-102516666D01*
X106066666Y-102483333D01*
X106033333Y-102450000D01*
X106000000Y-102383333D01*
X105966666Y-102250000D01*
X105966666Y-102083333D01*
X106000000Y-101950000D01*
X106033333Y-101883333D01*
X106066666Y-101850000D01*
X106133333Y-101816666D01*
X106633333Y-101883333D02*
X106666666Y-101850000D01*
X106733333Y-101816666D01*
X106900000Y-101816666D01*
X106966666Y-101850000D01*
X107000000Y-101883333D01*
X107033333Y-101950000D01*
X107033333Y-102016666D01*
X107000000Y-102116666D01*
X106600000Y-102516666D01*
X107033333Y-102516666D01*
%TO.C,R108*%
X115216666Y-117183333D02*
X114883333Y-117416666D01*
X115216666Y-117583333D02*
X114516666Y-117583333D01*
X114516666Y-117316666D01*
X114550000Y-117250000D01*
X114583333Y-117216666D01*
X114650000Y-117183333D01*
X114750000Y-117183333D01*
X114816666Y-117216666D01*
X114850000Y-117250000D01*
X114883333Y-117316666D01*
X114883333Y-117583333D01*
X115216666Y-116516666D02*
X115216666Y-116916666D01*
X115216666Y-116716666D02*
X114516666Y-116716666D01*
X114616666Y-116783333D01*
X114683333Y-116850000D01*
X114716666Y-116916666D01*
X114516666Y-116083333D02*
X114516666Y-116016666D01*
X114550000Y-115950000D01*
X114583333Y-115916666D01*
X114650000Y-115883333D01*
X114783333Y-115850000D01*
X114950000Y-115850000D01*
X115083333Y-115883333D01*
X115150000Y-115916666D01*
X115183333Y-115950000D01*
X115216666Y-116016666D01*
X115216666Y-116083333D01*
X115183333Y-116150000D01*
X115150000Y-116183333D01*
X115083333Y-116216666D01*
X114950000Y-116250000D01*
X114783333Y-116250000D01*
X114650000Y-116216666D01*
X114583333Y-116183333D01*
X114550000Y-116150000D01*
X114516666Y-116083333D01*
X114816666Y-115450000D02*
X114783333Y-115516666D01*
X114750000Y-115550000D01*
X114683333Y-115583333D01*
X114650000Y-115583333D01*
X114583333Y-115550000D01*
X114550000Y-115516666D01*
X114516666Y-115450000D01*
X114516666Y-115316666D01*
X114550000Y-115250000D01*
X114583333Y-115216666D01*
X114650000Y-115183333D01*
X114683333Y-115183333D01*
X114750000Y-115216666D01*
X114783333Y-115250000D01*
X114816666Y-115316666D01*
X114816666Y-115450000D01*
X114850000Y-115516666D01*
X114883333Y-115550000D01*
X114950000Y-115583333D01*
X115083333Y-115583333D01*
X115150000Y-115550000D01*
X115183333Y-115516666D01*
X115216666Y-115450000D01*
X115216666Y-115316666D01*
X115183333Y-115250000D01*
X115150000Y-115216666D01*
X115083333Y-115183333D01*
X114950000Y-115183333D01*
X114883333Y-115216666D01*
X114850000Y-115250000D01*
X114816666Y-115316666D01*
%TO.C,R107*%
X121916666Y-119858333D02*
X121583333Y-120091666D01*
X121916666Y-120258333D02*
X121216666Y-120258333D01*
X121216666Y-119991666D01*
X121250000Y-119925000D01*
X121283333Y-119891666D01*
X121350000Y-119858333D01*
X121450000Y-119858333D01*
X121516666Y-119891666D01*
X121550000Y-119925000D01*
X121583333Y-119991666D01*
X121583333Y-120258333D01*
X121916666Y-119191666D02*
X121916666Y-119591666D01*
X121916666Y-119391666D02*
X121216666Y-119391666D01*
X121316666Y-119458333D01*
X121383333Y-119525000D01*
X121416666Y-119591666D01*
X121216666Y-118758333D02*
X121216666Y-118691666D01*
X121250000Y-118625000D01*
X121283333Y-118591666D01*
X121350000Y-118558333D01*
X121483333Y-118525000D01*
X121650000Y-118525000D01*
X121783333Y-118558333D01*
X121850000Y-118591666D01*
X121883333Y-118625000D01*
X121916666Y-118691666D01*
X121916666Y-118758333D01*
X121883333Y-118825000D01*
X121850000Y-118858333D01*
X121783333Y-118891666D01*
X121650000Y-118925000D01*
X121483333Y-118925000D01*
X121350000Y-118891666D01*
X121283333Y-118858333D01*
X121250000Y-118825000D01*
X121216666Y-118758333D01*
X121216666Y-118291666D02*
X121216666Y-117825000D01*
X121916666Y-118125000D01*
%TO.C,R106*%
X90216666Y-109916666D02*
X89983333Y-109583333D01*
X89816666Y-109916666D02*
X89816666Y-109216666D01*
X90083333Y-109216666D01*
X90150000Y-109250000D01*
X90183333Y-109283333D01*
X90216666Y-109350000D01*
X90216666Y-109450000D01*
X90183333Y-109516666D01*
X90150000Y-109550000D01*
X90083333Y-109583333D01*
X89816666Y-109583333D01*
X90883333Y-109916666D02*
X90483333Y-109916666D01*
X90683333Y-109916666D02*
X90683333Y-109216666D01*
X90616666Y-109316666D01*
X90550000Y-109383333D01*
X90483333Y-109416666D01*
X91316666Y-109216666D02*
X91383333Y-109216666D01*
X91450000Y-109250000D01*
X91483333Y-109283333D01*
X91516666Y-109350000D01*
X91550000Y-109483333D01*
X91550000Y-109650000D01*
X91516666Y-109783333D01*
X91483333Y-109850000D01*
X91450000Y-109883333D01*
X91383333Y-109916666D01*
X91316666Y-109916666D01*
X91250000Y-109883333D01*
X91216666Y-109850000D01*
X91183333Y-109783333D01*
X91150000Y-109650000D01*
X91150000Y-109483333D01*
X91183333Y-109350000D01*
X91216666Y-109283333D01*
X91250000Y-109250000D01*
X91316666Y-109216666D01*
X92150000Y-109216666D02*
X92016666Y-109216666D01*
X91950000Y-109250000D01*
X91916666Y-109283333D01*
X91850000Y-109383333D01*
X91816666Y-109516666D01*
X91816666Y-109783333D01*
X91850000Y-109850000D01*
X91883333Y-109883333D01*
X91950000Y-109916666D01*
X92083333Y-109916666D01*
X92150000Y-109883333D01*
X92183333Y-109850000D01*
X92216666Y-109783333D01*
X92216666Y-109616666D01*
X92183333Y-109550000D01*
X92150000Y-109516666D01*
X92083333Y-109483333D01*
X91950000Y-109483333D01*
X91883333Y-109516666D01*
X91850000Y-109550000D01*
X91816666Y-109616666D01*
%TO.C,R104*%
X126216666Y-120916666D02*
X125983333Y-120583333D01*
X125816666Y-120916666D02*
X125816666Y-120216666D01*
X126083333Y-120216666D01*
X126150000Y-120250000D01*
X126183333Y-120283333D01*
X126216666Y-120350000D01*
X126216666Y-120450000D01*
X126183333Y-120516666D01*
X126150000Y-120550000D01*
X126083333Y-120583333D01*
X125816666Y-120583333D01*
X126883333Y-120916666D02*
X126483333Y-120916666D01*
X126683333Y-120916666D02*
X126683333Y-120216666D01*
X126616666Y-120316666D01*
X126550000Y-120383333D01*
X126483333Y-120416666D01*
X127316666Y-120216666D02*
X127383333Y-120216666D01*
X127450000Y-120250000D01*
X127483333Y-120283333D01*
X127516666Y-120350000D01*
X127550000Y-120483333D01*
X127550000Y-120650000D01*
X127516666Y-120783333D01*
X127483333Y-120850000D01*
X127450000Y-120883333D01*
X127383333Y-120916666D01*
X127316666Y-120916666D01*
X127250000Y-120883333D01*
X127216666Y-120850000D01*
X127183333Y-120783333D01*
X127150000Y-120650000D01*
X127150000Y-120483333D01*
X127183333Y-120350000D01*
X127216666Y-120283333D01*
X127250000Y-120250000D01*
X127316666Y-120216666D01*
X128150000Y-120450000D02*
X128150000Y-120916666D01*
X127983333Y-120183333D02*
X127816666Y-120683333D01*
X128250000Y-120683333D01*
%TO.C,R103*%
X112754666Y-120630333D02*
X112421333Y-120863666D01*
X112754666Y-121030333D02*
X112054666Y-121030333D01*
X112054666Y-120763666D01*
X112088000Y-120697000D01*
X112121333Y-120663666D01*
X112188000Y-120630333D01*
X112288000Y-120630333D01*
X112354666Y-120663666D01*
X112388000Y-120697000D01*
X112421333Y-120763666D01*
X112421333Y-121030333D01*
X112754666Y-119963666D02*
X112754666Y-120363666D01*
X112754666Y-120163666D02*
X112054666Y-120163666D01*
X112154666Y-120230333D01*
X112221333Y-120297000D01*
X112254666Y-120363666D01*
X112054666Y-119530333D02*
X112054666Y-119463666D01*
X112088000Y-119397000D01*
X112121333Y-119363666D01*
X112188000Y-119330333D01*
X112321333Y-119297000D01*
X112488000Y-119297000D01*
X112621333Y-119330333D01*
X112688000Y-119363666D01*
X112721333Y-119397000D01*
X112754666Y-119463666D01*
X112754666Y-119530333D01*
X112721333Y-119597000D01*
X112688000Y-119630333D01*
X112621333Y-119663666D01*
X112488000Y-119697000D01*
X112321333Y-119697000D01*
X112188000Y-119663666D01*
X112121333Y-119630333D01*
X112088000Y-119597000D01*
X112054666Y-119530333D01*
X112054666Y-119063666D02*
X112054666Y-118630333D01*
X112321333Y-118863666D01*
X112321333Y-118763666D01*
X112354666Y-118697000D01*
X112388000Y-118663666D01*
X112454666Y-118630333D01*
X112621333Y-118630333D01*
X112688000Y-118663666D01*
X112721333Y-118697000D01*
X112754666Y-118763666D01*
X112754666Y-118963666D01*
X112721333Y-119030333D01*
X112688000Y-119063666D01*
%TO.C,R101*%
X105388666Y-122536666D02*
X105155333Y-122203333D01*
X104988666Y-122536666D02*
X104988666Y-121836666D01*
X105255333Y-121836666D01*
X105322000Y-121870000D01*
X105355333Y-121903333D01*
X105388666Y-121970000D01*
X105388666Y-122070000D01*
X105355333Y-122136666D01*
X105322000Y-122170000D01*
X105255333Y-122203333D01*
X104988666Y-122203333D01*
X106055333Y-122536666D02*
X105655333Y-122536666D01*
X105855333Y-122536666D02*
X105855333Y-121836666D01*
X105788666Y-121936666D01*
X105722000Y-122003333D01*
X105655333Y-122036666D01*
X106488666Y-121836666D02*
X106555333Y-121836666D01*
X106622000Y-121870000D01*
X106655333Y-121903333D01*
X106688666Y-121970000D01*
X106722000Y-122103333D01*
X106722000Y-122270000D01*
X106688666Y-122403333D01*
X106655333Y-122470000D01*
X106622000Y-122503333D01*
X106555333Y-122536666D01*
X106488666Y-122536666D01*
X106422000Y-122503333D01*
X106388666Y-122470000D01*
X106355333Y-122403333D01*
X106322000Y-122270000D01*
X106322000Y-122103333D01*
X106355333Y-121970000D01*
X106388666Y-121903333D01*
X106422000Y-121870000D01*
X106488666Y-121836666D01*
X107388666Y-122536666D02*
X106988666Y-122536666D01*
X107188666Y-122536666D02*
X107188666Y-121836666D01*
X107122000Y-121936666D01*
X107055333Y-122003333D01*
X106988666Y-122036666D01*
%TO.C,Q101*%
X100358666Y-116969333D02*
X100292000Y-116936000D01*
X100225333Y-116869333D01*
X100125333Y-116769333D01*
X100058666Y-116736000D01*
X99992000Y-116736000D01*
X100025333Y-116902666D02*
X99958666Y-116869333D01*
X99892000Y-116802666D01*
X99858666Y-116669333D01*
X99858666Y-116436000D01*
X99892000Y-116302666D01*
X99958666Y-116236000D01*
X100025333Y-116202666D01*
X100158666Y-116202666D01*
X100225333Y-116236000D01*
X100292000Y-116302666D01*
X100325333Y-116436000D01*
X100325333Y-116669333D01*
X100292000Y-116802666D01*
X100225333Y-116869333D01*
X100158666Y-116902666D01*
X100025333Y-116902666D01*
X100992000Y-116902666D02*
X100592000Y-116902666D01*
X100792000Y-116902666D02*
X100792000Y-116202666D01*
X100725333Y-116302666D01*
X100658666Y-116369333D01*
X100592000Y-116402666D01*
X101425333Y-116202666D02*
X101492000Y-116202666D01*
X101558666Y-116236000D01*
X101592000Y-116269333D01*
X101625333Y-116336000D01*
X101658666Y-116469333D01*
X101658666Y-116636000D01*
X101625333Y-116769333D01*
X101592000Y-116836000D01*
X101558666Y-116869333D01*
X101492000Y-116902666D01*
X101425333Y-116902666D01*
X101358666Y-116869333D01*
X101325333Y-116836000D01*
X101292000Y-116769333D01*
X101258666Y-116636000D01*
X101258666Y-116469333D01*
X101292000Y-116336000D01*
X101325333Y-116269333D01*
X101358666Y-116236000D01*
X101425333Y-116202666D01*
X102325333Y-116902666D02*
X101925333Y-116902666D01*
X102125333Y-116902666D02*
X102125333Y-116202666D01*
X102058666Y-116302666D01*
X101992000Y-116369333D01*
X101925333Y-116402666D01*
%TO.C,D101*%
X105616666Y-103416666D02*
X105616666Y-102716666D01*
X105783333Y-102716666D01*
X105883333Y-102750000D01*
X105950000Y-102816666D01*
X105983333Y-102883333D01*
X106016666Y-103016666D01*
X106016666Y-103116666D01*
X105983333Y-103250000D01*
X105950000Y-103316666D01*
X105883333Y-103383333D01*
X105783333Y-103416666D01*
X105616666Y-103416666D01*
X106683333Y-103416666D02*
X106283333Y-103416666D01*
X106483333Y-103416666D02*
X106483333Y-102716666D01*
X106416666Y-102816666D01*
X106350000Y-102883333D01*
X106283333Y-102916666D01*
X107116666Y-102716666D02*
X107183333Y-102716666D01*
X107250000Y-102750000D01*
X107283333Y-102783333D01*
X107316666Y-102850000D01*
X107350000Y-102983333D01*
X107350000Y-103150000D01*
X107316666Y-103283333D01*
X107283333Y-103350000D01*
X107250000Y-103383333D01*
X107183333Y-103416666D01*
X107116666Y-103416666D01*
X107050000Y-103383333D01*
X107016666Y-103350000D01*
X106983333Y-103283333D01*
X106950000Y-103150000D01*
X106950000Y-102983333D01*
X106983333Y-102850000D01*
X107016666Y-102783333D01*
X107050000Y-102750000D01*
X107116666Y-102716666D01*
X108016666Y-103416666D02*
X107616666Y-103416666D01*
X107816666Y-103416666D02*
X107816666Y-102716666D01*
X107750000Y-102816666D01*
X107683333Y-102883333D01*
X107616666Y-102916666D01*
%TO.C,C111*%
X93250000Y-115533333D02*
X93283333Y-115566666D01*
X93316666Y-115666666D01*
X93316666Y-115733333D01*
X93283333Y-115833333D01*
X93216666Y-115900000D01*
X93150000Y-115933333D01*
X93016666Y-115966666D01*
X92916666Y-115966666D01*
X92783333Y-115933333D01*
X92716666Y-115900000D01*
X92650000Y-115833333D01*
X92616666Y-115733333D01*
X92616666Y-115666666D01*
X92650000Y-115566666D01*
X92683333Y-115533333D01*
X93316666Y-114866666D02*
X93316666Y-115266666D01*
X93316666Y-115066666D02*
X92616666Y-115066666D01*
X92716666Y-115133333D01*
X92783333Y-115200000D01*
X92816666Y-115266666D01*
X93316666Y-114200000D02*
X93316666Y-114600000D01*
X93316666Y-114400000D02*
X92616666Y-114400000D01*
X92716666Y-114466666D01*
X92783333Y-114533333D01*
X92816666Y-114600000D01*
X93316666Y-113533333D02*
X93316666Y-113933333D01*
X93316666Y-113733333D02*
X92616666Y-113733333D01*
X92716666Y-113800000D01*
X92783333Y-113866666D01*
X92816666Y-113933333D01*
%TO.C,C109*%
X100916666Y-85225000D02*
X100883333Y-85258333D01*
X100783333Y-85291666D01*
X100716666Y-85291666D01*
X100616666Y-85258333D01*
X100550000Y-85191666D01*
X100516666Y-85125000D01*
X100483333Y-84991666D01*
X100483333Y-84891666D01*
X100516666Y-84758333D01*
X100550000Y-84691666D01*
X100616666Y-84625000D01*
X100716666Y-84591666D01*
X100783333Y-84591666D01*
X100883333Y-84625000D01*
X100916666Y-84658333D01*
X101583333Y-85291666D02*
X101183333Y-85291666D01*
X101383333Y-85291666D02*
X101383333Y-84591666D01*
X101316666Y-84691666D01*
X101250000Y-84758333D01*
X101183333Y-84791666D01*
X102016666Y-84591666D02*
X102083333Y-84591666D01*
X102150000Y-84625000D01*
X102183333Y-84658333D01*
X102216666Y-84725000D01*
X102250000Y-84858333D01*
X102250000Y-85025000D01*
X102216666Y-85158333D01*
X102183333Y-85225000D01*
X102150000Y-85258333D01*
X102083333Y-85291666D01*
X102016666Y-85291666D01*
X101950000Y-85258333D01*
X101916666Y-85225000D01*
X101883333Y-85158333D01*
X101850000Y-85025000D01*
X101850000Y-84858333D01*
X101883333Y-84725000D01*
X101916666Y-84658333D01*
X101950000Y-84625000D01*
X102016666Y-84591666D01*
X102583333Y-85291666D02*
X102716666Y-85291666D01*
X102783333Y-85258333D01*
X102816666Y-85225000D01*
X102883333Y-85125000D01*
X102916666Y-84991666D01*
X102916666Y-84725000D01*
X102883333Y-84658333D01*
X102850000Y-84625000D01*
X102783333Y-84591666D01*
X102650000Y-84591666D01*
X102583333Y-84625000D01*
X102550000Y-84658333D01*
X102516666Y-84725000D01*
X102516666Y-84891666D01*
X102550000Y-84958333D01*
X102583333Y-84991666D01*
X102650000Y-85025000D01*
X102783333Y-85025000D01*
X102850000Y-84991666D01*
X102883333Y-84958333D01*
X102916666Y-84891666D01*
%TO.C,C101*%
X106422000Y-117623333D02*
X106455333Y-117656666D01*
X106488666Y-117756666D01*
X106488666Y-117823333D01*
X106455333Y-117923333D01*
X106388666Y-117990000D01*
X106322000Y-118023333D01*
X106188666Y-118056666D01*
X106088666Y-118056666D01*
X105955333Y-118023333D01*
X105888666Y-117990000D01*
X105822000Y-117923333D01*
X105788666Y-117823333D01*
X105788666Y-117756666D01*
X105822000Y-117656666D01*
X105855333Y-117623333D01*
X106488666Y-116956666D02*
X106488666Y-117356666D01*
X106488666Y-117156666D02*
X105788666Y-117156666D01*
X105888666Y-117223333D01*
X105955333Y-117290000D01*
X105988666Y-117356666D01*
X105788666Y-116523333D02*
X105788666Y-116456666D01*
X105822000Y-116390000D01*
X105855333Y-116356666D01*
X105922000Y-116323333D01*
X106055333Y-116290000D01*
X106222000Y-116290000D01*
X106355333Y-116323333D01*
X106422000Y-116356666D01*
X106455333Y-116390000D01*
X106488666Y-116456666D01*
X106488666Y-116523333D01*
X106455333Y-116590000D01*
X106422000Y-116623333D01*
X106355333Y-116656666D01*
X106222000Y-116690000D01*
X106055333Y-116690000D01*
X105922000Y-116656666D01*
X105855333Y-116623333D01*
X105822000Y-116590000D01*
X105788666Y-116523333D01*
X106488666Y-115623333D02*
X106488666Y-116023333D01*
X106488666Y-115823333D02*
X105788666Y-115823333D01*
X105888666Y-115890000D01*
X105955333Y-115956666D01*
X105988666Y-116023333D01*
%TD*%
M02*
