%TF.GenerationSoftware,KiCad,Pcbnew,(5.1.7)-1*%
%TF.CreationDate,2021-06-10T19:06:36+03:00*%
%TF.ProjectId,SynchronousBuck,53796e63-6872-46f6-9e6f-75734275636b,rev?*%
%TF.SameCoordinates,Original*%
%TF.FileFunction,Legend,Bot*%
%TF.FilePolarity,Positive*%
%FSLAX46Y46*%
G04 Gerber Fmt 4.6, Leading zero omitted, Abs format (unit mm)*
G04 Created by KiCad (PCBNEW (5.1.7)-1) date 2021-06-10 19:06:36*
%MOMM*%
%LPD*%
G01*
G04 APERTURE LIST*
%ADD10C,0.150000*%
%ADD11C,0.500000*%
%ADD12C,0.300000*%
%ADD13C,0.010000*%
%ADD14C,0.200000*%
%ADD15C,0.100000*%
G04 APERTURE END LIST*
D10*
X129947619Y-81954761D02*
X129804761Y-82002380D01*
X129566666Y-82002380D01*
X129471428Y-81954761D01*
X129423809Y-81907142D01*
X129376190Y-81811904D01*
X129376190Y-81716666D01*
X129423809Y-81621428D01*
X129471428Y-81573809D01*
X129566666Y-81526190D01*
X129757142Y-81478571D01*
X129852380Y-81430952D01*
X129900000Y-81383333D01*
X129947619Y-81288095D01*
X129947619Y-81192857D01*
X129900000Y-81097619D01*
X129852380Y-81050000D01*
X129757142Y-81002380D01*
X129519047Y-81002380D01*
X129376190Y-81050000D01*
X128947619Y-82002380D02*
X128947619Y-81002380D01*
X128376190Y-82002380D01*
X128376190Y-81002380D01*
X127900000Y-81907142D02*
X127852380Y-81954761D01*
X127900000Y-82002380D01*
X127947619Y-81954761D01*
X127900000Y-81907142D01*
X127900000Y-82002380D01*
X127900000Y-81383333D02*
X127852380Y-81430952D01*
X127900000Y-81478571D01*
X127947619Y-81430952D01*
X127900000Y-81383333D01*
X127900000Y-81478571D01*
D11*
X105085714Y-60185714D02*
X102800000Y-60185714D01*
X103942857Y-59042857D02*
X103942857Y-61328571D01*
X96800000Y-60185714D02*
X94514285Y-60185714D01*
D12*
X137535714Y-87432142D02*
X137321428Y-87503571D01*
X136964285Y-87503571D01*
X136821428Y-87432142D01*
X136750000Y-87360714D01*
X136678571Y-87217857D01*
X136678571Y-87075000D01*
X136750000Y-86932142D01*
X136821428Y-86860714D01*
X136964285Y-86789285D01*
X137250000Y-86717857D01*
X137392857Y-86646428D01*
X137464285Y-86575000D01*
X137535714Y-86432142D01*
X137535714Y-86289285D01*
X137464285Y-86146428D01*
X137392857Y-86075000D01*
X137250000Y-86003571D01*
X136892857Y-86003571D01*
X136678571Y-86075000D01*
X136178571Y-86503571D02*
X135821428Y-87503571D01*
X135464285Y-86503571D02*
X135821428Y-87503571D01*
X135964285Y-87860714D01*
X136035714Y-87932142D01*
X136178571Y-88003571D01*
X134892857Y-86503571D02*
X134892857Y-87503571D01*
X134892857Y-86646428D02*
X134821428Y-86575000D01*
X134678571Y-86503571D01*
X134464285Y-86503571D01*
X134321428Y-86575000D01*
X134250000Y-86717857D01*
X134250000Y-87503571D01*
X132892857Y-87432142D02*
X133035714Y-87503571D01*
X133321428Y-87503571D01*
X133464285Y-87432142D01*
X133535714Y-87360714D01*
X133607142Y-87217857D01*
X133607142Y-86789285D01*
X133535714Y-86646428D01*
X133464285Y-86575000D01*
X133321428Y-86503571D01*
X133035714Y-86503571D01*
X132892857Y-86575000D01*
X132250000Y-87503571D02*
X132250000Y-86003571D01*
X131607142Y-87503571D02*
X131607142Y-86717857D01*
X131678571Y-86575000D01*
X131821428Y-86503571D01*
X132035714Y-86503571D01*
X132178571Y-86575000D01*
X132250000Y-86646428D01*
X130892857Y-87503571D02*
X130892857Y-86503571D01*
X130892857Y-86789285D02*
X130821428Y-86646428D01*
X130750000Y-86575000D01*
X130607142Y-86503571D01*
X130464285Y-86503571D01*
X129750000Y-87503571D02*
X129892857Y-87432142D01*
X129964285Y-87360714D01*
X130035714Y-87217857D01*
X130035714Y-86789285D01*
X129964285Y-86646428D01*
X129892857Y-86575000D01*
X129750000Y-86503571D01*
X129535714Y-86503571D01*
X129392857Y-86575000D01*
X129321428Y-86646428D01*
X129250000Y-86789285D01*
X129250000Y-87217857D01*
X129321428Y-87360714D01*
X129392857Y-87432142D01*
X129535714Y-87503571D01*
X129750000Y-87503571D01*
X128607142Y-86503571D02*
X128607142Y-87503571D01*
X128607142Y-86646428D02*
X128535714Y-86575000D01*
X128392857Y-86503571D01*
X128178571Y-86503571D01*
X128035714Y-86575000D01*
X127964285Y-86717857D01*
X127964285Y-87503571D01*
X127035714Y-87503571D02*
X127178571Y-87432142D01*
X127250000Y-87360714D01*
X127321428Y-87217857D01*
X127321428Y-86789285D01*
X127250000Y-86646428D01*
X127178571Y-86575000D01*
X127035714Y-86503571D01*
X126821428Y-86503571D01*
X126678571Y-86575000D01*
X126607142Y-86646428D01*
X126535714Y-86789285D01*
X126535714Y-87217857D01*
X126607142Y-87360714D01*
X126678571Y-87432142D01*
X126821428Y-87503571D01*
X127035714Y-87503571D01*
X125250000Y-86503571D02*
X125250000Y-87503571D01*
X125892857Y-86503571D02*
X125892857Y-87289285D01*
X125821428Y-87432142D01*
X125678571Y-87503571D01*
X125464285Y-87503571D01*
X125321428Y-87432142D01*
X125250000Y-87360714D01*
X124607142Y-87432142D02*
X124464285Y-87503571D01*
X124178571Y-87503571D01*
X124035714Y-87432142D01*
X123964285Y-87289285D01*
X123964285Y-87217857D01*
X124035714Y-87075000D01*
X124178571Y-87003571D01*
X124392857Y-87003571D01*
X124535714Y-86932142D01*
X124607142Y-86789285D01*
X124607142Y-86717857D01*
X124535714Y-86575000D01*
X124392857Y-86503571D01*
X124178571Y-86503571D01*
X124035714Y-86575000D01*
X121678571Y-86717857D02*
X121464285Y-86789285D01*
X121392857Y-86860714D01*
X121321428Y-87003571D01*
X121321428Y-87217857D01*
X121392857Y-87360714D01*
X121464285Y-87432142D01*
X121607142Y-87503571D01*
X122178571Y-87503571D01*
X122178571Y-86003571D01*
X121678571Y-86003571D01*
X121535714Y-86075000D01*
X121464285Y-86146428D01*
X121392857Y-86289285D01*
X121392857Y-86432142D01*
X121464285Y-86575000D01*
X121535714Y-86646428D01*
X121678571Y-86717857D01*
X122178571Y-86717857D01*
X120035714Y-86503571D02*
X120035714Y-87503571D01*
X120678571Y-86503571D02*
X120678571Y-87289285D01*
X120607142Y-87432142D01*
X120464285Y-87503571D01*
X120250000Y-87503571D01*
X120107142Y-87432142D01*
X120035714Y-87360714D01*
X118678571Y-87432142D02*
X118821428Y-87503571D01*
X119107142Y-87503571D01*
X119250000Y-87432142D01*
X119321428Y-87360714D01*
X119392857Y-87217857D01*
X119392857Y-86789285D01*
X119321428Y-86646428D01*
X119250000Y-86575000D01*
X119107142Y-86503571D01*
X118821428Y-86503571D01*
X118678571Y-86575000D01*
X118035714Y-87503571D02*
X118035714Y-86003571D01*
X117892857Y-86932142D02*
X117464285Y-87503571D01*
X117464285Y-86503571D02*
X118035714Y-87075000D01*
X115892857Y-86003571D02*
X115392857Y-87503571D01*
X114892857Y-86003571D01*
X113607142Y-87503571D02*
X114464285Y-87503571D01*
X114035714Y-87503571D02*
X114035714Y-86003571D01*
X114178571Y-86217857D01*
X114321428Y-86360714D01*
X114464285Y-86432142D01*
X112964285Y-87360714D02*
X112892857Y-87432142D01*
X112964285Y-87503571D01*
X113035714Y-87432142D01*
X112964285Y-87360714D01*
X112964285Y-87503571D01*
X111964285Y-86003571D02*
X111821428Y-86003571D01*
X111678571Y-86075000D01*
X111607142Y-86146428D01*
X111535714Y-86289285D01*
X111464285Y-86575000D01*
X111464285Y-86932142D01*
X111535714Y-87217857D01*
X111607142Y-87360714D01*
X111678571Y-87432142D01*
X111821428Y-87503571D01*
X111964285Y-87503571D01*
X112107142Y-87432142D01*
X112178571Y-87360714D01*
X112250000Y-87217857D01*
X112321428Y-86932142D01*
X112321428Y-86575000D01*
X112250000Y-86289285D01*
X112178571Y-86146428D01*
X112107142Y-86075000D01*
X111964285Y-86003571D01*
X133214285Y-89267857D02*
X133714285Y-89267857D01*
X133714285Y-90053571D02*
X133714285Y-88553571D01*
X133000000Y-88553571D01*
X132428571Y-90053571D02*
X132428571Y-89053571D01*
X132428571Y-88553571D02*
X132500000Y-88625000D01*
X132428571Y-88696428D01*
X132357142Y-88625000D01*
X132428571Y-88553571D01*
X132428571Y-88696428D01*
X131714285Y-89053571D02*
X131714285Y-90053571D01*
X131714285Y-89196428D02*
X131642857Y-89125000D01*
X131500000Y-89053571D01*
X131285714Y-89053571D01*
X131142857Y-89125000D01*
X131071428Y-89267857D01*
X131071428Y-90053571D01*
X129714285Y-90053571D02*
X129714285Y-88553571D01*
X129714285Y-89982142D02*
X129857142Y-90053571D01*
X130142857Y-90053571D01*
X130285714Y-89982142D01*
X130357142Y-89910714D01*
X130428571Y-89767857D01*
X130428571Y-89339285D01*
X130357142Y-89196428D01*
X130285714Y-89125000D01*
X130142857Y-89053571D01*
X129857142Y-89053571D01*
X129714285Y-89125000D01*
X128428571Y-89982142D02*
X128571428Y-90053571D01*
X128857142Y-90053571D01*
X129000000Y-89982142D01*
X129071428Y-89839285D01*
X129071428Y-89267857D01*
X129000000Y-89125000D01*
X128857142Y-89053571D01*
X128571428Y-89053571D01*
X128428571Y-89125000D01*
X128357142Y-89267857D01*
X128357142Y-89410714D01*
X129071428Y-89553571D01*
X127714285Y-90053571D02*
X127714285Y-89053571D01*
X127714285Y-89339285D02*
X127642857Y-89196428D01*
X127571428Y-89125000D01*
X127428571Y-89053571D01*
X127285714Y-89053571D01*
X126857142Y-89982142D02*
X126714285Y-90053571D01*
X126428571Y-90053571D01*
X126285714Y-89982142D01*
X126214285Y-89839285D01*
X126214285Y-89767857D01*
X126285714Y-89625000D01*
X126428571Y-89553571D01*
X126642857Y-89553571D01*
X126785714Y-89482142D01*
X126857142Y-89339285D01*
X126857142Y-89267857D01*
X126785714Y-89125000D01*
X126642857Y-89053571D01*
X126428571Y-89053571D01*
X126285714Y-89125000D01*
X125000000Y-89982142D02*
X125142857Y-90053571D01*
X125428571Y-90053571D01*
X125571428Y-89982142D01*
X125642857Y-89839285D01*
X125642857Y-89267857D01*
X125571428Y-89125000D01*
X125428571Y-89053571D01*
X125142857Y-89053571D01*
X125000000Y-89125000D01*
X124928571Y-89267857D01*
X124928571Y-89410714D01*
X125642857Y-89553571D01*
X123714285Y-89982142D02*
X123857142Y-90053571D01*
X124142857Y-90053571D01*
X124285714Y-89982142D01*
X124357142Y-89839285D01*
X124357142Y-89267857D01*
X124285714Y-89125000D01*
X124142857Y-89053571D01*
X123857142Y-89053571D01*
X123714285Y-89125000D01*
X123642857Y-89267857D01*
X123642857Y-89410714D01*
X124357142Y-89553571D01*
X121928571Y-88696428D02*
X121857142Y-88625000D01*
X121714285Y-88553571D01*
X121357142Y-88553571D01*
X121214285Y-88625000D01*
X121142857Y-88696428D01*
X121071428Y-88839285D01*
X121071428Y-88982142D01*
X121142857Y-89196428D01*
X122000000Y-90053571D01*
X121071428Y-90053571D01*
X120571428Y-88553571D02*
X119642857Y-88553571D01*
X120142857Y-89125000D01*
X119928571Y-89125000D01*
X119785714Y-89196428D01*
X119714285Y-89267857D01*
X119642857Y-89410714D01*
X119642857Y-89767857D01*
X119714285Y-89910714D01*
X119785714Y-89982142D01*
X119928571Y-90053571D01*
X120357142Y-90053571D01*
X120500000Y-89982142D01*
X120571428Y-89910714D01*
X117928571Y-88482142D02*
X119214285Y-90410714D01*
X117500000Y-88696428D02*
X117428571Y-88625000D01*
X117285714Y-88553571D01*
X116928571Y-88553571D01*
X116785714Y-88625000D01*
X116714285Y-88696428D01*
X116642857Y-88839285D01*
X116642857Y-88982142D01*
X116714285Y-89196428D01*
X117571428Y-90053571D01*
X116642857Y-90053571D01*
X115214285Y-90053571D02*
X116071428Y-90053571D01*
X115642857Y-90053571D02*
X115642857Y-88553571D01*
X115785714Y-88767857D01*
X115928571Y-88910714D01*
X116071428Y-88982142D01*
D11*
X89985714Y-116585714D02*
X87700000Y-116585714D01*
X88842857Y-115442857D02*
X88842857Y-117728571D01*
X81700000Y-116585714D02*
X79414285Y-116585714D01*
D13*
%TO.C,G\u002A\u002A\u002A*%
G36*
X70647741Y-82207805D02*
G01*
X70248319Y-82208936D01*
X69905860Y-82210917D01*
X69625803Y-82213733D01*
X69413591Y-82217367D01*
X69274665Y-82221804D01*
X69214466Y-82227026D01*
X69213084Y-82227540D01*
X69189193Y-82245940D01*
X69171029Y-82281074D01*
X69157821Y-82343432D01*
X69148796Y-82443501D01*
X69143182Y-82591772D01*
X69140206Y-82798733D01*
X69139097Y-83074873D01*
X69139000Y-83233744D01*
X69139000Y-84202843D01*
X67498584Y-84218953D01*
X67081513Y-84223193D01*
X66739246Y-84227326D01*
X66461923Y-84231956D01*
X66239684Y-84237690D01*
X66062668Y-84245132D01*
X65921018Y-84254888D01*
X65804871Y-84267562D01*
X65704369Y-84283759D01*
X65609652Y-84304086D01*
X65510859Y-84329147D01*
X65453860Y-84344451D01*
X64827641Y-84555219D01*
X64247400Y-84834684D01*
X63716998Y-85179487D01*
X63240298Y-85586267D01*
X62821160Y-86051666D01*
X62463447Y-86572323D01*
X62171021Y-87144879D01*
X62133996Y-87232670D01*
X62013407Y-87544099D01*
X61924171Y-87823710D01*
X61862145Y-88094515D01*
X61823183Y-88379524D01*
X61803141Y-88701746D01*
X61797874Y-89084191D01*
X61797905Y-89098500D01*
X61799758Y-89383428D01*
X61804883Y-89603025D01*
X61815145Y-89776616D01*
X61832408Y-89923525D01*
X61858537Y-90063075D01*
X61895399Y-90214591D01*
X61911474Y-90275111D01*
X62121912Y-90902345D01*
X62401893Y-91483574D01*
X62748515Y-92015295D01*
X63158878Y-92494006D01*
X63630079Y-92916202D01*
X64159218Y-93278381D01*
X64587705Y-93506326D01*
X64915890Y-93646648D01*
X65255826Y-93759767D01*
X65619618Y-93847683D01*
X66019368Y-93912396D01*
X66467180Y-93955906D01*
X66975157Y-93980213D01*
X67498584Y-93987329D01*
X67732904Y-93989497D01*
X67934563Y-93995077D01*
X68089713Y-94003384D01*
X68184508Y-94013730D01*
X68207667Y-94022479D01*
X68191369Y-94069316D01*
X68145564Y-94182643D01*
X68074886Y-94351473D01*
X67983970Y-94564819D01*
X67877450Y-94811693D01*
X67792518Y-95006729D01*
X67377368Y-95956500D01*
X66143883Y-95967718D01*
X64910398Y-95978937D01*
X64685783Y-95796742D01*
X64528988Y-95656013D01*
X64393669Y-95500541D01*
X64268841Y-95313807D01*
X64143519Y-95079293D01*
X64006718Y-94780480D01*
X64000620Y-94766420D01*
X63881798Y-94509388D01*
X63776917Y-94324981D01*
X63678319Y-94203957D01*
X63578345Y-94137075D01*
X63469336Y-94115096D01*
X63460717Y-94115000D01*
X63321036Y-94152898D01*
X63195844Y-94250048D01*
X63109678Y-94381636D01*
X63085334Y-94494635D01*
X63103822Y-94590518D01*
X63154332Y-94743983D01*
X63229435Y-94937700D01*
X63321701Y-95154337D01*
X63423698Y-95376566D01*
X63527996Y-95587054D01*
X63627167Y-95768472D01*
X63642774Y-95794831D01*
X63772632Y-95974590D01*
X63954275Y-96176902D01*
X64166793Y-96380914D01*
X64389275Y-96565777D01*
X64488570Y-96638202D01*
X64665459Y-96760833D01*
X66214313Y-96761796D01*
X66425485Y-96761771D01*
X66715784Y-96761493D01*
X67079669Y-96760974D01*
X67511602Y-96760228D01*
X68006043Y-96759268D01*
X68557453Y-96758107D01*
X69160291Y-96756758D01*
X69809018Y-96755234D01*
X70498095Y-96753549D01*
X71221982Y-96751714D01*
X71975139Y-96749743D01*
X72752028Y-96747649D01*
X73547107Y-96745445D01*
X74354838Y-96743145D01*
X75169682Y-96740761D01*
X75213834Y-96740630D01*
X76002435Y-96738098D01*
X76768637Y-96735266D01*
X77508115Y-96732167D01*
X78216545Y-96728833D01*
X78889601Y-96725296D01*
X79522960Y-96721589D01*
X80112297Y-96717743D01*
X80653287Y-96713792D01*
X81141606Y-96709768D01*
X81572929Y-96705702D01*
X81942932Y-96701628D01*
X82247290Y-96697577D01*
X82481679Y-96693582D01*
X82641774Y-96689675D01*
X82723251Y-96685889D01*
X82732850Y-96684421D01*
X82832519Y-96592513D01*
X82882657Y-96458153D01*
X82884517Y-96306638D01*
X82839351Y-96163260D01*
X82748413Y-96053314D01*
X82700174Y-96024668D01*
X82631028Y-96011152D01*
X82486975Y-95999988D01*
X82266256Y-95991133D01*
X81967110Y-95984540D01*
X81587780Y-95980166D01*
X81126505Y-95977966D01*
X80846704Y-95977666D01*
X80394593Y-95977118D01*
X80020912Y-95975349D01*
X79719433Y-95972173D01*
X79483928Y-95967404D01*
X79308166Y-95960857D01*
X79185919Y-95952345D01*
X79114086Y-95942128D01*
X78791000Y-95942128D01*
X78749491Y-95946464D01*
X78628257Y-95950648D01*
X78432242Y-95954648D01*
X78166387Y-95958434D01*
X77835635Y-95961974D01*
X77444928Y-95965236D01*
X76999210Y-95968188D01*
X76503421Y-95970800D01*
X75962505Y-95973039D01*
X75381404Y-95974874D01*
X74765061Y-95976273D01*
X74118417Y-95977205D01*
X73446415Y-95977638D01*
X73224167Y-95977666D01*
X72545012Y-95977535D01*
X71889615Y-95977152D01*
X71262917Y-95976532D01*
X70669861Y-95975692D01*
X70115390Y-95974647D01*
X69604445Y-95973412D01*
X69141970Y-95972003D01*
X68732906Y-95970437D01*
X68382196Y-95968727D01*
X68094783Y-95966891D01*
X67875609Y-95964943D01*
X67729615Y-95962899D01*
X67661746Y-95960775D01*
X67657334Y-95960073D01*
X67673531Y-95918045D01*
X67719084Y-95809096D01*
X67789437Y-95643882D01*
X67880032Y-95433060D01*
X67986314Y-95187286D01*
X68078195Y-94975823D01*
X68499056Y-94009166D01*
X77963477Y-94009166D01*
X78377239Y-94957878D01*
X78491930Y-95222250D01*
X78594416Y-95461167D01*
X78680066Y-95663613D01*
X78744250Y-95818574D01*
X78782337Y-95915033D01*
X78791000Y-95942128D01*
X79114086Y-95942128D01*
X79110957Y-95941683D01*
X79077053Y-95928684D01*
X79074129Y-95924750D01*
X79051480Y-95872412D01*
X78999872Y-95753952D01*
X78924300Y-95580809D01*
X78829759Y-95364420D01*
X78721244Y-95116225D01*
X78646023Y-94944271D01*
X78533107Y-94684864D01*
X78433173Y-94452707D01*
X78350747Y-94258528D01*
X78290357Y-94113060D01*
X78256528Y-94027033D01*
X78251006Y-94007962D01*
X78294484Y-94004684D01*
X78411239Y-94000004D01*
X78589902Y-93994265D01*
X78819102Y-93987809D01*
X79087469Y-93980981D01*
X79341334Y-93975063D01*
X79807272Y-93961419D01*
X80190933Y-93943112D01*
X80494587Y-93919997D01*
X80720502Y-93891925D01*
X80772782Y-93882646D01*
X81069675Y-93812698D01*
X81394479Y-93715764D01*
X81713598Y-93603084D01*
X81993438Y-93485902D01*
X82071834Y-93447960D01*
X82573513Y-93149824D01*
X83047724Y-92781321D01*
X83481282Y-92355534D01*
X83861002Y-91885550D01*
X84173700Y-91384452D01*
X84198638Y-91337251D01*
X84342101Y-91040159D01*
X84459543Y-90744727D01*
X84556624Y-90431545D01*
X84639010Y-90081203D01*
X84712363Y-89674288D01*
X84743734Y-89468916D01*
X84763837Y-89331333D01*
X85142919Y-89331333D01*
X85338932Y-89335137D01*
X85460053Y-89347430D01*
X85515752Y-89369535D01*
X85522032Y-89384250D01*
X85514110Y-89443522D01*
X85492390Y-89568718D01*
X85459978Y-89742799D01*
X85419979Y-89948726D01*
X85409941Y-89999263D01*
X85363372Y-90243689D01*
X85335724Y-90419907D01*
X85325618Y-90541906D01*
X85331678Y-90623674D01*
X85344482Y-90663774D01*
X85448184Y-90798959D01*
X85599535Y-90883262D01*
X85778376Y-90916504D01*
X85964549Y-90898504D01*
X86137898Y-90829086D01*
X86278263Y-90708068D01*
X86304168Y-90672299D01*
X86326914Y-90629394D01*
X86335003Y-90579729D01*
X86330354Y-90547137D01*
X86072334Y-90547137D01*
X86035571Y-90611574D01*
X85943327Y-90653882D01*
X85822669Y-90670756D01*
X85700663Y-90658890D01*
X85604376Y-90614978D01*
X85593963Y-90605562D01*
X85585296Y-90550572D01*
X85591841Y-90435586D01*
X85609998Y-90283155D01*
X85636164Y-90115834D01*
X85666738Y-89956176D01*
X85698118Y-89826732D01*
X85726704Y-89750057D01*
X85731681Y-89743136D01*
X85756233Y-89767117D01*
X85802010Y-89851458D01*
X85860934Y-89977089D01*
X85924923Y-90124938D01*
X85985896Y-90275933D01*
X86035773Y-90411002D01*
X86066474Y-90511073D01*
X86072334Y-90547137D01*
X86330354Y-90547137D01*
X86324979Y-90509456D01*
X86293387Y-90404726D01*
X86236773Y-90251689D01*
X86151680Y-90036498D01*
X86135424Y-89995954D01*
X86053335Y-89788635D01*
X85983970Y-89608173D01*
X85932945Y-89469597D01*
X85905876Y-89387932D01*
X85903001Y-89374064D01*
X85941263Y-89350543D01*
X86039915Y-89335028D01*
X86133473Y-89331333D01*
X86347754Y-89305381D01*
X86495965Y-89226957D01*
X86579149Y-89095211D01*
X86599576Y-88950333D01*
X86567827Y-88775177D01*
X86471886Y-88654026D01*
X86310712Y-88586030D01*
X86133473Y-88569333D01*
X86006610Y-88562239D01*
X85922928Y-88543948D01*
X85903000Y-88526601D01*
X85918057Y-88473992D01*
X85959481Y-88358016D01*
X86021658Y-88193702D01*
X86098970Y-87996077D01*
X86135424Y-87904712D01*
X86225326Y-87678447D01*
X86286205Y-87516523D01*
X86321516Y-87405091D01*
X86330722Y-87352915D01*
X86072334Y-87352915D01*
X86057562Y-87421912D01*
X86018626Y-87537679D01*
X85963599Y-87681152D01*
X85900551Y-87833267D01*
X85837554Y-87974958D01*
X85782679Y-88087163D01*
X85743997Y-88150815D01*
X85731681Y-88157530D01*
X85711411Y-88103878D01*
X85681437Y-87987247D01*
X85646748Y-87828039D01*
X85628775Y-87736639D01*
X85599328Y-87562352D01*
X85581679Y-87418264D01*
X85578076Y-87325336D01*
X85582392Y-87304362D01*
X85653684Y-87252146D01*
X85764825Y-87230377D01*
X85888434Y-87236343D01*
X85997128Y-87267331D01*
X86063526Y-87320626D01*
X86072334Y-87352915D01*
X86330722Y-87352915D01*
X86334713Y-87330301D01*
X86329253Y-87278304D01*
X86308590Y-87235253D01*
X86304168Y-87228366D01*
X86174425Y-87095255D01*
X86006984Y-87013784D01*
X85822004Y-86983774D01*
X85639643Y-87005048D01*
X85480057Y-87077424D01*
X85363404Y-87200725D01*
X85344482Y-87236892D01*
X85328122Y-87299140D01*
X85326982Y-87392013D01*
X85342438Y-87529502D01*
X85375868Y-87725595D01*
X85409941Y-87901403D01*
X85451257Y-88112285D01*
X85485706Y-88295276D01*
X85510184Y-88433337D01*
X85521586Y-88509428D01*
X85522032Y-88516416D01*
X85495434Y-88543186D01*
X85409295Y-88559991D01*
X85254038Y-88568105D01*
X85124641Y-88569333D01*
X84727281Y-88569333D01*
X84698292Y-88368250D01*
X84568434Y-87758681D01*
X84361004Y-87173818D01*
X84081315Y-86621093D01*
X83734681Y-86107940D01*
X83326415Y-85641790D01*
X82861831Y-85230079D01*
X82346244Y-84880237D01*
X82113382Y-84752318D01*
X81685111Y-84557796D01*
X81238308Y-84400641D01*
X80794571Y-84286739D01*
X80375500Y-84221974D01*
X80118955Y-84209000D01*
X79891667Y-84209000D01*
X79891667Y-84717000D01*
X80076622Y-84717000D01*
X80207911Y-84724557D01*
X80387449Y-84744559D01*
X80580429Y-84772998D01*
X80616372Y-84779135D01*
X81200604Y-84923002D01*
X81749877Y-85141080D01*
X82258971Y-85428309D01*
X82722664Y-85779629D01*
X83135736Y-86189978D01*
X83492966Y-86654296D01*
X83789132Y-87167523D01*
X84019015Y-87724597D01*
X84153836Y-88208045D01*
X84187123Y-88419772D01*
X84209411Y-88689099D01*
X84220409Y-88989639D01*
X84219826Y-89295004D01*
X84207370Y-89578809D01*
X84182750Y-89814664D01*
X84172248Y-89875737D01*
X84016942Y-90458349D01*
X83788804Y-91006035D01*
X83493508Y-91513104D01*
X83136725Y-91973868D01*
X82724129Y-92382637D01*
X82261391Y-92733721D01*
X81754184Y-93021431D01*
X81208181Y-93240078D01*
X80684680Y-93373796D01*
X80594279Y-93382815D01*
X80425013Y-93391229D01*
X80182356Y-93399037D01*
X79871780Y-93406239D01*
X79498759Y-93412836D01*
X79068765Y-93418828D01*
X78587272Y-93424215D01*
X78059753Y-93428996D01*
X77491681Y-93433173D01*
X76888528Y-93436745D01*
X76255769Y-93439712D01*
X75598875Y-93442075D01*
X74923321Y-93443833D01*
X74234579Y-93444988D01*
X73538122Y-93445538D01*
X72839424Y-93445484D01*
X72143957Y-93444827D01*
X71457195Y-93443565D01*
X70784611Y-93441701D01*
X70131677Y-93439232D01*
X69503867Y-93436161D01*
X68906654Y-93432486D01*
X68345511Y-93428209D01*
X67825911Y-93423328D01*
X67353327Y-93417845D01*
X66933233Y-93411759D01*
X66571101Y-93405071D01*
X66272404Y-93397781D01*
X66042615Y-93389888D01*
X65887209Y-93381393D01*
X65816377Y-93373431D01*
X65221689Y-93210038D01*
X64678046Y-92980839D01*
X64179474Y-92682613D01*
X63719997Y-92312138D01*
X63559770Y-92157188D01*
X63184743Y-91735857D01*
X62883885Y-91301343D01*
X62646853Y-90835332D01*
X62463303Y-90319508D01*
X62408382Y-90118311D01*
X62356169Y-89904951D01*
X62329058Y-89758979D01*
X62329495Y-89666204D01*
X62359927Y-89612436D01*
X62422797Y-89583483D01*
X62503250Y-89567834D01*
X62637838Y-89537679D01*
X62834668Y-89481786D01*
X63077322Y-89405743D01*
X63349383Y-89315137D01*
X63634433Y-89215555D01*
X63916056Y-89112584D01*
X64177833Y-89011811D01*
X64376500Y-88930342D01*
X64934765Y-88675787D01*
X65412835Y-88419648D01*
X65815087Y-88156260D01*
X66145895Y-87879957D01*
X66409633Y-87585075D01*
X66610677Y-87265949D01*
X66753401Y-86916914D01*
X66842180Y-86532304D01*
X66879990Y-86121641D01*
X66628272Y-86121641D01*
X66594176Y-86508606D01*
X66519004Y-86842838D01*
X66399123Y-87136782D01*
X66230903Y-87402882D01*
X66060987Y-87602076D01*
X65881176Y-87778463D01*
X65691974Y-87935155D01*
X65476171Y-88083927D01*
X65216551Y-88236555D01*
X64895904Y-88404812D01*
X64864352Y-88420679D01*
X64582613Y-88555690D01*
X64273049Y-88693250D01*
X63948541Y-88828615D01*
X63621970Y-88957039D01*
X63306218Y-89073779D01*
X63014166Y-89174089D01*
X62758694Y-89253224D01*
X62552684Y-89306439D01*
X62409017Y-89328990D01*
X62397417Y-89329398D01*
X62281000Y-89331333D01*
X62281000Y-89019378D01*
X62289239Y-88817586D01*
X62310896Y-88582301D01*
X62341384Y-88362758D01*
X62343136Y-88352628D01*
X62487160Y-87765987D01*
X62704614Y-87214462D01*
X62990062Y-86703508D01*
X63338066Y-86238583D01*
X63743191Y-85825142D01*
X64199999Y-85468640D01*
X64703053Y-85174533D01*
X65246917Y-84948277D01*
X65826153Y-84795328D01*
X65901944Y-84781432D01*
X66087600Y-84751758D01*
X66257599Y-84729304D01*
X66382804Y-84717776D01*
X66408472Y-84717000D01*
X66495475Y-84723792D01*
X66540492Y-84759760D01*
X66564849Y-84848283D01*
X66572576Y-84896916D01*
X66584435Y-85006263D01*
X66597762Y-85178318D01*
X66611071Y-85391175D01*
X66622878Y-85622928D01*
X66624923Y-85669500D01*
X66628272Y-86121641D01*
X66879990Y-86121641D01*
X66881389Y-86106454D01*
X66878252Y-85690666D01*
X66866430Y-85462687D01*
X66852492Y-85242592D01*
X66838249Y-85056719D01*
X66826518Y-84939250D01*
X66798874Y-84717000D01*
X79849334Y-84717000D01*
X79849334Y-84209000D01*
X77353228Y-84209000D01*
X77333349Y-82487214D01*
X77097667Y-82487214D01*
X77097667Y-84209447D01*
X69414167Y-84187833D01*
X69402725Y-83309416D01*
X69391283Y-82431000D01*
X70672725Y-82431038D01*
X70960466Y-82431549D01*
X71319878Y-82433004D01*
X71737969Y-82435308D01*
X72201750Y-82438367D01*
X72698230Y-82442085D01*
X73214418Y-82446368D01*
X73737325Y-82451122D01*
X74253961Y-82456251D01*
X74525917Y-82459145D01*
X77097667Y-82487214D01*
X77333349Y-82487214D01*
X77330500Y-82240500D01*
X73308834Y-82215467D01*
X72706221Y-82212106D01*
X72133364Y-82209675D01*
X71595705Y-82208158D01*
X71098683Y-82207540D01*
X70647741Y-82207805D01*
G37*
X70647741Y-82207805D02*
X70248319Y-82208936D01*
X69905860Y-82210917D01*
X69625803Y-82213733D01*
X69413591Y-82217367D01*
X69274665Y-82221804D01*
X69214466Y-82227026D01*
X69213084Y-82227540D01*
X69189193Y-82245940D01*
X69171029Y-82281074D01*
X69157821Y-82343432D01*
X69148796Y-82443501D01*
X69143182Y-82591772D01*
X69140206Y-82798733D01*
X69139097Y-83074873D01*
X69139000Y-83233744D01*
X69139000Y-84202843D01*
X67498584Y-84218953D01*
X67081513Y-84223193D01*
X66739246Y-84227326D01*
X66461923Y-84231956D01*
X66239684Y-84237690D01*
X66062668Y-84245132D01*
X65921018Y-84254888D01*
X65804871Y-84267562D01*
X65704369Y-84283759D01*
X65609652Y-84304086D01*
X65510859Y-84329147D01*
X65453860Y-84344451D01*
X64827641Y-84555219D01*
X64247400Y-84834684D01*
X63716998Y-85179487D01*
X63240298Y-85586267D01*
X62821160Y-86051666D01*
X62463447Y-86572323D01*
X62171021Y-87144879D01*
X62133996Y-87232670D01*
X62013407Y-87544099D01*
X61924171Y-87823710D01*
X61862145Y-88094515D01*
X61823183Y-88379524D01*
X61803141Y-88701746D01*
X61797874Y-89084191D01*
X61797905Y-89098500D01*
X61799758Y-89383428D01*
X61804883Y-89603025D01*
X61815145Y-89776616D01*
X61832408Y-89923525D01*
X61858537Y-90063075D01*
X61895399Y-90214591D01*
X61911474Y-90275111D01*
X62121912Y-90902345D01*
X62401893Y-91483574D01*
X62748515Y-92015295D01*
X63158878Y-92494006D01*
X63630079Y-92916202D01*
X64159218Y-93278381D01*
X64587705Y-93506326D01*
X64915890Y-93646648D01*
X65255826Y-93759767D01*
X65619618Y-93847683D01*
X66019368Y-93912396D01*
X66467180Y-93955906D01*
X66975157Y-93980213D01*
X67498584Y-93987329D01*
X67732904Y-93989497D01*
X67934563Y-93995077D01*
X68089713Y-94003384D01*
X68184508Y-94013730D01*
X68207667Y-94022479D01*
X68191369Y-94069316D01*
X68145564Y-94182643D01*
X68074886Y-94351473D01*
X67983970Y-94564819D01*
X67877450Y-94811693D01*
X67792518Y-95006729D01*
X67377368Y-95956500D01*
X66143883Y-95967718D01*
X64910398Y-95978937D01*
X64685783Y-95796742D01*
X64528988Y-95656013D01*
X64393669Y-95500541D01*
X64268841Y-95313807D01*
X64143519Y-95079293D01*
X64006718Y-94780480D01*
X64000620Y-94766420D01*
X63881798Y-94509388D01*
X63776917Y-94324981D01*
X63678319Y-94203957D01*
X63578345Y-94137075D01*
X63469336Y-94115096D01*
X63460717Y-94115000D01*
X63321036Y-94152898D01*
X63195844Y-94250048D01*
X63109678Y-94381636D01*
X63085334Y-94494635D01*
X63103822Y-94590518D01*
X63154332Y-94743983D01*
X63229435Y-94937700D01*
X63321701Y-95154337D01*
X63423698Y-95376566D01*
X63527996Y-95587054D01*
X63627167Y-95768472D01*
X63642774Y-95794831D01*
X63772632Y-95974590D01*
X63954275Y-96176902D01*
X64166793Y-96380914D01*
X64389275Y-96565777D01*
X64488570Y-96638202D01*
X64665459Y-96760833D01*
X66214313Y-96761796D01*
X66425485Y-96761771D01*
X66715784Y-96761493D01*
X67079669Y-96760974D01*
X67511602Y-96760228D01*
X68006043Y-96759268D01*
X68557453Y-96758107D01*
X69160291Y-96756758D01*
X69809018Y-96755234D01*
X70498095Y-96753549D01*
X71221982Y-96751714D01*
X71975139Y-96749743D01*
X72752028Y-96747649D01*
X73547107Y-96745445D01*
X74354838Y-96743145D01*
X75169682Y-96740761D01*
X75213834Y-96740630D01*
X76002435Y-96738098D01*
X76768637Y-96735266D01*
X77508115Y-96732167D01*
X78216545Y-96728833D01*
X78889601Y-96725296D01*
X79522960Y-96721589D01*
X80112297Y-96717743D01*
X80653287Y-96713792D01*
X81141606Y-96709768D01*
X81572929Y-96705702D01*
X81942932Y-96701628D01*
X82247290Y-96697577D01*
X82481679Y-96693582D01*
X82641774Y-96689675D01*
X82723251Y-96685889D01*
X82732850Y-96684421D01*
X82832519Y-96592513D01*
X82882657Y-96458153D01*
X82884517Y-96306638D01*
X82839351Y-96163260D01*
X82748413Y-96053314D01*
X82700174Y-96024668D01*
X82631028Y-96011152D01*
X82486975Y-95999988D01*
X82266256Y-95991133D01*
X81967110Y-95984540D01*
X81587780Y-95980166D01*
X81126505Y-95977966D01*
X80846704Y-95977666D01*
X80394593Y-95977118D01*
X80020912Y-95975349D01*
X79719433Y-95972173D01*
X79483928Y-95967404D01*
X79308166Y-95960857D01*
X79185919Y-95952345D01*
X79114086Y-95942128D01*
X78791000Y-95942128D01*
X78749491Y-95946464D01*
X78628257Y-95950648D01*
X78432242Y-95954648D01*
X78166387Y-95958434D01*
X77835635Y-95961974D01*
X77444928Y-95965236D01*
X76999210Y-95968188D01*
X76503421Y-95970800D01*
X75962505Y-95973039D01*
X75381404Y-95974874D01*
X74765061Y-95976273D01*
X74118417Y-95977205D01*
X73446415Y-95977638D01*
X73224167Y-95977666D01*
X72545012Y-95977535D01*
X71889615Y-95977152D01*
X71262917Y-95976532D01*
X70669861Y-95975692D01*
X70115390Y-95974647D01*
X69604445Y-95973412D01*
X69141970Y-95972003D01*
X68732906Y-95970437D01*
X68382196Y-95968727D01*
X68094783Y-95966891D01*
X67875609Y-95964943D01*
X67729615Y-95962899D01*
X67661746Y-95960775D01*
X67657334Y-95960073D01*
X67673531Y-95918045D01*
X67719084Y-95809096D01*
X67789437Y-95643882D01*
X67880032Y-95433060D01*
X67986314Y-95187286D01*
X68078195Y-94975823D01*
X68499056Y-94009166D01*
X77963477Y-94009166D01*
X78377239Y-94957878D01*
X78491930Y-95222250D01*
X78594416Y-95461167D01*
X78680066Y-95663613D01*
X78744250Y-95818574D01*
X78782337Y-95915033D01*
X78791000Y-95942128D01*
X79114086Y-95942128D01*
X79110957Y-95941683D01*
X79077053Y-95928684D01*
X79074129Y-95924750D01*
X79051480Y-95872412D01*
X78999872Y-95753952D01*
X78924300Y-95580809D01*
X78829759Y-95364420D01*
X78721244Y-95116225D01*
X78646023Y-94944271D01*
X78533107Y-94684864D01*
X78433173Y-94452707D01*
X78350747Y-94258528D01*
X78290357Y-94113060D01*
X78256528Y-94027033D01*
X78251006Y-94007962D01*
X78294484Y-94004684D01*
X78411239Y-94000004D01*
X78589902Y-93994265D01*
X78819102Y-93987809D01*
X79087469Y-93980981D01*
X79341334Y-93975063D01*
X79807272Y-93961419D01*
X80190933Y-93943112D01*
X80494587Y-93919997D01*
X80720502Y-93891925D01*
X80772782Y-93882646D01*
X81069675Y-93812698D01*
X81394479Y-93715764D01*
X81713598Y-93603084D01*
X81993438Y-93485902D01*
X82071834Y-93447960D01*
X82573513Y-93149824D01*
X83047724Y-92781321D01*
X83481282Y-92355534D01*
X83861002Y-91885550D01*
X84173700Y-91384452D01*
X84198638Y-91337251D01*
X84342101Y-91040159D01*
X84459543Y-90744727D01*
X84556624Y-90431545D01*
X84639010Y-90081203D01*
X84712363Y-89674288D01*
X84743734Y-89468916D01*
X84763837Y-89331333D01*
X85142919Y-89331333D01*
X85338932Y-89335137D01*
X85460053Y-89347430D01*
X85515752Y-89369535D01*
X85522032Y-89384250D01*
X85514110Y-89443522D01*
X85492390Y-89568718D01*
X85459978Y-89742799D01*
X85419979Y-89948726D01*
X85409941Y-89999263D01*
X85363372Y-90243689D01*
X85335724Y-90419907D01*
X85325618Y-90541906D01*
X85331678Y-90623674D01*
X85344482Y-90663774D01*
X85448184Y-90798959D01*
X85599535Y-90883262D01*
X85778376Y-90916504D01*
X85964549Y-90898504D01*
X86137898Y-90829086D01*
X86278263Y-90708068D01*
X86304168Y-90672299D01*
X86326914Y-90629394D01*
X86335003Y-90579729D01*
X86330354Y-90547137D01*
X86072334Y-90547137D01*
X86035571Y-90611574D01*
X85943327Y-90653882D01*
X85822669Y-90670756D01*
X85700663Y-90658890D01*
X85604376Y-90614978D01*
X85593963Y-90605562D01*
X85585296Y-90550572D01*
X85591841Y-90435586D01*
X85609998Y-90283155D01*
X85636164Y-90115834D01*
X85666738Y-89956176D01*
X85698118Y-89826732D01*
X85726704Y-89750057D01*
X85731681Y-89743136D01*
X85756233Y-89767117D01*
X85802010Y-89851458D01*
X85860934Y-89977089D01*
X85924923Y-90124938D01*
X85985896Y-90275933D01*
X86035773Y-90411002D01*
X86066474Y-90511073D01*
X86072334Y-90547137D01*
X86330354Y-90547137D01*
X86324979Y-90509456D01*
X86293387Y-90404726D01*
X86236773Y-90251689D01*
X86151680Y-90036498D01*
X86135424Y-89995954D01*
X86053335Y-89788635D01*
X85983970Y-89608173D01*
X85932945Y-89469597D01*
X85905876Y-89387932D01*
X85903001Y-89374064D01*
X85941263Y-89350543D01*
X86039915Y-89335028D01*
X86133473Y-89331333D01*
X86347754Y-89305381D01*
X86495965Y-89226957D01*
X86579149Y-89095211D01*
X86599576Y-88950333D01*
X86567827Y-88775177D01*
X86471886Y-88654026D01*
X86310712Y-88586030D01*
X86133473Y-88569333D01*
X86006610Y-88562239D01*
X85922928Y-88543948D01*
X85903000Y-88526601D01*
X85918057Y-88473992D01*
X85959481Y-88358016D01*
X86021658Y-88193702D01*
X86098970Y-87996077D01*
X86135424Y-87904712D01*
X86225326Y-87678447D01*
X86286205Y-87516523D01*
X86321516Y-87405091D01*
X86330722Y-87352915D01*
X86072334Y-87352915D01*
X86057562Y-87421912D01*
X86018626Y-87537679D01*
X85963599Y-87681152D01*
X85900551Y-87833267D01*
X85837554Y-87974958D01*
X85782679Y-88087163D01*
X85743997Y-88150815D01*
X85731681Y-88157530D01*
X85711411Y-88103878D01*
X85681437Y-87987247D01*
X85646748Y-87828039D01*
X85628775Y-87736639D01*
X85599328Y-87562352D01*
X85581679Y-87418264D01*
X85578076Y-87325336D01*
X85582392Y-87304362D01*
X85653684Y-87252146D01*
X85764825Y-87230377D01*
X85888434Y-87236343D01*
X85997128Y-87267331D01*
X86063526Y-87320626D01*
X86072334Y-87352915D01*
X86330722Y-87352915D01*
X86334713Y-87330301D01*
X86329253Y-87278304D01*
X86308590Y-87235253D01*
X86304168Y-87228366D01*
X86174425Y-87095255D01*
X86006984Y-87013784D01*
X85822004Y-86983774D01*
X85639643Y-87005048D01*
X85480057Y-87077424D01*
X85363404Y-87200725D01*
X85344482Y-87236892D01*
X85328122Y-87299140D01*
X85326982Y-87392013D01*
X85342438Y-87529502D01*
X85375868Y-87725595D01*
X85409941Y-87901403D01*
X85451257Y-88112285D01*
X85485706Y-88295276D01*
X85510184Y-88433337D01*
X85521586Y-88509428D01*
X85522032Y-88516416D01*
X85495434Y-88543186D01*
X85409295Y-88559991D01*
X85254038Y-88568105D01*
X85124641Y-88569333D01*
X84727281Y-88569333D01*
X84698292Y-88368250D01*
X84568434Y-87758681D01*
X84361004Y-87173818D01*
X84081315Y-86621093D01*
X83734681Y-86107940D01*
X83326415Y-85641790D01*
X82861831Y-85230079D01*
X82346244Y-84880237D01*
X82113382Y-84752318D01*
X81685111Y-84557796D01*
X81238308Y-84400641D01*
X80794571Y-84286739D01*
X80375500Y-84221974D01*
X80118955Y-84209000D01*
X79891667Y-84209000D01*
X79891667Y-84717000D01*
X80076622Y-84717000D01*
X80207911Y-84724557D01*
X80387449Y-84744559D01*
X80580429Y-84772998D01*
X80616372Y-84779135D01*
X81200604Y-84923002D01*
X81749877Y-85141080D01*
X82258971Y-85428309D01*
X82722664Y-85779629D01*
X83135736Y-86189978D01*
X83492966Y-86654296D01*
X83789132Y-87167523D01*
X84019015Y-87724597D01*
X84153836Y-88208045D01*
X84187123Y-88419772D01*
X84209411Y-88689099D01*
X84220409Y-88989639D01*
X84219826Y-89295004D01*
X84207370Y-89578809D01*
X84182750Y-89814664D01*
X84172248Y-89875737D01*
X84016942Y-90458349D01*
X83788804Y-91006035D01*
X83493508Y-91513104D01*
X83136725Y-91973868D01*
X82724129Y-92382637D01*
X82261391Y-92733721D01*
X81754184Y-93021431D01*
X81208181Y-93240078D01*
X80684680Y-93373796D01*
X80594279Y-93382815D01*
X80425013Y-93391229D01*
X80182356Y-93399037D01*
X79871780Y-93406239D01*
X79498759Y-93412836D01*
X79068765Y-93418828D01*
X78587272Y-93424215D01*
X78059753Y-93428996D01*
X77491681Y-93433173D01*
X76888528Y-93436745D01*
X76255769Y-93439712D01*
X75598875Y-93442075D01*
X74923321Y-93443833D01*
X74234579Y-93444988D01*
X73538122Y-93445538D01*
X72839424Y-93445484D01*
X72143957Y-93444827D01*
X71457195Y-93443565D01*
X70784611Y-93441701D01*
X70131677Y-93439232D01*
X69503867Y-93436161D01*
X68906654Y-93432486D01*
X68345511Y-93428209D01*
X67825911Y-93423328D01*
X67353327Y-93417845D01*
X66933233Y-93411759D01*
X66571101Y-93405071D01*
X66272404Y-93397781D01*
X66042615Y-93389888D01*
X65887209Y-93381393D01*
X65816377Y-93373431D01*
X65221689Y-93210038D01*
X64678046Y-92980839D01*
X64179474Y-92682613D01*
X63719997Y-92312138D01*
X63559770Y-92157188D01*
X63184743Y-91735857D01*
X62883885Y-91301343D01*
X62646853Y-90835332D01*
X62463303Y-90319508D01*
X62408382Y-90118311D01*
X62356169Y-89904951D01*
X62329058Y-89758979D01*
X62329495Y-89666204D01*
X62359927Y-89612436D01*
X62422797Y-89583483D01*
X62503250Y-89567834D01*
X62637838Y-89537679D01*
X62834668Y-89481786D01*
X63077322Y-89405743D01*
X63349383Y-89315137D01*
X63634433Y-89215555D01*
X63916056Y-89112584D01*
X64177833Y-89011811D01*
X64376500Y-88930342D01*
X64934765Y-88675787D01*
X65412835Y-88419648D01*
X65815087Y-88156260D01*
X66145895Y-87879957D01*
X66409633Y-87585075D01*
X66610677Y-87265949D01*
X66753401Y-86916914D01*
X66842180Y-86532304D01*
X66879990Y-86121641D01*
X66628272Y-86121641D01*
X66594176Y-86508606D01*
X66519004Y-86842838D01*
X66399123Y-87136782D01*
X66230903Y-87402882D01*
X66060987Y-87602076D01*
X65881176Y-87778463D01*
X65691974Y-87935155D01*
X65476171Y-88083927D01*
X65216551Y-88236555D01*
X64895904Y-88404812D01*
X64864352Y-88420679D01*
X64582613Y-88555690D01*
X64273049Y-88693250D01*
X63948541Y-88828615D01*
X63621970Y-88957039D01*
X63306218Y-89073779D01*
X63014166Y-89174089D01*
X62758694Y-89253224D01*
X62552684Y-89306439D01*
X62409017Y-89328990D01*
X62397417Y-89329398D01*
X62281000Y-89331333D01*
X62281000Y-89019378D01*
X62289239Y-88817586D01*
X62310896Y-88582301D01*
X62341384Y-88362758D01*
X62343136Y-88352628D01*
X62487160Y-87765987D01*
X62704614Y-87214462D01*
X62990062Y-86703508D01*
X63338066Y-86238583D01*
X63743191Y-85825142D01*
X64199999Y-85468640D01*
X64703053Y-85174533D01*
X65246917Y-84948277D01*
X65826153Y-84795328D01*
X65901944Y-84781432D01*
X66087600Y-84751758D01*
X66257599Y-84729304D01*
X66382804Y-84717776D01*
X66408472Y-84717000D01*
X66495475Y-84723792D01*
X66540492Y-84759760D01*
X66564849Y-84848283D01*
X66572576Y-84896916D01*
X66584435Y-85006263D01*
X66597762Y-85178318D01*
X66611071Y-85391175D01*
X66622878Y-85622928D01*
X66624923Y-85669500D01*
X66628272Y-86121641D01*
X66879990Y-86121641D01*
X66881389Y-86106454D01*
X66878252Y-85690666D01*
X66866430Y-85462687D01*
X66852492Y-85242592D01*
X66838249Y-85056719D01*
X66826518Y-84939250D01*
X66798874Y-84717000D01*
X79849334Y-84717000D01*
X79849334Y-84209000D01*
X77353228Y-84209000D01*
X77333349Y-82487214D01*
X77097667Y-82487214D01*
X77097667Y-84209447D01*
X69414167Y-84187833D01*
X69402725Y-83309416D01*
X69391283Y-82431000D01*
X70672725Y-82431038D01*
X70960466Y-82431549D01*
X71319878Y-82433004D01*
X71737969Y-82435308D01*
X72201750Y-82438367D01*
X72698230Y-82442085D01*
X73214418Y-82446368D01*
X73737325Y-82451122D01*
X74253961Y-82456251D01*
X74525917Y-82459145D01*
X77097667Y-82487214D01*
X77333349Y-82487214D01*
X77330500Y-82240500D01*
X73308834Y-82215467D01*
X72706221Y-82212106D01*
X72133364Y-82209675D01*
X71595705Y-82208158D01*
X71098683Y-82207540D01*
X70647741Y-82207805D01*
G36*
X73157151Y-90819539D02*
G01*
X72706928Y-90821286D01*
X72283043Y-90823167D01*
X69860252Y-90834166D01*
X69727840Y-90966600D01*
X69615881Y-91129945D01*
X69572669Y-91311830D01*
X69594257Y-91493051D01*
X69676696Y-91654403D01*
X69816039Y-91776682D01*
X69902466Y-91816027D01*
X69965386Y-91828215D01*
X70080813Y-91838583D01*
X70253110Y-91847225D01*
X70486637Y-91854233D01*
X70785756Y-91859701D01*
X71154829Y-91863721D01*
X71598218Y-91866388D01*
X72120284Y-91867794D01*
X72335167Y-91868014D01*
X72835715Y-91868185D01*
X73258753Y-91867858D01*
X73611439Y-91866809D01*
X73900929Y-91864813D01*
X74134381Y-91861647D01*
X74318950Y-91857088D01*
X74461795Y-91850911D01*
X74570072Y-91842892D01*
X74650938Y-91832807D01*
X74711550Y-91820433D01*
X74759064Y-91805546D01*
X74793712Y-91791107D01*
X74939106Y-91689110D01*
X75049804Y-91544210D01*
X75105198Y-91385658D01*
X75108000Y-91344992D01*
X75074717Y-91194301D01*
X74989395Y-91039337D01*
X74873833Y-90917266D01*
X74845965Y-90898177D01*
X74814221Y-90879944D01*
X74778650Y-90864528D01*
X74732409Y-90851730D01*
X74668655Y-90841348D01*
X74580543Y-90833184D01*
X74461231Y-90827037D01*
X74303875Y-90822706D01*
X74101633Y-90819991D01*
X73847660Y-90818691D01*
X73535114Y-90818608D01*
X73157151Y-90819539D01*
G37*
X73157151Y-90819539D02*
X72706928Y-90821286D01*
X72283043Y-90823167D01*
X69860252Y-90834166D01*
X69727840Y-90966600D01*
X69615881Y-91129945D01*
X69572669Y-91311830D01*
X69594257Y-91493051D01*
X69676696Y-91654403D01*
X69816039Y-91776682D01*
X69902466Y-91816027D01*
X69965386Y-91828215D01*
X70080813Y-91838583D01*
X70253110Y-91847225D01*
X70486637Y-91854233D01*
X70785756Y-91859701D01*
X71154829Y-91863721D01*
X71598218Y-91866388D01*
X72120284Y-91867794D01*
X72335167Y-91868014D01*
X72835715Y-91868185D01*
X73258753Y-91867858D01*
X73611439Y-91866809D01*
X73900929Y-91864813D01*
X74134381Y-91861647D01*
X74318950Y-91857088D01*
X74461795Y-91850911D01*
X74570072Y-91842892D01*
X74650938Y-91832807D01*
X74711550Y-91820433D01*
X74759064Y-91805546D01*
X74793712Y-91791107D01*
X74939106Y-91689110D01*
X75049804Y-91544210D01*
X75105198Y-91385658D01*
X75108000Y-91344992D01*
X75074717Y-91194301D01*
X74989395Y-91039337D01*
X74873833Y-90917266D01*
X74845965Y-90898177D01*
X74814221Y-90879944D01*
X74778650Y-90864528D01*
X74732409Y-90851730D01*
X74668655Y-90841348D01*
X74580543Y-90833184D01*
X74461231Y-90827037D01*
X74303875Y-90822706D01*
X74101633Y-90819991D01*
X73847660Y-90818691D01*
X73535114Y-90818608D01*
X73157151Y-90819539D01*
G36*
X78799864Y-85548855D02*
G01*
X78638704Y-85584369D01*
X78290062Y-85718415D01*
X77992921Y-85911618D01*
X77750151Y-86153829D01*
X77564622Y-86434898D01*
X77439204Y-86744675D01*
X77376765Y-87073011D01*
X77380176Y-87409757D01*
X77452306Y-87744763D01*
X77596025Y-88067879D01*
X77814203Y-88368956D01*
X77842613Y-88400016D01*
X78124072Y-88640965D01*
X78447425Y-88813079D01*
X78800115Y-88912353D01*
X79169581Y-88934787D01*
X79424083Y-88904089D01*
X79755762Y-88797451D01*
X80063185Y-88617955D01*
X80332365Y-88376782D01*
X80549315Y-88085116D01*
X80624218Y-87944525D01*
X80687386Y-87803799D01*
X80727134Y-87686784D01*
X80748814Y-87565345D01*
X80757777Y-87411344D01*
X80759142Y-87261427D01*
X80004494Y-87261427D01*
X79956530Y-87509053D01*
X79845257Y-87739781D01*
X79679729Y-87933550D01*
X79514592Y-88048336D01*
X79296533Y-88124068D01*
X79052848Y-88147643D01*
X78817065Y-88118390D01*
X78672897Y-88065210D01*
X78446744Y-87905703D01*
X78281810Y-87699373D01*
X78182673Y-87460640D01*
X78153910Y-87203925D01*
X78200097Y-86943649D01*
X78267605Y-86788236D01*
X78427977Y-86570018D01*
X78626451Y-86417531D01*
X78849984Y-86329034D01*
X79085536Y-86302785D01*
X79320063Y-86337041D01*
X79540523Y-86430061D01*
X79733874Y-86580103D01*
X79887073Y-86785424D01*
X79980095Y-87016967D01*
X80004494Y-87261427D01*
X80759142Y-87261427D01*
X80759394Y-87233786D01*
X80757615Y-87034167D01*
X80748130Y-86890684D01*
X80724896Y-86774821D01*
X80681867Y-86658062D01*
X80613001Y-86511893D01*
X80601397Y-86488357D01*
X80399757Y-86168761D01*
X80144977Y-85908064D01*
X79847329Y-85710995D01*
X79517081Y-85582284D01*
X79164503Y-85526660D01*
X78799864Y-85548855D01*
G37*
X78799864Y-85548855D02*
X78638704Y-85584369D01*
X78290062Y-85718415D01*
X77992921Y-85911618D01*
X77750151Y-86153829D01*
X77564622Y-86434898D01*
X77439204Y-86744675D01*
X77376765Y-87073011D01*
X77380176Y-87409757D01*
X77452306Y-87744763D01*
X77596025Y-88067879D01*
X77814203Y-88368956D01*
X77842613Y-88400016D01*
X78124072Y-88640965D01*
X78447425Y-88813079D01*
X78800115Y-88912353D01*
X79169581Y-88934787D01*
X79424083Y-88904089D01*
X79755762Y-88797451D01*
X80063185Y-88617955D01*
X80332365Y-88376782D01*
X80549315Y-88085116D01*
X80624218Y-87944525D01*
X80687386Y-87803799D01*
X80727134Y-87686784D01*
X80748814Y-87565345D01*
X80757777Y-87411344D01*
X80759142Y-87261427D01*
X80004494Y-87261427D01*
X79956530Y-87509053D01*
X79845257Y-87739781D01*
X79679729Y-87933550D01*
X79514592Y-88048336D01*
X79296533Y-88124068D01*
X79052848Y-88147643D01*
X78817065Y-88118390D01*
X78672897Y-88065210D01*
X78446744Y-87905703D01*
X78281810Y-87699373D01*
X78182673Y-87460640D01*
X78153910Y-87203925D01*
X78200097Y-86943649D01*
X78267605Y-86788236D01*
X78427977Y-86570018D01*
X78626451Y-86417531D01*
X78849984Y-86329034D01*
X79085536Y-86302785D01*
X79320063Y-86337041D01*
X79540523Y-86430061D01*
X79733874Y-86580103D01*
X79887073Y-86785424D01*
X79980095Y-87016967D01*
X80004494Y-87261427D01*
X80759142Y-87261427D01*
X80759394Y-87233786D01*
X80757615Y-87034167D01*
X80748130Y-86890684D01*
X80724896Y-86774821D01*
X80681867Y-86658062D01*
X80613001Y-86511893D01*
X80601397Y-86488357D01*
X80399757Y-86168761D01*
X80144977Y-85908064D01*
X79847329Y-85710995D01*
X79517081Y-85582284D01*
X79164503Y-85526660D01*
X78799864Y-85548855D01*
G36*
X70648199Y-85507214D02*
G01*
X70589787Y-85516856D01*
X70229396Y-85622431D01*
X69913032Y-85792345D01*
X69645616Y-86016853D01*
X69432071Y-86286211D01*
X69277318Y-86590676D01*
X69186279Y-86920504D01*
X69163877Y-87265951D01*
X69215033Y-87617273D01*
X69344668Y-87964727D01*
X69348960Y-87973285D01*
X69499758Y-88206185D01*
X69703644Y-88429619D01*
X69936555Y-88621452D01*
X70174425Y-88759548D01*
X70227620Y-88781500D01*
X70440230Y-88840865D01*
X70690187Y-88879223D01*
X70944494Y-88893929D01*
X71170153Y-88882340D01*
X71266423Y-88864741D01*
X71612224Y-88736906D01*
X71912608Y-88545784D01*
X72162541Y-88301875D01*
X72356995Y-88015677D01*
X72490935Y-87697689D01*
X72559333Y-87358412D01*
X72558307Y-87193500D01*
X71782906Y-87193500D01*
X71743269Y-87478553D01*
X71632231Y-87722487D01*
X71455805Y-87917657D01*
X71220000Y-88056419D01*
X71065167Y-88106415D01*
X70938007Y-88133434D01*
X70839562Y-88138135D01*
X70726887Y-88119791D01*
X70641891Y-88099264D01*
X70498310Y-88042398D01*
X70344608Y-87951129D01*
X70278728Y-87900544D01*
X70094418Y-87693243D01*
X69982790Y-87459172D01*
X69942153Y-87212026D01*
X69970818Y-86965499D01*
X70067094Y-86733287D01*
X70229293Y-86529084D01*
X70455725Y-86366585D01*
X70468829Y-86359736D01*
X70672035Y-86295929D01*
X70908384Y-86284006D01*
X71145851Y-86321799D01*
X71352408Y-86407140D01*
X71374422Y-86421018D01*
X71576853Y-86603526D01*
X71714108Y-86833917D01*
X71778774Y-87098173D01*
X71782906Y-87193500D01*
X72558307Y-87193500D01*
X72557155Y-87008342D01*
X72479371Y-86657981D01*
X72408500Y-86481566D01*
X72217139Y-86165259D01*
X71969833Y-85902490D01*
X71677933Y-85699279D01*
X71352793Y-85561649D01*
X71005765Y-85495620D01*
X70648199Y-85507214D01*
G37*
X70648199Y-85507214D02*
X70589787Y-85516856D01*
X70229396Y-85622431D01*
X69913032Y-85792345D01*
X69645616Y-86016853D01*
X69432071Y-86286211D01*
X69277318Y-86590676D01*
X69186279Y-86920504D01*
X69163877Y-87265951D01*
X69215033Y-87617273D01*
X69344668Y-87964727D01*
X69348960Y-87973285D01*
X69499758Y-88206185D01*
X69703644Y-88429619D01*
X69936555Y-88621452D01*
X70174425Y-88759548D01*
X70227620Y-88781500D01*
X70440230Y-88840865D01*
X70690187Y-88879223D01*
X70944494Y-88893929D01*
X71170153Y-88882340D01*
X71266423Y-88864741D01*
X71612224Y-88736906D01*
X71912608Y-88545784D01*
X72162541Y-88301875D01*
X72356995Y-88015677D01*
X72490935Y-87697689D01*
X72559333Y-87358412D01*
X72558307Y-87193500D01*
X71782906Y-87193500D01*
X71743269Y-87478553D01*
X71632231Y-87722487D01*
X71455805Y-87917657D01*
X71220000Y-88056419D01*
X71065167Y-88106415D01*
X70938007Y-88133434D01*
X70839562Y-88138135D01*
X70726887Y-88119791D01*
X70641891Y-88099264D01*
X70498310Y-88042398D01*
X70344608Y-87951129D01*
X70278728Y-87900544D01*
X70094418Y-87693243D01*
X69982790Y-87459172D01*
X69942153Y-87212026D01*
X69970818Y-86965499D01*
X70067094Y-86733287D01*
X70229293Y-86529084D01*
X70455725Y-86366585D01*
X70468829Y-86359736D01*
X70672035Y-86295929D01*
X70908384Y-86284006D01*
X71145851Y-86321799D01*
X71352408Y-86407140D01*
X71374422Y-86421018D01*
X71576853Y-86603526D01*
X71714108Y-86833917D01*
X71778774Y-87098173D01*
X71782906Y-87193500D01*
X72558307Y-87193500D01*
X72557155Y-87008342D01*
X72479371Y-86657981D01*
X72408500Y-86481566D01*
X72217139Y-86165259D01*
X71969833Y-85902490D01*
X71677933Y-85699279D01*
X71352793Y-85561649D01*
X71005765Y-85495620D01*
X70648199Y-85507214D01*
G36*
X74516367Y-85478891D02*
G01*
X74188194Y-85583097D01*
X73886509Y-85752888D01*
X73622253Y-85985604D01*
X73406365Y-86278585D01*
X73348869Y-86385469D01*
X73214779Y-86746456D01*
X73163948Y-87113210D01*
X73196127Y-87478562D01*
X73311068Y-87835345D01*
X73405631Y-88018809D01*
X73605298Y-88286986D01*
X73860123Y-88518832D01*
X74146042Y-88693869D01*
X74251812Y-88738979D01*
X74509331Y-88808935D01*
X74794890Y-88843174D01*
X75071954Y-88839166D01*
X75256167Y-88808516D01*
X75610759Y-88676015D01*
X75918288Y-88481068D01*
X76173387Y-88233526D01*
X76370690Y-87943238D01*
X76504832Y-87620053D01*
X76570446Y-87273822D01*
X76564641Y-87021738D01*
X75786669Y-87021738D01*
X75776304Y-87281646D01*
X75700943Y-87531659D01*
X75565718Y-87747950D01*
X75503461Y-87812887D01*
X75342639Y-87943440D01*
X75188763Y-88018820D01*
X75010384Y-88050111D01*
X74828481Y-88050835D01*
X74650506Y-88038017D01*
X74523150Y-88009868D01*
X74412562Y-87956832D01*
X74349555Y-87915629D01*
X74153342Y-87734247D01*
X74021685Y-87516904D01*
X73953833Y-87278259D01*
X73949039Y-87032971D01*
X74006554Y-86795697D01*
X74125629Y-86581097D01*
X74305516Y-86403829D01*
X74430667Y-86327270D01*
X74684284Y-86241860D01*
X74944640Y-86229380D01*
X75195872Y-86284339D01*
X75422117Y-86401251D01*
X75607512Y-86574626D01*
X75726902Y-86775766D01*
X75786669Y-87021738D01*
X76564641Y-87021738D01*
X76562168Y-86914393D01*
X76478985Y-86563956D01*
X76356970Y-86309568D01*
X76178133Y-86058813D01*
X75965869Y-85842407D01*
X75875149Y-85771127D01*
X75550419Y-85586388D01*
X75208419Y-85477876D01*
X74860089Y-85442931D01*
X74516367Y-85478891D01*
G37*
X74516367Y-85478891D02*
X74188194Y-85583097D01*
X73886509Y-85752888D01*
X73622253Y-85985604D01*
X73406365Y-86278585D01*
X73348869Y-86385469D01*
X73214779Y-86746456D01*
X73163948Y-87113210D01*
X73196127Y-87478562D01*
X73311068Y-87835345D01*
X73405631Y-88018809D01*
X73605298Y-88286986D01*
X73860123Y-88518832D01*
X74146042Y-88693869D01*
X74251812Y-88738979D01*
X74509331Y-88808935D01*
X74794890Y-88843174D01*
X75071954Y-88839166D01*
X75256167Y-88808516D01*
X75610759Y-88676015D01*
X75918288Y-88481068D01*
X76173387Y-88233526D01*
X76370690Y-87943238D01*
X76504832Y-87620053D01*
X76570446Y-87273822D01*
X76564641Y-87021738D01*
X75786669Y-87021738D01*
X75776304Y-87281646D01*
X75700943Y-87531659D01*
X75565718Y-87747950D01*
X75503461Y-87812887D01*
X75342639Y-87943440D01*
X75188763Y-88018820D01*
X75010384Y-88050111D01*
X74828481Y-88050835D01*
X74650506Y-88038017D01*
X74523150Y-88009868D01*
X74412562Y-87956832D01*
X74349555Y-87915629D01*
X74153342Y-87734247D01*
X74021685Y-87516904D01*
X73953833Y-87278259D01*
X73949039Y-87032971D01*
X74006554Y-86795697D01*
X74125629Y-86581097D01*
X74305516Y-86403829D01*
X74430667Y-86327270D01*
X74684284Y-86241860D01*
X74944640Y-86229380D01*
X75195872Y-86284339D01*
X75422117Y-86401251D01*
X75607512Y-86574626D01*
X75726902Y-86775766D01*
X75786669Y-87021738D01*
X76564641Y-87021738D01*
X76562168Y-86914393D01*
X76478985Y-86563956D01*
X76356970Y-86309568D01*
X76178133Y-86058813D01*
X75965869Y-85842407D01*
X75875149Y-85771127D01*
X75550419Y-85586388D01*
X75208419Y-85477876D01*
X74860089Y-85442931D01*
X74516367Y-85478891D01*
%TD*%
D14*
X126900000Y-83900000D02*
X112100000Y-83900000D01*
X112100000Y-80100000D01*
X126900000Y-80100000D01*
X126900000Y-83900000D01*
D15*
G36*
X126900000Y-83900000D02*
G01*
X112100000Y-83900000D01*
X112100000Y-80100000D01*
X126900000Y-80100000D01*
X126900000Y-83900000D01*
G37*
M02*
