%TF.GenerationSoftware,KiCad,Pcbnew,(5.1.7)-1*%
%TF.CreationDate,2021-06-10T19:06:36+03:00*%
%TF.ProjectId,SynchronousBuck,53796e63-6872-46f6-9e6f-75734275636b,rev?*%
%TF.SameCoordinates,Original*%
%TF.FileFunction,Soldermask,Bot*%
%TF.FilePolarity,Negative*%
%FSLAX46Y46*%
G04 Gerber Fmt 4.6, Leading zero omitted, Abs format (unit mm)*
G04 Created by KiCad (PCBNEW (5.1.7)-1) date 2021-06-10 19:06:36*
%MOMM*%
%LPD*%
G01*
G04 APERTURE LIST*
%ADD10C,1.800000*%
%ADD11C,8.000000*%
%ADD12C,4.300000*%
%ADD13O,1.700000X1.700000*%
%ADD14R,1.700000X1.700000*%
%ADD15C,0.600000*%
%ADD16C,0.800000*%
G04 APERTURE END LIST*
D10*
%TO.C,J104*%
X82950000Y-116200000D03*
X86450000Y-116200000D03*
%TD*%
D11*
%TO.C,J103*%
X94000000Y-66000000D03*
X106000000Y-66000000D03*
%TD*%
%TO.C,J101*%
X90700000Y-122200000D03*
X78700000Y-122200000D03*
%TD*%
D12*
%TO.C,H104*%
X128584270Y-71415730D03*
%TD*%
%TO.C,H103*%
X71415730Y-71415730D03*
%TD*%
%TO.C,H102*%
X71415730Y-128584270D03*
%TD*%
%TO.C,H101*%
X128584270Y-128584270D03*
%TD*%
D13*
%TO.C,J102*%
X122600000Y-107520000D03*
X122600000Y-104980000D03*
X122600000Y-102440000D03*
D14*
X122600000Y-99900000D03*
%TD*%
D15*
X107950000Y-111500000D03*
X107950000Y-113100000D03*
D16*
X113800000Y-94400000D03*
X113800000Y-95400000D03*
X113800000Y-98400000D03*
X112900000Y-94900000D03*
X100300000Y-90700000D03*
X116008000Y-113200000D03*
X109700000Y-106100000D03*
X116008000Y-112200000D03*
X116008000Y-111200000D03*
X116008000Y-110200000D03*
X116808000Y-112700000D03*
X116808000Y-111700000D03*
X116808000Y-110700000D03*
D15*
X112700000Y-99100000D03*
D16*
X112900000Y-96900000D03*
X113800000Y-96300000D03*
X112900000Y-97900000D03*
X112900000Y-93900000D03*
X102200000Y-90700000D03*
X113800000Y-97300000D03*
X101300000Y-90700000D03*
X112900000Y-95900000D03*
D15*
X114600000Y-121600000D03*
X112700000Y-102000000D03*
X106525000Y-118375000D03*
X107700000Y-119700000D03*
X91300000Y-111400000D03*
X91800000Y-112400000D03*
X92000000Y-113600000D03*
X92200000Y-116400000D03*
X92200000Y-115100000D03*
X127700000Y-97100000D03*
X126000000Y-95600000D03*
X118500000Y-98800000D03*
X120100000Y-98400000D03*
D16*
X103200000Y-90700000D03*
D15*
X56684999Y-93924999D03*
X56684999Y-105324999D03*
X58964999Y-114444999D03*
X59724999Y-83284999D03*
X62764999Y-99244999D03*
X62764999Y-122044999D03*
X64284999Y-74924999D03*
X65044999Y-89364999D03*
X65044999Y-108364999D03*
X67324999Y-128884999D03*
X68844999Y-115964999D03*
X69604999Y-81004999D03*
X70364999Y-68084999D03*
X70364999Y-95444999D03*
X72644999Y-104564999D03*
X73404999Y-122804999D03*
X73404999Y-134204999D03*
X74924999Y-87084999D03*
X75684999Y-74164999D03*
X76444999Y-112164999D03*
X77204999Y-62764999D03*
X78724999Y-98484999D03*
X81004999Y-80244999D03*
X82524999Y-68844999D03*
X82524999Y-90884999D03*
X82524999Y-106084999D03*
X85564999Y-58964999D03*
X87844999Y-74924999D03*
X88604999Y-85564999D03*
X88604999Y-96964999D03*
X94684999Y-56684999D03*
X95444999Y-71124999D03*
X98484999Y-92404999D03*
X99244999Y-63524999D03*
X99244999Y-78724999D03*
X105324999Y-57444999D03*
X108364999Y-90884999D03*
X110644999Y-69604999D03*
X110644999Y-81004999D03*
X113684999Y-60484999D03*
X114444999Y-100764999D03*
X116724999Y-74924999D03*
X117484999Y-85564999D03*
X118244999Y-108364999D03*
X119764999Y-65804999D03*
X119764999Y-94684999D03*
X121284999Y-128124999D03*
X124324999Y-78724999D03*
X124324999Y-103044999D03*
X124324999Y-115964999D03*
X125844999Y-88604999D03*
X126604999Y-134204999D03*
X128124999Y-123564999D03*
X128884999Y-68084999D03*
X129644999Y-96204999D03*
X129644999Y-109124999D03*
X131924999Y-82524999D03*
X134204999Y-117484999D03*
X134964999Y-74164999D03*
X134964999Y-102284999D03*
X135724999Y-90124999D03*
X139524999Y-110644999D03*
X141044999Y-96204999D03*
D16*
X105500000Y-121000000D03*
X101000000Y-119000000D03*
X98300000Y-119600000D03*
X96000000Y-121000000D03*
X99500000Y-121000000D03*
X102500000Y-121000000D03*
X122500000Y-126000000D03*
X122500000Y-123000000D03*
X121000000Y-124500000D03*
X119500000Y-126000000D03*
X116500000Y-126000000D03*
X113500000Y-126000000D03*
X113500000Y-123000000D03*
X115000000Y-124500000D03*
X111500000Y-124500000D03*
X110000000Y-126000000D03*
X110000000Y-123000000D03*
X107000000Y-126000000D03*
X107000000Y-123000000D03*
X104000000Y-126000000D03*
X104000000Y-123000000D03*
X108500000Y-124500000D03*
X105500000Y-124500000D03*
X101000000Y-126000000D03*
X101000000Y-123000000D03*
X102500000Y-124500000D03*
X98000000Y-126000000D03*
X99500000Y-124500000D03*
X98000000Y-123000000D03*
X96000000Y-124500000D03*
X118000000Y-124500000D03*
D15*
X110135000Y-116100000D03*
D16*
X99100000Y-100900000D03*
X105100000Y-98900000D03*
X104100000Y-99900000D03*
X105100000Y-100900000D03*
X103100000Y-100900000D03*
X101100000Y-100900000D03*
X100100000Y-99900000D03*
X102100000Y-99900000D03*
X103100000Y-98900000D03*
X101100000Y-98900000D03*
X99100000Y-98900000D03*
X98100000Y-99900000D03*
D15*
X112700000Y-106400000D03*
X113500000Y-105000000D03*
D16*
X90000000Y-99500000D03*
X90000000Y-100500000D03*
X90000000Y-101500000D03*
X90000000Y-102500000D03*
X90000000Y-103500000D03*
X90000000Y-104500000D03*
X90000000Y-105500000D03*
X90000000Y-106500000D03*
X90000000Y-107500000D03*
X98000000Y-108000000D03*
X98000000Y-107000000D03*
X98000000Y-106000000D03*
X98000000Y-105000000D03*
X98000000Y-104000000D03*
X91000000Y-102000000D03*
X92000000Y-102000000D03*
X93000000Y-102000000D03*
X94000000Y-102000000D03*
X95000000Y-102000000D03*
X96000000Y-102000000D03*
D15*
X97800000Y-109700000D03*
X104394000Y-110490000D03*
X98200000Y-102200000D03*
X111400000Y-106100000D03*
D16*
X104800000Y-80300000D03*
X104800000Y-81400000D03*
X103900000Y-87400000D03*
X104800000Y-83500000D03*
X104800000Y-84700000D03*
X104800000Y-85700000D03*
X104800000Y-86800000D03*
X104800000Y-82500000D03*
X103900000Y-83000000D03*
X103900000Y-81900000D03*
X103900000Y-80900000D03*
X103900000Y-84100000D03*
X103900000Y-85200000D03*
X103900000Y-86300000D03*
D15*
X115000000Y-114300000D03*
D16*
X94500000Y-91000000D03*
X120000000Y-106200000D03*
D15*
X109900000Y-107200000D03*
M02*
